<?xml version="1.0" encoding="UTF-8" standalone="no"?>
<!DOCTYPE svg PUBLIC "-//W3C//DTD SVG 1.1//EN" "http://www.w3.org/Graphics/SVG/1.1/DTD/svg11.dtd">
<svg version="1.1" xmlns="http://www.w3.org/2000/svg" xmlns:xlink="http://www.w3.org/1999/xlink" preserveAspectRatio="xMidYMid meet" viewBox="0 0 200 200" width="200" height="200"><defs><path d="M169.98 89.99C169.98 134.17 134.17 169.98 89.99 169.98C45.81 169.98 10 134.17 10 89.99C10 45.81 45.81 10 89.99 10C134.17 10 169.98 45.81 169.98 89.99" id="e2x7cmI87G"></path><path d="M89.99 169.98C45.81 169.98 10 134.17 10 89.99C10 45.81 45.81 10 89.99 10C134.17 10 169.98 45.81 169.98 89.99C169.98 134.17 134.17 169.98 89.99 169.98Z" id="f50FMYir9I"></path><path d="M14.41 57.08C14.41 57.08 14.77 56.75 15.44 56.14C15.73 55.86 16.29 55.42 16.92 54.94C17.55 54.42 18.26 53.97 19.07 53.44C20.69 52.45 22.74 51.34 25.21 50.5C27.67 49.64 30.51 48.95 33.62 48.6C39.85 47.86 47.12 48.45 54.45 50.46C61.79 52.47 69.19 55.86 75.9 60.29C79.26 62.49 82.44 64.95 85.38 67.58C86.11 68.25 86.85 68.89 87.54 69.59C87.61 69.66 87.96 70 88.59 70.61L89.18 71.19C89.46 71.5 89.62 71.68 89.65 71.71C90.91 73.09 92.16 74.45 93.39 75.79C94.57 77.27 95.74 78.74 96.88 80.17C97.99 81.61 98.92 83.09 99.91 84.5C100.93 85.89 101.72 87.36 102.55 88.75C102.96 89.44 103.36 90.13 103.75 90.8C104.14 91.48 104.45 92.18 104.8 92.84C105.45 94.19 106.13 95.46 106.68 96.71C107.2 97.98 107.69 99.18 108.16 100.31C108.65 101.43 108.97 102.53 109.3 103.54C109.63 104.55 109.93 105.48 110.19 106.32C110.66 108.02 110.93 109.39 111.15 110.31C111.37 111.23 111.48 111.72 111.48 111.72C110.99 111.81 107.06 112.57 106.57 112.66C106.57 112.66 106.46 112.21 106.25 111.37C106.03 110.53 105.77 109.29 105.32 107.73C105.06 106.96 104.78 106.11 104.46 105.18C104.15 104.25 103.84 103.23 103.36 102.2C102.92 101.15 102.44 100.04 101.94 98.86C101.41 97.7 100.76 96.52 100.13 95.27C99.8 94.65 99.5 94 99.13 93.37C98.75 92.74 98.36 92.1 97.97 91.46C97.17 90.17 96.42 88.79 95.44 87.5C94.5 86.21 93.59 84.8 92.55 83.49C91.5 82.2 90.43 80.89 89.34 79.55C88.09 78.23 86.83 76.88 85.55 75.52C85.52 75.49 85.36 75.32 85.07 75.01L84.65 74.62C84.06 74.05 83.73 73.74 83.66 73.68C83.01 73.04 82.31 72.45 81.62 71.84C78.85 69.43 75.86 67.18 72.73 65.18C66.45 61.16 59.57 58.13 52.87 56.39C46.18 54.66 39.7 54.25 34.4 54.96C31.75 55.3 29.4 55.9 27.42 56.63C25.42 57.33 23.85 58.24 22.6 59.01C21.99 59.43 21.42 59.79 21.04 60.12C20.64 60.45 20.3 60.68 19.95 61.03C19.28 61.65 18.93 61.98 18.93 61.98C18.02 61 15.31 58.06 14.41 57.08Z" id="f73RTv9AQl"></path><path d="M77.05 111.81C76.71 116.77 72.42 120.51 67.46 120.17C62.51 119.83 58.76 115.54 59.1 110.58C59.44 105.62 63.74 101.88 68.69 102.22C73.65 102.56 77.39 106.85 77.05 111.81" id="ajeGxHmTB"></path><path d="M105.55 111.95C105.04 111.26 104.54 110.52 104 109.86C103.02 108.61 101.98 107.4 100.89 106.24C100.36 105.65 99.81 105.08 99.24 104.52C98.69 103.96 98.13 103.39 97.53 102.87C96.39 101.78 95.16 100.79 93.95 99.8C92.68 98.89 91.44 97.93 90.09 97.16C88.8 96.3 87.4 95.68 86.03 94.98C84.62 94.45 83.19 93.81 81.84 93.53C80.61 93.08 78.79 92.95 77.19 92.71C77.54 92.74 77.28 92.72 77.35 92.73C77.35 92.73 77.34 92.73 77.33 92.73L77.3 92.73L77.23 92.73L77.09 92.73L76.81 92.73L76.26 92.73C75.59 92.73 75.22 92.73 75.14 92.73C74.4 92.68 73.66 92.81 72.91 92.9C71.42 93 69.95 93.44 68.48 93.77C67.03 94.28 65.56 94.7 64.16 95.38C62.72 95.96 61.36 96.74 59.98 97.47C58.64 98.29 57.29 99.1 56 100.02C55.34 100.46 54.72 100.94 54.09 101.42C53.45 101.9 52.82 102.38 52.22 102.9C50.99 103.9 49.79 104.96 48.64 106.06C47.5 107.14 46.34 108.32 45.38 109.41C45.4 109.1 45.57 106.57 45.59 106.25C46.4 107.47 47.39 108.8 48.37 110.02C49.36 111.27 50.4 112.48 51.48 113.64C52.01 114.23 52.57 114.8 53.13 115.35C53.69 115.92 54.24 116.48 54.84 117.01C55.98 118.1 57.21 119.08 58.43 120.08C59.7 120.99 60.94 121.95 62.28 122.72C63.58 123.58 64.98 124.2 66.34 124.9C67.75 125.43 69.19 126.07 70.53 126.35C71.22 126.53 71.84 126.76 72.72 126.84C72.95 126.87 74.78 127.12 75.01 127.15C76.49 127.11 77.97 127.25 79.46 126.98C80.95 126.87 82.42 126.44 83.9 126.11C85.34 125.6 86.82 125.18 88.22 124.5C89.65 123.92 91.01 123.14 92.39 122.41C93.74 121.59 95.09 120.78 96.37 119.85C97.03 119.42 97.66 118.94 98.29 118.45C98.92 117.98 99.55 117.49 100.16 116.98C101.39 115.97 102.58 114.92 103.73 113.82C104.36 113.23 104.95 112.57 105.55 111.95M107.41 117.68C106.16 118.87 104.88 120.01 103.54 121.1C102.89 121.65 102.21 122.18 101.52 122.7C100.83 123.22 100.15 123.74 99.43 124.22C98.03 125.23 96.54 126.13 95.05 127.03C93.51 127.85 92 128.72 90.36 129.38C88.77 130.14 87.06 130.65 85.38 131.23C83.63 131.64 81.91 132.13 80.09 132.27C78.31 132.59 76.46 132.46 74.64 132.47C74.38 132.44 72.27 132.16 72.01 132.12C71.23 132.06 70.27 131.79 69.36 131.55C67.45 131.13 65.85 130.42 64.17 129.77C62.59 128.98 60.96 128.23 59.49 127.26C57.96 126.38 56.58 125.32 55.16 124.29C53.81 123.2 52.46 122.11 51.21 120.91C50.56 120.34 49.96 119.73 49.35 119.12C48.74 118.51 48.13 117.9 47.56 117.25C46.39 115.99 45.27 114.69 44.2 113.35C43.12 111.99 42.12 110.66 41.1 109.12C40.44 108.12 40.56 106.82 41.32 105.96C42.54 104.57 43.7 103.39 44.97 102.2C46.21 101.01 47.5 99.87 48.83 98.78C49.48 98.23 50.17 97.7 50.86 97.18C51.54 96.66 52.22 96.13 52.95 95.66C54.35 94.65 55.84 93.75 57.32 92.85C58.86 92.03 60.38 91.16 62.02 90.5C63.6 89.74 65.32 89.22 66.99 88.65C68.74 88.24 70.46 87.75 72.28 87.61C73.18 87.5 74.07 87.35 74.99 87.4C75.09 87.4 75.54 87.4 76.36 87.4L77.05 87.4L77.39 87.4L77.56 87.4L77.65 87.4L77.69 87.4L77.71 87.41C77.83 87.42 77.89 87.42 77.91 87.42C79.58 87.68 81.09 87.74 83.02 88.33C84.92 88.74 86.52 89.46 88.2 90.11C89.79 90.9 91.42 91.64 92.88 92.61C94.41 93.5 95.79 94.56 97.21 95.59C98.56 96.68 99.91 97.77 101.16 98.96C101.81 99.54 102.42 100.15 103.02 100.76C103.64 101.37 104.24 101.98 104.81 102.62C105.98 103.88 107.1 105.19 108.17 106.53C109.26 107.89 110.25 109.21 111.27 110.76C111.94 111.76 111.82 113.06 111.06 113.92C109.85 115.29 108.66 116.49 107.41 117.68Z" id="a3tMvSyExY"></path></defs><g><g><g><use xlink:href="#e2x7cmI87G" opacity="1" fill="#ffffff" fill-opacity="1"></use><g><use xlink:href="#e2x7cmI87G" opacity="1" fill-opacity="0" stroke="#000000" stroke-width="1" stroke-opacity="0"></use></g></g><g><g><use xlink:href="#f50FMYir9I" opacity="1" fill-opacity="0" stroke="#1d1d1b" stroke-width="5" stroke-opacity="1"></use></g></g><g><use xlink:href="#f73RTv9AQl" opacity="1" fill="#1d1d1b" fill-opacity="1"></use><g><use xlink:href="#f73RTv9AQl" opacity="1" fill-opacity="0" stroke="#000000" stroke-width="1" stroke-opacity="0"></use></g></g><g><use xlink:href="#ajeGxHmTB" opacity="1" fill="#1d1d1b" fill-opacity="1"></use><g><use xlink:href="#ajeGxHmTB" opacity="1" fill-opacity="0" stroke="#000000" stroke-width="1" stroke-opacity="0"></use></g></g><g><use xlink:href="#a3tMvSyExY" opacity="1" fill="#1d1d1b" fill-opacity="1"></use><g><use xlink:href="#a3tMvSyExY" opacity="1" fill-opacity="0" stroke="#000000" stroke-width="1" stroke-opacity="0"></use></g></g></g></g></svg>