<?xml version="1.0" encoding="UTF-8" standalone="no"?>
<!DOCTYPE svg PUBLIC "-//W3C//DTD SVG 1.1//EN" "http://www.w3.org/Graphics/SVG/1.1/DTD/svg11.dtd">
<svg version="1.1" xmlns="http://www.w3.org/2000/svg" xmlns:xlink="http://www.w3.org/1999/xlink" preserveAspectRatio="xMidYMid meet" viewBox="0 0 200 200" width="200" height="200"><defs><path d="M20 158.63C20 135.99 55.65 128.52 99.83 128.52C144 128.52 180 138.65 180 159.15C180 173 167.64 181.55 152.18 181.55C134.85 181.55 124.18 172.45 124.18 158.6C124.18 171.35 115.52 179.56 100.18 179.56C83.52 179.56 76.19 171.35 76.19 158.6C76.19 172.45 64.52 181.55 47.86 181.55C32.39 181.55 20 172.48 20 158.63" id="a1RQgQSXfB"></path><path d="M23.33 158.63C23.34 161.53 24.01 164.34 25.34 166.82C26.66 169.32 28.63 171.48 31 173.19C33.35 174.92 36.11 176.19 39.03 177.02C40.49 177.43 41.99 177.73 43.51 177.93C45.05 178.12 46.51 178.21 48.13 178.22C51.27 178.23 54.38 177.89 57.34 177.13C60.3 176.38 63.1 175.15 65.53 173.48C67.95 171.8 69.96 169.62 71.32 167.07C72.71 164.53 73.45 161.61 73.52 158.6C73.52 158.59 73.52 158.52 73.52 158.51C73.56 157.04 74.78 155.88 76.25 155.91C77.71 155.95 78.86 157.15 78.85 158.6C78.85 158.6 78.85 158.6 78.85 158.6C79.01 161.37 79.45 164.06 80.47 166.4C81.45 168.75 82.93 170.76 84.91 172.23C86.88 173.69 89.26 174.75 91.86 175.37C93.16 175.68 94.49 175.91 95.87 176.04C97.29 176.17 98.5 176.23 100.09 176.22C101.4 176.23 102.84 176.18 104.18 176.03C105.54 175.9 106.87 175.66 108.16 175.32C110.74 174.67 113.1 173.56 115.12 172.07C117.12 170.57 118.7 168.58 119.75 166.27C120.85 163.97 121.36 161.32 121.51 158.6C121.87 158.6 123.65 158.6 126.85 158.6C126.85 158.6 126.85 158.6 126.85 158.6C126.95 163.6 128.79 168.29 132.16 171.62C135.55 174.95 140.26 176.92 145.25 177.74C146.5 177.94 147.76 178.08 149.04 178.16C149.69 178.19 150.25 178.22 150.93 178.23C151 178.23 151.35 178.23 151.97 178.23C152.13 178.23 152.21 178.23 152.23 178.23C152.2 178.23 152.36 178.23 152.42 178.23C152.46 178.22 152.85 178.21 152.89 178.21C155.44 178.15 157.97 177.85 160.39 177.24C165.24 176.07 169.7 173.64 172.72 170.1C174.22 168.33 175.31 166.28 175.96 164.07C176.29 163 176.49 161.76 176.58 160.71C176.68 159.43 176.68 158.33 176.52 157.24C175.98 152.85 172.92 148.94 168.88 145.97C164.84 142.96 159.96 140.76 154.95 139C149.91 137.24 144.65 135.93 139.33 134.91C128.66 132.89 117.72 131.95 106.77 131.64C101.32 131.47 95.79 131.5 90.31 131.67C84.83 131.83 79.35 132.13 73.91 132.62C68.46 133.11 63.05 133.79 57.72 134.77C52.39 135.75 47.14 137.04 42.17 138.86C37.23 140.67 32.49 143.05 28.91 146.36C27.13 148.01 25.68 149.89 24.73 151.96C24.26 153 23.9 154.07 23.67 155.19C23.56 155.75 23.47 156.31 23.41 156.89C23.41 156.94 23.39 157.2 23.35 157.67C23.34 158.18 23.34 158.5 23.33 158.63ZM16.67 158.54L16.7 157.5C16.76 156.73 16.79 156.3 16.8 156.22C16.89 155.41 17.01 154.61 17.18 153.81C17.53 152.22 18.06 150.65 18.76 149.17C20.15 146.21 22.2 143.65 24.49 141.57C29.13 137.38 34.58 134.83 40.01 132.86C45.47 130.92 51.03 129.64 56.61 128.63C62.18 127.64 67.78 126.97 73.37 126.5C78.97 126.03 84.56 125.76 90.15 125.63C95.75 125.51 101.3 125.48 106.93 125.59C118.13 125.85 129.35 126.74 140.48 128.78C146.04 129.82 151.58 131.12 157.02 132.97C162.45 134.83 167.85 137.15 172.75 140.72C175.19 142.5 177.51 144.63 179.39 147.24C181.28 149.84 182.66 152.99 183.12 156.3C183.37 157.95 183.37 159.64 183.26 161.12C183.14 162.83 182.88 164.34 182.42 165.92C181.54 169.04 179.97 171.99 177.9 174.46C173.72 179.44 167.85 182.36 161.98 183.76C159.02 184.47 156.01 184.83 153.02 184.86C152.98 184.86 152.79 184.86 152.46 184.86L152.12 184.86L151.86 184.86C151.24 184.84 150.89 184.83 150.82 184.83C150.13 184.8 149.3 184.75 148.57 184.7C147.08 184.57 145.6 184.38 144.12 184.11C141.16 183.55 138.22 182.65 135.42 181.31C132.64 179.95 130.03 178.12 127.84 175.82C125.66 173.5 123.95 170.72 122.92 167.74C121.85 164.77 121.47 161.64 121.51 158.6C121.51 158.6 121.51 158.6 121.51 158.6C121.42 157.13 122.54 155.86 124.01 155.77C125.48 155.68 126.74 156.79 126.83 158.26C126.83 158.27 126.83 158.28 126.83 158.3C126.84 158.48 126.85 158.58 126.85 158.6C127 161.89 126.53 165.33 125.27 168.6C123.98 171.84 121.81 174.83 119.06 177.06C116.33 179.32 113.09 180.75 109.84 181.65C108.21 182.09 106.57 182.41 104.93 182.6C103.27 182.79 101.69 182.88 99.98 182.89C98.55 182.87 96.74 182.78 95.17 182.6C93.54 182.43 91.9 182.13 90.27 181.71C87.03 180.88 83.72 179.5 80.96 177.2C78.17 174.95 76.06 171.83 74.89 168.55C73.73 165.25 73.38 161.85 73.52 158.6C73.52 158.6 73.52 158.6 73.52 158.6C76.72 158.6 78.5 158.6 78.85 158.6C78.95 162.34 78.21 166.22 76.51 169.71C74.82 173.19 72.2 176.21 69.14 178.48C66.08 180.77 62.59 182.33 59.03 183.34C55.46 184.34 51.8 184.81 48.18 184.87C46.41 184.9 44.49 184.79 42.67 184.57C40.84 184.35 39.02 183.99 37.22 183.5C33.63 182.51 30.13 180.94 27.01 178.69C23.9 176.44 21.2 173.46 19.38 169.95C17.54 166.46 16.64 162.49 16.67 158.63C16.67 158.62 16.67 158.59 16.67 158.59C16.67 158.57 16.67 158.55 16.67 158.54" id="cmVzeHSbr"></path><path d="M180.15 84.29C180.15 119.61 144.34 148.24 100.16 148.24C55.98 148.24 20.17 119.61 20.17 84.29C20.17 48.97 55.98 20.34 100.16 20.34C144.34 20.34 180.15 48.97 180.15 84.29" id="ldVsdWvhB"></path><path d="M100.16 148.24C55.98 148.24 20.17 119.61 20.17 84.29C20.17 48.97 55.98 20.34 100.16 20.34C144.34 20.34 180.15 48.97 180.15 84.29C180.15 119.61 144.34 148.24 100.16 148.24Z" id="e38IjfdY"></path><path d="M180.07 84.29C180.07 119.61 144.25 148.24 100.08 148.24C55.9 148.24 20.08 119.61 20.08 84.29C20.08 48.97 55.9 20.34 100.08 20.34C144.25 20.34 180.07 48.97 180.07 84.29" id="f2g5ffuEpH"></path><path d="M100.08 148.24C55.9 148.24 20.08 119.61 20.08 84.29C20.08 48.97 55.9 20.34 100.08 20.34C144.25 20.34 180.07 48.97 180.07 84.29C180.07 119.61 144.25 148.24 100.08 148.24Z" id="c26sHiiTLl"></path><path d="M29.72 48.18C29.72 48.18 30.09 47.91 30.77 47.39C31.09 47.13 31.57 46.8 32.17 46.4C32.76 45.98 33.43 45.55 34.17 45.11C37.15 43.3 41.72 41.14 47.54 39.9C53.33 38.66 60.35 38.46 67.53 39.93C74.71 41.37 81.95 44.48 88.36 48.71C91.57 50.82 94.59 53.2 97.36 55.73C98.07 56.35 98.74 57 99.4 57.65C99.47 57.72 99.8 58.04 100.4 58.63C100.97 59.23 101.29 59.56 101.36 59.63C102.57 60.87 103.81 62.29 104.99 63.65C109.59 69.11 113.14 74.81 115.62 79.96C116.85 82.54 117.87 84.96 118.63 87.16C119.42 89.35 119.98 91.3 120.42 92.91C120.82 94.53 121.13 95.8 121.29 96.68C121.47 97.56 121.57 98.03 121.57 98.03C121.08 98.12 117.15 98.87 116.66 98.97C116.66 98.97 116.56 98.54 116.39 97.72C116.22 96.91 115.92 95.73 115.52 94.23C115.09 92.75 114.55 90.94 113.79 88.92C113.06 86.89 112.07 84.66 110.9 82.28C108.53 77.53 105.15 72.27 100.79 67.24C99.69 66 98.61 64.79 97.33 63.51C97.27 63.45 96.97 63.15 96.43 62.6C95.87 62.06 95.56 61.77 95.49 61.71C94.87 61.11 94.24 60.51 93.57 59.95C90.97 57.64 88.16 55.49 85.19 53.6C79.27 49.82 72.72 47.14 66.34 45.95C59.97 44.75 53.87 45.02 48.9 46.16C43.92 47.3 40.08 49.19 37.6 50.75C36.96 51.13 36.43 51.49 36 51.8C35.56 52.1 35.17 52.37 34.82 52.66C34.14 53.19 33.78 53.47 33.78 53.47C32.96 52.42 30.53 49.24 29.72 48.18Z" id="a1YJVsyM3R"></path><path d="M87.14 98.12C86.8 103.07 82.51 106.81 77.55 106.47C72.59 106.13 68.85 101.84 69.19 96.88C69.53 91.93 73.82 88.18 78.78 88.52C83.74 88.86 87.48 93.16 87.14 98.12" id="b2rYQ94ka3"></path><path d="M115.63 98.26C115.12 97.56 114.63 96.83 114.09 96.16C113.1 94.92 112.06 93.71 110.98 92.54C110.45 91.95 109.89 91.38 109.33 90.83C108.77 90.26 108.21 89.7 107.62 89.18C106.47 88.08 105.25 87.1 104.03 86.11C102.76 85.2 101.52 84.23 100.18 83.47C98.88 82.6 97.48 81.98 96.12 81.28C94.71 80.75 93.27 80.11 91.93 79.83C90.7 79.38 88.88 79.26 87.28 79.01C87.62 79.05 87.36 79.02 87.44 79.03C87.43 79.03 87.43 79.03 87.42 79.03L87.38 79.03L87.31 79.03L87.18 79.03L86.9 79.03L86.34 79.03C85.67 79.03 85.3 79.03 85.23 79.03C84.49 78.98 83.74 79.12 83 79.2C81.51 79.31 80.04 79.74 78.56 80.08C77.12 80.58 75.64 81.01 74.24 81.69C72.81 82.26 71.45 83.05 70.07 83.78C68.72 84.59 67.37 85.4 66.09 86.33C65.43 86.76 64.8 87.25 64.17 87.73C63.54 88.2 62.91 88.69 62.3 89.21C61.07 90.21 59.88 91.27 58.73 92.36C57.59 93.44 56.43 94.62 55.46 95.72C55.49 95.4 55.66 92.87 55.68 92.56C56.49 93.77 57.47 95.1 58.46 96.33C59.44 97.57 60.48 98.78 61.57 99.94C62.1 100.54 62.65 101.1 63.22 101.66C63.77 102.22 64.33 102.79 64.93 103.31C66.07 104.4 67.3 105.39 68.51 106.38C69.78 107.29 71.02 108.25 72.37 109.02C73.66 109.89 75.06 110.51 76.43 111.21C77.84 111.74 79.27 112.37 80.62 112.65C81.3 112.84 81.93 113.07 82.81 113.14C83.03 113.17 84.86 113.43 85.09 113.46C86.58 113.42 88.06 113.56 89.54 113.28C91.04 113.18 92.51 112.74 93.98 112.41C95.43 111.9 96.9 111.48 98.3 110.8C99.74 110.23 101.1 109.44 102.48 108.71C103.82 107.89 105.17 107.09 106.45 106.16C107.11 105.72 107.74 105.24 108.37 104.76C109.01 104.28 109.64 103.8 110.24 103.28C111.47 102.28 112.67 101.22 113.82 100.12C114.44 99.53 115.03 98.88 115.63 98.26M117.49 103.99C116.25 105.18 114.96 106.31 113.63 107.4C112.97 107.96 112.29 108.49 111.6 109C110.92 109.52 110.24 110.05 109.51 110.53C108.11 111.54 106.62 112.43 105.14 113.33C103.6 114.16 102.08 115.02 100.44 115.69C98.86 116.45 97.14 116.96 95.47 117.53C93.72 117.94 92 118.43 90.18 118.58C88.39 118.89 86.55 118.76 84.73 118.78C84.46 118.74 82.36 118.46 82.09 118.43C81.32 118.37 80.36 118.09 79.44 117.86C77.54 117.44 75.94 116.72 74.26 116.08C72.67 115.28 71.04 114.54 69.58 113.57C68.05 112.68 66.66 111.62 65.25 110.6C63.9 109.5 62.55 108.41 61.3 107.22C60.65 106.65 60.04 106.03 59.44 105.42C58.82 104.82 58.22 104.2 57.65 103.56C56.48 102.3 55.36 101 54.29 99.65C53.2 98.29 52.21 96.97 51.19 95.43C50.52 94.42 50.64 93.12 51.4 92.26C52.63 90.87 53.79 89.7 55.05 88.5C56.3 87.31 57.58 86.17 58.92 85.09C59.57 84.53 60.25 84 60.94 83.49C61.63 82.96 62.31 82.44 63.03 81.96C64.43 80.95 65.92 80.05 67.41 79.15C68.95 78.33 70.46 77.47 72.1 76.8C73.69 76.04 75.4 75.53 77.08 74.95C78.83 74.55 80.55 74.05 82.37 73.91C83.27 73.8 84.16 73.66 85.08 73.7C85.17 73.7 85.63 73.7 86.45 73.7L87.13 73.71L87.48 73.71L87.65 73.71L87.73 73.71L87.78 73.71L87.8 73.71C87.91 73.72 87.98 73.73 87.99 73.73C89.66 73.99 91.17 74.05 93.1 74.63C95.01 75.05 96.61 75.77 98.29 76.41C99.87 77.21 101.5 77.95 102.96 78.92C104.5 79.8 105.88 80.87 107.29 81.89C108.65 82.98 110 84.08 111.25 85.27C111.9 85.84 112.5 86.45 113.11 87.07C113.72 87.67 114.32 88.29 114.9 88.93C116.07 90.19 117.19 91.49 118.26 92.84C119.34 94.19 120.34 95.52 121.36 97.06C122.02 98.07 121.9 99.36 121.14 100.22C119.94 101.6 118.75 102.8 117.49 103.99Z" id="dOQmtI1Tf"></path></defs><g><g><g><use xlink:href="#a1RQgQSXfB" opacity="1" fill="#ffffff" fill-opacity="1"></use><g><use xlink:href="#a1RQgQSXfB" opacity="1" fill-opacity="0" stroke="#000000" stroke-width="1" stroke-opacity="0"></use></g></g><g><use xlink:href="#cmVzeHSbr" opacity="1" fill="#1d1d1b" fill-opacity="1"></use><g><use xlink:href="#cmVzeHSbr" opacity="1" fill-opacity="0" stroke="#000000" stroke-width="1" stroke-opacity="0"></use></g></g><g><use xlink:href="#ldVsdWvhB" opacity="1" fill="#ffffff" fill-opacity="1"></use><g><use xlink:href="#ldVsdWvhB" opacity="1" fill-opacity="0" stroke="#000000" stroke-width="1" stroke-opacity="0"></use></g></g><g><use xlink:href="#e38IjfdY" opacity="1" fill="#000000" fill-opacity="0"></use><g><use xlink:href="#e38IjfdY" opacity="1" fill-opacity="0" stroke="#1d1d1b" stroke-width="5" stroke-opacity="1"></use></g></g><g><use xlink:href="#f2g5ffuEpH" opacity="1" fill="#ffffff" fill-opacity="1"></use><g><use xlink:href="#f2g5ffuEpH" opacity="1" fill-opacity="0" stroke="#000000" stroke-width="1" stroke-opacity="0"></use></g></g><g><use xlink:href="#c26sHiiTLl" opacity="1" fill="#000000" fill-opacity="0"></use><g><use xlink:href="#c26sHiiTLl" opacity="1" fill-opacity="0" stroke="#1d1d1b" stroke-width="5" stroke-opacity="1"></use></g></g><g><use xlink:href="#a1YJVsyM3R" opacity="1" fill="#1d1d1b" fill-opacity="1"></use><g><use xlink:href="#a1YJVsyM3R" opacity="1" fill-opacity="0" stroke="#000000" stroke-width="1" stroke-opacity="0"></use></g></g><g><use xlink:href="#b2rYQ94ka3" opacity="1" fill="#1d1d1b" fill-opacity="1"></use><g><use xlink:href="#b2rYQ94ka3" opacity="1" fill-opacity="0" stroke="#000000" stroke-width="1" stroke-opacity="0"></use></g></g><g><use xlink:href="#dOQmtI1Tf" opacity="1" fill="#1d1d1b" fill-opacity="1"></use><g><use xlink:href="#dOQmtI1Tf" opacity="1" fill-opacity="0" stroke="#000000" stroke-width="1" stroke-opacity="0"></use></g></g></g></g></svg>