<?xml version="1.0" encoding="UTF-8" standalone="no"?>
<!DOCTYPE svg PUBLIC "-//W3C//DTD SVG 1.1//EN" "http://www.w3.org/Graphics/SVG/1.1/DTD/svg11.dtd">
<svg version="1.1" xmlns="http://www.w3.org/2000/svg" xmlns:xlink="http://www.w3.org/1999/xlink" preserveAspectRatio="xMidYMid meet" viewBox="0 0 200 200" width="200" height="200"><defs><path d="M179.99 104.36C179.99 148.54 144.18 184.35 100 184.35C55.82 184.35 20.01 148.54 20.01 104.36C20.01 60.18 55.82 24.37 100 24.37C144.18 24.37 179.99 60.18 179.99 104.36" id="a1myG5poWe"></path><path d="M100 184.35C55.82 184.35 20.01 148.54 20.01 104.36C20.01 60.18 55.82 24.37 100 24.37C144.18 24.37 179.99 60.18 179.99 104.36C179.99 148.54 144.18 184.35 100 184.35Z" id="i188oIwGFS"></path><path d="M103.33 68.36C103.33 68.36 103.38 69.49 103.46 71.46C103.52 73.43 103.65 76.24 103.71 79.61C103.76 82.99 103.89 86.92 103.91 91.14C103.94 95.36 103.97 99.86 104 104.36C103.97 108.86 103.94 113.36 103.91 117.58C103.88 121.8 103.76 125.73 103.71 129.11C103.64 132.48 103.52 135.29 103.46 137.26C103.38 139.23 103.33 140.36 103.33 140.36C103.26 142.2 101.7 143.63 99.86 143.55C98.12 143.48 96.74 142.07 96.67 140.36C96.67 140.36 96.62 139.23 96.54 137.26C96.48 135.29 96.36 132.48 96.29 129.11C96.24 125.73 96.12 121.8 96.09 117.58C96.06 113.36 96.03 108.86 96 104.36C96.03 99.86 96.06 95.36 96.09 91.14C96.11 86.92 96.24 82.99 96.29 79.61C96.35 76.24 96.48 73.43 96.54 71.46C96.62 69.49 96.67 68.36 96.67 68.36C96.74 66.52 98.3 65.09 100.14 65.17C101.88 65.24 103.26 66.65 103.33 68.36" id="aNCzPOGe0"></path><path d="M64 101.03C64 101.03 65.13 100.98 67.1 100.9C69.07 100.84 71.88 100.71 75.25 100.65C78.63 100.6 82.56 100.48 86.78 100.45C91 100.42 95.5 100.39 100 100.36C104.5 100.39 109 100.42 113.22 100.45C117.44 100.47 121.37 100.6 124.75 100.65C128.12 100.71 130.93 100.84 132.9 100.9C134.87 100.98 136 101.03 136 101.03C137.84 101.1 139.27 102.66 139.19 104.5C139.12 106.24 137.71 107.62 136 107.69C136 107.69 134.87 107.74 132.9 107.82C130.93 107.88 128.12 108.01 124.75 108.07C121.37 108.12 117.44 108.25 113.22 108.27C109 108.3 104.5 108.33 100 108.36C95.5 108.33 91 108.3 86.78 108.27C82.56 108.24 78.63 108.12 75.25 108.07C71.88 108 69.07 107.88 67.1 107.82C66.79 107.81 64.31 107.71 64 107.69C62.16 107.62 60.73 106.06 60.81 104.22C60.88 102.48 62.29 101.1 64 101.03" id="b1r27m22uO"></path></defs><g><g><g><use xlink:href="#a1myG5poWe" opacity="1" fill="#ffffff" fill-opacity="1"></use><g><use xlink:href="#a1myG5poWe" opacity="1" fill-opacity="0" stroke="#000000" stroke-width="1" stroke-opacity="0"></use></g></g><g><use xlink:href="#i188oIwGFS" opacity="1" fill="#000000" fill-opacity="0"></use><g><use xlink:href="#i188oIwGFS" opacity="1" fill-opacity="0" stroke="#1d1d1b" stroke-width="5" stroke-opacity="1"></use></g></g><g><use xlink:href="#aNCzPOGe0" opacity="1" fill="#1d1d1b" fill-opacity="1"></use><g><use xlink:href="#aNCzPOGe0" opacity="1" fill-opacity="0" stroke="#000000" stroke-width="1" stroke-opacity="0"></use></g></g><g><use xlink:href="#b1r27m22uO" opacity="1" fill="#1d1d1b" fill-opacity="1"></use><g><use xlink:href="#b1r27m22uO" opacity="1" fill-opacity="0" stroke="#000000" stroke-width="1" stroke-opacity="0"></use></g></g></g></g></svg>