<?xml version="1.0" encoding="UTF-8" standalone="no"?>
<!DOCTYPE svg PUBLIC "-//W3C//DTD SVG 1.1//EN" "http://www.w3.org/Graphics/SVG/1.1/DTD/svg11.dtd">
<svg version="1.1" xmlns="http://www.w3.org/2000/svg" xmlns:xlink="http://www.w3.org/1999/xlink" preserveAspectRatio="xMidYMid meet" viewBox="0 0 200 200" width="200" height="200"><defs><path d="M20 154.47C20 131.83 55.65 124.37 99.83 124.37C144 124.37 180 134.49 180 154.99C180 168.85 167.64 177.39 152.18 177.39C134.85 177.39 124.18 168.29 124.18 154.44C124.18 167.2 115.52 175.4 100.18 175.4C83.52 175.4 76.19 167.2 76.19 154.44C76.19 168.29 64.52 177.39 47.86 177.39C32.39 177.39 20 168.33 20 154.47" id="c2gnYuP8GR"></path><path d="M23.33 154.48C23.34 157.37 24.01 160.18 25.34 162.67C26.66 165.16 28.63 167.33 31 169.03C33.35 170.76 36.11 172.04 39.03 172.86C40.49 173.27 41.99 173.57 43.51 173.77C45.05 173.97 46.51 174.06 48.13 174.06C51.27 174.08 54.38 173.74 57.34 172.98C60.3 172.22 63.1 170.99 65.53 169.32C67.95 167.64 69.96 165.46 71.32 162.91C72.71 160.37 73.45 157.46 73.52 154.44C73.52 154.43 73.52 154.37 73.52 154.36C73.56 152.89 74.78 151.72 76.25 151.76C77.71 151.79 78.86 152.99 78.85 154.44C78.85 154.44 78.85 154.44 78.85 154.44C79.01 157.21 79.45 159.91 80.47 162.25C81.45 164.6 82.93 166.6 84.91 168.07C86.88 169.54 89.26 170.59 91.86 171.21C93.16 171.52 94.49 171.75 95.87 171.88C97.29 172.01 98.5 172.07 100.09 172.07C101.4 172.07 102.84 172.02 104.18 171.88C105.54 171.74 106.87 171.5 108.16 171.17C110.74 170.51 113.1 169.4 115.12 167.92C117.12 166.41 118.7 164.43 119.75 162.11C120.85 159.81 121.36 157.17 121.51 154.44C121.87 154.44 123.65 154.44 126.85 154.44C126.85 154.44 126.85 154.44 126.85 154.44C126.95 159.45 128.79 164.14 132.16 167.46C135.55 170.8 140.26 172.77 145.25 173.58C146.5 173.78 147.76 173.92 149.04 174C149.69 174.03 150.25 174.06 150.93 174.07C151 174.07 151.35 174.07 151.97 174.08C152.13 174.08 152.21 174.08 152.23 174.08C152.2 174.08 152.36 174.07 152.42 174.07C152.46 174.07 152.85 174.06 152.89 174.06C155.44 173.99 157.97 173.69 160.39 173.08C165.24 171.91 169.7 169.48 172.72 165.94C174.22 164.17 175.31 162.13 175.96 159.92C176.29 158.84 176.49 157.61 176.58 156.55C176.68 155.27 176.68 154.17 176.52 153.08C175.98 148.69 172.92 144.79 168.88 141.81C164.84 138.8 159.96 136.6 154.95 134.84C149.91 133.08 144.65 131.78 139.33 130.76C128.66 128.74 117.72 127.8 106.78 127.48C101.32 127.32 95.79 127.35 90.31 127.52C84.83 127.68 79.35 127.97 73.91 128.46C68.46 128.96 63.05 129.64 57.72 130.61C52.39 131.6 47.14 132.89 42.17 134.7C37.23 136.52 32.49 138.9 28.91 142.21C27.13 143.86 25.68 145.74 24.73 147.81C24.26 148.84 23.9 149.92 23.67 151.03C23.56 151.59 23.47 152.16 23.41 152.73C23.41 152.78 23.39 153.04 23.35 153.51C23.34 154.03 23.34 154.35 23.33 154.48ZM16.67 154.39L16.7 153.35C16.76 152.58 16.79 152.15 16.8 152.06C16.89 151.26 17.01 150.45 17.18 149.65C17.53 148.06 18.06 146.49 18.76 145.02C20.15 142.06 22.2 139.5 24.49 137.41C29.13 133.23 34.58 130.67 40.01 128.71C45.47 126.76 51.03 125.48 56.61 124.48C62.18 123.48 67.78 122.82 73.37 122.35C78.97 121.87 84.56 121.61 90.15 121.47C95.75 121.36 101.3 121.32 106.93 121.43C118.13 121.69 129.35 122.58 140.48 124.62C146.04 125.66 151.58 126.96 157.02 128.81C162.45 130.68 167.85 133 172.75 136.56C175.19 138.35 177.51 140.47 179.39 143.09C181.28 145.68 182.66 148.84 183.12 152.15C183.37 153.8 183.37 155.49 183.26 156.97C183.14 158.67 182.88 160.19 182.42 161.77C181.54 164.89 179.97 167.83 177.9 170.3C173.72 175.28 167.85 178.2 161.98 179.61C159.02 180.32 156.01 180.67 153.02 180.7C152.98 180.7 152.79 180.71 152.46 180.71L152.12 180.71L151.86 180.7C151.24 180.68 150.89 180.68 150.82 180.67C150.13 180.65 149.3 180.6 148.57 180.54C147.08 180.42 145.6 180.22 144.12 179.95C141.16 179.39 138.22 178.5 135.42 177.16C132.64 175.8 130.03 173.97 127.84 171.66C125.66 169.35 123.95 166.57 122.92 163.59C121.85 160.61 121.47 157.48 121.51 154.44C121.51 154.44 121.51 154.44 121.51 154.44C121.42 152.97 122.54 151.71 124.01 151.62C125.48 151.52 126.74 152.64 126.83 154.11C126.83 154.11 126.83 154.12 126.83 154.14C126.84 154.32 126.85 154.42 126.85 154.44C127 157.74 126.53 161.18 125.27 164.44C123.98 167.69 121.81 170.67 119.06 172.9C116.33 175.16 113.09 176.6 109.84 177.49C108.21 177.94 106.57 178.25 104.93 178.44C103.27 178.63 101.69 178.73 99.98 178.73C98.55 178.72 96.74 178.62 95.17 178.45C93.54 178.27 91.9 177.97 90.27 177.56C87.03 176.72 83.72 175.34 80.96 173.04C78.17 170.79 76.06 167.67 74.89 164.39C73.73 161.09 73.38 157.7 73.52 154.44C73.52 154.44 73.52 154.44 73.52 154.44C76.72 154.44 78.5 154.44 78.85 154.44C78.95 158.18 78.21 162.06 76.51 165.55C74.82 169.04 72.2 172.05 69.14 174.32C66.08 176.62 62.59 178.18 59.03 179.18C55.46 180.19 51.8 180.66 48.18 180.72C46.41 180.74 44.49 180.64 42.67 180.41C40.84 180.19 39.02 179.84 37.22 179.34C33.63 178.35 30.13 176.79 27.01 174.54C23.9 172.28 21.2 169.3 19.38 165.8C17.54 162.31 16.64 158.33 16.67 154.47C16.67 154.47 16.67 154.43 16.67 154.43C16.67 154.42 16.67 154.4 16.67 154.39" id="a4QpOcLSg"></path><path d="M180.15 80.14C180.15 115.45 144.34 144.09 100.16 144.09C55.98 144.09 20.17 115.45 20.17 80.14C20.17 44.82 55.98 16.19 100.16 16.19C144.34 16.19 180.15 44.82 180.15 80.14" id="k4uslyd8w"></path><path d="M100.16 144.09C55.98 144.09 20.17 115.45 20.17 80.14C20.17 44.82 55.98 16.19 100.16 16.19C144.34 16.19 180.15 44.82 180.15 80.14C180.15 115.45 144.34 144.09 100.16 144.09Z" id="g64oaJJq7Q"></path><path d="M180.07 80.14C180.07 115.45 144.25 144.09 100.08 144.09C55.9 144.09 20.08 115.45 20.08 80.14C20.08 44.82 55.9 16.19 100.08 16.19C144.25 16.19 180.07 44.82 180.07 80.14" id="bdECPteG6"></path><path d="M100.08 144.09C55.9 144.09 20.08 115.45 20.08 80.14C20.08 44.82 55.9 16.19 100.08 16.19C144.25 16.19 180.07 44.82 180.07 80.14C180.07 115.45 144.25 144.09 100.08 144.09Z" id="fqUrUvkSV"></path><path d="M103.41 44.14C103.41 44.14 103.46 45.27 103.54 47.23C103.59 49.2 103.73 52.01 103.78 55.39C103.84 58.76 103.97 62.7 103.99 66.92C104.02 71.14 104.04 75.64 104.07 80.14C104.04 84.64 104.01 89.14 103.99 93.35C103.96 97.57 103.84 101.51 103.78 104.88C103.72 108.26 103.59 111.07 103.54 113.04C103.46 115.01 103.41 116.13 103.41 116.13C103.33 117.97 101.78 119.4 99.94 119.33C98.19 119.25 96.82 117.84 96.74 116.13C96.74 116.13 96.7 115.01 96.61 113.04C96.56 111.07 96.43 108.26 96.37 104.88C96.31 101.51 96.19 97.57 96.17 93.35C96.14 89.14 96.11 84.64 96.08 80.14C96.11 75.64 96.14 71.14 96.16 66.92C96.18 62.7 96.31 58.76 96.37 55.39C96.43 52.01 96.56 49.2 96.61 47.23C96.7 45.27 96.74 44.14 96.74 44.14C96.82 42.3 98.37 40.87 100.22 40.95C101.96 41.02 103.33 42.43 103.41 44.14" id="if855Lcu3"></path><path d="M64.08 76.8C64.08 76.8 65.2 76.76 67.17 76.67C69.14 76.62 71.95 76.49 75.33 76.43C78.7 76.38 82.64 76.25 86.86 76.23C91.08 76.2 95.58 76.17 100.08 76.14C104.58 76.17 109.07 76.2 113.29 76.22C117.51 76.24 121.45 76.37 124.82 76.43C128.2 76.49 131.01 76.62 132.98 76.67C134.95 76.76 136.07 76.8 136.07 76.8C137.91 76.88 139.34 78.44 139.26 80.28C139.19 82.02 137.78 83.39 136.07 83.47C136.07 83.47 134.95 83.52 132.98 83.6C131.01 83.65 128.2 83.79 124.82 83.85C121.45 83.9 117.51 84.03 113.29 84.05C109.07 84.08 104.58 84.11 100.08 84.13C95.58 84.1 91.08 84.07 86.86 84.05C82.64 84.02 78.7 83.9 75.33 83.84C71.95 83.78 69.14 83.65 67.17 83.6C66.86 83.59 64.39 83.48 64.08 83.47C62.24 83.39 60.81 81.84 60.89 80C60.96 78.26 62.37 76.88 64.08 76.8" id="a1sdYARiKt"></path></defs><g><g><g><use xlink:href="#c2gnYuP8GR" opacity="1" fill="#ffffff" fill-opacity="1"></use><g><use xlink:href="#c2gnYuP8GR" opacity="1" fill-opacity="0" stroke="#000000" stroke-width="1" stroke-opacity="0"></use></g></g><g><use xlink:href="#a4QpOcLSg" opacity="1" fill="#1d1d1b" fill-opacity="1"></use><g><use xlink:href="#a4QpOcLSg" opacity="1" fill-opacity="0" stroke="#000000" stroke-width="1" stroke-opacity="0"></use></g></g><g><use xlink:href="#k4uslyd8w" opacity="1" fill="#ffffff" fill-opacity="1"></use><g><use xlink:href="#k4uslyd8w" opacity="1" fill-opacity="0" stroke="#000000" stroke-width="1" stroke-opacity="0"></use></g></g><g><use xlink:href="#g64oaJJq7Q" opacity="1" fill="#000000" fill-opacity="0"></use><g><use xlink:href="#g64oaJJq7Q" opacity="1" fill-opacity="0" stroke="#1d1d1b" stroke-width="5" stroke-opacity="1"></use></g></g><g><use xlink:href="#bdECPteG6" opacity="1" fill="#ffffff" fill-opacity="1"></use><g><use xlink:href="#bdECPteG6" opacity="1" fill-opacity="0" stroke="#000000" stroke-width="1" stroke-opacity="0"></use></g></g><g><use xlink:href="#fqUrUvkSV" opacity="1" fill="#000000" fill-opacity="0"></use><g><use xlink:href="#fqUrUvkSV" opacity="1" fill-opacity="0" stroke="#1d1d1b" stroke-width="5" stroke-opacity="1"></use></g></g><g><use xlink:href="#if855Lcu3" opacity="1" fill="#1d1d1b" fill-opacity="1"></use><g><use xlink:href="#if855Lcu3" opacity="1" fill-opacity="0" stroke="#000000" stroke-width="1" stroke-opacity="0"></use></g></g><g><use xlink:href="#a1sdYARiKt" opacity="1" fill="#1d1d1b" fill-opacity="1"></use><g><use xlink:href="#a1sdYARiKt" opacity="1" fill-opacity="0" stroke="#000000" stroke-width="1" stroke-opacity="0"></use></g></g></g></g></svg>