<?xml version="1.0" encoding="UTF-8" standalone="no"?>
<!DOCTYPE svg PUBLIC "-//W3C//DTD SVG 1.1//EN" "http://www.w3.org/Graphics/SVG/1.1/DTD/svg11.dtd">
<svg version="1.1" xmlns="http://www.w3.org/2000/svg" xmlns:xlink="http://www.w3.org/1999/xlink" preserveAspectRatio="xMidYMid meet" viewBox="0 0 200 200" width="200" height="200"><defs><path d="M179.99 100.73C179.99 144.91 144.18 180.72 100 180.72C55.82 180.72 20.01 144.91 20.01 100.73C20.01 56.55 55.82 20.74 100 20.74C144.18 20.74 179.99 56.55 179.99 100.73" id="e7DrXE0qI0"></path><path d="M100 180.72C55.82 180.72 20.01 144.91 20.01 100.73C20.01 56.55 55.82 20.74 100 20.74C144.18 20.74 179.99 56.55 179.99 100.73C179.99 144.91 144.18 180.72 100 180.72Z" id="b9HHc9LY7"></path><path d="M103.27 20.74C103.71 72.73 103.95 101.62 104 107.4C104.02 109.61 102.24 111.41 100.03 111.43C97.83 111.45 96.02 109.67 96 107.46C96 107.45 96 107.41 96 107.4C96.07 98.73 96.66 29.41 96.73 20.74C96.74 18.93 98.22 17.48 100.03 17.49C101.82 17.51 103.26 18.96 103.27 20.74" id="boRJj722"></path><path d="M73.3 77.4C73.3 82.54 69.13 86.71 63.99 86.71C58.84 86.71 54.67 82.54 54.67 77.4C54.67 72.26 58.84 68.09 63.99 68.09C69.13 68.09 73.3 72.26 73.3 77.4" id="a17UEVgdpi"></path><path d="M145.33 77.4C145.33 82.54 141.16 86.71 136.01 86.71C130.87 86.71 126.7 82.54 126.7 77.4C126.7 72.26 130.87 68.09 136.01 68.09C141.16 68.09 145.33 72.26 145.33 77.4" id="ciUv4yBO7"></path></defs><g><g><g><use xlink:href="#e7DrXE0qI0" opacity="1" fill="#ffffff" fill-opacity="1"></use><g><use xlink:href="#e7DrXE0qI0" opacity="1" fill-opacity="0" stroke="#000000" stroke-width="1" stroke-opacity="0"></use></g></g><g><use xlink:href="#b9HHc9LY7" opacity="1" fill="#000000" fill-opacity="0"></use><g><use xlink:href="#b9HHc9LY7" opacity="1" fill-opacity="0" stroke="#1d1d1b" stroke-width="5" stroke-opacity="1"></use></g></g><g><use xlink:href="#boRJj722" opacity="1" fill="#1d1d1b" fill-opacity="1"></use><g><use xlink:href="#boRJj722" opacity="1" fill-opacity="0" stroke="#000000" stroke-width="1" stroke-opacity="0"></use></g></g><g><use xlink:href="#a17UEVgdpi" opacity="1" fill="#1d1d1b" fill-opacity="1"></use><g><use xlink:href="#a17UEVgdpi" opacity="1" fill-opacity="0" stroke="#000000" stroke-width="1" stroke-opacity="0"></use></g></g><g><use xlink:href="#ciUv4yBO7" opacity="1" fill="#1d1d1b" fill-opacity="1"></use><g><use xlink:href="#ciUv4yBO7" opacity="1" fill-opacity="0" stroke="#000000" stroke-width="1" stroke-opacity="0"></use></g></g></g></g></svg>