<?xml version="1.0" encoding="UTF-8" standalone="no"?>
<!DOCTYPE svg PUBLIC "-//W3C//DTD SVG 1.1//EN" "http://www.w3.org/Graphics/SVG/1.1/DTD/svg11.dtd">
<svg version="1.1" xmlns="http://www.w3.org/2000/svg" xmlns:xlink="http://www.w3.org/1999/xlink" preserveAspectRatio="xMidYMid meet" viewBox="0 0 200 200" width="200" height="200"><defs><path d="M20 157.86C20 135.22 55.65 127.76 99.83 127.76C144 127.76 180 137.89 180 158.38C180 172.24 167.64 180.79 152.18 180.79C134.85 180.79 124.18 171.69 124.18 157.83C124.18 170.59 115.52 178.8 100.18 178.8C83.52 178.8 76.19 170.59 76.19 157.83C76.19 171.69 64.52 180.79 47.86 180.79C32.39 180.79 20 171.72 20 157.86" id="dBRVQlJHE"></path><path d="M23.33 157.87C23.34 160.77 24.01 163.57 25.34 166.06C26.66 168.55 28.63 170.72 31 172.43C33.35 174.15 36.11 175.43 39.03 176.25C40.49 176.66 41.99 176.97 43.51 177.16C45.05 177.36 46.51 177.45 48.13 177.45C51.27 177.47 54.38 177.13 57.34 176.37C60.3 175.61 63.1 174.39 65.53 172.72C67.95 171.04 69.96 168.86 71.32 166.31C72.71 163.77 73.45 160.85 73.52 157.83C73.52 157.82 73.52 157.76 73.52 157.75C73.56 156.28 74.78 155.11 76.25 155.15C77.71 155.19 78.86 156.38 78.85 157.83C78.85 157.83 78.85 157.83 78.85 157.83C79.01 160.6 79.45 163.3 80.47 165.64C81.45 167.99 82.93 170 84.91 171.46C86.88 172.93 89.26 173.99 91.86 174.6C93.16 174.91 94.49 175.14 95.87 175.27C97.29 175.4 98.5 175.46 100.09 175.46C101.4 175.47 102.84 175.41 104.18 175.27C105.54 175.13 106.87 174.89 108.16 174.56C110.74 173.91 113.1 172.8 115.12 171.31C117.12 169.81 118.7 167.82 119.75 165.5C120.85 163.2 121.36 160.56 121.51 157.83C121.87 157.83 123.65 157.83 126.85 157.83C126.85 157.83 126.85 157.83 126.85 157.83C126.95 162.84 128.79 167.53 132.16 170.86C135.55 174.19 140.26 176.16 145.25 176.97C146.5 177.17 147.76 177.31 149.04 177.39C149.69 177.43 150.25 177.45 150.93 177.46C151 177.46 151.35 177.47 151.97 177.47C152.13 177.47 152.21 177.47 152.23 177.47C152.2 177.47 152.36 177.47 152.42 177.46C152.46 177.46 152.85 177.45 152.89 177.45C155.44 177.39 157.97 177.08 160.39 176.48C165.24 175.31 169.7 172.87 172.72 169.33C174.22 167.56 175.31 165.52 175.96 163.31C176.29 162.23 176.49 161 176.58 159.95C176.68 158.67 176.68 157.57 176.52 156.48C175.98 152.08 172.92 148.18 168.88 145.2C164.84 142.2 159.96 140 154.95 138.23C149.91 136.48 144.65 135.17 139.33 134.15C128.66 132.13 117.72 131.19 106.78 130.87C101.32 130.71 95.79 130.74 90.31 130.91C84.83 131.07 79.35 131.37 73.91 131.86C68.46 132.35 63.05 133.03 57.72 134.01C52.39 134.99 47.14 136.28 42.17 138.09C37.23 139.91 32.49 142.29 28.91 145.6C27.13 147.25 25.68 149.13 24.73 151.2C24.26 152.23 23.9 153.31 23.67 154.43C23.56 154.98 23.47 155.55 23.41 156.12C23.41 156.17 23.39 156.44 23.35 156.91C23.34 157.42 23.34 157.74 23.33 157.87ZM16.67 157.78L16.7 156.74C16.76 155.97 16.79 155.54 16.8 155.45C16.89 154.65 17.01 153.84 17.18 153.05C17.53 151.45 18.06 149.89 18.76 148.41C20.15 145.45 22.2 142.89 24.49 140.8C29.13 136.62 34.58 134.06 40.01 132.1C45.47 130.16 51.03 128.87 56.61 127.87C62.18 126.88 67.78 126.21 73.37 125.74C78.97 125.27 84.56 125 90.15 124.86C95.75 124.75 101.3 124.71 106.93 124.83C118.13 125.09 129.35 125.98 140.48 128.01C146.04 129.05 151.58 130.35 157.02 132.2C162.45 134.07 167.85 136.39 172.75 139.95C175.19 141.74 177.51 143.86 179.39 146.48C181.28 149.08 182.66 152.23 183.12 155.54C183.37 157.19 183.37 158.88 183.26 160.36C183.14 162.06 182.88 163.58 182.42 165.16C181.54 168.28 179.97 171.22 177.9 173.69C173.72 178.67 167.85 181.6 161.98 183C159.02 183.71 156.01 184.07 153.02 184.1C152.98 184.1 152.79 184.1 152.46 184.1L152.12 184.1L151.86 184.1C151.24 184.08 150.89 184.07 150.82 184.07C150.13 184.04 149.3 183.99 148.57 183.93C147.08 183.81 145.6 183.61 144.12 183.34C141.16 182.78 138.22 181.89 135.42 180.55C132.64 179.19 130.03 177.36 127.84 175.05C125.66 172.74 123.95 169.96 122.92 166.98C121.85 164 121.47 160.87 121.51 157.83C121.51 157.83 121.51 157.83 121.51 157.83C121.42 156.36 122.54 155.1 124.01 155.01C125.48 154.92 126.74 156.03 126.83 157.5C126.83 157.5 126.83 157.51 126.83 157.53C126.84 157.71 126.85 157.81 126.85 157.83C127 161.13 126.53 164.57 125.27 167.83C123.98 171.08 121.81 174.06 119.06 176.29C116.33 178.56 113.09 179.99 109.84 180.89C108.21 181.33 106.57 181.64 104.93 181.83C103.27 182.03 101.69 182.12 99.98 182.12C98.55 182.11 96.74 182.02 95.17 181.84C93.54 181.66 91.9 181.37 90.27 180.95C87.03 180.11 83.72 178.74 80.96 176.43C78.17 174.18 76.06 171.06 74.89 167.78C73.73 164.48 73.38 161.09 73.52 157.83C73.52 157.83 73.52 157.83 73.52 157.83C76.72 157.83 78.5 157.83 78.85 157.83C78.95 161.57 78.21 165.45 76.51 168.94C74.82 172.43 72.2 175.44 69.14 177.72C66.08 180.01 62.59 181.57 59.03 182.58C55.46 183.58 51.8 184.05 48.18 184.11C46.41 184.13 44.49 184.03 42.67 183.81C40.84 183.58 39.02 183.23 37.22 182.73C33.63 181.74 30.13 180.18 27.01 177.93C23.9 175.67 21.2 172.7 19.38 169.19C17.54 165.7 16.64 161.73 16.67 157.86C16.67 157.86 16.67 157.83 16.67 157.82C16.67 157.81 16.67 157.79 16.67 157.78" id="bfjgmjnG"></path><path d="M180.15 83.53C180.15 118.85 144.34 147.48 100.16 147.48C55.98 147.48 20.17 118.85 20.17 83.53C20.17 48.21 55.98 19.58 100.16 19.58C144.34 19.58 180.15 48.21 180.15 83.53" id="b88EUVNOr8"></path><path d="M100.16 147.48C55.98 147.48 20.17 118.85 20.17 83.53C20.17 48.21 55.98 19.58 100.16 19.58C144.34 19.58 180.15 48.21 180.15 83.53C180.15 118.85 144.34 147.48 100.16 147.48Z" id="bq5XatDxE"></path><path d="M179.99 83.53C179.99 118.85 144.18 147.48 100 147.48C55.82 147.48 20.01 118.85 20.01 83.53C20.01 48.21 55.82 19.58 100 19.58C144.18 19.58 179.99 48.21 179.99 83.53" id="a3yjcSDAii"></path><path d="M100 147.48C55.82 147.48 20.01 118.85 20.01 83.53C20.01 48.21 55.82 19.58 100 19.58C144.18 19.58 179.99 48.21 179.99 83.53C179.99 118.85 144.18 147.48 100 147.48Z" id="b8Zpsy2mM"></path><path d="M103.27 19.58C103.71 71.57 103.95 100.46 104 106.24C104.02 108.44 102.24 110.25 100.03 110.27C97.82 110.29 96.02 108.51 96 106.3C96 106.29 96 106.25 96 106.24C96.07 97.57 96.65 28.24 96.73 19.58C96.74 17.77 98.22 16.32 100.03 16.33C101.81 16.35 103.25 17.8 103.27 19.58" id="bDpmcyqt"></path><path d="M73.3 76.24C73.3 81.38 69.13 85.55 63.98 85.55C58.84 85.55 54.67 81.38 54.67 76.24C54.67 71.1 58.84 66.93 63.98 66.93C69.13 66.93 73.3 71.1 73.3 76.24" id="f4otXzJyXm"></path><path d="M145.33 76.24C145.33 81.38 141.16 85.55 136.01 85.55C130.87 85.55 126.7 81.38 126.7 76.24C126.7 71.1 130.87 66.93 136.01 66.93C141.16 66.93 145.33 71.1 145.33 76.24" id="eiUnLGNoa"></path></defs><g><g><g><use xlink:href="#dBRVQlJHE" opacity="1" fill="#ffffff" fill-opacity="1"></use><g><use xlink:href="#dBRVQlJHE" opacity="1" fill-opacity="0" stroke="#000000" stroke-width="1" stroke-opacity="0"></use></g></g><g><use xlink:href="#bfjgmjnG" opacity="1" fill="#1d1d1b" fill-opacity="1"></use><g><use xlink:href="#bfjgmjnG" opacity="1" fill-opacity="0" stroke="#000000" stroke-width="1" stroke-opacity="0"></use></g></g><g><use xlink:href="#b88EUVNOr8" opacity="1" fill="#ffffff" fill-opacity="1"></use><g><use xlink:href="#b88EUVNOr8" opacity="1" fill-opacity="0" stroke="#000000" stroke-width="1" stroke-opacity="0"></use></g></g><g><use xlink:href="#bq5XatDxE" opacity="1" fill="#000000" fill-opacity="0"></use><g><use xlink:href="#bq5XatDxE" opacity="1" fill-opacity="0" stroke="#1d1d1b" stroke-width="5" stroke-opacity="1"></use></g></g><g><use xlink:href="#a3yjcSDAii" opacity="1" fill="#ffffff" fill-opacity="1"></use><g><use xlink:href="#a3yjcSDAii" opacity="1" fill-opacity="0" stroke="#000000" stroke-width="1" stroke-opacity="0"></use></g></g><g><use xlink:href="#b8Zpsy2mM" opacity="1" fill="#000000" fill-opacity="0"></use><g><use xlink:href="#b8Zpsy2mM" opacity="1" fill-opacity="0" stroke="#1d1d1b" stroke-width="5" stroke-opacity="1"></use></g></g><g><use xlink:href="#bDpmcyqt" opacity="1" fill="#1d1d1b" fill-opacity="1"></use><g><use xlink:href="#bDpmcyqt" opacity="1" fill-opacity="0" stroke="#000000" stroke-width="1" stroke-opacity="0"></use></g></g><g><use xlink:href="#f4otXzJyXm" opacity="1" fill="#1d1d1b" fill-opacity="1"></use><g><use xlink:href="#f4otXzJyXm" opacity="1" fill-opacity="0" stroke="#000000" stroke-width="1" stroke-opacity="0"></use></g></g><g><use xlink:href="#eiUnLGNoa" opacity="1" fill="#1d1d1b" fill-opacity="1"></use><g><use xlink:href="#eiUnLGNoa" opacity="1" fill-opacity="0" stroke="#000000" stroke-width="1" stroke-opacity="0"></use></g></g></g></g></svg>