<?xml version="1.0" encoding="UTF-8" standalone="no"?>
<!DOCTYPE svg PUBLIC "-//W3C//DTD SVG 1.1//EN" "http://www.w3.org/Graphics/SVG/1.1/DTD/svg11.dtd">
<svg version="1.1" xmlns="http://www.w3.org/2000/svg" xmlns:xlink="http://www.w3.org/1999/xlink" preserveAspectRatio="xMidYMid meet" viewBox="0 0 200 200" width="200" height="200"><defs><path d="M102.48 44.98C110.6 35.85 122.44 30.1 135.61 30.1C160.1 30.1 179.94 52.44 179.94 81.1C179.94 84 179.94 107.2 179.94 110.1C179.94 154.27 144.13 190.09 99.95 190.09C55.77 190.09 19.96 154.27 19.96 110.1C19.96 109.38 19.96 103.65 19.96 102.93C19.96 68.6 47.46 40.77 81.79 40.77C116.12 40.77 143.95 68.6 143.95 102.93" id="a3deqJX61c"></path><path d="M100.58 43.11C100.58 43.11 100.98 42.68 101.74 41.85C102.52 41.02 103.51 39.79 105.41 38.22C107.19 36.56 109.5 34.9 112.39 33.15C113.14 32.74 113.9 32.32 114.7 31.89C115.1 31.67 115.5 31.44 115.92 31.23C116.36 31.05 116.8 30.87 117.24 30.68C118.14 30.31 119.07 29.93 120.02 29.54C120.98 29.16 122.02 28.93 123.07 28.61C125.15 27.91 127.43 27.61 129.81 27.2C131 27 132.24 27 133.5 26.9C134.13 26.86 134.76 26.82 135.41 26.78C135.42 26.78 135.52 26.78 135.53 26.78C135.4 26.77 135.84 26.78 135.84 26.78C135.85 26.78 135.93 26.78 136.06 26.79L136.52 26.82C137.06 26.85 137.37 26.86 137.43 26.87C138.04 26.9 138.66 26.94 139.28 26.97C139.38 26.98 140.13 27.02 140.22 27.02C140.55 27.05 140.92 27.12 141.27 27.18C142.68 27.42 144.15 27.62 145.58 27.94C146.96 28.34 148.36 28.74 149.79 29.15C151.17 29.69 152.56 30.28 153.98 30.87C159.53 33.46 164.87 37.39 169.39 42.49C173.91 47.57 177.56 53.85 179.99 60.84C181.18 64.34 182.13 68.01 182.66 71.81C182.91 73.72 183.23 75.63 183.25 77.59C183.29 78.56 183.34 79.54 183.38 80.52C183.43 81.52 183.39 82.41 183.41 83.36C183.42 90.88 183.43 98.65 183.45 106.64C183.45 107.64 183.45 108.64 183.45 109.64C183.45 109.7 183.45 109.98 183.44 110.49L183.43 111.24L183.39 112.76L183.36 114.28C183.29 115.25 183.25 115.79 183.24 115.9C183.15 116.97 183.1 118.08 182.97 119.14C182.53 123.4 181.69 127.66 180.58 131.89C178.3 140.35 174.6 148.63 169.57 156.21C159.56 171.39 143.98 183.66 125.74 189.52C116.66 192.44 106.96 193.88 97.35 193.53C97.23 193.53 96.65 193.51 95.6 193.48C94.5 193.39 93.88 193.35 93.76 193.34C92.53 193.24 91.29 193.17 90.1 192.99C87.69 192.73 85.31 192.3 82.93 191.84C78.18 190.85 73.52 189.43 69.02 187.63C60.02 184.01 51.62 178.86 44.45 172.4C37.25 165.96 31.2 158.31 26.62 149.93C22.09 141.53 19.03 132.43 17.57 123.19C16.85 118.58 16.56 113.88 16.55 109.34C16.56 107.07 16.56 104.81 16.57 102.55C16.7 100.35 16.75 98.2 16.94 95.97C17.31 93.65 17.57 91.29 18.05 89.04C18.33 87.94 18.61 86.84 18.89 85.74C19.19 84.65 19.4 83.53 19.83 82.48C20.22 81.42 20.6 80.36 20.98 79.3C21.36 78.25 21.73 77.19 22.25 76.2C22.73 75.19 23.21 74.18 23.69 73.18C23.74 73.08 23.98 72.58 24.42 71.68C24.93 70.83 25.21 70.35 25.27 70.26C29.67 62.58 35.53 56 42.21 50.88C55.57 40.59 72.18 36.37 86.6 37.7C88.29 37.72 90.21 38.1 92.01 38.36C92.92 38.51 93.82 38.65 94.72 38.8C95.6 38.98 96.44 39.23 97.3 39.44C98.15 39.67 98.99 39.89 99.83 40.11C100.67 40.32 101.5 40.55 102.3 40.87C103.9 41.47 105.49 42.06 107.06 42.65C113.18 45.34 118.56 48.76 123.19 52.49C132.27 60.21 138.1 69.1 141.44 76.91C144.79 84.78 145.72 91.48 146.3 95.97C146.46 98.24 146.48 99.98 146.54 101.15C146.59 102.33 146.61 102.93 146.61 102.93C146.67 104.4 145.52 105.64 144.06 105.69C142.61 105.75 141.39 104.64 141.3 103.21C141.3 103.18 141.28 102.96 141.28 102.93C141.28 102.93 141.24 102.38 141.18 101.3C141.09 100.22 141.04 98.62 140.85 96.55C140.23 92.45 139.24 86.35 136.05 79.26C132.93 72.2 127.55 64.19 119.25 57.28C115.02 53.96 110.12 50.92 104.58 48.55C103.16 48.04 101.73 47.52 100.27 47C99.56 46.71 98.81 46.51 98.04 46.33C97.29 46.15 96.53 45.95 95.76 45.76C94.99 45.58 94.22 45.35 93.45 45.2C92.68 45.09 91.91 44.98 91.13 44.86C89.56 44.66 88.08 44.31 86.27 44.31C85.4 44.27 84.53 44.23 83.65 44.19C83.56 44.19 83.12 44.17 82.32 44.13C81.92 44.11 81.7 44.1 81.66 44.1C81.94 44.1 81.65 44.11 81.67 44.11C81.66 44.11 81.61 44.11 81.51 44.12C81.32 44.13 81.22 44.13 81.19 44.13C79.51 44.22 77.82 44.31 76.1 44.4C74.4 44.59 72.69 44.91 70.96 45.15C70.09 45.25 69.25 45.49 68.4 45.71C67.54 45.93 66.69 46.15 65.83 46.38C59 48.32 52.3 51.61 46.31 56.22C40.33 60.81 35.08 66.73 31.14 73.61C31.09 73.7 30.84 74.12 30.38 74.89C29.99 75.7 29.78 76.15 29.73 76.24C29.31 77.14 28.88 78.04 28.44 78.94C27.98 79.83 27.64 80.78 27.31 81.73C26.97 82.68 26.63 83.63 26.28 84.58C25.89 85.51 25.72 86.52 25.45 87.5C25.2 88.48 24.95 89.47 24.7 90.46C24.27 92.43 24.08 94.4 23.73 96.38C23.55 98.48 23.5 100.72 23.37 102.89C23.37 105.03 23.37 107.18 23.37 109.34C23.39 113.64 23.67 117.86 24.33 122.12C25.68 130.6 28.5 138.93 32.67 146.64C36.88 154.32 42.44 161.33 49.06 167.23C55.65 173.15 63.36 177.86 71.6 181.16C75.73 182.8 80 184.1 84.35 184.99C86.53 185.41 88.71 185.8 90.92 186.04C92.03 186.2 93.1 186.26 94.18 186.34C94.29 186.35 94.83 186.39 95.8 186.47C96.83 186.5 97.41 186.52 97.52 186.52C106.43 186.84 115.25 185.51 123.57 182.84C140.26 177.47 154.54 166.22 163.7 152.31C168.31 145.37 171.68 137.8 173.77 130.06C174.79 126.18 175.54 122.28 175.96 118.38C176.09 117.41 176.12 116.47 176.21 115.52C176.22 115.43 176.25 114.95 176.32 114.1C176.35 113.19 176.36 112.68 176.36 112.58C176.39 111.6 176.41 110.62 176.43 109.64C176.43 108.64 176.44 107.64 176.44 106.64C176.45 98.65 176.46 90.88 176.48 83.36C176.47 82.44 176.5 81.45 176.46 80.59C176.42 79.71 176.39 78.84 176.35 77.96C176.35 76.22 176.06 74.51 175.85 72.82C175.39 69.44 174.55 66.19 173.51 63.09C171.39 56.91 168.21 51.4 164.29 46.98C160.39 42.54 155.82 39.17 151.12 36.96C149.92 36.46 148.74 35.97 147.58 35.49C146.38 35.14 145.19 34.79 144.03 34.45C142.88 34.2 141.77 34.05 140.68 33.83C140.39 33.79 140.15 33.72 139.84 33.69C139.75 33.69 139 33.64 138.9 33.64C138.28 33.6 137.66 33.56 137.05 33.53C136.99 33.52 136.68 33.51 136.14 33.47L135.68 33.45C135.55 33.44 135.47 33.44 135.46 33.43C135.38 33.43 135.74 33.45 135.54 33.44C135.53 33.44 135.45 33.45 135.44 33.45C134.88 33.47 134.33 33.5 133.79 33.53C132.7 33.6 131.63 33.56 130.6 33.72C128.55 34.06 126.57 34.26 124.77 34.85C123.87 35.11 122.96 35.28 122.13 35.6C121.29 35.91 120.48 36.22 119.7 36.52C119.3 36.66 118.91 36.81 118.53 36.95C118.16 37.12 117.81 37.31 117.45 37.48C116.75 37.83 116.07 38.17 115.41 38.5C112.85 39.92 110.72 41.33 109.22 42.55C107.65 43.64 106.45 44.94 105.63 45.69C104.8 46.46 104.38 46.85 104.38 46.85C103.31 47.86 101.62 47.81 100.61 46.74C99.65 45.71 99.66 44.13 100.58 43.11" id="a1bIBMCWmK"></path><path d="M134.28 69.22C134.28 69.22 143.16 64.55 148.84 63.05" id="gnxaWKutw"></path><path d="M140.85 83.32C140.85 83.32 147.89 80.55 154.21 79.6" id="bxI25O9Ss"></path><path d="M89.69 137.78C89.41 141.87 86.02 144.96 82.11 144.7C78.21 144.43 75.27 140.9 75.55 136.81C75.83 132.72 79.22 129.63 83.13 129.89C87.04 130.16 89.97 133.69 89.69 137.78" id="ajnWZgs2Y"></path><path d="M107.56 137.98C107.25 137.54 106.97 137.08 106.65 136.67C105.93 135.69 105.16 134.74 104.36 133.83C103.57 132.9 102.72 132.02 101.87 131.17C101.01 130.31 100.11 129.53 99.2 128.75C98.25 128.03 97.33 127.26 96.33 126.65C95.36 125.97 94.32 125.47 93.3 124.92C92.25 124.5 91.16 123.98 90.18 123.76C89.31 123.41 87.89 123.29 86.65 123.1C86.99 123.13 86.74 123.11 86.81 123.12C86.81 123.12 86.8 123.12 86.8 123.12L86.77 123.12L86.72 123.12L86.61 123.12L86.41 123.12L85.99 123.12C85.49 123.11 85.21 123.11 85.16 123.11C84.6 123.07 84.04 123.19 83.48 123.25C82.36 123.32 81.26 123.68 80.14 123.93C79.05 124.34 77.93 124.67 76.87 125.21C75.78 125.66 74.75 126.29 73.71 126.87C72.69 127.5 71.67 128.15 70.7 128.88C69.72 129.59 68.75 130.34 67.83 131.14C66.89 131.93 65.99 132.76 65.12 133.62C64.26 134.47 63.38 135.4 62.65 136.25C62.67 135.98 62.82 133.83 62.84 133.56C63.44 134.5 64.18 135.54 64.92 136.49C65.67 137.46 66.45 138.41 67.27 139.32C68.07 140.24 68.92 141.11 69.8 141.96C70.66 142.81 71.58 143.59 72.51 144.36C73.46 145.08 74.4 145.84 75.41 146.43C76.39 147.11 77.45 147.6 78.48 148.14C79.54 148.55 80.64 149.06 81.62 149.26C82.13 149.39 82.56 149.57 83.25 149.63C83.43 149.65 84.81 149.84 84.99 149.87C86.1 149.83 87.2 149.92 88.32 149.69C89.44 149.6 90.54 149.24 91.65 148.97C92.73 148.56 93.83 148.21 94.89 147.66C95.96 147.2 96.98 146.56 98.01 145.97C99.02 145.33 100.03 144.67 100.99 143.94C101.96 143.21 102.91 142.46 103.82 141.65C104.74 140.85 105.63 140.02 106.48 139.15C106.86 138.78 107.2 138.36 107.56 137.98M110.22 142.9C109.26 143.84 108.28 144.75 107.25 145.62C106.24 146.5 105.17 147.33 104.08 148.13C103 148.94 101.85 149.67 100.7 150.39C99.5 151.06 98.33 151.76 97.05 152.31C95.81 152.92 94.47 153.35 93.15 153.82C91.77 154.16 90.42 154.57 88.97 154.69C87.56 154.95 86.09 154.85 84.65 154.85C84.44 154.83 82.78 154.59 82.57 154.56C81.98 154.51 81.2 154.28 80.47 154.08C78.94 153.73 77.72 153.13 76.4 152.6C75.17 151.94 73.9 151.32 72.78 150.53C71.59 149.81 70.54 148.94 69.46 148.11C68.42 147.23 67.4 146.34 66.45 145.39C65.5 144.44 64.57 143.47 63.7 142.45C62.82 141.45 61.98 140.41 61.18 139.34C60.36 138.26 59.62 137.21 58.85 135.98C58.32 135.12 58.42 134.04 59.04 133.3C59.96 132.18 60.84 131.25 61.8 130.29C62.74 129.34 63.71 128.43 64.72 127.55C65.72 126.66 66.77 125.83 67.85 125.02C68.92 124.21 70.06 123.46 71.2 122.73C72.38 122.06 73.55 121.34 74.82 120.79C76.04 120.16 77.38 119.72 78.68 119.24C80.06 118.89 81.4 118.47 82.84 118.33C83.55 118.24 84.26 118.11 84.99 118.14C85.06 118.14 85.42 118.13 86.08 118.13L86.62 118.13L86.89 118.13L87.03 118.13L87.1 118.13L87.13 118.13L87.15 118.13C87.26 118.14 87.32 118.14 87.33 118.15C88.63 118.34 89.78 118.38 91.34 118.86C92.88 119.2 94.12 119.79 95.45 120.31C96.69 120.96 97.96 121.57 99.1 122.34C100.3 123.06 101.36 123.92 102.46 124.74C103.5 125.61 104.54 126.5 105.5 127.45C106.47 128.38 107.42 129.35 108.3 130.36C109.2 131.36 110.05 132.4 110.87 133.46C111.7 134.55 112.45 135.58 113.24 136.82C113.87 137.81 113.75 139.05 113.03 139.89C112.09 141 111.18 141.95 110.22 142.9Z" id="d60PBiF7nn"></path><path d="M18.52 104.86C18.52 104.86 18.8 104.43 19.34 103.63C19.62 103.23 19.95 102.74 20.35 102.16C20.8 101.57 21.31 100.9 21.89 100.14C23.07 98.66 24.56 96.97 26.41 95.13C28.31 93.35 30.5 91.36 33.17 89.56C35.82 87.75 38.84 85.97 42.24 84.53C45.64 83.09 49.39 81.95 53.37 81.26C54.36 81.08 55.37 80.92 56.39 80.84C57.41 80.73 58.43 80.61 59.47 80.6C59.63 80.59 60.88 80.54 61.03 80.54C61.32 80.53 61.5 80.51 61.87 80.52C61.92 80.52 62.18 80.53 62.63 80.54L64.13 80.58C65.1 80.65 65.64 80.69 65.75 80.7C70.06 81.05 74.28 82.02 78.32 83.57C82.37 85.1 86.2 87.17 89.64 89.65C93.08 92.13 96.19 94.94 98.85 97.97C104.19 104.01 107.83 110.72 110.07 116.74C112.35 122.77 113.22 128.13 113.63 131.86C113.79 133.73 113.9 135.2 113.91 136.21C113.94 137.22 113.95 137.76 113.95 137.76C113.99 139.23 112.83 140.46 111.36 140.5C109.89 140.54 108.66 139.38 108.62 137.91C108.62 137.91 108.62 137.9 108.62 137.88C108.62 137.81 108.62 137.77 108.62 137.76C108.62 137.76 108.61 137.27 108.59 136.35C108.59 135.43 108.51 134.08 108.38 132.37C108.04 128.97 107.3 124.06 105.26 118.51C103.26 112.97 99.99 106.78 95.15 101.2C92.75 98.41 89.94 95.82 86.83 93.54C83.73 91.25 80.28 89.34 76.65 87.92C73.03 86.49 69.16 85.57 65.4 85.23C65.31 85.22 64.84 85.18 64 85.1L62.49 85.05C62.04 85.03 61.79 85.02 61.74 85.02C61.62 85.01 61.3 85.03 61.09 85.03C60.94 85.04 59.81 85.07 59.66 85.07C58.72 85.07 57.78 85.17 56.85 85.27C55.92 85.33 55 85.46 54.1 85.62C50.47 86.21 47.04 87.22 43.92 88.5C40.79 89.79 38.01 91.39 35.55 93.03C33.08 94.66 31.05 96.47 29.28 98.09C27.56 99.77 26.14 101.34 25.07 102.67C24.54 103.33 24.07 103.93 23.67 104.45C23.27 105.02 22.93 105.5 22.66 105.9C22.11 106.69 21.82 107.11 21.82 107.11C21.19 108.02 19.94 108.25 19.04 107.62C18.13 107 17.9 105.76 18.52 104.86" id="a1E0hTgTIG"></path></defs><g><g><g><use xlink:href="#a3deqJX61c" opacity="1" fill="#ffffff" fill-opacity="1"></use><g><use xlink:href="#a3deqJX61c" opacity="1" fill-opacity="0" stroke="#000000" stroke-width="1" stroke-opacity="0"></use></g></g><g><use xlink:href="#a1bIBMCWmK" opacity="1" fill="#1d1d1b" fill-opacity="1"></use><g><use xlink:href="#a1bIBMCWmK" opacity="1" fill-opacity="0" stroke="#000000" stroke-width="1" stroke-opacity="0"></use></g></g><g><use xlink:href="#gnxaWKutw" opacity="1" fill="#000000" fill-opacity="0"></use><g><use xlink:href="#gnxaWKutw" opacity="1" fill-opacity="0" stroke="#1d1d1b" stroke-width="3.5" stroke-opacity="1"></use></g></g><g><use xlink:href="#bxI25O9Ss" opacity="1" fill="#000000" fill-opacity="0"></use><g><use xlink:href="#bxI25O9Ss" opacity="1" fill-opacity="0" stroke="#1d1d1b" stroke-width="3.5" stroke-opacity="1"></use></g></g><g><use xlink:href="#ajnWZgs2Y" opacity="1" fill="#1d1d1b" fill-opacity="1"></use><g><use xlink:href="#ajnWZgs2Y" opacity="1" fill-opacity="0" stroke="#000000" stroke-width="1" stroke-opacity="0"></use></g></g><g><use xlink:href="#d60PBiF7nn" opacity="1" fill="#1d1d1b" fill-opacity="1"></use><g><use xlink:href="#d60PBiF7nn" opacity="1" fill-opacity="0" stroke="#000000" stroke-width="1" stroke-opacity="0"></use></g></g><g><use xlink:href="#a1E0hTgTIG" opacity="1" fill="#1d1d1b" fill-opacity="1"></use><g><use xlink:href="#a1E0hTgTIG" opacity="1" fill-opacity="0" stroke="#000000" stroke-width="1" stroke-opacity="0"></use></g></g></g></g></svg>