<?xml version="1.0" encoding="UTF-8" standalone="no"?>
<!DOCTYPE svg PUBLIC "-//W3C//DTD SVG 1.1//EN" "http://www.w3.org/Graphics/SVG/1.1/DTD/svg11.dtd">
<svg version="1.1" xmlns="http://www.w3.org/2000/svg" xmlns:xlink="http://www.w3.org/1999/xlink" preserveAspectRatio="xMidYMid meet" viewBox="0 0 200 200" width="200" height="200"><defs><path d="M19.56 160.43C19.56 137.96 55.38 130.56 99.78 130.56C144.17 130.56 180.34 140.61 180.34 160.95C180.34 174.7 167.92 183.18 152.38 183.18C134.97 183.18 124.25 174.15 124.25 160.4C124.25 173.06 115.54 181.21 100.14 181.21C83.39 181.21 76.02 173.06 76.02 160.4C76.02 174.15 64.3 183.18 47.55 183.18C32.02 183.18 19.56 174.18 19.56 160.43" id="a3NzJitjcS"></path><path d="M22.9 160.44C22.9 163.32 23.59 166.12 24.93 168.59C26.27 171.06 28.25 173.21 30.64 174.89C33.02 176.6 35.79 177.86 38.71 178.67C40.18 179.07 41.68 179.37 43.21 179.56C44.74 179.76 46.21 179.84 47.83 179.85C50.97 179.87 54.08 179.53 57.05 178.79C60.02 178.04 62.83 176.83 65.28 175.18C67.72 173.53 69.75 171.37 71.13 168.83C72.54 166.32 73.28 163.41 73.36 160.4C73.36 160.39 73.36 160.33 73.36 160.32C73.39 158.85 74.62 157.69 76.09 157.72C77.54 157.76 78.7 158.95 78.69 160.4C78.69 160.4 78.69 160.4 78.69 160.4C78.84 163.17 79.29 165.85 80.33 168.17C81.32 170.51 82.83 172.49 84.82 173.94C86.81 175.38 89.19 176.42 91.8 177.03C93.1 177.34 94.44 177.56 95.82 177.69C97.24 177.81 98.46 177.87 100.04 177.87C101.35 177.88 102.79 177.82 104.14 177.68C105.5 177.55 106.83 177.31 108.12 176.99C110.71 176.34 113.09 175.25 115.12 173.78C117.14 172.31 118.73 170.33 119.8 168.04C120.91 165.75 121.43 163.12 121.59 160.4C121.94 160.4 123.72 160.4 126.92 160.4C126.92 160.4 126.92 160.4 126.92 160.4C127 162.89 127.44 165.33 128.36 167.53C129.29 169.73 130.62 171.72 132.32 173.37C135.75 176.67 140.5 178.59 145.51 179.39C146.76 179.59 148.03 179.71 149.31 179.8C149.96 179.82 150.51 179.86 151.22 179.86C151.29 179.86 151.64 179.86 152.26 179.87C152.81 179.85 153.12 179.84 153.18 179.84C155.73 179.77 158.27 179.47 160.7 178.87C165.56 177.7 170.05 175.28 173.08 171.75C174.59 169.99 175.68 167.94 176.32 165.74C176.64 164.66 176.86 163.42 176.93 162.39C177.02 161.03 177.01 160.05 176.84 158.93C176.24 154.56 173.1 150.69 169 147.76C164.9 144.8 160 142.63 154.96 140.9C149.89 139.18 144.62 137.89 139.28 136.89C128.58 134.9 117.63 133.98 106.66 133.67C101.2 133.51 95.66 133.54 90.17 133.71C84.68 133.87 79.19 134.16 73.73 134.65C68.28 135.13 62.86 135.8 57.51 136.77C52.18 137.74 46.91 139.02 41.92 140.81C36.95 142.6 32.18 144.95 28.56 148.23C26.76 149.87 25.29 151.74 24.32 153.79C23.84 154.82 23.48 155.9 23.24 157.01C23.12 157.56 23.04 158.13 22.98 158.7C22.97 158.75 22.95 159.01 22.92 159.48C22.91 159.99 22.9 160.31 22.9 160.44ZM16.23 160.35L16.26 159.31C16.32 158.53 16.36 158.1 16.36 158.01C16.46 157.2 16.59 156.4 16.76 155.6C17.12 154 17.66 152.43 18.37 150.95C19.8 147.99 21.87 145.45 24.19 143.39C28.88 139.25 34.34 136.74 39.79 134.8C45.26 132.89 50.84 131.62 56.42 130.63C62 129.65 67.61 128.99 73.21 128.53C78.81 128.06 84.42 127.8 90.01 127.66C95.62 127.55 101.18 127.51 106.81 127.62C118.03 127.87 129.26 128.75 140.41 130.75C145.98 131.77 151.53 133.05 156.99 134.86C162.44 136.69 167.85 138.97 172.8 142.46C175.26 144.21 177.61 146.29 179.54 148.88C181.46 151.45 182.93 154.58 183.43 157.9C183.71 159.52 183.71 161.33 183.62 162.74C183.51 164.47 183.24 165.98 182.79 167.57C181.91 170.7 180.34 173.66 178.25 176.13C174.04 181.1 168.15 183.99 162.28 185.39C159.32 186.1 156.31 186.45 153.31 186.49C153.24 186.49 152.85 186.49 152.15 186.49C151.53 186.47 151.18 186.47 151.11 186.46C150.43 186.45 149.6 186.39 148.86 186.34C147.37 186.21 145.89 186.03 144.41 185.76C141.45 185.22 138.5 184.35 135.7 183.03C132.91 181.7 130.26 179.91 128.05 177.61C125.84 175.33 124.09 172.56 123.03 169.58C121.94 166.6 121.54 163.45 121.59 160.4C121.59 160.4 121.59 160.4 121.59 160.4C121.49 158.93 122.61 157.67 124.08 157.58C125.55 157.49 126.81 158.6 126.9 160.07C126.9 160.07 126.9 160.08 126.9 160.1C126.91 160.28 126.92 160.38 126.92 160.4C127.07 163.7 126.59 167.15 125.3 170.41C123.98 173.65 121.78 176.62 119.01 178.81C116.26 181.04 113.02 182.44 109.78 183.32C108.15 183.75 106.51 184.06 104.87 184.25C103.22 184.44 101.64 184.53 99.94 184.53C98.51 184.52 96.71 184.43 95.13 184.25C93.5 184.08 91.87 183.79 90.24 183.39C87 182.56 83.7 181.22 80.92 178.95C78.11 176.73 75.96 173.64 74.76 170.36C73.58 167.06 73.21 163.66 73.36 160.4C73.36 160.4 73.36 160.4 73.36 160.4C76.56 160.4 78.33 160.4 78.69 160.4C78.78 164.15 78.02 168.04 76.3 171.52C74.57 174.99 71.92 177.98 68.84 180.22C65.77 182.48 62.27 184.01 58.72 185C55.15 185.98 51.5 186.45 47.88 186.51C46.12 186.53 44.2 186.43 42.38 186.21C40.55 185.99 38.73 185.64 36.93 185.16C33.34 184.19 29.84 182.65 26.7 180.43C23.58 178.21 20.85 175.26 19 171.77C17.13 168.29 16.2 164.3 16.23 160.43C16.23 160.43 16.23 160.39 16.23 160.39C16.23 160.38 16.23 160.36 16.23 160.35" id="dhRp9EyrP"></path><path d="M102.49 35C110.65 27.76 122.55 23.2 135.79 23.2C160.39 23.2 180.33 40.92 180.33 63.66C180.33 65.96 180.33 84.36 180.33 86.66C180.33 121.71 144.34 150.13 99.95 150.13C55.56 150.13 19.57 121.71 19.57 86.66C19.57 86.09 19.57 81.55 19.57 80.98C19.57 53.74 47.2 31.66 81.7 31.66C116.2 31.66 144.16 53.74 144.16 80.98" id="a10BC4EGTO"></path><path d="M100.78 32.97C100.78 32.97 101.16 32.61 101.9 31.93C102.64 31.25 104.01 30.14 105.67 28.96C109.07 26.58 114.48 23.48 122.02 21.59C125.78 20.65 130.04 19.98 134.7 19.89C134.76 19.89 135.05 19.88 135.57 19.87L135.87 19.86L136.08 19.87C136.33 19.87 136.47 19.88 136.5 19.88C137.06 19.89 137.63 19.9 138.2 19.91C139.46 19.99 140.76 20.06 142 20.22C144.52 20.51 147.12 20.97 149.74 21.7C154.99 23.13 160.39 25.5 165.41 29.06C170.41 32.61 175.05 37.39 178.4 43.34C181.8 49.24 183.78 56.35 183.8 63.7C183.81 70.46 183.82 77.44 183.84 84.61C183.84 84.7 183.84 85.15 183.84 85.96L183.84 86.64C183.83 87.11 183.82 87.37 183.82 87.42C183.79 88.33 183.76 89.24 183.73 90.15C183.64 91.15 183.54 92.15 183.45 93.16C183.35 94.16 183.16 95.1 183.02 96.08C182.33 99.96 181.22 103.8 179.71 107.52C176.7 114.97 171.98 121.8 166.27 127.71C160.55 133.65 153.7 138.54 146.32 142.51C138.89 146.4 130.87 149.36 122.55 151.17C114.25 153.03 105.61 153.81 97.07 153.58C88.43 153.35 79.86 152.03 71.52 149.67C63.22 147.23 55.16 143.79 47.85 139.11C40.54 134.45 33.89 128.67 28.59 121.81C23.29 114.95 19.37 107 17.5 98.6C16.55 94.43 16.15 90.08 16.16 85.94C16.16 85.74 16.16 84.75 16.16 82.96L16.16 81.48L16.17 80.63L16.2 79.89L16.24 78.41C16.33 77.42 16.38 76.88 16.39 76.77C16.47 75.64 16.66 74.6 16.82 73.56C18.25 65.15 22.25 57.54 27.41 51.4C32.6 45.24 38.95 40.49 45.61 36.96C59 29.91 73.56 27.71 86.45 28.51C99.56 29.33 111.19 33.19 120.37 38.63C124.95 41.36 128.94 44.45 132.25 47.7C135.56 50.97 138.22 54.37 140.26 57.68C144.33 64.34 145.81 70.48 146.39 74.59C146.57 75.62 146.62 76.54 146.69 77.34C146.78 78.13 146.79 78.8 146.79 79.34C146.82 80.42 146.83 80.98 146.83 80.98C146.86 82.45 145.69 83.66 144.22 83.69C142.77 83.72 141.57 82.59 141.5 81.16C141.5 81.14 141.49 81 141.49 80.98C141.49 80.98 141.47 80.49 141.43 79.55C141.41 79.08 141.39 78.49 141.3 77.8C141.21 77.11 141.16 76.31 140.98 75.42C140.38 71.85 138.98 66.57 135.27 60.79C133.44 57.91 131.05 54.92 128.06 52.03C125.06 49.16 121.43 46.42 117.24 43.99C108.88 39.15 98.07 35.71 86.15 35.11C80.08 34.8 73.84 35.13 67.49 36.36C61.17 37.61 54.77 39.69 48.76 42.9C42.76 46.09 37.11 50.36 32.59 55.75C28.09 61.13 24.71 67.64 23.53 74.72C23.39 75.6 23.23 76.5 23.17 77.34C23.17 77.42 23.13 77.85 23.05 78.63L23.01 80.11L22.98 80.85L22.98 81.48L22.98 82.96C22.98 84.75 22.98 85.74 22.98 85.94C22.99 89.74 23.34 93.41 24.18 97.1C25.83 104.44 29.28 111.45 34.03 117.59C38.8 123.74 44.84 129 51.56 133.26C58.27 137.55 65.73 140.71 73.44 142.97C81.17 145.15 89.23 146.38 97.21 146.57C105.29 146.78 113.29 146.05 121.03 144.31C128.77 142.62 136.18 139.87 143.03 136.29C149.82 132.64 156.07 128.16 161.22 122.8C166.36 117.47 170.55 111.39 173.18 104.85C174.5 101.59 175.46 98.23 176.07 94.86C176.19 94.02 176.37 93.16 176.46 92.34C176.54 91.53 176.62 90.71 176.7 89.9C176.74 89 176.77 88.1 176.8 87.2C176.8 87.16 176.81 86.97 176.82 86.64L176.82 85.96C176.83 85.15 176.83 84.7 176.83 84.61C176.84 77.44 176.85 70.46 176.87 63.7C176.87 57.55 175.26 51.67 172.43 46.71C169.65 41.72 165.74 37.65 161.46 34.59C157.18 31.52 152.52 29.45 147.97 28.18C145.69 27.55 143.42 27.14 141.23 26.87C140.11 26.72 139.07 26.68 138.04 26.6C137.47 26.58 136.91 26.57 136.35 26.55C136.32 26.55 136.18 26.55 135.93 26.54C135.8 26.54 135.73 26.54 135.72 26.54C135.8 26.54 135.63 26.54 135.6 26.54C135.52 26.54 134.89 26.56 134.82 26.56C130.67 26.6 126.88 27.1 123.53 27.88C120.2 28.67 117.28 29.64 114.84 30.68C112.4 31.73 110.42 32.84 108.85 33.77C107.25 34.77 106.25 35.49 105.43 36.1C104.63 36.72 104.21 37.04 104.21 37.04C103.05 37.94 101.37 37.73 100.47 36.56C99.62 35.46 99.77 33.89 100.78 32.97" id="e2C4bi4utx"></path><path d="M134.45 54.23C134.45 54.23 143.37 50.53 149.08 49.34" id="g51VOYPSBD"></path><path d="M141.05 65.42C141.05 65.42 148.12 63.23 154.48 62.47" id="cHg5XsdPG"></path><path d="M89.31 110.66C89.03 114.74 85.63 117.84 81.73 117.57C77.82 117.3 74.88 113.77 75.16 109.69C75.44 105.6 78.84 102.5 82.74 102.77C86.65 103.04 89.59 106.57 89.31 110.66" id="bFygJVc2q"></path><path d="M107.17 110.85C106.87 110.42 106.58 109.96 106.26 109.54C105.54 108.57 104.77 107.62 103.97 106.7C103.18 105.78 102.34 104.9 101.48 104.05C100.62 103.19 99.72 102.4 98.81 101.63C97.87 100.9 96.94 100.13 95.94 99.53C94.97 98.84 93.93 98.35 92.91 97.79C91.86 97.38 90.77 96.85 89.8 96.64C88.92 96.29 87.5 96.17 86.26 95.97C86.6 96.01 86.35 95.98 86.42 95.99C86.42 95.99 86.42 95.99 86.41 95.99L86.38 95.99L86.33 95.99L86.23 95.99L86.02 95.99L85.6 95.99C85.1 95.99 84.82 95.99 84.77 95.99C84.21 95.94 83.65 96.06 83.1 96.12C81.97 96.2 80.87 96.55 79.75 96.81C78.66 97.21 77.55 97.55 76.48 98.08C75.4 98.54 74.37 99.16 73.32 99.74C72.3 100.38 71.28 101.03 70.31 101.75C69.33 102.47 68.36 103.22 67.44 104.02C66.51 104.81 65.6 105.64 64.73 106.5C63.87 107.34 62.99 108.27 62.27 109.12C62.28 108.85 62.43 106.7 62.45 106.43C63.05 107.37 63.8 108.42 64.54 109.37C65.28 110.34 66.06 111.29 66.88 112.19C67.68 113.12 68.54 113.99 69.41 114.83C70.28 115.69 71.2 116.47 72.12 117.24C73.08 117.95 74.01 118.71 75.03 119.31C76.01 119.99 77.06 120.47 78.09 121.02C79.15 121.42 80.25 121.93 81.23 122.13C81.74 122.27 82.17 122.45 82.87 122.51C83.04 122.53 84.43 122.72 84.6 122.74C85.71 122.7 86.82 122.8 87.93 122.57C89.05 122.48 90.15 122.11 91.26 121.84C92.34 121.43 93.44 121.08 94.5 120.54C95.57 120.07 96.59 119.44 97.63 118.85C98.64 118.2 99.64 117.55 100.6 116.81C101.57 116.09 102.52 115.34 103.43 114.53C104.35 113.73 105.24 112.89 106.09 112.03C106.47 111.65 106.81 111.24 107.17 110.85M109.83 115.77C108.88 116.72 107.89 117.63 106.86 118.5C105.85 119.38 104.79 120.21 103.69 121C102.61 121.81 101.46 122.55 100.31 123.27C99.11 123.93 97.94 124.64 96.66 125.18C95.42 125.8 94.08 126.23 92.76 126.7C91.38 127.04 90.03 127.45 88.58 127.57C87.17 127.82 85.7 127.73 84.26 127.73C84.05 127.7 82.39 127.47 82.19 127.44C81.6 127.39 80.81 127.15 80.09 126.96C78.56 126.6 77.33 126.01 76.01 125.47C74.78 124.82 73.52 124.2 72.39 123.41C71.2 122.69 70.15 121.82 69.07 120.99C68.04 120.11 67.01 119.22 66.06 118.26C65.11 117.32 64.18 116.35 63.31 115.33C62.43 114.33 61.59 113.29 60.79 112.22C59.97 111.13 59.23 110.09 58.47 108.86C57.93 108 58.04 106.92 58.65 106.17C59.58 105.06 60.45 104.13 61.41 103.17C62.35 102.22 63.32 101.3 64.33 100.43C65.33 99.54 66.38 98.7 67.46 97.9C68.53 97.08 69.67 96.34 70.81 95.61C71.99 94.93 73.16 94.22 74.43 93.66C75.65 93.04 76.99 92.6 78.3 92.11C79.67 91.77 81.01 91.34 82.45 91.21C83.17 91.12 83.87 90.98 84.6 91.01C84.67 91.01 85.04 91.01 85.69 91.01L86.23 91L86.51 91L86.64 91L86.71 91L86.74 91L86.76 91C86.87 91.01 86.93 91.02 86.95 91.02C88.24 91.22 89.39 91.26 90.96 91.73C92.5 92.08 93.73 92.66 95.06 93.19C96.3 93.83 97.57 94.44 98.71 95.22C99.91 95.94 100.98 96.79 102.07 97.62C103.12 98.49 104.15 99.37 105.11 100.32C106.09 101.26 107.03 102.23 107.91 103.24C108.81 104.24 109.66 105.27 110.48 106.34C111.31 107.42 112.06 108.46 112.85 109.7C113.48 110.68 113.36 111.93 112.64 112.77C111.71 113.87 110.79 114.83 109.83 115.77Z" id="b9xgAh01X"></path><path d="M18.15 78.91C18.15 78.91 18.44 78.5 18.98 77.73C19.26 77.34 19.58 76.86 20 76.3C20.45 75.73 20.98 75.07 21.56 74.34C22.75 72.91 24.25 71.27 26.11 69.5C28.01 67.79 30.21 65.88 32.87 64.16C35.5 62.43 38.5 60.73 41.86 59.36C45.22 58 48.91 56.9 52.81 56.24C53.79 56.08 54.78 55.9 55.78 55.83C56.78 55.74 57.79 55.59 58.81 55.58C59.84 55.56 60.81 55.47 61.91 55.51C62.91 55.53 63.86 55.53 64.96 55.64C69.2 55.96 73.35 56.78 77.37 58.22C81.37 59.64 85.19 61.55 88.65 63.88C92.12 66.21 95.24 68.89 97.97 71.77C103.43 77.54 107.18 84.07 109.52 89.95C110.71 92.9 111.51 95.71 112.1 98.22C112.7 100.73 113 102.97 113.22 104.81C113.4 106.66 113.51 108.12 113.52 109.11C113.55 110.11 113.56 110.64 113.56 110.64C113.6 112.11 112.45 113.33 110.97 113.38C109.5 113.42 108.27 112.26 108.23 110.79C108.23 110.79 108.23 110.78 108.23 110.77C108.23 110.69 108.23 110.64 108.23 110.64C108.23 110.64 108.22 110.16 108.2 109.25C108.2 108.36 108.12 107.04 107.97 105.36C107.79 103.69 107.54 101.66 107.02 99.37C106.5 97.08 105.81 94.52 104.75 91.82C102.67 86.44 99.31 80.44 94.38 75.12C91.92 72.47 89.1 69.99 85.98 67.85C82.85 65.7 79.4 63.94 75.8 62.61C72.21 61.27 68.37 60.49 64.68 60.16C63.8 60.06 62.77 60.05 61.79 60.01C60.92 59.97 59.93 60.04 59.01 60.05C58.08 60.05 57.16 60.18 56.24 60.25C55.33 60.31 54.43 60.46 53.53 60.6C49.96 61.17 46.57 62.13 43.48 63.35C40.39 64.58 37.62 66.11 35.18 67.67C32.72 69.22 30.69 70.96 28.91 72.52C27.19 74.13 25.77 75.65 24.68 76.93C24.15 77.57 23.68 78.15 23.28 78.65C22.87 79.18 22.53 79.67 22.26 80.05C21.7 80.82 21.41 81.23 21.41 81.23C20.76 82.13 19.51 82.33 18.62 81.69C17.73 81.05 17.52 79.81 18.15 78.91" id="bjknX0Zt8"></path></defs><g><g><g><use xlink:href="#a3NzJitjcS" opacity="1" fill="#ffffff" fill-opacity="1"></use><g><use xlink:href="#a3NzJitjcS" opacity="1" fill-opacity="0" stroke="#000000" stroke-width="1" stroke-opacity="0"></use></g></g><g><use xlink:href="#dhRp9EyrP" opacity="1" fill="#1d1d1b" fill-opacity="1"></use><g><use xlink:href="#dhRp9EyrP" opacity="1" fill-opacity="0" stroke="#000000" stroke-width="1" stroke-opacity="0"></use></g></g><g><use xlink:href="#a10BC4EGTO" opacity="1" fill="#ffffff" fill-opacity="1"></use><g><use xlink:href="#a10BC4EGTO" opacity="1" fill-opacity="0" stroke="#000000" stroke-width="1" stroke-opacity="0"></use></g></g><g><use xlink:href="#e2C4bi4utx" opacity="1" fill="#1d1d1b" fill-opacity="1"></use><g><use xlink:href="#e2C4bi4utx" opacity="1" fill-opacity="0" stroke="#000000" stroke-width="1" stroke-opacity="0"></use></g></g><g><use xlink:href="#g51VOYPSBD" opacity="1" fill="#000000" fill-opacity="0"></use><g><use xlink:href="#g51VOYPSBD" opacity="1" fill-opacity="0" stroke="#1d1d1b" stroke-width="3.5" stroke-opacity="1"></use></g></g><g><use xlink:href="#cHg5XsdPG" opacity="1" fill="#000000" fill-opacity="0"></use><g><use xlink:href="#cHg5XsdPG" opacity="1" fill-opacity="0" stroke="#1d1d1b" stroke-width="3.5" stroke-opacity="1"></use></g></g><g><use xlink:href="#bFygJVc2q" opacity="1" fill="#1d1d1b" fill-opacity="1"></use><g><use xlink:href="#bFygJVc2q" opacity="1" fill-opacity="0" stroke="#000000" stroke-width="1" stroke-opacity="0"></use></g></g><g><use xlink:href="#b9xgAh01X" opacity="1" fill="#1d1d1b" fill-opacity="1"></use><g><use xlink:href="#b9xgAh01X" opacity="1" fill-opacity="0" stroke="#000000" stroke-width="1" stroke-opacity="0"></use></g></g><g><use xlink:href="#bjknX0Zt8" opacity="1" fill="#1d1d1b" fill-opacity="1"></use><g><use xlink:href="#bjknX0Zt8" opacity="1" fill-opacity="0" stroke="#000000" stroke-width="1" stroke-opacity="0"></use></g></g></g></g></svg>