<?xml version="1.0" encoding="UTF-8" standalone="no"?>
<!DOCTYPE svg PUBLIC "-//W3C//DTD SVG 1.1//EN" "http://www.w3.org/Graphics/SVG/1.1/DTD/svg11.dtd">
<svg version="1.1" xmlns="http://www.w3.org/2000/svg" xmlns:xlink="http://www.w3.org/1999/xlink" preserveAspectRatio="xMidYMid meet" viewBox="0 0 200 200" width="200" height="200"><defs><path d="M102.48 41.41C110.6 32.28 122.44 26.53 135.61 26.53C160.1 26.53 179.94 48.86 179.94 77.53C179.94 80.43 179.94 103.62 179.94 106.52C179.94 150.7 144.13 186.51 99.95 186.51C55.77 186.51 19.96 150.7 19.96 106.52C19.96 105.8 19.96 100.07 19.96 99.35C19.96 65.02 47.46 37.19 81.79 37.19C116.12 37.19 143.95 65.02 143.95 99.35" id="b1U1uGxqRT"></path><path d="M100.58 39.53C100.58 39.53 100.98 39.1 101.74 38.27C102.52 37.44 103.51 36.21 105.41 34.64C107.19 32.98 109.5 31.32 112.39 29.57C113.14 29.17 113.9 28.75 114.7 28.31C115.1 28.1 115.5 27.86 115.92 27.66C116.36 27.47 116.8 27.29 117.24 27.1C118.14 26.73 119.07 26.35 120.02 25.96C120.98 25.58 122.02 25.35 123.07 25.03C125.15 24.34 127.43 24.03 129.81 23.62C131 23.42 132.24 23.43 133.5 23.32C134.13 23.28 134.76 23.25 135.41 23.21C135.42 23.21 135.52 23.2 135.53 23.2C135.4 23.19 135.84 23.2 135.84 23.2C135.85 23.2 135.93 23.21 136.06 23.21L136.52 23.24C137.06 23.27 137.37 23.29 137.43 23.29C138.04 23.32 138.66 23.36 139.28 23.39C139.38 23.4 140.13 23.44 140.22 23.44C140.55 23.47 140.92 23.55 141.27 23.6C142.68 23.84 144.15 24.05 145.58 24.36C146.96 24.76 148.36 25.16 149.79 25.58C151.17 26.11 152.56 26.7 153.98 27.29C159.53 29.88 164.87 33.81 169.39 38.91C173.91 44 177.56 50.27 179.99 57.26C181.18 60.77 182.13 64.44 182.66 68.24C182.91 70.14 183.23 72.06 183.25 74.01C183.29 74.98 183.34 75.96 183.38 76.95C183.43 77.94 183.39 78.83 183.41 79.78C183.42 87.3 183.43 95.07 183.45 103.06C183.45 104.06 183.45 105.06 183.45 106.07C183.45 106.12 183.45 106.4 183.44 106.91L183.43 107.66L183.39 109.18L183.36 110.7C183.29 111.67 183.25 112.21 183.24 112.32C183.15 113.39 183.1 114.5 182.97 115.56C182.53 119.82 181.69 124.08 180.58 128.32C178.3 136.77 174.6 145.05 169.57 152.63C159.56 167.81 143.98 180.08 125.74 185.94C116.66 188.86 106.96 190.31 97.35 189.95C97.23 189.95 96.65 189.93 95.6 189.9C94.5 189.82 93.88 189.77 93.76 189.76C92.53 189.67 91.29 189.59 90.1 189.41C87.69 189.15 85.31 188.72 82.93 188.26C78.18 187.28 73.52 185.85 69.02 184.05C60.02 180.44 51.62 175.29 44.45 168.82C37.25 162.38 31.2 154.73 26.62 146.35C22.09 137.95 19.03 128.85 17.57 119.61C16.85 115 16.56 110.31 16.55 105.76C16.56 103.49 16.56 101.23 16.57 98.98C16.7 96.77 16.75 94.63 16.94 92.39C17.31 90.07 17.57 87.71 18.05 85.46C18.33 84.36 18.61 83.26 18.89 82.16C19.19 81.07 19.4 79.95 19.83 78.9C20.22 77.84 20.6 76.78 20.98 75.73C21.36 74.67 21.73 73.61 22.25 72.62C22.73 71.61 23.21 70.6 23.69 69.6C23.74 69.5 23.98 69 24.42 68.1C24.93 67.25 25.21 66.77 25.27 66.68C29.67 59 35.53 52.42 42.21 47.31C55.57 37.02 72.18 32.79 86.6 34.12C88.29 34.14 90.21 34.52 92.01 34.79C92.92 34.93 93.82 35.08 94.72 35.22C95.6 35.4 96.44 35.65 97.3 35.87C98.15 36.09 98.99 36.31 99.83 36.53C100.67 36.74 101.5 36.97 102.3 37.3C103.9 37.9 105.49 38.49 107.06 39.07C113.18 41.77 118.56 45.18 123.19 48.91C132.27 56.63 138.1 65.52 141.44 73.33C144.79 81.2 145.72 87.9 146.3 92.39C146.46 94.66 146.48 96.4 146.54 97.58C146.59 98.75 146.61 99.35 146.61 99.35C146.67 100.82 145.52 102.06 144.06 102.11C142.61 102.17 141.39 101.06 141.3 99.63C141.3 99.6 141.28 99.38 141.28 99.35C141.28 99.35 141.24 98.8 141.18 97.72C141.09 96.65 141.04 95.05 140.85 92.97C140.23 88.87 139.24 82.77 136.05 75.68C132.93 68.62 127.55 60.61 119.25 53.71C115.02 50.38 110.12 47.35 104.58 44.97C103.16 44.46 101.73 43.94 100.27 43.42C99.56 43.13 98.81 42.93 98.04 42.76C97.29 42.57 96.53 42.38 95.76 42.19C94.99 42 94.22 41.77 93.45 41.62C92.68 41.51 91.91 41.4 91.13 41.29C89.56 41.08 88.08 40.74 86.27 40.73C85.4 40.69 84.53 40.65 83.65 40.61C83.56 40.61 83.12 40.59 82.32 40.55C81.92 40.54 81.7 40.53 81.66 40.52C81.94 40.53 81.65 40.53 81.67 40.53C81.66 40.53 81.61 40.54 81.51 40.54C81.32 40.55 81.22 40.56 81.19 40.56C79.51 40.64 77.82 40.73 76.1 40.82C74.4 41.01 72.69 41.33 70.96 41.58C70.09 41.67 69.25 41.91 68.4 42.13C67.54 42.35 66.69 42.58 65.83 42.8C59 44.74 52.3 48.03 46.31 52.64C40.33 57.24 35.08 63.15 31.14 70.04C31.09 70.12 30.84 70.55 30.38 71.31C29.99 72.12 29.78 72.57 29.73 72.66C29.31 73.56 28.88 74.46 28.44 75.37C27.98 76.25 27.64 77.2 27.31 78.15C26.97 79.1 26.63 80.05 26.28 81C25.89 81.94 25.72 82.94 25.45 83.92C25.2 84.91 24.95 85.89 24.7 86.88C24.27 88.86 24.08 90.82 23.73 92.8C23.55 94.9 23.5 97.14 23.37 99.32C23.37 101.46 23.37 103.6 23.37 105.76C23.39 110.06 23.67 114.29 24.33 118.54C25.68 127.02 28.5 135.36 32.67 143.06C36.88 150.74 42.44 157.75 49.06 163.65C55.65 169.57 63.36 174.28 71.6 177.58C75.73 179.22 80 180.52 84.35 181.42C86.53 181.83 88.71 182.22 90.92 182.46C92.03 182.62 93.1 182.68 94.18 182.77C94.29 182.78 94.83 182.82 95.8 182.89C96.83 182.92 97.41 182.94 97.52 182.94C106.43 183.26 115.25 181.94 123.57 179.26C140.26 173.9 154.54 162.64 163.7 148.74C168.31 141.79 171.68 134.22 173.77 126.48C174.79 122.61 175.54 118.7 175.96 114.81C176.09 113.84 176.12 112.9 176.21 111.94C176.22 111.85 176.25 111.38 176.32 110.52C176.35 109.61 176.36 109.1 176.36 109C176.39 108.02 176.41 107.04 176.43 106.07C176.43 105.06 176.44 104.06 176.44 103.06C176.45 95.07 176.46 87.3 176.48 79.78C176.47 78.86 176.5 77.88 176.46 77.01C176.42 76.13 176.39 75.26 176.35 74.39C176.35 72.64 176.06 70.94 175.85 69.24C175.39 65.86 174.55 62.61 173.51 59.51C171.39 53.33 168.21 47.82 164.29 43.4C160.39 38.96 155.82 35.6 151.12 33.38C149.92 32.88 148.74 32.39 147.58 31.91C146.38 31.56 145.19 31.22 144.03 30.88C142.88 30.63 141.77 30.47 140.68 30.26C140.39 30.21 140.15 30.14 139.84 30.11C139.75 30.11 139 30.06 138.9 30.06C138.28 30.02 137.66 29.99 137.05 29.95C136.99 29.95 136.68 29.93 136.14 29.9L135.68 29.87C135.55 29.86 135.47 29.86 135.46 29.86C135.38 29.85 135.74 29.87 135.54 29.86C135.53 29.86 135.45 29.87 135.44 29.87C134.88 29.9 134.33 29.92 133.79 29.95C132.7 30.02 131.63 29.99 130.6 30.14C128.55 30.48 126.57 30.69 124.77 31.27C123.87 31.53 122.96 31.71 122.13 32.02C121.29 32.34 120.48 32.64 119.7 32.94C119.3 33.09 118.91 33.23 118.53 33.37C118.16 33.54 117.81 33.73 117.45 33.9C116.75 34.25 116.07 34.59 115.41 34.92C112.85 36.35 110.72 37.75 109.22 38.97C107.65 40.06 106.45 41.37 105.63 42.11C104.8 42.88 104.38 43.28 104.38 43.28C103.31 44.29 101.62 44.23 100.61 43.16C99.65 42.14 99.66 40.55 100.58 39.53" id="m26KxTXRIB"></path><path d="M140.85 79.74C140.85 79.74 147.89 76.98 154.21 76.02" id="a4x3CPqV8"></path><path d="M86.29 81.18C86.29 81.18 86.33 82.09 86.42 83.67C86.47 85.26 86.6 87.52 86.66 90.24C86.72 92.96 86.84 96.13 86.87 99.53C86.93 102.93 86.94 106.55 86.95 110.18C86.94 113.8 86.93 117.43 86.87 120.83C86.83 124.22 86.72 127.4 86.66 130.11C86.6 132.83 86.47 135.1 86.42 136.68C86.33 138.27 86.29 139.18 86.29 139.18C86.19 141.02 84.62 142.43 82.78 142.34C81.06 142.25 79.71 140.86 79.62 139.18C79.62 139.18 79.57 138.27 79.49 136.68C79.44 135.1 79.31 132.83 79.25 130.11C79.19 127.4 79.08 124.22 79.03 120.83C78.98 117.43 78.97 113.8 78.95 110.18C78.97 106.55 78.98 102.93 79.03 99.53C79.07 96.13 79.19 92.96 79.24 90.24C79.3 87.52 79.44 85.26 79.49 83.67C79.57 82.09 79.62 81.18 79.62 81.18C79.72 79.34 81.29 77.93 83.13 78.02C84.84 78.11 86.19 79.5 86.29 81.18" id="aUFeJXfMa"></path><path d="M53.96 106.85C53.96 106.85 54.86 106.8 56.45 106.72C58.03 106.66 60.3 106.53 63.02 106.47C65.74 106.41 68.91 106.3 72.31 106.26C75.7 106.2 79.33 106.19 82.95 106.18C86.58 106.19 90.2 106.2 93.6 106.26C97 106.3 100.17 106.41 102.89 106.47C105.61 106.53 107.87 106.66 109.46 106.71C111.04 106.8 111.95 106.85 111.95 106.85C113.79 106.94 115.21 108.51 115.11 110.35C115.02 112.07 113.63 113.42 111.95 113.51C111.95 113.51 111.04 113.56 109.46 113.64C107.87 113.7 105.61 113.83 102.89 113.89C100.17 113.95 97 114.06 93.6 114.1C90.2 114.16 86.58 114.16 82.95 114.18C79.33 114.16 75.7 114.15 72.31 114.1C68.91 114.05 65.74 113.94 63.02 113.88C60.3 113.82 58.03 113.69 56.45 113.64C54.86 113.56 53.96 113.51 53.96 113.51C52.12 113.42 50.7 111.85 50.8 110.01C50.88 108.29 52.28 106.94 53.96 106.85" id="aq4ZeUnE1"></path></defs><g><g><g><use xlink:href="#b1U1uGxqRT" opacity="1" fill="#ffffff" fill-opacity="1"></use><g><use xlink:href="#b1U1uGxqRT" opacity="1" fill-opacity="0" stroke="#000000" stroke-width="1" stroke-opacity="0"></use></g></g><g><use xlink:href="#m26KxTXRIB" opacity="1" fill="#1d1d1b" fill-opacity="1"></use><g><use xlink:href="#m26KxTXRIB" opacity="1" fill-opacity="0" stroke="#000000" stroke-width="1" stroke-opacity="0"></use></g></g><g><use xlink:href="#a4x3CPqV8" opacity="1" fill="#000000" fill-opacity="0"></use><g><use xlink:href="#a4x3CPqV8" opacity="1" fill-opacity="0" stroke="#1d1d1b" stroke-width="3.5" stroke-opacity="1"></use></g></g><g><use xlink:href="#aUFeJXfMa" opacity="1" fill="#1d1d1b" fill-opacity="1"></use><g><use xlink:href="#aUFeJXfMa" opacity="1" fill-opacity="0" stroke="#000000" stroke-width="1" stroke-opacity="0"></use></g></g><g><use xlink:href="#aq4ZeUnE1" opacity="1" fill="#1d1d1b" fill-opacity="1"></use><g><use xlink:href="#aq4ZeUnE1" opacity="1" fill-opacity="0" stroke="#000000" stroke-width="1" stroke-opacity="0"></use></g></g></g></g></svg>