<?xml version="1.0" encoding="UTF-8" standalone="no"?>
<!DOCTYPE svg PUBLIC "-//W3C//DTD SVG 1.1//EN" "http://www.w3.org/Graphics/SVG/1.1/DTD/svg11.dtd">
<svg version="1.1" xmlns="http://www.w3.org/2000/svg" xmlns:xlink="http://www.w3.org/1999/xlink" preserveAspectRatio="xMidYMid meet" viewBox="0 0 200 200" width="200" height="200"><defs><path d="M19.56 167.1C19.56 144.63 55.38 137.22 99.78 137.22C144.17 137.22 180.34 147.27 180.34 167.62C180.34 181.37 167.92 189.85 152.38 189.85C134.97 189.85 124.25 180.82 124.25 167.07C124.25 179.73 115.54 187.87 100.14 187.87C83.39 187.87 76.02 179.73 76.02 167.07C76.02 180.82 64.3 189.85 47.55 189.85C32.02 189.85 19.56 180.85 19.56 167.1" id="a5TPDbZP0"></path><path d="M22.9 167.1C22.9 169.99 23.59 172.78 24.93 175.25C26.27 177.73 28.25 179.87 30.64 181.56C33.02 183.26 35.79 184.52 38.71 185.33C40.18 185.74 41.68 186.03 43.21 186.23C44.74 186.42 46.21 186.51 47.83 186.51C50.97 186.53 54.08 186.2 57.05 185.45C60.02 184.71 62.83 183.49 65.28 181.85C67.72 180.2 69.75 178.03 71.13 175.5C72.54 172.98 73.28 170.08 73.36 167.07C73.36 167.06 73.36 166.99 73.36 166.99C73.39 165.51 74.62 164.35 76.09 164.39C77.54 164.42 78.7 165.62 78.69 167.07C78.69 167.07 78.69 167.07 78.69 167.07C78.84 169.83 79.29 172.52 80.33 174.84C81.32 177.18 82.83 179.15 84.82 180.6C86.81 182.05 89.19 183.09 91.8 183.69C93.1 184 94.44 184.22 95.82 184.35C97.24 184.48 98.46 184.54 100.04 184.54C101.35 184.54 102.79 184.49 104.14 184.35C105.5 184.21 106.83 183.98 108.12 183.65C110.71 183.01 113.09 181.92 115.12 180.45C117.14 178.97 118.73 177 119.8 174.7C120.91 172.42 121.43 169.79 121.59 167.07C121.94 167.07 123.72 167.07 126.92 167.07C126.92 167.07 126.92 167.07 126.92 167.07C127 169.56 127.44 171.99 128.36 174.2C129.29 176.4 130.62 178.38 132.32 180.03C135.75 183.33 140.5 185.26 145.51 186.05C146.76 186.25 148.03 186.38 149.31 186.46C149.96 186.49 150.51 186.52 151.22 186.53C151.29 186.53 151.64 186.53 152.26 186.53C152.81 186.52 153.12 186.51 153.18 186.51C155.73 186.44 158.27 186.14 160.7 185.53C165.56 184.36 170.05 181.95 173.08 178.41C174.59 176.65 175.68 174.61 176.32 172.4C176.64 171.33 176.86 170.08 176.93 169.05C177.02 167.7 177.01 166.72 176.84 165.59C176.24 161.23 173.1 157.35 169 154.43C164.9 151.47 160 149.3 154.96 147.57C149.89 145.84 144.62 144.55 139.28 143.55C128.58 141.57 117.63 140.64 106.66 140.33C101.2 140.17 95.66 140.21 90.17 140.37C84.67 140.53 79.19 140.83 73.73 141.31C68.28 141.8 62.86 142.47 57.51 143.44C52.18 144.41 46.91 145.68 41.92 147.47C36.95 149.27 32.18 151.61 28.56 154.9C26.76 156.53 25.29 158.4 24.32 160.46C23.84 161.49 23.48 162.56 23.24 163.67C23.12 164.23 23.04 164.79 22.98 165.36C22.97 165.41 22.95 165.67 22.92 166.14C22.91 166.65 22.9 166.98 22.9 167.1ZM16.23 167.01L16.26 165.97C16.32 165.2 16.36 164.76 16.36 164.68C16.46 163.87 16.59 163.06 16.76 162.26C17.12 160.66 17.66 159.09 18.37 157.62C19.8 154.66 21.87 152.12 24.19 150.05C28.88 145.92 34.34 143.4 39.79 141.47C45.26 139.55 50.84 138.28 56.42 137.3C62 136.32 67.61 135.66 73.21 135.19C78.81 134.73 84.41 134.46 90.01 134.33C95.62 134.21 101.18 134.18 106.81 134.29C118.03 134.54 129.26 135.41 140.41 137.41C145.98 138.43 151.53 139.71 156.99 141.52C162.44 143.35 167.85 145.63 172.8 149.12C175.26 150.87 177.61 152.96 179.54 155.55C181.46 158.11 182.93 161.24 183.43 164.57C183.7 166.18 183.71 167.99 183.62 169.4C183.51 171.14 183.24 172.64 182.79 174.24C181.91 177.37 180.34 180.33 178.25 182.79C174.04 187.77 168.15 190.66 162.28 192.06C159.32 192.76 156.31 193.12 153.31 193.16C153.24 193.16 152.85 193.16 152.15 193.16C151.53 193.14 151.18 193.13 151.11 193.13C150.43 193.11 149.6 193.05 148.86 193C147.37 192.88 145.89 192.7 144.41 192.43C141.45 191.88 138.5 191.01 135.7 189.7C132.91 188.36 130.26 186.57 128.05 184.28C125.84 181.99 124.09 179.22 123.03 176.24C121.94 173.26 121.54 170.12 121.59 167.07C121.59 167.07 121.59 167.07 121.59 167.07C121.49 165.6 122.61 164.33 124.08 164.24C125.54 164.15 126.81 165.27 126.9 166.73C126.9 166.74 126.9 166.75 126.9 166.77C126.91 166.95 126.92 167.05 126.92 167.07C127.07 170.37 126.59 173.82 125.3 177.07C123.98 180.31 121.78 183.28 119.01 185.47C116.26 187.71 113.02 189.11 109.78 189.98C108.15 190.42 106.51 190.73 104.87 190.92C103.22 191.1 101.64 191.19 99.94 191.2C98.51 191.19 96.71 191.09 95.13 190.92C93.5 190.74 91.87 190.46 90.24 190.05C87 189.23 83.7 187.88 80.92 185.62C78.11 183.4 75.96 180.3 74.76 177.02C73.58 173.73 73.21 170.32 73.36 167.07C73.36 167.07 73.36 167.07 73.36 167.07C76.56 167.07 78.33 167.07 78.69 167.07C78.78 170.82 78.02 174.7 76.3 178.18C74.57 181.66 71.92 184.64 68.84 186.88C65.77 189.14 62.27 190.68 58.72 191.66C55.15 192.65 51.5 193.11 47.88 193.17C46.12 193.19 44.2 193.09 42.38 192.87C40.55 192.65 38.73 192.31 36.93 191.82C33.34 190.85 29.84 189.31 26.7 187.1C23.58 184.87 20.85 181.93 19 178.43C17.13 174.95 16.2 170.97 16.23 167.1C16.23 167.09 16.23 167.06 16.23 167.05C16.23 167.04 16.23 167.02 16.23 167.01" id="dcyNaNai8"></path><path d="M102.49 41.67C110.65 34.43 122.55 29.86 135.79 29.86C160.39 29.86 180.33 47.58 180.33 70.33C180.33 72.63 180.33 91.03 180.33 93.33C180.33 128.38 144.34 156.79 99.95 156.79C55.56 156.79 19.57 128.38 19.57 93.33C19.57 92.76 19.57 88.21 19.57 87.64C19.57 60.41 47.2 38.33 81.7 38.33C116.2 38.33 144.16 60.41 144.16 87.64" id="a6feOaYUm"></path><path d="M100.78 39.63C100.78 39.63 101.16 39.28 101.9 38.59C102.64 37.92 104.01 36.81 105.67 35.62C109.07 33.25 114.48 30.14 122.02 28.26C125.78 27.31 130.04 26.64 134.7 26.55C134.76 26.55 135.05 26.54 135.57 26.53L135.87 26.53L136.08 26.53C136.33 26.54 136.47 26.54 136.5 26.54C137.06 26.55 137.63 26.57 138.2 26.58C139.46 26.66 140.76 26.73 142 26.89C144.52 27.18 147.12 27.64 149.74 28.36C154.99 29.8 160.39 32.16 165.41 35.73C170.41 39.28 175.05 44.05 178.4 50C181.8 55.91 183.78 63.02 183.8 70.37C183.81 77.12 183.82 84.1 183.84 91.28C183.84 91.37 183.84 91.82 183.84 92.62L183.84 93.3C183.83 93.77 183.82 94.04 183.82 94.09C183.79 94.99 183.76 95.9 183.73 96.81C183.64 97.81 183.54 98.82 183.45 99.82C183.35 100.82 183.16 101.77 183.02 102.75C182.33 106.62 181.22 110.46 179.71 114.18C176.7 121.64 171.98 128.47 166.27 134.38C160.55 140.31 153.7 145.21 146.32 149.17C138.89 153.06 130.87 156.02 122.55 157.83C114.25 159.7 105.61 160.48 97.07 160.24C88.43 160.02 79.86 158.7 71.52 156.33C63.22 153.89 55.16 150.46 47.85 145.77C40.54 141.12 33.89 135.34 28.59 128.47C23.29 121.62 19.37 113.66 17.5 105.27C16.55 101.1 16.15 96.75 16.16 92.6C16.16 92.4 16.16 91.41 16.16 89.63L16.16 88.14L16.17 87.29L16.2 86.55L16.24 85.08C16.33 84.09 16.38 83.54 16.39 83.43C16.47 82.31 16.66 81.27 16.82 80.22C18.25 71.81 22.25 64.2 27.41 58.06C32.6 51.9 38.95 47.15 45.61 43.62C59 36.58 73.56 34.38 86.45 35.17C99.56 35.99 111.19 39.85 120.37 45.3C124.95 48.03 128.94 51.11 132.25 54.37C135.56 57.64 138.22 61.04 140.26 64.35C144.33 71.01 145.81 77.14 146.39 81.25C146.57 82.28 146.62 83.21 146.69 84C146.78 84.8 146.79 85.47 146.79 86.01C146.82 87.09 146.83 87.64 146.83 87.64C146.86 89.11 145.69 90.33 144.22 90.36C142.77 90.39 141.57 89.26 141.5 87.82C141.5 87.8 141.49 87.66 141.49 87.64C141.49 87.64 141.47 87.16 141.43 86.22C141.41 85.74 141.39 85.16 141.3 84.47C141.21 83.78 141.16 82.97 140.98 82.08C140.38 78.51 138.98 73.23 135.27 67.46C133.44 64.57 131.05 61.58 128.06 58.7C125.06 55.82 121.43 53.08 117.24 50.65C108.88 45.81 98.07 42.38 86.15 41.78C80.08 41.46 73.84 41.8 67.49 43.03C61.17 44.28 54.77 46.35 48.76 49.57C42.76 52.76 37.11 57.02 32.59 62.41C28.09 67.8 24.71 74.3 23.53 81.39C23.39 82.27 23.23 83.16 23.17 84C23.17 84.09 23.13 84.52 23.05 85.29L23.01 86.77L22.98 87.51L22.98 88.14L22.98 89.63C22.98 91.41 22.98 92.4 22.98 92.6C22.99 96.41 23.34 100.07 24.18 103.76C25.83 111.1 29.28 118.12 34.03 124.26C38.8 130.41 44.84 135.66 51.56 139.92C58.27 144.21 65.73 147.38 73.44 149.64C81.17 151.82 89.23 153.04 97.21 153.23C105.29 153.44 113.29 152.71 121.03 150.97C128.77 149.29 136.18 146.54 143.03 142.96C149.82 139.31 156.07 134.83 161.22 129.47C166.36 124.13 170.55 118.05 173.18 111.51C174.5 108.25 175.46 104.9 176.07 101.52C176.19 100.68 176.37 99.83 176.46 99.01C176.54 98.19 176.62 97.38 176.7 96.57C176.74 95.66 176.77 94.76 176.8 93.86C176.8 93.83 176.81 93.64 176.82 93.3L176.82 92.62C176.83 91.82 176.83 91.37 176.83 91.28C176.84 84.1 176.85 77.12 176.87 70.37C176.87 64.21 175.26 58.33 172.43 53.37C169.65 48.38 165.74 44.31 161.46 41.25C157.18 38.18 152.52 36.11 147.97 34.85C145.69 34.21 143.42 33.81 141.23 33.54C140.11 33.39 139.07 33.34 138.04 33.26C137.47 33.25 136.91 33.23 136.35 33.22C136.32 33.22 136.18 33.21 135.93 33.21C135.8 33.2 135.73 33.2 135.72 33.2C135.8 33.2 135.63 33.21 135.6 33.21C135.52 33.21 134.89 33.22 134.82 33.22C130.67 33.27 126.88 33.76 123.54 34.54C120.2 35.33 117.28 36.3 114.84 37.35C112.4 38.4 110.42 39.51 108.85 40.44C107.25 41.43 106.25 42.15 105.43 42.77C104.63 43.39 104.21 43.71 104.21 43.71C103.05 44.61 101.37 44.39 100.47 43.23C99.62 42.12 99.77 40.56 100.78 39.63" id="d7QZglO40"></path><path d="M141.05 72.08C141.05 72.08 148.12 69.89 154.48 69.13" id="b8yhKhyVrm"></path><path d="M86.2 67.24C86.2 67.24 86.25 68.14 86.33 69.73C86.39 71.31 86.52 73.58 86.58 76.3C86.64 79.02 86.75 82.19 86.79 85.59C86.85 88.98 86.86 92.61 86.87 96.23C86.86 99.86 86.84 103.48 86.79 106.88C86.74 110.28 86.64 113.45 86.58 116.17C86.52 118.89 86.39 121.15 86.33 122.74C86.32 122.99 86.22 124.98 86.2 125.23C86.11 127.07 84.54 128.48 82.7 128.39C80.98 128.3 79.63 126.91 79.54 125.23C79.54 125.23 79.49 124.32 79.41 122.74C79.35 121.15 79.23 118.89 79.16 116.17C79.11 113.45 79 110.28 78.95 106.88C78.9 103.48 78.89 99.86 78.87 96.23C78.88 92.61 78.89 88.98 78.95 85.59C78.99 82.19 79.1 79.02 79.16 76.3C79.22 73.58 79.35 71.31 79.41 69.73C79.49 68.14 79.54 67.24 79.54 67.24C79.63 65.39 81.2 63.98 83.04 64.08C84.76 64.17 86.11 65.56 86.2 67.24" id="d1jdr85vKj"></path><path d="M53.87 92.9C55.37 92.82 56.2 92.78 56.37 92.77C57.95 92.72 60.22 92.59 62.94 92.53C65.65 92.47 68.83 92.36 72.22 92.31C75.62 92.26 79.25 92.25 82.87 92.23C86.5 92.25 90.12 92.26 93.52 92.31C96.92 92.35 100.09 92.46 102.81 92.52C105.52 92.58 107.79 92.71 109.38 92.77C110.96 92.85 111.87 92.9 111.87 92.9C113.71 92.99 115.12 94.57 115.03 96.41C114.94 98.12 113.55 99.47 111.87 99.56C111.87 99.56 110.96 99.61 109.38 99.7C107.79 99.75 105.52 99.88 102.81 99.94C100.09 100 96.92 100.11 93.52 100.15C90.12 100.21 86.5 100.22 82.87 100.23C79.25 100.22 75.62 100.21 72.22 100.15C68.83 100.11 65.65 100 62.94 99.94C60.22 99.88 57.95 99.75 56.37 99.69C54.78 99.61 53.87 99.56 53.87 99.56C52.03 99.47 50.62 97.9 50.71 96.06C50.8 94.34 52.19 92.99 53.87 92.9" id="a3E6KoH0b"></path></defs><g><g><g><use xlink:href="#a5TPDbZP0" opacity="1" fill="#ffffff" fill-opacity="1"></use><g><use xlink:href="#a5TPDbZP0" opacity="1" fill-opacity="0" stroke="#000000" stroke-width="1" stroke-opacity="0"></use></g></g><g><use xlink:href="#dcyNaNai8" opacity="1" fill="#1d1d1b" fill-opacity="1"></use><g><use xlink:href="#dcyNaNai8" opacity="1" fill-opacity="0" stroke="#000000" stroke-width="1" stroke-opacity="0"></use></g></g><g><use xlink:href="#a6feOaYUm" opacity="1" fill="#ffffff" fill-opacity="1"></use><g><use xlink:href="#a6feOaYUm" opacity="1" fill-opacity="0" stroke="#000000" stroke-width="1" stroke-opacity="0"></use></g></g><g><use xlink:href="#d7QZglO40" opacity="1" fill="#1d1d1b" fill-opacity="1"></use><g><use xlink:href="#d7QZglO40" opacity="1" fill-opacity="0" stroke="#000000" stroke-width="1" stroke-opacity="0"></use></g></g><g><use xlink:href="#b8yhKhyVrm" opacity="1" fill="#000000" fill-opacity="0"></use><g><use xlink:href="#b8yhKhyVrm" opacity="1" fill-opacity="0" stroke="#1d1d1b" stroke-width="3.5" stroke-opacity="1"></use></g></g><g><use xlink:href="#d1jdr85vKj" opacity="1" fill="#1d1d1b" fill-opacity="1"></use><g><use xlink:href="#d1jdr85vKj" opacity="1" fill-opacity="0" stroke="#000000" stroke-width="1" stroke-opacity="0"></use></g></g><g><use xlink:href="#a3E6KoH0b" opacity="1" fill="#1d1d1b" fill-opacity="1"></use><g><use xlink:href="#a3E6KoH0b" opacity="1" fill-opacity="0" stroke="#000000" stroke-width="1" stroke-opacity="0"></use></g></g></g></g></svg>