<?xml version="1.0" encoding="UTF-8" standalone="no"?>
<!DOCTYPE svg PUBLIC "-//W3C//DTD SVG 1.1//EN" "http://www.w3.org/Graphics/SVG/1.1/DTD/svg11.dtd">
<svg version="1.1" xmlns="http://www.w3.org/2000/svg" xmlns:xlink="http://www.w3.org/1999/xlink" preserveAspectRatio="xMidYMid meet" viewBox="0 0 200 200" width="200" height="200"><defs><path d="M102.48 44.74C110.6 35.61 122.44 29.86 135.61 29.86C160.1 29.86 179.94 52.19 179.94 80.86C179.94 83.76 179.94 106.95 179.94 109.85C179.94 154.03 144.13 189.84 99.95 189.84C55.77 189.84 19.96 154.03 19.96 109.85C19.96 109.13 19.96 103.4 19.96 102.68C19.96 68.35 47.46 40.52 81.79 40.52C116.12 40.52 143.95 68.35 143.95 102.68" id="fW8w8gXuP"></path><path d="M100.58 42.86C100.58 42.86 100.98 42.43 101.74 41.6C102.52 40.77 103.51 39.54 105.41 37.97C107.19 36.31 109.5 34.65 112.39 32.9C113.14 32.5 113.9 32.08 114.7 31.64C115.1 31.43 115.5 31.19 115.92 30.99C116.36 30.8 116.8 30.62 117.24 30.43C118.14 30.06 119.07 29.68 120.02 29.29C120.98 28.91 122.02 28.68 123.07 28.36C125.15 27.67 127.43 27.36 129.81 26.95C131 26.75 132.24 26.76 133.5 26.65C134.13 26.61 134.76 26.58 135.41 26.54C135.42 26.54 135.52 26.53 135.53 26.53C135.4 26.52 135.84 26.53 135.84 26.53C135.85 26.53 135.93 26.54 136.06 26.54L136.52 26.57C137.06 26.6 137.37 26.62 137.43 26.62C138.04 26.65 138.66 26.69 139.28 26.72C139.38 26.73 140.13 26.77 140.22 26.77C140.55 26.8 140.92 26.88 141.27 26.93C142.68 27.17 144.15 27.38 145.58 27.69C146.96 28.09 148.36 28.49 149.79 28.91C151.17 29.44 152.56 30.03 153.98 30.62C159.53 33.21 164.87 37.14 169.39 42.24C173.91 47.33 177.56 53.6 179.99 60.59C181.18 64.1 182.13 67.77 182.66 71.57C182.91 73.47 183.23 75.39 183.25 77.34C183.29 78.31 183.34 79.29 183.38 80.28C183.43 81.27 183.39 82.16 183.41 83.11C183.42 90.63 183.43 98.4 183.45 106.39C183.45 107.39 183.45 108.39 183.45 109.4C183.45 109.45 183.45 109.73 183.44 110.24L183.43 110.99L183.39 112.51L183.36 114.03C183.29 115 183.25 115.54 183.24 115.65C183.15 116.72 183.1 117.83 182.97 118.89C182.53 123.15 181.69 127.41 180.58 131.65C178.3 140.1 174.6 148.38 169.57 155.96C159.56 171.14 143.98 183.41 125.74 189.27C116.66 192.19 106.96 193.64 97.35 193.28C97.23 193.28 96.65 193.26 95.6 193.23C94.5 193.15 93.88 193.1 93.76 193.09C92.53 193 91.29 192.92 90.1 192.74C87.69 192.48 85.31 192.05 82.93 191.59C78.18 190.61 73.52 189.18 69.02 187.38C60.02 183.77 51.62 178.62 44.45 172.15C37.25 165.71 31.2 158.06 26.62 149.68C22.09 141.28 19.03 132.18 17.57 122.94C16.85 118.33 16.56 113.64 16.55 109.09C16.56 106.82 16.56 104.56 16.57 102.31C16.7 100.1 16.75 97.96 16.94 95.72C17.31 93.4 17.57 91.04 18.05 88.79C18.33 87.69 18.61 86.59 18.89 85.49C19.19 84.4 19.4 83.28 19.83 82.23C20.22 81.17 20.6 80.11 20.98 79.06C21.36 78 21.73 76.94 22.25 75.95C22.73 74.94 23.21 73.93 23.69 72.93C23.74 72.83 23.98 72.33 24.42 71.43C24.93 70.58 25.21 70.1 25.27 70.01C29.67 62.33 35.53 55.75 42.21 50.64C55.57 40.35 72.18 36.12 86.6 37.45C88.29 37.47 90.21 37.85 92.01 38.12C92.92 38.26 93.82 38.41 94.72 38.55C95.6 38.73 96.44 38.98 97.3 39.2C98.15 39.42 98.99 39.64 99.83 39.86C100.67 40.07 101.5 40.3 102.3 40.63C103.9 41.23 105.49 41.82 107.06 42.4C113.18 45.1 118.56 48.51 123.19 52.24C132.27 59.96 138.1 68.85 141.44 76.66C144.79 84.53 145.72 91.23 146.3 95.72C146.46 97.99 146.48 99.73 146.54 100.91C146.59 102.08 146.61 102.68 146.61 102.68C146.67 104.15 145.52 105.39 144.06 105.44C142.61 105.5 141.39 104.39 141.3 102.96C141.3 102.93 141.28 102.71 141.28 102.68C141.28 102.68 141.24 102.13 141.18 101.05C141.09 99.98 141.04 98.38 140.85 96.3C140.23 92.2 139.24 86.1 136.05 79.01C132.93 71.95 127.55 63.94 119.25 57.04C115.02 53.71 110.12 50.68 104.58 48.3C103.16 47.79 101.73 47.27 100.27 46.75C99.56 46.46 98.81 46.26 98.04 46.09C97.29 45.9 96.53 45.71 95.76 45.52C94.99 45.33 94.22 45.1 93.45 44.95C92.68 44.84 91.91 44.73 91.13 44.62C89.56 44.41 88.08 44.07 86.27 44.06C85.4 44.02 84.53 43.98 83.65 43.94C83.56 43.94 83.12 43.92 82.32 43.88C81.92 43.87 81.7 43.86 81.66 43.85C81.94 43.86 81.65 43.86 81.67 43.86C81.66 43.86 81.61 43.87 81.51 43.87C81.32 43.88 81.22 43.89 81.19 43.89C79.51 43.97 77.82 44.06 76.1 44.15C74.4 44.34 72.69 44.66 70.96 44.91C70.09 45 69.25 45.24 68.4 45.46C67.54 45.68 66.69 45.91 65.83 46.13C59 48.07 52.3 51.36 46.31 55.97C40.33 60.57 35.08 66.48 31.14 73.37C31.09 73.45 30.84 73.88 30.38 74.64C29.99 75.45 29.78 75.9 29.73 75.99C29.31 76.89 28.88 77.79 28.44 78.7C27.98 79.58 27.64 80.53 27.31 81.48C26.97 82.43 26.63 83.38 26.28 84.33C25.89 85.27 25.72 86.27 25.45 87.25C25.2 88.24 24.95 89.22 24.7 90.21C24.27 92.19 24.08 94.15 23.73 96.13C23.55 98.23 23.5 100.47 23.37 102.65C23.37 104.79 23.37 106.93 23.37 109.09C23.39 113.39 23.67 117.62 24.33 121.87C25.68 130.35 28.5 138.69 32.67 146.39C36.88 154.07 42.44 161.08 49.06 166.98C55.65 172.9 63.36 177.61 71.6 180.91C75.73 182.55 80 183.85 84.35 184.75C86.53 185.16 88.71 185.55 90.92 185.79C92.03 185.95 93.1 186.01 94.18 186.1C94.29 186.11 94.83 186.15 95.8 186.22C96.83 186.25 97.41 186.27 97.52 186.27C106.43 186.59 115.25 185.27 123.57 182.59C140.26 177.23 154.54 165.97 163.7 152.07C168.31 145.12 171.68 137.55 173.77 129.81C174.79 125.94 175.54 122.03 175.96 118.14C176.09 117.17 176.12 116.23 176.21 115.27C176.22 115.18 176.25 114.71 176.32 113.85C176.35 112.94 176.36 112.43 176.36 112.33C176.39 111.35 176.41 110.37 176.43 109.4C176.43 108.39 176.44 107.39 176.44 106.39C176.45 98.4 176.46 90.63 176.48 83.11C176.47 82.19 176.5 81.21 176.46 80.34C176.42 79.46 176.39 78.59 176.35 77.72C176.35 75.97 176.06 74.27 175.85 72.57C175.39 69.19 174.55 65.94 173.51 62.84C171.39 56.66 168.21 51.15 164.29 46.73C160.39 42.29 155.82 38.93 151.12 36.71C149.92 36.21 148.74 35.72 147.58 35.24C146.38 34.89 145.19 34.55 144.03 34.21C142.88 33.96 141.77 33.8 140.68 33.59C140.39 33.54 140.15 33.47 139.84 33.44C139.75 33.44 139 33.39 138.9 33.39C138.28 33.35 137.66 33.32 137.05 33.28C136.99 33.28 136.68 33.26 136.14 33.23L135.68 33.2C135.55 33.19 135.47 33.19 135.46 33.19C135.38 33.18 135.74 33.2 135.54 33.19C135.53 33.19 135.45 33.2 135.44 33.2C134.88 33.23 134.33 33.25 133.79 33.28C132.7 33.35 131.63 33.32 130.6 33.47C128.55 33.81 126.57 34.02 124.77 34.6C123.87 34.86 122.96 35.04 122.13 35.35C121.29 35.67 120.48 35.97 119.7 36.27C119.3 36.42 118.91 36.56 118.53 36.7C118.16 36.87 117.81 37.06 117.45 37.23C116.75 37.58 116.07 37.92 115.41 38.25C112.85 39.68 110.72 41.08 109.22 42.3C107.65 43.39 106.45 44.7 105.63 45.44C104.8 46.21 104.38 46.61 104.38 46.61C103.31 47.62 101.62 47.56 100.61 46.49C99.65 45.47 99.66 43.88 100.58 42.86" id="c4rqskc2bk"></path><path d="M134.28 68.97C134.28 68.97 143.16 64.3 148.84 62.8" id="cX5LTGMdt"></path><path d="M140.85 83.07C140.85 83.07 147.89 80.31 154.21 79.35" id="c3NTbk8xfZ"></path><path d="M28.94 145.98C59.41 129.55 76.34 120.43 79.73 118.6C81.18 117.82 83 118.36 83.79 119.82C84.58 121.28 84.03 123.1 82.57 123.88C82.56 123.89 82.53 123.9 82.52 123.91C77.39 126.55 36.36 147.68 31.23 150.32C30.02 150.94 28.54 150.47 27.92 149.26C27.31 148.07 27.77 146.61 28.94 145.98" id="e2OISV1kxC"></path><path d="M20.24 123.48C20.24 123.48 30.09 118.14 44.87 110.12C48.57 108.14 52.59 105.98 56.83 103.71C58.95 102.57 61.13 101.4 63.36 100.2C64.48 99.61 65.6 99.01 66.74 98.4C67.47 98.03 67.87 97.81 68.61 97.48C69.31 97.16 70 96.89 70.68 96.64C76.2 94.64 82.6 94.41 88.49 96.35C94.38 98.22 99.7 102.3 103.01 107.7C106.35 113.06 107.61 119.67 106.62 125.78C105.67 131.91 102.57 137.52 98.27 141.52C97.2 142.52 96.07 143.45 94.87 144.25C94.27 144.65 93.66 145.03 93.05 145.38C92.98 145.42 92.67 145.59 92.12 145.9C91.61 146.16 91.33 146.31 91.27 146.34C89.03 147.5 86.83 148.64 84.69 149.75C80.41 151.96 76.37 154.05 72.64 155.98C65.18 159.86 58.91 163 54.55 165.23C50.18 167.46 47.68 168.73 47.68 168.73C46.5 169.33 45.06 168.86 44.45 167.68C43.86 166.52 44.31 165.11 45.45 164.49C45.45 164.49 47.91 163.15 52.21 160.8C56.53 158.46 62.66 155.07 70.07 151.11C73.78 149.12 77.79 146.97 82.03 144.69C84.15 143.55 86.33 142.39 88.56 141.19C88.62 141.16 88.9 141.01 89.4 140.75C89.85 140.5 90.09 140.36 90.14 140.33C90.63 140.05 91.11 139.75 91.58 139.42C92.53 138.79 93.42 138.05 94.26 137.26C97.63 134.1 100.04 129.66 100.76 124.87C101.51 120.08 100.5 115.01 97.9 110.84C95.36 106.65 91.27 103.46 86.65 101.97C82.04 100.43 77.01 100.58 72.65 102.14C72.09 102.34 71.56 102.54 71.09 102.76C70.63 102.95 69.88 103.34 69.46 103.55C68.31 104.15 67.18 104.74 66.06 105.32C63.81 106.48 61.62 107.62 59.48 108.73C55.2 110.94 51.16 113.04 47.42 114.97C32.45 122.63 22.47 127.73 22.47 127.73C21.29 128.34 19.85 127.87 19.25 126.69C18.65 125.53 19.1 124.1 20.24 123.48" id="d4vUMfHd2E"></path></defs><g><g><g><use xlink:href="#fW8w8gXuP" opacity="1" fill="#ffffff" fill-opacity="1"></use><g><use xlink:href="#fW8w8gXuP" opacity="1" fill-opacity="0" stroke="#000000" stroke-width="1" stroke-opacity="0"></use></g></g><g><use xlink:href="#c4rqskc2bk" opacity="1" fill="#1d1d1b" fill-opacity="1"></use><g><use xlink:href="#c4rqskc2bk" opacity="1" fill-opacity="0" stroke="#000000" stroke-width="1" stroke-opacity="0"></use></g></g><g><use xlink:href="#cX5LTGMdt" opacity="1" fill="#000000" fill-opacity="0"></use><g><use xlink:href="#cX5LTGMdt" opacity="1" fill-opacity="0" stroke="#1d1d1b" stroke-width="3.5" stroke-opacity="1"></use></g></g><g><use xlink:href="#c3NTbk8xfZ" opacity="1" fill="#000000" fill-opacity="0"></use><g><use xlink:href="#c3NTbk8xfZ" opacity="1" fill-opacity="0" stroke="#1d1d1b" stroke-width="3.5" stroke-opacity="1"></use></g></g><g><use xlink:href="#e2OISV1kxC" opacity="1" fill="#1d1d1b" fill-opacity="1"></use><g><use xlink:href="#e2OISV1kxC" opacity="1" fill-opacity="0" stroke="#000000" stroke-width="1" stroke-opacity="0"></use></g></g><g><use xlink:href="#d4vUMfHd2E" opacity="1" fill="#1d1d1b" fill-opacity="1"></use><g><use xlink:href="#d4vUMfHd2E" opacity="1" fill-opacity="0" stroke="#000000" stroke-width="1" stroke-opacity="0"></use></g></g></g></g></svg>