<?xml version="1.0" encoding="UTF-8" standalone="no"?>
<!DOCTYPE svg PUBLIC "-//W3C//DTD SVG 1.1//EN" "http://www.w3.org/Graphics/SVG/1.1/DTD/svg11.dtd">
<svg version="1.1" xmlns="http://www.w3.org/2000/svg" xmlns:xlink="http://www.w3.org/1999/xlink" preserveAspectRatio="xMidYMid meet" viewBox="0 0 200 200" width="200" height="200"><defs><path d="M19.49 157.25C19.49 134.78 55.31 127.37 99.7 127.37C144.1 127.37 180.26 137.42 180.26 157.76C180.26 171.51 167.85 180 152.31 180C134.89 180 124.18 170.97 124.18 157.22C124.18 169.87 115.47 178.02 100.06 178.02C83.32 178.02 75.95 169.87 75.95 157.22C75.95 170.97 64.23 180 47.48 180C31.94 180 19.49 171 19.49 157.25" id="cjVUtSwAR"></path><path d="M22.82 157.25C22.83 160.14 23.51 162.93 24.86 165.4C26.19 167.88 28.18 170.02 30.57 171.71C32.94 173.41 35.71 174.67 38.64 175.48C40.1 175.89 41.61 176.18 43.13 176.38C44.67 176.57 46.14 176.66 47.76 176.66C50.89 176.68 54.01 176.35 56.98 175.6C59.95 174.85 62.75 173.64 65.2 172C67.65 170.34 69.67 168.18 71.06 165.65C72.46 163.13 73.21 160.23 73.28 157.22C73.28 157.21 73.28 157.14 73.28 157.14C73.32 155.66 74.54 154.5 76.01 154.54C77.47 154.57 78.62 155.77 78.62 157.22C78.62 157.22 78.62 157.22 78.62 157.22C78.76 159.98 79.22 162.67 80.26 164.99C81.25 167.33 82.75 169.3 84.74 170.75C86.73 172.2 89.12 173.24 91.72 173.84C93.03 174.15 94.37 174.37 95.74 174.5C97.17 174.63 98.38 174.69 99.97 174.69C101.28 174.69 102.72 174.64 104.06 174.5C105.42 174.36 106.76 174.13 108.05 173.8C110.63 173.16 113.01 172.07 115.04 170.6C117.07 169.12 118.66 167.15 119.72 164.85C120.84 162.57 121.36 159.94 121.51 157.22C121.87 157.22 123.64 157.22 126.84 157.22C126.84 157.22 126.84 157.22 126.84 157.22C126.92 159.71 127.37 162.14 128.29 164.35C129.21 166.54 130.54 168.53 132.25 170.18C135.67 173.48 140.43 175.41 145.43 176.2C146.68 176.4 147.96 176.53 149.24 176.61C149.88 176.63 150.44 176.67 151.14 176.67C151.21 176.67 151.56 176.68 152.18 176.68C152.74 176.67 153.04 176.66 153.1 176.66C155.65 176.59 158.19 176.29 160.62 175.68C165.49 174.51 169.98 172.09 173 168.56C174.51 166.8 175.61 164.76 176.25 162.55C176.57 161.48 176.78 160.23 176.85 159.2C176.95 157.85 176.94 156.87 176.77 155.74C176.16 151.37 173.03 147.5 168.93 144.58C164.82 141.62 159.92 139.45 154.88 137.72C149.82 135.99 144.55 134.7 139.21 133.7C128.51 131.72 117.55 130.79 106.59 130.48C101.12 130.32 95.58 130.35 90.1 130.52C84.6 130.68 79.11 130.98 73.66 131.46C68.21 131.95 62.78 132.62 57.44 133.59C52.1 134.56 46.84 135.83 41.85 137.62C36.88 139.42 32.11 141.76 28.48 145.04C26.68 146.68 25.21 148.55 24.25 150.61C23.76 151.63 23.4 152.71 23.16 153.82C23.05 154.38 22.96 154.94 22.9 155.51C22.9 155.56 22.88 155.82 22.84 156.29C22.83 156.8 22.83 157.13 22.82 157.25ZM16.16 157.16L16.19 156.12C16.25 155.34 16.28 154.91 16.29 154.83C16.38 154.02 16.51 153.21 16.69 152.41C17.04 150.81 17.59 149.24 18.3 147.77C19.72 144.81 21.8 142.27 24.12 140.2C28.81 136.06 34.27 133.55 39.71 131.62C45.18 129.7 50.76 128.43 56.34 127.45C61.93 126.47 67.53 125.81 73.13 125.34C78.74 124.87 84.34 124.61 89.94 124.48C95.54 124.36 101.11 124.33 106.74 124.44C117.95 124.69 129.19 125.56 140.34 127.56C145.9 128.58 151.46 129.86 156.92 131.67C162.36 133.5 167.77 135.78 172.73 139.27C175.19 141.02 177.54 143.11 179.47 145.7C181.39 148.26 182.86 151.39 183.36 154.72C183.63 156.33 183.64 158.14 183.54 159.55C183.43 161.29 183.16 162.79 182.71 164.39C181.84 167.52 180.26 170.48 178.17 172.94C173.96 177.92 168.08 180.81 162.2 182.21C159.24 182.91 156.23 183.27 153.24 183.3C153.16 183.3 152.77 183.3 152.08 183.31C151.45 183.29 151.1 183.28 151.04 183.28C150.35 183.26 149.52 183.2 148.78 183.15C147.3 183.02 145.81 182.85 144.33 182.58C141.37 182.03 138.43 181.16 135.62 179.85C132.83 178.51 130.18 176.72 127.97 174.43C125.77 172.14 124.01 169.37 122.95 166.39C121.87 163.41 121.46 160.27 121.51 157.22C121.51 157.22 121.51 157.22 121.51 157.22C121.42 155.75 122.53 154.48 124 154.39C125.47 154.3 126.74 155.42 126.83 156.88C126.83 156.89 126.83 156.9 126.83 156.92C126.84 157.1 126.84 157.2 126.84 157.22C126.99 160.52 126.52 163.97 125.22 167.22C123.9 170.46 121.7 173.43 118.94 175.62C116.19 177.85 112.94 179.26 109.7 180.13C108.08 180.57 106.44 180.88 104.8 181.06C103.14 181.25 101.57 181.34 99.86 181.35C98.43 181.34 96.63 181.24 95.06 181.07C93.43 180.89 91.79 180.6 90.16 180.2C86.93 179.38 83.63 178.03 80.84 175.77C78.03 173.55 75.88 170.45 74.69 167.17C73.51 163.88 73.14 160.47 73.28 157.22C73.28 157.22 73.28 157.22 73.28 157.22C76.48 157.22 78.26 157.22 78.62 157.22C78.71 160.96 77.95 164.85 76.22 168.33C74.49 171.81 71.85 174.79 68.77 177.03C65.69 179.29 62.2 180.82 58.64 181.81C55.07 182.8 51.42 183.26 47.8 183.32C46.04 183.34 44.13 183.24 42.31 183.02C40.48 182.8 38.65 182.46 36.86 181.97C33.27 181 29.77 179.46 26.63 177.25C23.51 175.02 20.78 172.07 18.92 168.58C17.05 165.1 16.13 161.12 16.16 157.25C16.16 157.24 16.16 157.21 16.16 157.2C16.16 157.19 16.16 157.17 16.16 157.16" id="c2r2Gd4ccL"></path><path d="M102.5 31.82C110.66 24.58 122.55 20.01 135.79 20.01C160.39 20.01 180.33 37.73 180.33 60.48C180.33 62.78 180.33 81.18 180.33 83.48C180.33 118.53 144.35 146.94 99.95 146.94C55.56 146.94 19.57 118.53 19.57 83.48C19.57 82.91 19.57 78.36 19.57 77.79C19.57 50.56 47.2 28.48 81.7 28.48C116.2 28.48 144.16 50.56 144.16 77.79" id="b6u1HEVWcA"></path><path d="M100.78 29.78C100.78 29.78 101.16 29.43 101.91 28.74C102.64 28.06 104.01 26.95 105.67 25.77C109.08 23.4 114.48 20.29 122.02 18.41C125.78 17.46 130.04 16.79 134.7 16.7C134.76 16.7 135.05 16.69 135.58 16.68L135.87 16.68L136.08 16.68C136.33 16.69 136.47 16.69 136.5 16.69C137.06 16.7 137.63 16.71 138.21 16.73C139.46 16.81 140.76 16.87 142 17.04C144.52 17.33 147.12 17.79 149.75 18.51C154.99 19.95 160.39 22.31 165.41 25.88C170.42 29.43 175.05 34.2 178.41 40.15C181.8 46.05 183.78 53.16 183.8 60.52C183.81 67.27 183.82 74.25 183.84 81.43C183.84 81.52 183.84 81.96 183.84 82.77L183.84 83.45C183.83 83.92 183.82 84.18 183.82 84.24C183.79 85.14 183.76 86.05 183.73 86.96C183.64 87.96 183.55 88.97 183.45 89.97C183.35 90.97 183.16 91.92 183.02 92.9C182.34 96.77 181.22 100.61 179.71 104.33C176.7 111.79 171.98 118.61 166.27 124.53C160.56 130.46 153.71 135.36 146.32 139.32C138.89 143.21 130.88 146.17 122.55 147.98C114.25 149.84 105.62 150.63 97.08 150.39C88.43 150.17 79.86 148.85 71.52 146.48C63.22 144.04 55.16 140.61 47.85 135.92C40.54 131.27 33.9 125.49 28.59 118.62C23.3 111.77 19.38 103.81 17.51 95.41C16.55 91.24 16.15 86.89 16.16 82.75C16.16 82.55 16.16 81.56 16.17 79.78L16.17 78.29L16.18 77.44L16.2 76.7L16.25 75.23C16.34 74.24 16.38 73.69 16.39 73.58C16.48 72.45 16.66 71.42 16.83 70.37C18.25 61.96 22.26 54.35 27.41 48.21C32.6 42.05 38.96 37.3 45.61 33.77C59 26.73 73.56 24.53 86.45 25.32C99.56 26.14 111.19 30 120.37 35.45C124.95 38.18 128.94 41.26 132.26 44.52C135.57 47.79 138.23 51.19 140.27 54.5C144.34 61.16 145.82 67.29 146.4 71.4C146.58 72.43 146.62 73.36 146.7 74.15C146.78 74.94 146.79 75.62 146.8 76.16C146.82 77.24 146.83 77.79 146.83 77.79C146.86 79.26 145.69 80.48 144.22 80.51C142.77 80.54 141.57 79.41 141.5 77.97C141.5 77.95 141.5 77.81 141.5 77.79C141.5 77.79 141.47 77.31 141.43 76.36C141.41 75.89 141.39 75.31 141.3 74.62C141.22 73.93 141.16 73.12 140.98 72.23C140.39 68.66 138.98 63.38 135.27 57.61C133.44 54.72 131.05 51.73 128.06 48.85C125.06 45.97 121.43 43.23 117.24 40.8C108.88 35.96 98.07 32.53 86.15 31.93C80.08 31.61 73.84 31.94 67.49 33.18C61.17 34.42 54.77 36.5 48.76 39.72C42.76 42.91 37.11 47.17 32.59 52.56C28.1 57.94 24.71 64.45 23.53 71.53C23.39 72.42 23.23 73.31 23.18 74.15C23.17 74.24 23.13 74.67 23.05 75.44L23.01 76.92L22.99 77.66L22.98 78.29L22.98 79.78C22.98 81.56 22.99 82.55 22.99 82.75C22.99 86.56 23.34 90.22 24.18 93.91C25.83 101.25 29.28 108.27 34.04 114.41C38.8 120.56 44.84 125.81 51.56 130.07C58.27 134.36 65.73 137.53 73.44 139.79C81.17 141.97 89.23 143.19 97.22 143.38C105.3 143.59 113.29 142.86 121.03 141.12C128.77 139.44 136.19 136.68 143.03 133.11C149.82 129.45 156.07 124.98 161.22 119.62C166.37 114.28 170.55 108.2 173.18 101.66C174.51 98.4 175.47 95.05 176.07 91.67C176.2 90.83 176.37 89.98 176.46 89.16C176.54 88.34 176.63 87.53 176.71 86.72C176.74 85.81 176.77 84.91 176.8 84.01C176.81 83.98 176.81 83.79 176.83 83.45L176.83 82.77C176.83 81.96 176.83 81.52 176.83 81.43C176.84 74.25 176.86 67.27 176.87 60.52C176.87 54.36 175.26 48.48 172.44 43.52C169.65 38.53 165.74 34.46 161.47 31.4C157.18 28.33 152.52 26.26 147.97 25C145.69 24.36 143.43 23.95 141.23 23.69C140.11 23.54 139.08 23.49 138.05 23.41C137.48 23.39 136.91 23.38 136.35 23.37C136.32 23.37 136.18 23.36 135.93 23.36C135.81 23.35 135.74 23.35 135.72 23.35C135.81 23.35 135.63 23.35 135.6 23.36C135.52 23.36 134.9 23.37 134.82 23.37C130.67 23.42 126.88 23.91 123.54 24.69C120.2 25.48 117.29 26.45 114.84 27.5C112.4 28.55 110.43 29.66 108.85 30.59C107.26 31.58 106.25 32.3 105.43 32.92C104.63 33.54 104.22 33.86 104.22 33.86C103.05 34.76 101.37 34.54 100.47 33.38C99.62 32.27 99.77 30.71 100.78 29.78" id="a1ETmo4x0T"></path><path d="M134.45 51.05C134.45 51.05 143.37 47.34 149.08 46.15" id="bFbYKTfU5"></path><path d="M141.06 62.23C141.06 62.23 148.13 60.04 154.48 59.28" id="b47BCL5RvR"></path><path d="M27.41 108.95C61.72 94.32 80.79 86.19 84.6 84.56C86.12 83.91 87.89 84.62 88.53 86.15C89.18 87.67 88.48 89.43 86.95 90.08C86.94 90.09 86.91 90.1 86.9 90.1C81.14 92.44 35.05 111.14 29.29 113.48C28.04 113.99 26.61 113.38 26.09 112.13C25.59 110.89 26.18 109.47 27.41 108.95" id="cTA72nnbg"></path><path d="M19.21 88.9C35.51 81.72 44.56 77.72 46.37 76.92C50.45 75.14 54.88 73.22 59.55 71.18C61.89 70.16 64.3 69.11 66.75 68.04C68.01 67.5 69.28 66.95 70.56 66.4C70.63 66.38 70.95 66.25 71.52 66.02C72.17 65.79 72.53 65.67 72.61 65.64C73.35 65.38 74.05 65.18 74.79 64.97C80.63 63.4 87.03 63.24 93.23 64.71C99.37 66.2 105.52 69.37 109.77 74.74C111.86 77.39 113.43 80.58 114.07 84.01C114.73 87.43 114.43 91.02 113.31 94.23C112.19 97.44 110.34 100.29 108.12 102.62C105.89 104.96 103.31 106.82 100.61 108.25C99.28 108.95 97.8 109.58 96.59 110.07C95.32 110.59 94.07 111.11 92.83 111.61C90.35 112.62 87.92 113.61 85.56 114.57C80.84 116.5 76.37 118.32 72.24 120C55.72 126.65 44.7 131.08 44.7 131.08C43.47 131.58 42.08 130.98 41.58 129.75C41.09 128.54 41.67 127.16 42.86 126.65C42.86 126.65 53.78 121.97 70.15 114.95C74.25 113.21 78.69 111.33 83.39 109.34C85.74 108.35 88.15 107.33 90.62 106.28C93.05 105.21 95.74 104.22 97.87 103.1C102.27 100.76 106.14 96.99 107.71 92.31C108.5 89.99 108.69 87.51 108.22 85.13C107.76 82.74 106.65 80.45 105.06 78.45C101.91 74.42 96.98 71.72 91.83 70.47C86.66 69.2 81.2 69.32 76.3 70.62C75.7 70.78 75.06 70.96 74.5 71.16C74.45 71.18 74.16 71.27 73.64 71.45C73.07 71.68 72.75 71.8 72.69 71.82C71.45 72.34 70.23 72.86 69.03 73.37C66.56 74.4 64.14 75.41 61.79 76.4C57.08 78.37 52.63 80.24 48.53 81.96C32.07 88.77 21.1 93.32 21.1 93.32C19.87 93.82 18.47 93.24 17.96 92.02C17.46 90.81 18.02 89.43 19.21 88.9" id="aktzgmTD1"></path></defs><g><g><g><use xlink:href="#cjVUtSwAR" opacity="1" fill="#ffffff" fill-opacity="1"></use><g><use xlink:href="#cjVUtSwAR" opacity="1" fill-opacity="0" stroke="#000000" stroke-width="1" stroke-opacity="0"></use></g></g><g><use xlink:href="#c2r2Gd4ccL" opacity="1" fill="#1d1d1b" fill-opacity="1"></use><g><use xlink:href="#c2r2Gd4ccL" opacity="1" fill-opacity="0" stroke="#000000" stroke-width="1" stroke-opacity="0"></use></g></g><g><use xlink:href="#b6u1HEVWcA" opacity="1" fill="#ffffff" fill-opacity="1"></use><g><use xlink:href="#b6u1HEVWcA" opacity="1" fill-opacity="0" stroke="#000000" stroke-width="1" stroke-opacity="0"></use></g></g><g><use xlink:href="#a1ETmo4x0T" opacity="1" fill="#1d1d1b" fill-opacity="1"></use><g><use xlink:href="#a1ETmo4x0T" opacity="1" fill-opacity="0" stroke="#000000" stroke-width="1" stroke-opacity="0"></use></g></g><g><use xlink:href="#bFbYKTfU5" opacity="1" fill="#000000" fill-opacity="0"></use><g><use xlink:href="#bFbYKTfU5" opacity="1" fill-opacity="0" stroke="#1d1d1b" stroke-width="3.5" stroke-opacity="1"></use></g></g><g><use xlink:href="#b47BCL5RvR" opacity="1" fill="#000000" fill-opacity="0"></use><g><use xlink:href="#b47BCL5RvR" opacity="1" fill-opacity="0" stroke="#1d1d1b" stroke-width="3.5" stroke-opacity="1"></use></g></g><g><use xlink:href="#cTA72nnbg" opacity="1" fill="#1d1d1b" fill-opacity="1"></use><g><use xlink:href="#cTA72nnbg" opacity="1" fill-opacity="0" stroke="#000000" stroke-width="1" stroke-opacity="0"></use></g></g><g><use xlink:href="#aktzgmTD1" opacity="1" fill="#1d1d1b" fill-opacity="1"></use><g><use xlink:href="#aktzgmTD1" opacity="1" fill-opacity="0" stroke="#000000" stroke-width="1" stroke-opacity="0"></use></g></g></g></g></svg>