<?xml version="1.0" encoding="UTF-8" standalone="no"?>
<!DOCTYPE svg PUBLIC "-//W3C//DTD SVG 1.1//EN" "http://www.w3.org/Graphics/SVG/1.1/DTD/svg11.dtd">
<svg version="1.1" xmlns="http://www.w3.org/2000/svg" xmlns:xlink="http://www.w3.org/1999/xlink" preserveAspectRatio="xMidYMid meet" viewBox="0 0 200 200" width="200" height="200"><defs><path d="M176.99 138.5C176.99 160.49 161.83 178.33 139.83 178.33C117.83 178.33 100 160.49 100 138.5C100 116.5 117.83 96 139.83 96C161.83 96 176.99 116.5 176.99 138.5" id="b4RYmMb6ce"></path><path d="M173.65 137.83C173.64 137.39 173.67 136.73 173.61 135.88C173.55 134.17 173.34 131.66 172.7 128.53C172.07 125.39 170.99 121.62 168.99 117.61C166.99 113.64 164.05 109.4 159.83 105.93C155.66 102.46 150.22 99.73 144.06 98.99C137.91 98.19 131.19 99.29 125.14 102.37C119.06 105.41 113.7 110.38 109.84 116.43C107.91 119.45 106.31 122.72 105.19 126.16C104.07 129.58 103.39 133.25 103.16 136.74C103.16 136.83 103.14 137.32 103.11 138.2C103.1 138.42 103.1 138.55 103.09 138.57C103.1 138.53 103.1 138.75 103.1 138.83C103.1 138.9 103.11 139.44 103.11 139.51C103.1 140.41 103.17 141.31 103.22 142.22C103.38 144.02 103.63 145.81 104.03 147.57C104.86 151.08 106.15 154.5 108 157.59C111.62 163.79 117.17 168.72 123.35 171.55C126.43 173 129.66 173.96 132.86 174.49C134.45 174.76 136.09 174.93 137.58 175C139.29 175.06 140.78 175.04 142.33 174.9C148.48 174.46 154.03 172.38 158.38 169.36C162.76 166.36 165.95 162.54 168.19 158.82C170.44 155.09 171.7 151.43 172.45 148.37C173.21 145.32 173.46 142.76 173.56 141.15C173.63 140.37 173.62 139.6 173.64 139.14C173.65 138.67 173.66 138.42 173.66 138.42C173.66 138.5 173.66 138.27 173.65 137.83ZM180.31 139.29C180.29 139.78 180.31 140.41 180.24 141.46C180.13 143.51 179.88 146.34 179.02 149.95C178.17 153.53 176.73 157.85 174.09 162.33C171.49 166.8 167.57 171.41 162.21 175.01C156.9 178.63 150.09 181.11 142.79 181.54C140.99 181.65 139.07 181.62 137.33 181.5C135.37 181.35 133.54 181.12 131.66 180.71C127.94 179.91 124.25 178.57 120.76 176.73C117.29 174.89 114.01 172.56 111.05 169.82C108.14 167.04 105.49 163.9 103.35 160.38C102.28 158.62 101.34 156.78 100.48 154.89C99.65 152.99 98.97 151.01 98.4 149C97.85 146.98 97.46 144.91 97.19 142.82C97.1 141.78 96.96 140.73 96.94 139.68C96.94 139.62 96.93 139.36 96.92 138.89L96.91 138.41L96.91 138.05C96.93 137.17 96.93 136.68 96.93 136.58C97.03 134.42 97.22 132.3 97.61 130.25C98.01 128.19 98.51 126.15 99.19 124.18C100.52 120.22 102.34 116.44 104.64 113.03C109.19 106.17 115.46 100.59 122.59 97.19C129.7 93.75 137.6 92.6 144.78 93.64C152 94.65 158.39 97.82 163.22 101.83C168.06 105.87 171.57 110.51 174.02 114.94C176.52 119.37 177.97 123.59 178.86 127.12C179.76 130.67 180.04 133.54 180.18 135.49C180.28 136.47 180.27 137.22 180.3 137.73C180.31 138.23 180.32 138.5 180.32 138.5C180.32 138.57 180.32 138.81 180.31 139.29Z" id="bjDCZa43K"></path><path d="M140.16 138.5C140.16 160.49 125 178.33 103 178.33C81 178.33 63.17 160.49 63.17 138.5C63.17 116.5 81 86.66 103 86.66C125 86.66 140.16 116.5 140.16 138.5" id="alqHhbreZ"></path><path d="M137.26 138.5C137.26 138.5 137.26 138.25 137.25 137.78C137.24 137.31 137.26 136.61 137.2 135.7C137.11 133.87 136.89 131.17 136.23 127.78C135.58 124.38 134.51 120.28 132.7 115.8C130.85 111.35 128.42 106.39 124.72 101.82C121.11 97.25 116.18 92.99 110.21 90.98C108.75 90.51 107.12 90.08 105.68 89.95C105.03 89.83 104.03 89.82 103.12 89.78C103.11 89.78 102.97 89.78 102.95 89.78C102.98 89.78 102.76 89.77 103 89.78C102.99 89.78 102.97 89.78 102.92 89.78L102.62 89.8C102.26 89.82 102.06 89.83 102.02 89.83C101.61 89.86 101.21 89.85 100.8 89.92C99.18 90.05 97.56 90.45 95.95 90.93C94.35 91.5 92.76 92.15 91.22 93.01C85.05 96.43 79.72 102.12 75.54 108.62C71.35 115.14 68.26 122.61 66.73 130.31C66.39 132.22 66.09 134.22 65.98 136.06C65.93 136.51 65.93 137.06 65.91 137.56C65.91 137.61 65.9 137.87 65.89 138.33C65.89 138.45 65.88 138.52 65.88 138.53C65.88 138.46 65.89 138.61 65.89 138.64C65.89 138.67 65.9 138.79 65.91 139C65.98 140.73 66.02 141.69 66.03 141.88C66.39 145.7 67.3 149.44 68.74 152.95C70.27 156.43 72.28 159.64 74.66 162.5C77.09 165.31 79.97 167.65 83.01 169.54C83.79 169.98 84.57 170.43 85.34 170.86C86.15 171.23 86.96 171.59 87.76 171.95C88.54 172.35 89.38 172.61 90.2 172.88C91.03 173.13 91.82 173.49 92.67 173.64C93.51 173.84 94.34 174.01 95.16 174.22C95.98 174.44 96.76 174.47 97.55 174.61C99.02 174.91 100.96 174.89 102.7 174.98C102.73 174.98 102.84 174.98 103.04 174.99C103.09 174.99 103.11 174.99 103.12 174.99C103.3 175 102.97 174.99 103.03 174.99C103.04 174.99 103.09 174.99 103.18 174.98L103.79 174.95C104.51 174.91 104.91 174.89 104.99 174.89C105.79 174.83 106.59 174.87 107.36 174.7C108.91 174.46 110.45 174.28 111.9 173.82C114.86 173.12 117.5 171.83 119.97 170.51C124.8 167.64 128.45 163.8 130.97 159.95C133.51 156.07 134.93 152.21 135.83 148.99C136.2 147.35 136.61 145.88 136.72 144.63C136.9 143.38 137.1 142.35 137.11 141.33C137.21 139.4 137.26 138.37 137.26 138.37C137.26 138.4 137.26 138.47 137.26 138.5ZM143.06 138.62C143.06 138.62 143.03 139.65 142.96 141.59C142.97 142.51 142.79 143.84 142.61 145.37C142.48 146.93 142.07 148.58 141.67 150.48C140.71 154.21 139.16 158.71 136.27 163.33C133.4 167.94 129.11 172.62 123.32 176.17C120.39 177.85 117.16 179.37 113.61 180.23C111.86 180.78 110.03 181.02 108.17 181.31C107.25 181.5 106.31 181.47 105.36 181.54C105.26 181.54 104.79 181.57 103.93 181.61L103.22 181.65L103.04 181.66L102.78 181.65L102.7 181.65C102.5 181.63 102.39 181.63 102.37 181.62C100.57 181.49 98.9 181.5 96.79 181.1C95.79 180.92 94.73 180.82 93.78 180.55C92.81 180.3 91.85 180.01 90.88 179.74C87.08 178.45 83.28 176.79 79.89 174.38C73.02 169.73 67.31 162.99 63.85 155.02C62.22 151 61.16 146.73 60.68 142.37C60.67 142.15 60.61 141.05 60.49 139.08C60.48 138.83 60.47 138.69 60.47 138.67C60.47 138.57 60.46 138.59 60.46 138.39C60.46 138.38 60.46 138.32 60.47 138.2C60.47 137.74 60.48 137.48 60.48 137.43C60.49 136.91 60.48 136.42 60.53 135.84C60.64 133.56 60.93 131.47 61.29 129.31C62.84 120.79 66.06 112.69 70.54 105.47C75 98.26 80.87 91.84 88.23 87.64C90.06 86.58 92.02 85.75 94 85.04C96.02 84.41 98.07 83.9 100.16 83.7C100.68 83.61 101.2 83.61 101.73 83.59C101.78 83.58 102.04 83.58 102.51 83.56L102.9 83.55L103 83.54L103.22 83.55C103.32 83.56 103.38 83.56 103.39 83.56C104.32 83.61 105.16 83.61 106.31 83.79C108.49 84.05 110.35 84.57 112.25 85.24C115.95 86.65 119.21 88.68 121.94 91.02C124.68 93.35 126.99 95.9 128.99 98.47C132.93 103.68 135.73 108.92 137.72 113.75C139.69 118.59 140.93 122.99 141.71 126.67C142.5 130.36 142.8 133.33 142.93 135.36C143.02 136.38 143.02 137.17 143.04 137.7C143.05 138.22 143.06 138.5 143.06 138.5C143.06 138.52 143.06 138.6 143.06 138.62Z" id="a1hVlRsE0"></path><path d="M134.56 122.33C169.66 122.33 179.66 106 179.66 70.34C179.66 41.62 155.88 18.34 126.55 18.34C123.86 18.34 102.36 18.34 99.67 18.34C55.49 18.34 19.68 54.16 19.68 98.33C19.68 102.33 19.68 134.33 19.68 138.33C19.68 160.42 37.58 178.33 59.67 178.33C59.67 178.33 59.62 178.33 59.62 178.33C81.7 178.33 99.61 160.42 99.61 138.33C99.61 137.27 99.61 131.96 99.61 122.41C118.25 122.37 129.9 122.34 134.56 122.33Z" id="dJOJYq1a"></path><path d="M134.56 122.33C169.66 122.33 179.66 106 179.66 70.34C179.66 41.62 155.88 18.34 126.55 18.34C123.86 18.34 102.36 18.34 99.67 18.34C55.49 18.34 19.68 54.16 19.68 98.33C19.68 102.33 19.68 134.33 19.68 138.33C19.68 160.42 37.58 178.33 59.67 178.33C59.67 178.33 59.62 178.33 59.62 178.33C81.7 178.33 99.61 160.42 99.61 138.33C99.61 137.27 99.61 131.96 99.61 122.41C118.25 122.37 129.9 122.34 134.56 122.33Z" id="b6C7K36NXN"></path><path d="M50.15 32.75C50.15 32.75 50.51 32.64 51.19 32.43C51.85 32.22 52.94 31.91 54.27 31.56C56.93 30.87 60.77 30.03 65.48 29.56C70.18 29.1 75.73 29.07 81.62 29.89C87.5 30.67 93.68 32.44 99.43 35.17C102.32 36.53 105.09 38.12 107.66 39.92C108.3 40.37 108.95 40.81 109.56 41.29C109.62 41.34 109.93 41.58 110.48 42L110.6 42.09L110.78 42.24L110.99 42.42C111.24 42.64 111.38 42.76 111.4 42.79C112.46 43.67 113.72 44.92 114.74 46.04C116.79 48.3 118.48 50.71 119.87 53.08C121.28 55.44 122.38 57.78 123.28 59.97C125.1 64.35 126.09 68.16 126.69 70.83C126.98 72.17 127.19 73.22 127.3 73.95C127.42 74.68 127.48 75.06 127.48 75.06C127.67 76.15 126.93 77.18 125.84 77.36C124.79 77.54 123.8 76.87 123.56 75.85C123.56 75.85 123.56 75.82 123.56 75.82C123.56 75.82 123.22 74.38 122.52 71.89C121.79 69.42 120.65 65.9 118.84 61.9C117.94 59.9 116.8 57.84 115.52 55.72C114.22 53.61 112.69 51.5 110.87 49.58C109.95 48.62 109.16 47.81 107.95 46.83C106.97 45.99 105.77 45.11 104.62 44.3C102.29 42.67 99.77 41.23 97.15 39.99C91.92 37.49 86.26 35.95 80.86 35.12C75.45 34.3 70.3 34.27 65.92 34.63C61.53 34.95 57.91 35.63 55.4 36.21C54.15 36.5 53.22 36.73 52.51 36.94C51.83 37.13 51.46 37.23 51.46 37.23C50.22 37.58 48.93 36.85 48.59 35.61C48.25 34.39 48.95 33.12 50.15 32.75" id="c4jlPkO52"></path><path d="M102.76 74.06C102.46 78.4 98.69 81.69 94.34 81.39C89.99 81.09 86.71 77.32 87.01 72.98C87.31 68.63 91.07 65.34 95.42 65.64C99.77 65.94 103.05 69.71 102.76 74.06" id="cZhN2U7U4"></path><path d="M122.9 75.26C122.46 74.66 122.02 74.02 121.55 73.45C120.74 72.43 119.88 71.45 119 70.51C118.12 69.56 117.2 68.64 116.24 67.78C115.3 66.89 114.3 66.09 113.3 65.29C112.26 64.55 111.25 63.77 110.15 63.15C109.09 62.45 107.94 61.95 106.83 61.39C105.68 60.96 104.51 60.45 103.41 60.23C102.4 59.87 100.92 59.77 99.62 59.58C99.9 59.61 99.69 59.59 99.75 59.6C99.75 59.6 99.74 59.6 99.73 59.6L99.71 59.6L99.65 59.6L99.53 59.6L99.31 59.6L98.86 59.6C98.31 59.61 98.01 59.61 97.95 59.61C97.35 59.57 96.74 59.69 96.14 59.76C94.93 59.85 93.74 60.21 92.54 60.49C91.36 60.91 90.17 61.26 89.04 61.82C87.87 62.29 86.77 62.93 85.65 63.53C84.57 64.2 83.48 64.86 82.44 65.62C81.39 66.36 80.36 67.14 79.38 67.97C78.38 68.79 77.41 69.66 76.49 70.55C75.57 71.43 74.63 72.4 73.86 73.29C73.88 73.01 74.03 70.79 74.05 70.52C74.69 71.5 75.49 72.59 76.28 73.58C77.08 74.6 77.91 75.58 78.79 76.53C79.65 77.49 80.56 78.41 81.5 79.28C82.42 80.17 83.42 80.98 84.4 81.79C85.43 82.53 86.43 83.32 87.52 83.95C88.57 84.66 89.7 85.17 90.8 85.74C91.95 86.18 93.11 86.71 94.2 86.94C94.76 87.09 95.27 87.28 95.98 87.35C96.17 87.37 97.65 87.59 97.84 87.61C99.05 87.59 100.25 87.71 101.46 87.49C102.68 87.41 103.88 87.07 105.09 86.8C106.27 86.4 107.47 86.06 108.62 85.51C109.79 85.05 110.9 84.41 112.03 83.83C113.13 83.16 114.23 82.51 115.28 81.76C116.35 81.03 117.38 80.25 118.38 79.43C119.39 78.62 120.37 77.76 121.31 76.87C121.86 76.36 122.38 75.8 122.9 75.26M124.1 79.8C123.1 80.77 122.06 81.7 120.98 82.58C119.91 83.48 118.8 84.33 117.65 85.14C116.52 85.96 115.31 86.7 114.11 87.44C112.86 88.11 111.63 88.82 110.3 89.36C109.02 89.99 107.63 90.41 106.27 90.88C104.85 91.22 103.45 91.63 101.97 91.75C100.53 92.01 99.03 91.92 97.54 91.94C97.33 91.91 95.61 91.69 95.4 91.66C94.77 91.61 93.98 91.4 93.24 91.21C91.69 90.88 90.38 90.3 89.01 89.78C87.72 89.14 86.38 88.54 85.19 87.75C83.93 87.04 82.8 86.18 81.65 85.35C80.54 84.46 79.44 83.58 78.41 82.61C77.37 81.66 76.37 80.67 75.42 79.64C74.46 78.62 73.54 77.56 72.66 76.47C71.77 75.36 70.96 74.29 70.11 73.03C69.53 72.15 69.64 71.01 70.3 70.26C71.31 69.13 72.26 68.17 73.3 67.2C74.32 66.24 75.37 65.32 76.46 64.43C77.55 63.54 78.67 62.7 79.83 61.9C80.98 61.08 82.2 60.36 83.41 59.63C84.67 58.97 85.91 58.27 87.25 57.73C88.54 57.12 89.94 56.71 91.31 56.25C92.73 55.92 94.14 55.53 95.62 55.42C96.35 55.33 97.08 55.22 97.83 55.26C97.9 55.26 98.28 55.26 98.94 55.26L99.5 55.27L99.78 55.27L99.92 55.27L99.99 55.27L100.02 55.27L100.04 55.27C100.14 55.28 100.19 55.29 100.2 55.29C101.56 55.51 102.79 55.56 104.35 56.04C105.9 56.39 107.19 56.98 108.56 57.51C109.84 58.16 111.16 58.77 112.35 59.57C113.59 60.29 114.71 61.16 115.85 61.99C116.94 62.89 118.04 63.78 119.05 64.75C120.08 65.71 121.06 66.71 122 67.74C122.94 68.77 123.85 69.83 124.71 70.93C125.58 72.03 126.39 73.11 127.21 74.36C127.7 75.12 127.61 76.09 127.04 76.73C126.08 77.85 125.11 78.83 124.1 79.8Z" id="lfBrjSQsI"></path></defs><g><g><g><use xlink:href="#b4RYmMb6ce" opacity="1" fill="#ffffff" fill-opacity="1"></use><g><use xlink:href="#b4RYmMb6ce" opacity="1" fill-opacity="0" stroke="#000000" stroke-width="1" stroke-opacity="0"></use></g></g><g><use xlink:href="#bjDCZa43K" opacity="1" fill="#1d1d1b" fill-opacity="1"></use><g><use xlink:href="#bjDCZa43K" opacity="1" fill-opacity="0" stroke="#000000" stroke-width="1" stroke-opacity="0"></use></g></g><g><use xlink:href="#alqHhbreZ" opacity="1" fill="#ffffff" fill-opacity="1"></use><g><use xlink:href="#alqHhbreZ" opacity="1" fill-opacity="0" stroke="#000000" stroke-width="1" stroke-opacity="0"></use></g></g><g><use xlink:href="#a1hVlRsE0" opacity="1" fill="#1d1d1b" fill-opacity="1"></use><g><use xlink:href="#a1hVlRsE0" opacity="1" fill-opacity="0" stroke="#000000" stroke-width="1" stroke-opacity="0"></use></g></g><g><use xlink:href="#dJOJYq1a" opacity="1" fill="#ffffff" fill-opacity="1"></use><g><use xlink:href="#dJOJYq1a" opacity="1" fill-opacity="0" stroke="#000000" stroke-width="1" stroke-opacity="0"></use></g></g><g><use xlink:href="#b6C7K36NXN" opacity="1" fill="#000000" fill-opacity="0"></use><g><use xlink:href="#b6C7K36NXN" opacity="1" fill-opacity="0" stroke="#1d1d1b" stroke-width="5" stroke-opacity="1"></use></g></g><g><use xlink:href="#c4jlPkO52" opacity="1" fill="#1d1d1b" fill-opacity="1"></use><g><use xlink:href="#c4jlPkO52" opacity="1" fill-opacity="0" stroke="#000000" stroke-width="1" stroke-opacity="0"></use></g></g><g><use xlink:href="#cZhN2U7U4" opacity="1" fill="#1d1d1b" fill-opacity="1"></use><g><use xlink:href="#cZhN2U7U4" opacity="1" fill-opacity="0" stroke="#000000" stroke-width="1" stroke-opacity="0"></use></g></g><g><use xlink:href="#lfBrjSQsI" opacity="1" fill="#1d1d1b" fill-opacity="1"></use><g><use xlink:href="#lfBrjSQsI" opacity="1" fill-opacity="0" stroke="#000000" stroke-width="1" stroke-opacity="0"></use></g></g></g></g></svg>