<?xml version="1.0" encoding="UTF-8" standalone="no"?>
<!DOCTYPE svg PUBLIC "-//W3C//DTD SVG 1.1//EN" "http://www.w3.org/Graphics/SVG/1.1/DTD/svg11.dtd">
<svg version="1.1" xmlns="http://www.w3.org/2000/svg" xmlns:xlink="http://www.w3.org/1999/xlink" preserveAspectRatio="xMidYMid meet" viewBox="0 0 200 200" width="200" height="200"><defs><path d="M20 164.69C20 142.22 55.65 134.82 99.83 134.82C144 134.82 180 144.87 180 165.21C180 178.96 167.64 187.44 152.18 187.44C134.85 187.44 124.18 178.41 124.18 164.66C124.18 177.32 115.52 185.46 100.18 185.46C83.52 185.46 76.19 177.32 76.19 164.66C76.19 178.41 64.52 187.44 47.86 187.44C32.4 187.44 20 178.44 20 164.69" id="cqduoIdrg"></path><path d="M23.34 164.7C23.34 167.58 24.02 170.37 25.35 172.83C26.68 175.31 28.65 177.45 31.02 179.14C33.38 180.85 36.14 182.11 39.05 182.92C40.51 183.33 42.01 183.63 43.53 183.82C45.06 184.02 46.52 184.1 48.13 184.11C51.26 184.13 54.36 183.79 57.32 183.04C60.28 182.29 63.07 181.08 65.5 179.43C67.93 177.77 69.94 175.61 71.31 173.08C72.71 170.56 73.45 167.66 73.52 164.66C73.52 164.65 73.52 164.59 73.52 164.58C73.56 163.11 74.78 161.94 76.25 161.98C77.71 162.02 78.86 163.21 78.85 164.66C78.85 164.66 78.85 164.66 78.85 164.66C79.01 167.42 79.45 170.1 80.48 172.42C81.46 174.76 82.96 176.74 84.94 178.19C86.91 179.64 89.28 180.68 91.88 181.29C93.17 181.59 94.51 181.82 95.88 181.95C97.3 182.07 98.51 182.13 100.09 182.13C101.39 182.14 102.83 182.08 104.17 181.94C105.53 181.81 106.85 181.57 108.14 181.24C110.71 180.6 113.08 179.5 115.1 178.03C117.11 176.55 118.68 174.58 119.74 172.29C120.85 170 121.36 167.38 121.51 164.66C121.87 164.66 123.65 164.66 126.85 164.66C126.85 164.66 126.85 164.66 126.85 164.66C126.93 167.15 127.37 169.57 128.28 171.77C129.2 173.97 130.51 175.95 132.2 177.6C135.6 180.91 140.32 182.84 145.3 183.64C146.55 183.84 147.82 183.97 149.09 184.05C149.74 184.08 150.29 184.11 150.99 184.12C151.06 184.12 151.4 184.12 152.02 184.13C152.57 184.11 152.88 184.11 152.94 184.1C155.48 184.04 158 183.73 160.43 183.13C165.27 181.97 169.73 179.55 172.74 176.03C174.24 174.27 175.34 172.23 175.98 170.03C176.3 168.96 176.51 167.73 176.58 166.69C176.68 165.37 176.67 164.35 176.51 163.24C175.94 158.88 172.84 155.01 168.77 152.07C164.71 149.1 159.83 146.93 154.82 145.19C149.78 143.46 144.53 142.17 139.21 141.16C128.56 139.17 117.64 138.24 106.72 137.93C101.27 137.77 95.75 137.8 90.29 137.97C84.81 138.13 79.34 138.42 73.91 138.91C68.48 139.39 63.07 140.07 57.75 141.04C52.43 142.01 47.19 143.28 42.22 145.08C37.28 146.88 32.54 149.23 28.94 152.51C27.15 154.15 25.7 156.01 24.74 158.07C24.26 159.09 23.91 160.17 23.67 161.27C23.56 161.83 23.48 162.39 23.41 162.96C23.41 163.01 23.39 163.27 23.36 163.74C23.34 164.25 23.34 164.57 23.34 164.7ZM16.67 164.61L16.7 163.57C16.76 162.8 16.79 162.37 16.8 162.28C16.89 161.48 17.02 160.67 17.19 159.88C17.54 158.28 18.08 156.72 18.79 155.25C20.19 152.29 22.25 149.75 24.56 147.69C29.21 143.54 34.65 141.02 40.08 139.08C45.53 137.16 51.09 135.89 56.65 134.89C62.21 133.91 67.8 133.26 73.38 132.79C78.96 132.32 84.55 132.05 90.13 131.92C95.71 131.81 101.25 131.77 106.87 131.88C118.04 132.14 129.24 133.01 140.35 135.02C145.9 136.05 151.43 137.33 156.87 139.15C162.29 140.99 167.68 143.28 172.6 146.79C175.05 148.55 177.38 150.64 179.29 153.23C181.19 155.81 182.62 158.94 183.11 162.25C183.37 163.87 183.37 165.63 183.27 167.06C183.15 168.79 182.89 170.29 182.44 171.88C181.56 174.99 180 177.94 177.92 180.4C173.73 185.37 167.87 188.26 162.01 189.66C159.06 190.36 156.05 190.72 153.07 190.75C152.68 190.75 152.36 190.76 151.91 190.75C151.81 190.75 150.98 190.72 150.88 190.72C150.19 190.7 149.37 190.65 148.63 190.6C147.15 190.47 145.67 190.28 144.19 190.01C141.24 189.47 138.3 188.59 135.51 187.27C132.73 185.93 130.1 184.13 127.91 181.83C125.72 179.54 123.99 176.78 122.94 173.8C121.86 170.83 121.47 167.7 121.51 164.66C121.51 164.66 121.51 164.66 121.51 164.66C121.42 163.19 122.54 161.93 124.01 161.84C125.48 161.75 126.74 162.86 126.83 164.33C126.83 164.33 126.83 164.34 126.83 164.36C126.84 164.54 126.85 164.64 126.85 164.66C127 167.95 126.53 171.39 125.25 174.64C123.94 177.88 121.76 180.84 119.01 183.04C116.28 185.28 113.04 186.69 109.81 187.57C108.18 188.01 106.54 188.32 104.91 188.51C103.26 188.7 101.69 188.79 99.99 188.79C98.56 188.78 96.76 188.69 95.19 188.51C93.56 188.34 91.93 188.05 90.31 187.64C87.07 186.81 83.78 185.46 81.01 183.18C78.22 180.96 76.09 177.86 74.91 174.59C73.74 171.3 73.38 167.91 73.52 164.66C73.52 164.66 73.52 164.66 73.52 164.66C76.72 164.66 78.5 164.66 78.85 164.66C78.95 168.4 78.2 172.27 76.49 175.74C74.78 179.22 72.15 182.21 69.09 184.45C66.02 186.72 62.54 188.26 58.99 189.25C55.43 190.24 51.79 190.71 48.18 190.77C46.42 190.79 44.51 190.69 42.69 190.47C40.87 190.24 39.05 189.9 37.26 189.41C33.68 188.43 30.18 186.89 27.06 184.67C23.96 182.43 21.25 179.48 19.41 176C17.55 172.52 16.64 168.55 16.67 164.69C16.67 164.69 16.67 164.65 16.67 164.65C16.67 164.64 16.67 164.62 16.67 164.61" id="af9lo3v7y"></path><path d="M177.32 122.79C177.32 140.24 162.16 154.39 140.16 154.39C118.16 154.39 100.33 140.24 100.33 122.79C100.33 105.34 118.16 89.07 140.16 89.07C162.16 89.07 177.32 105.34 177.32 122.79" id="a1hNXKZQ2W"></path><path d="M173.98 122.22C173.98 121.84 173.99 121.28 173.93 120.55C173.84 119.09 173.56 116.95 172.81 114.29C172.04 111.65 170.72 108.49 168.44 105.29C166.17 102.12 162.94 98.91 158.7 96.5C154.48 94.07 149.33 92.34 143.72 91.93C138.08 91.5 132.04 92.21 126.3 94.37C120.56 96.49 115.11 100.03 110.93 104.79C108.85 107.16 107.06 109.8 105.78 112.65C104.5 115.48 103.68 118.61 103.48 121.56C103.31 124.75 103.65 127.77 104.68 130.74C105.7 133.67 107.27 136.46 109.34 138.85C111.39 141.26 113.81 143.36 116.49 145.01C117.82 145.85 119.21 146.59 120.61 147.27C122.04 147.89 123.48 148.47 124.95 148.92C127.87 149.88 130.85 150.46 133.79 150.77C135.26 150.95 136.73 151.04 138.1 151.08C138.84 151.09 139.58 151.09 140.31 151.09C141.02 151.05 141.73 151.05 142.43 150.99C148.03 150.68 153.21 149.38 157.5 147.28C161.8 145.2 165.21 142.42 167.69 139.55C170.17 136.67 171.66 133.68 172.56 131.14C173.43 128.6 173.74 126.42 173.87 125.06C173.94 124.43 173.96 123.77 173.97 123.34C173.98 122.92 173.99 122.7 173.99 122.7C173.99 122.79 173.99 122.59 173.98 122.22ZM180.64 123.52C180.63 123.94 180.63 124.54 180.54 125.54C180.39 127.44 180.03 130.07 178.95 133.34C177.84 136.56 175.98 140.37 172.92 143.99C169.89 147.64 165.62 151.01 160.43 153.44C155.26 155.91 149.17 157.36 142.76 157.65C141.95 157.69 141.15 157.67 140.33 157.68C139.54 157.65 138.75 157.62 137.95 157.6C136.24 157.48 134.58 157.34 132.93 157.06C129.61 156.51 126.27 155.66 123.01 154.4C119.75 153.15 116.57 151.54 113.55 149.57C110.56 147.55 107.7 145.21 105.24 142.4C104.02 140.98 102.88 139.48 101.85 137.88C100.84 136.27 99.97 134.56 99.25 132.76C98.52 130.97 98 129.08 97.66 127.15C97.47 126.19 97.38 125.22 97.3 124.24C97.29 124.14 97.27 123.61 97.24 122.67C97.25 121.89 97.26 121.45 97.27 121.36C97.31 120.46 97.39 119.29 97.54 118.38C97.66 117.41 97.88 116.45 98.08 115.5C98.56 113.61 99.23 111.79 100.02 110.04C101.63 106.55 103.77 103.36 106.31 100.63C111.37 95.11 117.74 91.21 124.35 88.93C130.96 86.61 137.83 85.97 144.17 86.55C150.56 87.16 156.45 89.1 161.34 91.88C166.22 94.7 170.13 98.23 172.99 101.86C175.89 105.47 177.7 109.18 178.82 112.35C179.92 115.54 180.3 118.2 180.49 120C180.59 120.91 180.61 121.6 180.63 122.07C180.65 122.54 180.65 122.79 180.65 122.79C180.65 122.88 180.65 123.1 180.64 123.52Z" id="e3BeMFymo2"></path><path d="M140.49 122.79C140.49 140.24 125.33 154.39 103.33 154.39C81.34 154.39 63.5 140.24 63.5 122.79C63.5 105.34 81.34 81.66 103.33 81.66C125.33 81.66 140.49 105.34 140.49 122.79" id="c4qAow6FjK"></path><path d="M137.59 122.79C137.59 122.79 137.56 121.96 137.49 120.39C137.39 118.83 137.08 116.52 136.34 113.62C135.52 110.74 134.32 107.26 132.25 103.58C130.16 99.94 127.39 95.98 123.5 92.62C122.57 91.73 121.47 91.03 120.44 90.2C119.35 89.45 118.17 88.82 117.01 88.11C116.39 87.84 115.77 87.56 115.14 87.28C114.51 87.01 113.9 86.66 113.23 86.49C111.91 86.12 110.55 85.55 109.25 85.42C108.6 85.3 107.94 85.16 107.28 85.02C106.54 84.94 105.7 84.92 104.91 84.87C104.83 84.86 104.42 84.84 103.7 84.8L103.39 84.78L103.24 84.77C103.2 84.77 103.17 84.77 103.17 84.77C102.95 84.76 103.37 84.77 103.3 84.77C103.25 84.78 102.81 84.81 102.75 84.82C102.02 84.88 101.29 84.94 100.55 84.98C99.8 84.98 99.07 85.14 98.33 85.29C97.59 85.43 96.85 85.57 96.1 85.71C95.37 85.95 94.64 86.18 93.9 86.42C93.16 86.65 92.42 86.88 91.72 87.24C91 87.56 90.28 87.89 89.56 88.21C88.84 88.55 88.17 89 87.47 89.39C86.04 90.14 84.76 91.16 83.42 92.11C80.84 94.15 78.36 96.43 76.22 99.06C71.84 104.21 68.48 110.52 66.94 117.05C66.9 117.28 66.54 119.16 66.5 119.39C66.38 120.23 66.35 121.19 66.28 122.09C66.28 122.13 66.26 122.36 66.23 122.77C66.23 122.87 66.22 122.93 66.22 122.94C66.23 122.64 66.23 122.9 66.23 122.86C66.23 122.86 66.23 122.89 66.23 122.93L66.25 123.24L66.32 124.46L66.39 125.68C66.52 126.4 66.6 126.8 66.61 126.88C67.17 130.08 68.36 133.2 70.23 135.91C72.06 138.63 74.35 141.03 76.9 143.09C79.54 145.03 82.38 146.65 85.35 147.86C86.1 148.15 86.86 148.39 87.61 148.65C87.68 148.68 88.06 148.81 88.73 149.04C89.42 149.22 89.8 149.32 89.88 149.34C90.64 149.53 91.39 149.73 92.15 149.93C92.92 150.06 93.68 150.19 94.44 150.33C95.97 150.64 97.41 150.7 98.86 150.89C99.54 151 100.43 150.96 101.2 151C101.95 151.02 102.69 151.04 103.43 151.05C109.31 151.03 114.77 149.87 119.4 147.96C120.6 147.55 121.63 146.89 122.72 146.38C123.78 145.82 124.72 145.14 125.7 144.56C126.58 143.86 127.48 143.22 128.29 142.52C129.04 141.77 129.86 141.11 130.51 140.35C133.22 137.4 134.97 134.32 135.93 131.62C136.23 130.97 136.34 130.29 136.55 129.69C136.72 129.08 136.93 128.49 136.99 127.98C137.08 127.47 137.17 126.99 137.25 126.55C137.29 126.33 137.33 126.12 137.37 125.92C137.4 125.7 137.41 125.46 137.42 125.25C137.54 123.54 137.6 122.63 137.6 122.63C137.6 122.66 137.59 122.76 137.59 122.79ZM143.39 122.95C143.39 122.95 143.35 123.86 143.28 125.57C143.26 125.79 143.27 126 143.24 126.26C143.2 126.53 143.16 126.82 143.12 127.12C143.02 127.72 142.92 128.37 142.82 129.08C142.73 129.81 142.51 130.5 142.31 131.26C142.09 132.01 141.94 132.84 141.6 133.66C140.48 137.01 138.41 140.87 135.18 144.56C134.4 145.51 133.44 146.34 132.53 147.26C131.57 148.14 130.5 148.94 129.44 149.8C128.29 150.53 127.15 151.36 125.9 152.06C124.63 152.69 123.38 153.49 121.99 154C116.53 156.38 110.14 157.67 103.45 157.71C103.43 157.71 103.33 157.71 103.16 157.71L103.01 157.7L102.72 157.69L102.12 157.65C101.41 157.62 101.01 157.6 100.94 157.59C100.12 157.53 99.4 157.56 98.48 157.42C96.74 157.17 94.91 157.03 93.23 156.56C92.37 156.36 91.51 156.16 90.65 155.95C89.8 155.68 88.95 155.41 88.09 155.14C88.01 155.11 87.58 154.97 86.81 154.72C86.06 154.41 85.64 154.24 85.56 154.2C84.72 153.85 83.88 153.52 83.05 153.14C79.76 151.53 76.54 149.65 73.59 147.28C70.65 144.89 67.97 142.08 65.8 138.82C63.6 135.58 62.09 131.79 61.33 127.85C61.31 127.75 61.21 127.25 61.04 126.37L60.92 124.86L60.82 123.35L60.79 122.97C60.79 122.91 60.79 122.88 60.79 122.87C60.79 122.77 60.78 122.97 60.79 122.62C60.79 122.61 60.79 122.55 60.8 122.45C60.82 122.04 60.83 121.81 60.83 121.76C60.9 120.84 60.9 119.97 61.01 119C61.06 118.69 61.47 116.24 61.52 115.94C63.2 108.19 66.85 101.21 71.65 95.3C76.39 89.34 82.5 84.56 89.31 81.58C90.13 81.15 91.01 80.86 91.9 80.58C92.78 80.29 93.65 80 94.52 79.71C95.43 79.53 96.33 79.34 97.22 79.16C98.12 78.98 99.01 78.78 99.92 78.76C100.83 78.7 101.73 78.65 102.62 78.59C102.69 78.59 103.23 78.56 103.29 78.55C103.28 78.55 103.74 78.57 103.58 78.56C103.59 78.56 103.61 78.57 103.66 78.57L103.81 78.58L104.11 78.6C104.84 78.66 105.24 78.69 105.32 78.69C106.13 78.76 106.91 78.8 107.74 78.89C108.64 79.07 109.53 79.24 110.42 79.44C112.25 79.75 113.75 80.45 115.34 80.99C116.14 81.24 116.85 81.67 117.59 82.02C118.32 82.39 119.04 82.76 119.75 83.12C121.09 83.99 122.44 84.81 123.66 85.72C124.83 86.7 126.08 87.55 127.12 88.58C131.4 92.56 134.63 96.83 136.96 100.91C139.28 105.01 140.73 108.87 141.73 112.12C142.64 115.4 143.06 118.08 143.22 119.93C143.33 121.79 143.39 122.79 143.39 122.79C143.39 122.82 143.39 122.91 143.39 122.95Z" id="a6mLFRbHv"></path><path d="M134.89 109.96C169.99 109.96 179.99 97.01 179.99 68.71C179.99 45.93 156.21 27.46 126.88 27.46C124.2 27.46 102.69 27.46 100 27.46C55.82 27.46 20.01 55.87 20.01 90.92C20.01 94.1 20.01 119.48 20.01 122.66C20.01 140.18 37.91 154.39 60 154.39C60 154.39 59.95 154.39 59.95 154.39C82.04 154.39 99.94 140.18 99.94 122.66C99.94 121.81 99.94 117.6 99.94 110.03C118.58 109.99 130.23 109.97 134.89 109.96Z" id="d1dRUuNNE3"></path><path d="M134.89 109.96C169.99 109.96 179.99 97.01 179.99 68.71C179.99 45.93 156.21 27.46 126.88 27.46C124.2 27.46 102.69 27.46 100 27.46C55.82 27.46 20.01 55.87 20.01 90.92C20.01 94.1 20.01 119.48 20.01 122.66C20.01 140.18 37.91 154.39 60 154.39C60 154.39 59.95 154.39 59.95 154.39C82.04 154.39 99.94 140.18 99.94 122.66C99.94 121.81 99.94 117.6 99.94 110.03C118.58 109.99 130.23 109.97 134.89 109.96Z" id="daGV8t57oM"></path><path d="M54.67 38.01C57.18 37.41 60.79 36.6 65.2 35.93C69.61 35.29 74.82 34.82 80.45 34.9C86.07 34.95 92.12 35.75 97.98 37.45C100.91 38.29 103.78 39.4 106.5 40.73C107.87 41.39 109.18 42.13 110.46 42.89C110.47 42.9 110.55 42.95 110.7 43.03L110.98 43.22L111.42 43.52C111.94 43.86 112.23 44.06 112.29 44.1C112.86 44.48 113.5 44.99 114.09 45.43C118.73 49.07 122.15 53.45 124.28 57.63C125.34 59.73 126.18 61.72 126.7 63.57C127 64.48 127.14 65.38 127.34 66.18C127.49 66.99 127.59 67.75 127.7 68.43C127.83 69.81 127.9 70.88 127.86 71.63C127.86 72.36 127.85 72.76 127.85 72.76C127.84 73.86 126.94 74.74 125.83 74.73C124.81 74.72 123.97 73.94 123.87 72.94C123.87 72.92 123.85 72.78 123.85 72.76C123.85 72.76 123.82 72.42 123.76 71.8C123.72 71.17 123.57 70.26 123.38 69.1C123.24 68.53 123.1 67.89 122.92 67.21C122.69 66.54 122.53 65.79 122.21 65.03C121.7 63.47 120.88 61.79 119.9 60.03C118.91 58.26 117.6 56.47 116.1 54.7C114.59 52.94 112.8 51.2 110.83 49.65C110.32 49.28 109.9 48.91 109.32 48.53C109.26 48.49 108.97 48.29 108.45 47.94C108.19 47.77 108.04 47.67 108.01 47.65C107.97 47.62 107.8 47.51 107.86 47.55C107.84 47.54 107.67 47.43 107.65 47.42C106.52 46.72 105.37 46.04 104.15 45.43C101.74 44.21 99.17 43.16 96.51 42.34C91.19 40.68 85.58 39.93 80.29 39.64C74.99 39.36 69.99 39.65 65.72 40.09C61.44 40.5 57.9 41.09 55.42 41.54C52.97 41.98 51.52 42.29 51.52 42.29C50.62 42.48 49.73 41.91 49.54 41.01C49.36 40.15 49.87 39.3 50.7 39.06C50.75 39.05 52.13 38.64 54.67 38.01Z" id="e2FDbP8pYc"></path><path d="M103.08 71.65C102.73 75.9 98.91 79.17 94.56 78.95C90.21 78.73 86.98 75.1 87.33 70.84C87.68 66.58 91.49 63.31 95.84 63.54C100.19 63.76 103.43 67.39 103.08 71.65" id="a2VsPpvyj"></path><path d="M123.21 72.45C122.77 71.87 122.34 71.26 121.88 70.71C121.06 69.71 120.2 68.75 119.31 67.83C118.42 66.91 117.51 66 116.53 65.18C115.59 64.31 114.57 63.55 113.57 62.78C112.53 62.06 111.49 61.34 110.39 60.74C109.86 60.41 109.3 60.13 108.74 59.88C108.17 59.63 107.63 59.31 107.04 59.12C106.87 59.06 105.49 58.56 105.31 58.5C104.74 58.33 104.2 58.23 103.64 58.08C103.35 58.02 103.11 57.93 102.79 57.88C102.72 57.87 102.39 57.84 101.79 57.77L100.79 57.66L100.3 57.6L100.23 57.6C100.21 57.6 100.2 57.59 100.2 57.59C100.07 57.58 100.36 57.61 100.33 57.6C100.33 57.6 100.32 57.6 100.31 57.6L100.2 57.61L99.97 57.61C98.89 57.63 98.29 57.65 98.17 57.65C97.57 57.65 96.97 57.8 96.37 57.87C96.31 57.88 96.01 57.92 95.47 57.99C94.93 58.13 94.63 58.2 94.57 58.22C93.98 58.38 93.38 58.49 92.79 58.69C91.62 59.1 90.44 59.5 89.31 60.05C88.16 60.53 87.06 61.19 85.95 61.79C84.87 62.45 83.79 63.12 82.75 63.87C81.71 64.6 80.68 65.37 79.69 66.2C78.7 67.01 77.73 67.86 76.8 68.74C75.88 69.61 74.94 70.56 74.16 71.44C74.18 71.16 74.34 68.92 74.36 68.63C75 69.6 75.8 70.67 76.6 71.65C77.4 72.64 78.24 73.61 79.12 74.54C80 75.46 80.9 76.38 81.86 77.21C82.79 78.08 83.79 78.85 84.78 79.63C85.81 80.36 86.84 81.08 87.92 81.69C88.45 82.03 89 82.31 89.56 82.57C90.12 82.82 90.66 83.15 91.24 83.34C91.41 83.4 92.78 83.91 92.96 83.98C93.52 84.16 94.07 84.26 94.62 84.42C94.9 84.48 95.15 84.58 95.47 84.63C95.53 84.63 95.87 84.67 96.46 84.75L97.46 84.87L97.96 84.93L98.02 84.94C98.04 84.94 98.05 84.94 98.05 84.94C98.18 84.95 97.89 84.93 97.93 84.93C97.93 84.93 97.93 84.93 97.94 84.93L98.05 84.93L98.28 84.93C99.36 84.92 99.96 84.91 100.08 84.91C100.68 84.91 101.29 84.77 101.89 84.71C101.95 84.7 102.25 84.67 102.8 84.6C103.33 84.47 103.63 84.4 103.69 84.38C104.29 84.23 104.9 84.12 105.49 83.93C106.66 83.53 107.85 83.15 108.99 82.6C110.16 82.13 111.26 81.49 112.38 80.89C113.48 80.25 114.57 79.58 115.62 78.84C116.68 78.11 117.72 77.35 118.72 76.53C119.72 75.73 120.7 74.89 121.65 74.01C122.19 73.51 122.69 72.97 123.21 72.45M124.41 76.96C123.4 77.91 122.37 78.83 121.29 79.7C120.23 80.59 119.12 81.42 117.98 82.23C116.85 83.04 115.67 83.78 114.47 84.5C113.24 85.17 112.03 85.89 110.72 86.44C109.45 87.06 108.09 87.52 106.74 87.99C106.06 88.21 105.35 88.36 104.65 88.54C104.58 88.56 104.23 88.65 103.6 88.8C102.95 88.89 102.59 88.95 102.52 88.96C101.79 89.04 101.08 89.2 100.35 89.22C100.2 89.22 99.46 89.23 98.14 89.26L97.86 89.26L97.72 89.26L97.46 89.24L96.96 89.18L95.96 89.07C95.36 89.01 95.03 88.97 94.96 88.96C94.62 88.91 94.23 88.8 93.86 88.72C93.12 88.54 92.35 88.39 91.64 88.17C91.43 88.1 89.79 87.51 89.59 87.43C88.89 87.21 88.27 86.84 87.61 86.55C86.95 86.25 86.31 85.93 85.71 85.56C84.45 84.87 83.28 84.07 82.12 83.25C81 82.4 79.87 81.54 78.83 80.6C77.77 79.69 76.78 78.7 75.8 77.7C74.83 76.69 73.9 75.65 73.02 74.57C72.11 73.49 71.29 72.43 70.44 71.17C69.84 70.29 69.95 69.13 70.64 68.37C71.65 67.26 72.61 66.32 73.64 65.37C74.66 64.42 75.71 63.51 76.8 62.64C77.88 61.76 79 60.94 80.15 60.14C81.29 59.34 82.49 58.61 83.7 57.89C84.94 57.23 86.16 56.52 87.48 55.99C88.77 55.38 90.13 54.93 91.49 54.47C92.17 54.25 92.89 54.11 93.59 53.93C93.66 53.92 94.01 53.83 94.64 53.69C95.29 53.6 95.66 53.55 95.73 53.54C96.45 53.46 97.17 53.31 97.91 53.3C98.05 53.3 98.79 53.29 100.11 53.28L100.39 53.28L100.53 53.28L100.7 53.29L100.73 53.3L100.79 53.3L101.29 53.37L102.29 53.49C102.89 53.56 103.22 53.6 103.28 53.61C103.63 53.66 104.02 53.77 104.39 53.86C105.12 54.04 105.89 54.2 106.6 54.43C106.8 54.5 108.43 55.11 108.63 55.18C109.32 55.42 109.94 55.78 110.59 56.08C111.25 56.38 111.88 56.71 112.48 57.09C113.73 57.79 114.89 58.6 116.04 59.42C117.14 60.28 118.26 61.14 119.28 62.1C120.33 63.02 121.31 64.01 122.27 65.02C123.22 66.02 124.14 67.07 125.01 68.15C125.9 69.24 126.7 70.31 127.53 71.55C128.04 72.31 127.94 73.29 127.36 73.95C126.39 75.04 125.42 76.01 124.41 76.96Z" id="a1Tdz3c7Vm"></path></defs><g><g><g><use xlink:href="#cqduoIdrg" opacity="1" fill="#ffffff" fill-opacity="1"></use><g><use xlink:href="#cqduoIdrg" opacity="1" fill-opacity="0" stroke="#000000" stroke-width="1" stroke-opacity="0"></use></g></g><g><use xlink:href="#af9lo3v7y" opacity="1" fill="#1d1d1b" fill-opacity="1"></use><g><use xlink:href="#af9lo3v7y" opacity="1" fill-opacity="0" stroke="#000000" stroke-width="1" stroke-opacity="0"></use></g></g><g><use xlink:href="#a1hNXKZQ2W" opacity="1" fill="#ffffff" fill-opacity="1"></use><g><use xlink:href="#a1hNXKZQ2W" opacity="1" fill-opacity="0" stroke="#000000" stroke-width="1" stroke-opacity="0"></use></g></g><g><use xlink:href="#e3BeMFymo2" opacity="1" fill="#1d1d1b" fill-opacity="1"></use><g><use xlink:href="#e3BeMFymo2" opacity="1" fill-opacity="0" stroke="#000000" stroke-width="1" stroke-opacity="0"></use></g></g><g><use xlink:href="#c4qAow6FjK" opacity="1" fill="#ffffff" fill-opacity="1"></use><g><use xlink:href="#c4qAow6FjK" opacity="1" fill-opacity="0" stroke="#000000" stroke-width="1" stroke-opacity="0"></use></g></g><g><use xlink:href="#a6mLFRbHv" opacity="1" fill="#1d1d1b" fill-opacity="1"></use><g><use xlink:href="#a6mLFRbHv" opacity="1" fill-opacity="0" stroke="#000000" stroke-width="1" stroke-opacity="0"></use></g></g><g><use xlink:href="#d1dRUuNNE3" opacity="1" fill="#ffffff" fill-opacity="1"></use><g><use xlink:href="#d1dRUuNNE3" opacity="1" fill-opacity="0" stroke="#000000" stroke-width="1" stroke-opacity="0"></use></g></g><g><use xlink:href="#daGV8t57oM" opacity="1" fill="#000000" fill-opacity="0"></use><g><use xlink:href="#daGV8t57oM" opacity="1" fill-opacity="0" stroke="#1d1d1b" stroke-width="5" stroke-opacity="1"></use></g></g><g><use xlink:href="#e2FDbP8pYc" opacity="1" fill="#1d1d1b" fill-opacity="1"></use><g><use xlink:href="#e2FDbP8pYc" opacity="1" fill-opacity="0" stroke="#000000" stroke-width="1" stroke-opacity="0"></use></g></g><g><use xlink:href="#a2VsPpvyj" opacity="1" fill="#1d1d1b" fill-opacity="1"></use><g><use xlink:href="#a2VsPpvyj" opacity="1" fill-opacity="0" stroke="#000000" stroke-width="1" stroke-opacity="0"></use></g></g><g><use xlink:href="#a1Tdz3c7Vm" opacity="1" fill="#1d1d1b" fill-opacity="1"></use><g><use xlink:href="#a1Tdz3c7Vm" opacity="1" fill-opacity="0" stroke="#000000" stroke-width="1" stroke-opacity="0"></use></g></g></g></g></svg>