<?xml version="1.0" encoding="UTF-8" standalone="no"?>
<!DOCTYPE svg PUBLIC "-//W3C//DTD SVG 1.1//EN" "http://www.w3.org/Graphics/SVG/1.1/DTD/svg11.dtd">
<svg version="1.1" xmlns="http://www.w3.org/2000/svg" xmlns:xlink="http://www.w3.org/1999/xlink" preserveAspectRatio="xMidYMid meet" viewBox="0 0 200 200" width="200" height="200"><defs><path d="M176.99 138.5C176.99 160.49 161.83 178.33 139.83 178.33C117.83 178.33 100 160.49 100 138.5C100 116.5 117.83 96 139.83 96C161.83 96 176.99 116.5 176.99 138.5" id="baZoW73F0"></path><path d="M173.65 137.83C173.64 137.39 173.67 136.73 173.61 135.88C173.55 134.17 173.34 131.66 172.7 128.53C172.07 125.39 170.99 121.62 168.99 117.61C166.99 113.64 164.05 109.4 159.83 105.93C155.66 102.46 150.22 99.73 144.06 98.99C137.91 98.19 131.19 99.29 125.14 102.37C119.06 105.41 113.7 110.38 109.84 116.43C107.91 119.45 106.31 122.72 105.19 126.16C104.07 129.58 103.39 133.25 103.16 136.74C103.16 136.83 103.14 137.32 103.11 138.2C103.1 138.42 103.1 138.55 103.09 138.57C103.1 138.53 103.1 138.75 103.1 138.83C103.1 138.9 103.11 139.44 103.11 139.51C103.1 140.41 103.17 141.31 103.22 142.22C103.38 144.02 103.63 145.81 104.03 147.57C104.86 151.08 106.15 154.5 108 157.59C111.62 163.79 117.17 168.72 123.35 171.55C126.43 173 129.66 173.96 132.86 174.49C134.45 174.76 136.09 174.93 137.58 175C139.29 175.06 140.78 175.04 142.33 174.9C148.48 174.46 154.03 172.38 158.38 169.36C162.76 166.36 165.95 162.54 168.19 158.82C170.44 155.09 171.7 151.43 172.45 148.37C173.21 145.32 173.46 142.76 173.56 141.15C173.63 140.37 173.62 139.6 173.64 139.14C173.65 138.67 173.66 138.42 173.66 138.42C173.66 138.5 173.66 138.27 173.65 137.83ZM180.31 139.29C180.29 139.78 180.31 140.41 180.24 141.46C180.13 143.51 179.88 146.34 179.02 149.95C178.17 153.53 176.73 157.85 174.09 162.33C171.49 166.8 167.57 171.41 162.21 175.01C156.9 178.63 150.09 181.11 142.79 181.54C140.99 181.65 139.07 181.62 137.33 181.5C135.37 181.35 133.54 181.12 131.66 180.71C127.94 179.91 124.25 178.57 120.76 176.73C117.29 174.89 114.01 172.56 111.05 169.82C108.14 167.04 105.49 163.9 103.35 160.38C102.28 158.62 101.34 156.78 100.48 154.89C99.65 152.99 98.97 151.01 98.4 149C97.85 146.98 97.46 144.91 97.19 142.82C97.1 141.78 96.96 140.73 96.94 139.68C96.94 139.62 96.93 139.36 96.92 138.89L96.91 138.41L96.91 138.05C96.93 137.17 96.93 136.68 96.93 136.58C97.03 134.42 97.22 132.3 97.61 130.25C98.01 128.19 98.51 126.15 99.19 124.18C100.52 120.22 102.34 116.44 104.64 113.03C109.19 106.17 115.46 100.59 122.59 97.19C129.7 93.75 137.6 92.6 144.78 93.64C152 94.65 158.39 97.82 163.22 101.83C168.06 105.87 171.57 110.51 174.02 114.94C176.52 119.37 177.97 123.59 178.86 127.12C179.76 130.67 180.04 133.54 180.18 135.49C180.28 136.47 180.27 137.22 180.3 137.73C180.31 138.23 180.32 138.5 180.32 138.5C180.32 138.57 180.32 138.81 180.31 139.29Z" id="biAGn4aId"></path><path d="M140.16 138.5C140.16 160.49 125 178.33 103 178.33C81 178.33 63.17 160.49 63.17 138.5C63.17 116.5 81 86.66 103 86.66C125 86.66 140.16 116.5 140.16 138.5" id="b199SW2V1z"></path><path d="M137.26 138.5C137.26 138.5 137.26 138.25 137.25 137.78C137.24 137.31 137.26 136.61 137.2 135.7C137.11 133.87 136.89 131.17 136.23 127.78C135.58 124.38 134.51 120.28 132.7 115.8C130.85 111.35 128.42 106.39 124.72 101.82C121.11 97.25 116.18 92.99 110.21 90.98C108.75 90.51 107.12 90.08 105.68 89.95C105.03 89.83 104.03 89.82 103.12 89.78C103.11 89.78 102.97 89.78 102.95 89.78C102.98 89.78 102.76 89.77 103 89.78C102.99 89.78 102.97 89.78 102.92 89.78L102.62 89.8C102.26 89.82 102.06 89.83 102.02 89.83C101.61 89.86 101.21 89.85 100.8 89.92C99.18 90.05 97.56 90.45 95.95 90.93C94.35 91.5 92.76 92.15 91.22 93.01C85.05 96.43 79.72 102.12 75.54 108.62C71.35 115.14 68.26 122.61 66.73 130.31C66.39 132.22 66.09 134.22 65.98 136.06C65.93 136.51 65.93 137.06 65.91 137.56C65.91 137.61 65.9 137.87 65.89 138.33C65.89 138.45 65.88 138.52 65.88 138.53C65.88 138.46 65.89 138.61 65.89 138.64C65.89 138.67 65.9 138.79 65.91 139C65.98 140.73 66.02 141.69 66.03 141.88C66.39 145.7 67.3 149.44 68.74 152.95C70.27 156.43 72.28 159.64 74.66 162.5C77.09 165.31 79.97 167.65 83.01 169.54C83.79 169.98 84.57 170.43 85.34 170.86C86.15 171.23 86.96 171.59 87.76 171.95C88.54 172.35 89.38 172.61 90.2 172.88C91.03 173.13 91.82 173.49 92.67 173.64C93.51 173.84 94.34 174.01 95.16 174.22C95.98 174.44 96.76 174.47 97.55 174.61C99.02 174.91 100.96 174.89 102.7 174.98C102.73 174.98 102.84 174.98 103.04 174.99C103.09 174.99 103.11 174.99 103.12 174.99C103.3 175 102.97 174.99 103.03 174.99C103.04 174.99 103.09 174.99 103.18 174.98L103.79 174.95C104.51 174.91 104.91 174.89 104.99 174.89C105.79 174.83 106.59 174.87 107.36 174.7C108.91 174.46 110.45 174.28 111.9 173.82C114.86 173.12 117.5 171.83 119.97 170.51C124.8 167.64 128.45 163.8 130.97 159.95C133.51 156.07 134.93 152.21 135.83 148.99C136.2 147.35 136.61 145.88 136.72 144.63C136.9 143.38 137.1 142.35 137.11 141.33C137.21 139.4 137.26 138.37 137.26 138.37C137.26 138.4 137.26 138.47 137.26 138.5ZM143.06 138.62C143.06 138.62 143.03 139.65 142.96 141.59C142.97 142.51 142.79 143.84 142.61 145.37C142.48 146.93 142.07 148.58 141.67 150.48C140.71 154.21 139.16 158.71 136.27 163.33C133.4 167.94 129.11 172.62 123.32 176.17C120.39 177.85 117.16 179.37 113.61 180.23C111.86 180.78 110.03 181.02 108.17 181.31C107.25 181.5 106.31 181.47 105.36 181.54C105.26 181.54 104.79 181.57 103.93 181.61L103.22 181.65L103.04 181.66L102.78 181.65L102.7 181.65C102.5 181.63 102.39 181.63 102.37 181.62C100.57 181.49 98.9 181.5 96.79 181.1C95.79 180.92 94.73 180.82 93.78 180.55C92.81 180.3 91.85 180.01 90.88 179.74C87.08 178.45 83.28 176.79 79.89 174.38C73.02 169.73 67.31 162.99 63.85 155.02C62.22 151 61.16 146.73 60.68 142.37C60.67 142.15 60.61 141.05 60.49 139.08C60.48 138.83 60.47 138.69 60.47 138.67C60.47 138.57 60.46 138.59 60.46 138.39C60.46 138.38 60.46 138.32 60.47 138.2C60.47 137.74 60.48 137.48 60.48 137.43C60.49 136.91 60.48 136.42 60.53 135.84C60.64 133.56 60.93 131.47 61.29 129.31C62.84 120.79 66.06 112.69 70.54 105.47C75 98.26 80.87 91.84 88.23 87.64C90.06 86.58 92.02 85.75 94 85.04C96.02 84.41 98.07 83.9 100.16 83.7C100.68 83.61 101.2 83.61 101.73 83.59C101.78 83.58 102.04 83.58 102.51 83.56L102.9 83.55L103 83.54L103.22 83.55C103.32 83.56 103.38 83.56 103.39 83.56C104.32 83.61 105.16 83.61 106.31 83.79C108.49 84.05 110.35 84.57 112.25 85.24C115.95 86.65 119.21 88.68 121.94 91.02C124.68 93.35 126.99 95.9 128.99 98.47C132.93 103.68 135.73 108.92 137.72 113.75C139.69 118.59 140.93 122.99 141.71 126.67C142.5 130.36 142.8 133.33 142.93 135.36C143.02 136.38 143.02 137.17 143.04 137.7C143.05 138.22 143.06 138.5 143.06 138.5C143.06 138.52 143.06 138.6 143.06 138.62Z" id="ajSaNnq64"></path><path d="M134.56 122.33C169.66 122.33 179.66 106 179.66 70.34C179.66 41.62 155.88 18.34 126.55 18.34C123.86 18.34 102.36 18.34 99.67 18.34C55.49 18.34 19.68 54.16 19.68 98.33C19.68 102.33 19.68 134.33 19.68 138.33C19.68 160.42 37.58 178.33 59.67 178.33C59.67 178.33 59.62 178.33 59.62 178.33C81.7 178.33 99.61 160.42 99.61 138.33C99.61 137.27 99.61 131.96 99.61 122.41C118.25 122.37 129.9 122.34 134.56 122.33Z" id="a4Dxzb4JBt"></path><path d="M134.56 122.33C169.66 122.33 179.66 106 179.66 70.34C179.66 41.62 155.88 18.34 126.55 18.34C123.86 18.34 102.36 18.34 99.67 18.34C55.49 18.34 19.68 54.16 19.68 98.33C19.68 102.33 19.68 134.33 19.68 138.33C19.68 160.42 37.58 178.33 59.67 178.33C59.67 178.33 59.62 178.33 59.62 178.33C81.7 178.33 99.61 160.42 99.61 138.33C99.61 137.27 99.61 131.96 99.61 122.41C118.25 122.37 129.9 122.34 134.56 122.33Z" id="c41UfFksJU"></path><path d="M102.44 43.67C102.44 43.67 102.62 46.79 102.76 51.48C102.8 53.83 102.91 56.56 102.93 59.49C102.95 62.42 102.97 65.54 103 68.67C102.97 71.79 102.95 74.92 102.93 77.85C102.9 80.78 102.8 83.51 102.76 85.86C102.7 88.2 102.6 90.15 102.55 91.52C102.48 92.89 102.44 93.67 102.44 93.67C102.37 95.2 101.06 96.38 99.53 96.31C98.09 96.23 96.97 95.07 96.89 93.67C96.89 93.67 96.85 92.89 96.78 91.52C96.74 90.15 96.63 88.2 96.58 85.86C96.53 83.51 96.43 80.78 96.41 77.85C96.39 74.92 96.36 71.79 96.34 68.67C96.36 65.54 96.38 62.42 96.41 59.49C96.42 56.56 96.53 53.83 96.58 51.48C96.71 46.79 96.89 43.67 96.89 43.67C96.98 42.14 98.29 40.96 99.83 41.05C101.25 41.13 102.37 42.28 102.44 43.67" id="aC84XzY9R"></path><path d="M74.67 65.89C74.67 65.89 75.45 65.85 76.82 65.78C78.18 65.74 80.14 65.63 82.48 65.58C84.82 65.53 87.56 65.43 90.49 65.41C93.42 65.39 96.54 65.36 99.67 65.34C102.79 65.36 105.92 65.39 108.85 65.41C111.78 65.43 114.51 65.53 116.85 65.58C121.54 65.71 124.67 65.89 124.67 65.89C126.2 65.98 127.37 67.29 127.28 68.83C127.2 70.25 126.06 71.37 124.67 71.45C124.67 71.45 121.54 71.62 116.85 71.76C114.51 71.8 111.78 71.91 108.85 71.93C105.92 71.95 102.79 71.98 99.67 72C96.54 71.98 93.42 71.95 90.49 71.93C87.56 71.9 84.82 71.8 82.48 71.76C80.14 71.71 78.18 71.6 76.82 71.55C75.45 71.48 74.67 71.45 74.67 71.45C73.13 71.37 71.95 70.06 72.03 68.53C72.1 67.09 73.26 65.97 74.67 65.89" id="b1TFkQtt4Q"></path></defs><g><g><g><use xlink:href="#baZoW73F0" opacity="1" fill="#ffffff" fill-opacity="1"></use><g><use xlink:href="#baZoW73F0" opacity="1" fill-opacity="0" stroke="#000000" stroke-width="1" stroke-opacity="0"></use></g></g><g><use xlink:href="#biAGn4aId" opacity="1" fill="#1d1d1b" fill-opacity="1"></use><g><use xlink:href="#biAGn4aId" opacity="1" fill-opacity="0" stroke="#000000" stroke-width="1" stroke-opacity="0"></use></g></g><g><use xlink:href="#b199SW2V1z" opacity="1" fill="#ffffff" fill-opacity="1"></use><g><use xlink:href="#b199SW2V1z" opacity="1" fill-opacity="0" stroke="#000000" stroke-width="1" stroke-opacity="0"></use></g></g><g><use xlink:href="#ajSaNnq64" opacity="1" fill="#1d1d1b" fill-opacity="1"></use><g><use xlink:href="#ajSaNnq64" opacity="1" fill-opacity="0" stroke="#000000" stroke-width="1" stroke-opacity="0"></use></g></g><g><use xlink:href="#a4Dxzb4JBt" opacity="1" fill="#ffffff" fill-opacity="1"></use><g><use xlink:href="#a4Dxzb4JBt" opacity="1" fill-opacity="0" stroke="#000000" stroke-width="1" stroke-opacity="0"></use></g></g><g><use xlink:href="#c41UfFksJU" opacity="1" fill="#000000" fill-opacity="0"></use><g><use xlink:href="#c41UfFksJU" opacity="1" fill-opacity="0" stroke="#1d1d1b" stroke-width="5" stroke-opacity="1"></use></g></g><g><use xlink:href="#aC84XzY9R" opacity="1" fill="#1d1d1b" fill-opacity="1"></use><g><use xlink:href="#aC84XzY9R" opacity="1" fill-opacity="0" stroke="#000000" stroke-width="1" stroke-opacity="0"></use></g></g><g><use xlink:href="#b1TFkQtt4Q" opacity="1" fill="#1d1d1b" fill-opacity="1"></use><g><use xlink:href="#b1TFkQtt4Q" opacity="1" fill-opacity="0" stroke="#000000" stroke-width="1" stroke-opacity="0"></use></g></g></g></g></svg>