<?xml version="1.0" encoding="UTF-8" standalone="no"?>
<!DOCTYPE svg PUBLIC "-//W3C//DTD SVG 1.1//EN" "http://www.w3.org/Graphics/SVG/1.1/DTD/svg11.dtd">
<svg version="1.1" xmlns="http://www.w3.org/2000/svg" xmlns:xlink="http://www.w3.org/1999/xlink" preserveAspectRatio="xMidYMid meet" viewBox="0 0 200 200" width="200" height="200"><defs><path d="M184.79 139.99C184.79 161.99 169.63 179.82 147.63 179.82C125.63 179.82 107.8 161.99 107.8 139.99C107.8 117.99 125.63 97.49 147.63 97.49C169.63 97.49 184.79 117.99 184.79 139.99" id="b1y1WOEKAw"></path><path d="M181.45 139.32C181.44 138.88 181.47 138.22 181.41 137.37C181.35 135.66 181.14 133.15 180.5 130.02C179.88 126.89 178.79 123.11 176.79 119.11C174.79 115.13 171.85 110.89 167.64 107.42C163.46 103.95 158.03 101.22 151.86 100.49C145.71 99.68 138.99 100.78 132.94 103.87C126.87 106.91 121.5 111.87 117.64 117.92C115.71 120.94 114.11 124.21 112.99 127.66C111.87 131.07 111.19 134.74 110.96 138.23C110.96 138.33 110.94 138.82 110.91 139.7C110.9 139.92 110.9 140.04 110.9 140.06C110.9 140.02 110.9 140.25 110.9 140.32C110.9 140.39 110.91 140.93 110.91 141C110.9 141.91 110.98 142.81 111.02 143.71C111.18 145.51 111.43 147.3 111.84 149.06C112.67 152.58 113.95 155.99 115.8 159.08C119.42 165.29 124.97 170.21 131.16 173.04C134.23 174.49 137.46 175.46 140.66 175.98C142.26 176.25 143.9 176.42 145.38 176.49C147.09 176.55 148.58 176.53 150.14 176.39C156.28 175.96 161.83 173.87 166.18 170.86C170.56 167.85 173.75 164.03 175.99 160.31C178.24 156.58 179.5 152.92 180.25 149.86C181.01 146.81 181.26 144.25 181.36 142.65C181.43 141.87 181.42 141.09 181.44 140.64C181.45 140.16 181.46 139.92 181.46 139.92C181.46 139.99 181.46 139.76 181.45 139.32ZM188.11 140.78C188.09 141.27 188.12 141.9 188.04 142.95C187.93 145 187.68 147.83 186.82 151.44C185.97 155.02 184.53 159.34 181.89 163.82C179.29 168.29 175.38 172.9 170.01 176.5C164.7 180.13 157.89 182.6 150.59 183.03C148.8 183.15 146.87 183.11 145.14 182.99C143.17 182.84 141.34 182.61 139.47 182.2C135.74 181.4 132.05 180.06 128.57 178.22C125.09 176.38 121.81 174.05 118.86 171.31C115.94 168.53 113.29 165.39 111.15 161.87C110.09 160.11 109.14 158.27 108.28 156.38C107.45 154.48 106.77 152.5 106.2 150.49C105.65 148.47 105.26 146.4 104.99 144.31C104.9 143.27 104.76 142.22 104.75 141.17C104.74 141.12 104.74 140.85 104.72 140.38L104.71 139.91L104.71 139.54C104.73 138.66 104.73 138.17 104.74 138.07C104.84 135.92 105.02 133.79 105.41 131.74C105.81 129.68 106.31 127.64 107 125.67C108.32 121.71 110.14 117.93 112.44 114.52C116.99 107.67 123.26 102.09 130.39 98.68C137.5 95.24 145.4 94.1 152.58 95.13C159.8 96.15 166.19 99.32 171.02 103.32C175.86 107.36 179.37 112 181.82 116.43C184.32 120.86 185.77 125.08 186.66 128.62C187.57 132.16 187.84 135.03 187.99 136.99C188.08 137.96 188.07 138.71 188.1 139.22C188.12 139.73 188.12 139.99 188.12 139.99C188.12 140.06 188.12 140.31 188.11 140.78Z" id="bIL6fQgBR"></path><path d="M147.96 139.99C147.96 161.99 132.8 179.82 110.8 179.82C88.81 179.82 70.97 161.99 70.97 139.99C70.97 117.99 88.81 88.15 110.8 88.15C132.8 88.15 147.96 117.99 147.96 139.99" id="dLq6XHYyX"></path><path d="M145.06 139.99C145.06 139.99 145.06 139.75 145.05 139.28C145.04 138.8 145.06 138.11 145 137.19C144.91 135.37 144.69 132.67 144.03 129.27C143.39 125.88 142.32 121.77 140.5 117.29C138.66 112.84 136.22 107.88 132.52 103.31C128.91 98.75 123.98 94.48 118.01 92.47C116.55 92 114.93 91.57 113.48 91.44C112.83 91.32 111.83 91.31 110.93 91.28C110.91 91.28 110.77 91.27 110.75 91.27C110.78 91.27 110.56 91.27 110.8 91.27C110.79 91.27 110.77 91.27 110.72 91.28L110.42 91.29C110.06 91.31 109.86 91.32 109.82 91.32C109.41 91.35 109.01 91.34 108.61 91.41C106.98 91.54 105.37 91.95 103.75 92.42C102.16 92.99 100.56 93.64 99.03 94.51C92.85 97.93 87.52 103.61 83.34 110.11C79.15 116.63 76.06 124.11 74.53 131.81C74.19 133.71 73.89 135.71 73.78 137.55C73.73 138 73.74 138.55 73.72 139.06C73.71 139.11 73.71 139.36 73.69 139.83C73.69 139.94 73.69 140.01 73.69 140.02C73.68 139.95 73.69 140.1 73.69 140.14C73.69 140.16 73.7 140.28 73.71 140.5C73.78 142.22 73.82 143.18 73.83 143.37C74.19 147.19 75.1 150.94 76.54 154.45C78.07 157.92 80.08 161.13 82.46 163.99C84.9 166.8 87.77 169.14 90.82 171.03C91.59 171.48 92.37 171.92 93.14 172.36C93.95 172.72 94.76 173.08 95.56 173.45C96.34 173.84 97.18 174.1 98.01 174.37C98.84 174.62 99.62 174.98 100.47 175.14C101.31 175.33 102.14 175.5 102.96 175.71C103.78 175.93 104.56 175.96 105.36 176.1C106.83 176.4 108.77 176.38 110.51 176.47C110.53 176.47 110.64 176.48 110.84 176.48C110.89 176.49 110.92 176.49 110.92 176.49C111.1 176.49 110.77 176.48 110.83 176.48C110.84 176.48 110.89 176.48 110.98 176.48L111.59 176.44C112.31 176.41 112.71 176.39 112.79 176.38C113.59 176.32 114.4 176.36 115.16 176.2C116.71 175.95 118.25 175.77 119.7 175.31C122.66 174.61 125.31 173.33 127.77 172C132.6 169.14 136.25 165.3 138.77 161.44C141.31 157.57 142.73 153.7 143.63 150.48C144.01 148.84 144.41 147.37 144.53 146.13C144.7 144.87 144.9 143.84 144.91 142.83C145.01 140.89 145.07 139.86 145.07 139.86C145.06 139.89 145.06 139.96 145.06 139.99ZM150.86 140.11C150.86 140.11 150.83 141.15 150.76 143.08C150.78 144 150.59 145.34 150.41 146.86C150.28 148.42 149.87 150.08 149.48 151.97C148.51 155.7 146.96 160.21 144.07 164.83C141.2 169.43 136.92 174.11 131.12 177.66C128.19 179.34 124.96 180.86 121.41 181.73C119.66 182.27 117.83 182.52 115.98 182.8C115.05 182.99 114.11 182.96 113.16 183.03C113.07 183.04 112.59 183.06 111.74 183.11L111.02 183.14L110.84 183.15L110.58 183.14L110.5 183.14C110.3 183.13 110.19 183.12 110.17 183.12C108.37 182.98 106.7 183 104.59 182.59C103.59 182.41 102.53 182.31 101.58 182.04C100.61 181.79 99.65 181.51 98.68 181.23C94.88 179.94 91.09 178.28 87.69 175.87C80.82 171.22 75.11 164.48 71.65 156.51C70.02 152.49 68.96 148.22 68.48 143.86C68.47 143.64 68.41 142.54 68.3 140.57C68.28 140.32 68.27 140.19 68.27 140.16C68.27 140.06 68.26 140.08 68.26 139.89C68.26 139.87 68.27 139.81 68.27 139.69C68.28 139.23 68.28 138.97 68.28 138.92C68.3 138.4 68.29 137.92 68.33 137.34C68.44 135.05 68.74 132.96 69.09 130.8C70.65 122.28 73.86 114.18 78.34 106.96C82.81 99.76 88.67 93.33 96.03 89.13C97.86 88.08 99.82 87.25 101.8 86.53C103.82 85.91 105.87 85.39 107.96 85.19C108.48 85.11 109.01 85.1 109.53 85.08C109.58 85.08 109.84 85.07 110.31 85.05L110.7 85.04L110.8 85.04L111.02 85.04C111.12 85.05 111.18 85.05 111.19 85.05C112.12 85.11 112.96 85.11 114.11 85.28C116.29 85.54 118.15 86.06 120.05 86.73C123.75 88.15 127.01 90.17 129.74 92.51C132.48 94.84 134.79 97.39 136.79 99.97C140.73 105.17 143.53 110.41 145.52 115.24C147.49 120.09 148.73 124.48 149.51 128.17C150.3 131.85 150.6 134.82 150.73 136.86C150.82 137.87 150.82 138.66 150.84 139.19C150.86 139.72 150.86 139.99 150.86 139.99C150.86 140.01 150.86 140.09 150.86 140.11Z" id="g23GPMPhpY"></path><path d="M142.36 123.82C177.46 123.82 187.46 107.49 187.46 71.83C187.46 43.11 163.68 19.84 134.35 19.84C131.67 19.84 110.16 19.84 107.47 19.84C63.29 19.84 27.48 55.65 27.48 99.83C27.48 103.83 27.48 135.82 27.48 139.82C27.48 161.91 45.38 179.82 67.47 179.82C67.47 179.82 67.42 179.82 67.42 179.82C89.51 179.82 107.41 161.91 107.41 139.82C107.41 138.76 107.41 133.46 107.41 123.91C126.05 123.86 137.7 123.83 142.36 123.82Z" id="f1JmwnOIh5"></path><path d="M142.36 123.82C177.46 123.82 187.46 107.49 187.46 71.83C187.46 43.11 163.68 19.84 134.35 19.84C131.67 19.84 110.16 19.84 107.47 19.84C63.29 19.84 27.48 55.65 27.48 99.83C27.48 103.83 27.48 135.82 27.48 139.82C27.48 161.91 45.38 179.82 67.47 179.82C67.47 179.82 67.42 179.82 67.42 179.82C89.51 179.82 107.41 161.91 107.41 139.82C107.41 138.76 107.41 133.46 107.41 123.91C126.05 123.86 137.7 123.83 142.36 123.82Z" id="c6jZvvyQP"></path><path d="M110.47 19.84C110.67 61.23 110.78 84.23 110.8 88.83C110.81 90.67 109.33 92.17 107.49 92.18C105.64 92.19 104.15 90.7 104.14 88.86C104.14 88.86 104.14 88.85 104.14 88.83C104.34 47.43 104.45 24.44 104.47 19.84C104.48 18.18 105.83 16.84 107.48 16.85C109.13 16.86 110.46 18.19 110.47 19.84" id="bFt9fwRdm"></path><path d="M88.99 63.69C88.99 68.06 85.44 71.61 81.07 71.61C76.69 71.61 73.14 68.06 73.14 63.69C73.14 59.31 76.69 55.77 81.07 55.77C85.44 55.77 88.99 59.31 88.99 63.69" id="a1Uj8XPje"></path><path d="M141.79 63.69C141.79 68.06 138.25 71.61 133.87 71.61C129.5 71.61 125.95 68.06 125.95 63.69C125.95 59.31 129.5 55.77 133.87 55.77C138.25 55.77 141.79 59.31 141.79 63.69" id="fYR7kyiFD"></path></defs><g><g><g><use xlink:href="#b1y1WOEKAw" opacity="1" fill="#ffffff" fill-opacity="1"></use><g><use xlink:href="#b1y1WOEKAw" opacity="1" fill-opacity="0" stroke="#000000" stroke-width="1" stroke-opacity="0"></use></g></g><g><use xlink:href="#bIL6fQgBR" opacity="1" fill="#1d1d1b" fill-opacity="1"></use><g><use xlink:href="#bIL6fQgBR" opacity="1" fill-opacity="0" stroke="#000000" stroke-width="1" stroke-opacity="0"></use></g></g><g><use xlink:href="#dLq6XHYyX" opacity="1" fill="#ffffff" fill-opacity="1"></use><g><use xlink:href="#dLq6XHYyX" opacity="1" fill-opacity="0" stroke="#000000" stroke-width="1" stroke-opacity="0"></use></g></g><g><use xlink:href="#g23GPMPhpY" opacity="1" fill="#1d1d1b" fill-opacity="1"></use><g><use xlink:href="#g23GPMPhpY" opacity="1" fill-opacity="0" stroke="#000000" stroke-width="1" stroke-opacity="0"></use></g></g><g><use xlink:href="#f1JmwnOIh5" opacity="1" fill="#ffffff" fill-opacity="1"></use><g><use xlink:href="#f1JmwnOIh5" opacity="1" fill-opacity="0" stroke="#000000" stroke-width="1" stroke-opacity="0"></use></g></g><g><use xlink:href="#c6jZvvyQP" opacity="1" fill="#000000" fill-opacity="0"></use><g><use xlink:href="#c6jZvvyQP" opacity="1" fill-opacity="0" stroke="#1d1d1b" stroke-width="5" stroke-opacity="1"></use></g></g><g><use xlink:href="#bFt9fwRdm" opacity="1" fill="#1d1d1b" fill-opacity="1"></use><g><use xlink:href="#bFt9fwRdm" opacity="1" fill-opacity="0" stroke="#000000" stroke-width="1" stroke-opacity="0"></use></g></g><g><use xlink:href="#a1Uj8XPje" opacity="1" fill="#1d1d1b" fill-opacity="1"></use><g><use xlink:href="#a1Uj8XPje" opacity="1" fill-opacity="0" stroke="#000000" stroke-width="1" stroke-opacity="0"></use></g></g><g><use xlink:href="#fYR7kyiFD" opacity="1" fill="#1d1d1b" fill-opacity="1"></use><g><use xlink:href="#fYR7kyiFD" opacity="1" fill-opacity="0" stroke="#000000" stroke-width="1" stroke-opacity="0"></use></g></g></g></g></svg>