<?xml version="1.0" encoding="UTF-8" standalone="no"?>
<!DOCTYPE svg PUBLIC "-//W3C//DTD SVG 1.1//EN" "http://www.w3.org/Graphics/SVG/1.1/DTD/svg11.dtd">
<svg version="1.1" xmlns="http://www.w3.org/2000/svg" xmlns:xlink="http://www.w3.org/1999/xlink" preserveAspectRatio="xMidYMid meet" viewBox="0 0 200 200" width="200" height="200"><defs><path d="M20 161.51C20 139.04 55.65 131.64 99.83 131.64C144 131.64 180 141.68 180 162.03C180 175.78 167.64 184.26 152.18 184.26C134.85 184.26 124.18 175.23 124.18 161.48C124.18 174.14 115.52 182.28 100.18 182.28C83.52 182.28 76.19 174.14 76.19 161.48C76.19 175.23 64.52 184.26 47.86 184.26C32.4 184.26 20 175.26 20 161.51" id="g4DGhS26S"></path><path d="M23.34 161.52C23.34 164.4 24.02 167.19 25.35 169.65C26.68 172.13 28.65 174.27 31.02 175.96C33.38 177.67 36.14 178.93 39.05 179.74C40.51 180.15 42.01 180.44 43.53 180.64C45.06 180.83 46.52 180.92 48.13 180.92C51.26 180.94 54.36 180.61 57.32 179.86C60.28 179.11 63.07 177.9 65.5 176.25C67.93 174.59 69.94 172.43 71.31 169.9C72.71 167.38 73.45 164.48 73.52 161.48C73.52 161.47 73.52 161.41 73.52 161.4C73.56 159.93 74.78 158.76 76.25 158.8C77.71 158.83 78.86 160.03 78.85 161.48C78.85 161.48 78.85 161.48 78.85 161.48C79.01 164.24 79.45 166.92 80.48 169.24C81.46 171.57 82.96 173.55 84.94 175C86.91 176.45 89.28 177.5 91.88 178.1C93.17 178.41 94.51 178.63 95.88 178.76C97.3 178.89 98.51 178.95 100.09 178.95C101.39 178.95 102.83 178.9 104.17 178.76C105.53 178.62 106.85 178.39 108.14 178.06C110.71 177.42 113.08 176.32 115.1 174.85C117.11 173.37 118.68 171.4 119.74 169.1C120.85 166.82 121.36 164.19 121.51 161.48C121.87 161.48 123.65 161.48 126.85 161.48C126.85 161.48 126.85 161.48 126.85 161.48C126.93 163.96 127.37 166.39 128.28 168.59C129.2 170.79 130.51 172.77 132.2 174.42C135.6 177.73 140.32 179.66 145.3 180.46C146.55 180.66 147.82 180.79 149.09 180.87C149.74 180.9 150.29 180.93 150.99 180.94C151.06 180.94 151.4 180.94 152.02 180.94C152.57 180.93 152.88 180.92 152.94 180.92C155.48 180.85 158 180.55 160.43 179.95C165.27 178.79 169.73 176.37 172.74 172.85C174.24 171.09 175.34 169.05 175.98 166.85C176.3 165.78 176.51 164.55 176.58 163.51C176.68 162.19 176.67 161.16 176.51 160.06C175.94 155.7 172.84 151.83 168.77 148.89C164.71 145.92 159.83 143.75 154.82 142.01C149.78 140.27 144.53 138.98 139.21 137.98C128.56 135.99 117.64 135.06 106.72 134.75C101.27 134.59 95.75 134.62 90.29 134.78C84.81 134.95 79.34 135.24 73.91 135.73C68.48 136.21 63.07 136.88 57.75 137.85C52.43 138.82 47.19 140.1 42.22 141.9C37.28 143.69 32.54 146.05 28.94 149.33C27.15 150.96 25.7 152.83 24.74 154.88C24.26 155.91 23.91 156.98 23.67 158.09C23.56 158.65 23.48 159.21 23.41 159.78C23.41 159.83 23.39 160.09 23.36 160.56C23.34 161.07 23.34 161.39 23.34 161.52ZM16.67 161.42L16.7 160.39C16.76 159.62 16.79 159.19 16.8 159.1C16.89 158.29 17.02 157.49 17.19 156.69C17.54 155.1 18.08 153.54 18.79 152.07C20.19 149.11 22.25 146.57 24.56 144.5C29.21 140.36 34.65 137.83 40.08 135.9C45.53 133.98 51.09 132.7 56.65 131.71C62.21 130.73 67.8 130.07 73.38 129.6C78.96 129.14 84.55 128.87 90.13 128.74C95.71 128.62 101.25 128.59 106.87 128.7C118.04 128.95 129.24 129.83 140.35 131.84C145.9 132.86 151.43 134.15 156.87 135.97C162.29 137.81 167.68 140.1 172.6 143.61C175.05 145.37 177.38 147.46 179.29 150.05C181.19 152.62 182.62 155.75 183.11 159.07C183.37 160.69 183.37 162.45 183.27 163.88C183.15 165.6 182.89 167.11 182.44 168.69C181.56 171.81 180 174.76 177.92 177.22C173.73 182.18 167.87 185.08 162.01 186.47C159.06 187.18 156.05 187.53 153.07 187.57C152.68 187.57 152.36 187.58 151.91 187.57C151.81 187.57 150.98 187.54 150.88 187.54C150.19 187.52 149.37 187.46 148.63 187.41C147.15 187.29 145.67 187.1 144.19 186.83C141.24 186.28 138.3 185.4 135.51 184.09C132.73 182.74 130.1 180.94 127.91 178.65C125.72 176.36 123.99 173.59 122.94 170.62C121.86 167.65 121.47 164.52 121.51 161.48C121.51 161.48 121.51 161.48 121.51 161.48C121.42 160.01 122.54 158.75 124.01 158.65C125.48 158.56 126.74 159.68 126.83 161.15C126.83 161.15 126.83 161.16 126.83 161.18C126.84 161.36 126.85 161.46 126.85 161.48C127 164.77 126.53 168.21 125.25 171.46C123.94 174.69 121.76 177.66 119.01 179.86C116.28 182.1 113.04 183.51 109.81 184.39C108.18 184.83 106.54 185.14 104.91 185.33C103.26 185.52 101.69 185.61 99.99 185.61C98.56 185.6 96.76 185.5 95.19 185.33C93.56 185.16 91.93 184.86 90.31 184.46C87.07 183.63 83.78 182.28 81.01 180C78.22 177.78 76.09 174.68 74.91 171.41C73.74 168.12 73.38 164.73 73.52 161.48C73.52 161.48 73.52 161.48 73.52 161.48C76.72 161.48 78.5 161.48 78.85 161.48C78.95 165.21 78.2 169.09 76.49 172.56C74.78 176.04 72.15 179.02 69.09 181.27C66.02 183.54 62.54 185.08 58.99 186.07C55.44 187.06 51.79 187.52 48.18 187.58C46.42 187.61 44.51 187.5 42.69 187.28C40.87 187.06 39.05 186.72 37.26 186.23C33.68 185.25 30.18 183.71 27.06 181.48C23.96 179.25 21.25 176.3 19.41 172.81C17.55 169.34 16.64 165.37 16.67 161.51C16.67 161.5 16.67 161.47 16.67 161.47C16.67 161.46 16.67 161.44 16.67 161.42" id="br0JB1tQW"></path><path d="M177.32 119.6C177.32 137.06 162.16 151.2 140.16 151.2C118.16 151.2 100.33 137.06 100.33 119.6C100.33 102.15 118.16 85.89 140.16 85.89C162.16 85.89 177.32 102.15 177.32 119.6" id="cbWurPsJr"></path><path d="M173.98 119.03C173.98 118.66 173.99 118.1 173.93 117.37C173.84 115.91 173.56 113.76 172.81 111.11C172.04 108.47 170.72 105.3 168.44 102.11C166.17 98.94 162.94 95.73 158.7 93.31C154.48 90.89 149.33 89.16 143.72 88.75C138.08 88.32 132.04 89.03 126.3 91.19C120.56 93.31 115.11 96.85 110.93 101.6C108.85 103.98 107.06 106.61 105.78 109.47C104.5 112.3 103.68 115.42 103.48 118.38C103.31 121.57 103.65 124.59 104.68 127.56C105.7 130.49 107.27 133.28 109.34 135.67C111.39 138.07 113.81 140.17 116.49 141.83C117.82 142.67 119.21 143.41 120.61 144.08C122.04 144.7 123.48 145.29 124.95 145.74C127.87 146.7 130.85 147.27 133.79 147.59C135.26 147.76 136.73 147.85 138.1 147.9C138.84 147.9 139.58 147.91 140.31 147.91C141.02 147.87 141.73 147.87 142.43 147.81C148.03 147.5 153.21 146.2 157.5 144.1C161.8 142.02 165.21 139.24 167.69 136.37C170.17 133.49 171.66 130.5 172.56 127.96C173.43 125.42 173.74 123.24 173.87 121.87C173.94 121.24 173.96 120.58 173.97 120.16C173.98 119.73 173.99 119.51 173.99 119.51C173.99 119.6 173.99 119.41 173.98 119.03ZM180.64 120.34C180.63 120.76 180.63 121.36 180.54 122.36C180.39 124.26 180.03 126.88 178.95 130.15C177.84 133.38 175.98 137.18 172.92 140.81C169.89 144.46 165.62 147.82 160.43 150.26C155.26 152.72 149.17 154.18 142.76 154.47C141.95 154.5 141.15 154.48 140.33 154.5C139.54 154.47 138.75 154.44 137.95 154.41C136.24 154.3 134.58 154.16 132.93 153.88C129.61 153.33 126.27 152.47 123.01 151.21C119.75 149.96 116.57 148.35 113.55 146.38C110.56 144.37 107.7 142.02 105.24 139.21C104.02 137.8 102.88 136.29 101.85 134.7C100.84 133.09 99.97 131.37 99.25 129.58C98.52 127.78 98 125.9 97.66 123.97C97.47 123.01 97.38 122.03 97.3 121.06C97.29 120.95 97.27 120.43 97.24 119.49C97.25 118.7 97.26 118.27 97.27 118.18C97.31 117.28 97.39 116.11 97.54 115.19C97.66 114.22 97.88 113.27 98.08 112.32C98.56 110.43 99.23 108.61 100.02 106.86C101.63 103.37 103.77 100.18 106.31 97.44C111.37 91.93 117.74 88.03 124.35 85.75C130.96 83.43 137.83 82.79 144.17 83.36C150.56 83.98 156.45 85.91 161.34 88.7C166.22 91.52 170.13 95.05 172.99 98.68C175.89 102.29 177.7 106 178.82 109.17C179.92 112.35 180.3 115.02 180.49 116.82C180.59 117.72 180.61 118.42 180.63 118.89C180.65 119.36 180.65 119.6 180.65 119.6C180.65 119.7 180.65 119.91 180.64 120.34Z" id="aSwQslCbR"></path><path d="M140.49 119.6C140.49 137.06 125.33 151.2 103.33 151.2C81.34 151.2 63.5 137.06 63.5 119.6C63.5 102.15 81.34 78.48 103.33 78.48C125.33 78.48 140.49 102.15 140.49 119.6" id="agEAZcCOE"></path><path d="M137.59 119.6C137.59 119.6 137.56 118.77 137.49 117.21C137.39 115.65 137.08 113.34 136.34 110.43C135.52 107.56 134.32 104.07 132.25 100.39C130.16 96.76 127.39 92.8 123.5 89.43C122.57 88.55 121.47 87.85 120.44 87.01C119.35 86.27 118.17 85.64 117.01 84.93C116.39 84.65 115.77 84.38 115.14 84.09C114.51 83.83 113.9 83.48 113.23 83.31C111.91 82.94 110.55 82.37 109.25 82.23C108.6 82.12 107.94 81.98 107.28 81.84C106.54 81.76 105.7 81.74 104.91 81.68C104.83 81.68 104.42 81.66 103.7 81.62L103.39 81.6L103.24 81.59C103.2 81.59 103.17 81.59 103.17 81.58C102.95 81.58 103.37 81.59 103.3 81.59C103.25 81.6 102.81 81.63 102.75 81.64C102.02 81.69 101.29 81.76 100.55 81.8C99.8 81.79 99.07 81.96 98.33 82.11C97.59 82.25 96.85 82.39 96.1 82.53C95.37 82.77 94.64 83 93.9 83.24C93.16 83.46 92.42 83.7 91.72 84.06C91 84.38 90.28 84.7 89.56 85.03C88.84 85.36 88.17 85.82 87.47 86.21C86.04 86.95 84.76 87.98 83.42 88.92C80.84 90.97 78.36 93.25 76.22 95.88C71.84 101.03 68.48 107.34 66.94 113.87C66.9 114.1 66.54 115.97 66.5 116.21C66.38 117.05 66.35 118.01 66.28 118.91C66.28 118.95 66.26 119.18 66.23 119.59C66.23 119.69 66.22 119.75 66.22 119.76C66.23 119.46 66.23 119.72 66.23 119.67C66.23 119.68 66.23 119.7 66.23 119.75L66.25 120.06L66.32 121.28L66.39 122.5C66.52 123.22 66.6 123.62 66.61 123.7C67.17 126.9 68.36 130.02 70.23 132.72C72.06 135.45 74.35 137.85 76.9 139.91C79.54 141.85 82.38 143.47 85.35 144.68C86.1 144.96 86.86 145.2 87.61 145.47C87.68 145.5 88.06 145.63 88.73 145.86C89.42 146.04 89.8 146.14 89.88 146.15C90.64 146.35 91.39 146.55 92.15 146.74C92.92 146.88 93.68 147.01 94.44 147.14C95.97 147.46 97.41 147.52 98.86 147.71C99.54 147.82 100.43 147.78 101.2 147.82C101.95 147.84 102.69 147.85 103.43 147.87C109.31 147.84 114.77 146.69 119.4 144.77C120.6 144.37 121.63 143.7 122.72 143.2C123.78 142.64 124.72 141.96 125.7 141.38C126.58 140.67 127.48 140.04 128.29 139.34C129.04 138.59 129.86 137.93 130.51 137.17C133.22 134.21 134.97 131.13 135.93 128.44C136.23 127.78 136.34 127.11 136.55 126.5C136.72 125.89 136.93 125.31 136.99 124.8C137.08 124.28 137.17 123.8 137.25 123.36C137.29 123.14 137.33 122.93 137.37 122.73C137.4 122.52 137.41 122.28 137.42 122.07C137.54 120.36 137.6 119.45 137.6 119.45C137.6 119.48 137.59 119.57 137.59 119.6ZM143.39 119.76C143.39 119.76 143.35 120.68 143.28 122.39C143.26 122.61 143.27 122.82 143.24 123.08C143.2 123.35 143.16 123.64 143.12 123.94C143.02 124.54 142.92 125.19 142.82 125.9C142.73 126.63 142.51 127.31 142.31 128.08C142.09 128.83 141.94 129.66 141.6 130.48C140.48 133.83 138.41 137.69 135.18 141.38C134.4 142.32 133.44 143.15 132.53 144.08C131.57 144.95 130.5 145.76 129.43 146.62C128.29 147.35 127.15 148.18 125.9 148.87C124.63 149.51 123.38 150.31 121.98 150.82C116.53 153.2 110.14 154.49 103.45 154.53C103.43 154.53 103.33 154.53 103.16 154.53L103.01 154.52L102.72 154.5L102.12 154.47C101.41 154.43 101.01 154.41 100.94 154.41C100.12 154.34 99.4 154.38 98.48 154.23C96.74 153.99 94.91 153.84 93.23 153.38C92.37 153.18 91.51 152.98 90.65 152.77C89.8 152.5 88.95 152.23 88.09 151.96C88.01 151.93 87.58 151.79 86.81 151.54C86.06 151.23 85.64 151.05 85.56 151.02C84.72 150.67 83.88 150.34 83.05 149.96C79.76 148.35 76.54 146.47 73.59 144.1C70.65 141.71 67.97 138.9 65.8 135.64C63.6 132.39 62.09 128.6 61.33 124.67C61.31 124.57 61.21 124.07 61.04 123.18L60.92 121.67L60.82 120.16L60.79 119.79C60.79 119.73 60.79 119.7 60.79 119.69C60.79 119.59 60.78 119.79 60.79 119.43C60.79 119.42 60.79 119.37 60.8 119.26C60.82 118.85 60.83 118.62 60.83 118.58C60.9 117.65 60.9 116.79 61.01 115.81C61.06 115.51 61.47 113.06 61.52 112.76C63.2 105 66.85 98.03 71.65 92.12C76.39 86.16 82.5 81.38 89.31 78.39C90.13 77.97 91.01 77.68 91.9 77.39C92.78 77.11 93.65 76.82 94.52 76.53C95.43 76.34 96.33 76.16 97.22 75.98C98.12 75.79 99.01 75.6 99.92 75.57C100.83 75.52 101.73 75.46 102.62 75.41C102.69 75.4 103.23 75.38 103.3 75.37C103.28 75.37 103.74 75.38 103.58 75.38C103.59 75.38 103.61 75.38 103.66 75.39L103.81 75.4L104.11 75.42C104.84 75.48 105.24 75.51 105.32 75.51C106.13 75.58 106.91 75.61 107.74 75.71C108.64 75.89 109.53 76.06 110.42 76.26C112.25 76.57 113.75 77.27 115.34 77.81C116.14 78.06 116.85 78.49 117.59 78.84C118.32 79.21 119.04 79.57 119.75 79.94C121.09 80.81 122.44 81.62 123.66 82.54C124.83 83.51 126.08 84.37 127.12 85.4C131.4 89.38 134.63 93.64 136.96 97.73C139.28 101.82 140.73 105.69 141.73 108.94C142.64 112.22 143.06 114.9 143.22 116.75C143.33 118.61 143.39 119.6 143.39 119.6C143.39 119.64 143.39 119.73 143.39 119.76Z" id="a1zZScfVGu"></path><path d="M134.89 106.78C169.99 106.78 179.99 93.82 179.99 65.53C179.99 42.75 156.21 24.28 126.88 24.28C124.2 24.28 102.69 24.28 100 24.28C55.82 24.28 20.01 52.69 20.01 87.74C20.01 90.91 20.01 116.3 20.01 119.47C20.01 137 37.91 151.2 60 151.2C60 151.2 59.95 151.2 59.95 151.2C82.04 151.2 99.94 137 99.94 119.47C99.94 118.63 99.94 114.42 99.94 106.85C118.58 106.81 130.23 106.79 134.89 106.78Z" id="g7eyQOh9Yw"></path><path d="M134.89 106.78C169.99 106.78 179.99 93.82 179.99 65.53C179.99 42.75 156.21 24.28 126.88 24.28C124.2 24.28 102.69 24.28 100 24.28C55.82 24.28 20.01 52.69 20.01 87.74C20.01 90.91 20.01 116.3 20.01 119.47C20.01 137 37.91 151.2 60 151.2C60 151.2 59.95 151.2 59.95 151.2C82.04 151.2 99.94 137 99.94 119.47C99.94 118.63 99.94 114.42 99.94 106.85C118.58 106.81 130.23 106.79 134.89 106.78Z" id="aQu2ASyt"></path><path d="M103 24.28C103.2 57.12 103.31 75.37 103.33 79.01C103.34 80.85 101.86 82.36 100.02 82.37C98.18 82.38 96.68 80.9 96.67 79.05C96.67 79.05 96.67 79.04 96.67 79.01C96.87 46.17 96.98 27.93 97 24.28C97.01 22.62 98.36 21.29 100.02 21.3C101.66 21.31 102.99 22.64 103 24.28" id="e4jHsVVW8O"></path><path d="M81.52 59.37C81.52 63.75 77.97 67.29 73.6 67.29C69.22 67.29 65.67 63.75 65.67 59.37C65.67 54.99 69.22 51.45 73.6 51.45C77.97 51.45 81.52 54.99 81.52 59.37" id="dzewXB88p"></path><path d="M134.32 59.37C134.32 63.75 130.78 67.29 126.4 67.29C122.03 67.29 118.48 63.75 118.48 59.37C118.48 54.99 122.03 51.45 126.4 51.45C130.78 51.45 134.32 54.99 134.32 59.37" id="dM1av841a"></path></defs><g><g><g><use xlink:href="#g4DGhS26S" opacity="1" fill="#ffffff" fill-opacity="1"></use><g><use xlink:href="#g4DGhS26S" opacity="1" fill-opacity="0" stroke="#000000" stroke-width="1" stroke-opacity="0"></use></g></g><g><use xlink:href="#br0JB1tQW" opacity="1" fill="#1d1d1b" fill-opacity="1"></use><g><use xlink:href="#br0JB1tQW" opacity="1" fill-opacity="0" stroke="#000000" stroke-width="1" stroke-opacity="0"></use></g></g><g><use xlink:href="#cbWurPsJr" opacity="1" fill="#ffffff" fill-opacity="1"></use><g><use xlink:href="#cbWurPsJr" opacity="1" fill-opacity="0" stroke="#000000" stroke-width="1" stroke-opacity="0"></use></g></g><g><use xlink:href="#aSwQslCbR" opacity="1" fill="#1d1d1b" fill-opacity="1"></use><g><use xlink:href="#aSwQslCbR" opacity="1" fill-opacity="0" stroke="#000000" stroke-width="1" stroke-opacity="0"></use></g></g><g><use xlink:href="#agEAZcCOE" opacity="1" fill="#ffffff" fill-opacity="1"></use><g><use xlink:href="#agEAZcCOE" opacity="1" fill-opacity="0" stroke="#000000" stroke-width="1" stroke-opacity="0"></use></g></g><g><use xlink:href="#a1zZScfVGu" opacity="1" fill="#1d1d1b" fill-opacity="1"></use><g><use xlink:href="#a1zZScfVGu" opacity="1" fill-opacity="0" stroke="#000000" stroke-width="1" stroke-opacity="0"></use></g></g><g><use xlink:href="#g7eyQOh9Yw" opacity="1" fill="#ffffff" fill-opacity="1"></use><g><use xlink:href="#g7eyQOh9Yw" opacity="1" fill-opacity="0" stroke="#000000" stroke-width="1" stroke-opacity="0"></use></g></g><g><use xlink:href="#aQu2ASyt" opacity="1" fill="#000000" fill-opacity="0"></use><g><use xlink:href="#aQu2ASyt" opacity="1" fill-opacity="0" stroke="#1d1d1b" stroke-width="5" stroke-opacity="1"></use></g></g><g><use xlink:href="#e4jHsVVW8O" opacity="1" fill="#1d1d1b" fill-opacity="1"></use><g><use xlink:href="#e4jHsVVW8O" opacity="1" fill-opacity="0" stroke="#000000" stroke-width="1" stroke-opacity="0"></use></g></g><g><use xlink:href="#dzewXB88p" opacity="1" fill="#1d1d1b" fill-opacity="1"></use><g><use xlink:href="#dzewXB88p" opacity="1" fill-opacity="0" stroke="#000000" stroke-width="1" stroke-opacity="0"></use></g></g><g><use xlink:href="#dM1av841a" opacity="1" fill="#1d1d1b" fill-opacity="1"></use><g><use xlink:href="#dM1av841a" opacity="1" fill-opacity="0" stroke="#000000" stroke-width="1" stroke-opacity="0"></use></g></g></g></g></svg>