<?xml version="1.0" encoding="UTF-8" standalone="no"?>
<!DOCTYPE svg PUBLIC "-//W3C//DTD SVG 1.1//EN" "http://www.w3.org/Graphics/SVG/1.1/DTD/svg11.dtd">
<svg version="1.1" xmlns="http://www.w3.org/2000/svg" xmlns:xlink="http://www.w3.org/1999/xlink" preserveAspectRatio="xMidYMid meet" viewBox="0 0 200 200" width="200" height="200"><defs><path d="M176.99 145.88C176.99 167.87 161.83 185.71 139.83 185.71C117.83 185.71 100 167.87 100 145.88C100 123.88 117.83 103.38 139.83 103.38C161.83 103.38 176.99 123.88 176.99 145.88" id="jH1MYNn6k"></path><path d="M173.65 145.21C173.64 144.77 173.67 144.11 173.61 143.26C173.55 141.55 173.34 139.04 172.7 135.91C172.07 132.77 170.99 129 168.99 124.99C166.99 121.02 164.05 116.78 159.83 113.31C155.66 109.84 150.22 107.11 144.06 106.37C137.91 105.57 131.19 106.67 125.14 109.75C119.07 112.79 113.7 117.76 109.84 123.81C107.91 126.83 106.31 130.1 105.19 133.54C104.07 136.96 103.39 140.63 103.16 144.12C103.16 144.21 103.14 144.7 103.11 145.58C103.1 145.8 103.1 145.93 103.09 145.95C103.1 145.91 103.1 146.13 103.1 146.21C103.1 146.28 103.11 146.82 103.11 146.89C103.1 147.79 103.17 148.7 103.22 149.6C103.38 151.4 103.63 153.19 104.03 154.95C104.86 158.46 106.15 161.88 108 164.97C111.62 171.17 117.17 176.1 123.35 178.93C126.43 180.38 129.66 181.34 132.86 181.87C134.45 182.14 136.09 182.31 137.58 182.38C139.29 182.44 140.78 182.42 142.33 182.28C148.48 181.84 154.03 179.76 158.38 176.74C162.76 173.74 165.95 169.92 168.19 166.2C170.44 162.47 171.7 158.81 172.45 155.75C173.21 152.7 173.46 150.14 173.56 148.53C173.63 147.76 173.62 146.98 173.64 146.52C173.65 146.05 173.66 145.8 173.66 145.8C173.66 145.88 173.66 145.65 173.65 145.21ZM180.31 146.67C180.29 147.16 180.31 147.79 180.24 148.84C180.13 150.89 179.88 153.72 179.02 157.33C178.17 160.91 176.73 165.23 174.09 169.71C171.49 174.18 167.57 178.79 162.21 182.39C156.9 186.01 150.09 188.49 142.79 188.92C140.99 189.03 139.07 189 137.33 188.88C135.37 188.73 133.54 188.5 131.66 188.09C127.94 187.29 124.25 185.95 120.76 184.11C117.29 182.27 114.01 179.94 111.05 177.2C108.14 174.42 105.49 171.28 103.35 167.76C102.28 166 101.34 164.16 100.48 162.27C99.65 160.37 98.97 158.39 98.4 156.38C97.85 154.36 97.46 152.29 97.19 150.2C97.1 149.16 96.96 148.11 96.94 147.06C96.94 147 96.93 146.74 96.92 146.27L96.91 145.8L96.91 145.43C96.93 144.55 96.93 144.06 96.93 143.96C97.03 141.81 97.22 139.68 97.61 137.63C98.01 135.57 98.51 133.53 99.19 131.56C100.52 127.6 102.34 123.82 104.64 120.41C109.19 113.56 115.46 107.97 122.59 104.57C129.7 101.13 137.6 99.98 144.78 101.02C152 102.03 158.39 105.2 163.22 109.21C168.06 113.25 171.57 117.89 174.02 122.32C176.52 126.75 177.97 130.97 178.86 134.5C179.76 138.05 180.04 140.92 180.18 142.87C180.28 143.85 180.27 144.6 180.3 145.11C180.31 145.62 180.32 145.88 180.32 145.88C180.32 145.95 180.32 146.19 180.31 146.67Z" id="a190V6jpRH"></path><path d="M140.16 145.88C140.16 167.87 125 185.71 103 185.71C81 185.71 63.17 167.87 63.17 145.88C63.17 123.88 81 94.04 103 94.04C125 94.04 140.16 123.88 140.16 145.88" id="h3GngO1My5"></path><path d="M137.26 145.88C137.26 145.88 137.26 145.63 137.25 145.16C137.24 144.69 137.26 143.99 137.2 143.08C137.11 141.25 136.89 138.55 136.23 135.16C135.58 131.76 134.51 127.66 132.7 123.18C130.85 118.73 128.42 113.77 124.72 109.2C121.11 104.63 116.18 100.37 110.21 98.36C108.75 97.89 107.12 97.46 105.68 97.33C105.03 97.21 104.03 97.2 103.12 97.16C103.11 97.16 102.97 97.16 102.95 97.16C102.98 97.16 102.76 97.15 103 97.16C102.99 97.16 102.97 97.16 102.92 97.16L102.62 97.18C102.26 97.2 102.06 97.21 102.02 97.21C101.61 97.24 101.21 97.23 100.8 97.3C99.18 97.43 97.56 97.83 95.95 98.31C94.35 98.88 92.76 99.53 91.22 100.4C85.05 103.81 79.72 109.5 75.54 116C71.35 122.52 68.26 129.99 66.73 137.69C66.39 139.6 66.09 141.6 65.98 143.44C65.93 143.89 65.93 144.44 65.91 144.94C65.91 145 65.9 145.25 65.89 145.72C65.89 145.83 65.88 145.9 65.88 145.91C65.88 145.84 65.89 145.99 65.89 146.02C65.89 146.05 65.9 146.17 65.91 146.38C65.98 148.11 66.02 149.07 66.03 149.26C66.39 153.08 67.3 156.82 68.74 160.33C70.27 163.81 72.28 167.02 74.66 169.88C77.09 172.69 79.97 175.03 83.01 176.92C83.79 177.36 84.57 177.81 85.34 178.25C86.15 178.61 86.96 178.97 87.76 179.33C88.54 179.73 89.38 179.99 90.2 180.26C91.03 180.51 91.82 180.87 92.67 181.02C93.51 181.22 94.34 181.39 95.16 181.6C95.98 181.82 96.76 181.85 97.55 181.99C99.02 182.29 100.96 182.27 102.7 182.36C102.73 182.36 102.84 182.36 103.04 182.37C103.09 182.37 103.11 182.38 103.12 182.38C103.3 182.38 102.97 182.37 103.03 182.37C103.04 182.37 103.09 182.37 103.18 182.36L103.79 182.33C104.51 182.29 104.91 182.27 104.99 182.27C105.79 182.21 106.59 182.25 107.36 182.08C108.91 181.84 110.45 181.66 111.9 181.2C114.86 180.5 117.5 179.21 119.97 177.89C124.8 175.02 128.45 171.18 130.97 167.33C133.51 163.45 134.93 159.59 135.83 156.37C136.2 154.73 136.61 153.26 136.72 152.01C136.9 150.76 137.1 149.73 137.11 148.71C137.21 146.78 137.26 145.75 137.26 145.75C137.26 145.78 137.26 145.85 137.26 145.88ZM143.06 146C143.06 146 143.03 147.03 142.96 148.97C142.97 149.89 142.79 151.22 142.61 152.75C142.48 154.31 142.07 155.96 141.67 157.86C140.71 161.59 139.16 166.09 136.27 170.71C133.4 175.32 129.11 180 123.32 183.55C120.39 185.23 117.16 186.75 113.61 187.61C111.86 188.16 110.03 188.41 108.17 188.69C107.25 188.88 106.31 188.85 105.36 188.92C105.26 188.92 104.79 188.95 103.93 188.99L103.22 189.03L103.04 189.04L102.78 189.03L102.7 189.03C102.5 189.01 102.39 189.01 102.37 189.01C100.57 188.87 98.9 188.88 96.79 188.48C95.79 188.3 94.73 188.2 93.77 187.93C92.81 187.68 91.85 187.39 90.88 187.12C87.08 185.83 83.28 184.17 79.89 181.76C73.02 177.11 67.31 170.37 63.85 162.4C62.22 158.38 61.16 154.11 60.68 149.75C60.67 149.53 60.6 148.43 60.49 146.46C60.48 146.21 60.47 146.07 60.47 146.05C60.47 145.95 60.46 145.97 60.46 145.78C60.46 145.76 60.46 145.7 60.47 145.58C60.47 145.12 60.48 144.86 60.48 144.81C60.49 144.29 60.48 143.81 60.53 143.22C60.64 140.94 60.93 138.85 61.29 136.69C62.84 128.17 66.06 120.07 70.54 112.85C75 105.65 80.87 99.22 88.23 95.02C90.06 93.96 92.02 93.13 94 92.42C96.02 91.79 98.07 91.28 100.16 91.08C100.68 91 101.2 90.99 101.73 90.97C101.78 90.97 102.04 90.96 102.51 90.94L102.9 90.93L103 90.92L103.22 90.93C103.32 90.94 103.38 90.94 103.39 90.94C104.32 90.99 105.16 91 106.31 91.17C108.49 91.43 110.35 91.95 112.25 92.62C115.95 94.03 119.21 96.06 121.94 98.4C124.68 100.73 126.99 103.28 128.99 105.85C132.93 111.06 135.73 116.3 137.72 121.13C139.69 125.97 140.93 130.37 141.71 134.06C142.5 137.74 142.8 140.71 142.93 142.75C143.02 143.76 143.02 144.55 143.04 145.08C143.05 145.6 143.06 145.88 143.06 145.88C143.06 145.9 143.06 145.98 143.06 146Z" id="bmXlNYrsB"></path><path d="M134.56 129.71C169.66 129.71 179.66 113.38 179.66 77.72C179.66 49 155.88 25.72 126.55 25.72C123.86 25.72 102.36 25.72 99.67 25.72C55.49 25.72 19.68 61.54 19.68 105.71C19.68 109.71 19.68 141.71 19.68 145.71C19.68 167.8 37.58 185.71 59.67 185.71C59.67 185.71 59.62 185.71 59.62 185.71C81.7 185.71 99.61 167.8 99.61 145.71C99.61 144.65 99.61 139.34 99.61 129.79C118.25 129.75 129.9 129.72 134.56 129.71Z" id="e1hzDjMceQ"></path><path d="M134.56 129.71C169.66 129.71 179.66 113.38 179.66 77.72C179.66 49 155.88 25.72 126.55 25.72C123.86 25.72 102.36 25.72 99.67 25.72C55.49 25.72 19.68 61.54 19.68 105.71C19.68 109.71 19.68 141.71 19.68 145.71C19.68 167.8 37.58 185.71 59.67 185.71C59.67 185.71 59.62 185.71 59.62 185.71C81.7 185.71 99.61 167.8 99.61 145.71C99.61 144.65 99.61 139.34 99.61 129.79C118.25 129.75 129.9 129.72 134.56 129.71Z" id="cdFO59Ty"></path><path d="M99.67 93.72C87.33 93.72 77.34 84.27 77.34 72.61C77.34 60.95 87.33 51.5 99.67 51.5C112 51.5 122 60.95 122 72.61C122 84.27 112 93.72 99.67 93.72Z" id="cRrBYGJd9"></path><path d="M107.78 72.61C107.78 76.84 104.15 80.28 99.67 80.28C95.19 80.28 91.55 76.84 91.55 72.61C91.55 68.37 95.19 64.94 99.67 64.94C104.15 64.94 107.78 68.37 107.78 72.61" id="cfxqgsqOQ"></path></defs><g><g><g><use xlink:href="#jH1MYNn6k" opacity="1" fill="#ffffff" fill-opacity="1"></use><g><use xlink:href="#jH1MYNn6k" opacity="1" fill-opacity="0" stroke="#000000" stroke-width="1" stroke-opacity="0"></use></g></g><g><use xlink:href="#a190V6jpRH" opacity="1" fill="#1d1d1b" fill-opacity="1"></use><g><use xlink:href="#a190V6jpRH" opacity="1" fill-opacity="0" stroke="#000000" stroke-width="1" stroke-opacity="0"></use></g></g><g><use xlink:href="#h3GngO1My5" opacity="1" fill="#ffffff" fill-opacity="1"></use><g><use xlink:href="#h3GngO1My5" opacity="1" fill-opacity="0" stroke="#000000" stroke-width="1" stroke-opacity="0"></use></g></g><g><use xlink:href="#bmXlNYrsB" opacity="1" fill="#1d1d1b" fill-opacity="1"></use><g><use xlink:href="#bmXlNYrsB" opacity="1" fill-opacity="0" stroke="#000000" stroke-width="1" stroke-opacity="0"></use></g></g><g><use xlink:href="#e1hzDjMceQ" opacity="1" fill="#ffffff" fill-opacity="1"></use><g><use xlink:href="#e1hzDjMceQ" opacity="1" fill-opacity="0" stroke="#000000" stroke-width="1" stroke-opacity="0"></use></g></g><g><use xlink:href="#cdFO59Ty" opacity="1" fill="#000000" fill-opacity="0"></use><g><use xlink:href="#cdFO59Ty" opacity="1" fill-opacity="0" stroke="#1d1d1b" stroke-width="5" stroke-opacity="1"></use></g></g><g><use xlink:href="#cRrBYGJd9" opacity="1" fill="#000000" fill-opacity="0"></use><g><use xlink:href="#cRrBYGJd9" opacity="1" fill-opacity="0" stroke="#1d1d1b" stroke-width="4" stroke-opacity="1"></use></g></g><g><use xlink:href="#cfxqgsqOQ" opacity="1" fill="#1d1d1b" fill-opacity="1"></use><g><use xlink:href="#cfxqgsqOQ" opacity="1" fill-opacity="0" stroke="#000000" stroke-width="1" stroke-opacity="0"></use></g></g></g></g></svg>