<?xml version="1.0" encoding="UTF-8" standalone="no"?>
<!DOCTYPE svg PUBLIC "-//W3C//DTD SVG 1.1//EN" "http://www.w3.org/Graphics/SVG/1.1/DTD/svg11.dtd">
<svg version="1.1" xmlns="http://www.w3.org/2000/svg" xmlns:xlink="http://www.w3.org/1999/xlink" preserveAspectRatio="xMidYMid meet" viewBox="0 0 200 200" width="200" height="200"><defs><path d="M176.99 139.68C176.99 161.68 161.83 179.51 139.83 179.51C117.83 179.51 100 161.68 100 139.68C100 117.68 117.83 97.18 139.83 97.18C161.83 97.18 176.99 117.68 176.99 139.68" id="a5KjpdhDs"></path><path d="M173.65 139.01C173.64 138.57 173.67 137.91 173.61 137.06C173.55 135.35 173.34 132.85 172.7 129.71C172.07 126.58 170.99 122.8 168.99 118.8C166.99 114.82 164.05 110.58 159.83 107.11C155.66 103.64 150.22 100.91 144.06 100.18C137.91 99.37 131.19 100.47 125.14 103.56C119.07 106.6 113.7 111.56 109.84 117.61C107.91 120.63 106.31 123.9 105.19 127.35C104.07 130.76 103.39 134.43 103.16 137.92C103.16 138.02 103.14 138.51 103.11 139.39C103.1 139.61 103.1 139.73 103.09 139.75C103.1 139.71 103.1 139.94 103.1 140.01C103.1 140.08 103.11 140.62 103.11 140.69C103.1 141.6 103.17 142.5 103.22 143.4C103.38 145.2 103.63 146.99 104.03 148.75C104.86 152.27 106.15 155.68 108 158.77C111.62 164.98 117.17 169.9 123.35 172.73C126.43 174.18 129.66 175.15 132.86 175.67C134.45 175.94 136.09 176.11 137.58 176.18C139.29 176.24 140.78 176.22 142.33 176.08C148.48 175.65 154.03 173.56 158.38 170.55C162.76 167.55 165.95 163.72 168.19 160C170.44 156.27 171.7 152.61 172.45 149.55C173.21 146.5 173.46 143.94 173.56 142.34C173.63 141.56 173.62 140.78 173.64 140.33C173.65 139.85 173.66 139.61 173.66 139.61C173.66 139.68 173.66 139.45 173.65 139.01ZM180.31 140.47C180.29 140.96 180.31 141.59 180.24 142.64C180.13 144.69 179.88 147.52 179.02 151.13C178.17 154.71 176.73 159.03 174.09 163.51C171.49 167.99 167.57 172.59 162.21 176.19C156.9 179.82 150.09 182.29 142.79 182.72C140.99 182.84 139.07 182.8 137.33 182.68C135.37 182.53 133.54 182.3 131.66 181.89C127.94 181.09 124.25 179.75 120.76 177.91C117.29 176.07 114.01 173.74 111.05 171C108.14 168.22 105.49 165.08 103.35 161.56C102.28 159.8 101.34 157.96 100.48 156.07C99.65 154.17 98.97 152.19 98.4 150.18C97.85 148.16 97.46 146.09 97.19 144.01C97.1 142.96 96.96 141.91 96.94 140.86C96.94 140.81 96.93 140.54 96.92 140.07L96.91 139.6L96.91 139.23C96.93 138.35 96.93 137.86 96.93 137.76C97.03 135.61 97.22 133.48 97.61 131.43C98.01 129.37 98.51 127.34 99.19 125.36C100.52 121.4 102.34 117.62 104.64 114.21C109.19 107.36 115.46 101.78 122.59 98.37C129.7 94.93 137.6 93.79 144.78 94.82C152 95.84 158.39 99.01 163.22 103.01C168.06 107.05 171.57 111.69 174.02 116.12C176.52 120.55 177.97 124.77 178.86 128.31C179.76 131.85 180.04 134.72 180.18 136.68C180.28 137.65 180.27 138.4 180.3 138.91C180.31 139.42 180.32 139.68 180.32 139.68C180.32 139.75 180.32 140 180.31 140.47Z" id="f1XfVpW8o"></path><path d="M140.16 139.68C140.16 161.68 125 179.51 103 179.51C81 179.51 63.17 161.68 63.17 139.68C63.17 117.68 81 87.84 103 87.84C125 87.84 140.16 117.68 140.16 139.68" id="a5Dsfu6SUf"></path><path d="M137.26 139.68C137.26 139.68 137.26 139.44 137.25 138.97C137.24 138.49 137.26 137.8 137.2 136.88C137.11 135.06 136.89 132.36 136.23 128.96C135.58 125.57 134.51 121.47 132.7 116.98C130.85 112.53 128.42 107.57 124.72 103C121.11 98.44 116.18 94.17 110.21 92.16C108.75 91.69 107.12 91.26 105.68 91.13C105.03 91.01 104.03 91 103.12 90.97C103.11 90.97 102.97 90.96 102.95 90.96C102.98 90.96 102.76 90.96 103 90.96C102.99 90.96 102.97 90.96 102.92 90.97L102.62 90.98C102.26 91 102.06 91.01 102.02 91.01C101.61 91.04 101.21 91.03 100.8 91.1C99.18 91.23 97.56 91.64 95.95 92.11C94.35 92.68 92.76 93.33 91.22 94.2C85.05 97.62 79.72 103.3 75.54 109.81C71.35 116.32 68.26 123.8 66.73 131.5C66.39 133.4 66.09 135.4 65.98 137.24C65.93 137.69 65.93 138.24 65.91 138.75C65.91 138.8 65.9 139.05 65.89 139.52C65.89 139.63 65.88 139.7 65.88 139.71C65.88 139.64 65.89 139.79 65.89 139.83C65.89 139.85 65.9 139.97 65.91 140.19C65.98 141.91 66.02 142.87 66.03 143.06C66.39 146.88 67.3 150.63 68.74 154.14C70.27 157.61 72.28 160.82 74.66 163.68C77.09 166.49 79.97 168.83 83.01 170.72C83.79 171.17 84.57 171.61 85.34 172.05C86.15 172.41 86.96 172.77 87.76 173.14C88.54 173.53 89.38 173.79 90.2 174.06C91.03 174.31 91.82 174.67 92.67 174.83C93.51 175.02 94.34 175.19 95.16 175.4C95.98 175.62 96.76 175.65 97.55 175.79C99.02 176.09 100.96 176.07 102.7 176.16C102.73 176.16 102.84 176.17 103.04 176.17C103.09 176.18 103.11 176.18 103.12 176.18C103.3 176.18 102.97 176.17 103.03 176.17C103.04 176.17 103.09 176.17 103.18 176.17L103.79 176.13C104.51 176.1 104.91 176.08 104.99 176.07C105.79 176.01 106.59 176.05 107.36 175.89C108.91 175.64 110.45 175.46 111.9 175C114.86 174.3 117.5 173.02 119.97 171.69C124.8 168.83 128.45 164.99 130.97 161.13C133.51 157.26 134.93 153.39 135.83 150.17C136.2 148.53 136.61 147.06 136.72 145.82C136.9 144.56 137.1 143.53 137.11 142.52C137.21 140.58 137.26 139.55 137.26 139.55C137.26 139.58 137.26 139.65 137.26 139.68ZM143.06 139.8C143.06 139.8 143.03 140.84 142.96 142.77C142.97 143.69 142.79 145.03 142.61 146.55C142.48 148.11 142.07 149.77 141.67 151.66C140.71 155.39 139.16 159.9 136.27 164.52C133.4 169.12 129.11 173.8 123.32 177.35C120.39 179.03 117.16 180.55 113.61 181.42C111.86 181.96 110.03 182.21 108.17 182.49C107.25 182.68 106.31 182.65 105.36 182.72C105.26 182.73 104.79 182.75 103.93 182.8L103.22 182.83L103.04 182.84L102.78 182.83L102.7 182.83C102.5 182.82 102.39 182.81 102.37 182.81C100.57 182.67 98.9 182.69 96.79 182.28C95.79 182.1 94.73 182 93.77 181.73C92.81 181.48 91.85 181.2 90.88 180.92C87.08 179.63 83.28 177.97 79.89 175.56C73.02 170.91 67.31 164.17 63.85 156.2C62.22 152.18 61.16 147.91 60.68 143.55C60.67 143.33 60.6 142.23 60.49 140.26C60.48 140.01 60.47 139.88 60.47 139.85C60.47 139.75 60.46 139.77 60.46 139.58C60.46 139.56 60.46 139.5 60.47 139.38C60.47 138.92 60.48 138.66 60.48 138.61C60.49 138.09 60.48 137.61 60.53 137.03C60.64 134.74 60.93 132.65 61.29 130.49C62.84 121.97 66.06 113.87 70.54 106.65C75 99.45 80.87 93.02 88.23 88.82C90.06 87.77 92.02 86.94 94 86.23C96.02 85.6 98.07 85.08 100.16 84.88C100.68 84.8 101.2 84.79 101.73 84.77C101.78 84.77 102.04 84.76 102.51 84.74L102.9 84.73L103 84.73L103.22 84.73C103.32 84.74 103.38 84.74 103.39 84.74C104.32 84.8 105.16 84.8 106.31 84.97C108.49 85.23 110.35 85.75 112.25 86.42C115.95 87.84 119.21 89.86 121.94 92.2C124.68 94.53 126.99 97.08 128.99 99.66C132.93 104.86 135.73 110.1 137.72 114.93C139.69 119.78 140.93 124.17 141.71 127.86C142.5 131.54 142.8 134.51 142.93 136.55C143.02 137.56 143.02 138.35 143.04 138.88C143.05 139.41 143.06 139.68 143.06 139.68C143.06 139.7 143.06 139.78 143.06 139.8Z" id="c2F4t0IRg"></path><path d="M134.56 123.51C169.66 123.51 179.66 107.18 179.66 71.52C179.66 42.8 155.88 19.53 126.55 19.53C123.86 19.53 102.36 19.53 99.67 19.53C55.49 19.53 19.68 55.34 19.68 99.52C19.68 103.52 19.68 135.51 19.68 139.51C19.68 161.6 37.58 179.51 59.67 179.51C59.67 179.51 59.62 179.51 59.62 179.51C81.7 179.51 99.61 161.6 99.61 139.51C99.61 138.45 99.61 133.15 99.61 123.6C118.25 123.55 129.9 123.53 134.56 123.51Z" id="a6xxhlPXZt"></path><path d="M134.56 123.51C169.66 123.51 179.66 107.18 179.66 71.52C179.66 42.8 155.88 19.53 126.55 19.53C123.86 19.53 102.36 19.53 99.67 19.53C55.49 19.53 19.68 55.34 19.68 99.52C19.68 103.52 19.68 135.51 19.68 139.51C19.68 161.6 37.58 179.51 59.67 179.51C59.67 179.51 59.62 179.51 59.62 179.51C81.7 179.51 99.61 161.6 99.61 139.51C99.61 138.45 99.61 133.15 99.61 123.6C118.25 123.55 129.9 123.53 134.56 123.51Z" id="a67rjvMccf"></path><path d="M102.12 19.69C102.45 46.94 102.63 62.08 102.67 65.11C102.69 66.76 101.36 68.12 99.7 68.14C98.05 68.16 96.69 66.83 96.67 65.18C96.67 65.16 96.67 65.13 96.67 65.11C96.72 60.56 97.16 24.23 97.21 19.69C97.23 18.34 98.34 17.25 99.7 17.27C101.03 17.28 102.1 18.37 102.12 19.69" id="b1Y98OaqmO"></path><path d="M122.56 19.53C122.56 19.53 122.69 28.94 122.9 43.08C122.93 46.61 122.96 50.43 123 54.48C123.02 56.5 123.03 58.58 123.05 60.71C123.06 61.77 123.06 62.85 123.07 63.93C123.05 64.64 123.07 64.99 123.01 65.74C122.97 66.42 122.88 67.02 122.8 67.65C122.05 72.64 119.55 77.55 115.67 81.16C111.82 84.81 106.59 87.13 101.19 87.46C95.82 87.84 90.31 86.23 86.02 83.1C81.71 80.01 78.58 75.48 77.2 70.62C76.84 69.41 76.59 68.18 76.45 66.95C76.36 66.34 76.33 65.72 76.29 65.11C76.27 64.49 76.26 63.88 76.27 63.38C76.28 61.25 76.3 59.17 76.32 57.15C76.36 53.1 76.39 49.27 76.42 45.74C76.47 38.68 76.61 32.79 76.67 28.67C76.74 24.55 76.78 22.19 76.78 22.19C76.8 20.87 77.89 19.81 79.22 19.83C80.51 19.86 81.55 20.91 81.58 22.19C81.58 22.19 81.61 24.55 81.68 28.67C81.74 32.79 81.88 38.68 81.93 45.74C81.96 49.27 82 53.1 82.03 57.15C82.05 59.17 82.07 61.25 82.09 63.38C82.08 63.94 82.1 64.39 82.11 64.85C82.15 65.3 82.17 65.77 82.24 66.23C82.35 67.15 82.54 68.07 82.82 68.98C83.87 72.6 86.23 75.99 89.48 78.28C92.7 80.61 96.78 81.75 100.81 81.48C104.83 81.25 108.72 79.56 111.63 76.84C114.56 74.15 116.44 70.49 117.03 66.75C117.09 66.29 117.16 65.8 117.19 65.39C117.23 65.04 117.23 64.3 117.25 63.93C117.25 62.85 117.26 61.77 117.27 60.71C117.28 58.58 117.3 56.5 117.32 54.48C117.35 50.43 117.39 46.61 117.42 43.08C117.62 28.94 117.76 19.53 117.76 19.53C117.78 18.2 118.87 17.14 120.19 17.16C121.49 17.18 122.54 18.23 122.56 19.53" id="nffBTmiR2"></path></defs><g><g><g><use xlink:href="#a5KjpdhDs" opacity="1" fill="#ffffff" fill-opacity="1"></use><g><use xlink:href="#a5KjpdhDs" opacity="1" fill-opacity="0" stroke="#000000" stroke-width="1" stroke-opacity="0"></use></g></g><g><use xlink:href="#f1XfVpW8o" opacity="1" fill="#1d1d1b" fill-opacity="1"></use><g><use xlink:href="#f1XfVpW8o" opacity="1" fill-opacity="0" stroke="#000000" stroke-width="1" stroke-opacity="0"></use></g></g><g><use xlink:href="#a5Dsfu6SUf" opacity="1" fill="#ffffff" fill-opacity="1"></use><g><use xlink:href="#a5Dsfu6SUf" opacity="1" fill-opacity="0" stroke="#000000" stroke-width="1" stroke-opacity="0"></use></g></g><g><use xlink:href="#c2F4t0IRg" opacity="1" fill="#1d1d1b" fill-opacity="1"></use><g><use xlink:href="#c2F4t0IRg" opacity="1" fill-opacity="0" stroke="#000000" stroke-width="1" stroke-opacity="0"></use></g></g><g><use xlink:href="#a6xxhlPXZt" opacity="1" fill="#ffffff" fill-opacity="1"></use><g><use xlink:href="#a6xxhlPXZt" opacity="1" fill-opacity="0" stroke="#000000" stroke-width="1" stroke-opacity="0"></use></g></g><g><use xlink:href="#a67rjvMccf" opacity="1" fill="#000000" fill-opacity="0"></use><g><use xlink:href="#a67rjvMccf" opacity="1" fill-opacity="0" stroke="#1d1d1b" stroke-width="5" stroke-opacity="1"></use></g></g><g><use xlink:href="#b1Y98OaqmO" opacity="1" fill="#1d1d1b" fill-opacity="1"></use><g><use xlink:href="#b1Y98OaqmO" opacity="1" fill-opacity="0" stroke="#000000" stroke-width="1" stroke-opacity="0"></use></g></g><g><use xlink:href="#nffBTmiR2" opacity="1" fill="#1d1d1b" fill-opacity="1"></use><g><use xlink:href="#nffBTmiR2" opacity="1" fill-opacity="0" stroke="#000000" stroke-width="1" stroke-opacity="0"></use></g></g></g></g></svg>