<?xml version="1.0" encoding="UTF-8" standalone="no"?>
<!DOCTYPE svg PUBLIC "-//W3C//DTD SVG 1.1//EN" "http://www.w3.org/Graphics/SVG/1.1/DTD/svg11.dtd">
<svg version="1.1" xmlns="http://www.w3.org/2000/svg" xmlns:xlink="http://www.w3.org/1999/xlink" preserveAspectRatio="xMidYMid meet" viewBox="0 0 200 200" width="200" height="200"><defs><path d="M20 167.06C20 144.59 55.65 137.18 99.83 137.18C144 137.18 180 147.23 180 167.57C180 181.32 167.64 189.8 152.18 189.8C134.85 189.8 124.18 180.78 124.18 167.03C124.18 179.68 115.52 187.83 100.18 187.83C83.52 187.83 76.19 179.68 76.19 167.03C76.19 180.78 64.52 189.8 47.86 189.8C32.4 189.8 20 180.81 20 167.06" id="e1ojSh6rKQ"></path><path d="M23.34 167.06C23.34 169.94 24.02 172.73 25.35 175.2C26.68 177.67 28.65 179.82 31.02 181.51C33.38 183.21 36.14 184.47 39.05 185.29C40.51 185.69 42.01 185.99 43.53 186.19C45.06 186.38 46.52 186.47 48.13 186.47C51.26 186.49 54.36 186.15 57.32 185.41C60.28 184.66 63.07 183.44 65.5 181.8C67.93 180.14 69.94 177.98 71.31 175.45C72.71 172.93 73.45 170.03 73.52 167.03C73.52 167.02 73.52 166.95 73.52 166.94C73.56 165.47 74.78 164.31 76.25 164.34C77.71 164.38 78.86 165.58 78.85 167.03C78.85 167.03 78.85 167.03 78.85 167.03C79.01 169.78 79.45 172.46 80.48 174.79C81.46 177.12 82.96 179.1 84.94 180.55C86.91 182 89.28 183.04 91.88 183.65C93.17 183.96 94.51 184.18 95.88 184.31C97.3 184.44 98.51 184.5 100.09 184.5C101.39 184.5 102.83 184.45 104.17 184.31C105.53 184.17 106.85 183.94 108.14 183.61C110.71 182.96 113.08 181.87 115.1 180.4C117.11 178.91 118.68 176.95 119.74 174.65C120.85 172.37 121.36 169.74 121.51 167.03C121.87 167.03 123.65 167.03 126.85 167.03C126.85 167.03 126.85 167.03 126.85 167.03C126.93 169.51 127.37 171.94 128.28 174.14C129.19 176.33 130.51 178.32 132.2 179.97C135.6 183.27 140.32 185.21 145.3 186C146.55 186.2 147.82 186.33 149.09 186.42C149.74 186.44 150.29 186.48 150.99 186.48C151.06 186.48 151.4 186.49 152.02 186.49C152.57 186.48 152.88 186.47 152.94 186.47C155.48 186.4 158 186.1 160.43 185.49C165.27 184.33 169.73 181.92 172.74 178.39C174.24 176.63 175.34 174.6 175.98 172.4C176.3 171.33 176.51 170.09 176.58 169.06C176.68 167.73 176.67 166.71 176.51 165.6C175.94 161.24 172.84 157.37 168.77 154.43C164.71 151.47 159.83 149.29 154.82 147.55C149.78 145.82 144.53 144.53 139.21 143.52C128.56 141.53 117.64 140.6 106.72 140.29C101.27 140.13 95.75 140.16 90.29 140.33C84.81 140.49 79.34 140.78 73.91 141.27C68.48 141.76 63.07 142.43 57.75 143.4C52.43 144.37 47.19 145.65 42.22 147.44C37.28 149.24 32.54 151.59 28.94 154.87C27.15 156.51 25.7 158.38 24.74 160.43C24.26 161.46 23.91 162.53 23.67 163.64C23.56 164.19 23.48 164.76 23.41 165.33C23.41 165.38 23.39 165.64 23.36 166.1C23.34 166.62 23.34 166.94 23.34 167.06ZM16.67 166.97L16.7 165.94C16.76 165.16 16.79 164.73 16.8 164.65C16.89 163.84 17.02 163.04 17.19 162.24C17.54 160.65 18.08 159.08 18.79 157.61C20.19 154.66 22.25 152.12 24.56 150.05C29.21 145.9 34.65 143.38 40.08 141.44C45.53 139.52 51.09 138.25 56.65 137.26C62.21 136.28 67.8 135.62 73.38 135.15C78.96 134.68 84.55 134.42 90.13 134.29C95.71 134.17 101.25 134.14 106.87 134.25C118.04 134.5 129.24 135.38 140.35 137.39C145.9 138.41 151.43 139.69 156.87 141.51C162.29 143.35 167.68 145.64 172.6 149.15C175.05 150.91 177.38 153.01 179.29 155.6C181.19 158.17 182.62 161.3 183.11 164.61C183.37 166.24 183.37 168 183.27 169.43C183.15 171.15 182.89 172.65 182.44 174.24C181.56 177.36 180 180.3 177.92 182.76C173.73 187.73 167.87 190.62 162.01 192.02C159.06 192.73 156.05 193.08 153.07 193.12C152.68 193.11 152.36 193.13 151.91 193.12C151.81 193.11 150.98 193.09 150.88 193.09C150.19 193.07 149.37 193.01 148.63 192.96C147.15 192.83 145.67 192.65 144.19 192.38C141.24 191.83 138.3 190.95 135.51 189.63C132.73 188.29 130.1 186.49 127.91 184.2C125.72 181.9 123.99 179.14 122.94 176.17C121.86 173.19 121.47 170.07 121.51 167.03C121.51 167.03 121.51 167.03 121.51 167.03C121.42 165.56 122.54 164.29 124.01 164.2C125.48 164.11 126.74 165.22 126.83 166.69C126.83 166.7 126.83 166.71 126.83 166.73C126.84 166.91 126.85 167.01 126.85 167.03C127 170.32 126.53 173.75 125.25 177.01C123.94 180.24 121.76 183.21 119.01 185.41C116.28 187.64 113.04 189.06 109.81 189.94C108.18 190.38 106.54 190.68 104.91 190.87C103.26 191.06 101.69 191.15 99.99 191.16C98.56 191.15 96.76 191.05 95.19 190.88C93.56 190.7 91.93 190.41 90.31 190C87.07 189.18 83.78 187.82 81.01 185.55C78.22 183.32 76.09 180.23 74.91 176.96C73.74 173.66 73.38 170.27 73.52 167.03C73.52 167.03 73.52 167.03 73.52 167.03C76.72 167.03 78.5 167.03 78.85 167.03C78.95 170.76 78.2 174.64 76.49 178.11C74.78 181.58 72.15 184.57 69.09 186.82C66.02 189.08 62.54 190.62 58.99 191.62C55.43 192.6 51.79 193.07 48.18 193.13C46.42 193.15 44.51 193.05 42.69 192.83C40.87 192.61 39.05 192.26 37.26 191.77C33.68 190.8 30.18 189.25 27.06 187.03C23.96 184.8 21.25 181.85 19.41 178.36C17.55 174.88 16.64 170.91 16.67 167.06C16.67 167.05 16.67 167.02 16.67 167.01C16.67 167 16.67 166.98 16.67 166.97" id="b12urXQWLH"></path><path d="M177.33 125.15C177.33 142.6 162.16 156.75 140.17 156.75C118.17 156.75 100.34 142.6 100.34 125.15C100.34 107.7 118.17 91.44 140.17 91.44C162.16 91.44 177.33 107.7 177.33 125.15" id="a1bkNQ1JxD"></path><path d="M173.99 124.58C173.99 124.2 173.99 123.64 173.93 122.91C173.85 121.45 173.56 119.31 172.82 116.65C172.04 114.01 170.73 110.85 168.45 107.66C166.18 104.49 162.95 101.27 158.7 98.86C154.49 96.44 149.34 94.7 143.72 94.3C138.09 93.87 132.05 94.57 126.31 96.73C120.57 98.86 115.12 102.4 110.94 107.15C108.86 109.52 107.07 112.16 105.78 115.02C104.51 117.85 103.69 120.97 103.49 123.92C103.32 127.11 103.65 130.14 104.69 133.1C105.71 136.04 107.28 138.82 109.35 141.22C111.39 143.62 113.82 145.72 116.5 147.38C117.83 148.21 119.21 148.96 120.62 149.63C122.05 150.25 123.48 150.84 124.95 151.29C127.87 152.25 130.86 152.82 133.8 153.14C135.27 153.31 136.73 153.4 138.1 153.45C138.85 153.45 139.59 153.45 140.32 153.45C141.03 153.42 141.74 153.42 142.44 153.36C148.04 153.05 153.21 151.74 157.5 149.64C161.81 147.56 165.22 144.79 167.69 141.92C170.17 139.04 171.66 136.05 172.57 133.51C173.44 130.97 173.75 128.79 173.88 127.42C173.95 126.79 173.96 126.13 173.98 125.7C173.99 125.28 174 125.06 174 125.06C174 125.15 173.99 124.96 173.99 124.58ZM180.65 125.88C180.64 126.3 180.64 126.9 180.55 127.91C180.39 129.8 180.04 132.43 178.96 135.7C177.85 138.93 175.99 142.73 172.92 146.36C169.89 150 165.62 153.37 160.44 155.81C155.26 158.27 149.18 159.72 142.76 160.01C141.96 160.05 141.15 160.03 140.34 160.04C139.55 160.02 138.76 159.99 137.96 159.96C136.25 159.85 134.59 159.7 132.94 159.43C129.62 158.88 126.28 158.02 123.02 156.76C119.76 155.51 116.57 153.9 113.55 151.93C110.56 149.91 107.71 147.57 105.24 144.76C104.03 143.35 102.89 141.84 101.86 140.25C100.84 138.64 99.97 136.92 99.26 135.12C98.53 133.33 98 131.45 97.67 129.52C97.47 128.56 97.39 127.58 97.3 126.6C97.3 126.5 97.28 125.98 97.25 125.04C97.26 124.25 97.27 123.81 97.27 123.72C97.32 122.82 97.39 121.65 97.55 120.74C97.67 119.77 97.88 118.82 98.09 117.87C98.57 115.98 99.24 114.16 100.03 112.4C101.64 108.91 103.78 105.73 106.32 102.99C111.37 97.48 117.75 93.58 124.35 91.29C130.97 88.98 137.84 88.33 144.18 88.91C150.57 89.53 156.46 91.46 161.35 94.25C166.23 97.07 170.14 100.59 172.99 104.23C175.89 107.84 177.71 111.54 178.83 114.71C179.93 117.9 180.31 120.56 180.49 122.37C180.59 123.27 180.61 123.97 180.63 124.44C180.65 124.91 180.66 125.15 180.66 125.15C180.66 125.24 180.65 125.46 180.65 125.88Z" id="f550vxjnJH"></path><path d="M140.5 125.15C140.5 142.6 125.34 156.75 103.34 156.75C81.34 156.75 63.51 142.6 63.51 125.15C63.51 107.7 81.34 84.03 103.34 84.03C125.34 84.03 140.5 107.7 140.5 125.15" id="jLWbQU2Ud"></path><path d="M137.6 125.15C137.6 125.15 137.56 124.32 137.5 122.76C137.4 121.2 137.08 118.88 136.35 115.98C135.53 113.11 134.32 109.62 132.26 105.94C130.16 102.3 127.39 98.35 123.51 94.98C122.58 94.1 121.48 93.39 120.45 92.56C119.36 91.82 118.17 91.18 117.01 90.48C116.4 90.2 115.77 89.92 115.15 89.64C114.51 89.38 113.91 89.02 113.23 88.86C111.92 88.49 110.56 87.91 109.26 87.78C108.6 87.67 107.95 87.53 107.29 87.39C106.54 87.31 105.71 87.29 104.91 87.23C104.83 87.23 104.43 87.2 103.7 87.16L103.4 87.14L103.25 87.14C103.2 87.13 103.18 87.13 103.17 87.13C102.96 87.12 103.37 87.14 103.31 87.14C103.25 87.14 102.81 87.18 102.76 87.18C102.03 87.24 101.29 87.3 100.55 87.34C99.81 87.34 99.08 87.5 98.34 87.65C97.6 87.79 96.85 87.94 96.11 88.08C95.38 88.31 94.64 88.55 93.91 88.79C93.17 89.01 92.43 89.24 91.72 89.6C91.01 89.93 90.29 90.25 89.56 90.58C88.85 90.91 88.18 91.37 87.47 91.76C86.05 92.5 84.76 93.53 83.42 94.47C80.85 96.52 78.37 98.79 76.23 101.43C71.85 106.57 68.48 112.89 66.95 119.41C66.9 119.65 66.55 121.52 66.5 121.76C66.39 122.59 66.36 123.56 66.29 124.45C66.28 124.5 66.27 124.73 66.24 125.14C66.23 125.24 66.23 125.29 66.23 125.31C66.24 125.01 66.23 125.27 66.24 125.22C66.24 125.23 66.24 125.25 66.24 125.3L66.26 125.6L66.33 126.82L66.39 128.04C66.53 128.76 66.6 129.16 66.62 129.24C67.17 132.45 68.37 135.57 70.24 138.27C72.07 141 74.36 143.4 76.9 145.46C79.55 147.39 82.39 149.01 85.35 150.22C86.1 150.51 86.87 150.75 87.61 151.02C87.69 151.04 88.06 151.17 88.73 151.41C89.42 151.58 89.81 151.68 89.88 151.7C90.64 151.9 91.4 152.09 92.15 152.29C92.92 152.42 93.69 152.56 94.45 152.69C95.98 153.01 97.42 153.06 98.87 153.25C99.55 153.37 100.44 153.32 101.21 153.36C101.95 153.38 102.7 153.4 103.44 153.42C109.32 153.39 114.78 152.23 119.41 150.32C120.61 149.92 121.64 149.25 122.73 148.75C123.78 148.19 124.73 147.51 125.7 146.93C126.58 146.22 127.49 145.58 128.3 144.89C129.05 144.13 129.87 143.48 130.52 142.72C133.22 139.76 134.98 136.68 135.94 133.98C136.23 133.33 136.35 132.66 136.55 132.05C136.73 131.44 136.94 130.86 136.99 130.35C137.09 129.83 137.18 129.35 137.26 128.91C137.3 128.69 137.34 128.48 137.38 128.28C137.41 128.07 137.41 127.82 137.43 127.62C137.54 125.9 137.6 124.99 137.6 124.99C137.6 125.02 137.6 125.12 137.6 125.15ZM143.4 125.31C143.4 125.31 143.36 126.22 143.28 127.94C143.27 128.15 143.27 128.37 143.25 128.62C143.21 128.9 143.16 129.18 143.12 129.48C143.03 130.08 142.93 130.74 142.82 131.45C142.74 132.17 142.52 132.86 142.32 133.63C142.09 134.38 141.94 135.21 141.61 136.02C140.49 139.38 138.42 143.24 135.19 146.93C134.4 147.87 133.45 148.7 132.53 149.63C131.57 150.5 130.51 151.3 129.44 152.16C128.29 152.9 127.15 153.73 125.91 154.42C124.63 155.06 123.39 155.85 121.99 156.37C116.53 158.74 110.14 160.03 103.45 160.07C103.43 160.07 103.34 160.07 103.16 160.07L103.02 160.06L102.72 160.05L102.13 160.02C101.42 159.98 101.02 159.96 100.94 159.96C100.12 159.89 99.4 159.92 98.49 159.78C96.74 159.53 94.91 159.39 93.23 158.93C92.38 158.72 91.52 158.52 90.65 158.32C89.81 158.05 88.95 157.78 88.1 157.5C88.01 157.48 87.59 157.34 86.82 157.09C86.07 156.77 85.65 156.6 85.56 156.57C84.73 156.21 83.88 155.88 83.05 155.51C79.77 153.9 76.55 152.01 73.6 149.64C70.66 147.26 67.97 144.45 65.8 141.18C63.61 137.94 62.1 134.15 61.33 130.21C61.31 130.11 61.22 129.62 61.04 128.73L60.93 127.22L60.83 125.71L60.8 125.33C60.8 125.28 60.8 125.24 60.8 125.24C60.8 125.13 60.78 125.34 60.79 124.98C60.79 124.97 60.8 124.91 60.8 124.81C60.83 124.4 60.84 124.17 60.84 124.13C60.9 123.2 60.91 122.33 61.02 121.36C61.07 121.05 61.47 118.61 61.52 118.3C63.21 110.55 66.85 103.57 71.66 97.67C76.4 91.71 82.5 86.93 89.31 83.94C90.14 83.52 91.02 83.22 91.9 82.94C92.78 82.65 93.66 82.36 94.53 82.08C95.43 81.89 96.33 81.71 97.23 81.53C98.12 81.34 99.01 81.15 99.93 81.12C100.83 81.07 101.73 81.01 102.63 80.96C102.7 80.95 103.23 80.92 103.3 80.92C103.28 80.92 103.75 80.93 103.59 80.93C103.59 80.93 103.62 80.93 103.66 80.93L103.82 80.94L104.12 80.97C104.85 81.02 105.25 81.05 105.33 81.06C106.14 81.13 106.91 81.16 107.74 81.26C108.64 81.43 109.54 81.61 110.42 81.81C112.25 82.12 113.75 82.82 115.35 83.36C116.15 83.6 116.86 84.03 117.59 84.39C118.32 84.75 119.04 85.12 119.76 85.48C121.09 86.36 122.44 87.17 123.67 88.09C124.84 89.06 126.09 89.92 127.13 90.94C131.4 94.93 134.64 99.19 136.97 103.27C139.29 107.37 140.73 111.24 141.73 114.48C142.64 117.77 143.06 120.45 143.23 122.3C143.34 124.16 143.4 125.15 143.4 125.15C143.4 125.18 143.4 125.28 143.4 125.31Z" id="a4H24CuPyq"></path><path d="M134.9 112.33C170 112.33 180 99.37 180 71.08C180 48.29 156.22 29.82 126.89 29.82C124.2 29.82 102.69 29.82 100 29.82C55.83 29.82 20.01 58.24 20.01 93.29C20.01 96.46 20.01 121.85 20.01 125.02C20.01 142.54 37.92 156.75 60.01 156.75C60 156.75 59.96 156.75 59.95 156.75C82.04 156.75 99.95 142.54 99.95 125.02C99.95 124.18 99.95 119.97 99.95 112.39C118.59 112.36 130.24 112.34 134.9 112.33Z" id="e1ERE6IZvD"></path><path d="M134.9 112.33C170 112.33 180 99.37 180 71.08C180 48.29 156.22 29.82 126.89 29.82C124.2 29.82 102.69 29.82 100 29.82C55.83 29.82 20.01 58.24 20.01 93.29C20.01 96.46 20.01 121.85 20.01 125.02C20.01 142.54 37.92 156.75 60.01 156.75C60 156.75 59.96 156.75 59.95 156.75C82.04 156.75 99.95 142.54 99.95 125.02C99.95 124.18 99.95 119.97 99.95 112.39C118.59 112.36 130.24 112.34 134.9 112.33Z" id="bSM0mEd7U"></path><path d="M102.46 29.98C102.79 55.81 102.97 70.16 103 73.03C103.03 74.69 101.7 76.05 100.04 76.07C98.39 76.09 97.03 74.77 97.01 73.11C97.01 73.09 97.01 73.05 97.01 73.03C97.06 68.73 97.5 34.29 97.55 29.98C97.57 28.63 98.68 27.54 100.04 27.56C101.37 27.58 102.44 28.66 102.46 29.98" id="aeSt437su"></path><path d="M122.9 29.82C122.9 29.82 123.03 38.86 123.24 52.41C123.27 55.8 123.3 59.47 123.34 63.35C123.36 65.29 123.37 67.29 123.39 69.32C123.4 70.38 123.42 71.3 123.4 72.49C123.4 72.96 123.35 73.63 123.29 74.28C123.22 74.89 123.14 75.49 123.02 76.1C122.13 80.93 119.4 85.53 115.5 88.8C111.62 92.11 106.58 94.09 101.44 94.39C96.32 94.71 91.09 93.32 86.83 90.53C82.56 87.76 79.29 83.59 77.73 78.93C76.94 76.61 76.59 74.16 76.6 71.85C76.62 69.82 76.64 67.82 76.65 65.88C76.69 62 76.73 58.33 76.76 54.94C76.81 48.16 76.95 42.52 77.01 38.56C77.07 34.61 77.11 32.35 77.11 32.35C77.14 31.03 78.23 29.97 79.56 30C80.85 30.02 81.89 31.07 81.91 32.35C81.91 32.35 81.95 34.61 82.02 38.56C82.08 42.52 82.22 48.16 82.27 54.94C82.3 58.33 82.34 62 82.38 65.88C82.39 67.82 82.41 69.82 82.43 71.85C82.42 73.63 82.69 75.34 83.28 77.04C84.43 80.42 86.85 83.5 90.06 85.56C93.26 87.63 97.2 88.65 101.1 88.4C104.99 88.2 108.78 86.73 111.69 84.28C114.62 81.85 116.62 78.48 117.28 74.99C117.38 74.55 117.43 74.11 117.49 73.67C117.52 73.27 117.57 72.91 117.57 72.34C117.58 71.32 117.59 70.32 117.6 69.32C117.62 67.29 117.64 65.29 117.65 63.35C117.69 59.47 117.72 55.8 117.76 52.41C117.96 38.86 118.1 29.82 118.1 29.82C118.12 28.5 119.21 27.44 120.53 27.46C121.83 27.48 122.87 28.53 122.9 29.82" id="d4fU05rSUO"></path></defs><g><g><g><use xlink:href="#e1ojSh6rKQ" opacity="1" fill="#ffffff" fill-opacity="1"></use><g><use xlink:href="#e1ojSh6rKQ" opacity="1" fill-opacity="0" stroke="#000000" stroke-width="1" stroke-opacity="0"></use></g></g><g><use xlink:href="#b12urXQWLH" opacity="1" fill="#1d1d1b" fill-opacity="1"></use><g><use xlink:href="#b12urXQWLH" opacity="1" fill-opacity="0" stroke="#000000" stroke-width="1" stroke-opacity="0"></use></g></g><g><use xlink:href="#a1bkNQ1JxD" opacity="1" fill="#ffffff" fill-opacity="1"></use><g><use xlink:href="#a1bkNQ1JxD" opacity="1" fill-opacity="0" stroke="#000000" stroke-width="1" stroke-opacity="0"></use></g></g><g><use xlink:href="#f550vxjnJH" opacity="1" fill="#1d1d1b" fill-opacity="1"></use><g><use xlink:href="#f550vxjnJH" opacity="1" fill-opacity="0" stroke="#000000" stroke-width="1" stroke-opacity="0"></use></g></g><g><use xlink:href="#jLWbQU2Ud" opacity="1" fill="#ffffff" fill-opacity="1"></use><g><use xlink:href="#jLWbQU2Ud" opacity="1" fill-opacity="0" stroke="#000000" stroke-width="1" stroke-opacity="0"></use></g></g><g><use xlink:href="#a4H24CuPyq" opacity="1" fill="#1d1d1b" fill-opacity="1"></use><g><use xlink:href="#a4H24CuPyq" opacity="1" fill-opacity="0" stroke="#000000" stroke-width="1" stroke-opacity="0"></use></g></g><g><use xlink:href="#e1ERE6IZvD" opacity="1" fill="#ffffff" fill-opacity="1"></use><g><use xlink:href="#e1ERE6IZvD" opacity="1" fill-opacity="0" stroke="#000000" stroke-width="1" stroke-opacity="0"></use></g></g><g><use xlink:href="#bSM0mEd7U" opacity="1" fill="#000000" fill-opacity="0"></use><g><use xlink:href="#bSM0mEd7U" opacity="1" fill-opacity="0" stroke="#1d1d1b" stroke-width="5" stroke-opacity="1"></use></g></g><g><use xlink:href="#aeSt437su" opacity="1" fill="#1d1d1b" fill-opacity="1"></use><g><use xlink:href="#aeSt437su" opacity="1" fill-opacity="0" stroke="#000000" stroke-width="1" stroke-opacity="0"></use></g></g><g><use xlink:href="#d4fU05rSUO" opacity="1" fill="#1d1d1b" fill-opacity="1"></use><g><use xlink:href="#d4fU05rSUO" opacity="1" fill-opacity="0" stroke="#000000" stroke-width="1" stroke-opacity="0"></use></g></g></g></g></svg>