<?xml version="1.0" encoding="UTF-8" standalone="no"?>
<!DOCTYPE svg PUBLIC "-//W3C//DTD SVG 1.1//EN" "http://www.w3.org/Graphics/SVG/1.1/DTD/svg11.dtd">
<svg version="1.1" xmlns="http://www.w3.org/2000/svg" xmlns:xlink="http://www.w3.org/1999/xlink" preserveAspectRatio="xMidYMid meet" viewBox="0 0 200 200" width="200" height="200"><defs><path d="M100 21.3C77.91 21.3 60 39.2 60 61.29C60 105.47 81.59 181.28 100 181.28C118.41 181.28 140 105.47 140 61.29C140 39.2 122.09 21.3 100 21.3" id="g1TIedvTMB"></path><path d="M60 61.29C60 105.47 81.59 181.28 100 181.28C118.41 181.28 140 105.47 140 61.29C140 39.2 122.09 21.3 100 21.3C77.91 21.3 60 39.2 60 61.29Z" id="l18TBLDtK8"></path><path d="M101.16 140.6C101.16 140.6 100.69 140.67 99.85 140.79C99.02 140.9 97.84 141.02 96.42 141.15C93.58 141.38 89.78 141.52 85.94 141.27C84.98 141.2 84.02 141.1 83.07 141.01C82.13 140.87 81.19 140.75 80.29 140.59C79.39 140.4 78.51 140.25 77.69 140.04C76.86 139.81 76.08 139.6 75.36 139.38C74.65 139.12 74 138.87 73.42 138.66C72.83 138.47 72.35 138.17 71.94 137.99C71.13 137.59 70.66 137.36 70.66 137.36C69.34 136.72 68.79 135.12 69.44 133.8C70.09 132.47 71.68 131.93 73.01 132.58C73.03 132.59 73.06 132.6 73.09 132.62C73.11 132.63 73.32 132.74 73.35 132.76C73.35 132.76 73.7 132.95 74.33 133.29C74.65 133.44 75 133.7 75.48 133.88C75.94 134.07 76.47 134.3 77.05 134.54C77.65 134.74 78.31 134.96 79 135.19C79.7 135.41 80.48 135.57 81.26 135.78C82.05 135.96 82.89 136.1 83.74 136.27C84.6 136.38 85.47 136.52 86.35 136.62C89.87 137.01 93.47 137.04 96.17 136.95C97.51 136.89 98.63 136.82 99.41 136.75C100.18 136.68 100.61 136.64 100.61 136.64C100.62 136.64 100.68 136.63 100.69 136.63C101.79 136.52 102.77 137.33 102.87 138.43C102.98 139.49 102.21 140.45 101.16 140.6" id="b2YNoSif8"></path><path d="M104.22 158.63C104.22 158.63 103.8 158.69 103.06 158.8C102.33 158.9 101.29 159.01 100.05 159.13C97.56 159.34 94.22 159.47 90.84 159.26C89.99 159.21 89.15 159.11 88.31 159.04C87.48 158.92 86.66 158.82 85.86 158.68C85.06 158.51 84.29 158.38 83.56 158.2C82.83 157.99 82.14 157.8 81.5 157.62C80.87 157.39 80.29 157.18 79.78 156.99C79.26 156.82 78.83 156.56 78.46 156.4C77.74 156.04 77.33 155.84 77.33 155.84C76 155.2 75.45 153.6 76.1 152.28C76.74 150.95 78.34 150.4 79.66 151.05C79.69 151.06 79.73 151.08 79.76 151.1C79.79 151.11 79.99 151.22 80.01 151.24C80.01 151.24 80.32 151.4 80.85 151.69C81.13 151.83 81.42 152.05 81.84 152.2C82.24 152.37 82.69 152.57 83.19 152.78C83.71 152.96 84.28 153.15 84.88 153.35C85.48 153.54 86.15 153.68 86.83 153.87C87.52 154.02 88.24 154.15 88.98 154.3C89.72 154.4 90.48 154.52 91.25 154.61C94.31 154.96 97.45 155 99.8 154.93C100.97 154.88 101.95 154.82 102.62 154.77C103.29 154.7 103.67 154.67 103.67 154.67C103.68 154.67 103.74 154.66 103.75 154.66C104.85 154.56 105.82 155.37 105.92 156.47C106.02 157.53 105.26 158.48 104.22 158.63" id="e3fdrofJPF"></path><path d="M106.01 78.09C106.35 82.49 103.21 86.33 99 86.65C94.8 86.97 91.11 83.67 90.77 79.26C90.43 74.86 93.57 71.02 97.78 70.7C101.98 70.38 105.67 73.68 106.01 78.09" id="dNFYw4Om"></path><path d="M119.25 76.89C118.94 76.54 118.64 76.17 118.32 75.84C117.52 75 116.69 74.19 115.84 73.41C114.13 71.85 112.33 70.41 110.42 69.18C108.53 67.93 106.53 66.89 104.47 66.18C103.45 65.83 102.41 65.54 101.36 65.38C100.85 65.28 100.3 65.24 99.81 65.19C99.74 65.19 99.17 65.17 99.1 65.16C98.85 65.15 98.51 65.18 98.21 65.18C97.23 65.23 96.14 65.37 95.12 65.64C94.09 65.9 93.07 66.24 92.07 66.69C90.06 67.56 88.16 68.76 86.37 70.16C84.58 71.56 82.9 73.15 81.35 74.87C80.57 75.73 79.83 76.62 79.11 77.53C78.41 78.44 77.7 79.42 77.13 80.3C77.13 80.05 77.1 78.07 77.1 77.82C77.7 78.72 78.46 79.71 79.2 80.62C79.96 81.54 80.75 82.44 81.56 83.3C83.2 85.02 84.96 86.61 86.84 87.96C88.72 89.31 90.73 90.43 92.81 91.14C93.84 91.5 94.9 91.73 95.95 91.86C96.5 91.94 96.96 91.93 97.43 91.96C97.5 91.96 97.8 91.95 98.36 91.93L98.59 91.92L98.65 91.91C98.67 91.91 98.68 91.91 98.68 91.91C98.78 91.91 98.57 91.92 98.6 91.92C98.6 91.92 98.6 91.92 98.61 91.92L98.71 91.9C98.94 91.87 99.08 91.86 99.1 91.85C103.36 91.34 107.47 88.92 111.03 85.9C112.83 84.38 114.51 82.69 116.09 80.89C116.87 80 117.64 79.07 118.37 78.13C118.67 77.73 118.95 77.3 119.25 76.89M122.53 81.39C121.72 82.41 120.88 83.41 120.01 84.38C118.26 86.32 116.39 88.17 114.35 89.86C112.31 91.55 110.1 93.1 107.66 94.34C105.23 95.58 102.53 96.53 99.67 96.83C99.63 96.83 99.45 96.85 99.13 96.89L99 96.9L98.78 96.91L98.54 96.92C97.97 96.93 97.66 96.94 97.59 96.94C96.82 96.92 96.03 96.89 95.34 96.78C93.91 96.59 92.51 96.27 91.19 95.79C88.54 94.85 86.16 93.46 84 91.87C81.84 90.27 79.89 88.47 78.1 86.55C77.21 85.59 76.35 84.6 75.54 83.57C74.71 82.53 73.96 81.53 73.18 80.35C72.67 79.57 72.69 78.6 73.15 77.86C73.89 76.68 74.6 75.7 75.38 74.66C76.15 73.65 76.96 72.66 77.81 71.71C79.49 69.79 81.34 68 83.37 66.37C85.4 64.75 87.62 63.29 90.07 62.19C91.29 61.63 92.58 61.18 93.9 60.83C95.23 60.47 96.57 60.27 98.02 60.18C98.33 60.17 98.6 60.15 98.96 60.15C99.07 60.15 99.96 60.17 100.07 60.18C100.79 60.23 101.47 60.27 102.15 60.39C103.51 60.59 104.83 60.94 106.11 61.36C108.67 62.22 111.03 63.43 113.22 64.83C115.42 66.22 117.45 67.81 119.36 69.51C120.31 70.36 121.24 71.25 122.13 72.16C123.03 73.1 123.86 73.99 124.75 75.07C125.49 75.98 125.52 77.24 124.9 78.16C124.11 79.34 123.35 80.35 122.53 81.39Z" id="g1maAxvMBt"></path><path d="M67.22 35.64C67.22 35.64 68.39 35.42 70.45 35.05C71.49 34.88 72.67 34.56 74.25 34.5C75.02 34.44 75.84 34.38 76.7 34.31C77.56 34.27 78.48 34.13 79.41 34.21C80.35 34.25 81.32 34.28 82.33 34.32C82.84 34.34 83.35 34.37 83.87 34.39C84.39 34.44 84.91 34.54 85.44 34.62C86.51 34.78 87.6 34.95 88.72 35.12C89.83 35.33 90.93 35.7 92.07 36C92.64 36.15 93.21 36.31 93.79 36.47C94.36 36.65 94.91 36.91 95.48 37.12C96.6 37.59 97.76 38.01 98.87 38.53C99.96 39.12 101.06 39.72 102.17 40.31C102.73 40.59 103.25 40.94 103.76 41.31C103.87 41.38 104.38 41.74 105.31 42.38L106.86 43.46C107.72 44.19 108.2 44.6 108.29 44.68C109.22 45.53 110.24 46.26 111.07 47.18C111.91 48.08 112.76 48.98 113.59 49.86C114.38 50.78 115.08 51.75 115.81 52.67C116.56 53.58 117.18 54.55 117.78 55.52C118.37 56.48 119.02 57.39 119.51 58.35C120.47 60.27 121.49 62.05 122.12 63.83C122.47 64.7 122.8 65.54 123.12 66.33C123.41 67.14 123.61 67.93 123.84 68.66C124.28 70.12 124.68 71.4 124.85 72.49C125.29 74.64 125.53 75.87 125.53 75.87C125.82 77.32 124.89 78.72 123.45 79.01C122 79.3 120.6 78.37 120.31 76.92C120.31 76.91 120.3 76.91 120.3 76.9C120.3 76.87 120.26 76.67 120.26 76.65C120.26 76.65 120.05 75.53 119.69 73.59C119.56 72.61 119.21 71.45 118.84 70.13C118.64 69.47 118.48 68.75 118.23 68.02C117.95 67.29 117.66 66.53 117.36 65.74C116.83 64.12 115.92 62.51 115.1 60.75C114.67 59.87 114.09 59.06 113.58 58.17C113.06 57.29 112.52 56.4 111.85 55.57C111.21 54.73 110.59 53.84 109.9 53C109.16 52.2 108.42 51.38 107.67 50.56C106.95 49.71 106.03 49.05 105.22 48.28C105.13 48.2 104.71 47.82 103.96 47.15L102.58 46.16C101.76 45.57 101.3 45.24 101.21 45.18C100.76 44.84 100.3 44.51 99.8 44.26C98.82 43.71 97.84 43.16 96.88 42.61C95.88 42.12 94.85 41.74 93.85 41.3C93.35 41.09 92.86 40.85 92.35 40.68C91.83 40.53 91.32 40.38 90.81 40.23C89.79 39.96 88.81 39.6 87.81 39.39C86.8 39.22 85.81 39.05 84.86 38.88C84.37 38.81 83.9 38.71 83.43 38.65C82.96 38.62 82.49 38.6 82.03 38.57C81.11 38.52 80.23 38.47 79.38 38.42C78.52 38.32 77.73 38.45 76.96 38.47C76.19 38.51 75.47 38.55 74.79 38.58C73.45 38.58 72.16 38.9 71.14 39.04C69.08 39.38 67.9 39.58 67.9 39.58C66.81 39.76 65.78 39.02 65.6 37.93C65.42 36.85 66.15 35.83 67.22 35.64" id="abWnXBKat"></path></defs><g><g><g><use xlink:href="#g1TIedvTMB" opacity="1" fill="#ffffff" fill-opacity="1"></use><g><use xlink:href="#g1TIedvTMB" opacity="1" fill-opacity="0" stroke="#000000" stroke-width="1" stroke-opacity="0"></use></g></g><g><use xlink:href="#l18TBLDtK8" opacity="1" fill="#000000" fill-opacity="0"></use><g><use xlink:href="#l18TBLDtK8" opacity="1" fill-opacity="0" stroke="#1d1d1b" stroke-width="5" stroke-opacity="1"></use></g></g><g><use xlink:href="#b2YNoSif8" opacity="1" fill="#1d1d1b" fill-opacity="1"></use><g><use xlink:href="#b2YNoSif8" opacity="1" fill-opacity="0" stroke="#000000" stroke-width="1" stroke-opacity="0"></use></g></g><g><use xlink:href="#e3fdrofJPF" opacity="1" fill="#1d1d1b" fill-opacity="1"></use><g><use xlink:href="#e3fdrofJPF" opacity="1" fill-opacity="0" stroke="#000000" stroke-width="1" stroke-opacity="0"></use></g></g><g><use xlink:href="#dNFYw4Om" opacity="1" fill="#1d1d1b" fill-opacity="1"></use><g><use xlink:href="#dNFYw4Om" opacity="1" fill-opacity="0" stroke="#000000" stroke-width="1" stroke-opacity="0"></use></g></g><g><use xlink:href="#g1maAxvMBt" opacity="1" fill="#1d1d1b" fill-opacity="1"></use><g><use xlink:href="#g1maAxvMBt" opacity="1" fill-opacity="0" stroke="#000000" stroke-width="1" stroke-opacity="0"></use></g></g><g><use xlink:href="#abWnXBKat" opacity="1" fill="#1d1d1b" fill-opacity="1"></use><g><use xlink:href="#abWnXBKat" opacity="1" fill-opacity="0" stroke="#000000" stroke-width="1" stroke-opacity="0"></use></g></g></g></g></svg>