<?xml version="1.0" encoding="UTF-8" standalone="no"?>
<!DOCTYPE svg PUBLIC "-//W3C//DTD SVG 1.1//EN" "http://www.w3.org/Graphics/SVG/1.1/DTD/svg11.dtd">
<svg version="1.1" xmlns="http://www.w3.org/2000/svg" xmlns:xlink="http://www.w3.org/1999/xlink" preserveAspectRatio="xMidYMid meet" viewBox="0 0 200 200" width="200" height="200"><defs><path d="M157.2 169.14C157.2 177.31 150.34 183.93 141.88 183.93C133.42 183.93 126.56 177.31 126.56 169.14C126.56 177.31 119.7 182.87 111.24 182.87C102.78 182.87 95.93 177.31 95.93 169.14C95.93 177.31 89.07 183.93 80.61 183.93C72.15 183.93 65.29 177.31 65.29 169.14C65.35 168.35 65.81 162.03 65.86 161.24C65.86 138.77 86.17 131.36 111.34 131.36C136.51 131.36 157.02 141.41 157.02 161.76C157.06 163.23 157.16 167.66 157.2 169.14Z" id="iRYRo0Arj"></path><path d="M153.72 170.39L153.71 169.22C153.64 164.34 153.6 161.63 153.59 161.09C153.56 158.69 153.18 156.34 152.47 154.11C151.75 151.88 150.64 149.79 149.22 147.87C147.8 145.95 146.02 144.27 144.06 142.76C140.12 139.75 135.35 137.62 130.37 136.19C125.38 134.72 120.1 134.06 114.86 133.8C109.56 133.56 104.2 133.8 98.99 134.51C96.38 134.87 93.81 135.39 91.3 136.06C88.8 136.73 86.36 137.56 84.06 138.62C79.45 140.7 75.47 143.74 72.88 147.64C70.33 151.56 69.21 156.31 69.28 161.24C69.28 161.25 69.28 161.31 69.27 161.41L69.27 161.49L68.77 169.39C68.78 169.24 68.78 169.15 68.78 169.14C68.82 172.13 70.06 175.05 72.28 177.15C73.38 178.19 74.66 179.07 76.09 179.65C76.8 179.95 77.54 180.18 78.29 180.33C78.67 180.41 79.06 180.47 79.43 180.51C79.47 180.52 79.64 180.54 79.95 180.57C80.35 180.58 80.56 180.59 80.61 180.59C83.74 180.7 86.89 179.63 89.35 177.58C90.57 176.56 91.63 175.3 92.41 173.87C93.22 172.45 93.69 170.83 93.93 169.14C93.93 169.09 93.98 168.73 93.99 168.69C94.13 167.6 95.13 166.84 96.22 166.99C97.27 167.13 98.02 168.09 97.93 169.14C97.93 169.14 97.93 169.14 97.93 169.14C98.15 170.79 98.61 172.33 99.38 173.67C100.13 175.02 101.17 176.16 102.39 177.1C103.62 178.01 105.01 178.74 106.53 179.18C107.28 179.41 108.05 179.6 108.85 179.71C109.24 179.77 109.65 179.81 110.03 179.83C110.07 179.83 110.25 179.84 110.59 179.86C110.99 179.87 111.2 179.87 111.25 179.87C114.48 179.89 117.66 178.94 120.1 177.09C121.32 176.16 122.36 175.01 123.11 173.66C123.88 172.32 124.34 170.79 124.56 169.14C124.57 169.09 124.62 168.74 124.62 168.69C124.77 167.61 125.77 166.84 126.85 166.99C127.91 167.13 128.66 168.09 128.56 169.14C128.56 169.14 128.56 169.14 128.56 169.14C128.77 170.84 129.24 172.46 130.05 173.89C130.81 175.33 131.86 176.61 133.11 177.62C134.36 178.63 135.75 179.44 137.25 179.92C138 180.17 138.76 180.36 139.54 180.47C139.92 180.53 140.33 180.57 140.7 180.59C140.73 180.59 140.91 180.59 141.22 180.6C141.62 180.6 141.84 180.6 141.88 180.59C145.01 180.5 148 179.22 150.2 177.14C151.3 176.1 152.19 174.85 152.8 173.49C153.12 172.81 153.37 172.1 153.54 171.37C153.62 171.05 153.67 170.72 153.72 170.39M160.43 161.62L160.53 169.22L160.54 169.96C160.51 170.56 160.5 170.89 160.5 170.95C160.44 171.57 160.36 172.17 160.25 172.77C160.02 173.97 159.67 175.15 159.2 176.28C158.23 178.53 156.79 180.56 155.03 182.23C153.28 183.92 151.17 185.19 148.93 186.06C146.67 186.91 144.26 187.3 141.88 187.26C141.83 187.26 141.55 187.24 141.06 187.22C140.49 187.16 140.18 187.13 140.11 187.13C139.51 187.05 138.93 186.96 138.35 186.83C137.19 186.58 136.05 186.22 134.96 185.75C132.8 184.8 130.8 183.46 129.19 181.75C127.57 180.06 126.3 178.06 125.48 175.89C124.7 173.71 124.36 171.39 124.56 169.14C124.56 169.14 124.56 169.14 124.56 169.14C126.96 169.14 128.29 169.14 128.56 169.14C128.79 171.31 128.47 173.61 127.63 175.75C126.78 177.88 125.4 179.82 123.68 181.35C121.98 182.9 119.94 184.01 117.82 184.77C115.69 185.51 113.46 185.85 111.25 185.87C111.2 185.87 110.94 185.86 110.47 185.85C109.95 185.81 109.66 185.8 109.6 185.79C109.03 185.74 108.49 185.68 107.93 185.59C106.83 185.41 105.74 185.15 104.67 184.77C102.56 184.01 100.52 182.9 98.82 181.35C97.1 179.83 95.72 177.89 94.87 175.76C94.02 173.62 93.7 171.32 93.93 169.15C93.93 169.15 93.93 169.14 93.93 169.14C96.33 169.14 97.66 169.14 97.93 169.14C98.16 171.38 97.81 173.71 97.05 175.9C96.25 178.08 94.98 180.1 93.34 181.79C91.72 183.49 89.72 184.83 87.54 185.78C85.36 186.71 82.98 187.2 80.61 187.26C80.55 187.26 80.28 187.26 79.79 187.25C79.22 187.22 78.9 187.2 78.83 187.2C78.22 187.15 77.64 187.08 77.05 186.97C75.87 186.77 74.7 186.45 73.58 186.02C71.33 185.17 69.23 183.89 67.46 182.22C65.7 180.56 64.26 178.54 63.27 176.29C62.27 174.05 61.78 171.58 61.8 169.14C61.8 169.13 61.8 169.08 61.8 169.07C61.8 169.01 61.81 168.94 61.81 168.88C61.86 168.36 62.07 165.73 62.46 160.99C62.45 161.14 62.45 161.22 62.45 161.24C62.48 158.28 62.83 155.26 63.66 152.32C64.5 149.38 65.84 146.54 67.62 144.02C69.4 141.5 71.63 139.33 74.07 137.59C76.51 135.83 79.16 134.49 81.86 133.43C87.26 131.3 92.85 130.25 98.4 129.67C103.96 129.07 109.47 128.94 115.02 129.08C120.61 129.26 126.16 129.96 131.67 131.26C137.15 132.61 142.6 134.66 147.49 137.98C149.93 139.64 152.22 141.62 154.14 143.99C156.06 146.35 157.64 149.04 158.72 151.93C159.77 154.83 160.29 157.89 160.4 160.91C160.4 161.01 160.41 161.24 160.43 161.62Z" id="a7vhYBnfpa"></path><path d="M111.36 23.95C89.27 23.95 71.36 38.36 71.36 56.14C71.36 91.7 92.95 152.73 111.36 152.73C129.76 152.73 151.35 91.7 151.35 56.14C151.35 38.36 133.44 23.95 111.36 23.95" id="c2NQPzWK3e"></path><path d="M71.36 56.14C71.36 91.7 92.95 152.73 111.36 152.73C129.76 152.73 151.35 91.7 151.35 56.14C151.35 38.36 133.44 23.95 111.36 23.95C89.27 23.95 71.36 38.36 71.36 56.14Z" id="c545Gk2PM"></path><path d="M112.47 120.37C112.47 120.37 110.57 120.63 107.78 120.83C104.97 121.03 101.22 121.16 97.44 120.98C95.55 120.9 93.65 120.72 91.87 120.49C90.97 120.34 90.11 120.22 89.29 120.06C88.47 119.88 87.69 119.71 86.98 119.55C86.26 119.35 85.61 119.15 85.03 118.98C84.44 118.83 83.94 118.6 83.53 118.45C82.7 118.12 82.22 117.94 82.22 117.94C80.85 117.4 80.18 115.86 80.71 114.48C81.25 113.11 82.79 112.43 84.17 112.97C84.2 112.98 84.23 113 84.26 113.01C84.28 113.02 84.47 113.1 84.49 113.11C84.49 113.11 84.87 113.28 85.52 113.56C85.85 113.7 86.23 113.91 86.72 114.06C87.2 114.22 87.75 114.41 88.35 114.62C88.97 114.78 89.64 114.96 90.35 115.15C91.08 115.31 91.85 115.47 92.64 115.64C94.25 115.92 96 116.17 97.76 116.33C101.3 116.65 104.89 116.7 107.57 116.63C110.28 116.56 112.02 116.4 112.02 116.4C113.12 116.3 114.09 117.11 114.19 118.21C114.29 119.28 113.52 120.23 112.47 120.37" id="eZR5h9bPQ"></path><path d="M115.52 134.89C115.52 134.89 113.85 135.12 111.4 135.31C108.94 135.49 105.65 135.61 102.33 135.47C100.66 135.4 98.99 135.24 97.42 135.04C96.63 134.92 95.87 134.79 95.15 134.68C94.42 134.52 93.74 134.37 93.11 134.23C92.47 134.05 91.89 133.88 91.38 133.73C90.86 133.6 90.42 133.39 90.05 133.26C89.31 132.98 88.89 132.81 88.89 132.81C87.52 132.28 86.84 130.73 87.37 129.36C87.9 127.99 89.45 127.31 90.82 127.84C90.86 127.85 90.89 127.87 90.93 127.88C90.95 127.89 91.14 127.97 91.16 127.98C91.16 127.98 91.48 128.13 92.04 128.38C92.33 128.49 92.64 128.68 93.07 128.81C93.49 128.95 93.96 129.12 94.47 129.3C95.01 129.44 95.59 129.6 96.21 129.77C96.84 129.9 97.5 130.05 98.19 130.2C99.59 130.45 101.11 130.67 102.65 130.81C105.72 131.11 108.86 131.15 111.2 131.1C113.56 131.05 115.08 130.92 115.08 130.92C116.18 130.82 117.15 131.63 117.24 132.74C117.34 133.8 116.57 134.74 115.52 134.89" id="b1qhllG8Q"></path><path d="M111.24 23.95C89.15 23.95 71.25 38.36 71.25 56.14C71.25 91.7 92.84 152.73 111.24 152.73C129.65 152.73 151.24 91.7 151.24 56.14C151.24 38.36 133.33 23.95 111.24 23.95" id="bllaCsj9k"></path><path d="M71.25 56.14C71.25 91.7 92.84 152.73 111.24 152.73C129.65 152.73 151.24 91.7 151.24 56.14C151.24 38.36 133.33 23.95 111.24 23.95C89.15 23.95 71.25 38.36 71.25 56.14Z" id="brGbP5zwq"></path><path d="M112.36 120.37C112.36 120.37 110.45 120.63 107.67 120.83C104.86 121.03 101.11 121.16 97.33 120.98C95.44 120.9 93.54 120.72 91.76 120.49C90.86 120.34 90 120.22 89.18 120.06C88.36 119.88 87.58 119.71 86.87 119.55C86.15 119.35 85.5 119.15 84.91 118.98C84.33 118.83 83.83 118.6 83.42 118.45C82.59 118.12 82.11 117.94 82.11 117.94C80.74 117.4 80.06 115.86 80.6 114.48C81.14 113.11 82.68 112.43 84.05 112.97C84.09 112.98 84.12 113 84.15 113.01C84.17 113.02 84.36 113.1 84.38 113.11C84.38 113.11 84.75 113.28 85.41 113.56C85.74 113.7 86.11 113.91 86.61 114.06C87.09 114.22 87.64 114.41 88.23 114.62C88.85 114.78 89.53 114.96 90.24 115.15C90.96 115.31 91.73 115.47 92.53 115.64C94.14 115.92 95.89 116.17 97.65 116.33C101.18 116.65 104.78 116.7 107.46 116.63C110.17 116.56 111.91 116.4 111.91 116.4C113.01 116.3 113.98 117.11 114.08 118.21C114.18 119.28 113.41 120.23 112.36 120.37" id="b50vshKSO"></path><path d="M115.41 134.89C115.41 134.89 113.74 135.12 111.29 135.31C108.83 135.49 105.54 135.61 102.22 135.47C100.55 135.4 98.88 135.24 97.31 135.04C96.52 134.92 95.76 134.79 95.04 134.68C94.31 134.52 93.63 134.37 92.99 134.23C92.36 134.05 91.78 133.88 91.27 133.73C90.75 133.6 90.31 133.39 89.94 133.26C89.2 132.98 88.78 132.81 88.78 132.81C87.41 132.28 86.72 130.73 87.26 129.36C87.79 127.99 89.34 127.31 90.71 127.84C90.75 127.85 90.78 127.87 90.82 127.88C90.84 127.89 91.02 127.97 91.05 127.98C91.05 127.98 91.37 128.13 91.93 128.38C92.21 128.49 92.53 128.68 92.96 128.81C93.38 128.95 93.85 129.12 94.36 129.3C94.9 129.44 95.48 129.6 96.09 129.77C96.73 129.9 97.39 130.05 98.08 130.2C99.48 130.45 101 130.67 102.54 130.81C105.61 131.11 108.75 131.15 111.09 131.1C113.45 131.05 114.97 130.92 114.97 130.92C116.07 130.82 117.04 131.63 117.13 132.74C117.22 133.8 116.46 134.74 115.41 134.89" id="awzUeRCv3"></path><path d="M117.26 69.92C117.59 73.94 114.46 77.43 110.25 77.73C106.04 78.02 102.35 75.01 102.01 70.99C101.67 66.98 104.81 63.48 109.02 63.19C113.23 62.89 116.92 65.91 117.26 69.92" id="aKvnpMVOs"></path><path d="M130.36 68.86C130.1 68.6 129.86 68.32 129.6 68.07C128.79 67.3 127.95 66.55 127.08 65.83C125.35 64.4 123.54 63.09 121.63 61.97C119.73 60.85 117.75 59.92 115.72 59.28C114.7 58.97 113.67 58.7 112.64 58.56C112.13 58.47 111.6 58.44 111.11 58.39C110.64 58.38 110.19 58.34 109.55 58.38C107.52 58.43 105.44 58.9 103.46 59.67C101.47 60.43 99.55 61.5 97.75 62.77C95.94 64.03 94.24 65.49 92.65 67.08C91.86 67.87 91.09 68.7 90.36 69.55C89.64 70.38 88.9 71.31 88.32 72.13C88.32 71.87 88.29 69.75 88.29 69.48C88.9 70.31 89.68 71.24 90.44 72.09C91.21 72.94 92.01 73.77 92.84 74.56C94.51 76.15 96.29 77.58 98.17 78.81C100.06 80.01 102.05 81.01 104.11 81.63C105.13 81.95 106.17 82.15 107.21 82.26C107.74 82.33 108.2 82.32 108.67 82.35C108.73 82.35 109.03 82.34 109.57 82.32L109.8 82.31L109.91 82.3C109.93 82.3 109.94 82.3 109.94 82.3C109.96 82.3 109.77 82.31 109.86 82.31C109.86 82.31 109.87 82.31 109.87 82.31L109.92 82.3C110.16 82.27 110.29 82.26 110.31 82.26C114.49 81.81 118.57 79.69 122.17 76.95C123.98 75.57 125.68 74.01 127.3 72.36C128.1 71.53 128.88 70.67 129.63 69.79C129.88 69.49 130.11 69.17 130.36 68.86M133.64 73.25C132.8 74.2 131.94 75.13 131.05 76.03C129.25 77.83 127.35 79.54 125.28 81.07C123.22 82.61 121 84 118.59 85.09C116.18 86.18 113.56 86.99 110.81 87.24C110.77 87.24 110.6 87.26 110.29 87.29L110.08 87.3L109.96 87.3L109.74 87.31C109.18 87.32 108.88 87.33 108.81 87.33C108.08 87.31 107.32 87.29 106.66 87.19C105.29 87.03 103.94 86.74 102.65 86.33C100.07 85.52 97.7 84.28 95.53 82.85C93.36 81.41 91.37 79.76 89.55 77.98C88.64 77.09 87.76 76.17 86.92 75.21C86.07 74.24 85.29 73.3 84.48 72.18C83.9 71.37 83.92 70.3 84.45 69.53C85.22 68.4 85.96 67.47 86.77 66.5C87.57 65.55 88.4 64.63 89.27 63.74C91.01 61.96 92.89 60.3 94.95 58.82C99.03 55.89 103.95 53.62 109.37 53.37C109.91 53.33 110.65 53.35 111.37 53.37C112.05 53.42 112.71 53.46 113.36 53.57C114.68 53.74 115.96 54.05 117.21 54.42C119.7 55.17 122.04 56.24 124.23 57.5C126.43 58.76 128.47 60.21 130.41 61.77C131.38 62.55 132.32 63.37 133.23 64.22C134.15 65.09 135 65.91 135.92 66.93C136.76 67.87 136.8 69.24 136.08 70.22C135.26 71.33 134.48 72.28 133.64 73.25Z" id="b1DLkD7XSE"></path><path d="M78.48 35.25C78.48 35.25 79.58 35.06 81.5 34.72C82.48 34.59 83.57 34.29 85.01 34.19C86.42 34.06 88.01 33.92 89.75 33.76C91.48 33.76 93.36 33.7 95.35 33.77C96.34 33.85 97.36 33.94 98.4 34.03C98.92 34.08 99.45 34.13 99.98 34.18C100.51 34.28 101.04 34.37 101.58 34.47C102.65 34.68 103.75 34.86 104.85 35.1C105.94 35.42 107.03 35.74 108.14 36.07C109.26 36.34 110.31 36.88 111.41 37.3C111.57 37.37 112.87 37.9 113.03 37.97C113.57 38.21 114.08 38.52 114.6 38.79C115.62 39.38 116.71 39.86 117.67 40.54C118.64 41.21 119.6 41.88 120.56 42.55C122.33 44.05 124.12 45.51 125.57 47.19C125.95 47.59 126.32 48 126.69 48.4C127.06 48.8 127.36 49.25 127.69 49.67C128.33 50.52 128.98 51.33 129.56 52.17C130.6 53.9 131.71 55.48 132.42 57.1C132.81 57.89 133.18 58.65 133.54 59.37C133.86 60.11 134.11 60.82 134.38 61.49C134.9 62.82 135.35 63.98 135.6 64.98C136.17 66.94 136.49 68.07 136.49 68.07C136.9 69.48 136.09 70.96 134.67 71.37C133.26 71.78 131.78 70.96 131.37 69.55C131.37 69.54 131.37 69.53 131.37 69.52C131.36 69.49 131.31 69.31 131.3 69.29C131.3 69.29 131.03 68.27 130.55 66.49C130.34 65.58 129.95 64.54 129.51 63.34C129.28 62.74 129.07 62.08 128.79 61.42C128.49 60.77 128.17 60.09 127.83 59.38C127.23 57.92 126.26 56.52 125.38 54.95C124.88 54.2 124.31 53.48 123.76 52.71C123.48 52.34 123.22 51.93 122.91 51.57C122.58 51.21 122.26 50.85 121.93 50.49C120.69 48.98 119.14 47.68 117.6 46.32C116.77 45.72 115.93 45.11 115.09 44.5C114.25 43.88 113.29 43.45 112.4 42.91C111.94 42.66 111.5 42.37 111.03 42.15C110.88 42.09 109.73 41.59 109.59 41.53C108.62 41.14 107.7 40.63 106.69 40.37C105.7 40.06 104.72 39.75 103.75 39.45C102.76 39.21 101.77 39.03 100.79 38.82C100.31 38.72 99.83 38.62 99.35 38.52C98.86 38.47 98.38 38.42 97.9 38.37C96.95 38.27 96.01 38.17 95.1 38.07C93.27 37.98 91.52 38.01 89.92 37.96C88.33 38.08 86.87 38.18 85.59 38.27C84.95 38.29 84.33 38.38 83.74 38.48C83.16 38.57 82.63 38.65 82.15 38.73C80.22 39.03 79.12 39.19 79.12 39.19C78.03 39.36 77.01 38.61 76.84 37.52C76.68 36.44 77.41 35.43 78.48 35.25" id="aqyp5H4tl"></path></defs><g><g><g><use xlink:href="#iRYRo0Arj" opacity="1" fill="#ffffff" fill-opacity="1"></use><g><use xlink:href="#iRYRo0Arj" opacity="1" fill-opacity="0" stroke="#000000" stroke-width="1" stroke-opacity="0"></use></g></g><g><use xlink:href="#a7vhYBnfpa" opacity="1" fill="#1d1d1b" fill-opacity="1"></use><g><use xlink:href="#a7vhYBnfpa" opacity="1" fill-opacity="0" stroke="#000000" stroke-width="1" stroke-opacity="0"></use></g></g><g><use xlink:href="#c2NQPzWK3e" opacity="1" fill="#ffffff" fill-opacity="1"></use><g><use xlink:href="#c2NQPzWK3e" opacity="1" fill-opacity="0" stroke="#000000" stroke-width="1" stroke-opacity="0"></use></g></g><g><use xlink:href="#c545Gk2PM" opacity="1" fill="#000000" fill-opacity="0"></use><g><use xlink:href="#c545Gk2PM" opacity="1" fill-opacity="0" stroke="#1d1d1b" stroke-width="5" stroke-opacity="1"></use></g></g><g><use xlink:href="#eZR5h9bPQ" opacity="1" fill="#1d1d1b" fill-opacity="1"></use><g><use xlink:href="#eZR5h9bPQ" opacity="1" fill-opacity="0" stroke="#000000" stroke-width="1" stroke-opacity="0"></use></g></g><g><use xlink:href="#b1qhllG8Q" opacity="1" fill="#1d1d1b" fill-opacity="1"></use><g><use xlink:href="#b1qhllG8Q" opacity="1" fill-opacity="0" stroke="#000000" stroke-width="1" stroke-opacity="0"></use></g></g><g><use xlink:href="#bllaCsj9k" opacity="1" fill="#ffffff" fill-opacity="1"></use><g><use xlink:href="#bllaCsj9k" opacity="1" fill-opacity="0" stroke="#000000" stroke-width="1" stroke-opacity="0"></use></g></g><g><use xlink:href="#brGbP5zwq" opacity="1" fill="#000000" fill-opacity="0"></use><g><use xlink:href="#brGbP5zwq" opacity="1" fill-opacity="0" stroke="#1d1d1b" stroke-width="5" stroke-opacity="1"></use></g></g><g><use xlink:href="#b50vshKSO" opacity="1" fill="#1d1d1b" fill-opacity="1"></use><g><use xlink:href="#b50vshKSO" opacity="1" fill-opacity="0" stroke="#000000" stroke-width="1" stroke-opacity="0"></use></g></g><g><use xlink:href="#awzUeRCv3" opacity="1" fill="#1d1d1b" fill-opacity="1"></use><g><use xlink:href="#awzUeRCv3" opacity="1" fill-opacity="0" stroke="#000000" stroke-width="1" stroke-opacity="0"></use></g></g><g><use xlink:href="#aKvnpMVOs" opacity="1" fill="#1d1d1b" fill-opacity="1"></use><g><use xlink:href="#aKvnpMVOs" opacity="1" fill-opacity="0" stroke="#000000" stroke-width="1" stroke-opacity="0"></use></g></g><g><use xlink:href="#b1DLkD7XSE" opacity="1" fill="#1d1d1b" fill-opacity="1"></use><g><use xlink:href="#b1DLkD7XSE" opacity="1" fill-opacity="0" stroke="#000000" stroke-width="1" stroke-opacity="0"></use></g></g><g><use xlink:href="#aqyp5H4tl" opacity="1" fill="#1d1d1b" fill-opacity="1"></use><g><use xlink:href="#aqyp5H4tl" opacity="1" fill-opacity="0" stroke="#000000" stroke-width="1" stroke-opacity="0"></use></g></g></g></g></svg>