<?xml version="1.0" encoding="UTF-8" standalone="no"?>
<!DOCTYPE svg PUBLIC "-//W3C//DTD SVG 1.1//EN" "http://www.w3.org/Graphics/SVG/1.1/DTD/svg11.dtd">
<svg version="1.1" xmlns="http://www.w3.org/2000/svg" xmlns:xlink="http://www.w3.org/1999/xlink" preserveAspectRatio="xMidYMid meet" viewBox="0 0 200 200" width="200" height="200"><defs><path d="M158.51 169.14C158.51 177.31 151.65 183.93 143.19 183.93C134.73 183.93 127.87 177.31 127.87 169.14C127.87 177.31 121.01 182.87 112.55 182.87C104.09 182.87 97.24 177.31 97.24 169.14C97.24 177.31 90.38 183.93 81.92 183.93C73.46 183.93 66.6 177.31 66.6 169.14C66.66 168.35 67.12 162.03 67.17 161.24C67.17 138.77 87.48 131.36 112.65 131.36C137.82 131.36 158.33 141.41 158.33 161.76C158.37 163.23 158.47 167.66 158.51 169.14Z" id="a1dsytzBe5"></path><path d="M155.03 170.39L155.02 169.22C154.95 164.34 154.91 161.63 154.9 161.09C154.87 158.69 154.49 156.34 153.78 154.11C153.05 151.88 151.95 149.79 150.53 147.87C149.11 145.95 147.32 144.27 145.37 142.76C141.43 139.75 136.66 137.62 131.67 136.19C126.69 134.72 121.41 134.06 116.17 133.8C110.87 133.56 105.51 133.8 100.3 134.51C97.69 134.87 95.12 135.39 92.61 136.06C90.11 136.73 87.66 137.56 85.37 138.62C80.76 140.7 76.78 143.74 74.19 147.64C71.63 151.56 70.52 156.31 70.59 161.24C70.59 161.25 70.59 161.31 70.58 161.41L70.58 161.49L70.08 169.39C70.08 169.24 70.09 169.15 70.09 169.14C70.13 172.13 71.37 175.05 73.59 177.15C74.69 178.19 75.97 179.07 77.4 179.65C78.1 179.95 78.84 180.18 79.6 180.33C79.98 180.41 80.37 180.47 80.74 180.51C80.78 180.52 80.95 180.54 81.26 180.57C81.65 180.58 81.87 180.59 81.92 180.59C85.05 180.7 88.2 179.63 90.66 177.58C91.88 176.56 92.94 175.3 93.71 173.87C94.53 172.45 95 170.83 95.23 169.14C95.24 169.09 95.29 168.73 95.3 168.69C95.44 167.6 96.44 166.84 97.53 166.99C98.58 167.13 99.33 168.09 99.24 169.14C99.24 169.14 99.24 169.14 99.24 169.14C99.46 170.79 99.92 172.33 100.69 173.67C101.44 175.02 102.48 176.16 103.7 177.1C104.93 178.01 106.32 178.74 107.84 179.18C108.59 179.41 109.36 179.6 110.15 179.71C110.54 179.77 110.96 179.81 111.34 179.83C111.38 179.83 111.56 179.84 111.9 179.86C112.29 179.87 112.51 179.87 112.56 179.87C115.78 179.89 118.97 178.94 121.41 177.09C122.63 176.16 123.67 175.01 124.42 173.66C125.19 172.32 125.65 170.79 125.87 169.14C125.88 169.09 125.93 168.74 125.93 168.69C126.08 167.61 127.08 166.84 128.16 166.99C129.22 167.13 129.97 168.09 129.87 169.14C129.87 169.14 129.87 169.14 129.87 169.14C130.08 170.84 130.55 172.46 131.36 173.89C132.12 175.33 133.17 176.61 134.42 177.62C135.66 178.63 137.06 179.44 138.56 179.92C139.31 180.17 140.07 180.36 140.85 180.47C141.23 180.53 141.64 180.57 142.01 180.59C142.04 180.59 142.22 180.59 142.53 180.6C142.93 180.6 143.15 180.6 143.19 180.59C146.32 180.5 149.31 179.22 151.51 177.14C152.61 176.1 153.5 174.85 154.11 173.49C154.43 172.81 154.68 172.1 154.85 171.37C154.93 171.05 154.98 170.72 155.03 170.39M161.74 161.62L161.84 169.22L161.85 169.96C161.82 170.56 161.81 170.89 161.8 170.95C161.75 171.57 161.67 172.17 161.56 172.77C161.33 173.97 160.98 175.15 160.51 176.28C159.54 178.53 158.1 180.56 156.34 182.23C154.59 183.92 152.48 185.19 150.24 186.06C147.98 186.91 145.57 187.3 143.19 187.26C143.14 187.26 142.86 187.24 142.37 187.22C141.8 187.16 141.49 187.13 141.42 187.13C140.81 187.05 140.24 186.96 139.66 186.83C138.5 186.58 137.36 186.22 136.27 185.75C134.1 184.8 132.11 183.46 130.5 181.75C128.88 180.06 127.6 178.06 126.79 175.89C126.01 173.71 125.66 171.39 125.87 169.14C125.87 169.14 125.87 169.14 125.87 169.14C128.27 169.14 129.6 169.14 129.87 169.14C130.09 171.31 129.78 173.61 128.94 175.75C128.08 177.88 126.71 179.82 124.99 181.35C123.29 182.9 121.25 184.01 119.13 184.77C117 185.51 114.77 185.85 112.56 185.87C112.51 185.87 112.25 185.86 111.78 185.85C111.26 185.81 110.97 185.8 110.91 185.79C110.33 185.74 109.8 185.68 109.24 185.59C108.14 185.41 107.05 185.15 105.98 184.77C103.87 184.01 101.83 182.9 100.13 181.35C98.41 179.83 97.03 177.89 96.17 175.76C95.33 173.62 95.01 171.32 95.24 169.15C95.24 169.15 95.24 169.14 95.23 169.14C97.64 169.14 98.97 169.14 99.24 169.14C99.47 171.38 99.12 173.71 98.36 175.9C97.56 178.08 96.29 180.1 94.65 181.79C93.03 183.49 91.02 184.83 88.85 185.78C86.67 186.71 84.29 187.2 81.92 187.26C81.86 187.26 81.59 187.26 81.1 187.25C80.52 187.22 80.21 187.2 80.14 187.2C79.53 187.15 78.95 187.08 78.36 186.97C77.18 186.77 76.01 186.45 74.89 186.02C72.64 185.17 70.54 183.89 68.77 182.22C67.01 180.56 65.56 178.54 64.58 176.29C63.58 174.05 63.09 171.58 63.11 169.14C63.11 169.13 63.11 169.08 63.11 169.07C63.11 169.01 63.12 168.94 63.12 168.88C63.16 168.36 63.38 165.73 63.77 160.99C63.76 161.14 63.76 161.22 63.76 161.24C63.78 158.28 64.13 155.26 64.97 152.32C65.81 149.38 67.14 146.54 68.92 144.02C70.71 141.5 72.94 139.33 75.38 137.59C77.82 135.83 80.47 134.49 83.17 133.43C88.57 131.3 94.16 130.25 99.71 129.67C105.26 129.07 110.78 128.94 116.33 129.08C121.92 129.26 127.47 129.96 132.98 131.26C138.46 132.61 143.91 134.66 148.8 137.98C151.23 139.64 153.53 141.62 155.45 143.99C157.37 146.35 158.95 149.04 160.03 151.93C161.08 154.83 161.6 157.89 161.71 160.91C161.71 161.01 161.72 161.24 161.74 161.62Z" id="a2My13tA1y"></path><path d="M112.66 23.95C90.58 23.95 72.67 38.36 72.67 56.14C72.67 91.7 94.26 152.73 112.66 152.73C131.07 152.73 152.66 91.7 152.66 56.14C152.66 38.36 134.75 23.95 112.66 23.95" id="dj8EdZCW6"></path><path d="M72.67 56.14C72.67 91.7 94.26 152.73 112.66 152.73C131.07 152.73 152.66 91.7 152.66 56.14C152.66 38.36 134.75 23.95 112.66 23.95C90.58 23.95 72.67 38.36 72.67 56.14Z" id="b1ESe8HnMb"></path><path d="M113.78 120.37C113.78 120.37 111.87 120.63 109.09 120.83C106.28 121.03 102.53 121.16 98.75 120.98C96.86 120.9 94.96 120.72 93.18 120.49C92.28 120.34 91.42 120.22 90.6 120.06C89.78 119.88 89 119.71 88.29 119.55C87.57 119.35 86.92 119.15 86.34 118.98C85.75 118.83 85.25 118.6 84.84 118.45C84.01 118.12 83.53 117.94 83.53 117.94C82.16 117.4 81.48 115.86 82.02 114.48C82.56 113.11 84.1 112.43 85.48 112.97C85.51 112.98 85.54 113 85.57 113.01C85.59 113.02 85.78 113.1 85.8 113.11C85.8 113.11 86.17 113.28 86.83 113.56C87.16 113.7 87.53 113.91 88.03 114.06C88.51 114.22 89.06 114.41 89.65 114.62C90.27 114.78 90.95 114.96 91.66 115.15C92.39 115.31 93.15 115.47 93.95 115.64C95.56 115.92 97.31 116.17 99.07 116.33C102.61 116.65 106.2 116.7 108.88 116.63C111.59 116.56 113.33 116.4 113.33 116.4C114.43 116.3 115.4 117.11 115.5 118.21C115.6 119.28 114.83 120.23 113.78 120.37" id="a1PVRNSBCz"></path><path d="M116.83 134.89C116.83 134.89 115.16 135.12 112.71 135.31C110.25 135.49 106.96 135.61 103.64 135.47C101.97 135.4 100.3 135.24 98.73 135.04C97.94 134.92 97.18 134.79 96.46 134.68C95.73 134.52 95.05 134.37 94.41 134.23C93.78 134.05 93.2 133.88 92.69 133.73C92.17 133.6 91.73 133.39 91.36 133.26C90.62 132.98 90.2 132.81 90.2 132.81C88.83 132.28 88.15 130.73 88.68 129.36C89.21 127.99 90.76 127.31 92.13 127.84C92.17 127.85 92.2 127.87 92.24 127.88C92.26 127.89 92.44 127.97 92.47 127.98C92.47 127.98 92.79 128.13 93.35 128.38C93.64 128.49 93.95 128.68 94.38 128.81C94.8 128.95 95.27 129.12 95.78 129.3C96.32 129.44 96.9 129.6 97.51 129.77C98.15 129.9 98.81 130.05 99.5 130.2C100.9 130.45 102.42 130.67 103.96 130.81C107.03 131.11 110.17 131.15 112.51 131.1C114.87 131.05 116.39 130.92 116.39 130.92C117.49 130.82 118.46 131.63 118.55 132.74C118.64 133.8 117.88 134.74 116.83 134.89" id="bXf6m3P1F"></path><path d="M112.55 23.95C90.46 23.95 72.56 38.36 72.56 56.14C72.56 91.7 94.15 152.73 112.55 152.73C130.96 152.73 152.55 91.7 152.55 56.14C152.55 38.36 134.64 23.95 112.55 23.95" id="jYBG4BDgP"></path><path d="M72.56 56.14C72.56 91.7 94.15 152.73 112.55 152.73C130.96 152.73 152.55 91.7 152.55 56.14C152.55 38.36 134.64 23.95 112.55 23.95C90.46 23.95 72.56 38.36 72.56 56.14Z" id="dlW4kVHW4"></path><path d="M113.66 120.37C113.66 120.37 111.76 120.63 108.98 120.83C106.17 121.03 102.42 121.16 98.64 120.98C96.75 120.9 94.85 120.72 93.06 120.49C92.17 120.34 91.31 120.22 90.49 120.06C89.67 119.88 88.89 119.71 88.18 119.55C87.46 119.35 86.81 119.15 86.22 118.98C85.64 118.83 85.14 118.6 84.73 118.45C83.9 118.12 83.42 117.94 83.42 117.94C82.05 117.4 81.37 115.86 81.91 114.48C82.45 113.11 83.99 112.43 85.36 112.97C85.39 112.98 85.43 113 85.45 113.01C85.48 113.02 85.67 113.1 85.69 113.11C85.69 113.11 86.06 113.28 86.72 113.56C87.05 113.7 87.42 113.91 87.92 114.06C88.4 114.22 88.95 114.41 89.54 114.62C90.16 114.78 90.84 114.96 91.54 115.15C92.27 115.31 93.04 115.47 93.84 115.64C95.45 115.92 97.19 116.17 98.96 116.33C102.49 116.65 106.08 116.7 108.77 116.63C111.48 116.56 113.22 116.4 113.22 116.4C114.32 116.3 115.29 117.11 115.39 118.21C115.49 119.28 114.72 120.23 113.66 120.37" id="b83NIwieCB"></path><path d="M116.72 134.89C116.72 134.89 115.05 135.12 112.6 135.31C110.14 135.49 106.85 135.61 103.52 135.47C101.86 135.4 100.19 135.24 98.62 135.04C97.83 134.92 97.07 134.79 96.35 134.68C95.62 134.52 94.94 134.37 94.3 134.23C93.67 134.05 93.09 133.88 92.58 133.73C92.06 133.6 91.61 133.39 91.25 133.26C90.51 132.98 90.09 132.81 90.09 132.81C88.72 132.28 88.03 130.73 88.57 129.36C89.1 127.99 90.65 127.31 92.02 127.84C92.05 127.85 92.09 127.87 92.13 127.88C92.15 127.89 92.33 127.97 92.36 127.98C92.36 127.98 92.68 128.13 93.24 128.38C93.52 128.49 93.84 128.68 94.27 128.81C94.69 128.95 95.16 129.12 95.67 129.3C96.21 129.44 96.79 129.6 97.4 129.77C98.04 129.9 98.7 130.05 99.39 130.2C100.79 130.45 102.31 130.67 103.85 130.81C106.92 131.11 110.05 131.15 112.4 131.1C114.76 131.05 116.27 130.92 116.27 130.92C117.37 130.82 118.35 131.63 118.44 132.74C118.53 133.8 117.77 134.74 116.72 134.89" id="d2084uKsT"></path><path d="M115.33 40.3C115.33 40.3 115.51 43.12 115.64 47.33C115.69 49.44 115.8 51.9 115.81 54.54C115.84 57.18 115.86 59.99 115.89 62.8C115.86 65.61 115.83 68.43 115.81 71.06C115.79 73.7 115.69 76.16 115.64 78.27C115.59 80.38 115.48 82.13 115.44 83.37C115.37 84.6 115.33 85.3 115.33 85.3C115.25 86.83 113.93 88.01 112.4 87.92C110.97 87.84 109.85 86.7 109.78 85.3C109.78 85.3 109.74 84.6 109.67 83.37C109.62 82.13 109.52 80.38 109.46 78.27C109.42 76.16 109.32 73.7 109.3 71.06C109.27 68.43 109.25 65.61 109.22 62.8C109.25 59.99 109.27 57.18 109.29 54.54C109.31 51.9 109.42 49.44 109.46 47.33C109.6 43.12 109.78 40.3 109.78 40.3C109.87 38.77 111.2 37.61 112.73 37.71C114.14 37.79 115.24 38.93 115.33 40.3" id="c6Ou6xP226"></path><path d="M90.44 60.02C90.44 60.02 91.14 59.99 92.34 59.92C93.55 59.87 95.28 59.76 97.35 59.71C99.43 59.67 101.84 59.57 104.44 59.54C107.03 59.52 109.79 59.49 112.55 59.47C115.32 59.49 118.08 59.52 120.67 59.54C123.26 59.56 125.68 59.67 127.75 59.71C131.9 59.84 134.66 60.02 134.66 60.02C136.2 60.12 137.36 61.45 137.26 62.98C137.17 64.39 136.04 65.49 134.66 65.58C134.66 65.58 131.9 65.76 127.75 65.89C125.68 65.94 123.26 66.04 120.67 66.06C118.08 66.08 115.32 66.11 112.55 66.13C109.79 66.11 107.03 66.08 104.44 66.06C101.84 66.04 99.43 65.94 97.35 65.89C95.28 65.84 93.55 65.73 92.34 65.69C91.14 65.62 90.44 65.58 90.44 65.58C88.91 65.49 87.74 64.18 87.82 62.65C87.91 61.22 89.05 60.1 90.44 60.02" id="g3TILRhmZ8"></path></defs><g><g><g><use xlink:href="#a1dsytzBe5" opacity="1" fill="#ffffff" fill-opacity="1"></use><g><use xlink:href="#a1dsytzBe5" opacity="1" fill-opacity="0" stroke="#000000" stroke-width="1" stroke-opacity="0"></use></g></g><g><use xlink:href="#a2My13tA1y" opacity="1" fill="#1d1d1b" fill-opacity="1"></use><g><use xlink:href="#a2My13tA1y" opacity="1" fill-opacity="0" stroke="#000000" stroke-width="1" stroke-opacity="0"></use></g></g><g><use xlink:href="#dj8EdZCW6" opacity="1" fill="#ffffff" fill-opacity="1"></use><g><use xlink:href="#dj8EdZCW6" opacity="1" fill-opacity="0" stroke="#000000" stroke-width="1" stroke-opacity="0"></use></g></g><g><use xlink:href="#b1ESe8HnMb" opacity="1" fill="#000000" fill-opacity="0"></use><g><use xlink:href="#b1ESe8HnMb" opacity="1" fill-opacity="0" stroke="#1d1d1b" stroke-width="5" stroke-opacity="1"></use></g></g><g><use xlink:href="#a1PVRNSBCz" opacity="1" fill="#1d1d1b" fill-opacity="1"></use><g><use xlink:href="#a1PVRNSBCz" opacity="1" fill-opacity="0" stroke="#000000" stroke-width="1" stroke-opacity="0"></use></g></g><g><use xlink:href="#bXf6m3P1F" opacity="1" fill="#1d1d1b" fill-opacity="1"></use><g><use xlink:href="#bXf6m3P1F" opacity="1" fill-opacity="0" stroke="#000000" stroke-width="1" stroke-opacity="0"></use></g></g><g><use xlink:href="#jYBG4BDgP" opacity="1" fill="#ffffff" fill-opacity="1"></use><g><use xlink:href="#jYBG4BDgP" opacity="1" fill-opacity="0" stroke="#000000" stroke-width="1" stroke-opacity="0"></use></g></g><g><use xlink:href="#dlW4kVHW4" opacity="1" fill="#000000" fill-opacity="0"></use><g><use xlink:href="#dlW4kVHW4" opacity="1" fill-opacity="0" stroke="#1d1d1b" stroke-width="5" stroke-opacity="1"></use></g></g><g><use xlink:href="#b83NIwieCB" opacity="1" fill="#1d1d1b" fill-opacity="1"></use><g><use xlink:href="#b83NIwieCB" opacity="1" fill-opacity="0" stroke="#000000" stroke-width="1" stroke-opacity="0"></use></g></g><g><use xlink:href="#d2084uKsT" opacity="1" fill="#1d1d1b" fill-opacity="1"></use><g><use xlink:href="#d2084uKsT" opacity="1" fill-opacity="0" stroke="#000000" stroke-width="1" stroke-opacity="0"></use></g></g><g><use xlink:href="#c6Ou6xP226" opacity="1" fill="#1d1d1b" fill-opacity="1"></use><g><use xlink:href="#c6Ou6xP226" opacity="1" fill-opacity="0" stroke="#000000" stroke-width="1" stroke-opacity="0"></use></g></g><g><use xlink:href="#g3TILRhmZ8" opacity="1" fill="#1d1d1b" fill-opacity="1"></use><g><use xlink:href="#g3TILRhmZ8" opacity="1" fill-opacity="0" stroke="#000000" stroke-width="1" stroke-opacity="0"></use></g></g></g></g></svg>