<?xml version="1.0" encoding="UTF-8" standalone="no"?>
<!DOCTYPE svg PUBLIC "-//W3C//DTD SVG 1.1//EN" "http://www.w3.org/Graphics/SVG/1.1/DTD/svg11.dtd">
<svg version="1.1" xmlns="http://www.w3.org/2000/svg" xmlns:xlink="http://www.w3.org/1999/xlink" preserveAspectRatio="xMidYMid meet" viewBox="0 0 200 200" width="200" height="200"><defs><path d="M101.38 20.01C79.29 20.01 61.38 37.92 61.38 60C61.38 104.18 82.97 179.99 101.38 179.99C119.79 179.99 141.38 104.18 141.38 60C141.38 37.92 123.47 20.01 101.38 20.01" id="aTMSzBamx"></path><path d="M61.38 60C61.38 104.18 82.97 179.99 101.38 179.99C119.79 179.99 141.38 104.18 141.38 60C141.38 37.92 123.47 20.01 101.38 20.01C79.29 20.01 61.38 37.92 61.38 60Z" id="a3O2um9sYb"></path><path d="M102.54 139.31C102.54 139.31 102.07 139.38 101.23 139.5C100.4 139.61 99.22 139.74 97.8 139.86C94.96 140.09 91.16 140.23 87.32 139.98C86.36 139.92 85.4 139.81 84.45 139.72C83.51 139.58 82.57 139.47 81.67 139.31C80.77 139.11 79.89 138.96 79.07 138.75C78.24 138.52 77.46 138.31 76.74 138.09C76.03 137.83 75.38 137.59 74.8 137.37C74.21 137.18 73.73 136.89 73.32 136.7C72.51 136.31 72.04 136.08 72.04 136.08C70.72 135.43 70.17 133.83 70.82 132.51C71.47 131.19 73.06 130.64 74.39 131.29C74.41 131.3 74.44 131.32 74.47 131.33C74.49 131.35 74.7 131.46 74.73 131.47C74.73 131.47 75.08 131.66 75.71 132C76.03 132.16 76.38 132.41 76.86 132.59C77.32 132.79 77.85 133.01 78.43 133.25C79.03 133.46 79.69 133.67 80.38 133.9C81.08 134.12 81.86 134.28 82.64 134.49C83.43 134.67 84.27 134.81 85.12 134.98C85.98 135.1 86.85 135.23 87.73 135.33C91.25 135.72 94.85 135.76 97.55 135.66C98.89 135.6 100.01 135.54 100.79 135.47C101.56 135.39 101.99 135.35 101.99 135.35C102 135.35 102.06 135.34 102.07 135.34C103.17 135.24 104.15 136.04 104.25 137.14C104.36 138.21 103.59 139.16 102.54 139.31" id="b17U9CLrtD"></path><path d="M105.6 157.34C105.6 157.34 105.18 157.41 104.44 157.51C103.71 157.61 102.67 157.73 101.43 157.84C98.94 158.05 95.6 158.18 92.22 157.97C91.37 157.92 90.53 157.83 89.69 157.75C88.86 157.63 88.04 157.53 87.24 157.39C86.44 157.23 85.67 157.1 84.94 156.91C84.21 156.71 83.52 156.51 82.88 156.33C82.25 156.1 81.67 155.89 81.16 155.7C80.64 155.53 80.21 155.27 79.84 155.11C79.12 154.76 78.71 154.55 78.71 154.55C77.38 153.91 76.83 152.31 77.48 150.99C78.12 149.67 79.72 149.12 81.04 149.76C81.07 149.78 81.11 149.79 81.14 149.81C81.17 149.83 81.37 149.94 81.39 149.95C81.39 149.95 81.7 150.12 82.23 150.41C82.51 150.54 82.8 150.76 83.22 150.92C83.62 151.09 84.07 151.28 84.57 151.49C85.09 151.67 85.66 151.86 86.26 152.06C86.86 152.25 87.53 152.4 88.21 152.58C88.9 152.74 89.62 152.86 90.36 153.01C91.1 153.11 91.86 153.24 92.63 153.32C95.69 153.67 98.83 153.72 101.18 153.64C102.35 153.59 103.33 153.54 104 153.48C104.67 153.42 105.05 153.38 105.05 153.38C105.06 153.38 105.12 153.38 105.13 153.38C106.23 153.27 107.2 154.08 107.3 155.18C107.4 156.24 106.64 157.19 105.6 157.34" id="aoaV5KDCI"></path><path d="M61.61 64.34C96.4 64.14 115.73 64.03 119.6 64C121.44 63.99 122.94 65.48 122.95 67.32C122.96 69.16 121.48 70.66 119.64 70.67C119.64 70.67 119.62 70.67 119.6 70.67C84.8 70.47 65.47 70.36 61.61 70.34C59.95 70.33 58.62 68.98 58.62 67.32C58.63 65.68 59.97 64.35 61.61 64.34" id="d2JegCZVCj"></path><path d="M99.24 78.76C102.83 78.76 105.74 81.67 105.74 85.26C105.74 88.85 102.83 91.76 99.24 91.76C95.65 91.76 92.74 88.85 92.74 85.26C92.74 81.67 95.65 78.76 99.24 78.76" id="e1A2uqlSEG"></path><path d="M99.24 42.92C102.83 42.92 105.74 45.83 105.74 49.42C105.74 53 102.83 55.92 99.24 55.92C95.65 55.92 92.74 53 92.74 49.42C92.74 45.83 95.65 42.92 99.24 42.92" id="a28fM4Nxhf"></path></defs><g><g><g><use xlink:href="#aTMSzBamx" opacity="1" fill="#ffffff" fill-opacity="1"></use><g><use xlink:href="#aTMSzBamx" opacity="1" fill-opacity="0" stroke="#000000" stroke-width="1" stroke-opacity="0"></use></g></g><g><use xlink:href="#a3O2um9sYb" opacity="1" fill="#000000" fill-opacity="0"></use><g><use xlink:href="#a3O2um9sYb" opacity="1" fill-opacity="0" stroke="#1d1d1b" stroke-width="5" stroke-opacity="1"></use></g></g><g><use xlink:href="#b17U9CLrtD" opacity="1" fill="#1d1d1b" fill-opacity="1"></use><g><use xlink:href="#b17U9CLrtD" opacity="1" fill-opacity="0" stroke="#000000" stroke-width="1" stroke-opacity="0"></use></g></g><g><use xlink:href="#aoaV5KDCI" opacity="1" fill="#1d1d1b" fill-opacity="1"></use><g><use xlink:href="#aoaV5KDCI" opacity="1" fill-opacity="0" stroke="#000000" stroke-width="1" stroke-opacity="0"></use></g></g><g><use xlink:href="#d2JegCZVCj" opacity="1" fill="#1d1d1b" fill-opacity="1"></use><g><use xlink:href="#d2JegCZVCj" opacity="1" fill-opacity="0" stroke="#000000" stroke-width="1" stroke-opacity="0"></use></g></g><g><use xlink:href="#e1A2uqlSEG" opacity="1" fill="#1d1d1b" fill-opacity="1"></use><g><use xlink:href="#e1A2uqlSEG" opacity="1" fill-opacity="0" stroke="#000000" stroke-width="1" stroke-opacity="0"></use></g></g><g><use xlink:href="#a28fM4Nxhf" opacity="1" fill="#1d1d1b" fill-opacity="1"></use><g><use xlink:href="#a28fM4Nxhf" opacity="1" fill-opacity="0" stroke="#000000" stroke-width="1" stroke-opacity="0"></use></g></g></g></g></svg>