<?xml version="1.0" encoding="UTF-8" standalone="no"?>
<!DOCTYPE svg PUBLIC "-//W3C//DTD SVG 1.1//EN" "http://www.w3.org/Graphics/SVG/1.1/DTD/svg11.dtd">
<svg version="1.1" xmlns="http://www.w3.org/2000/svg" xmlns:xlink="http://www.w3.org/1999/xlink" preserveAspectRatio="xMidYMid meet" viewBox="0 0 200 200" width="200" height="200"><defs><path d="M163.82 169.14C163.82 177.31 156.96 183.93 148.5 183.93C140.04 183.93 133.18 177.31 133.18 169.14C133.18 177.31 126.32 182.87 117.86 182.87C109.4 182.87 102.54 177.31 102.54 169.14C102.54 177.31 95.69 183.93 87.23 183.93C78.77 183.93 71.91 177.31 71.91 169.14C71.97 168.35 72.42 162.03 72.48 161.24C72.48 138.77 92.79 131.36 117.96 131.36C143.13 131.36 163.64 141.41 163.64 161.76C163.67 163.23 163.78 167.66 163.82 169.14Z" id="a7wtcvGTA"></path><path d="M160.34 170.39L160.33 169.22C160.26 164.34 160.22 161.63 160.21 161.09C160.18 158.69 159.8 156.34 159.09 154.11C158.36 151.88 157.26 149.79 155.84 147.87C154.42 145.95 152.63 144.27 150.68 142.76C146.74 139.75 141.97 137.62 136.98 136.19C132 134.72 126.72 134.06 121.48 133.8C116.18 133.56 110.82 133.8 105.61 134.51C103 134.87 100.43 135.39 97.92 136.06C95.41 136.73 92.97 137.56 90.68 138.62C86.07 140.7 82.09 143.74 79.5 147.64C76.94 151.56 75.83 156.31 75.9 161.24C75.9 161.25 75.89 161.31 75.89 161.41L75.89 161.49L75.39 169.39C75.39 169.24 75.4 169.15 75.4 169.14C75.44 172.13 76.68 175.05 78.9 177.15C80 178.19 81.28 179.07 82.7 179.65C83.41 179.95 84.15 180.18 84.91 180.33C85.29 180.41 85.68 180.47 86.05 180.51C86.09 180.52 86.26 180.54 86.57 180.57C86.96 180.58 87.18 180.59 87.23 180.59C90.35 180.7 93.5 179.63 95.97 177.58C97.19 176.56 98.25 175.3 99.02 173.87C99.84 172.45 100.31 170.83 100.54 169.14C100.55 169.09 100.6 168.73 100.61 168.69C100.75 167.6 101.75 166.84 102.84 166.99C103.89 167.13 104.64 168.09 104.55 169.14C104.55 169.14 104.54 169.14 104.54 169.14C104.77 170.79 105.23 172.33 106 173.67C106.75 175.02 107.79 176.16 109.01 177.1C110.24 178.01 111.63 178.74 113.15 179.18C113.9 179.41 114.67 179.6 115.46 179.71C115.85 179.77 116.27 179.81 116.65 179.83C116.68 179.83 116.87 179.84 117.21 179.86C117.6 179.87 117.82 179.87 117.87 179.87C121.09 179.89 124.27 178.94 126.72 177.09C127.94 176.16 128.98 175.01 129.73 173.66C130.49 172.32 130.96 170.79 131.18 169.14C131.19 169.09 131.23 168.74 131.24 168.69C131.39 167.61 132.39 166.84 133.47 166.99C134.53 167.13 135.27 168.09 135.18 169.14C135.18 169.14 135.18 169.14 135.18 169.14C135.39 170.84 135.86 172.46 136.66 173.89C137.43 175.33 138.48 176.61 139.72 177.62C140.97 178.63 142.37 179.44 143.87 179.92C144.62 180.17 145.38 180.36 146.16 180.47C146.54 180.53 146.95 180.57 147.32 180.59C147.35 180.59 147.53 180.59 147.84 180.6C148.24 180.6 148.46 180.6 148.5 180.59C151.63 180.5 154.61 179.22 156.82 177.14C157.92 176.1 158.81 174.85 159.42 173.49C159.74 172.81 159.98 172.1 160.16 171.37C160.23 171.05 160.29 170.72 160.34 170.39M167.04 161.62L167.15 169.22L167.16 169.96C167.13 170.56 167.12 170.89 167.11 170.95C167.06 171.57 166.98 172.17 166.87 172.77C166.64 173.97 166.29 175.15 165.82 176.28C164.85 178.53 163.41 180.56 161.65 182.23C159.9 183.92 157.79 185.19 155.54 186.06C153.29 186.91 150.88 187.3 148.5 187.26C148.45 187.26 148.17 187.24 147.68 187.22C147.11 187.16 146.8 187.13 146.73 187.13C146.12 187.05 145.55 186.96 144.97 186.83C143.81 186.58 142.67 186.22 141.58 185.75C139.41 184.8 137.42 183.46 135.81 181.75C134.19 180.06 132.91 178.06 132.1 175.89C131.32 173.71 130.97 171.39 131.18 169.14C131.18 169.14 131.18 169.14 131.18 169.14C133.58 169.14 134.91 169.14 135.18 169.14C135.4 171.31 135.09 173.61 134.25 175.75C133.39 177.88 132.01 179.82 130.3 181.35C128.6 182.9 126.56 184.01 124.44 184.77C122.31 185.51 120.08 185.85 117.87 185.87C117.82 185.87 117.56 185.86 117.09 185.85C116.57 185.81 116.28 185.8 116.22 185.79C115.64 185.74 115.11 185.68 114.55 185.59C113.45 185.41 112.36 185.15 111.29 184.77C109.18 184.01 107.14 182.9 105.44 181.35C103.72 179.83 102.34 177.89 101.48 175.76C100.64 173.62 100.32 171.32 100.55 169.15C100.54 169.15 100.54 169.14 100.54 169.14C102.95 169.14 104.28 169.14 104.55 169.14C104.78 171.38 104.43 173.71 103.67 175.9C102.87 178.08 101.59 180.1 99.96 181.79C98.33 183.49 96.33 184.83 94.16 185.78C91.98 186.71 89.6 187.2 87.23 187.26C87.17 187.26 86.9 187.26 86.41 187.25C85.83 187.22 85.52 187.2 85.45 187.2C84.84 187.15 84.26 187.08 83.66 186.97C82.49 186.77 81.32 186.45 80.2 186.02C77.95 185.17 75.85 183.89 74.08 182.22C72.32 180.56 70.87 178.54 69.89 176.29C68.89 174.05 68.4 171.58 68.42 169.14C68.42 169.13 68.42 169.08 68.42 169.07C68.42 169.01 68.43 168.94 68.43 168.88C68.47 168.36 68.69 165.73 69.08 160.99C69.07 161.14 69.07 161.22 69.07 161.24C69.09 158.28 69.44 155.26 70.28 152.32C71.12 149.38 72.45 146.54 74.23 144.02C76.02 141.5 78.25 139.33 80.69 137.59C83.13 135.83 85.78 134.49 88.47 133.43C93.88 131.3 99.47 130.25 105.02 129.67C110.57 129.07 116.09 128.94 121.63 129.08C127.23 129.26 132.78 129.96 138.29 131.26C143.77 132.61 149.22 134.66 154.11 137.98C156.54 139.64 158.83 141.62 160.75 143.99C162.68 146.35 164.26 149.04 165.34 151.93C166.39 154.83 166.91 157.89 167.02 160.91C167.02 161.01 167.03 161.24 167.04 161.62Z" id="cfcFiVhhh"></path><path d="M117.97 23.95C95.89 23.95 77.98 38.36 77.98 56.14C77.98 91.7 99.57 152.73 117.97 152.73C136.38 152.73 157.97 91.7 157.97 56.14C157.97 38.36 140.06 23.95 117.97 23.95" id="a37XtoRIKF"></path><path d="M77.98 56.14C77.98 91.7 99.57 152.73 117.97 152.73C136.38 152.73 157.97 91.7 157.97 56.14C157.97 38.36 140.06 23.95 117.97 23.95C95.89 23.95 77.98 38.36 77.98 56.14Z" id="b1o1ztMm5O"></path><path d="M119.09 120.37C119.09 120.37 117.18 120.63 114.4 120.83C111.59 121.03 107.84 121.16 104.06 120.98C102.17 120.9 100.27 120.72 98.48 120.49C97.59 120.34 96.73 120.22 95.91 120.06C95.09 119.88 94.31 119.71 93.6 119.55C92.88 119.35 92.23 119.15 91.64 118.98C91.06 118.83 90.56 118.6 90.15 118.45C89.32 118.12 88.84 117.94 88.84 117.94C87.47 117.4 86.79 115.86 87.33 114.48C87.87 113.11 89.41 112.43 90.78 112.97C90.81 112.98 90.85 113 90.87 113.01C90.9 113.02 91.09 113.1 91.11 113.11C91.11 113.11 91.48 113.28 92.14 113.56C92.47 113.7 92.84 113.91 93.34 114.06C93.82 114.22 94.37 114.41 94.96 114.62C95.58 114.78 96.26 114.96 96.96 115.15C97.69 115.31 98.46 115.47 99.26 115.64C100.87 115.92 102.61 116.17 104.38 116.33C107.91 116.65 111.5 116.7 114.19 116.63C116.9 116.56 118.64 116.4 118.64 116.4C119.74 116.3 120.71 117.11 120.81 118.21C120.91 119.28 120.14 120.23 119.09 120.37" id="a1jbRCeFDH"></path><path d="M122.14 134.89C122.14 134.89 120.47 135.12 118.02 135.31C115.56 135.49 112.27 135.61 108.94 135.47C107.28 135.4 105.61 135.24 104.04 135.04C103.25 134.92 102.49 134.79 101.77 134.68C101.04 134.52 100.36 134.37 99.72 134.23C99.09 134.05 98.51 133.88 98 133.73C97.48 133.6 97.04 133.39 96.67 133.26C95.93 132.98 95.51 132.81 95.51 132.81C94.14 132.28 93.45 130.73 93.99 129.36C94.52 127.99 96.07 127.31 97.44 127.84C97.48 127.85 97.51 127.87 97.55 127.88C97.57 127.89 97.75 127.97 97.78 127.98C97.78 127.98 98.1 128.13 98.66 128.38C98.94 128.49 99.26 128.68 99.69 128.81C100.11 128.95 100.58 129.12 101.09 129.3C101.63 129.44 102.21 129.6 102.82 129.77C103.46 129.9 104.12 130.05 104.81 130.2C106.21 130.45 107.73 130.67 109.27 130.81C112.34 131.11 115.47 131.15 117.82 131.1C120.18 131.05 121.69 130.92 121.69 130.92C122.79 130.82 123.77 131.63 123.86 132.74C123.95 133.8 123.19 134.74 122.14 134.89" id="b1spIzaDd6"></path><path d="M117.86 23.95C95.77 23.95 77.87 38.36 77.87 56.14C77.87 91.7 99.45 152.73 117.86 152.73C136.27 152.73 157.86 91.7 157.86 56.14C157.86 38.36 139.95 23.95 117.86 23.95" id="e2XuZwgU"></path><path d="M77.87 56.14C77.87 91.7 99.45 152.73 117.86 152.73C136.27 152.73 157.86 91.7 157.86 56.14C157.86 38.36 139.95 23.95 117.86 23.95C95.77 23.95 77.87 38.36 77.87 56.14Z" id="a2hqfD9Iwv"></path><path d="M118.97 120.37C118.97 120.37 117.07 120.63 114.29 120.83C111.48 121.03 107.73 121.16 103.95 120.98C102.06 120.9 100.16 120.72 98.37 120.49C97.48 120.34 96.62 120.22 95.8 120.06C94.98 119.88 94.2 119.71 93.48 119.55C92.77 119.35 92.11 119.15 91.53 118.98C90.95 118.83 90.45 118.6 90.03 118.45C89.21 118.12 88.73 117.94 88.73 117.94C87.36 117.4 86.68 115.86 87.22 114.48C87.75 113.11 89.3 112.43 90.67 112.97C90.7 112.98 90.73 113 90.76 113.01C90.79 113.02 90.97 113.1 91 113.11C91 113.11 91.37 113.28 92.03 113.56C92.36 113.7 92.73 113.91 93.23 114.06C93.71 114.22 94.26 114.41 94.85 114.62C95.47 114.78 96.14 114.96 96.85 115.15C97.58 115.31 98.35 115.47 99.15 115.64C100.76 115.92 102.5 116.17 104.27 116.33C107.8 116.65 111.39 116.7 114.08 116.63C116.79 116.56 118.53 116.4 118.53 116.4C119.63 116.3 120.6 117.11 120.7 118.21C120.8 119.28 120.03 120.23 118.97 120.37" id="c23rVsEI26"></path><path d="M122.03 134.89C122.03 134.89 120.36 135.12 117.91 135.31C115.45 135.49 112.16 135.61 108.83 135.47C107.17 135.4 105.5 135.24 103.93 135.04C103.14 134.92 102.38 134.79 101.66 134.68C100.93 134.52 100.24 134.37 99.61 134.23C98.98 134.05 98.4 133.88 97.89 133.73C97.37 133.6 96.92 133.39 96.55 133.26C95.82 132.98 95.4 132.81 95.4 132.81C94.02 132.28 93.34 130.73 93.88 129.36C94.41 127.99 95.95 127.31 97.33 127.84C97.36 127.85 97.4 127.87 97.43 127.88C97.46 127.89 97.64 127.97 97.67 127.98C97.67 127.98 97.99 128.13 98.55 128.38C98.83 128.49 99.15 128.68 99.58 128.81C100 128.95 100.47 129.12 100.98 129.3C101.52 129.44 102.1 129.6 102.71 129.77C103.34 129.9 104.01 130.05 104.7 130.2C106.1 130.45 107.62 130.67 109.16 130.81C112.23 131.11 115.36 131.15 117.71 131.1C120.07 131.05 121.58 130.92 121.58 130.92C122.68 130.82 123.65 131.63 123.75 132.74C123.84 133.8 123.07 134.74 122.03 134.89" id="a2VdSGcQmd"></path><path d="M78.09 61.71C112.89 61.51 132.22 61.4 136.08 61.38C137.92 61.37 139.42 62.85 139.43 64.69C139.44 66.53 137.96 68.03 136.12 68.04C136.12 68.04 136.11 68.04 136.08 68.04C101.29 67.84 81.96 67.73 78.09 67.71C76.43 67.7 75.1 66.35 75.11 64.69C75.12 63.05 76.45 61.72 78.09 61.71" id="b3dJ5sSL3Z"></path><path d="M115.72 76.13C119.31 76.13 122.22 79.04 122.22 82.63C122.22 86.22 119.31 89.13 115.72 89.13C112.13 89.13 109.22 86.22 109.22 82.63C109.22 79.04 112.13 76.13 115.72 76.13" id="f2Y1KI79v"></path><path d="M115.72 40.29C119.31 40.29 122.22 43.2 122.22 46.79C122.22 50.38 119.31 53.29 115.72 53.29C112.13 53.29 109.22 50.38 109.22 46.79C109.22 43.2 112.13 40.29 115.72 40.29" id="b8tQtLiR6x"></path></defs><g><g><g><use xlink:href="#a7wtcvGTA" opacity="1" fill="#ffffff" fill-opacity="1"></use><g><use xlink:href="#a7wtcvGTA" opacity="1" fill-opacity="0" stroke="#000000" stroke-width="1" stroke-opacity="0"></use></g></g><g><use xlink:href="#cfcFiVhhh" opacity="1" fill="#1d1d1b" fill-opacity="1"></use><g><use xlink:href="#cfcFiVhhh" opacity="1" fill-opacity="0" stroke="#000000" stroke-width="1" stroke-opacity="0"></use></g></g><g><use xlink:href="#a37XtoRIKF" opacity="1" fill="#ffffff" fill-opacity="1"></use><g><use xlink:href="#a37XtoRIKF" opacity="1" fill-opacity="0" stroke="#000000" stroke-width="1" stroke-opacity="0"></use></g></g><g><use xlink:href="#b1o1ztMm5O" opacity="1" fill="#000000" fill-opacity="0"></use><g><use xlink:href="#b1o1ztMm5O" opacity="1" fill-opacity="0" stroke="#1d1d1b" stroke-width="5" stroke-opacity="1"></use></g></g><g><use xlink:href="#a1jbRCeFDH" opacity="1" fill="#1d1d1b" fill-opacity="1"></use><g><use xlink:href="#a1jbRCeFDH" opacity="1" fill-opacity="0" stroke="#000000" stroke-width="1" stroke-opacity="0"></use></g></g><g><use xlink:href="#b1spIzaDd6" opacity="1" fill="#1d1d1b" fill-opacity="1"></use><g><use xlink:href="#b1spIzaDd6" opacity="1" fill-opacity="0" stroke="#000000" stroke-width="1" stroke-opacity="0"></use></g></g><g><use xlink:href="#e2XuZwgU" opacity="1" fill="#ffffff" fill-opacity="1"></use><g><use xlink:href="#e2XuZwgU" opacity="1" fill-opacity="0" stroke="#000000" stroke-width="1" stroke-opacity="0"></use></g></g><g><use xlink:href="#a2hqfD9Iwv" opacity="1" fill="#000000" fill-opacity="0"></use><g><use xlink:href="#a2hqfD9Iwv" opacity="1" fill-opacity="0" stroke="#1d1d1b" stroke-width="5" stroke-opacity="1"></use></g></g><g><use xlink:href="#c23rVsEI26" opacity="1" fill="#1d1d1b" fill-opacity="1"></use><g><use xlink:href="#c23rVsEI26" opacity="1" fill-opacity="0" stroke="#000000" stroke-width="1" stroke-opacity="0"></use></g></g><g><use xlink:href="#a2VdSGcQmd" opacity="1" fill="#1d1d1b" fill-opacity="1"></use><g><use xlink:href="#a2VdSGcQmd" opacity="1" fill-opacity="0" stroke="#000000" stroke-width="1" stroke-opacity="0"></use></g></g><g><use xlink:href="#b3dJ5sSL3Z" opacity="1" fill="#1d1d1b" fill-opacity="1"></use><g><use xlink:href="#b3dJ5sSL3Z" opacity="1" fill-opacity="0" stroke="#000000" stroke-width="1" stroke-opacity="0"></use></g></g><g><use xlink:href="#f2Y1KI79v" opacity="1" fill="#1d1d1b" fill-opacity="1"></use><g><use xlink:href="#f2Y1KI79v" opacity="1" fill-opacity="0" stroke="#000000" stroke-width="1" stroke-opacity="0"></use></g></g><g><use xlink:href="#b8tQtLiR6x" opacity="1" fill="#1d1d1b" fill-opacity="1"></use><g><use xlink:href="#b8tQtLiR6x" opacity="1" fill-opacity="0" stroke="#000000" stroke-width="1" stroke-opacity="0"></use></g></g></g></g></svg>