<?xml version="1.0" encoding="UTF-8" standalone="no"?>
<!DOCTYPE svg PUBLIC "-//W3C//DTD SVG 1.1//EN" "http://www.w3.org/Graphics/SVG/1.1/DTD/svg11.dtd">
<svg version="1.1" xmlns="http://www.w3.org/2000/svg" xmlns:xlink="http://www.w3.org/1999/xlink" preserveAspectRatio="xMidYMid meet" viewBox="0 0 200 200" width="200" height="200"><defs><path d="M100 30C77.91 30 60 47.91 60 70C60 114.17 81.59 189.98 100 189.98C118.41 189.98 140 114.17 140 70C140 47.91 122.09 30 100 30" id="lofb1evom"></path><path d="M60 70C60 114.17 81.59 189.98 100 189.98C118.41 189.98 140 114.17 140 70C140 47.91 122.09 30 100 30C77.91 30 60 47.91 60 70Z" id="c2MnKOpwr"></path><path d="M101.16 149.3C101.16 149.3 100.69 149.37 99.85 149.49C99.02 149.6 97.84 149.73 96.42 149.85C93.58 150.08 89.78 150.22 85.94 149.97C84.98 149.91 84.02 149.8 83.07 149.71C82.13 149.57 81.19 149.46 80.29 149.3C79.39 149.1 78.51 148.96 77.69 148.74C76.86 148.51 76.08 148.3 75.36 148.08C74.65 147.82 74 147.58 73.42 147.36C72.83 147.17 72.35 146.88 71.94 146.7C71.13 146.3 70.66 146.07 70.66 146.07C69.34 145.42 68.79 143.82 69.44 142.5C70.09 141.18 71.68 140.63 73.01 141.28C73.03 141.29 73.06 141.31 73.09 141.32C73.11 141.34 73.32 141.45 73.35 141.46C73.35 141.46 73.7 141.65 74.33 141.99C74.65 142.15 75 142.4 75.48 142.58C75.94 142.78 76.47 143 77.05 143.24C77.65 143.45 78.31 143.66 79 143.89C79.7 144.11 80.48 144.27 81.26 144.48C82.05 144.66 82.89 144.8 83.74 144.97C84.6 145.09 85.47 145.22 86.35 145.32C89.87 145.71 93.47 145.75 96.17 145.65C97.51 145.59 98.63 145.53 99.41 145.46C100.18 145.38 100.61 145.34 100.61 145.34C100.62 145.34 100.68 145.33 100.69 145.33C101.79 145.23 102.77 146.03 102.87 147.13C102.98 148.2 102.21 149.15 101.16 149.3" id="b3HIAWVnD8"></path><path d="M104.22 167.34C104.22 167.34 103.8 167.4 103.06 167.5C102.33 167.6 101.29 167.72 100.05 167.83C97.56 168.04 94.22 168.17 90.84 167.96C89.99 167.91 89.15 167.82 88.31 167.75C87.48 167.62 86.66 167.52 85.86 167.38C85.06 167.22 84.29 167.09 83.56 166.9C82.83 166.7 82.14 166.5 81.5 166.32C80.87 166.09 80.29 165.88 79.78 165.69C79.26 165.52 78.83 165.26 78.46 165.1C77.74 164.75 77.33 164.55 77.33 164.55C76 163.9 75.45 162.3 76.1 160.98C76.74 159.66 78.34 159.11 79.66 159.75C79.69 159.77 79.73 159.79 79.76 159.8C79.79 159.82 79.99 159.93 80.01 159.94C80.01 159.94 80.32 160.11 80.85 160.4C81.13 160.53 81.42 160.75 81.84 160.91C82.24 161.08 82.69 161.27 83.19 161.49C83.71 161.66 84.28 161.85 84.88 162.05C85.48 162.24 86.15 162.39 86.83 162.57C87.52 162.73 88.25 162.85 88.98 163C89.72 163.1 90.48 163.23 91.25 163.32C94.31 163.66 97.45 163.71 99.8 163.63C100.97 163.58 101.95 163.53 102.62 163.47C103.29 163.41 103.67 163.37 103.67 163.37C103.68 163.37 103.74 163.37 103.75 163.37C104.85 163.26 105.82 164.07 105.92 165.17C106.02 166.24 105.26 167.18 104.22 167.34" id="f1AeynoZhT"></path><path d="M120.33 79.44C120.33 90.67 111.23 99.77 100 99.77C88.77 99.77 79.67 90.67 79.67 79.44C79.67 68.21 88.77 59.11 100 59.11C111.23 59.11 120.33 68.21 120.33 79.44" id="g1955cdblu"></path><path d="M100 99.77C88.77 99.77 79.67 90.67 79.67 79.44C79.67 68.21 88.77 59.11 100 59.11C111.23 59.11 120.33 68.21 120.33 79.44C120.33 90.67 111.23 99.77 100 99.77Z" id="a2Gkr5Q81U"></path><path d="M108.08 78.8C108.08 83.27 104.46 86.88 100 86.88C95.54 86.88 91.92 83.27 91.92 78.8C91.92 74.34 95.54 70.72 100 70.72C104.46 70.72 108.08 74.34 108.08 78.8" id="cg140YEw8"></path></defs><g><g><g><use xlink:href="#lofb1evom" opacity="1" fill="#ffffff" fill-opacity="1"></use><g><use xlink:href="#lofb1evom" opacity="1" fill-opacity="0" stroke="#000000" stroke-width="1" stroke-opacity="0"></use></g></g><g><use xlink:href="#c2MnKOpwr" opacity="1" fill="#000000" fill-opacity="0"></use><g><use xlink:href="#c2MnKOpwr" opacity="1" fill-opacity="0" stroke="#1d1d1b" stroke-width="5" stroke-opacity="1"></use></g></g><g><use xlink:href="#b3HIAWVnD8" opacity="1" fill="#1d1d1b" fill-opacity="1"></use><g><use xlink:href="#b3HIAWVnD8" opacity="1" fill-opacity="0" stroke="#000000" stroke-width="1" stroke-opacity="0"></use></g></g><g><use xlink:href="#f1AeynoZhT" opacity="1" fill="#1d1d1b" fill-opacity="1"></use><g><use xlink:href="#f1AeynoZhT" opacity="1" fill-opacity="0" stroke="#000000" stroke-width="1" stroke-opacity="0"></use></g></g><g><use xlink:href="#g1955cdblu" opacity="1" fill="#ffffff" fill-opacity="1"></use><g><use xlink:href="#g1955cdblu" opacity="1" fill-opacity="0" stroke="#000000" stroke-width="1" stroke-opacity="0"></use></g></g><g><use xlink:href="#a2Gkr5Q81U" opacity="1" fill="#000000" fill-opacity="0"></use><g><use xlink:href="#a2Gkr5Q81U" opacity="1" fill-opacity="0" stroke="#1d1d1b" stroke-width="4" stroke-opacity="1"></use></g></g><g><use xlink:href="#cg140YEw8" opacity="1" fill="#1d1d1b" fill-opacity="1"></use><g><use xlink:href="#cg140YEw8" opacity="1" fill-opacity="0" stroke="#000000" stroke-width="1" stroke-opacity="0"></use></g></g></g></g></svg>