<?xml version="1.0" encoding="UTF-8" standalone="no"?>
<!DOCTYPE svg PUBLIC "-//W3C//DTD SVG 1.1//EN" "http://www.w3.org/Graphics/SVG/1.1/DTD/svg11.dtd">
<svg version="1.1" xmlns="http://www.w3.org/2000/svg" xmlns:xlink="http://www.w3.org/1999/xlink" preserveAspectRatio="xMidYMid meet" viewBox="0 0 200 200" width="200" height="200"><defs><path d="M154.03 169.14C154.03 177.31 147.17 183.93 138.71 183.93C130.25 183.93 123.39 177.31 123.39 169.14C123.39 177.31 116.53 182.87 108.07 182.87C99.61 182.87 92.76 177.31 92.76 169.14C92.76 177.31 85.9 183.93 77.44 183.93C68.98 183.93 62.12 177.31 62.12 169.14C62.18 168.35 62.64 162.03 62.69 161.24C62.69 138.77 83 131.36 108.17 131.36C133.34 131.36 153.85 141.41 153.85 161.76C153.89 163.23 153.99 167.66 154.03 169.14Z" id="b4uKnW9I2N"></path><path d="M150.55 170.39L150.54 169.22C150.47 164.34 150.43 161.63 150.42 161.09C150.39 158.69 150.01 156.34 149.3 154.11C148.58 151.88 147.47 149.79 146.05 147.87C144.63 145.95 142.85 144.27 140.89 142.76C136.95 139.75 132.18 137.62 127.19 136.19C122.21 134.72 116.93 134.06 111.69 133.8C106.39 133.56 101.03 133.8 95.82 134.51C93.21 134.87 90.64 135.39 88.13 136.06C85.63 136.73 83.19 137.56 80.89 138.62C76.28 140.7 72.3 143.74 69.71 147.64C67.15 151.56 66.04 156.31 66.11 161.24C66.11 161.25 66.11 161.31 66.1 161.41L66.1 161.49L65.6 169.39C65.6 169.24 65.61 169.15 65.61 169.14C65.65 172.13 66.89 175.05 69.11 177.15C70.21 178.19 71.49 179.07 72.92 179.65C73.62 179.95 74.36 180.18 75.12 180.33C75.5 180.41 75.89 180.47 76.26 180.51C76.3 180.52 76.47 180.54 76.78 180.57C77.17 180.58 77.39 180.59 77.44 180.59C80.57 180.7 83.72 179.63 86.18 177.58C87.4 176.56 88.46 175.3 89.24 173.87C90.05 172.45 90.52 170.83 90.75 169.14C90.76 169.09 90.81 168.73 90.82 168.69C90.96 167.6 91.96 166.84 93.05 166.99C94.1 167.13 94.85 168.09 94.76 169.14C94.76 169.14 94.76 169.14 94.76 169.14C94.98 170.79 95.44 172.33 96.21 173.67C96.96 175.02 98 176.16 99.22 177.1C100.45 178.01 101.84 178.74 103.36 179.18C104.11 179.41 104.88 179.6 105.67 179.71C106.07 179.77 106.48 179.81 106.86 179.83C106.9 179.83 107.08 179.84 107.42 179.86C107.82 179.87 108.03 179.87 108.08 179.87C111.3 179.89 114.49 178.94 116.93 177.09C118.15 176.16 119.19 175.01 119.94 173.66C120.71 172.32 121.17 170.79 121.39 169.14C121.4 169.09 121.45 168.74 121.45 168.69C121.6 167.61 122.6 166.84 123.68 166.99C124.74 167.13 125.49 168.09 125.39 169.14C125.39 169.14 125.39 169.14 125.39 169.14C125.6 170.84 126.07 172.46 126.88 173.89C127.64 175.33 128.69 176.61 129.94 177.62C131.19 178.63 132.58 179.44 134.08 179.92C134.83 180.17 135.59 180.36 136.37 180.47C136.75 180.53 137.16 180.57 137.53 180.59C137.56 180.59 137.74 180.59 138.05 180.6C138.45 180.6 138.67 180.6 138.71 180.59C141.84 180.5 144.83 179.22 147.03 177.14C148.13 176.1 149.02 174.85 149.63 173.49C149.95 172.81 150.2 172.1 150.37 171.37C150.45 171.05 150.5 170.72 150.55 170.39M157.26 161.62L157.36 169.22L157.37 169.96C157.34 170.56 157.33 170.89 157.32 170.95C157.27 171.57 157.19 172.17 157.08 172.77C156.85 173.97 156.5 175.15 156.03 176.28C155.06 178.53 153.62 180.56 151.86 182.23C150.11 183.92 148 185.19 145.76 186.06C143.5 186.91 141.09 187.3 138.71 187.26C138.66 187.26 138.38 187.24 137.89 187.22C137.32 187.16 137.01 187.13 136.94 187.13C136.34 187.05 135.76 186.96 135.18 186.83C134.02 186.58 132.88 186.22 131.79 185.75C129.63 184.8 127.63 183.46 126.02 181.75C124.4 180.06 123.12 178.06 122.31 175.89C121.53 173.71 121.18 171.39 121.39 169.14C121.39 169.14 121.39 169.14 121.39 169.14C123.79 169.14 125.12 169.14 125.39 169.14C125.61 171.31 125.3 173.61 124.46 175.75C123.6 177.88 122.23 179.82 120.51 181.35C118.81 182.9 116.77 184.01 114.65 184.77C112.52 185.51 110.29 185.85 108.08 185.87C108.03 185.87 107.77 185.86 107.3 185.85C106.78 185.81 106.49 185.8 106.43 185.79C105.85 185.74 105.32 185.68 104.76 185.59C103.66 185.41 102.57 185.15 101.5 184.77C99.39 184.01 97.35 182.9 95.65 181.35C93.93 179.83 92.55 177.89 91.69 175.76C90.85 173.62 90.53 171.32 90.76 169.15C90.76 169.15 90.76 169.14 90.75 169.14C93.16 169.14 94.49 169.14 94.76 169.14C94.99 171.38 94.64 173.71 93.88 175.9C93.08 178.08 91.81 180.1 90.17 181.79C88.55 183.49 86.54 184.83 84.37 185.78C82.19 186.71 79.81 187.2 77.44 187.26C77.38 187.26 77.11 187.26 76.62 187.25C76.05 187.22 75.73 187.2 75.66 187.2C75.05 187.15 74.47 187.08 73.88 186.97C72.7 186.77 71.53 186.45 70.41 186.02C68.16 185.17 66.06 183.89 64.29 182.22C62.53 180.56 61.09 178.54 60.1 176.29C59.1 174.05 58.61 171.58 58.63 169.14C58.63 169.13 58.63 169.08 58.63 169.07C58.63 169.01 58.64 168.94 58.64 168.88C58.68 168.36 58.9 165.73 59.29 160.99C59.28 161.14 59.28 161.22 59.28 161.24C59.31 158.28 59.65 155.26 60.49 152.32C61.33 149.38 62.66 146.54 64.44 144.02C66.23 141.5 68.46 139.33 70.9 137.59C73.34 135.83 75.99 134.49 78.69 133.43C84.09 131.3 89.68 130.25 95.23 129.67C100.78 129.07 106.3 128.94 111.85 129.08C117.44 129.26 122.99 129.96 128.5 131.26C133.98 132.61 139.43 134.66 144.32 137.98C146.76 139.64 149.05 141.62 150.97 143.99C152.89 146.35 154.47 149.04 155.55 151.93C156.6 154.83 157.12 157.89 157.23 160.91C157.23 161.01 157.24 161.24 157.26 161.62Z" id="dF1sEipl"></path><path d="M108.18 23.95C86.1 23.95 68.19 38.36 68.19 56.14C68.19 91.7 89.78 152.73 108.18 152.73C126.59 152.73 148.18 91.7 148.18 56.14C148.18 38.36 130.27 23.95 108.18 23.95" id="dMCSKt6JO"></path><path d="M68.19 56.14C68.19 91.7 89.78 152.73 108.18 152.73C126.59 152.73 148.18 91.7 148.18 56.14C148.18 38.36 130.27 23.95 108.18 23.95C86.1 23.95 68.19 38.36 68.19 56.14Z" id="a1MPmWhRfF"></path><path d="M109.3 120.37C109.3 120.37 107.4 120.63 104.61 120.83C101.8 121.03 98.05 121.16 94.27 120.98C92.38 120.9 90.48 120.72 88.7 120.49C87.8 120.34 86.94 120.22 86.12 120.06C85.3 119.88 84.52 119.71 83.81 119.55C83.09 119.35 82.44 119.15 81.86 118.98C81.27 118.83 80.77 118.6 80.36 118.45C79.53 118.12 79.05 117.94 79.05 117.94C77.68 117.4 77.01 115.86 77.54 114.48C78.08 113.11 79.62 112.43 81 112.97C81.03 112.98 81.06 113 81.09 113.01C81.11 113.02 81.3 113.1 81.32 113.11C81.32 113.11 81.69 113.28 82.35 113.56C82.68 113.7 83.06 113.91 83.55 114.06C84.03 114.22 84.58 114.41 85.18 114.62C85.79 114.78 86.47 114.96 87.18 115.15C87.91 115.31 88.67 115.47 89.47 115.64C91.08 115.92 92.83 116.17 94.59 116.33C98.13 116.65 101.72 116.7 104.4 116.63C107.11 116.56 108.85 116.4 108.85 116.4C109.95 116.3 110.92 117.11 111.02 118.21C111.12 119.28 110.35 120.23 109.3 120.37" id="a17ALQVsBJ"></path><path d="M112.35 134.89C112.35 134.89 110.68 135.12 108.23 135.31C105.77 135.49 102.48 135.61 99.16 135.47C97.49 135.4 95.82 135.24 94.25 135.04C93.46 134.92 92.7 134.79 91.98 134.68C91.25 134.52 90.57 134.37 89.94 134.23C89.3 134.05 88.72 133.88 88.21 133.73C87.69 133.6 87.25 133.39 86.88 133.26C86.14 132.98 85.72 132.81 85.72 132.81C84.35 132.28 83.67 130.73 84.2 129.36C84.73 127.99 86.28 127.31 87.65 127.84C87.69 127.85 87.72 127.87 87.76 127.88C87.78 127.89 87.96 127.97 87.99 127.98C87.99 127.98 88.31 128.13 88.87 128.38C89.16 128.49 89.47 128.68 89.9 128.81C90.32 128.95 90.79 129.12 91.3 129.3C91.84 129.44 92.42 129.6 93.03 129.77C93.67 129.9 94.33 130.05 95.02 130.2C96.42 130.45 97.94 130.67 99.48 130.81C102.55 131.11 105.69 131.15 108.03 131.1C110.39 131.05 111.91 130.92 111.91 130.92C113.01 130.82 113.98 131.63 114.07 132.74C114.17 133.8 113.4 134.74 112.35 134.89" id="b8bwKaeb2L"></path><path d="M108.07 23.95C85.99 23.95 68.08 38.36 68.08 56.14C68.08 91.7 89.67 152.73 108.07 152.73C126.48 152.73 148.07 91.7 148.07 56.14C148.07 38.36 130.16 23.95 108.07 23.95" id="a8oGqUj7a"></path><path d="M68.08 56.14C68.08 91.7 89.67 152.73 108.07 152.73C126.48 152.73 148.07 91.7 148.07 56.14C148.07 38.36 130.16 23.95 108.07 23.95C85.99 23.95 68.08 38.36 68.08 56.14Z" id="m2190vAbi"></path><path d="M109.19 120.37C109.19 120.37 107.28 120.63 104.5 120.83C101.69 121.03 97.94 121.16 94.16 120.98C92.27 120.9 90.37 120.72 88.58 120.49C87.69 120.34 86.83 120.22 86.01 120.06C85.19 119.88 84.41 119.71 83.7 119.55C82.98 119.35 82.33 119.15 81.74 118.98C81.16 118.83 80.66 118.6 80.25 118.45C79.42 118.12 78.94 117.94 78.94 117.94C77.57 117.4 76.89 115.86 77.43 114.48C77.97 113.11 79.51 112.43 80.88 112.97C80.92 112.98 80.95 113 80.98 113.01C81 113.02 81.19 113.1 81.21 113.11C81.21 113.11 81.58 113.28 82.24 113.56C82.57 113.7 82.94 113.91 83.44 114.06C83.92 114.22 84.47 114.41 85.06 114.62C85.68 114.78 86.36 114.96 87.06 115.15C87.79 115.31 88.56 115.47 89.36 115.64C90.97 115.92 92.72 116.17 94.48 116.33C98.01 116.65 101.6 116.7 104.29 116.63C107 116.56 108.74 116.4 108.74 116.4C109.84 116.3 110.81 117.11 110.91 118.21C111.01 119.28 110.24 120.23 109.19 120.37" id="id5oErKn0"></path><path d="M112.24 134.89C112.24 134.89 110.57 135.12 108.12 135.31C105.66 135.49 102.37 135.61 99.04 135.47C97.38 135.4 95.71 135.24 94.14 135.04C93.35 134.92 92.59 134.79 91.87 134.68C91.14 134.52 90.46 134.37 89.82 134.23C89.19 134.05 88.61 133.88 88.1 133.73C87.58 133.6 87.14 133.39 86.77 133.26C86.03 132.98 85.61 132.81 85.61 132.81C84.24 132.28 83.55 130.73 84.09 129.36C84.62 127.99 86.17 127.31 87.54 127.84C87.58 127.85 87.61 127.87 87.65 127.88C87.67 127.89 87.85 127.97 87.88 127.98C87.88 127.98 88.2 128.13 88.76 128.38C89.04 128.49 89.36 128.68 89.79 128.81C90.21 128.95 90.68 129.12 91.19 129.3C91.73 129.44 92.31 129.6 92.92 129.77C93.56 129.9 94.22 130.05 94.91 130.2C96.31 130.45 97.83 130.67 99.37 130.81C102.44 131.11 105.57 131.15 107.92 131.1C110.28 131.05 111.79 130.92 111.79 130.92C112.89 130.82 113.87 131.63 113.96 132.74C114.05 133.8 113.29 134.74 112.24 134.89" id="b9HhJMLWW"></path><path d="M128.4 65.08C128.4 76.3 119.3 85.41 108.07 85.41C96.84 85.41 87.74 76.3 87.74 65.08C87.74 53.85 96.84 44.75 108.07 44.75C119.3 44.75 128.4 53.85 128.4 65.08" id="c3GCU9yZWf"></path><path d="M108.07 85.41C96.84 85.41 87.74 76.3 87.74 65.08C87.74 53.85 96.84 44.75 108.07 44.75C119.3 44.75 128.4 53.85 128.4 65.08C128.4 76.3 119.3 85.41 108.07 85.41Z" id="f3XtH5APt5"></path><path d="M116.15 64.44C116.15 68.9 112.54 72.52 108.07 72.52C103.61 72.52 99.99 68.9 99.99 64.44C99.99 59.98 103.61 56.36 108.07 56.36C112.54 56.36 116.15 59.98 116.15 64.44" id="cfjNLc6ek"></path></defs><g><g><g><use xlink:href="#b4uKnW9I2N" opacity="1" fill="#ffffff" fill-opacity="1"></use><g><use xlink:href="#b4uKnW9I2N" opacity="1" fill-opacity="0" stroke="#000000" stroke-width="1" stroke-opacity="0"></use></g></g><g><use xlink:href="#dF1sEipl" opacity="1" fill="#1d1d1b" fill-opacity="1"></use><g><use xlink:href="#dF1sEipl" opacity="1" fill-opacity="0" stroke="#000000" stroke-width="1" stroke-opacity="0"></use></g></g><g><use xlink:href="#dMCSKt6JO" opacity="1" fill="#ffffff" fill-opacity="1"></use><g><use xlink:href="#dMCSKt6JO" opacity="1" fill-opacity="0" stroke="#000000" stroke-width="1" stroke-opacity="0"></use></g></g><g><use xlink:href="#a1MPmWhRfF" opacity="1" fill="#000000" fill-opacity="0"></use><g><use xlink:href="#a1MPmWhRfF" opacity="1" fill-opacity="0" stroke="#1d1d1b" stroke-width="5" stroke-opacity="1"></use></g></g><g><use xlink:href="#a17ALQVsBJ" opacity="1" fill="#1d1d1b" fill-opacity="1"></use><g><use xlink:href="#a17ALQVsBJ" opacity="1" fill-opacity="0" stroke="#000000" stroke-width="1" stroke-opacity="0"></use></g></g><g><use xlink:href="#b8bwKaeb2L" opacity="1" fill="#1d1d1b" fill-opacity="1"></use><g><use xlink:href="#b8bwKaeb2L" opacity="1" fill-opacity="0" stroke="#000000" stroke-width="1" stroke-opacity="0"></use></g></g><g><use xlink:href="#a8oGqUj7a" opacity="1" fill="#ffffff" fill-opacity="1"></use><g><use xlink:href="#a8oGqUj7a" opacity="1" fill-opacity="0" stroke="#000000" stroke-width="1" stroke-opacity="0"></use></g></g><g><use xlink:href="#m2190vAbi" opacity="1" fill="#000000" fill-opacity="0"></use><g><use xlink:href="#m2190vAbi" opacity="1" fill-opacity="0" stroke="#1d1d1b" stroke-width="5" stroke-opacity="1"></use></g></g><g><use xlink:href="#id5oErKn0" opacity="1" fill="#1d1d1b" fill-opacity="1"></use><g><use xlink:href="#id5oErKn0" opacity="1" fill-opacity="0" stroke="#000000" stroke-width="1" stroke-opacity="0"></use></g></g><g><use xlink:href="#b9HhJMLWW" opacity="1" fill="#1d1d1b" fill-opacity="1"></use><g><use xlink:href="#b9HhJMLWW" opacity="1" fill-opacity="0" stroke="#000000" stroke-width="1" stroke-opacity="0"></use></g></g><g><use xlink:href="#c3GCU9yZWf" opacity="1" fill="#ffffff" fill-opacity="1"></use><g><use xlink:href="#c3GCU9yZWf" opacity="1" fill-opacity="0" stroke="#000000" stroke-width="1" stroke-opacity="0"></use></g></g><g><use xlink:href="#f3XtH5APt5" opacity="1" fill="#000000" fill-opacity="0"></use><g><use xlink:href="#f3XtH5APt5" opacity="1" fill-opacity="0" stroke="#1d1d1b" stroke-width="4" stroke-opacity="1"></use></g></g><g><use xlink:href="#cfjNLc6ek" opacity="1" fill="#1d1d1b" fill-opacity="1"></use><g><use xlink:href="#cfjNLc6ek" opacity="1" fill-opacity="0" stroke="#000000" stroke-width="1" stroke-opacity="0"></use></g></g></g></g></svg>