<?xml version="1.0" encoding="UTF-8" standalone="no"?>
<!DOCTYPE svg PUBLIC "-//W3C//DTD SVG 1.1//EN" "http://www.w3.org/Graphics/SVG/1.1/DTD/svg11.dtd">
<svg version="1.1" xmlns="http://www.w3.org/2000/svg" xmlns:xlink="http://www.w3.org/1999/xlink" preserveAspectRatio="xMidYMid meet" viewBox="0 0 200 200" width="200" height="200"><defs><path d="M101.02 27.28C78.93 27.28 61.02 45.19 61.02 67.28C61.02 111.46 82.61 187.26 101.02 187.26C119.42 187.26 141.01 111.46 141.01 67.28C141.01 45.19 123.11 27.28 101.02 27.28" id="aR8PvyOeK"></path><path d="M61.02 67.28C61.02 111.46 82.61 187.26 101.02 187.26C119.42 187.26 141.01 111.46 141.01 67.28C141.01 45.19 123.11 27.28 101.02 27.28C78.93 27.28 61.02 45.19 61.02 67.28Z" id="gjoV8ezHx"></path><path d="M102.18 146.58C102.18 146.58 101.7 146.65 100.86 146.77C100.03 146.88 98.86 147.01 97.44 147.13C94.6 147.36 90.8 147.5 86.96 147.25C86 147.19 85.04 147.08 84.09 147C83.14 146.85 82.21 146.74 81.31 146.58C80.4 146.39 79.53 146.24 78.7 146.02C77.88 145.79 77.1 145.59 76.38 145.37C75.67 145.1 75.01 144.86 74.43 144.65C73.85 144.45 73.37 144.16 72.96 143.98C72.14 143.58 71.68 143.35 71.68 143.35C70.36 142.7 69.81 141.11 70.46 139.78C71.1 138.46 72.7 137.91 74.02 138.56C74.05 138.58 74.08 138.59 74.11 138.6C74.13 138.62 74.34 138.73 74.36 138.74C74.36 138.74 74.72 138.94 75.35 139.27C75.67 139.43 76.01 139.68 76.49 139.86C76.96 140.06 77.49 140.28 78.07 140.53C78.67 140.73 79.33 140.95 80.02 141.18C80.72 141.39 81.49 141.56 82.28 141.77C83.07 141.95 83.91 142.08 84.75 142.25C85.61 142.37 86.48 142.51 87.36 142.61C90.89 142.99 94.49 143.03 97.18 142.93C98.53 142.88 99.65 142.81 100.43 142.74C101.19 142.66 101.63 142.62 101.63 142.62C101.64 142.62 101.7 142.62 101.71 142.61C102.81 142.51 103.78 143.31 103.89 144.41C103.99 145.48 103.23 146.43 102.18 146.58" id="aDKZidcYq"></path><path d="M105.24 164.62C105.24 164.62 104.82 164.68 104.08 164.78C103.35 164.89 102.31 165 101.07 165.11C98.57 165.32 95.23 165.45 91.85 165.25C91.01 165.19 90.16 165.1 89.33 165.03C88.5 164.9 87.67 164.81 86.88 164.67C86.08 164.5 85.31 164.37 84.58 164.18C83.85 163.98 83.16 163.79 82.52 163.61C81.89 163.37 81.31 163.16 80.79 162.97C80.28 162.8 79.85 162.54 79.48 162.38C78.76 162.03 78.34 161.83 78.34 161.83C77.02 161.18 76.47 159.59 77.11 158.26C77.76 156.94 79.35 156.39 80.68 157.03C80.71 157.05 80.75 157.07 80.78 157.08C80.8 157.1 81 157.21 81.03 157.22C81.03 157.22 81.34 157.39 81.87 157.68C82.15 157.81 82.44 158.03 82.85 158.19C83.26 158.36 83.71 158.55 84.21 158.77C84.73 158.94 85.3 159.13 85.89 159.33C86.5 159.52 87.17 159.67 87.85 159.85C88.53 160.01 89.26 160.13 89.99 160.28C90.74 160.39 91.5 160.51 92.26 160.6C95.33 160.95 98.47 160.99 100.81 160.91C101.99 160.87 102.96 160.81 103.64 160.75C104.31 160.69 104.69 160.66 104.69 160.66C104.69 160.66 104.76 160.65 104.77 160.65C105.86 160.55 106.84 161.35 106.94 162.45C107.04 163.52 106.28 164.46 105.24 164.62" id="ai6nYAoGm"></path><path d="M61.41 72.66C86.94 72.33 101.12 72.15 103.95 72.11C105.61 72.09 106.97 73.41 106.99 75.07C107.01 76.73 105.69 78.09 104.03 78.11C104.01 78.11 103.98 78.11 103.95 78.11C99.7 78.06 65.66 77.62 61.41 77.56C60.05 77.55 58.97 76.43 58.99 75.08C59 73.75 60.08 72.67 61.41 72.66" id="a52roInFzW"></path><path d="M62.8 54.22C76.19 54.01 83.64 53.9 85.12 53.88C88.47 53.85 92.1 53.81 95.94 53.78C97.86 53.76 99.83 53.74 101.84 53.72C102.88 53.71 103.8 53.7 104.96 53.72C105.43 53.72 106.13 53.77 106.73 53.82C107.31 53.88 107.9 53.95 108.49 54.06C113.19 54.84 117.85 57.15 121.34 60.85C124.87 64.5 127.1 69.64 127.13 74.89C127.14 74.91 127.14 75.02 127.14 75.21L127.13 75.42C127.13 75.67 127.12 75.81 127.12 75.84C127.12 76.09 127.09 76.46 127.06 76.81C127.01 77.53 126.91 78.13 126.79 78.79C126.56 80.07 126.19 81.33 125.72 82.55C124.76 84.96 123.36 87.17 121.64 89.05C118.22 92.82 113.6 95.21 108.92 96.09C107.74 96.31 106.57 96.44 105.4 96.49C104.17 96.53 103.26 96.5 102.22 96.5C100.21 96.48 98.24 96.47 96.32 96.45C92.48 96.41 88.85 96.38 85.5 96.34C72.11 96.14 63.18 96 63.18 96C61.85 95.98 60.8 94.89 60.82 93.56C60.84 92.27 61.89 91.22 63.18 91.2C63.18 91.2 72.11 91.06 85.5 90.86C88.85 90.83 92.48 90.79 96.32 90.75C98.24 90.74 100.21 90.72 102.22 90.7C103.2 90.69 104.33 90.7 105.15 90.67C106.04 90.62 106.93 90.52 107.81 90.35C111.34 89.66 114.78 87.84 117.26 85.07C119.76 82.32 121.21 78.66 121.14 74.95C121.13 71.25 119.6 67.61 117.04 64.91C114.5 62.19 111.03 60.42 107.49 59.81C107.05 59.73 106.6 59.68 106.16 59.63C105.72 59.59 105.39 59.55 104.83 59.54C103.82 59.53 102.83 59.53 101.84 59.52C99.83 59.5 97.86 59.48 95.94 59.46C92.1 59.43 88.47 59.39 85.12 59.36C82.89 59.33 65.03 59.05 62.8 59.02C61.47 59 60.42 57.91 60.44 56.58C60.46 55.28 61.51 54.24 62.8 54.22" id="b1k6B62by3"></path></defs><g><g><g><use xlink:href="#aR8PvyOeK" opacity="1" fill="#ffffff" fill-opacity="1"></use><g><use xlink:href="#aR8PvyOeK" opacity="1" fill-opacity="0" stroke="#000000" stroke-width="1" stroke-opacity="0"></use></g></g><g><use xlink:href="#gjoV8ezHx" opacity="1" fill="#000000" fill-opacity="0"></use><g><use xlink:href="#gjoV8ezHx" opacity="1" fill-opacity="0" stroke="#1d1d1b" stroke-width="5" stroke-opacity="1"></use></g></g><g><use xlink:href="#aDKZidcYq" opacity="1" fill="#1d1d1b" fill-opacity="1"></use><g><use xlink:href="#aDKZidcYq" opacity="1" fill-opacity="0" stroke="#000000" stroke-width="1" stroke-opacity="0"></use></g></g><g><use xlink:href="#ai6nYAoGm" opacity="1" fill="#1d1d1b" fill-opacity="1"></use><g><use xlink:href="#ai6nYAoGm" opacity="1" fill-opacity="0" stroke="#000000" stroke-width="1" stroke-opacity="0"></use></g></g><g><use xlink:href="#a52roInFzW" opacity="1" fill="#1d1d1b" fill-opacity="1"></use><g><use xlink:href="#a52roInFzW" opacity="1" fill-opacity="0" stroke="#000000" stroke-width="1" stroke-opacity="0"></use></g></g><g><use xlink:href="#b1k6B62by3" opacity="1" fill="#1d1d1b" fill-opacity="1"></use><g><use xlink:href="#b1k6B62by3" opacity="1" fill-opacity="0" stroke="#000000" stroke-width="1" stroke-opacity="0"></use></g></g></g></g></svg>