<?xml version="1.0" encoding="UTF-8" standalone="no"?>
<!DOCTYPE svg PUBLIC "-//W3C//DTD SVG 1.1//EN" "http://www.w3.org/Graphics/SVG/1.1/DTD/svg11.dtd">
<svg version="1.1" xmlns="http://www.w3.org/2000/svg" xmlns:xlink="http://www.w3.org/1999/xlink" preserveAspectRatio="xMidYMid meet" viewBox="0 0 200 200" width="200" height="200"><defs><path d="M158.43 161.79C158.43 169.96 151.58 176.58 143.12 176.58C134.66 176.58 127.8 169.96 127.8 161.79C127.8 169.96 120.94 175.52 112.48 175.52C104.02 175.52 97.16 169.96 97.16 161.79C97.16 169.96 90.31 176.58 81.84 176.58C73.39 176.58 66.53 169.96 66.53 161.79C66.59 161 67.04 154.68 67.1 153.89C67.1 131.42 87.41 124.02 112.58 124.02C137.75 124.02 158.26 134.07 158.26 154.41C158.29 155.89 158.4 160.31 158.43 161.79Z" id="c22TFCS1kM"></path><path d="M154.96 163.04L154.94 161.87C154.87 156.99 154.84 154.28 154.83 153.74C154.8 151.34 154.42 149 153.71 146.76C152.98 144.54 151.88 142.44 150.45 140.53C149.04 138.61 147.25 136.92 145.3 135.41C141.36 132.4 136.59 130.27 131.6 128.84C126.62 127.37 121.33 126.71 116.1 126.45C110.8 126.21 105.44 126.45 100.23 127.16C97.62 127.52 95.05 128.04 92.54 128.71C90.03 129.38 87.59 130.21 85.3 131.27C80.69 133.35 76.71 136.39 74.12 140.29C71.56 144.21 70.45 148.96 70.51 153.89C70.51 153.9 70.51 153.96 70.51 154.06L70.5 154.14L70.01 162.04C70.01 161.89 70.01 161.81 70.02 161.79C70.06 164.78 71.3 167.7 73.52 169.8C74.62 170.84 75.9 171.72 77.32 172.3C78.03 172.6 78.77 172.83 79.53 172.98C79.9 173.06 80.3 173.12 80.67 173.17C80.7 173.17 80.88 173.19 81.19 173.22C81.58 173.24 81.8 173.25 81.84 173.25C84.97 173.35 88.12 172.28 90.58 170.23C91.81 169.21 92.86 167.96 93.64 166.52C94.46 165.1 94.93 163.49 95.16 161.79C95.17 161.74 95.22 161.38 95.22 161.34C95.37 160.25 96.37 159.49 97.45 159.64C98.51 159.78 99.26 160.74 99.16 161.79C99.16 161.79 99.16 161.8 99.16 161.8C99.39 163.45 99.85 164.98 100.62 166.32C101.37 167.67 102.41 168.82 103.63 169.75C104.86 170.66 106.25 171.39 107.76 171.83C108.52 172.06 109.29 172.25 110.08 172.36C110.47 172.42 110.89 172.46 111.27 172.48C111.3 172.49 111.49 172.5 111.83 172.51C112.22 172.52 112.44 172.52 112.48 172.52C115.71 172.54 118.89 171.6 121.34 169.74C122.55 168.81 123.59 167.66 124.34 166.32C125.11 164.97 125.57 163.44 125.8 161.79C125.8 161.74 125.85 161.39 125.86 161.34C126.01 160.26 127 159.5 128.09 159.64C129.14 159.79 129.89 160.74 129.8 161.79C129.8 161.79 129.8 161.79 129.8 161.79C130 163.49 130.48 165.11 131.28 166.54C132.05 167.99 133.1 169.26 134.34 170.28C135.59 171.28 136.99 172.09 138.49 172.58C139.24 172.82 140 173.02 140.78 173.13C141.16 173.18 141.56 173.22 141.94 173.24C141.97 173.24 142.15 173.25 142.46 173.26C142.85 173.25 143.07 173.25 143.12 173.25C146.25 173.16 149.23 171.87 151.43 169.79C152.54 168.75 153.43 167.5 154.03 166.14C154.35 165.46 154.6 164.75 154.78 164.03C154.85 163.7 154.91 163.37 154.96 163.04M161.66 154.27L161.76 161.88L161.78 162.62C161.75 163.21 161.73 163.54 161.73 163.61C161.68 164.22 161.6 164.82 161.49 165.42C161.26 166.62 160.9 167.8 160.43 168.93C159.46 171.18 158.02 173.21 156.27 174.88C154.52 176.57 152.41 177.85 150.16 178.71C147.91 179.56 145.49 179.95 143.12 179.91C143.06 179.91 142.79 179.9 142.3 179.87C141.73 179.82 141.41 179.79 141.35 179.78C140.74 179.71 140.17 179.61 139.58 179.48C138.42 179.23 137.29 178.88 136.2 178.4C134.03 177.45 132.04 176.11 130.43 174.4C128.81 172.71 127.53 170.71 126.72 168.54C125.94 166.36 125.59 164.04 125.8 161.8C125.8 161.8 125.8 161.79 125.8 161.79C128.2 161.79 129.53 161.79 129.8 161.79C130.02 163.97 129.7 166.27 128.86 168.4C128.01 170.54 126.63 172.47 124.92 174C123.21 175.55 121.18 176.66 119.06 177.42C116.93 178.16 114.7 178.5 112.49 178.52C112.43 178.52 112.17 178.51 111.71 178.5C111.18 178.47 110.89 178.45 110.84 178.45C110.26 178.4 109.72 178.33 109.17 178.24C108.07 178.06 106.97 177.8 105.91 177.43C103.79 176.67 101.76 175.56 100.05 174C98.34 172.48 96.96 170.54 96.1 168.41C95.26 166.28 94.94 163.98 95.16 161.8C95.16 161.8 95.16 161.8 95.16 161.79C97.56 161.79 98.9 161.79 99.16 161.79C99.39 164.04 99.05 166.36 98.28 168.55C97.48 170.73 96.21 172.75 94.58 174.44C92.95 176.14 90.95 177.48 88.78 178.43C86.6 179.37 84.22 179.85 81.84 179.91C81.79 179.91 81.52 179.91 81.02 179.91C80.45 179.87 80.13 179.86 80.07 179.85C79.46 179.8 78.88 179.73 78.28 179.63C77.1 179.42 75.94 179.1 74.82 178.67C72.57 177.82 70.46 176.54 68.7 174.88C66.94 173.21 65.49 171.19 64.51 168.95C63.51 166.7 63.02 164.23 63.04 161.79C63.04 161.78 63.04 161.73 63.04 161.73C63.04 161.66 63.04 161.6 63.05 161.54C63.09 161.01 63.31 158.38 63.7 153.64C63.69 153.79 63.69 153.87 63.69 153.89C63.71 150.93 64.06 147.92 64.89 144.97C65.73 142.03 67.07 139.19 68.85 136.67C70.64 134.15 72.87 131.98 75.31 130.24C77.75 128.48 80.4 127.15 83.09 126.08C88.49 123.96 94.09 122.91 99.63 122.32C105.19 121.73 110.71 121.59 116.25 121.74C121.85 121.91 127.4 122.61 132.91 123.92C138.38 125.26 143.83 127.31 148.73 130.63C151.16 132.3 153.45 134.28 155.37 136.64C157.3 139 158.88 141.69 159.95 144.58C161.01 147.48 161.53 150.55 161.64 153.57C161.64 153.66 161.65 153.9 161.66 154.27Z" id="c2kXSqba4p"></path><path d="M112.59 16.6C90.5 16.6 72.6 31.01 72.6 48.79C72.6 84.36 94.18 145.38 112.59 145.38C131 145.38 152.59 84.36 152.59 48.79C152.59 31.01 134.68 16.6 112.59 16.6" id="aXJt6GnWY"></path><path d="M72.6 48.79C72.6 84.36 94.18 145.38 112.59 145.38C131 145.38 152.59 84.36 152.59 48.79C152.59 31.01 134.68 16.6 112.59 16.6C90.5 16.6 72.6 31.01 72.6 48.79Z" id="aiuvi4fFK"></path><path d="M113.7 113.03C113.7 113.03 111.8 113.29 109.01 113.49C106.21 113.68 102.46 113.81 98.68 113.64C96.79 113.55 94.89 113.37 93.1 113.14C92.21 112.99 91.35 112.87 90.53 112.72C89.71 112.53 88.93 112.36 88.21 112.21C87.5 112 86.84 111.81 86.26 111.63C85.68 111.48 85.18 111.25 84.76 111.1C83.93 110.77 83.46 110.59 83.46 110.59C82.09 110.05 81.41 108.51 81.95 107.14C82.48 105.76 84.03 105.09 85.4 105.62C85.43 105.63 85.46 105.65 85.49 105.66C85.52 105.67 85.7 105.75 85.73 105.76C85.73 105.76 86.1 105.93 86.76 106.21C87.09 106.35 87.46 106.56 87.96 106.71C88.44 106.88 88.99 107.06 89.58 107.27C90.2 107.44 90.87 107.62 91.58 107.8C92.31 107.96 93.08 108.12 93.88 108.29C95.49 108.57 97.23 108.82 99 108.98C102.53 109.31 106.12 109.35 108.81 109.28C111.52 109.21 113.26 109.05 113.26 109.05C114.36 108.95 115.33 109.76 115.43 110.86C115.53 111.93 114.76 112.88 113.7 113.03" id="b1wNICuYWp"></path><path d="M116.76 127.54C116.76 127.54 115.08 127.78 112.64 127.96C110.18 128.14 106.89 128.26 103.56 128.12C101.9 128.05 100.23 127.9 98.66 127.7C97.87 127.57 97.11 127.45 96.38 127.33C95.66 127.17 94.97 127.02 94.34 126.89C93.71 126.7 93.13 126.53 92.61 126.38C92.1 126.25 91.65 126.04 91.28 125.91C90.55 125.63 90.13 125.46 90.13 125.46C88.75 124.93 88.07 123.39 88.61 122.01C89.14 120.64 90.68 119.96 92.06 120.49C92.09 120.51 92.13 120.52 92.16 120.54C92.19 120.55 92.37 120.63 92.39 120.64C92.39 120.64 92.71 120.78 93.28 121.03C93.56 121.15 93.88 121.33 94.31 121.46C94.73 121.6 95.2 121.77 95.71 121.95C96.25 122.09 96.83 122.25 97.44 122.42C98.07 122.56 98.74 122.7 99.43 122.85C100.83 123.1 102.35 123.32 103.89 123.46C106.96 123.76 110.09 123.81 112.44 123.76C114.8 123.7 116.31 123.57 116.31 123.57C117.41 123.47 118.38 124.29 118.48 125.39C118.57 126.45 117.8 127.4 116.76 127.54" id="k2eGYB2jJL"></path><path d="M112.48 16.6C90.39 16.6 72.48 31.01 72.48 48.79C72.48 84.36 94.07 145.38 112.48 145.38C130.89 145.38 152.48 84.36 152.48 48.79C152.48 31.01 134.57 16.6 112.48 16.6" id="cx6MFeSvR"></path><path d="M72.48 48.79C72.48 84.36 94.07 145.38 112.48 145.38C130.89 145.38 152.48 84.36 152.48 48.79C152.48 31.01 134.57 16.6 112.48 16.6C90.39 16.6 72.48 31.01 72.48 48.79Z" id="a1QxOWkxtv"></path><path d="M113.59 113.03C113.59 113.03 111.69 113.29 108.9 113.49C106.1 113.68 102.35 113.81 98.57 113.64C96.68 113.55 94.78 113.37 92.99 113.14C92.1 112.99 91.23 112.87 90.41 112.72C89.59 112.53 88.82 112.36 88.1 112.21C87.39 112 86.73 111.81 86.15 111.63C85.57 111.48 85.07 111.25 84.65 111.1C83.82 110.77 83.35 110.59 83.35 110.59C81.98 110.05 81.3 108.51 81.84 107.14C82.37 105.76 83.92 105.09 85.29 105.62C85.32 105.63 85.35 105.65 85.38 105.66C85.41 105.67 85.59 105.75 85.62 105.76C85.62 105.76 85.99 105.93 86.64 106.21C86.98 106.35 87.35 106.56 87.85 106.71C88.33 106.88 88.87 107.06 89.47 107.27C90.09 107.44 90.76 107.62 91.47 107.8C92.2 107.96 92.97 108.12 93.76 108.29C95.38 108.57 97.12 108.82 98.89 108.98C102.42 109.31 106.01 109.35 108.7 109.28C111.4 109.21 113.15 109.05 113.15 109.05C114.25 108.95 115.22 109.76 115.32 110.86C115.42 111.93 114.64 112.88 113.59 113.03" id="bV4yGtQds"></path><path d="M116.65 127.54C116.65 127.54 114.97 127.78 112.53 127.96C110.07 128.14 106.78 128.26 103.45 128.12C101.79 128.05 100.12 127.9 98.55 127.7C97.76 127.57 97 127.45 96.27 127.33C95.55 127.17 94.86 127.02 94.23 126.89C93.6 126.7 93.02 126.53 92.5 126.38C91.99 126.25 91.54 126.04 91.17 125.91C90.44 125.63 90.02 125.46 90.02 125.46C88.64 124.93 87.96 123.39 88.49 122.01C89.03 120.64 90.57 119.96 91.95 120.49C91.98 120.51 92.02 120.52 92.05 120.54C92.08 120.55 92.26 120.63 92.28 120.64C92.28 120.64 92.6 120.78 93.16 121.03C93.45 121.15 93.77 121.33 94.2 121.46C94.62 121.6 95.09 121.77 95.6 121.95C96.13 122.09 96.72 122.25 97.33 122.42C97.96 122.56 98.63 122.7 99.32 122.85C100.72 123.1 102.24 123.32 103.77 123.46C106.85 123.76 109.98 123.81 112.33 123.76C114.69 123.7 116.2 123.57 116.2 123.57C117.3 123.47 118.27 124.29 118.37 125.39C118.46 126.45 117.69 127.4 116.65 127.54" id="btkdMnanr"></path><path d="M72.87 55.29C98.4 54.97 112.58 54.79 115.42 54.75C117.07 54.73 118.43 56.05 118.46 57.71C118.48 59.37 117.15 60.73 115.49 60.75C115.47 60.75 115.44 60.75 115.42 60.75C111.16 60.69 77.13 60.26 72.87 60.2C71.52 60.19 70.43 59.07 70.45 57.72C70.47 56.38 71.55 55.31 72.87 55.29" id="b67hup5J5k"></path><path d="M74.26 37.81C74.26 37.81 76.45 37.78 80.28 37.71C84.11 37.66 89.58 37.57 96.15 37.48C99.43 37.45 102.99 37.41 106.75 37.38C108.63 37.36 110.57 37.34 112.54 37.32C113.53 37.32 114.53 37.31 115.53 37.3C116.19 37.31 116.54 37.31 117.16 37.34C117.77 37.37 118.37 37.42 118.93 37.49C123.54 38.03 128.22 39.94 131.93 43.28C135.65 46.57 138.3 51.48 138.57 56.73C138.89 61.96 136.77 67.19 133.35 70.82C129.93 74.51 125.41 76.8 120.85 77.7C119.71 77.93 118.57 78.08 117.43 78.14C116.87 78.19 116.29 78.18 115.74 78.2C115.24 78.19 114.75 78.19 114.25 78.19C112.28 78.17 110.35 78.15 108.47 78.13C104.7 78.1 101.15 78.06 97.86 78.03C91.3 77.99 85.83 77.84 82 77.79C78.17 77.72 75.98 77.68 75.98 77.68C74.65 77.66 73.6 76.57 73.62 75.24C73.64 73.95 74.69 72.91 75.98 72.88C75.98 72.88 78.17 72.85 82 72.78C85.83 72.73 91.3 72.58 97.86 72.54C101.15 72.51 104.7 72.47 108.47 72.43C110.35 72.42 112.28 72.4 114.25 72.38C114.75 72.38 115.24 72.38 115.74 72.37C116.2 72.36 116.62 72.37 117.06 72.32C117.94 72.27 118.82 72.15 119.69 71.97C123.16 71.26 126.54 69.49 128.98 66.81C131.44 64.15 132.8 60.61 132.59 57.05C132.42 53.51 130.67 50.1 127.96 47.67C125.27 45.22 121.75 43.71 118.22 43.28C116.66 43.05 114.5 43.15 112.54 43.11C110.57 43.09 108.63 43.07 106.75 43.05C102.99 43.01 99.43 42.98 96.15 42.95C89.58 42.85 84.11 42.77 80.28 42.71C76.45 42.65 74.26 42.61 74.26 42.61C72.94 42.59 71.88 41.5 71.9 40.17C71.92 38.88 72.98 37.84 74.26 37.81" id="b1jaH0vulH"></path></defs><g><g><g><use xlink:href="#c22TFCS1kM" opacity="1" fill="#ffffff" fill-opacity="1"></use><g><use xlink:href="#c22TFCS1kM" opacity="1" fill-opacity="0" stroke="#000000" stroke-width="1" stroke-opacity="0"></use></g></g><g><use xlink:href="#c2kXSqba4p" opacity="1" fill="#1d1d1b" fill-opacity="1"></use><g><use xlink:href="#c2kXSqba4p" opacity="1" fill-opacity="0" stroke="#000000" stroke-width="1" stroke-opacity="0"></use></g></g><g><use xlink:href="#aXJt6GnWY" opacity="1" fill="#ffffff" fill-opacity="1"></use><g><use xlink:href="#aXJt6GnWY" opacity="1" fill-opacity="0" stroke="#000000" stroke-width="1" stroke-opacity="0"></use></g></g><g><use xlink:href="#aiuvi4fFK" opacity="1" fill="#000000" fill-opacity="0"></use><g><use xlink:href="#aiuvi4fFK" opacity="1" fill-opacity="0" stroke="#1d1d1b" stroke-width="5" stroke-opacity="1"></use></g></g><g><use xlink:href="#b1wNICuYWp" opacity="1" fill="#1d1d1b" fill-opacity="1"></use><g><use xlink:href="#b1wNICuYWp" opacity="1" fill-opacity="0" stroke="#000000" stroke-width="1" stroke-opacity="0"></use></g></g><g><use xlink:href="#k2eGYB2jJL" opacity="1" fill="#1d1d1b" fill-opacity="1"></use><g><use xlink:href="#k2eGYB2jJL" opacity="1" fill-opacity="0" stroke="#000000" stroke-width="1" stroke-opacity="0"></use></g></g><g><use xlink:href="#cx6MFeSvR" opacity="1" fill="#ffffff" fill-opacity="1"></use><g><use xlink:href="#cx6MFeSvR" opacity="1" fill-opacity="0" stroke="#000000" stroke-width="1" stroke-opacity="0"></use></g></g><g><use xlink:href="#a1QxOWkxtv" opacity="1" fill="#000000" fill-opacity="0"></use><g><use xlink:href="#a1QxOWkxtv" opacity="1" fill-opacity="0" stroke="#1d1d1b" stroke-width="5" stroke-opacity="1"></use></g></g><g><use xlink:href="#bV4yGtQds" opacity="1" fill="#1d1d1b" fill-opacity="1"></use><g><use xlink:href="#bV4yGtQds" opacity="1" fill-opacity="0" stroke="#000000" stroke-width="1" stroke-opacity="0"></use></g></g><g><use xlink:href="#btkdMnanr" opacity="1" fill="#1d1d1b" fill-opacity="1"></use><g><use xlink:href="#btkdMnanr" opacity="1" fill-opacity="0" stroke="#000000" stroke-width="1" stroke-opacity="0"></use></g></g><g><use xlink:href="#b67hup5J5k" opacity="1" fill="#1d1d1b" fill-opacity="1"></use><g><use xlink:href="#b67hup5J5k" opacity="1" fill-opacity="0" stroke="#000000" stroke-width="1" stroke-opacity="0"></use></g></g><g><use xlink:href="#b1jaH0vulH" opacity="1" fill="#1d1d1b" fill-opacity="1"></use><g><use xlink:href="#b1jaH0vulH" opacity="1" fill-opacity="0" stroke="#000000" stroke-width="1" stroke-opacity="0"></use></g></g></g></g></svg>