<?xml version="1.0" encoding="UTF-8" standalone="no"?>
<!DOCTYPE svg PUBLIC "-//W3C//DTD SVG 1.1//EN" "http://www.w3.org/Graphics/SVG/1.1/DTD/svg11.dtd">
<svg version="1.1" xmlns="http://www.w3.org/2000/svg" xmlns:xlink="http://www.w3.org/1999/xlink" preserveAspectRatio="xMidYMid meet" viewBox="0 0 200 200" width="200" height="200"><defs><path d="M180 148.65C180 165.98 167.47 180.03 152.01 180.03C134.68 180.03 124.01 163.31 124.01 145.98C124.01 161.94 115.34 177.54 100.01 177.54C83.35 177.54 76.02 161.94 76.02 145.98C76.02 163.31 64.35 180.03 47.69 180.03C32.22 180.03 20 164.67 20 147.34C20 142.61 20.02 104.77 20.02 100.04C20.02 55.86 55.84 20.05 100.01 20.05C144.19 20.05 180 55.86 180 100.04C180 109.76 180 138.93 180 148.65Z" id="bcAfOrHvl"></path><path d="M176.67 148.57L176.66 120.92L176.65 107.06C176.65 102.9 176.65 100.59 176.65 100.13C176.6 97.9 176.56 95.69 176.35 93.49C175.59 84.67 173.34 75.97 169.59 67.95C165.86 59.93 160.77 52.52 154.53 46.23C148.3 39.95 140.99 34.73 133.01 30.9C125.03 27.09 116.37 24.72 107.58 23.83C107.25 23.81 104.66 23.61 104.34 23.58C103.23 23.52 102.04 23.52 100.89 23.48C100.84 23.48 100.55 23.47 100.03 23.46L99.28 23.48C98.29 23.5 97.73 23.52 97.62 23.52C96.51 23.53 95.41 23.6 94.31 23.7C89.9 24.03 85.51 24.7 81.22 25.8C72.65 27.98 64.46 31.64 57.12 36.59C49.8 41.56 43.35 47.8 38.12 54.94C32.86 62.07 28.94 70.15 26.46 78.64C25.23 82.89 24.32 87.24 23.87 91.64C23.66 93.84 23.47 95.9 23.44 98.28C23.44 98.39 23.43 98.97 23.4 100.01L23.4 101.66L23.39 105.12L23.37 132.85C23.36 141.17 23.35 145.79 23.35 146.72C23.32 151.02 23.99 155.17 25.5 159.11C26.98 163.03 29.21 166.66 32.06 169.63C34.89 172.63 38.46 174.78 42.26 175.9C42.74 176.08 43.19 176.16 43.63 176.24C43.76 176.26 44.83 176.48 44.96 176.51C45.49 176.56 46.1 176.59 46.67 176.63C46.73 176.63 47.01 176.65 47.53 176.68L47.75 176.69C47.81 176.7 47.85 176.7 47.86 176.7C47.94 176.71 47.53 176.69 47.75 176.69C47.79 176.69 48.09 176.67 48.12 176.67C50.11 176.59 52.11 176.37 54 175.72C57.8 174.53 61.33 172.28 64.12 169.2C66.97 166.19 69.21 162.5 70.75 158.53C72.32 154.57 73.19 150.3 73.35 146C73.35 146 73.35 145.99 73.35 145.98L78.68 145.98C78.79 147.55 78.85 148.42 78.86 148.6C78.94 149.47 79.06 150.33 79.15 151.19C79.41 152.91 79.73 154.6 80.18 156.26C81.04 159.57 82.32 162.73 84.1 165.46C84.99 166.83 86.02 168.06 87.12 169.18C87.67 169.75 88.31 170.2 88.89 170.72C89.52 171.17 90.19 171.56 90.83 171.99C91.04 172.09 92.71 172.87 92.92 172.97C93.66 173.19 94.4 173.46 95.13 173.66C95.85 173.77 96.53 173.92 97.27 174.05C97.46 174.06 98.38 174.11 100.03 174.2C101.33 174.13 102.05 174.09 102.2 174.08C102.96 173.98 103.71 173.79 104.47 173.67C105.21 173.45 105.93 173.18 106.67 172.95C107.35 172.6 108.06 172.29 108.74 171.92C109.37 171.47 110.06 171.11 110.67 170.61C111.26 170.07 111.92 169.64 112.45 169.04C113.58 167.91 114.62 166.67 115.54 165.3C116.47 163.94 117.28 162.48 117.96 160.94C118.66 159.41 119.22 157.81 119.7 156.17C120.19 154.53 120.55 152.85 120.83 151.15C120.93 150.29 121.07 149.44 121.15 148.58C121.17 148.41 121.23 147.54 121.34 145.99C121.34 145.98 121.34 145.98 121.34 145.98C121.37 144.51 122.58 143.33 124.05 143.36C125.45 143.38 126.58 144.48 126.67 145.85C126.67 145.86 126.67 145.9 126.68 145.98C126.78 147.66 126.83 148.59 126.84 148.78C126.94 149.71 127.09 150.63 127.2 151.55C127.53 153.38 127.93 155.2 128.5 156.96C129.06 158.72 129.71 160.45 130.53 162.09C130.89 162.94 131.37 163.71 131.83 164.5C132.26 165.31 132.8 166.03 133.32 166.77C133.81 167.53 134.41 168.2 135 168.87C135.56 169.58 136.22 170.17 136.87 170.78C137.48 171.43 138.2 171.93 138.9 172.46C139.57 173.04 140.35 173.43 141.09 173.89C141.82 174.38 142.64 174.67 143.42 175.03C144.19 175.44 145.05 175.6 145.87 175.88C146.7 176.19 147.47 176.22 148.26 176.4C148.95 176.59 150.07 176.58 151.04 176.64C151.09 176.65 151.34 176.66 151.78 176.68L152.16 176.7C152.18 176.7 152.2 176.7 152.2 176.7C152.26 176.7 151.83 176.69 152.02 176.7C152.02 176.7 152.03 176.69 152.04 176.69L152.12 176.69L152.28 176.68C153.06 176.63 153.49 176.6 153.58 176.6C154.45 176.6 155.29 176.4 156.15 176.26C157.85 175.95 159.49 175.38 161.08 174.69C161.89 174.36 162.62 173.87 163.4 173.48C164.14 173.03 164.84 172.5 165.58 172.02C165.78 171.85 167.39 170.49 167.59 170.32C168.2 169.68 168.84 169.07 169.43 168.41C169.97 167.71 170.57 167.05 171.08 166.33C171.55 165.57 172.1 164.87 172.53 164.09C172.94 163.29 173.43 162.54 173.78 161.72C174.11 160.89 174.53 160.09 174.8 159.24C175.06 158.38 175.4 157.54 175.61 156.67C175.79 155.8 176.05 154.91 176.19 154.05C176.29 153.19 176.44 152.4 176.53 151.48C176.55 151.1 176.6 150.13 176.67 148.57ZM183.33 148.8C183.26 150.59 183.21 151.59 183.21 151.79C183.11 152.86 182.93 154.03 182.79 155.15C182.61 156.26 182.33 157.3 182.09 158.37C181.84 159.44 181.45 160.47 181.12 161.51C180.79 162.55 180.29 163.54 179.88 164.56C179.44 165.57 178.86 166.51 178.36 167.48C177.82 168.45 177.16 169.34 176.56 170.26C175.93 171.17 175.2 172 174.51 172.87C173.77 173.69 172.97 174.46 172.19 175.26C171.35 175.99 170.49 176.7 169.63 177.4C168.7 178.02 167.79 178.68 166.84 179.26C165.84 179.77 164.88 180.37 163.84 180.8C161.79 181.7 159.63 182.42 157.41 182.82C156.3 183.01 155.19 183.24 154.06 183.25C153.94 183.26 153.38 183.29 152.37 183.35L152.16 183.35L152.05 183.36L152.02 183.36L151.8 183.36L151.75 183.35L151.38 183.33C150.93 183.29 150.68 183.28 150.63 183.27C149.61 183.18 148.73 183.19 147.47 182.92C146.31 182.68 145.07 182.52 144.04 182.12C142.97 181.75 141.87 181.47 140.87 180.94C139.85 180.45 138.8 180.02 137.87 179.38C136.92 178.78 135.95 178.22 135.1 177.48C134.23 176.79 133.34 176.11 132.58 175.3C131.79 174.53 131 173.76 130.33 172.89C129.63 172.04 128.92 171.2 128.34 170.28C127.73 169.38 127.11 168.48 126.62 167.51C126.09 166.57 125.55 165.63 125.14 164.63C124.23 162.68 123.51 160.65 122.93 158.6C122.36 156.54 121.97 154.44 121.69 152.33C121.59 151.27 121.47 150.22 121.41 149.16C121.4 148.95 121.38 147.89 121.34 145.98L126.68 145.98L126.68 145.99C126.68 147.75 126.68 148.73 126.68 148.93C126.64 149.91 126.54 150.88 126.47 151.87C126.25 153.82 125.95 155.77 125.49 157.7C125.01 159.62 124.41 161.53 123.63 163.38C122.88 165.23 121.96 167.05 120.87 168.77C119.79 170.51 118.5 172.15 117.03 173.63C116.34 174.41 115.47 175.04 114.68 175.74C113.87 176.41 112.94 176.96 112.06 177.56C111.14 178.09 110.16 178.54 109.2 179.02C108.19 179.38 107.17 179.75 106.14 180.06C105.1 180.27 104.04 180.52 102.99 180.67C102.88 180.68 102.35 180.71 101.4 180.78L100.6 180.83L100.2 180.86L100.1 180.87L100.05 180.87L100.03 180.87L99.8 180.87L99.63 180.85C97.97 180.75 97.05 180.69 96.87 180.67C95.79 180.51 94.66 180.29 93.57 180.07C92.52 179.78 91.52 179.42 90.51 179.08C89.53 178.65 88.56 178.16 87.6 177.69C86.71 177.1 85.79 176.53 84.94 175.9C84.14 175.19 83.29 174.54 82.55 173.78C81.07 172.27 79.79 170.61 78.73 168.85C76.59 165.32 75.21 161.5 74.36 157.64C73.95 155.71 73.68 153.76 73.5 151.82C73.45 150.84 73.36 149.87 73.33 148.9C73.33 148.7 73.34 147.73 73.35 145.98C73.35 145.86 73.35 145.79 73.35 145.77C73.36 144.3 74.56 143.11 76.03 143.12C77.51 143.13 78.7 144.33 78.69 145.8C78.69 145.86 78.69 145.92 78.68 145.98C78.68 145.98 78.68 146 78.68 146C78.91 155.87 75.59 165.9 68.83 173.55C65.46 177.36 60.99 180.36 56 181.99C53.52 182.86 50.88 183.21 48.26 183.33C48.21 183.33 47.82 183.35 47.77 183.36C47.91 183.36 47.44 183.35 47.45 183.35C47.44 183.35 47.4 183.35 47.34 183.35L47.12 183.33C46.6 183.3 46.31 183.28 46.26 183.28C45.67 183.24 45.12 183.22 44.51 183.16C44.3 183.12 42.64 182.83 42.43 182.8C41.73 182.68 41.05 182.54 40.44 182.32C35.38 180.85 30.79 178 27.27 174.29C23.71 170.59 21.02 166.19 19.23 161.47C17.41 156.78 16.6 151.64 16.64 146.71C16.64 145.79 16.64 141.17 16.64 132.85L16.65 105.12L16.65 101.65L16.65 99.84C16.68 98.8 16.69 98.22 16.69 98.11C16.71 95.86 16.92 93.31 17.15 90.91C17.64 86.12 18.62 81.38 19.96 76.75C22.65 67.51 26.92 58.7 32.63 50.94C38.31 43.16 45.33 36.36 53.3 30.94C61.28 25.55 70.2 21.54 79.55 19.17C84.22 17.97 89 17.24 93.8 16.89C95.01 16.78 96.21 16.71 97.41 16.7C97.53 16.7 98.13 16.68 99.22 16.65L99.67 16.64L99.89 16.64L100.2 16.64C100.72 16.65 101.01 16.66 101.07 16.66C102.23 16.7 103.36 16.71 104.55 16.77C104.92 16.8 107.86 17.02 108.23 17.05C117.82 18.02 127.24 20.61 135.94 24.78C144.63 28.95 152.58 34.63 159.35 41.48C166.13 48.33 171.66 56.39 175.71 65.12C179.78 73.85 182.23 83.33 183.04 92.92C183.27 95.32 183.31 97.73 183.36 100.13C183.36 100.59 183.36 102.9 183.36 107.06L183.35 120.92C183.34 137.56 183.34 146.8 183.34 148.65C183.34 148.69 183.34 148.76 183.33 148.8" id="aY2kp76Cc"></path><path d="M157.07 139.13C141.14 143.61 121.41 146.26 100.04 146.26C78.64 146.26 58.88 143.62 42.93 139.13" id="c4CQIu9cuX"></path><path d="M157.53 141.07C157.53 141.07 155.81 141.61 152.77 142.47C151.25 142.9 149.41 143.42 147.29 144.02C145.21 144.69 142.71 145.12 140 145.65C137.28 146.16 134.34 146.71 131.23 147.3C128.11 147.7 124.82 148.06 121.42 148.42C119.71 148.6 117.98 148.79 116.23 148.98C114.47 149.1 112.69 149.14 110.89 149.21C107.28 149.33 103.61 149.46 99.94 149.59C96.32 149.48 92.78 149.52 89.14 149.29C87.33 149.2 85.53 149.11 83.77 148.98C82.01 148.82 80.28 148.66 78.58 148.51C75.16 148.23 71.88 147.7 68.77 147.3C65.67 146.77 62.74 146.35 60.05 145.75C57.37 145.19 54.91 144.68 52.76 144.08C50.6 143.5 48.71 143.07 47.19 142.57C44.12 141.63 42.39 141.05 42.39 141.05C41.34 140.71 40.77 139.58 41.12 138.53C41.44 137.56 42.42 137 43.39 137.19C43.4 137.19 43.47 137.2 43.48 137.2C43.48 137.2 45.23 137.54 48.27 138.18C49.78 138.54 51.66 138.81 53.8 139.2C55.92 139.6 58.36 139.9 60.99 140.3C62.3 140.52 63.68 140.68 65.12 140.83C66.54 141.01 68.02 141.18 69.53 141.37C71.06 141.5 72.62 141.65 74.22 141.79C75.82 141.93 77.45 142.1 79.11 142.19C80.78 142.29 82.47 142.4 84.18 142.51C85.89 142.58 87.61 142.65 89.35 142.72C92.79 142.92 96.46 142.85 100.05 142.92C103.59 142.83 107.13 142.73 110.61 142.64C112.36 142.6 114.1 142.55 115.81 142.51C117.52 142.37 119.21 142.23 120.87 142.1C124.2 141.84 127.41 141.6 130.46 141.36C133.45 140.93 136.29 140.56 138.92 140.23C141.55 139.86 143.97 139.66 146.13 139.17C148.29 138.75 150.17 138.38 151.72 138.08C154.82 137.49 156.6 137.18 156.6 137.18C157.69 137 158.73 137.73 158.92 138.82C159.09 139.82 158.48 140.78 157.53 141.07" id="bfYjCTu6N"></path><path d="M102.6 97.88C102.27 102.73 98.24 106.39 93.61 106.08C88.99 105.76 85.5 101.58 85.84 96.73C86.17 91.89 90.19 88.22 94.82 88.54C99.45 88.86 102.93 93.04 102.6 97.88" id="aoB5J5XTb"></path><path d="M123.98 98.13C123.59 97.58 123.22 97 122.82 96.47C121.96 95.31 121.05 94.18 120.09 93.1C119.62 92.54 119.14 92.01 118.64 91.49C118.14 90.97 117.66 90.43 117.13 89.94C116.12 88.92 115.04 87.99 113.96 87.06C112.83 86.2 111.74 85.29 110.54 84.57C109.39 83.75 108.15 83.16 106.93 82.5C105.68 82 104.38 81.38 103.21 81.13C102.16 80.71 100.48 80.57 99.01 80.34C99.39 80.37 99.11 80.35 99.19 80.36C99.19 80.36 99.18 80.36 99.18 80.36L99.14 80.36L99.08 80.36L98.96 80.36L98.71 80.36L98.21 80.36C97.61 80.35 97.28 80.35 97.22 80.35C96.55 80.3 95.89 80.44 95.22 80.51C93.88 80.61 92.56 81.03 91.23 81.33C89.93 81.81 88.61 82.21 87.34 82.85C86.05 83.39 84.82 84.13 83.58 84.82C82.37 85.58 81.16 86.35 80 87.22C79.4 87.62 78.84 88.08 78.27 88.53C77.7 88.97 77.14 89.43 76.59 89.91C75.48 90.85 74.41 91.84 73.38 92.86C72.35 93.86 71.31 94.96 70.45 95.98C70.47 95.67 70.63 93.25 70.65 92.95C71.37 94.07 72.25 95.31 73.13 96.44C74.01 97.6 74.94 98.72 75.91 99.8C76.39 100.35 76.88 100.88 77.39 101.4C77.89 101.92 78.39 102.45 78.92 102.94C79.95 103.95 81.04 104.88 82.14 105.79C83.28 106.65 84.39 107.55 85.6 108.26C86.76 109.07 88.02 109.65 89.24 110.3C90.51 110.78 91.81 111.39 92.99 111.63C93.61 111.79 94.13 112.01 94.95 112.07C95.15 112.1 96.8 112.33 97.01 112.36C98.34 112.31 99.66 112.42 100.99 112.15C102.32 112.04 103.64 111.61 104.96 111.29C106.25 110.8 107.56 110.38 108.82 109.73C110.1 109.18 111.31 108.43 112.54 107.73C113.74 106.96 114.93 106.18 116.08 105.31C116.67 104.9 117.22 104.43 117.78 103.98C118.35 103.54 118.9 103.07 119.44 102.59C120.53 101.64 121.59 100.65 122.61 99.62C123.08 99.15 123.52 98.62 123.98 98.13M126.81 103.83C125.68 104.95 124.51 106.03 123.3 107.05C122.71 107.58 122.09 108.09 121.46 108.57C120.83 109.06 120.22 109.57 119.56 110.02C118.28 110.97 116.92 111.84 115.56 112.69C114.15 113.48 112.76 114.32 111.25 114.96C109.79 115.69 108.2 116.2 106.65 116.75C105.02 117.15 103.43 117.63 101.72 117.77C100.06 118.07 98.33 117.96 96.62 117.97C96.38 117.93 94.43 117.66 94.18 117.62C93.48 117.56 92.56 117.28 91.71 117.06C89.91 116.64 88.46 115.94 86.9 115.31C85.45 114.53 83.96 113.8 82.63 112.87C81.23 112.02 79.99 111 78.71 110.01C77.49 108.97 76.28 107.92 75.16 106.79C74.57 106.25 74.04 105.66 73.49 105.09C72.94 104.52 72.41 103.93 71.9 103.33C70.85 102.14 69.86 100.91 68.91 99.65C67.95 98.37 67.07 97.13 66.17 95.68C65.57 94.71 65.69 93.49 66.38 92.66C67.47 91.35 68.51 90.24 69.64 89.11C70.75 87.98 71.9 86.9 73.1 85.87C73.69 85.34 74.29 84.83 74.92 84.34C75.54 83.85 76.14 83.34 76.8 82.88C78.06 81.91 79.4 81.04 80.76 80.18C82.15 79.38 83.53 78.53 85.03 77.88C86.48 77.14 88.05 76.62 89.6 76.05C91.21 75.64 92.8 75.14 94.5 74.98C95.34 74.88 96.17 74.72 97.03 74.75C97.11 74.75 97.54 74.75 98.31 74.74L98.95 74.74L99.27 74.74L99.43 74.74L99.51 74.74L99.55 74.74C99.56 74.74 99.57 74.74 99.57 74.74C99.66 74.75 99.39 74.72 99.78 74.76C101.31 75 102.69 75.05 104.52 75.61C106.33 76.01 107.79 76.7 109.35 77.32C110.82 78.08 112.32 78.8 113.66 79.72C115.07 80.56 116.33 81.58 117.62 82.55C118.86 83.58 120.08 84.63 121.22 85.75C121.82 86.29 122.36 86.87 122.91 87.44C123.47 88.01 124.01 88.6 124.53 89.2C125.59 90.38 126.6 91.6 127.56 92.87C128.54 94.14 129.44 95.37 130.37 96.83C131.07 97.94 130.94 99.34 130.13 100.29C129.03 101.59 127.95 102.71 126.81 103.83Z" id="b6bHbyiQ6B"></path><path d="M35.94 49.44C35.94 49.44 36.35 49.21 37.14 48.76C37.89 48.33 39.19 47.63 40.74 46.89C43.88 45.38 48.52 43.5 54.35 42.14C57.26 41.47 60.46 40.94 63.88 40.64C65.58 40.48 67.34 40.41 69.14 40.38C70.03 40.4 70.93 40.41 71.83 40.42C72.7 40.42 73.7 40.53 74.64 40.59C78.42 40.88 82.23 41.52 86.05 42.54C89.86 43.55 93.64 44.95 97.25 46.7C104.48 50.19 111 55.12 116.09 60.69C121.2 66.25 124.89 72.41 127.17 78.04C128.3 80.86 129.16 83.53 129.72 85.94C130.03 87.14 130.22 88.29 130.43 89.34C130.58 90.41 130.72 91.38 130.85 92.26C131.02 94.04 131.13 95.44 131.14 96.39C131.17 97.35 131.18 97.86 131.18 97.86C131.24 99.51 129.94 100.9 128.28 100.95C126.63 101.01 125.24 99.71 125.19 98.05C125.19 98.05 125.19 98.04 125.19 98.02C125.19 97.93 125.18 97.87 125.18 97.86C125.18 97.86 125.17 97.41 125.15 96.56C125.16 95.72 125.07 94.48 124.94 92.91C124.84 92.12 124.72 91.26 124.6 90.31C124.41 89.38 124.26 88.36 124 87.29C123.52 85.13 122.78 82.75 121.8 80.21C119.8 75.15 116.54 69.55 111.95 64.45C107.38 59.34 101.48 54.77 94.89 51.51C91.61 49.87 88.16 48.56 84.67 47.59C81.2 46.62 77.65 45.99 74.25 45.69C73.39 45.63 72.61 45.52 71.71 45.51C70.85 45.49 69.99 45.46 69.15 45.44C67.48 45.45 65.85 45.48 64.26 45.6C61.09 45.82 58.11 46.27 55.4 46.85C49.97 48.01 45.62 49.69 42.69 51.05C41.19 51.73 40.16 52.27 39.34 52.71C38.55 53.14 38.13 53.37 38.13 53.37C37.04 53.97 35.67 53.57 35.07 52.48C34.48 51.4 34.87 50.05 35.94 49.44" id="ibwdGaYIC"></path></defs><g><g><g><use xlink:href="#bcAfOrHvl" opacity="1" fill="#ffffff" fill-opacity="1"></use><g><use xlink:href="#bcAfOrHvl" opacity="1" fill-opacity="0" stroke="#000000" stroke-width="1" stroke-opacity="0"></use></g></g><g><use xlink:href="#aY2kp76Cc" opacity="1" fill="#1d1d1b" fill-opacity="1"></use><g><use xlink:href="#aY2kp76Cc" opacity="1" fill-opacity="0" stroke="#000000" stroke-width="1" stroke-opacity="0"></use></g></g><g><use xlink:href="#c4CQIu9cuX" opacity="1" fill="#ffffff" fill-opacity="1"></use><g><use xlink:href="#c4CQIu9cuX" opacity="1" fill-opacity="0" stroke="#000000" stroke-width="1" stroke-opacity="0"></use></g></g><g><use xlink:href="#bfYjCTu6N" opacity="1" fill="#1d1d1b" fill-opacity="1"></use><g><use xlink:href="#bfYjCTu6N" opacity="1" fill-opacity="0" stroke="#000000" stroke-width="1" stroke-opacity="0"></use></g></g><g><use xlink:href="#aoB5J5XTb" opacity="1" fill="#1d1d1b" fill-opacity="1"></use><g><use xlink:href="#aoB5J5XTb" opacity="1" fill-opacity="0" stroke="#000000" stroke-width="1" stroke-opacity="0"></use></g></g><g><use xlink:href="#b6bHbyiQ6B" opacity="1" fill="#1d1d1b" fill-opacity="1"></use><g><use xlink:href="#b6bHbyiQ6B" opacity="1" fill-opacity="0" stroke="#000000" stroke-width="1" stroke-opacity="0"></use></g></g><g><use xlink:href="#ibwdGaYIC" opacity="1" fill="#1d1d1b" fill-opacity="1"></use><g><use xlink:href="#ibwdGaYIC" opacity="1" fill-opacity="0" stroke="#000000" stroke-width="1" stroke-opacity="0"></use></g></g></g></g></svg>