<?xml version="1.0" encoding="UTF-8" standalone="no"?>
<!DOCTYPE svg PUBLIC "-//W3C//DTD SVG 1.1//EN" "http://www.w3.org/Graphics/SVG/1.1/DTD/svg11.dtd">
<svg version="1.1" xmlns="http://www.w3.org/2000/svg" xmlns:xlink="http://www.w3.org/1999/xlink" preserveAspectRatio="xMidYMid meet" viewBox="0 0 200 200" width="200" height="200"><defs><path d="M19.9 167.27C19.9 144.8 55.55 137.4 99.73 137.4C143.9 137.4 179.9 147.45 179.9 167.79C179.9 181.54 167.54 190.02 152.08 190.02C134.75 190.02 124.08 180.99 124.08 167.24C124.08 179.9 115.42 188.04 100.09 188.04C83.42 188.04 76.09 179.9 76.09 167.24C76.09 180.99 64.42 190.02 47.76 190.02C32.3 190.02 19.9 181.02 19.9 167.27" id="a4p1HWIkre"></path><path d="M23.24 167.28C23.24 170.16 23.92 172.94 25.25 175.41C26.58 177.89 28.55 180.03 30.92 181.72C33.28 183.43 36.04 184.69 38.95 185.5C40.41 185.91 41.91 186.2 43.43 186.4C44.96 186.59 46.42 186.68 48.03 186.68C51.16 186.7 54.26 186.37 57.22 185.62C60.18 184.87 62.97 183.66 65.4 182.01C67.83 180.35 69.84 178.19 71.21 175.66C72.61 173.14 73.35 170.24 73.42 167.24C73.42 167.23 73.42 167.17 73.42 167.16C73.46 165.69 74.68 164.52 76.15 164.56C77.61 164.59 78.76 165.79 78.75 167.24C78.75 167.24 78.75 167.24 78.75 167.24C78.91 170 79.35 172.68 80.38 175C81.37 177.33 82.86 179.31 84.84 180.76C86.81 182.21 89.18 183.26 91.78 183.86C93.07 184.17 94.41 184.39 95.78 184.52C97.2 184.65 98.41 184.71 99.99 184.71C101.3 184.71 102.73 184.66 104.07 184.52C105.43 184.38 106.75 184.15 108.04 183.82C110.62 183.18 112.98 182.08 115 180.61C117.01 179.13 118.59 177.16 119.64 174.86C120.75 172.58 121.26 169.95 121.42 167.24C121.77 167.24 123.55 167.24 126.75 167.24C126.75 167.24 126.75 167.24 126.75 167.24C126.83 169.72 127.27 172.15 128.18 174.35C129.1 176.55 130.41 178.53 132.1 180.18C135.5 183.49 140.22 185.42 145.2 186.22C146.45 186.42 147.72 186.55 148.99 186.63C149.64 186.66 150.19 186.69 150.89 186.7C150.96 186.7 151.3 186.7 151.92 186.7C152.47 186.69 152.78 186.68 152.84 186.68C155.38 186.61 157.9 186.31 160.33 185.71C165.17 184.54 169.63 182.13 172.64 178.61C174.14 176.85 175.24 174.81 175.88 172.61C176.2 171.54 176.41 170.31 176.48 169.27C176.58 167.95 176.57 166.92 176.41 165.82C175.84 161.46 172.74 157.59 168.67 154.65C164.61 151.68 159.73 149.51 154.72 147.77C149.68 146.04 144.43 144.74 139.11 143.74C128.46 141.75 117.54 140.82 106.62 140.51C101.17 140.35 95.65 140.38 90.19 140.54C84.71 140.71 79.24 141 73.81 141.49C68.38 141.97 62.97 142.64 57.65 143.61C52.34 144.58 47.09 145.86 42.12 147.66C37.18 149.45 32.44 151.81 28.84 155.09C27.05 156.72 25.6 158.59 24.65 160.65C24.17 161.67 23.81 162.74 23.57 163.85C23.46 164.41 23.38 164.97 23.31 165.54C23.31 165.59 23.29 165.85 23.26 166.32C23.25 166.83 23.24 167.15 23.24 167.28ZM16.57 167.19L16.6 166.15C16.66 165.38 16.69 164.95 16.7 164.86C16.79 164.06 16.92 163.25 17.09 162.45C17.44 160.86 17.98 159.3 18.69 157.83C20.09 154.87 22.15 152.33 24.46 150.26C29.12 146.12 34.55 143.59 39.98 141.66C45.43 139.74 50.99 138.46 56.55 137.47C62.11 136.49 67.7 135.83 73.28 135.37C78.86 134.9 84.45 134.63 90.03 134.5C95.61 134.39 101.16 134.35 106.77 134.46C117.94 134.72 129.14 135.59 140.25 137.6C145.8 138.62 151.33 139.91 156.77 141.73C162.19 143.57 167.58 145.86 172.5 149.37C174.95 151.13 177.28 153.22 179.19 155.81C181.09 158.38 182.52 161.51 183.01 164.82C183.27 166.45 183.27 168.21 183.17 169.64C183.06 171.36 182.79 172.87 182.34 174.45C181.46 177.57 179.9 180.52 177.82 182.98C173.63 187.94 167.77 190.83 161.91 192.23C158.96 192.94 155.96 193.29 152.97 193.33C152.58 193.33 152.26 193.34 151.81 193.33C151.71 193.33 150.88 193.3 150.78 193.3C150.09 193.28 149.27 193.22 148.53 193.17C147.05 193.05 145.57 192.86 144.09 192.59C141.14 192.05 138.21 191.16 135.41 189.85C132.63 188.5 130 186.7 127.81 184.41C125.62 182.12 123.89 179.35 122.84 176.38C121.77 173.41 121.37 170.28 121.42 167.24C121.42 167.24 121.42 167.24 121.42 167.24C121.32 165.77 122.44 164.51 123.91 164.42C125.38 164.32 126.64 165.44 126.73 166.91C126.73 166.91 126.73 166.92 126.74 166.94C126.74 167.12 126.75 167.22 126.75 167.24C126.9 170.53 126.43 173.97 125.15 177.22C123.84 180.45 121.66 183.42 118.91 185.62C116.18 187.86 112.94 189.27 109.71 190.15C108.08 190.59 106.45 190.9 104.81 191.09C103.16 191.28 101.59 191.37 99.89 191.37C98.46 191.36 96.66 191.26 95.09 191.09C93.47 190.91 91.83 190.62 90.21 190.22C86.98 189.39 83.68 188.04 80.92 185.76C78.12 183.54 75.99 180.44 74.81 177.17C73.64 173.88 73.28 170.49 73.42 167.24C73.42 167.24 73.42 167.24 73.42 167.24C76.62 167.24 78.4 167.24 78.75 167.24C78.85 170.97 78.1 174.85 76.39 178.32C74.68 181.8 72.05 184.78 68.99 187.03C65.92 189.3 62.44 190.84 58.89 191.83C55.34 192.82 51.69 193.28 48.08 193.34C46.32 193.37 44.41 193.27 42.6 193.04C40.77 192.82 38.95 192.47 37.16 191.99C33.58 191.01 30.08 189.47 26.96 187.24C23.86 185.01 21.15 182.06 19.31 178.57C17.45 175.1 16.54 171.13 16.57 167.27C16.57 167.27 16.57 167.23 16.57 167.23C16.57 167.22 16.57 167.2 16.57 167.19" id="a514xclQr"></path><path d="M180.08 132.07C180.08 145.82 167.54 156.97 152.08 156.97C134.75 156.97 124.08 143.7 124.08 129.95C124.08 142.61 115.42 154.99 100.09 154.99C83.42 154.99 76.09 142.61 76.09 129.95C76.09 143.7 64.42 156.97 47.76 156.97C32.3 156.97 20.07 144.78 20.07 131.03C20.07 127.28 20.09 97.26 20.09 93.5C20.09 58.45 55.91 30.04 100.09 30.04C144.26 30.04 180.08 58.45 180.08 93.5C180.08 101.22 180.08 124.36 180.08 132.07Z" id="azTWVL0yk"></path><path d="M176.74 132.02L176.73 107.84C176.73 100.57 176.73 96.53 176.72 95.73C176.73 93.65 176.7 91.81 176.57 89.92C176.47 88.99 176.41 88.04 176.28 87.11C176.23 86.83 175.87 84.6 175.82 84.32C174.38 76.9 171.11 69.87 166.6 63.72C162.08 57.56 156.38 52.22 149.95 47.94C143.54 43.62 136.45 40.27 129.04 37.9C125.34 36.69 121.55 35.77 117.72 35.07C113.9 34.34 109.98 33.87 106.15 33.66C104.28 33.51 102.21 33.5 100.2 33.46C98.37 33.5 96.33 33.48 94.41 33.64C90.52 33.84 86.64 34.32 82.81 35.02C78.97 35.7 75.18 36.63 71.48 37.82C67.78 39 64.13 40.37 60.63 42.05C53.64 45.39 47.06 49.64 41.46 54.91C35.84 60.15 31.14 66.34 27.97 73.23C26.38 76.68 25.2 80.29 24.45 83.99C24.08 85.84 23.8 87.72 23.66 89.51C23.54 90.36 23.55 91.45 23.5 92.44C23.5 92.49 23.5 92.74 23.48 93.2C23.47 93.42 23.47 93.55 23.47 93.57C23.47 93.63 23.47 93.44 23.47 93.56C23.47 93.57 23.47 93.6 23.47 93.66L23.47 93.85L23.47 95.36L23.44 119.59C23.44 126.8 23.44 130.8 23.44 131.6C23.52 135.06 24.56 138.49 26.32 141.53C29.85 147.64 36.3 152.06 43.34 153.24C50.37 154.45 57.99 152.83 63.62 148.37C69.35 144.09 73.13 137.15 73.42 129.95C73.78 129.95 75.55 129.95 78.75 129.95C78.75 129.95 78.75 129.95 78.75 129.95C78.91 132.93 79.41 135.87 80.44 138.57C81.42 141.27 82.87 143.75 84.78 145.74C86.68 147.73 88.97 149.29 91.57 150.26C92.87 150.74 94.23 151.09 95.64 151.32C96.33 151.44 97.07 151.52 97.75 151.57C98.1 151.59 98.4 151.62 98.79 151.63C98.91 151.64 99.88 151.65 100 151.65C101.31 151.66 102.82 151.56 104.18 151.32C105.56 151.08 106.91 150.71 108.19 150.2C110.78 149.18 113.07 147.57 115.03 145.57C116.98 143.56 118.52 141.11 119.58 138.44C120.68 135.78 121.26 132.88 121.42 129.95C121.41 128.48 122.61 127.29 124.08 127.28C125.53 127.28 126.71 128.44 126.75 129.88C126.75 129.89 126.75 129.95 126.75 129.95C126.83 133.14 127.55 136.29 128.84 139.18C130.11 142.08 131.94 144.71 134.2 146.87C136.46 149.03 139.13 150.75 142.04 151.88C143.5 152.44 145.01 152.87 146.55 153.17C147.33 153.3 148.11 153.42 148.9 153.49C149.72 153.56 150.31 153.62 151.27 153.62C154.46 153.69 157.62 153.26 160.62 152.28C163.61 151.3 166.41 149.8 168.81 147.84C171.22 145.89 173.23 143.48 174.61 140.77C175.3 139.43 175.83 138 176.19 136.54C176.37 135.81 176.5 135.07 176.6 134.32C176.61 134.25 176.64 133.91 176.7 133.29L176.74 132.02ZM183.41 132.16C183.39 132.97 183.37 133.41 183.37 133.5C183.33 134.04 183.29 134.59 183.23 135.11C183.11 136.12 182.93 137.13 182.7 138.11C182.22 140.09 181.51 142.01 180.6 143.81C178.78 147.43 176.16 150.58 173.08 153.09C169.98 155.59 166.43 157.46 162.68 158.66C158.94 159.87 154.98 160.4 151.11 160.26C150.3 160.25 149.12 160.15 148.18 160.04C147.21 159.93 146.24 159.76 145.28 159.57C143.36 159.17 141.46 158.59 139.64 157.83C135.99 156.32 132.61 154.08 129.86 151.24C127.1 148.42 124.92 145.05 123.47 141.41C122.04 137.76 121.34 133.85 121.42 129.95C121.95 129.95 126.22 129.95 126.75 129.95C126.9 133.51 126.34 137.1 125.19 140.52C124 143.92 122.16 147.15 119.69 149.9C117.24 152.66 114.09 154.84 110.66 156.26C108.95 156.97 107.16 157.49 105.35 157.82C103.52 158.16 101.78 158.32 99.85 158.32C99.72 158.31 98.75 158.28 98.63 158.28C98.21 158.26 97.7 158.22 97.24 158.19C96.3 158.1 95.44 158 94.53 157.83C92.74 157.52 90.95 157.04 89.22 156.36C85.76 155.02 82.53 152.85 80.08 150.03C77.61 147.22 75.85 143.91 74.77 140.47C73.72 137.02 73.28 133.46 73.42 129.95C73.42 129.95 73.42 129.95 73.42 129.95C73.35 128.48 74.48 127.23 75.95 127.16C77.42 127.09 78.67 128.22 78.75 129.69C78.75 129.69 78.75 129.71 78.75 129.73C78.75 129.86 78.75 129.94 78.75 129.95C78.89 134.44 77.87 138.94 75.91 142.97C73.95 147 71.08 150.58 67.58 153.41C64.07 156.23 59.93 158.26 55.56 159.33C53.37 159.87 51.14 160.18 48.9 160.27C48.85 160.27 48.57 160.28 48.07 160.29L47.58 160.29C47.35 160.29 47.22 160.29 47.2 160.29C46.69 160.27 46.22 160.27 45.59 160.22C44.38 160.14 43.31 160.01 42.19 159.81C33.28 158.3 25.12 152.79 20.53 144.9C18.25 140.96 16.85 136.43 16.73 131.8C16.73 130.98 16.73 126.91 16.72 119.58L16.72 95.36L16.72 93.84L16.72 93.36L16.73 92.98C16.75 92.53 16.76 92.27 16.76 92.22C16.8 91.2 16.78 90.26 16.92 89.11C17.09 86.86 17.41 84.75 17.82 82.64C18.68 78.42 20.02 74.31 21.81 70.41C25.39 62.61 30.65 55.71 36.82 49.94C42.99 44.13 50.15 39.51 57.71 35.89C61.5 34.06 65.43 32.58 69.41 31.3C73.4 30.02 77.47 29.02 81.58 28.29C85.7 27.54 89.85 27.03 94.02 26.82C96.13 26.66 98.13 26.68 100.34 26.64C102.36 26.68 104.34 26.68 106.5 26.85C110.73 27.1 114.84 27.59 118.96 28.38C123.06 29.14 127.14 30.13 131.12 31.44C139.09 33.99 146.75 37.61 153.73 42.33C160.73 47 167 52.87 172.04 59.74C177.06 66.6 180.77 74.56 182.41 83.03C182.61 84.08 182.76 85.15 182.93 86.21C183.08 87.28 183.15 88.35 183.26 89.42C183.41 91.57 183.44 93.76 183.43 95.73C183.43 96.53 183.43 100.57 183.42 107.84C183.41 122.38 183.41 130.45 183.41 132.07C183.41 132.1 183.41 132.14 183.41 132.16" id="c2hJ7QbkEW"></path><path d="M157.14 124.52C141.21 128.07 121.48 130.17 100.12 130.17C78.72 130.17 58.95 128.08 43 124.52" id="b1uxboYeAL"></path><path d="M157.51 126.48C157.51 126.48 155.77 126.93 152.71 127.65C151.18 128.01 149.32 128.44 147.19 128.93C145.08 129.49 142.58 129.85 139.88 130.28C137.17 130.7 134.24 131.15 131.13 131.63C128.03 131.95 124.76 132.26 121.36 132.55C119.67 132.7 117.94 132.85 116.2 133C114.45 133.1 112.68 133.14 110.9 133.19C107.3 133.29 103.65 133.4 99.99 133.5C96.4 133.4 92.81 133.29 89.28 133.19C87.51 133.14 85.76 133.1 84.03 133C82.27 132.85 80.54 132.7 78.83 132.55C75.42 132.26 72.13 131.95 69.02 131.63C65.93 131.15 63.01 130.7 60.32 130.29C57.63 129.86 55.16 129.51 53.01 128.94C50.85 128.44 48.97 128.01 47.42 127.65C44.32 126.92 42.57 126.47 42.57 126.47C41.5 126.19 40.86 125.1 41.13 124.04C41.38 123.05 42.33 122.43 43.31 122.55C43.32 122.55 43.43 122.56 43.44 122.56C43.44 122.56 45.21 122.78 48.29 123.22C49.83 123.44 51.7 123.71 53.84 124.02C55.97 124.4 58.42 124.53 61.07 124.81C63.72 125.08 66.59 125.37 69.62 125.68C72.65 125.85 75.85 126.03 79.16 126.22C80.81 126.32 82.49 126.42 84.19 126.53C85.92 126.56 87.68 126.59 89.44 126.62C92.97 126.69 96.57 126.77 100.16 126.84C103.68 126.77 107.21 126.7 110.68 126.62C112.42 126.59 114.16 126.56 115.87 126.53C117.58 126.43 119.27 126.32 120.93 126.22C124.26 126.03 127.47 125.85 130.52 125.68C133.54 125.37 136.39 125.08 139.02 124.82C141.66 124.54 144.08 124.41 146.26 124.03C148.42 123.72 150.31 123.44 151.87 123.21C154.98 122.77 156.77 122.55 156.77 122.55C157.87 122.42 158.87 123.2 159 124.29C159.13 125.3 158.47 126.23 157.51 126.48" id="a65ryUR7XU"></path><path d="M102.75 89.12C102.44 93.76 98.43 97.26 93.8 96.94C89.17 96.62 85.68 92.59 85.99 87.95C86.3 83.32 90.31 79.82 94.94 80.14C99.56 80.46 103.06 84.48 102.75 89.12" id="e5qU0MO8k"></path><path d="M124.06 89.45C123.69 88.95 123.35 88.43 122.97 87.95C122.09 86.83 121.16 85.74 120.2 84.69C119.73 84.15 119.23 83.64 118.73 83.14C118.23 82.63 117.74 82.12 117.21 81.65C116.19 80.66 115.1 79.77 114.02 78.87C112.89 78.05 111.78 77.18 110.59 76.48C109.44 75.7 108.2 75.14 106.99 74.5C105.74 74.03 104.45 73.44 103.28 73.19C102.22 72.78 100.57 72.65 99.12 72.42C99.12 72.42 99.11 72.42 99.11 72.42C99.18 72.43 98.91 72.4 99.27 72.44C99.27 72.44 99.26 72.44 99.24 72.44L99.18 72.44L99.06 72.44L98.81 72.44L98.32 72.43C97.72 72.43 97.4 72.42 97.33 72.42C96.67 72.38 96.01 72.49 95.35 72.56C94.02 72.65 92.71 73.02 91.39 73.31C90.09 73.76 88.77 74.12 87.51 74.73C86.22 75.23 85 75.93 83.75 76.58C82.54 77.31 81.33 78.03 80.17 78.86C79.57 79.24 79 79.68 78.44 80.11C77.86 80.53 77.29 80.97 76.75 81.43C75.63 82.33 74.55 83.28 73.51 84.26C72.48 85.23 71.43 86.29 70.56 87.27C70.58 86.96 70.75 84.47 70.77 84.16C71.5 85.24 72.4 86.44 73.29 87.54C74.18 88.66 75.13 89.75 76.11 90.79C76.59 91.32 77.09 91.83 77.6 92.33C78.1 92.84 78.6 93.34 79.14 93.81C80.18 94.79 81.28 95.67 82.38 96.56C83.52 97.37 84.64 98.24 85.85 98.92C87.01 99.69 88.27 100.24 89.49 100.87C90.75 101.33 92.04 101.9 93.22 102.14C94.29 102.53 95.94 102.65 97.39 102.86C97.39 102.86 97.4 102.87 97.41 102.87C97.33 102.86 97.6 102.89 97.24 102.85C97.24 102.85 97.25 102.85 97.27 102.85L97.33 102.85L97.45 102.85L97.7 102.84L98.19 102.84C98.79 102.84 99.12 102.84 99.18 102.84C99.84 102.88 100.5 102.76 101.16 102.68C102.48 102.58 103.79 102.19 105.1 101.88C106.39 101.43 107.69 101.05 108.94 100.43C110.22 99.91 111.43 99.2 112.66 98.54C113.86 97.8 115.06 97.08 116.21 96.24C116.8 95.84 117.36 95.41 117.92 94.97C118.49 94.54 119.05 94.1 119.59 93.64C120.68 92.73 121.75 91.78 122.77 90.79C123.22 90.36 123.63 89.89 124.06 89.45M126.88 95.09C125.74 96.17 124.56 97.21 123.34 98.19C122.74 98.7 122.12 99.18 121.49 99.65C120.86 100.12 120.23 100.6 119.57 101.03C118.29 101.95 116.92 102.77 115.56 103.58C114.15 104.33 112.76 105.11 111.25 105.71C109.8 106.4 108.23 106.87 106.68 107.38C105.08 107.75 103.49 108.18 101.82 108.31C100.99 108.4 100.17 108.53 99.33 108.48C99.24 108.48 98.82 108.48 98.07 108.48L97.44 108.47L97.12 108.46L96.97 108.46L96.89 108.46L96.85 108.46C96.72 108.45 96.64 108.44 96.63 108.44C95.12 108.19 93.76 108.12 91.97 107.58C90.21 107.18 88.76 106.51 87.23 105.91C85.78 105.17 84.3 104.48 82.97 103.59C81.58 102.77 80.33 101.8 79.04 100.85C77.82 99.85 76.6 98.84 75.47 97.76C74.88 97.23 74.34 96.67 73.79 96.11C73.23 95.56 72.69 94.99 72.17 94.41C71.12 93.26 70.11 92.07 69.14 90.84C68.16 89.6 67.27 88.4 66.35 86.98C65.7 85.99 65.82 84.72 66.56 83.87C67.67 82.59 68.72 81.52 69.86 80.43C70.98 79.34 72.14 78.3 73.35 77.31C73.94 76.8 74.56 76.32 75.18 75.84C75.8 75.36 76.42 74.88 77.07 74.44C78.34 73.52 79.69 72.69 81.04 71.87C82.44 71.11 83.82 70.32 85.31 69.7C86.75 69 88.32 68.52 89.85 68C91.45 67.61 93.03 67.16 94.7 67.02C95.52 66.92 96.34 66.79 97.19 66.82C97.27 66.82 97.69 66.82 98.45 66.82L99.07 66.82L99.39 66.82L99.55 66.82L99.63 66.83L99.66 66.83C99.79 66.84 99.87 66.85 99.88 66.85C101.39 67.08 102.75 67.13 104.55 67.66C106.32 68.05 107.78 68.7 109.33 69.29C110.78 70.02 112.27 70.69 113.61 71.58C115.02 72.38 116.29 73.35 117.58 74.28C118.82 75.28 120.06 76.28 121.2 77.36C121.8 77.88 122.35 78.44 122.91 78.99C123.47 79.54 124.02 80.11 124.54 80.69C125.62 81.83 126.64 83.02 127.62 84.24C128.62 85.48 129.53 86.68 130.48 88.1C131.23 89.23 131.1 90.69 130.24 91.66C129.12 92.92 128.03 94.01 126.88 95.09Z" id="fbKg5UZ5w"></path><path d="M37.07 51.57C37.07 51.57 37.47 51.35 38.21 50.95C38.91 50.56 40.18 49.92 41.65 49.26C44.64 47.9 49.03 46.24 54.47 44.96C59.89 43.68 66.38 42.74 73.39 42.82C75.05 42.81 76.88 42.9 78.68 43C80.47 43.11 82.28 43.28 84.1 43.5C87.74 43.96 91.42 44.67 95.04 45.68C102.27 47.67 109.26 51 114.89 55.52C117.7 57.77 120.17 60.29 122.2 62.93C124.23 65.57 125.82 68.33 127.02 70.98C128.21 73.63 129.07 76.17 129.6 78.47C129.9 79.61 130.07 80.69 130.27 81.69C130.41 82.7 130.54 83.62 130.65 84.46C130.81 86.13 130.9 87.44 130.91 88.34C130.94 89.24 130.95 89.72 130.95 89.72C131 91.37 129.7 92.75 128.05 92.8C126.39 92.86 125.01 91.56 124.96 89.9C124.96 89.9 124.96 89.89 124.96 89.87C124.95 89.78 124.95 89.73 124.95 89.72C124.95 89.72 124.94 89.29 124.93 88.5C124.93 87.7 124.86 86.54 124.74 85.06C124.65 84.33 124.55 83.52 124.44 82.64C124.26 81.77 124.14 80.82 123.88 79.83C123.45 77.83 122.72 75.64 121.73 73.34C119.76 68.75 116.31 63.85 111.38 59.85C106.49 55.82 100.23 52.71 93.57 50.8C90.25 49.83 86.83 49.13 83.42 48.66C81.71 48.43 80.02 48.25 78.33 48.12C76.65 48.01 75.04 47.91 73.31 47.9C66.78 47.73 60.65 48.5 55.53 49.63C50.4 50.75 46.28 52.24 43.5 53.45C42.09 54.06 41.12 54.52 40.34 54.94C39.59 55.33 39.19 55.54 39.19 55.54C38.09 56.11 36.73 55.69 36.15 54.59C35.58 53.5 35.99 52.15 37.07 51.57" id="dkLgFcjCR"></path></defs><g><g><g><use xlink:href="#a4p1HWIkre" opacity="1" fill="#ffffff" fill-opacity="1"></use><g><use xlink:href="#a4p1HWIkre" opacity="1" fill-opacity="0" stroke="#000000" stroke-width="1" stroke-opacity="0"></use></g></g><g><use xlink:href="#a514xclQr" opacity="1" fill="#1d1d1b" fill-opacity="1"></use><g><use xlink:href="#a514xclQr" opacity="1" fill-opacity="0" stroke="#000000" stroke-width="1" stroke-opacity="0"></use></g></g><g><use xlink:href="#azTWVL0yk" opacity="1" fill="#ffffff" fill-opacity="1"></use><g><use xlink:href="#azTWVL0yk" opacity="1" fill-opacity="0" stroke="#000000" stroke-width="1" stroke-opacity="0"></use></g></g><g><use xlink:href="#c2hJ7QbkEW" opacity="1" fill="#1d1d1b" fill-opacity="1"></use><g><use xlink:href="#c2hJ7QbkEW" opacity="1" fill-opacity="0" stroke="#000000" stroke-width="1" stroke-opacity="0"></use></g></g><g><use xlink:href="#b1uxboYeAL" opacity="1" fill="#ffffff" fill-opacity="1"></use><g><use xlink:href="#b1uxboYeAL" opacity="1" fill-opacity="0" stroke="#000000" stroke-width="1" stroke-opacity="0"></use></g></g><g><use xlink:href="#a65ryUR7XU" opacity="1" fill="#1d1d1b" fill-opacity="1"></use><g><use xlink:href="#a65ryUR7XU" opacity="1" fill-opacity="0" stroke="#000000" stroke-width="1" stroke-opacity="0"></use></g></g><g><use xlink:href="#e5qU0MO8k" opacity="1" fill="#1d1d1b" fill-opacity="1"></use><g><use xlink:href="#e5qU0MO8k" opacity="1" fill-opacity="0" stroke="#000000" stroke-width="1" stroke-opacity="0"></use></g></g><g><use xlink:href="#fbKg5UZ5w" opacity="1" fill="#1d1d1b" fill-opacity="1"></use><g><use xlink:href="#fbKg5UZ5w" opacity="1" fill-opacity="0" stroke="#000000" stroke-width="1" stroke-opacity="0"></use></g></g><g><use xlink:href="#dkLgFcjCR" opacity="1" fill="#1d1d1b" fill-opacity="1"></use><g><use xlink:href="#dkLgFcjCR" opacity="1" fill-opacity="0" stroke="#000000" stroke-width="1" stroke-opacity="0"></use></g></g></g></g></svg>