<?xml version="1.0" encoding="UTF-8" standalone="no"?>
<!DOCTYPE svg PUBLIC "-//W3C//DTD SVG 1.1//EN" "http://www.w3.org/Graphics/SVG/1.1/DTD/svg11.dtd">
<svg version="1.1" xmlns="http://www.w3.org/2000/svg" xmlns:xlink="http://www.w3.org/1999/xlink" preserveAspectRatio="xMidYMid meet" viewBox="0 0 200 200" width="200" height="200"><defs><path d="M28.75 167.27C28.75 144.8 64.4 137.4 108.57 137.4C152.75 137.4 188.74 147.45 188.74 167.79C188.74 181.54 176.39 190.02 160.93 190.02C143.6 190.02 132.93 180.99 132.93 167.24C132.93 179.9 124.26 188.04 108.93 188.04C92.27 188.04 84.94 179.9 84.94 167.24C84.94 180.99 73.27 190.02 56.61 190.02C41.14 190.02 28.75 181.02 28.75 167.27" id="b4lgDOjtTs"></path><path d="M32.08 167.28C32.09 170.16 32.77 172.94 34.1 175.41C35.43 177.89 37.4 180.03 39.77 181.72C42.13 183.43 44.89 184.69 47.8 185.5C49.26 185.91 50.76 186.2 52.27 186.4C53.8 186.59 55.27 186.68 56.88 186.68C60 186.7 63.11 186.37 66.07 185.62C69.03 184.87 71.82 183.66 74.25 182.01C76.68 180.35 78.69 178.19 80.06 175.66C81.46 173.14 82.2 170.24 82.27 167.24C82.27 167.23 82.27 167.17 82.27 167.16C82.31 165.69 83.53 164.52 85 164.56C86.46 164.59 87.61 165.79 87.6 167.24C87.6 167.24 87.6 167.24 87.6 167.24C87.75 170 88.2 172.68 89.23 175C90.21 177.33 91.7 179.31 93.68 180.76C95.66 182.21 98.03 183.26 100.63 183.86C101.92 184.17 103.26 184.39 104.63 184.52C106.05 184.65 107.26 184.71 108.84 184.71C110.14 184.71 111.58 184.66 112.92 184.52C114.27 184.38 115.6 184.15 116.89 183.82C119.46 183.18 121.83 182.08 123.84 180.61C125.86 179.13 127.43 177.16 128.49 174.86C129.6 172.58 130.11 169.95 130.26 167.24C130.62 167.24 132.4 167.24 135.6 167.24C135.6 167.24 135.6 167.24 135.6 167.24C135.68 169.72 136.11 172.15 137.03 174.35C137.94 176.55 139.26 178.53 140.95 180.18C144.35 183.49 149.07 185.42 154.05 186.22C155.3 186.42 156.56 186.55 157.84 186.63C158.48 186.66 159.04 186.69 159.73 186.7C159.8 186.7 160.15 186.7 160.77 186.7C161.32 186.69 161.63 186.68 161.69 186.68C164.23 186.61 166.75 186.31 169.17 185.71C174.02 184.54 178.48 182.13 181.49 178.61C182.99 176.85 184.08 174.81 184.72 172.61C185.05 171.54 185.26 170.31 185.33 169.27C185.43 167.95 185.42 166.92 185.26 165.82C184.68 161.46 181.58 157.59 177.52 154.65C173.45 151.68 168.58 149.51 163.56 147.77C158.53 146.04 153.28 144.74 147.96 143.74C137.3 141.75 126.39 140.82 115.46 140.51C110.02 140.35 104.5 140.38 99.03 140.54C93.56 140.71 88.09 141 82.66 141.49C77.22 141.97 71.82 142.64 66.5 143.61C61.18 144.58 55.94 145.86 50.97 147.66C46.03 149.45 41.29 151.81 37.69 155.09C35.9 156.72 34.45 158.59 33.49 160.65C33.01 161.67 32.65 162.74 32.42 163.85C32.31 164.41 32.22 164.97 32.16 165.54C32.16 165.59 32.14 165.85 32.1 166.32C32.09 166.83 32.09 167.15 32.08 167.28ZM25.42 167.19L25.45 166.15C25.51 165.38 25.54 164.95 25.55 164.86C25.64 164.06 25.77 163.25 25.94 162.45C26.29 160.86 26.83 159.3 27.53 157.83C28.94 154.87 31 152.33 33.31 150.26C37.96 146.12 43.4 143.59 48.82 141.66C54.28 139.74 59.84 138.46 65.4 137.47C70.96 136.49 76.55 135.83 82.13 135.37C87.71 134.9 93.3 134.63 98.87 134.5C104.46 134.39 110 134.35 115.61 134.46C126.79 134.72 137.99 135.59 149.1 137.6C154.64 138.62 160.18 139.91 165.61 141.73C171.04 143.57 176.43 145.86 181.35 149.37C183.8 151.13 186.13 153.22 188.03 155.81C189.94 158.38 191.37 161.51 191.85 164.82C192.12 166.45 192.12 168.21 192.02 169.64C191.9 171.36 191.64 172.87 191.19 174.45C190.31 177.57 188.74 180.52 186.67 182.98C182.48 187.94 176.61 190.83 170.76 192.23C167.81 192.94 164.8 193.29 161.82 193.33C161.43 193.33 161.11 193.34 160.66 193.33C160.56 193.33 159.73 193.3 159.63 193.3C158.94 193.28 158.11 193.22 157.38 193.17C155.9 193.05 154.42 192.86 152.94 192.59C149.99 192.05 147.05 191.16 144.26 189.85C141.48 188.5 138.85 186.7 136.66 184.41C134.47 182.12 132.73 179.35 131.68 176.38C130.61 173.41 130.22 170.28 130.26 167.24C130.26 167.24 130.26 167.24 130.26 167.24C130.17 165.77 131.29 164.51 132.76 164.42C134.22 164.32 135.49 165.44 135.58 166.91C135.58 166.91 135.58 166.92 135.58 166.94C135.59 167.12 135.6 167.22 135.6 167.24C135.75 170.53 135.28 173.97 134 177.22C132.69 180.45 130.51 183.42 127.76 185.62C125.02 187.86 121.79 189.27 118.56 190.15C116.93 190.59 115.29 190.9 113.66 191.09C112.01 191.28 110.44 191.37 108.73 191.37C107.31 191.36 105.51 191.26 103.94 191.09C102.31 190.91 100.68 190.62 99.06 190.22C95.82 189.39 92.53 188.04 89.76 185.76C86.97 183.54 84.84 180.44 83.66 177.17C82.49 173.88 82.13 170.49 82.27 167.24C82.27 167.24 82.27 167.24 82.27 167.24C85.47 167.24 87.25 167.24 87.6 167.24C87.7 170.97 86.95 174.85 85.24 178.32C83.52 181.8 80.9 184.78 77.84 187.03C74.77 189.3 71.29 190.84 67.74 191.83C64.18 192.82 60.54 193.28 56.92 193.34C55.17 193.37 53.26 193.27 51.44 193.04C49.62 192.82 47.8 192.47 46.01 191.99C42.43 191.01 38.93 189.47 35.81 187.24C32.71 185.01 29.99 182.06 28.16 178.57C26.3 175.1 25.39 171.13 25.42 167.27C25.42 167.27 25.42 167.23 25.42 167.23C25.42 167.22 25.42 167.2 25.42 167.19" id="c7CDQ3dCQ4"></path><path d="M188.92 132.07C188.92 145.82 176.39 156.97 160.93 156.97C143.6 156.97 132.93 143.7 132.93 129.95C132.93 142.61 124.26 154.99 108.93 154.99C92.27 154.99 84.94 142.61 84.94 129.95C84.94 143.7 73.27 156.97 56.61 156.97C41.14 156.97 28.92 144.78 28.92 131.03C28.92 127.28 28.94 97.26 28.94 93.5C28.94 58.45 64.76 30.04 108.93 30.04C153.11 30.04 188.92 58.45 188.92 93.5C188.92 101.22 188.92 124.36 188.92 132.07Z" id="a19LR2Ws2O"></path><path d="M185.59 132.02L185.58 107.84C185.58 100.57 185.57 96.53 185.57 95.73C185.58 93.65 185.55 91.81 185.42 89.92C185.32 88.99 185.26 88.04 185.13 87.11C185.08 86.83 184.72 84.6 184.67 84.32C183.23 76.9 179.95 69.87 175.44 63.72C170.92 57.56 165.23 52.22 158.8 47.94C152.38 43.62 145.3 40.27 137.89 37.9C134.19 36.69 130.4 35.77 126.57 35.07C122.75 34.34 118.82 33.87 114.99 33.66C113.13 33.51 111.06 33.5 109.05 33.46C107.22 33.5 105.18 33.48 103.26 33.64C99.36 33.84 95.49 34.32 91.65 35.02C87.82 35.7 84.03 36.63 80.32 37.82C76.62 39 72.97 40.37 69.48 42.05C62.49 45.39 55.91 49.64 50.31 54.91C44.69 60.15 39.99 66.34 36.81 73.23C35.22 76.68 34.05 80.29 33.29 83.99C32.93 85.84 32.65 87.72 32.51 89.51C32.39 90.36 32.4 91.45 32.35 92.44C32.35 92.49 32.34 92.74 32.33 93.2C32.32 93.42 32.32 93.55 32.32 93.57C32.31 93.63 32.32 93.44 32.32 93.56C32.32 93.57 32.32 93.6 32.32 93.66L32.32 93.85L32.31 95.36L32.29 119.59C32.29 126.8 32.29 130.8 32.29 131.6C32.37 135.06 33.41 138.49 35.17 141.53C38.7 147.64 45.15 152.06 52.18 153.24C59.22 154.45 66.84 152.83 72.47 148.37C78.2 144.09 81.98 137.15 82.27 129.95C82.62 129.95 84.4 129.95 87.6 129.95C87.6 129.95 87.6 129.95 87.6 129.95C87.75 132.93 88.26 135.87 89.29 138.57C90.27 141.27 91.72 143.75 93.62 145.74C95.53 147.73 97.82 149.29 100.42 150.26C101.72 150.74 103.08 151.09 104.49 151.32C105.17 151.44 105.92 151.52 106.59 151.57C106.94 151.59 107.24 151.62 107.63 151.63C107.76 151.64 108.73 151.65 108.85 151.65C110.16 151.66 111.67 151.56 113.02 151.32C114.41 151.08 115.75 150.71 117.04 150.2C119.63 149.18 121.92 147.57 123.88 145.57C125.82 143.56 127.36 141.11 128.42 138.44C129.53 135.78 130.11 132.88 130.26 129.95C130.26 128.48 131.45 127.29 132.93 127.28C134.38 127.28 135.56 128.44 135.6 129.88C135.6 129.89 135.6 129.95 135.6 129.95C135.68 133.14 136.4 136.29 137.69 139.18C138.96 142.08 140.78 144.71 143.05 146.87C145.31 149.03 147.98 150.75 150.89 151.88C152.34 152.44 153.86 152.87 155.4 153.17C156.18 153.3 156.96 153.42 157.75 153.49C158.57 153.56 159.16 153.62 160.12 153.62C163.31 153.69 166.47 153.26 169.47 152.28C172.45 151.3 175.26 149.8 177.66 147.84C180.07 145.89 182.08 143.48 183.46 140.77C184.15 139.43 184.68 138 185.04 136.54C185.22 135.81 185.35 135.07 185.45 134.32C185.46 134.25 185.49 133.91 185.55 133.29L185.59 132.02ZM192.26 132.16C192.23 132.97 192.22 133.41 192.22 133.5C192.18 134.04 192.14 134.59 192.08 135.11C191.95 136.12 191.78 137.13 191.54 138.11C191.07 140.09 190.36 142.01 189.45 143.81C187.62 147.43 185.01 150.58 181.92 153.09C178.83 155.59 175.27 157.46 171.53 158.66C167.79 159.87 163.83 160.4 159.96 160.26C159.15 160.25 157.97 160.15 157.03 160.04C156.06 159.93 155.09 159.76 154.13 159.57C152.2 159.17 150.31 158.59 148.48 157.83C144.83 156.32 141.46 154.08 138.71 151.24C135.94 148.42 133.76 145.05 132.32 141.41C130.89 137.76 130.19 133.85 130.26 129.95C130.8 129.95 135.06 129.95 135.6 129.95C135.75 133.51 135.19 137.1 134.04 140.52C132.85 143.92 131 147.15 128.54 149.9C126.09 152.66 122.94 154.84 119.51 156.26C117.79 156.97 116.01 157.49 114.2 157.82C112.36 158.16 110.62 158.32 108.69 158.32C108.57 158.31 107.6 158.28 107.48 158.28C107.06 158.26 106.55 158.22 106.09 158.19C105.15 158.1 104.28 158 103.38 157.83C101.58 157.52 99.8 157.04 98.07 156.36C94.61 155.02 91.38 152.85 88.93 150.03C86.46 147.22 84.7 143.91 83.62 140.47C82.57 137.02 82.12 133.46 82.27 129.95C82.27 129.95 82.27 129.95 82.27 129.95C82.2 128.48 83.33 127.23 84.8 127.16C86.27 127.09 87.52 128.22 87.59 129.69C87.59 129.69 87.59 129.71 87.6 129.73C87.6 129.86 87.6 129.94 87.6 129.95C87.73 134.44 86.72 138.94 84.76 142.97C82.79 147 79.93 150.58 76.43 153.41C72.92 156.23 68.77 158.26 64.4 159.33C62.22 159.87 59.99 160.18 57.75 160.27C57.7 160.27 57.42 160.28 56.91 160.29L56.42 160.29C56.2 160.29 56.07 160.29 56.04 160.29C55.54 160.27 55.06 160.27 54.44 160.22C53.23 160.14 52.16 160.01 51.03 159.81C42.13 158.3 33.97 152.79 29.38 144.9C27.09 140.96 25.7 136.43 25.58 131.8C25.58 130.98 25.58 126.91 25.56 119.58L25.57 95.36L25.57 93.84L25.57 93.36L25.58 92.98C25.6 92.53 25.6 92.27 25.61 92.22C25.65 91.2 25.63 90.26 25.77 89.11C25.93 86.86 26.26 84.75 26.67 82.64C27.52 78.42 28.86 74.31 30.66 70.41C34.24 62.61 39.49 55.71 45.67 49.94C51.84 44.13 59 39.51 66.56 35.89C70.34 34.06 74.28 32.58 78.26 31.3C82.25 30.02 86.32 29.02 90.43 28.29C94.54 27.54 98.7 27.03 102.87 26.82C104.98 26.66 106.98 26.68 109.19 26.64C111.21 26.68 113.18 26.68 115.35 26.85C119.58 27.1 123.68 27.59 127.81 28.38C131.91 29.14 135.98 30.13 139.96 31.44C147.94 33.99 155.59 37.61 162.58 42.33C169.58 47 175.85 52.87 180.89 59.74C185.91 66.6 189.62 74.56 191.26 83.03C191.45 84.08 191.61 85.15 191.78 86.21C191.93 87.28 192 88.35 192.11 89.42C192.26 91.57 192.29 93.76 192.28 95.73C192.28 96.53 192.27 100.57 192.27 107.84C192.26 122.38 192.26 130.45 192.26 132.07C192.26 132.1 192.26 132.14 192.26 132.16" id="e1XjV5YWZS"></path><path d="M165.99 124.52C150.06 128.07 130.33 130.17 108.96 130.17C87.56 130.17 67.8 128.08 51.85 124.52" id="a39genr2L4"></path><path d="M166.36 126.48C166.36 126.48 164.62 126.93 161.56 127.65C160.03 128.01 158.17 128.44 156.03 128.93C153.93 129.49 151.43 129.85 148.73 130.28C146.02 130.7 143.08 131.15 139.98 131.63C136.88 131.95 133.6 132.26 130.21 132.55C128.52 132.7 126.79 132.85 125.05 133C123.3 133.1 121.53 133.14 119.74 133.19C116.15 133.29 112.49 133.4 108.84 133.5C105.25 133.4 101.66 133.29 98.13 133.19C96.36 133.14 94.61 133.1 92.87 133C91.12 132.85 89.39 132.7 87.68 132.55C84.27 132.26 80.98 131.95 77.87 131.63C74.78 131.15 71.86 130.7 69.17 130.29C66.48 129.86 64.01 129.51 61.86 128.94C59.7 128.44 57.82 128.01 56.26 127.65C53.17 126.92 51.42 126.47 51.42 126.47C50.35 126.19 49.7 125.1 49.98 124.04C50.23 123.05 51.17 122.43 52.15 122.55C52.17 122.55 52.28 122.56 52.29 122.56C52.29 122.56 54.06 122.78 57.14 123.22C58.68 123.44 60.55 123.71 62.69 124.02C64.81 124.4 67.27 124.53 69.92 124.81C72.56 125.08 75.43 125.37 78.47 125.68C81.5 125.85 84.7 126.03 88.01 126.22C89.66 126.32 91.34 126.42 93.04 126.53C94.77 126.56 96.52 126.59 98.29 126.62C101.82 126.69 105.41 126.77 109 126.84C112.53 126.77 116.05 126.7 119.52 126.62C121.27 126.59 123.01 126.56 124.72 126.53C126.43 126.43 128.12 126.32 129.78 126.22C133.11 126.03 136.32 125.85 139.37 125.68C142.39 125.37 145.24 125.08 147.87 124.82C150.51 124.54 152.93 124.41 155.1 124.03C157.27 123.72 159.16 123.44 160.72 123.21C163.83 122.77 165.62 122.55 165.62 122.55C166.71 122.42 167.71 123.2 167.85 124.29C167.98 125.3 167.32 126.23 166.36 126.48" id="axOzYGc6T"></path><path d="M111.69 52.7C111.69 52.7 111.87 56.2 112 61.45C112.04 64.07 112.15 67.14 112.17 70.42C112.19 73.7 112.21 77.2 112.24 80.7C112.21 84.2 112.19 87.7 112.17 90.98C112.14 94.26 112.04 97.32 112 99.95C111.95 102.57 111.84 104.76 111.79 106.29C111.78 106.53 111.7 108.45 111.69 108.69C111.62 110.23 110.32 111.42 108.78 111.35C107.34 111.28 106.2 110.11 106.13 108.69C106.13 108.69 106.09 107.82 106.02 106.29C105.98 104.76 105.87 102.57 105.82 99.95C105.77 97.32 105.67 94.26 105.65 90.98C105.63 87.7 105.6 84.2 105.58 80.7C105.6 77.2 105.62 73.7 105.65 70.42C105.66 67.14 105.77 64.07 105.82 61.45C105.95 56.2 106.13 52.7 106.13 52.7C106.21 51.17 107.52 49.99 109.05 50.07C110.48 50.14 111.61 51.3 111.69 52.7" id="dgfZODrby"></path><path d="M80.46 77.92C80.46 77.92 81.35 77.88 82.91 77.81C84.46 77.77 86.69 77.66 89.35 77.61C92.02 77.56 95.13 77.46 98.46 77.44C101.8 77.42 105.35 77.39 108.91 77.37C112.46 77.39 116.02 77.41 119.35 77.44C122.69 77.45 125.8 77.56 128.46 77.61C133.8 77.74 137.35 77.92 137.35 77.92C138.88 78 140.07 79.3 139.99 80.84C139.92 82.27 138.76 83.4 137.35 83.48C137.35 83.48 133.8 83.65 128.46 83.79C125.8 83.83 122.69 83.94 119.35 83.96C116.02 83.98 112.46 84 108.91 84.03C105.35 84 101.8 83.98 98.46 83.96C95.13 83.93 92.02 83.83 89.35 83.79C86.69 83.74 84.46 83.63 82.91 83.58C81.35 83.51 80.46 83.48 80.46 83.48C78.93 83.41 77.74 82.11 77.81 80.58C77.87 79.13 79.05 77.99 80.46 77.92" id="a3u8UJ9pYs"></path></defs><g><g><g><use xlink:href="#b4lgDOjtTs" opacity="1" fill="#ffffff" fill-opacity="1"></use><g><use xlink:href="#b4lgDOjtTs" opacity="1" fill-opacity="0" stroke="#000000" stroke-width="1" stroke-opacity="0"></use></g></g><g><use xlink:href="#c7CDQ3dCQ4" opacity="1" fill="#1d1d1b" fill-opacity="1"></use><g><use xlink:href="#c7CDQ3dCQ4" opacity="1" fill-opacity="0" stroke="#000000" stroke-width="1" stroke-opacity="0"></use></g></g><g><use xlink:href="#a19LR2Ws2O" opacity="1" fill="#ffffff" fill-opacity="1"></use><g><use xlink:href="#a19LR2Ws2O" opacity="1" fill-opacity="0" stroke="#000000" stroke-width="1" stroke-opacity="0"></use></g></g><g><use xlink:href="#e1XjV5YWZS" opacity="1" fill="#1d1d1b" fill-opacity="1"></use><g><use xlink:href="#e1XjV5YWZS" opacity="1" fill-opacity="0" stroke="#000000" stroke-width="1" stroke-opacity="0"></use></g></g><g><use xlink:href="#a39genr2L4" opacity="1" fill="#ffffff" fill-opacity="1"></use><g><use xlink:href="#a39genr2L4" opacity="1" fill-opacity="0" stroke="#000000" stroke-width="1" stroke-opacity="0"></use></g></g><g><use xlink:href="#axOzYGc6T" opacity="1" fill="#1d1d1b" fill-opacity="1"></use><g><use xlink:href="#axOzYGc6T" opacity="1" fill-opacity="0" stroke="#000000" stroke-width="1" stroke-opacity="0"></use></g></g><g><use xlink:href="#dgfZODrby" opacity="1" fill="#1d1d1b" fill-opacity="1"></use><g><use xlink:href="#dgfZODrby" opacity="1" fill-opacity="0" stroke="#000000" stroke-width="1" stroke-opacity="0"></use></g></g><g><use xlink:href="#a3u8UJ9pYs" opacity="1" fill="#1d1d1b" fill-opacity="1"></use><g><use xlink:href="#a3u8UJ9pYs" opacity="1" fill-opacity="0" stroke="#000000" stroke-width="1" stroke-opacity="0"></use></g></g></g></g></svg>