<?xml version="1.0" encoding="UTF-8" standalone="no"?>
<!DOCTYPE svg PUBLIC "-//W3C//DTD SVG 1.1//EN" "http://www.w3.org/Graphics/SVG/1.1/DTD/svg11.dtd">
<svg version="1.1" xmlns="http://www.w3.org/2000/svg" xmlns:xlink="http://www.w3.org/1999/xlink" preserveAspectRatio="xMidYMid meet" viewBox="0 0 200 200" width="200" height="200"><defs><path d="M187.15 148.65C187.15 165.98 174.62 180.03 159.16 180.03C141.83 180.03 131.16 163.31 131.16 145.98C131.16 161.94 122.5 177.54 107.16 177.54C90.5 177.54 83.17 161.94 83.17 145.98C83.17 163.31 71.5 180.03 54.84 180.03C39.37 180.03 27.15 164.67 27.15 147.34C27.15 142.61 27.17 104.77 27.17 100.04C27.17 55.86 62.99 20.05 107.16 20.05C151.34 20.05 187.15 55.86 187.15 100.04C187.15 109.76 187.15 138.93 187.15 148.65Z" id="ayNLxkE61"></path><path d="M183.82 148.57L183.81 120.92L183.8 107.06C183.8 102.9 183.8 100.59 183.8 100.13C183.75 97.9 183.71 95.69 183.5 93.49C182.74 84.67 180.49 75.97 176.74 67.95C173.01 59.93 167.92 52.52 161.68 46.23C155.45 39.95 148.14 34.73 140.16 30.9C132.18 27.09 123.52 24.72 114.73 23.83C114.4 23.81 111.81 23.61 111.49 23.58C110.38 23.52 109.19 23.52 108.05 23.48C107.99 23.48 107.7 23.47 107.18 23.46L106.43 23.48C105.44 23.5 104.88 23.52 104.77 23.52C103.66 23.53 102.56 23.6 101.46 23.7C97.05 24.03 92.66 24.7 88.37 25.8C79.8 27.98 71.61 31.64 64.27 36.59C56.95 41.56 50.5 47.8 45.27 54.94C40.01 62.07 36.09 70.15 33.61 78.64C32.38 82.89 31.47 87.24 31.02 91.64C30.81 93.84 30.62 95.9 30.6 98.28C30.59 98.39 30.58 98.97 30.55 100.01L30.55 101.66L30.54 105.12L30.52 132.85C30.51 141.17 30.5 145.79 30.5 146.72C30.47 151.02 31.14 155.17 32.65 159.11C34.13 163.03 36.36 166.66 39.21 169.63C42.04 172.63 45.61 174.78 49.41 175.9C49.89 176.08 50.34 176.16 50.78 176.24C50.91 176.26 51.98 176.48 52.11 176.51C52.64 176.56 53.25 176.59 53.82 176.63C53.88 176.63 54.17 176.65 54.68 176.68L54.9 176.69C54.97 176.7 55 176.7 55.01 176.7C55.09 176.71 54.68 176.69 54.9 176.69C54.94 176.69 55.24 176.67 55.27 176.67C57.26 176.59 59.26 176.37 61.15 175.72C64.95 174.53 68.48 172.28 71.27 169.2C74.12 166.19 76.36 162.5 77.9 158.53C79.47 154.57 80.34 150.3 80.5 146C80.5 146 80.5 145.99 80.5 145.98L85.83 145.98C85.94 147.55 86 148.42 86.01 148.6C86.09 149.47 86.21 150.33 86.3 151.19C86.56 152.91 86.88 154.6 87.33 156.26C88.19 159.57 89.47 162.73 91.25 165.46C92.14 166.83 93.17 168.06 94.27 169.18C94.82 169.75 95.46 170.2 96.04 170.72C96.67 171.17 97.34 171.56 97.98 171.99C98.19 172.09 99.86 172.87 100.07 172.97C100.81 173.19 101.56 173.46 102.28 173.66C103 173.77 103.68 173.92 104.42 174.05C104.61 174.06 105.53 174.11 107.18 174.2C108.48 174.13 109.2 174.09 109.35 174.08C110.11 173.98 110.86 173.79 111.62 173.67C112.36 173.45 113.08 173.18 113.82 172.95C114.5 172.6 115.21 172.29 115.89 171.92C116.52 171.47 117.21 171.11 117.82 170.61C118.41 170.07 119.07 169.64 119.6 169.04C120.73 167.91 121.77 166.67 122.69 165.3C123.62 163.94 124.43 162.48 125.11 160.94C125.81 159.41 126.37 157.81 126.85 156.17C127.34 154.53 127.7 152.85 127.98 151.15C128.09 150.29 128.22 149.44 128.31 148.58C128.32 148.41 128.38 147.54 128.49 145.99C128.49 145.98 128.49 145.98 128.49 145.98C128.52 144.51 129.73 143.33 131.2 143.36C132.6 143.38 133.73 144.48 133.82 145.85C133.82 145.86 133.82 145.9 133.83 145.98C133.93 147.66 133.98 148.59 134 148.78C134.09 149.71 134.24 150.63 134.36 151.55C134.68 153.38 135.08 155.2 135.66 156.96C136.21 158.72 136.86 160.45 137.68 162.09C138.04 162.94 138.52 163.71 138.98 164.5C139.41 165.31 139.95 166.03 140.47 166.77C140.97 167.53 141.56 168.2 142.15 168.87C142.71 169.58 143.37 170.17 144.02 170.78C144.63 171.43 145.35 171.93 146.05 172.46C146.72 173.04 147.5 173.43 148.24 173.89C148.97 174.38 149.79 174.67 150.57 175.03C151.34 175.44 152.2 175.6 153.02 175.88C153.85 176.19 154.62 176.22 155.41 176.4C156.1 176.59 157.22 176.58 158.19 176.64C158.24 176.65 158.49 176.66 158.93 176.68L159.31 176.7C159.34 176.7 159.35 176.7 159.35 176.7C159.41 176.7 158.98 176.69 159.17 176.7C159.17 176.7 159.18 176.69 159.19 176.69L159.27 176.69L159.43 176.68C160.21 176.63 160.64 176.6 160.73 176.6C161.6 176.6 162.44 176.4 163.3 176.26C165 175.95 166.64 175.38 168.23 174.69C169.04 174.36 169.77 173.87 170.55 173.48C171.29 173.03 172 172.5 172.73 172.02C172.93 171.85 174.54 170.49 174.74 170.32C175.35 169.68 175.99 169.07 176.58 168.41C177.12 167.71 177.72 167.05 178.23 166.33C178.71 165.57 179.25 164.87 179.68 164.09C180.09 163.29 180.58 162.54 180.93 161.72C181.26 160.89 181.68 160.09 181.96 159.24C182.21 158.38 182.56 157.54 182.76 156.67C182.94 155.8 183.2 154.91 183.34 154.05C183.44 153.19 183.59 152.4 183.68 151.48C183.7 151.1 183.75 150.13 183.82 148.57ZM190.48 148.8C190.41 150.59 190.36 151.59 190.36 151.79C190.26 152.86 190.08 154.03 189.94 155.15C189.76 156.26 189.48 157.3 189.24 158.37C188.99 159.44 188.6 160.47 188.27 161.51C187.94 162.55 187.44 163.54 187.03 164.56C186.59 165.57 186.01 166.51 185.51 167.48C184.98 168.45 184.31 169.34 183.72 170.26C183.08 171.17 182.35 172 181.66 172.87C180.92 173.69 180.12 174.46 179.34 175.26C178.5 175.99 177.64 176.7 176.78 177.4C175.85 178.02 174.95 178.68 173.99 179.26C172.99 179.77 172.03 180.37 171 180.8C168.94 181.7 166.78 182.42 164.56 182.82C163.45 183.01 162.34 183.24 161.21 183.25C161.09 183.26 160.53 183.29 159.52 183.35L159.31 183.35L159.2 183.36L159.18 183.36L158.95 183.36L158.9 183.35L158.53 183.33C158.08 183.29 157.83 183.28 157.78 183.27C156.77 183.18 155.88 183.19 154.62 182.92C153.46 182.68 152.22 182.52 151.19 182.12C150.12 181.75 149.02 181.47 148.02 180.94C147 180.45 145.95 180.02 145.02 179.38C144.07 178.78 143.1 178.22 142.25 177.48C141.38 176.79 140.49 176.11 139.73 175.3C138.94 174.53 138.15 173.76 137.48 172.89C136.78 172.04 136.07 171.2 135.49 170.28C134.88 169.38 134.26 168.48 133.77 167.51C133.24 166.57 132.7 165.63 132.29 164.63C131.38 162.68 130.66 160.65 130.08 158.6C129.51 156.54 129.12 154.44 128.84 152.33C128.75 151.27 128.62 150.22 128.56 149.16C128.55 148.95 128.53 147.89 128.49 145.98L133.83 145.98L133.83 145.99C133.83 147.75 133.83 148.73 133.83 148.93C133.79 149.91 133.69 150.88 133.62 151.87C133.4 153.82 133.1 155.77 132.64 157.7C132.16 159.62 131.56 161.53 130.78 163.38C130.03 165.23 129.11 167.05 128.02 168.77C126.94 170.51 125.66 172.15 124.18 173.63C123.49 174.41 122.62 175.04 121.83 175.74C121.02 176.41 120.09 176.96 119.21 177.56C118.29 178.09 117.31 178.54 116.35 179.02C115.34 179.38 114.32 179.75 113.3 180.06C112.25 180.27 111.2 180.52 110.14 180.67C110.03 180.68 109.5 180.71 108.55 180.78L107.75 180.83L107.35 180.86L107.25 180.87L107.2 180.87L107.18 180.87L106.95 180.87L106.78 180.85C105.12 180.75 104.2 180.69 104.02 180.67C102.94 180.51 101.81 180.29 100.72 180.07C99.67 179.78 98.67 179.42 97.66 179.08C96.68 178.65 95.71 178.16 94.75 177.69C93.86 177.1 92.94 176.53 92.09 175.9C91.29 175.19 90.44 174.54 89.7 173.78C88.22 172.27 86.94 170.61 85.88 168.85C83.74 165.32 82.37 161.5 81.51 157.64C81.1 155.71 80.83 153.76 80.65 151.82C80.6 150.84 80.51 149.87 80.48 148.9C80.49 148.7 80.49 147.73 80.5 145.98C80.5 145.86 80.5 145.79 80.5 145.77C80.51 144.3 81.71 143.11 83.19 143.12C84.66 143.13 85.85 144.33 85.84 145.8C85.84 145.86 85.84 145.92 85.83 145.98C85.83 145.98 85.83 146 85.83 146C86.06 155.87 82.75 165.9 75.98 173.55C72.61 177.36 68.14 180.36 63.15 181.99C60.67 182.86 58.03 183.21 55.41 183.33C55.36 183.33 54.97 183.35 54.92 183.36C55.06 183.36 54.59 183.35 54.6 183.35C54.59 183.35 54.55 183.35 54.49 183.35L54.27 183.33C53.75 183.3 53.47 183.28 53.41 183.28C52.82 183.24 52.27 183.22 51.66 183.16C51.45 183.12 49.79 182.83 49.58 182.8C48.88 182.68 48.2 182.54 47.59 182.32C42.53 180.85 37.95 178 34.42 174.29C30.86 170.59 28.17 166.19 26.38 161.47C24.57 156.78 23.75 151.64 23.79 146.71C23.79 145.79 23.79 141.17 23.79 132.85L23.8 105.12L23.8 101.65L23.8 99.84C23.83 98.8 23.84 98.22 23.84 98.11C23.86 95.86 24.07 93.31 24.3 90.91C24.79 86.12 25.77 81.38 27.11 76.75C29.8 67.51 34.07 58.7 39.78 50.94C45.46 43.16 52.48 36.36 60.45 30.94C68.43 25.55 77.36 21.54 86.7 19.17C91.37 17.97 96.15 17.24 100.96 16.89C102.16 16.78 103.36 16.71 104.56 16.7C104.68 16.7 105.28 16.68 106.37 16.65L106.82 16.64L107.04 16.64L107.35 16.64C107.87 16.65 108.16 16.66 108.22 16.66C109.38 16.7 110.51 16.71 111.7 16.77C112.07 16.8 115.01 17.02 115.38 17.05C124.97 18.02 134.39 20.61 143.09 24.78C151.78 28.95 159.73 34.63 166.5 41.48C173.28 48.33 178.81 56.39 182.86 65.12C186.93 73.85 189.38 83.33 190.19 92.92C190.42 95.32 190.46 97.73 190.51 100.13C190.51 100.59 190.51 102.9 190.51 107.06L190.5 120.92C190.49 137.56 190.49 146.8 190.49 148.65C190.49 148.69 190.49 148.76 190.48 148.8" id="bRWYTpcmX"></path><path d="M164.22 139.13C148.29 143.61 128.56 146.26 107.2 146.26C85.79 146.26 66.03 143.62 50.08 139.13" id="d4zs08kVrw"></path><path d="M164.68 141.07C164.68 141.07 162.96 141.61 159.92 142.47C158.4 142.9 156.56 143.42 154.44 144.02C152.36 144.69 149.86 145.12 147.15 145.65C144.43 146.16 141.49 146.71 138.38 147.3C135.26 147.7 131.97 148.06 128.57 148.42C126.86 148.6 125.13 148.79 123.38 148.98C121.62 149.1 119.84 149.14 118.04 149.21C114.43 149.33 110.76 149.46 107.1 149.59C103.47 149.48 99.93 149.52 96.29 149.29C94.48 149.2 92.68 149.11 90.92 148.98C89.17 148.82 87.43 148.66 85.73 148.51C82.31 148.23 79.03 147.7 75.92 147.3C72.82 146.77 69.89 146.35 67.21 145.75C64.52 145.19 62.06 144.68 59.91 144.08C57.75 143.5 55.87 143.07 54.34 142.57C51.28 141.63 49.54 141.05 49.54 141.05C48.49 140.71 47.92 139.58 48.27 138.53C48.59 137.56 49.57 137 50.54 137.19C50.55 137.19 50.62 137.2 50.63 137.2C50.63 137.2 52.38 137.54 55.42 138.18C56.93 138.54 58.82 138.81 60.95 139.2C63.07 139.6 65.51 139.9 68.14 140.3C69.45 140.52 70.83 140.68 72.27 140.83C73.69 141.01 75.17 141.18 76.69 141.37C78.21 141.5 79.77 141.65 81.37 141.79C82.97 141.93 84.6 142.1 86.26 142.19C87.93 142.29 89.62 142.4 91.33 142.51C93.04 142.58 94.76 142.65 96.5 142.72C99.94 142.92 103.61 142.85 107.2 142.92C110.74 142.83 114.28 142.73 117.76 142.64C119.51 142.6 121.25 142.55 122.96 142.51C124.67 142.37 126.36 142.23 128.02 142.1C131.35 141.84 134.56 141.6 137.61 141.36C140.6 140.93 143.44 140.56 146.07 140.23C148.7 139.86 151.12 139.66 153.28 139.17C155.44 138.75 157.32 138.38 158.87 138.08C161.97 137.49 163.75 137.18 163.75 137.18C164.84 137 165.88 137.73 166.07 138.82C166.24 139.82 165.63 140.78 164.68 141.07" id="aDn5k2g"></path><path d="M110.14 20.04C110.34 69.64 110.45 97.19 110.47 102.7C110.48 104.55 108.99 106.04 107.15 106.05C105.31 106.06 103.81 104.57 103.81 102.73C103.81 102.73 103.81 102.72 103.81 102.7C104.01 53.11 104.12 25.55 104.14 20.04C104.15 18.38 105.49 17.05 107.15 17.05C108.8 17.06 110.13 18.4 110.14 20.04" id="b2EtvRzZPT"></path><path d="M87.14 75.5C87.14 80.23 83.3 84.07 78.57 84.07C73.83 84.07 69.99 80.23 69.99 75.5C69.99 70.76 73.83 66.93 78.57 66.93C83.3 66.93 87.14 70.76 87.14 75.5" id="b1X3lkZkqN"></path><path d="M144.28 75.5C144.28 80.23 140.45 84.07 135.71 84.07C130.98 84.07 127.14 80.23 127.14 75.5C127.14 70.76 130.98 66.93 135.71 66.93C140.45 66.93 144.28 70.76 144.28 75.5" id="eG5ch8OqU"></path></defs><g><g><g><use xlink:href="#ayNLxkE61" opacity="1" fill="#ffffff" fill-opacity="1"></use><g><use xlink:href="#ayNLxkE61" opacity="1" fill-opacity="0" stroke="#000000" stroke-width="1" stroke-opacity="0"></use></g></g><g><use xlink:href="#bRWYTpcmX" opacity="1" fill="#1d1d1b" fill-opacity="1"></use><g><use xlink:href="#bRWYTpcmX" opacity="1" fill-opacity="0" stroke="#000000" stroke-width="1" stroke-opacity="0"></use></g></g><g><use xlink:href="#d4zs08kVrw" opacity="1" fill="#ffffff" fill-opacity="1"></use><g><use xlink:href="#d4zs08kVrw" opacity="1" fill-opacity="0" stroke="#000000" stroke-width="1" stroke-opacity="0"></use></g></g><g><use xlink:href="#aDn5k2g" opacity="1" fill="#1d1d1b" fill-opacity="1"></use><g><use xlink:href="#aDn5k2g" opacity="1" fill-opacity="0" stroke="#000000" stroke-width="1" stroke-opacity="0"></use></g></g><g><use xlink:href="#b2EtvRzZPT" opacity="1" fill="#1d1d1b" fill-opacity="1"></use><g><use xlink:href="#b2EtvRzZPT" opacity="1" fill-opacity="0" stroke="#000000" stroke-width="1" stroke-opacity="0"></use></g></g><g><use xlink:href="#b1X3lkZkqN" opacity="1" fill="#1d1d1b" fill-opacity="1"></use><g><use xlink:href="#b1X3lkZkqN" opacity="1" fill-opacity="0" stroke="#000000" stroke-width="1" stroke-opacity="0"></use></g></g><g><use xlink:href="#eG5ch8OqU" opacity="1" fill="#1d1d1b" fill-opacity="1"></use><g><use xlink:href="#eG5ch8OqU" opacity="1" fill-opacity="0" stroke="#000000" stroke-width="1" stroke-opacity="0"></use></g></g></g></g></svg>