<?xml version="1.0" encoding="UTF-8" standalone="no"?>
<!DOCTYPE svg PUBLIC "-//W3C//DTD SVG 1.1//EN" "http://www.w3.org/Graphics/SVG/1.1/DTD/svg11.dtd">
<svg version="1.1" xmlns="http://www.w3.org/2000/svg" xmlns:xlink="http://www.w3.org/1999/xlink" preserveAspectRatio="xMidYMid meet" viewBox="0 0 200 200" width="200" height="200"><defs><path d="M26.86 157.28C26.86 134.81 62.51 127.41 106.68 127.41C150.86 127.41 186.85 137.46 186.85 157.8C186.85 171.55 174.5 180.03 159.04 180.03C141.71 180.03 131.04 171 131.04 157.25C131.04 169.91 122.37 178.05 107.04 178.05C90.38 178.05 83.05 169.91 83.05 157.25C83.05 171 71.38 180.03 54.72 180.03C39.25 180.03 26.86 171.03 26.86 157.28" id="b8ZBqpQ7w"></path><path d="M30.19 157.29C30.2 160.16 30.88 162.95 32.21 165.42C33.54 167.9 35.51 170.04 37.88 171.73C40.24 173.44 42.99 174.7 45.91 175.51C47.37 175.92 48.86 176.21 50.38 176.41C51.91 176.6 53.38 176.69 54.99 176.69C58.11 176.71 61.22 176.38 64.18 175.63C67.13 174.88 69.93 173.67 72.36 172.02C74.79 170.36 76.8 168.2 78.17 165.67C79.57 163.15 80.31 160.25 80.38 157.25C80.38 157.24 80.38 157.17 80.38 157.17C80.42 155.69 81.64 154.53 83.11 154.57C84.57 154.6 85.72 155.8 85.71 157.25C85.71 157.25 85.71 157.25 85.71 157.25C85.86 160.01 86.31 162.69 87.34 165.01C88.32 167.34 89.81 169.32 91.79 170.77C93.77 172.22 96.14 173.26 98.74 173.87C100.03 174.18 101.37 174.4 102.74 174.53C104.16 174.66 105.37 174.72 106.95 174.72C108.25 174.72 109.69 174.67 111.03 174.53C112.38 174.39 113.71 174.16 115 173.83C117.57 173.18 119.94 172.09 121.95 170.62C123.97 169.14 125.54 167.17 126.6 164.87C127.71 162.59 128.22 159.96 128.37 157.25C128.73 157.25 130.51 157.25 133.71 157.25C133.71 157.25 133.71 157.25 133.71 157.25C133.79 159.73 134.22 162.16 135.14 164.36C136.05 166.55 137.37 168.54 139.06 170.19C142.46 173.5 147.18 175.43 152.16 176.23C153.41 176.43 154.67 176.56 155.95 176.64C156.59 176.67 157.15 176.7 157.84 176.71C157.91 176.71 158.26 176.71 158.88 176.71C159.43 176.7 159.74 176.69 159.8 176.69C162.34 176.62 164.86 176.32 167.28 175.72C172.13 174.55 176.59 172.14 179.6 168.61C181.1 166.86 182.2 164.82 182.83 162.62C183.16 161.55 183.37 160.31 183.44 159.28C183.54 157.96 183.53 156.93 183.37 155.83C182.79 151.47 179.69 147.6 175.63 144.66C171.56 141.69 166.69 139.52 161.67 137.78C156.64 136.04 151.39 134.75 146.07 133.75C135.41 131.75 124.5 130.83 113.57 130.52C108.13 130.36 102.61 130.39 97.14 130.55C91.67 130.72 86.2 131.01 80.77 131.49C75.33 131.98 69.93 132.65 64.61 133.62C59.29 134.59 54.05 135.87 49.08 137.67C44.14 139.46 39.4 141.81 35.8 145.1C34.01 146.73 32.56 148.6 31.6 150.65C31.12 151.68 30.76 152.75 30.53 153.86C30.42 154.41 30.33 154.98 30.27 155.55C30.27 155.6 30.25 155.86 30.21 156.33C30.2 156.84 30.2 157.16 30.19 157.29ZM23.53 157.19L23.56 156.16C23.62 155.39 23.65 154.96 23.66 154.87C23.75 154.06 23.88 153.26 24.05 152.46C24.4 150.87 24.94 149.31 25.64 147.84C27.05 144.88 29.11 142.34 31.42 140.27C36.07 136.13 41.51 133.6 46.93 131.67C52.39 129.75 57.95 128.47 63.51 127.48C69.07 126.5 74.66 125.84 80.24 125.38C85.82 124.91 91.41 124.64 96.98 124.51C102.57 124.4 108.11 124.36 113.72 124.47C124.9 124.72 136.1 125.6 147.21 127.61C152.75 128.63 158.29 129.92 163.72 131.74C169.15 133.58 174.54 135.86 179.46 139.38C181.91 141.14 184.24 143.23 186.14 145.82C188.05 148.39 189.48 151.52 189.96 154.83C190.23 156.46 190.23 158.22 190.13 159.65C190.01 161.37 189.75 162.88 189.3 164.46C188.42 167.58 186.85 170.53 184.78 172.99C180.59 177.95 174.72 180.84 168.87 182.24C165.92 182.95 162.91 183.3 159.93 183.34C159.54 183.34 159.22 183.35 158.77 183.34C158.67 183.33 157.84 183.31 157.74 183.31C157.05 183.29 156.22 183.23 155.49 183.18C154.01 183.05 152.53 182.87 151.05 182.6C148.1 182.05 145.16 181.17 142.37 179.86C139.59 178.51 136.96 176.71 134.77 174.42C132.58 172.13 130.84 169.36 129.79 166.39C128.72 163.42 128.33 160.29 128.37 157.25C128.37 157.25 128.37 157.25 128.37 157.25C128.28 155.78 129.4 154.52 130.87 154.42C132.33 154.33 133.6 155.45 133.69 156.92C133.69 156.92 133.69 156.93 133.69 156.95C133.7 157.13 133.71 157.23 133.71 157.25C133.86 160.54 133.39 163.98 132.1 167.23C130.8 170.46 128.62 173.43 125.87 175.63C123.13 177.87 119.9 179.28 116.67 180.16C115.04 180.6 113.4 180.91 111.77 181.09C110.12 181.29 108.55 181.38 106.84 181.38C105.42 181.37 103.62 181.27 102.05 181.1C100.42 180.92 98.79 180.63 97.17 180.23C93.93 179.4 90.64 178.05 87.87 175.77C85.08 173.54 82.95 170.45 81.77 167.18C80.6 163.89 80.23 160.5 80.38 157.25C80.38 157.25 80.38 157.25 80.38 157.25C83.58 157.25 85.36 157.25 85.71 157.25C85.81 160.98 85.06 164.86 83.34 168.33C81.63 171.8 79.01 174.79 75.95 177.04C72.88 179.31 69.4 180.85 65.85 181.84C62.29 182.83 58.65 183.29 55.03 183.35C53.28 183.37 51.37 183.27 49.55 183.05C47.73 182.83 45.91 182.48 44.12 182C40.54 181.02 37.04 179.48 33.92 177.25C30.81 175.02 28.1 172.07 26.27 168.58C24.41 165.11 23.5 161.14 23.53 157.28C23.53 157.27 23.53 157.24 23.53 157.24C23.53 157.23 23.53 157.21 23.53 157.19" id="b8s84Sy5I"></path><path d="M187.03 122.08C187.03 135.83 174.5 146.97 159.04 146.97C141.71 146.97 131.04 133.71 131.04 119.96C131.04 132.62 122.37 145 107.04 145C90.38 145 83.05 132.62 83.05 119.96C83.05 133.71 71.38 146.97 54.72 146.97C39.25 146.97 27.03 134.79 27.03 121.04C27.03 117.29 27.05 87.27 27.05 83.51C27.05 48.46 62.87 20.05 107.04 20.05C151.22 20.05 187.03 48.46 187.03 83.51C187.03 91.23 187.03 114.37 187.03 122.08Z" id="b4nIXY20C"></path><path d="M183.7 122.03L183.69 97.85C183.68 90.58 183.68 86.54 183.68 85.74C183.69 83.66 183.66 81.82 183.53 79.93C183.43 79 183.37 78.05 183.24 77.12C183.19 76.84 182.83 74.61 182.78 74.33C181.34 66.91 178.06 59.88 173.55 53.73C169.03 47.57 163.34 42.23 156.91 37.95C150.49 33.63 143.41 30.27 136 27.91C132.3 26.7 128.51 25.78 124.68 25.08C120.86 24.35 116.93 23.88 113.1 23.66C111.24 23.51 109.17 23.51 107.16 23.46C105.33 23.51 103.29 23.49 101.37 23.65C97.47 23.85 93.59 24.33 89.76 25.03C85.93 25.71 82.14 26.64 78.43 27.83C74.73 29.01 71.08 30.38 67.59 32.06C60.6 35.4 54.02 39.65 48.41 44.92C42.8 50.16 38.1 56.35 34.92 63.24C33.33 66.69 32.16 70.3 31.4 74C31.04 75.85 30.76 77.73 30.62 79.52C30.5 80.37 30.5 81.46 30.46 82.45C30.46 82.5 30.45 82.75 30.44 83.2C30.43 83.43 30.43 83.56 30.43 83.58C30.42 83.64 30.43 83.45 30.43 83.57C30.43 83.58 30.43 83.61 30.43 83.67L30.43 83.86L30.42 85.37L30.4 109.6C30.4 116.81 30.4 120.81 30.4 121.61C30.48 125.07 31.52 128.5 33.28 131.54C36.81 137.65 43.26 142.06 50.29 143.25C57.33 144.46 64.95 142.84 70.58 138.38C76.31 134.09 80.09 127.16 80.38 119.96C80.73 119.96 82.51 119.96 85.71 119.96C85.71 119.96 85.71 119.96 85.71 119.96C85.86 122.94 86.37 125.88 87.4 128.58C88.38 131.28 89.83 133.76 91.73 135.75C93.64 137.74 95.93 139.3 98.53 140.26C99.83 140.75 101.19 141.1 102.6 141.33C103.28 141.45 104.03 141.53 104.7 141.58C105.05 141.6 105.35 141.63 105.74 141.64C105.87 141.64 106.84 141.66 106.96 141.66C108.27 141.67 109.78 141.57 111.13 141.33C112.52 141.09 113.86 140.72 115.15 140.21C117.73 139.19 120.03 137.57 121.99 135.58C123.93 133.57 125.47 131.12 126.53 128.45C127.64 125.79 128.22 122.89 128.37 119.96C128.37 119.96 128.37 119.96 128.37 119.96C128.37 118.49 129.56 117.29 131.04 117.29C132.49 117.29 133.67 118.45 133.71 119.89C133.71 119.89 133.71 119.95 133.71 119.96C133.79 123.15 134.51 126.3 135.8 129.19C137.07 132.09 138.89 134.72 141.15 136.88C143.42 139.04 146.09 140.75 149 141.89C150.45 142.45 151.97 142.88 153.51 143.18C154.29 143.31 155.07 143.43 155.86 143.5C156.68 143.57 157.27 143.63 158.23 143.63C161.42 143.7 164.58 143.27 167.58 142.29C170.56 141.31 173.37 139.81 175.77 137.85C178.18 135.9 180.19 133.49 181.57 130.78C182.26 129.43 182.79 128.01 183.15 126.55C183.33 125.82 183.46 125.08 183.56 124.33C183.56 124.26 183.6 123.92 183.66 123.3L183.7 122.03ZM190.37 122.17C190.34 122.98 190.33 123.42 190.33 123.51C190.29 124.05 190.25 124.6 190.19 125.12C190.06 126.13 189.89 127.13 189.65 128.12C189.18 130.1 188.47 132.02 187.56 133.82C185.73 137.44 183.12 140.59 180.03 143.1C176.94 145.6 173.38 147.47 169.64 148.67C165.9 149.88 161.94 150.41 158.06 150.27C157.25 150.26 156.08 150.16 155.14 150.05C154.17 149.94 153.2 149.77 152.24 149.58C150.31 149.18 148.42 148.6 146.59 147.84C142.94 146.33 139.57 144.09 136.82 141.25C134.05 138.43 131.87 135.06 130.43 131.42C129 127.77 128.3 123.86 128.37 119.96C128.91 119.96 133.17 119.96 133.71 119.96C133.86 123.52 133.3 127.11 132.15 130.53C130.96 133.93 129.11 137.16 126.65 139.91C124.2 142.67 121.05 144.85 117.62 146.27C115.9 146.98 114.12 147.5 112.31 147.83C110.47 148.17 108.73 148.33 106.8 148.33C106.68 148.32 105.71 148.29 105.59 148.29C105.17 148.27 104.66 148.23 104.2 148.19C103.26 148.11 102.39 148.01 101.49 147.84C99.69 147.53 97.91 147.05 96.18 146.37C92.72 145.03 89.48 142.86 87.04 140.03C84.57 137.23 82.81 133.91 81.73 130.48C80.68 127.03 80.23 123.47 80.38 119.96C80.38 119.96 80.38 119.96 80.38 119.96C80.31 118.49 81.44 117.24 82.91 117.17C84.38 117.1 85.63 118.23 85.7 119.7C85.7 119.7 85.7 119.72 85.71 119.74C85.71 119.87 85.71 119.95 85.71 119.96C85.84 124.45 84.83 128.95 82.87 132.98C80.9 137.01 78.04 140.59 74.54 143.42C71.03 146.24 66.88 148.27 62.51 149.34C60.33 149.88 58.1 150.19 55.86 150.28C55.8 150.28 55.53 150.29 55.02 150.3L54.53 150.3C54.31 150.3 54.18 150.3 54.15 150.29C53.65 150.28 53.17 150.28 52.55 150.23C51.34 150.15 50.27 150.02 49.14 149.82C40.24 148.31 32.08 142.8 27.49 134.91C25.2 130.97 23.81 126.44 23.69 121.81C23.69 120.99 23.68 116.92 23.67 109.59L23.68 85.37L23.68 83.85L23.68 83.37L23.69 82.99C23.71 82.53 23.71 82.28 23.72 82.23C23.76 81.21 23.74 80.27 23.87 79.12C24.04 76.87 24.37 74.76 24.78 72.65C25.63 68.43 26.97 64.32 28.77 60.42C32.35 52.62 37.6 45.72 43.78 39.95C49.95 34.14 57.1 29.52 64.67 25.9C68.45 24.07 72.39 22.59 76.37 21.31C80.36 20.03 84.43 19.02 88.54 18.3C92.65 17.55 96.81 17.04 100.98 16.83C103.09 16.67 105.09 16.69 107.29 16.64C109.32 16.69 111.29 16.69 113.46 16.86C117.69 17.1 121.79 17.6 125.91 18.39C130.02 19.15 134.09 20.14 138.07 21.45C146.05 24 153.7 27.62 160.69 32.34C167.69 37.01 173.96 42.88 179 49.75C184.02 56.61 187.73 64.57 189.37 73.04C189.56 74.09 189.72 75.16 189.89 76.22C190.04 77.29 190.11 78.36 190.22 79.43C190.37 81.57 190.4 83.77 190.39 85.74C190.38 86.54 190.38 90.58 190.38 97.85C190.37 112.39 190.37 120.46 190.37 122.08C190.37 122.1 190.37 122.15 190.37 122.17" id="bZDGwIqcu"></path><path d="M164.1 114.53C148.17 118.08 128.44 120.18 107.07 120.18C85.67 120.18 65.91 118.09 49.96 114.53" id="b9mJzAOMuZ"></path><path d="M164.47 116.49C164.47 116.49 162.73 116.94 159.67 117.66C158.14 118.02 156.28 118.45 154.14 118.94C152.04 119.5 149.54 119.85 146.84 120.29C144.13 120.71 141.19 121.16 138.09 121.64C134.98 121.96 131.71 122.27 128.32 122.56C126.63 122.71 124.9 122.86 123.16 123.01C121.41 123.11 119.64 123.15 117.85 123.2C114.26 123.3 110.6 123.41 106.95 123.51C103.36 123.41 99.77 123.3 96.24 123.2C94.47 123.15 92.72 123.11 90.98 123.01C89.23 122.86 87.49 122.71 85.79 122.56C82.38 122.27 79.09 121.96 75.97 121.64C72.89 121.16 69.97 120.71 67.28 120.3C64.59 119.87 62.12 119.52 59.97 118.95C57.81 118.45 55.93 118.02 54.37 117.66C51.28 116.93 49.53 116.48 49.53 116.48C48.46 116.2 47.81 115.11 48.09 114.04C48.34 113.06 49.28 112.44 50.26 112.56C50.28 112.56 50.38 112.57 50.4 112.57C50.4 112.57 52.17 112.79 55.25 113.23C56.79 113.45 58.66 113.72 60.8 114.03C62.92 114.41 65.38 114.54 68.03 114.82C70.67 115.09 73.54 115.38 76.58 115.69C79.61 115.86 82.81 116.04 86.12 116.23C87.77 116.33 89.45 116.43 91.15 116.54C92.88 116.57 94.63 116.6 96.4 116.63C99.93 116.7 103.52 116.77 107.11 116.85C110.64 116.77 114.16 116.7 117.63 116.63C119.38 116.6 121.12 116.57 122.83 116.54C124.54 116.44 126.23 116.33 127.89 116.23C131.22 116.04 134.43 115.86 137.48 115.69C140.5 115.38 143.35 115.09 145.98 114.83C148.62 114.54 151.04 114.42 153.21 114.04C155.38 113.72 157.27 113.45 158.83 113.22C161.94 112.78 163.72 112.56 163.72 112.56C164.82 112.42 165.82 113.2 165.96 114.3C166.09 115.31 165.43 116.24 164.47 116.49" id="cfjHn8cc"></path><path d="M110.02 20.05C110.22 63.2 110.33 87.18 110.35 91.97C110.36 93.81 108.87 95.31 107.03 95.32C105.19 95.33 103.69 93.85 103.68 92C103.68 92 103.68 91.99 103.68 91.97C103.88 48.82 104 24.84 104.02 20.05C104.03 18.39 105.38 17.05 107.03 17.06C108.68 17.07 110.01 18.4 110.02 20.05" id="bBqmXP95w"></path><path d="M87.02 65.81C87.02 70.55 83.18 74.39 78.45 74.39C73.71 74.39 69.87 70.55 69.87 65.81C69.87 61.08 73.71 57.24 78.45 57.24C83.18 57.24 87.02 61.08 87.02 65.81" id="asiET6AMA"></path><path d="M144.16 65.81C144.16 70.55 140.32 74.39 135.59 74.39C130.86 74.39 127.02 70.55 127.02 65.81C127.02 61.08 130.86 57.24 135.59 57.24C140.32 57.24 144.16 61.08 144.16 65.81" id="a1qZpTeY8"></path></defs><g><g><g><use xlink:href="#b8ZBqpQ7w" opacity="1" fill="#ffffff" fill-opacity="1"></use><g><use xlink:href="#b8ZBqpQ7w" opacity="1" fill-opacity="0" stroke="#000000" stroke-width="1" stroke-opacity="0"></use></g></g><g><use xlink:href="#b8s84Sy5I" opacity="1" fill="#1d1d1b" fill-opacity="1"></use><g><use xlink:href="#b8s84Sy5I" opacity="1" fill-opacity="0" stroke="#000000" stroke-width="1" stroke-opacity="0"></use></g></g><g><use xlink:href="#b4nIXY20C" opacity="1" fill="#ffffff" fill-opacity="1"></use><g><use xlink:href="#b4nIXY20C" opacity="1" fill-opacity="0" stroke="#000000" stroke-width="1" stroke-opacity="0"></use></g></g><g><use xlink:href="#bZDGwIqcu" opacity="1" fill="#1d1d1b" fill-opacity="1"></use><g><use xlink:href="#bZDGwIqcu" opacity="1" fill-opacity="0" stroke="#000000" stroke-width="1" stroke-opacity="0"></use></g></g><g><use xlink:href="#b9mJzAOMuZ" opacity="1" fill="#ffffff" fill-opacity="1"></use><g><use xlink:href="#b9mJzAOMuZ" opacity="1" fill-opacity="0" stroke="#000000" stroke-width="1" stroke-opacity="0"></use></g></g><g><use xlink:href="#cfjHn8cc" opacity="1" fill="#1d1d1b" fill-opacity="1"></use><g><use xlink:href="#cfjHn8cc" opacity="1" fill-opacity="0" stroke="#000000" stroke-width="1" stroke-opacity="0"></use></g></g><g><use xlink:href="#bBqmXP95w" opacity="1" fill="#1d1d1b" fill-opacity="1"></use><g><use xlink:href="#bBqmXP95w" opacity="1" fill-opacity="0" stroke="#000000" stroke-width="1" stroke-opacity="0"></use></g></g><g><use xlink:href="#asiET6AMA" opacity="1" fill="#1d1d1b" fill-opacity="1"></use><g><use xlink:href="#asiET6AMA" opacity="1" fill-opacity="0" stroke="#000000" stroke-width="1" stroke-opacity="0"></use></g></g><g><use xlink:href="#a1qZpTeY8" opacity="1" fill="#1d1d1b" fill-opacity="1"></use><g><use xlink:href="#a1qZpTeY8" opacity="1" fill-opacity="0" stroke="#000000" stroke-width="1" stroke-opacity="0"></use></g></g></g></g></svg>