<?xml version="1.0" encoding="UTF-8" standalone="no"?>
<!DOCTYPE svg PUBLIC "-//W3C//DTD SVG 1.1//EN" "http://www.w3.org/Graphics/SVG/1.1/DTD/svg11.dtd">
<svg version="1.1" xmlns="http://www.w3.org/2000/svg" xmlns:xlink="http://www.w3.org/1999/xlink" preserveAspectRatio="xMidYMid meet" viewBox="0 0 200 200" width="200" height="200"><defs><path d="M188.34 148.65C188.34 165.98 175.81 180.03 160.35 180.03C143.01 180.03 132.35 163.31 132.35 145.98C132.35 161.94 123.68 177.54 108.35 177.54C91.69 177.54 84.35 161.94 84.35 145.98C84.35 163.31 72.69 180.03 56.02 180.03C40.56 180.03 28.34 164.67 28.34 147.34C28.34 142.61 28.36 104.77 28.36 100.04C28.36 55.86 64.17 20.05 108.35 20.05C152.53 20.05 188.34 55.86 188.34 100.04C188.34 109.76 188.34 138.93 188.34 148.65Z" id="a1VlRVarOS"></path><path d="M185.01 148.57L185 120.92L184.99 107.06C184.99 102.9 184.99 100.59 184.99 100.13C184.94 97.9 184.9 95.69 184.69 93.49C183.93 84.67 181.68 75.97 177.93 67.95C174.2 59.93 169.11 52.52 162.87 46.23C156.64 39.95 149.33 34.73 141.35 30.9C133.36 27.09 124.7 24.72 115.91 23.83C115.59 23.81 113 23.61 112.68 23.58C111.56 23.52 110.38 23.52 109.23 23.48C109.18 23.48 108.89 23.47 108.37 23.46L107.62 23.48C106.62 23.5 106.07 23.52 105.96 23.52C104.85 23.53 103.75 23.6 102.65 23.7C98.24 24.03 93.85 24.7 89.56 25.8C80.99 27.98 72.8 31.64 65.46 36.59C58.14 41.56 51.69 47.8 46.46 54.94C41.2 62.07 37.28 70.15 34.8 78.64C33.57 82.89 32.66 87.24 32.21 91.64C32 93.84 31.81 95.9 31.78 98.28C31.78 98.39 31.76 98.97 31.74 100.01L31.74 101.66L31.73 105.12L31.7 132.85C31.7 141.17 31.69 145.79 31.69 146.72C31.66 151.02 32.32 155.17 33.84 159.11C35.32 163.03 37.55 166.66 40.4 169.63C43.23 172.63 46.8 174.78 50.6 175.9C51.08 176.08 51.53 176.16 51.97 176.24C52.1 176.26 53.17 176.48 53.3 176.51C53.83 176.56 54.44 176.59 55.01 176.63C55.06 176.63 55.35 176.65 55.87 176.68L56.09 176.69C56.15 176.7 56.19 176.7 56.2 176.7C56.28 176.71 55.87 176.69 56.09 176.69C56.13 176.69 56.42 176.67 56.46 176.67C58.45 176.59 60.45 176.37 62.34 175.72C66.14 174.53 69.67 172.28 72.46 169.2C75.31 166.19 77.55 162.5 79.09 158.53C80.65 154.57 81.52 150.3 81.69 146C81.69 146 81.69 145.99 81.69 145.98L87.02 145.98C87.13 147.55 87.19 148.42 87.2 148.6C87.28 149.47 87.4 150.33 87.49 151.19C87.75 152.91 88.07 154.6 88.52 156.26C89.38 159.57 90.66 162.73 92.44 165.46C93.33 166.83 94.36 168.06 95.46 169.18C96.01 169.75 96.65 170.2 97.23 170.72C97.86 171.17 98.53 171.56 99.17 171.99C99.38 172.09 101.05 172.87 101.26 172.97C102 173.19 102.74 173.46 103.47 173.66C104.19 173.77 104.87 173.92 105.61 174.05C105.79 174.06 106.71 174.11 108.37 174.2C109.67 174.13 110.39 174.09 110.53 174.08C111.3 173.98 112.05 173.79 112.81 173.67C113.55 173.45 114.27 173.18 115 172.95C115.69 172.6 116.4 172.29 117.08 171.92C117.71 171.47 118.4 171.11 119.01 170.61C119.59 170.07 120.26 169.64 120.79 169.04C121.92 167.91 122.96 166.67 123.88 165.3C124.81 163.94 125.61 162.48 126.3 160.94C127 159.41 127.56 157.81 128.04 156.17C128.53 154.53 128.88 152.85 129.17 151.15C129.27 150.29 129.41 149.44 129.49 148.58C129.51 148.41 129.57 147.54 129.68 145.99C129.68 145.98 129.68 145.98 129.68 145.98C129.7 144.51 130.92 143.33 132.39 143.36C133.79 143.38 134.92 144.48 135.01 145.85C135.01 145.86 135.01 145.9 135.02 145.98C135.12 147.66 135.17 148.59 135.18 148.78C135.27 149.71 135.43 150.63 135.54 151.55C135.87 153.38 136.27 155.2 136.84 156.96C137.4 158.72 138.05 160.45 138.87 162.09C139.23 162.94 139.71 163.71 140.17 164.5C140.6 165.31 141.13 166.03 141.66 166.77C142.15 167.53 142.75 168.2 143.34 168.87C143.9 169.58 144.56 170.17 145.2 170.78C145.82 171.43 146.54 171.93 147.24 172.46C147.91 173.04 148.69 173.43 149.43 173.89C150.16 174.38 150.98 174.67 151.76 175.03C152.53 175.44 153.39 175.6 154.2 175.88C155.04 176.19 155.81 176.22 156.6 176.4C157.29 176.59 158.4 176.58 159.38 176.64C159.43 176.65 159.67 176.66 160.12 176.68L160.5 176.7C160.52 176.7 160.54 176.7 160.54 176.7C160.59 176.7 160.17 176.69 160.36 176.7C160.36 176.7 160.37 176.69 160.38 176.69L160.46 176.69L160.62 176.68C161.4 176.63 161.83 176.6 161.92 176.6C162.79 176.6 163.63 176.4 164.48 176.26C166.19 175.95 167.83 175.38 169.42 174.69C170.22 174.36 170.96 173.87 171.74 173.48C172.48 173.03 173.18 172.5 173.91 172.02C174.12 171.85 175.73 170.49 175.93 170.32C176.53 169.68 177.18 169.07 177.76 168.41C178.3 167.71 178.91 167.05 179.42 166.33C179.89 165.57 180.44 164.87 180.87 164.09C181.28 163.29 181.76 162.54 182.12 161.72C182.45 160.89 182.87 160.09 183.14 159.24C183.4 158.38 183.74 157.54 183.95 156.67C184.13 155.8 184.39 154.91 184.52 154.05C184.63 153.19 184.78 152.4 184.87 151.48C184.89 151.1 184.94 150.13 185.01 148.57ZM191.67 148.8C191.59 150.59 191.55 151.59 191.54 151.79C191.45 152.86 191.27 154.03 191.13 155.15C190.95 156.26 190.66 157.3 190.43 158.37C190.18 159.44 189.79 160.47 189.46 161.51C189.12 162.55 188.63 163.54 188.21 164.56C187.78 165.57 187.2 166.51 186.69 167.48C186.16 168.45 185.5 169.34 184.9 170.26C184.27 171.17 183.54 172 182.85 172.87C182.11 173.69 181.3 174.46 180.53 175.26C179.69 175.99 178.83 176.7 177.97 177.4C177.04 178.02 176.13 178.68 175.17 179.26C174.18 179.77 173.22 180.37 172.18 180.8C170.12 181.7 167.97 182.42 165.75 182.82C164.64 183.01 163.53 183.24 162.39 183.25C162.28 183.26 161.72 183.29 160.71 183.35L160.5 183.35L160.39 183.36L160.36 183.36L160.13 183.36L160.09 183.35L159.71 183.33C159.27 183.29 159.02 183.28 158.97 183.27C157.95 183.18 157.06 183.19 155.81 182.92C154.65 182.68 153.41 182.52 152.38 182.12C151.31 181.75 150.21 181.47 149.21 180.94C148.19 180.45 147.14 180.02 146.21 179.38C145.26 178.78 144.29 178.22 143.44 177.48C142.57 176.79 141.68 176.11 140.92 175.3C140.13 174.53 139.34 173.76 138.67 172.89C137.96 172.04 137.26 171.2 136.68 170.28C136.07 169.38 135.45 168.48 134.95 167.51C134.43 166.57 133.89 165.63 133.48 164.63C132.57 162.68 131.85 160.65 131.27 158.6C130.69 156.54 130.31 154.44 130.03 152.33C129.93 151.27 129.81 150.22 129.74 149.16C129.74 148.95 129.72 147.89 129.68 145.98L135.02 145.98L135.02 145.99C135.02 147.75 135.02 148.73 135.02 148.93C134.97 149.91 134.88 150.88 134.81 151.87C134.59 153.82 134.29 155.77 133.82 157.7C133.35 159.62 132.74 161.53 131.97 163.38C131.22 165.23 130.3 167.05 129.21 168.77C128.13 170.51 126.84 172.15 125.37 173.63C124.68 174.41 123.8 175.04 123.02 175.74C122.21 176.41 121.28 176.96 120.4 177.56C119.48 178.09 118.49 178.54 117.54 179.02C116.52 179.38 115.51 179.75 114.48 180.06C113.43 180.27 112.38 180.52 111.33 180.67C111.22 180.68 110.69 180.71 109.74 180.78L108.94 180.83L108.54 180.86L108.44 180.87L108.39 180.87L108.37 180.87L108.14 180.87L107.97 180.85C106.31 180.75 105.39 180.69 105.21 180.67C104.13 180.51 103 180.29 101.9 180.07C100.86 179.78 99.86 179.42 98.84 179.08C97.86 178.65 96.9 178.16 95.94 177.69C95.05 177.1 94.13 176.53 93.28 175.9C92.48 175.19 91.62 174.54 90.89 173.78C89.41 172.27 88.12 170.61 87.06 168.85C84.93 165.32 83.55 161.5 82.7 157.64C82.28 155.71 82.02 153.76 81.84 151.82C81.78 150.84 81.7 149.87 81.67 148.9C81.67 148.7 81.68 147.73 81.69 145.98C81.69 145.86 81.69 145.79 81.69 145.77C81.7 144.3 82.9 143.11 84.37 143.12C85.85 143.13 87.04 144.33 87.03 145.8C87.03 145.86 87.02 145.92 87.02 145.98C87.02 145.98 87.02 146 87.02 146C87.25 155.87 83.93 165.9 77.17 173.55C73.79 177.36 69.33 180.36 64.34 181.99C61.85 182.86 59.21 183.21 56.6 183.33C56.55 183.33 56.16 183.35 56.11 183.36C56.25 183.36 55.78 183.35 55.78 183.35C55.78 183.35 55.74 183.35 55.68 183.35L55.46 183.33C54.94 183.3 54.65 183.28 54.6 183.28C54.01 183.24 53.46 183.22 52.85 183.16C52.64 183.12 50.98 182.83 50.77 182.8C50.07 182.68 49.38 182.54 48.78 182.32C43.71 180.85 39.13 178 35.61 174.29C32.05 170.59 29.36 166.19 27.57 161.47C25.75 156.78 24.94 151.64 24.98 146.71C24.98 145.79 24.98 141.17 24.98 132.85L24.99 105.12L24.99 101.65L24.99 99.84C25.01 98.8 25.03 98.22 25.03 98.11C25.05 95.86 25.26 93.31 25.49 90.91C25.98 86.12 26.96 81.38 28.3 76.75C30.99 67.51 35.25 58.7 40.97 50.94C46.65 43.16 53.67 36.36 61.64 30.94C69.62 25.55 78.54 21.54 87.89 19.17C92.56 17.97 97.34 17.24 102.14 16.89C103.34 16.78 104.55 16.71 105.75 16.7C105.87 16.7 106.47 16.68 107.55 16.65L108.01 16.64L108.23 16.64L108.54 16.64C109.06 16.65 109.35 16.66 109.41 16.66C110.57 16.7 111.7 16.71 112.89 16.77C113.26 16.8 116.2 17.02 116.57 17.05C126.16 18.02 135.58 20.61 144.28 24.78C152.97 28.95 160.91 34.63 167.69 41.48C174.47 48.33 180 56.39 184.05 65.12C188.12 73.85 190.57 83.33 191.38 92.92C191.61 95.32 191.65 97.73 191.7 100.13C191.7 100.59 191.7 102.9 191.69 107.06L191.69 120.92C191.68 137.56 191.68 146.8 191.68 148.65C191.68 148.69 191.67 148.76 191.67 148.8" id="a6eTIgkS7t"></path><path d="M165.41 139.13C149.48 143.61 129.75 146.26 108.38 146.26C86.98 146.26 67.22 143.62 51.27 139.13" id="a1nOE1ixUq"></path><path d="M165.87 141.07C165.87 141.07 164.15 141.61 161.11 142.47C159.59 142.9 157.75 143.42 155.63 144.02C153.55 144.69 151.05 145.12 148.34 145.65C145.62 146.16 142.68 146.71 139.57 147.3C136.45 147.7 133.16 148.06 129.75 148.42C128.05 148.6 126.32 148.79 124.56 148.98C122.81 149.1 121.02 149.14 119.23 149.21C115.62 149.33 111.95 149.46 108.28 149.59C104.66 149.48 101.12 149.52 97.47 149.29C95.67 149.2 93.87 149.11 92.11 148.98C90.35 148.82 88.62 148.66 86.91 148.51C83.5 148.23 80.22 147.7 77.11 147.3C74.01 146.77 71.07 146.35 68.39 145.75C65.71 145.19 63.25 144.68 61.1 144.08C58.94 143.5 57.05 143.07 55.53 142.57C52.46 141.63 50.73 141.05 50.73 141.05C49.68 140.71 49.11 139.58 49.46 138.53C49.77 137.56 50.76 137 51.73 137.19C51.74 137.19 51.81 137.2 51.81 137.2C51.81 137.2 53.57 137.54 56.61 138.18C58.12 138.54 60 138.81 62.13 139.2C64.26 139.6 66.69 139.9 69.33 140.3C70.64 140.52 72.02 140.68 73.45 140.83C74.88 141.01 76.36 141.18 77.87 141.37C79.39 141.5 80.96 141.65 82.56 141.79C84.16 141.93 85.78 142.1 87.45 142.19C89.11 142.29 90.81 142.4 92.52 142.51C94.22 142.58 95.95 142.65 97.69 142.72C101.13 142.92 104.8 142.85 108.39 142.92C111.93 142.83 115.47 142.73 118.95 142.64C120.7 142.6 122.44 142.55 124.15 142.51C125.86 142.37 127.55 142.23 129.21 142.1C132.54 141.84 135.75 141.6 138.8 141.36C141.79 140.93 144.63 140.56 147.26 140.23C149.89 139.86 152.31 139.66 154.47 139.17C156.63 138.75 158.51 138.38 160.06 138.08C163.16 137.49 164.94 137.18 164.94 137.18C166.03 137 167.07 137.73 167.26 138.82C167.43 139.82 166.82 140.78 165.87 141.07" id="e2TnsqkFp4"></path><path d="M134.34 89.38C134.34 103.74 122.7 115.37 108.34 115.37C93.98 115.37 82.34 103.74 82.34 89.38C82.34 75.02 93.98 63.38 108.34 63.38C122.7 63.38 134.34 75.02 134.34 89.38" id="aP5uYLB8j"></path><path d="M108.34 115.37C93.98 115.37 82.34 103.74 82.34 89.38C82.34 75.02 93.98 63.38 108.34 63.38C122.7 63.38 134.34 75.02 134.34 89.38C134.34 103.74 122.7 115.37 108.34 115.37Z" id="bHWpEmsjm"></path><path d="M118.34 88.23C118.34 93.76 113.86 98.23 108.34 98.23C102.82 98.23 98.34 93.76 98.34 88.23C98.34 82.71 102.82 78.24 108.34 78.24C113.86 78.24 118.34 82.71 118.34 88.23" id="a35BVaIvfH"></path></defs><g><g><g><use xlink:href="#a1VlRVarOS" opacity="1" fill="#ffffff" fill-opacity="1"></use><g><use xlink:href="#a1VlRVarOS" opacity="1" fill-opacity="0" stroke="#000000" stroke-width="1" stroke-opacity="0"></use></g></g><g><use xlink:href="#a6eTIgkS7t" opacity="1" fill="#1d1d1b" fill-opacity="1"></use><g><use xlink:href="#a6eTIgkS7t" opacity="1" fill-opacity="0" stroke="#000000" stroke-width="1" stroke-opacity="0"></use></g></g><g><use xlink:href="#a1nOE1ixUq" opacity="1" fill="#ffffff" fill-opacity="1"></use><g><use xlink:href="#a1nOE1ixUq" opacity="1" fill-opacity="0" stroke="#000000" stroke-width="1" stroke-opacity="0"></use></g></g><g><use xlink:href="#e2TnsqkFp4" opacity="1" fill="#1d1d1b" fill-opacity="1"></use><g><use xlink:href="#e2TnsqkFp4" opacity="1" fill-opacity="0" stroke="#000000" stroke-width="1" stroke-opacity="0"></use></g></g><g><use xlink:href="#aP5uYLB8j" opacity="1" fill="#ffffff" fill-opacity="1"></use><g><use xlink:href="#aP5uYLB8j" opacity="1" fill-opacity="0" stroke="#000000" stroke-width="1" stroke-opacity="0"></use></g></g><g><use xlink:href="#bHWpEmsjm" opacity="1" fill="#000000" fill-opacity="0"></use><g><use xlink:href="#bHWpEmsjm" opacity="1" fill-opacity="0" stroke="#1d1d1b" stroke-width="5" stroke-opacity="1"></use></g></g><g><use xlink:href="#a35BVaIvfH" opacity="1" fill="#1d1d1b" fill-opacity="1"></use><g><use xlink:href="#a35BVaIvfH" opacity="1" fill-opacity="0" stroke="#000000" stroke-width="1" stroke-opacity="0"></use></g></g></g></g></svg>