<?xml version="1.0" encoding="UTF-8" standalone="no"?>
<!DOCTYPE svg PUBLIC "-//W3C//DTD SVG 1.1//EN" "http://www.w3.org/Graphics/SVG/1.1/DTD/svg11.dtd">
<svg version="1.1" xmlns="http://www.w3.org/2000/svg" xmlns:xlink="http://www.w3.org/1999/xlink" preserveAspectRatio="xMidYMid meet" viewBox="0 0 200 200" width="200" height="200"><defs><path d="M19.9 161.19C19.9 138.72 55.55 131.32 99.73 131.32C143.9 131.32 179.9 141.36 179.9 161.71C179.9 175.45 167.54 183.94 152.08 183.94C134.75 183.94 124.08 174.91 124.08 161.16C124.08 173.82 115.42 181.96 100.09 181.96C83.42 181.96 76.09 173.82 76.09 161.16C76.09 174.91 64.42 183.94 47.76 183.94C32.3 183.94 19.9 174.94 19.9 161.19" id="d87oedomXU"></path><path d="M23.24 161.19C23.24 164.07 23.92 166.86 25.25 169.33C26.58 171.8 28.55 173.95 30.92 175.64C33.28 177.34 36.04 178.6 38.95 179.42C40.41 179.82 41.91 180.12 43.43 180.32C44.96 180.51 46.42 180.6 48.03 180.6C51.16 180.62 54.26 180.28 57.22 179.54C60.18 178.79 62.97 177.58 65.4 175.93C67.83 174.27 69.84 172.11 71.21 169.58C72.61 167.06 73.35 164.16 73.42 161.16C73.78 161.16 75.55 161.16 78.75 161.16C78.75 161.16 78.75 161.16 78.75 161.16C78.91 163.91 79.35 166.59 80.38 168.92C81.37 171.25 82.86 173.23 84.84 174.68C86.81 176.13 89.18 177.17 91.78 177.78C93.07 178.09 94.41 178.31 95.78 178.44C97.2 178.57 98.41 178.63 99.99 178.63C101.3 178.63 102.73 178.58 104.07 178.44C105.43 178.3 106.75 178.06 108.04 177.74C110.62 177.09 112.98 176 115 174.53C117.01 173.05 118.59 171.08 119.64 168.78C120.75 166.5 121.26 163.87 121.42 161.16C121.77 161.16 123.55 161.16 126.75 161.16C126.75 161.16 126.75 161.16 126.75 161.16C126.83 163.64 127.27 166.07 128.18 168.27C129.1 170.46 130.41 172.45 132.1 174.1C135.5 177.4 140.22 179.34 145.2 180.13C146.45 180.34 147.72 180.46 148.99 180.55C149.64 180.57 150.19 180.61 150.89 180.61C150.96 180.61 151.3 180.62 151.92 180.62C152.47 180.61 152.78 180.6 152.84 180.6C155.38 180.53 157.9 180.23 160.33 179.63C165.17 178.46 169.63 176.04 172.64 172.52C174.14 170.77 175.24 168.73 175.88 166.53C176.2 165.46 176.41 164.22 176.48 163.19C176.58 161.86 176.57 160.84 176.41 159.73C175.84 155.37 172.74 151.5 168.67 148.57C164.61 145.6 159.73 143.42 154.72 141.68C149.68 139.95 144.43 138.66 139.11 137.65C128.46 135.66 117.54 134.74 106.62 134.43C101.17 134.27 95.65 134.3 90.19 134.46C84.71 134.62 79.24 134.92 73.81 135.4C68.38 135.89 62.97 136.56 57.65 137.53C52.34 138.5 47.09 139.78 42.12 141.58C37.18 143.37 32.44 145.72 28.84 149.01C27.05 150.64 25.6 152.51 24.65 154.56C24.17 155.59 23.81 156.66 23.57 157.77C23.46 158.32 23.38 158.89 23.31 159.46C23.31 159.51 23.29 159.77 23.26 160.23C23.25 160.75 23.24 161.07 23.24 161.19ZM16.57 161.1L16.6 160.07C16.66 159.29 16.69 158.86 16.7 158.78C16.79 157.97 16.92 157.17 17.09 156.37C17.44 154.78 17.98 153.21 18.69 151.74C20.09 148.79 22.15 146.25 24.46 144.18C29.12 140.04 34.55 137.51 39.98 135.57C45.43 133.65 50.99 132.38 56.55 131.39C62.11 130.41 67.7 129.75 73.28 129.28C78.86 128.82 84.45 128.55 90.03 128.42C95.61 128.3 101.16 128.27 106.77 128.38C117.94 128.63 129.14 129.51 140.25 131.52C145.8 132.54 151.33 133.83 156.77 135.65C162.19 137.48 167.58 139.77 172.5 143.28C174.95 145.04 177.28 147.14 179.19 149.73C181.09 152.3 182.52 155.43 183.01 158.74C183.27 160.37 183.27 162.13 183.17 163.56C183.06 165.28 182.79 166.78 182.34 168.37C181.46 171.49 179.9 174.43 177.82 176.89C173.63 181.86 167.77 184.75 161.91 186.15C158.96 186.86 155.96 187.21 152.97 187.25C152.58 187.25 152.26 187.26 151.81 187.25C151.71 187.24 150.88 187.22 150.78 187.22C150.09 187.2 149.27 187.14 148.53 187.09C147.05 186.96 145.57 186.78 144.09 186.51C141.14 185.96 138.21 185.08 135.41 183.76C132.63 182.42 130 180.62 127.81 178.33C125.62 176.04 123.89 173.27 122.84 170.3C121.77 167.32 121.37 164.2 121.42 161.16C121.42 161.16 121.42 161.16 121.42 161.16C121.32 159.69 122.44 158.42 123.91 158.33C125.38 158.24 126.64 159.35 126.73 160.82C126.73 160.83 126.73 160.84 126.74 160.86C126.74 161.04 126.75 161.14 126.75 161.16C126.9 164.45 126.43 167.88 125.15 171.14C123.84 174.37 121.66 177.34 118.91 179.54C116.18 181.77 112.94 183.19 109.71 184.07C108.08 184.51 106.45 184.82 104.81 185C103.16 185.19 101.59 185.28 99.89 185.29C98.46 185.28 96.66 185.18 95.09 185.01C93.47 184.83 91.83 184.54 90.21 184.13C86.98 183.31 83.68 181.95 80.92 179.68C78.12 177.45 75.99 174.36 74.81 171.09C73.64 167.79 73.28 164.4 73.42 161.16C73.42 161.16 73.42 161.16 73.42 161.16C73.36 159.69 74.51 158.45 75.98 158.39C77.45 158.33 78.69 159.48 78.75 160.95C78.75 160.95 78.75 160.96 78.75 160.97C78.75 161.08 78.75 161.14 78.75 161.16C78.85 164.89 78.1 168.77 76.39 172.24C74.68 175.71 72.05 178.7 68.99 180.95C65.92 183.21 62.44 184.75 58.89 185.75C55.34 186.73 51.69 187.2 48.08 187.26C46.32 187.28 44.41 187.18 42.6 186.96C40.77 186.74 38.95 186.39 37.16 185.9C33.58 184.93 30.08 183.38 26.96 181.16C23.86 178.93 21.15 175.98 19.31 172.49C17.45 169.01 16.54 165.04 16.57 161.19C16.57 161.18 16.57 161.15 16.57 161.14C16.57 161.13 16.57 161.11 16.57 161.1" id="b1w2t6m7WP"></path><path d="M180.08 125.99C180.08 139.74 167.54 150.88 152.08 150.88C134.75 150.88 124.08 137.62 124.08 123.87C124.08 136.53 115.42 148.91 100.09 148.91C83.42 148.91 76.09 136.53 76.09 123.87C76.09 137.62 64.42 150.88 47.76 150.88C32.3 150.88 20.07 138.7 20.07 124.95C20.07 121.2 20.09 91.17 20.09 87.42C20.09 52.37 55.91 23.96 100.09 23.96C144.26 23.96 180.08 52.37 180.08 87.42C180.08 95.13 180.08 118.27 180.08 125.99Z" id="aVIEHncsA"></path><path d="M176.74 125.93L176.73 101.76C176.73 94.49 176.73 90.45 176.72 89.64C176.73 87.57 176.7 85.73 176.57 83.84C176.47 82.9 176.41 81.96 176.28 81.03C176.23 80.75 175.87 78.52 175.82 78.24C174.38 70.82 171.11 63.79 166.6 57.63C162.08 51.48 156.38 46.14 149.95 41.85C143.54 37.54 136.45 34.18 129.04 31.82C125.34 30.61 121.55 29.69 117.72 28.98C113.9 28.26 109.98 27.79 106.15 27.57C104.28 27.42 102.21 27.42 100.2 27.37C98.37 27.42 96.33 27.4 94.41 27.56C90.52 27.76 86.64 28.24 82.81 28.94C78.97 29.62 75.18 30.54 71.48 31.74C67.78 32.92 64.13 34.29 60.63 35.97C53.64 39.31 47.06 43.55 41.46 48.82C35.84 54.06 31.14 60.26 27.97 67.15C26.38 70.59 25.2 74.21 24.45 77.91C24.08 79.76 23.8 81.64 23.66 83.43C23.54 84.28 23.55 85.37 23.5 86.36C23.5 86.41 23.5 86.66 23.48 87.11C23.47 87.34 23.47 87.46 23.47 87.49C23.47 87.54 23.47 87.35 23.47 87.48C23.47 87.49 23.47 87.52 23.47 87.57L23.47 87.76L23.47 89.28L23.44 113.51C23.44 120.72 23.44 124.72 23.44 125.52C23.52 128.98 24.56 132.41 26.32 135.45C29.85 141.56 36.3 145.97 43.34 147.16C50.37 148.36 57.99 146.75 63.62 142.29C69.35 138 73.13 131.07 73.42 123.87C73.78 123.87 75.55 123.87 78.75 123.87C78.75 123.87 78.75 123.87 78.75 123.87C78.91 126.85 79.41 129.78 80.44 132.48C81.42 135.19 82.87 137.67 84.78 139.66C86.68 141.65 88.97 143.21 91.57 144.17C92.87 144.66 94.23 145.01 95.64 145.24C96.33 145.36 97.07 145.43 97.75 145.49C98.1 145.51 98.4 145.54 98.79 145.55C98.91 145.55 99.88 145.57 100 145.57C101.31 145.58 102.82 145.48 104.18 145.24C105.56 145 106.91 144.63 108.19 144.11C110.78 143.1 113.07 141.48 115.03 139.49C116.98 137.48 118.52 135.03 119.58 132.36C120.68 129.69 121.26 126.8 121.42 123.87C121.41 122.4 122.61 121.2 124.08 121.2C125.53 121.2 126.71 122.36 126.75 123.8C126.75 123.8 126.75 123.86 126.75 123.87C126.83 127.05 127.55 130.21 128.84 133.1C130.11 135.99 131.94 138.63 134.2 140.79C136.46 142.95 139.13 144.66 142.04 145.79C143.5 146.36 145.01 146.79 146.55 147.08C147.33 147.22 148.11 147.34 148.9 147.41C149.72 147.48 150.31 147.54 151.27 147.54C154.46 147.61 157.62 147.18 160.62 146.2C163.61 145.22 166.41 143.72 168.81 141.75C171.22 139.8 173.23 137.4 174.61 134.69C175.3 133.34 175.83 131.92 176.19 130.46C176.37 129.73 176.5 128.99 176.6 128.24C176.61 128.17 176.64 127.83 176.7 127.21L176.74 125.93ZM183.41 126.08C183.39 126.88 183.37 127.33 183.37 127.42C183.33 127.95 183.29 128.51 183.23 129.03C183.11 130.04 182.93 131.04 182.7 132.03C182.22 134.01 181.51 135.93 180.6 137.73C178.78 141.34 176.16 144.5 173.08 147C169.98 149.51 166.43 151.38 162.68 152.58C158.94 153.78 154.98 154.32 151.11 154.18C150.3 154.17 149.12 154.07 148.18 153.96C147.21 153.85 146.24 153.68 145.28 153.49C143.36 153.08 141.46 152.51 139.64 151.75C135.99 150.23 132.61 147.99 129.86 145.16C127.1 142.33 124.92 138.97 123.47 135.33C122.04 131.68 121.34 127.77 121.42 123.87C121.95 123.87 126.22 123.87 126.75 123.87C126.9 127.43 126.34 131.02 125.19 134.44C124 137.84 122.16 141.07 119.69 143.81C117.24 146.58 114.09 148.76 110.66 150.18C108.95 150.89 107.16 151.41 105.35 151.74C103.52 152.07 101.78 152.23 99.85 152.23C99.72 152.23 98.75 152.2 98.63 152.2C98.21 152.18 97.7 152.13 97.25 152.1C96.3 152.02 95.44 151.92 94.53 151.75C92.74 151.43 90.95 150.95 89.22 150.28C85.76 148.93 82.53 146.77 80.08 143.94C77.61 141.14 75.85 137.82 74.77 134.39C73.72 130.94 73.28 127.38 73.42 123.87C73.42 123.87 73.42 123.87 73.42 123.87C73.35 122.4 74.48 121.15 75.95 121.08C77.42 121 78.67 122.14 78.75 123.61C78.75 123.61 78.75 123.62 78.75 123.65C78.75 123.78 78.75 123.86 78.75 123.87C78.89 128.35 77.87 132.86 75.91 136.89C73.95 140.92 71.08 144.5 67.58 147.33C64.07 150.15 59.93 152.18 55.56 153.25C53.37 153.79 51.14 154.1 48.9 154.18C48.85 154.19 48.57 154.19 48.07 154.21L47.58 154.21C47.35 154.21 47.22 154.2 47.2 154.2C46.69 154.19 46.22 154.19 45.59 154.14C44.38 154.06 43.31 153.93 42.19 153.73C33.28 152.22 25.12 146.71 20.53 138.81C18.25 134.88 16.85 130.34 16.73 125.72C16.73 124.9 16.73 120.83 16.72 113.5L16.72 89.27L16.72 87.76L16.72 87.28L16.73 86.9C16.75 86.44 16.76 86.19 16.76 86.14C16.8 85.11 16.78 84.17 16.92 83.02C17.09 80.78 17.41 78.67 17.82 76.56C18.68 72.34 20.02 68.22 21.81 64.33C25.39 56.53 30.65 49.63 36.82 43.86C42.99 38.05 50.15 33.42 57.71 29.8C61.5 27.98 65.43 26.5 69.41 25.22C73.4 23.94 77.47 22.93 81.58 22.21C85.7 21.46 89.85 20.95 94.02 20.74C96.13 20.58 98.13 20.59 100.34 20.55C102.36 20.6 104.34 20.6 106.5 20.77C110.73 21.01 114.84 21.51 118.96 22.29C123.06 23.06 127.14 24.05 131.12 25.35C139.09 27.91 146.75 31.53 153.73 36.24C160.73 40.92 167 46.79 172.04 53.66C177.06 60.52 180.77 68.48 182.41 76.94C182.61 78 182.76 79.07 182.93 80.13C183.08 81.19 183.15 82.27 183.26 83.34C183.41 85.48 183.44 87.68 183.43 89.64C183.43 90.45 183.43 94.49 183.42 101.76C183.41 116.3 183.41 124.37 183.41 125.99C183.41 126.01 183.41 126.06 183.41 126.08" id="c3hxDvIAtY"></path><path d="M157.14 118.43C141.21 121.99 121.48 124.09 100.12 124.09C78.72 124.09 58.95 122 43 118.43" id="e2aaOOmPbk"></path><path d="M157.51 120.4C157.51 120.4 155.77 120.85 152.71 121.57C151.18 121.92 149.32 122.36 147.19 122.85C145.08 123.41 142.58 123.76 139.88 124.2C137.17 124.62 134.24 125.07 131.13 125.55C128.03 125.87 124.76 126.18 121.36 126.47C119.67 126.62 117.94 126.77 116.2 126.92C114.45 127.02 112.68 127.06 110.9 127.11C107.3 127.21 103.65 127.32 99.99 127.42C96.4 127.32 92.81 127.21 89.28 127.11C87.51 127.06 85.76 127.02 84.03 126.92C82.27 126.77 80.54 126.62 78.83 126.47C75.42 126.18 72.13 125.87 69.02 125.55C65.93 125.07 63.01 124.62 60.32 124.21C57.63 123.78 55.16 123.43 53.01 122.86C50.85 122.36 48.97 121.93 47.42 121.57C44.32 120.84 42.57 120.39 42.57 120.39C41.5 120.11 40.86 119.02 41.13 117.95C41.38 116.97 42.33 116.35 43.31 116.47C43.32 116.47 43.43 116.48 43.44 116.48C43.44 116.48 45.21 116.7 48.29 117.14C49.83 117.36 51.7 117.63 53.84 117.94C55.97 118.31 58.42 118.45 61.07 118.73C63.72 119 66.59 119.29 69.62 119.59C72.65 119.77 75.85 119.95 79.16 120.13C80.81 120.24 82.49 120.34 84.19 120.45C85.92 120.48 87.68 120.51 89.44 120.54C92.97 120.61 96.57 120.68 100.16 120.75C103.68 120.68 107.21 120.61 110.68 120.54C112.42 120.51 114.16 120.48 115.87 120.45C117.58 120.34 119.27 120.24 120.93 120.14C124.26 119.95 127.47 119.77 130.52 119.59C133.54 119.29 136.39 119 139.02 118.74C141.66 118.45 144.08 118.33 146.26 117.95C148.42 117.63 150.31 117.36 151.87 117.13C154.98 116.69 156.77 116.47 156.77 116.47C157.87 116.33 158.87 117.11 159 118.21C159.13 119.22 158.47 120.15 157.51 120.4" id="b4LlbTCOX"></path><path d="M124.56 76.12C124.56 89.65 113.6 100.61 100.07 100.61C86.55 100.61 75.58 89.65 75.58 76.12C75.58 62.6 86.55 51.63 100.07 51.63C113.6 51.63 124.56 62.6 124.56 76.12" id="fg1RNPRv3"></path><path d="M100.07 100.61C86.55 100.61 75.58 89.65 75.58 76.12C75.58 62.6 86.55 51.63 100.07 51.63C113.6 51.63 124.56 62.6 124.56 76.12C124.56 89.65 113.6 100.61 100.07 100.61Z" id="a5uZaA2H0v"></path><path d="M109.49 75.04C109.49 80.25 105.28 84.46 100.07 84.46C94.87 84.46 90.65 80.25 90.65 75.04C90.65 69.84 94.87 65.63 100.07 65.63C105.28 65.63 109.49 69.84 109.49 75.04" id="b2SN3UeFzR"></path></defs><g><g><g><use xlink:href="#d87oedomXU" opacity="1" fill="#ffffff" fill-opacity="1"></use><g><use xlink:href="#d87oedomXU" opacity="1" fill-opacity="0" stroke="#000000" stroke-width="1" stroke-opacity="0"></use></g></g><g><use xlink:href="#b1w2t6m7WP" opacity="1" fill="#1d1d1b" fill-opacity="1"></use><g><use xlink:href="#b1w2t6m7WP" opacity="1" fill-opacity="0" stroke="#000000" stroke-width="1" stroke-opacity="0"></use></g></g><g><use xlink:href="#aVIEHncsA" opacity="1" fill="#ffffff" fill-opacity="1"></use><g><use xlink:href="#aVIEHncsA" opacity="1" fill-opacity="0" stroke="#000000" stroke-width="1" stroke-opacity="0"></use></g></g><g><use xlink:href="#c3hxDvIAtY" opacity="1" fill="#1d1d1b" fill-opacity="1"></use><g><use xlink:href="#c3hxDvIAtY" opacity="1" fill-opacity="0" stroke="#000000" stroke-width="1" stroke-opacity="0"></use></g></g><g><use xlink:href="#e2aaOOmPbk" opacity="1" fill="#ffffff" fill-opacity="1"></use><g><use xlink:href="#e2aaOOmPbk" opacity="1" fill-opacity="0" stroke="#000000" stroke-width="1" stroke-opacity="0"></use></g></g><g><use xlink:href="#b4LlbTCOX" opacity="1" fill="#1d1d1b" fill-opacity="1"></use><g><use xlink:href="#b4LlbTCOX" opacity="1" fill-opacity="0" stroke="#000000" stroke-width="1" stroke-opacity="0"></use></g></g><g><use xlink:href="#fg1RNPRv3" opacity="1" fill="#ffffff" fill-opacity="1"></use><g><use xlink:href="#fg1RNPRv3" opacity="1" fill-opacity="0" stroke="#000000" stroke-width="1" stroke-opacity="0"></use></g></g><g><use xlink:href="#a5uZaA2H0v" opacity="1" fill="#000000" fill-opacity="0"></use><g><use xlink:href="#a5uZaA2H0v" opacity="1" fill-opacity="0" stroke="#1d1d1b" stroke-width="5" stroke-opacity="1"></use></g></g><g><use xlink:href="#b2SN3UeFzR" opacity="1" fill="#1d1d1b" fill-opacity="1"></use><g><use xlink:href="#b2SN3UeFzR" opacity="1" fill-opacity="0" stroke="#000000" stroke-width="1" stroke-opacity="0"></use></g></g></g></g></svg>