<?xml version="1.0" encoding="UTF-8" standalone="no"?>
<!DOCTYPE svg PUBLIC "-//W3C//DTD SVG 1.1//EN" "http://www.w3.org/Graphics/SVG/1.1/DTD/svg11.dtd">
<svg version="1.1" xmlns="http://www.w3.org/2000/svg" xmlns:xlink="http://www.w3.org/1999/xlink" preserveAspectRatio="xMidYMid meet" viewBox="0 0 200 200" width="200" height="200"><defs><path d="M189.53 147.3C189.53 164.63 177 178.68 161.53 178.68C144.2 178.68 133.54 161.96 133.54 144.63C133.54 160.58 124.87 176.19 109.54 176.19C92.87 176.19 85.54 160.58 85.54 144.63C85.54 161.96 73.88 178.68 57.21 178.68C41.75 178.68 29.52 163.32 29.52 145.99C29.53 141.26 29.55 103.42 29.55 98.69C29.55 54.51 65.36 18.7 109.54 18.7C153.72 18.7 189.53 54.51 189.53 98.69C189.53 108.41 189.53 137.58 189.53 147.3Z" id="a2U4vQCgCI"></path><path d="M186.2 147.22L186.19 119.57L186.18 105.71C186.18 101.55 186.18 99.24 186.18 98.78C186.13 96.55 186.09 94.34 185.87 92.14C185.12 83.32 182.87 74.62 179.11 66.6C175.39 58.58 170.3 51.17 164.06 44.88C157.83 38.59 150.52 33.38 142.54 29.55C134.55 25.74 125.89 23.37 117.1 22.48C116.78 22.45 114.19 22.26 113.86 22.23C112.75 22.17 111.57 22.17 110.42 22.13C110.36 22.13 110.07 22.12 109.55 22.11L108.81 22.13C107.81 22.15 107.26 22.17 107.15 22.17C106.04 22.18 104.94 22.25 103.83 22.35C99.42 22.68 95.03 23.35 90.75 24.45C82.18 26.63 73.99 30.29 66.65 35.24C59.33 40.21 52.87 46.45 47.64 53.59C42.39 60.72 38.47 68.8 35.99 77.29C34.76 81.54 33.85 85.89 33.39 90.29C33.19 92.49 32.99 94.54 32.97 96.93C32.97 97.04 32.95 97.62 32.93 98.66L32.92 100.31L32.92 103.77L32.89 131.5C32.88 139.82 32.88 144.44 32.88 145.36C32.85 149.67 33.51 153.82 35.03 157.76C36.51 161.68 38.74 165.31 41.59 168.28C44.42 171.28 47.99 173.43 51.78 174.55C52.27 174.73 52.72 174.81 53.16 174.89C53.29 174.91 54.35 175.13 54.49 175.16C55.02 175.21 55.63 175.23 56.2 175.27C56.25 175.28 56.54 175.3 57.06 175.33L57.28 175.34C57.34 175.35 57.38 175.35 57.38 175.35C57.47 175.35 57.06 175.34 57.28 175.34C57.31 175.34 57.61 175.32 57.65 175.32C59.64 175.24 61.64 175.02 63.53 174.37C67.33 173.18 70.85 170.93 73.65 167.85C76.5 164.84 78.74 161.15 80.27 157.18C81.84 153.21 82.71 148.95 82.88 144.64C82.88 144.64 82.88 144.64 82.88 144.63L88.21 144.63C88.32 146.2 88.37 147.07 88.39 147.25C88.46 148.11 88.58 148.98 88.68 149.84C88.93 151.55 89.26 153.25 89.71 154.91C90.57 158.22 91.84 161.38 93.63 164.11C94.52 165.48 95.55 166.71 96.65 167.83C97.2 168.4 97.84 168.84 98.42 169.37C99.05 169.82 99.72 170.21 100.36 170.64C100.56 170.74 102.24 171.52 102.45 171.62C103.19 171.84 103.93 172.1 104.66 172.31C105.38 172.42 106.06 172.56 106.8 172.7C106.98 172.71 107.9 172.76 109.56 172.85C110.86 172.78 111.58 172.74 111.72 172.73C112.49 172.63 113.24 172.44 114 172.32C114.74 172.1 115.46 171.83 116.19 171.6C116.88 171.25 117.59 170.94 118.26 170.57C118.9 170.12 119.59 169.75 120.2 169.26C120.78 168.72 121.44 168.29 121.98 167.69C123.1 166.56 124.15 165.31 125.07 163.95C125.99 162.59 126.8 161.13 127.49 159.59C128.19 158.06 128.75 156.45 129.22 154.82C129.71 153.18 130.07 151.5 130.36 149.8C130.46 148.94 130.59 148.09 130.68 147.23C130.69 147.06 130.76 146.19 130.87 144.64C130.87 144.63 130.87 144.63 130.87 144.63C130.89 143.16 132.1 141.98 133.58 142.01C134.98 142.03 136.11 143.13 136.2 144.5C136.2 144.51 136.2 144.55 136.2 144.63C136.3 146.31 136.36 147.24 136.37 147.43C136.46 148.35 136.62 149.28 136.73 150.2C137.05 152.03 137.46 153.85 138.03 155.61C138.59 157.37 139.24 159.1 140.06 160.74C140.42 161.58 140.9 162.36 141.36 163.15C141.78 163.95 142.32 164.68 142.85 165.41C143.34 166.18 143.94 166.85 144.53 167.52C145.08 168.23 145.74 168.82 146.39 169.43C147.01 170.07 147.73 170.58 148.43 171.11C149.1 171.68 149.88 172.08 150.62 172.54C151.34 173.03 152.17 173.32 152.95 173.68C153.72 174.09 154.58 174.25 155.39 174.53C156.23 174.84 157 174.87 157.79 175.04C158.48 175.24 159.59 175.23 160.56 175.29C160.61 175.3 160.86 175.31 161.31 175.33L161.68 175.35C161.71 175.35 161.73 175.35 161.73 175.35C161.78 175.35 161.36 175.34 161.55 175.34C161.55 175.34 161.56 175.34 161.57 175.34L161.65 175.34L161.81 175.33C162.59 175.28 163.02 175.25 163.11 175.25C163.97 175.25 164.82 175.05 165.67 174.91C167.37 174.6 169.02 174.03 170.61 173.34C171.41 173 172.15 172.52 172.92 172.13C173.67 171.68 174.37 171.15 175.1 170.67C175.3 170.5 176.91 169.14 177.12 168.97C177.72 168.32 178.37 167.72 178.95 167.06C179.49 166.35 180.1 165.7 180.6 164.97C181.08 164.22 181.63 163.52 182.06 162.74C182.46 161.94 182.95 161.19 183.3 160.37C183.64 159.54 184.06 158.74 184.33 157.89C184.59 157.03 184.93 156.19 185.14 155.32C185.32 154.45 185.58 153.55 185.71 152.7C185.82 151.84 185.97 151.05 186.06 150.13C186.08 149.75 186.12 148.77 186.2 147.22ZM192.86 147.45C192.78 149.24 192.74 150.24 192.73 150.44C192.64 151.51 192.46 152.68 192.31 153.8C192.14 154.91 191.85 155.95 191.62 157.02C191.37 158.09 190.97 159.11 190.65 160.16C190.31 161.2 189.82 162.19 189.4 163.21C188.97 164.22 188.39 165.16 187.88 166.13C187.35 167.1 186.69 167.99 186.09 168.91C185.46 169.82 184.72 170.65 184.03 171.52C183.3 172.34 182.49 173.11 181.72 173.91C180.88 174.64 180.02 175.35 179.15 176.05C178.23 176.67 177.32 177.33 176.36 177.91C175.37 178.42 174.41 179.02 173.37 179.45C171.31 180.35 169.16 181.07 166.94 181.47C165.82 181.66 164.71 181.89 163.58 181.9C163.47 181.91 162.91 181.94 161.89 181.99L161.68 182L161.58 182.01L161.55 182.01L161.32 182L161.28 182L160.9 181.97C160.45 181.94 160.21 181.92 160.16 181.92C159.14 181.83 158.25 181.84 156.99 181.57C155.83 181.33 154.6 181.17 153.57 180.77C152.5 180.4 151.39 180.12 150.39 179.59C149.38 179.09 148.33 178.67 147.4 178.03C146.45 177.43 145.47 176.87 144.63 176.13C143.76 175.44 142.87 174.76 142.11 173.95C141.32 173.18 140.52 172.41 139.86 171.54C139.15 170.69 138.45 169.85 137.87 168.93C137.25 168.03 136.63 167.13 136.14 166.16C135.62 165.22 135.08 164.28 134.67 163.28C133.76 161.33 133.03 159.3 132.46 157.24C131.88 155.19 131.5 153.09 131.22 150.98C131.12 149.92 130.99 148.87 130.93 147.81C130.93 147.6 130.91 146.54 130.87 144.63L136.2 144.63L136.2 144.64C136.2 146.4 136.2 147.38 136.2 147.58C136.16 148.56 136.07 149.53 136 150.51C135.78 152.47 135.48 154.42 135.01 156.35C134.54 158.27 133.93 160.17 133.16 162.03C132.4 163.88 131.49 165.7 130.39 167.42C129.32 169.16 128.03 170.8 126.56 172.28C125.86 173.06 124.99 173.69 124.21 174.39C123.4 175.06 122.46 175.61 121.59 176.21C120.66 176.74 119.68 177.19 118.73 177.67C117.71 178.03 116.7 178.4 115.67 178.71C114.62 178.92 113.57 179.17 112.52 179.32C112.41 179.32 111.88 179.36 110.92 179.43L110.13 179.48L109.73 179.51L109.63 179.52L109.58 179.52L109.55 179.52L109.33 179.51L109.16 179.5C107.5 179.4 106.58 179.34 106.39 179.32C105.32 179.16 104.19 178.94 103.09 178.72C102.05 178.43 101.05 178.07 100.03 177.73C99.05 177.3 98.09 176.81 97.13 176.34C96.24 175.75 95.32 175.18 94.47 174.54C93.67 173.84 92.81 173.19 92.08 172.43C90.6 170.92 89.31 169.26 88.25 167.5C86.12 163.97 84.74 160.15 83.89 156.29C83.47 154.36 83.21 152.41 83.03 150.46C82.97 149.49 82.89 148.52 82.86 147.54C82.86 147.35 82.87 146.38 82.88 144.63C82.88 144.51 82.88 144.44 82.88 144.42C82.88 142.95 84.09 141.76 85.56 141.77C87.04 141.77 88.22 142.98 88.22 144.45C88.22 144.51 88.21 144.57 88.21 144.63C88.21 144.63 88.21 144.65 88.21 144.65C88.44 154.52 85.12 164.55 78.36 172.2C74.98 176 70.52 179.01 65.52 180.64C63.04 181.5 60.4 181.86 57.79 181.98C57.74 181.98 57.35 182 57.3 182.01C57.44 182.01 56.96 182 56.97 182C56.97 182 56.93 182 56.86 182L56.65 181.98C56.13 181.95 55.84 181.93 55.78 181.93C55.2 181.89 54.65 181.87 54.03 181.81C53.83 181.77 52.17 181.48 51.96 181.45C51.26 181.33 50.57 181.19 49.97 180.97C44.9 179.5 40.32 176.65 36.79 172.94C33.24 169.24 30.55 164.83 28.76 160.12C26.94 155.43 26.13 150.29 26.17 145.36C26.17 144.44 26.17 139.82 26.17 131.5L26.17 103.77L26.17 100.3L26.18 98.49C26.2 97.45 26.22 96.87 26.22 96.75C26.24 94.51 26.44 91.96 26.68 89.56C27.16 84.77 28.15 80.03 29.48 75.4C32.18 66.15 36.44 57.35 42.15 49.59C47.84 41.81 54.85 35.01 62.82 29.59C70.81 24.2 79.73 20.19 89.08 17.81C93.75 16.62 98.53 15.89 103.33 15.54C104.53 15.43 105.73 15.36 106.94 15.35C107.06 15.35 107.66 15.33 108.74 15.3L109.19 15.29L109.42 15.29L109.73 15.29C110.25 15.3 110.54 15.31 110.59 15.31C111.76 15.35 112.88 15.35 114.08 15.42C114.45 15.44 117.39 15.67 117.75 15.69C127.35 16.67 136.77 19.26 145.47 23.42C154.15 27.6 162.1 33.28 168.87 40.13C175.65 46.97 181.18 55.04 185.23 63.77C189.31 72.5 191.75 81.98 192.57 91.57C192.79 93.97 192.84 96.38 192.88 98.78C192.88 99.24 192.88 101.55 192.88 105.71L192.88 119.57C192.87 136.21 192.86 145.45 192.86 147.3C192.86 147.34 192.86 147.41 192.86 147.45" id="c2pfxQSgca"></path><path d="M166.6 137.78C150.66 142.26 130.93 144.9 109.57 144.9C88.17 144.9 68.41 142.27 52.46 137.78" id="b3uOtxtjTD"></path><path d="M167.06 139.72C167.06 139.72 165.33 140.26 162.3 141.12C160.78 141.55 158.93 142.07 156.82 142.67C154.74 143.34 152.23 143.77 149.53 144.3C146.81 144.81 143.87 145.36 140.75 145.95C137.64 146.34 134.35 146.71 130.94 147.07C129.24 147.25 127.51 147.44 125.75 147.63C123.99 147.74 122.21 147.79 120.42 147.86C116.81 147.98 113.14 148.11 109.47 148.24C105.85 148.13 102.31 148.17 98.66 147.93C96.86 147.84 95.06 147.76 93.3 147.63C91.54 147.47 89.81 147.31 88.1 147.15C84.69 146.88 81.41 146.35 78.3 145.95C75.2 145.42 72.26 145 69.58 144.4C66.89 143.84 64.44 143.33 62.28 142.73C60.13 142.15 58.24 141.71 56.71 141.22C53.65 140.28 51.92 139.7 51.92 139.7C50.87 139.36 50.3 138.23 50.64 137.18C50.96 136.21 51.94 135.65 52.92 135.84C52.92 135.84 52.99 135.85 53 135.85C53 135.85 54.76 136.19 57.8 136.83C59.31 137.19 61.19 137.46 63.32 137.85C65.45 138.25 67.88 138.54 70.52 138.95C71.83 139.17 73.21 139.33 74.64 139.48C76.07 139.66 77.54 139.83 79.06 140.02C80.58 140.15 82.15 140.29 83.74 140.44C85.34 140.58 86.97 140.75 88.64 140.83C90.3 140.94 91.99 141.05 93.71 141.16C95.41 141.23 97.14 141.3 98.88 141.36C102.31 141.57 105.99 141.5 109.57 141.57C113.11 141.48 116.65 141.38 120.14 141.29C121.89 141.25 123.62 141.2 125.34 141.16C127.05 141.02 128.74 140.88 130.4 140.75C133.72 140.49 136.94 140.25 139.99 140.01C142.98 139.58 145.82 139.21 148.45 138.88C151.08 138.51 153.49 138.31 155.66 137.81C157.82 137.39 159.7 137.03 161.25 136.73C164.35 136.14 166.13 135.83 166.13 135.83C167.22 135.65 168.26 136.38 168.45 137.47C168.62 138.47 168.01 139.43 167.06 139.72" id="h1URKBFmPO"></path><path d="M112.24 18.7C112.61 58.35 112.81 80.39 112.85 84.79C112.86 86.63 111.39 88.14 109.54 88.16C107.7 88.17 106.2 86.7 106.18 84.86C106.18 84.84 106.18 84.81 106.18 84.79C106.24 78.18 106.73 25.31 106.79 18.7C106.8 17.19 108.03 15.98 109.54 15.99C111.03 16.01 112.23 17.21 112.24 18.7" id="a4DMElBC2C"></path><path d="M138.1 23.55C138.1 23.55 138.25 36.12 138.48 54.98C138.51 59.7 138.55 64.81 138.59 70.21C138.61 72.91 138.63 75.69 138.65 78.52C138.66 79.94 138.66 81.37 138.67 82.82C138.67 82.86 138.67 83.04 138.67 83.36L138.65 84.07L138.59 85.16L138.54 86.26C138.43 87.04 138.37 87.48 138.36 87.56C138.14 89.34 137.72 90.92 137.22 92.54C136.94 93.33 136.66 94.13 136.34 94.92C135.98 95.68 135.61 96.45 135.24 97.22C133.62 100.23 131.45 102.98 128.85 105.29C123.66 109.95 116.61 112.67 109.51 112.69C109.26 112.67 107.24 112.57 106.99 112.56C106.17 112.5 105.17 112.31 104.26 112.18C102.46 111.83 100.79 111.39 99.13 110.73C95.83 109.47 92.79 107.61 90.18 105.29C87.58 102.98 85.41 100.23 83.79 97.22C82.17 94.21 81.15 90.93 80.68 87.65C80.67 87.57 80.61 87.16 80.5 86.43C80.46 85.69 80.44 85.28 80.44 85.19C80.41 84.4 80.34 83.5 80.36 82.82C80.36 81.37 80.37 79.94 80.38 78.52C80.4 75.69 80.42 72.91 80.44 70.21C80.48 64.81 80.52 59.7 80.55 54.98C80.78 36.12 80.92 23.55 80.92 23.55C80.94 22.08 82.15 20.9 83.62 20.91C85.07 20.93 86.24 22.1 86.26 23.55C86.26 23.55 86.41 36.12 86.63 54.98C86.67 59.7 86.7 64.81 86.74 70.21C86.76 72.91 86.78 75.69 86.8 78.52C86.81 79.94 86.82 81.37 86.83 82.82C86.81 83.59 86.88 84.14 86.9 84.81C86.91 84.87 86.92 85.19 86.95 85.77C87.04 86.34 87.09 86.66 87.1 86.72C87.48 89.27 88.27 91.8 89.54 94.13C90.81 96.46 92.51 98.59 94.54 100.37C96.57 102.15 98.93 103.58 101.48 104.54C102.74 105.05 104.12 105.39 105.39 105.63C106.04 105.71 106.58 105.85 107.33 105.91C107.55 105.92 109.3 106.01 109.51 106.02C115.01 106.02 120.44 103.96 124.49 100.37C126.52 98.59 128.22 96.46 129.49 94.13C129.54 94.01 129.83 93.42 130.35 92.35C130.76 91.24 130.99 90.63 131.04 90.51C131.42 89.27 131.78 87.96 131.91 86.81C131.92 86.75 131.97 86.46 132.06 85.93L132.12 84.84L132.18 83.74L132.2 83.47L132.2 83.34C132.21 83.3 132.21 83.27 132.21 83.27C132.2 83.57 132.21 83.31 132.2 83.36C132.2 83.31 132.21 82.88 132.21 82.82C132.21 81.37 132.22 79.94 132.23 78.52C132.25 75.69 132.27 72.91 132.29 70.21C132.33 64.81 132.36 59.7 132.4 54.98C132.62 36.12 132.77 23.55 132.77 23.55C132.79 22.08 134 20.9 135.47 20.91C136.92 20.93 138.09 22.1 138.1 23.55" id="b373vkhCOn"></path></defs><g><g><g><use xlink:href="#a2U4vQCgCI" opacity="1" fill="#ffffff" fill-opacity="1"></use><g><use xlink:href="#a2U4vQCgCI" opacity="1" fill-opacity="0" stroke="#000000" stroke-width="1" stroke-opacity="0"></use></g></g><g><use xlink:href="#c2pfxQSgca" opacity="1" fill="#1d1d1b" fill-opacity="1"></use><g><use xlink:href="#c2pfxQSgca" opacity="1" fill-opacity="0" stroke="#000000" stroke-width="1" stroke-opacity="0"></use></g></g><g><use xlink:href="#b3uOtxtjTD" opacity="1" fill="#ffffff" fill-opacity="1"></use><g><use xlink:href="#b3uOtxtjTD" opacity="1" fill-opacity="0" stroke="#000000" stroke-width="1" stroke-opacity="0"></use></g></g><g><use xlink:href="#h1URKBFmPO" opacity="1" fill="#1d1d1b" fill-opacity="1"></use><g><use xlink:href="#h1URKBFmPO" opacity="1" fill-opacity="0" stroke="#000000" stroke-width="1" stroke-opacity="0"></use></g></g><g><use xlink:href="#a4DMElBC2C" opacity="1" fill="#1d1d1b" fill-opacity="1"></use><g><use xlink:href="#a4DMElBC2C" opacity="1" fill-opacity="0" stroke="#000000" stroke-width="1" stroke-opacity="0"></use></g></g><g><use xlink:href="#b373vkhCOn" opacity="1" fill="#1d1d1b" fill-opacity="1"></use><g><use xlink:href="#b373vkhCOn" opacity="1" fill-opacity="0" stroke="#000000" stroke-width="1" stroke-opacity="0"></use></g></g></g></g></svg>