<?xml version="1.0" encoding="UTF-8" standalone="no"?>
<!DOCTYPE svg PUBLIC "-//W3C//DTD SVG 1.1//EN" "http://www.w3.org/Graphics/SVG/1.1/DTD/svg11.dtd">
<svg version="1.1" xmlns="http://www.w3.org/2000/svg" xmlns:xlink="http://www.w3.org/1999/xlink" preserveAspectRatio="xMidYMid meet" viewBox="0 0 200 200" width="200" height="200"><defs><path d="M19.9 157.28C19.9 134.81 55.55 127.41 99.73 127.41C143.9 127.41 179.9 137.46 179.9 157.8C179.9 171.55 167.54 180.03 152.08 180.03C134.75 180.03 124.08 171 124.08 157.25C124.08 169.91 115.42 178.05 100.09 178.05C83.42 178.05 76.09 169.91 76.09 157.25C76.09 171 64.42 180.03 47.76 180.03C32.3 180.03 19.9 171.03 19.9 157.28" id="d15knuZfc3"></path><path d="M23.24 157.29C23.24 160.16 23.92 162.95 25.25 165.42C26.58 167.9 28.55 170.04 30.92 171.73C33.28 173.44 36.04 174.7 38.95 175.51C40.41 175.92 41.91 176.21 43.43 176.41C44.96 176.6 46.42 176.69 48.03 176.69C51.16 176.71 54.26 176.38 57.22 175.63C60.18 174.88 62.97 173.67 65.4 172.02C67.83 170.36 69.84 168.2 71.21 165.67C72.61 163.15 73.35 160.25 73.42 157.25C73.78 157.25 75.55 157.25 78.75 157.25C78.75 157.25 78.75 157.25 78.75 157.25C78.91 160.01 79.35 162.69 80.38 165.01C81.37 167.34 82.86 169.32 84.84 170.77C86.81 172.22 89.18 173.26 91.78 173.87C93.07 174.18 94.41 174.4 95.78 174.53C97.2 174.66 98.41 174.72 99.99 174.72C101.3 174.72 102.73 174.67 104.07 174.53C105.43 174.39 106.75 174.16 108.04 173.83C110.62 173.18 112.98 172.09 115 170.62C117.01 169.14 118.59 167.17 119.64 164.87C120.75 162.59 121.26 159.96 121.42 157.25C121.77 157.25 123.55 157.25 126.75 157.25C126.75 157.25 126.75 157.25 126.75 157.25C126.83 159.73 127.27 162.16 128.18 164.36C129.1 166.55 130.41 168.54 132.1 170.19C135.5 173.5 140.22 175.43 145.2 176.23C146.45 176.43 147.72 176.56 148.99 176.64C149.64 176.67 150.19 176.7 150.89 176.71C150.96 176.71 151.3 176.71 151.92 176.71C152.47 176.7 152.78 176.69 152.84 176.69C155.38 176.62 157.9 176.32 160.33 175.72C165.17 174.55 169.63 172.14 172.64 168.61C174.14 166.86 175.24 164.82 175.88 162.62C176.2 161.55 176.41 160.31 176.48 159.28C176.58 157.96 176.57 156.93 176.41 155.83C175.83 151.47 172.74 147.6 168.67 144.66C164.61 141.69 159.73 139.52 154.72 137.78C149.68 136.04 144.43 134.75 139.11 133.75C128.46 131.75 117.54 130.83 106.62 130.52C101.17 130.36 95.65 130.39 90.19 130.55C84.71 130.71 79.24 131.01 73.81 131.49C68.38 131.98 62.97 132.65 57.65 133.62C52.34 134.59 47.09 135.87 42.12 137.67C37.18 139.46 32.44 141.81 28.84 145.1C27.05 146.73 25.6 148.6 24.65 150.65C24.17 151.68 23.81 152.75 23.57 153.86C23.46 154.41 23.38 154.98 23.31 155.55C23.31 155.6 23.29 155.86 23.26 156.33C23.25 156.84 23.24 157.16 23.24 157.29ZM16.57 157.19L16.6 156.16C16.66 155.38 16.69 154.95 16.7 154.87C16.79 154.06 16.92 153.26 17.09 152.46C17.44 150.87 17.98 149.31 18.69 147.84C20.09 144.88 22.15 142.34 24.46 140.27C29.12 136.13 34.55 133.6 39.98 131.67C45.43 129.75 50.99 128.47 56.55 127.48C62.11 126.5 67.7 125.84 73.28 125.38C78.86 124.91 84.45 124.64 90.03 124.51C95.61 124.4 101.16 124.36 106.77 124.47C117.94 124.72 129.14 125.6 140.25 127.61C145.8 128.63 151.33 129.92 156.77 131.74C162.19 133.58 167.58 135.86 172.5 139.38C174.95 141.14 177.28 143.23 179.19 145.82C181.09 148.39 182.52 151.52 183.01 154.83C183.27 156.46 183.27 158.22 183.17 159.65C183.06 161.37 182.79 162.88 182.34 164.46C181.46 167.58 179.9 170.53 177.82 172.99C173.63 177.95 167.77 180.84 161.91 182.24C158.96 182.95 155.96 183.3 152.97 183.34C152.58 183.34 152.26 183.35 151.81 183.34C151.71 183.33 150.88 183.31 150.78 183.31C150.09 183.29 149.27 183.23 148.53 183.18C147.05 183.05 145.57 182.87 144.09 182.6C141.14 182.05 138.21 181.17 135.41 179.86C132.63 178.51 130 176.71 127.81 174.42C125.62 172.13 123.89 169.36 122.84 166.39C121.77 163.42 121.37 160.29 121.42 157.25C121.42 157.25 121.42 157.25 121.42 157.25C121.32 155.78 122.44 154.52 123.91 154.42C125.38 154.33 126.64 155.45 126.73 156.92C126.73 156.92 126.73 156.93 126.74 156.95C126.74 157.13 126.75 157.23 126.75 157.25C126.9 160.54 126.43 163.98 125.15 167.23C123.84 170.46 121.66 173.43 118.91 175.63C116.18 177.87 112.94 179.28 109.71 180.16C108.08 180.6 106.45 180.91 104.81 181.09C103.16 181.29 101.59 181.37 99.89 181.38C98.46 181.37 96.66 181.27 95.09 181.1C93.47 180.92 91.83 180.63 90.21 180.23C86.98 179.4 83.68 178.05 80.92 175.77C78.12 173.54 75.99 170.45 74.81 167.18C73.64 163.89 73.28 160.5 73.42 157.25C73.42 157.25 73.42 157.25 73.42 157.25C73.36 155.78 74.51 154.54 75.98 154.48C77.45 154.42 78.69 155.57 78.75 157.04C78.75 157.04 78.75 157.05 78.75 157.06C78.75 157.17 78.75 157.24 78.75 157.25C78.85 160.98 78.1 164.86 76.39 168.33C74.68 171.8 72.05 174.79 68.99 177.04C65.92 179.3 62.44 180.85 58.89 181.84C55.34 182.83 51.69 183.29 48.08 183.35C46.32 183.37 44.41 183.27 42.6 183.05C40.77 182.83 38.95 182.48 37.16 182C33.58 181.02 30.08 179.48 26.96 177.25C23.86 175.02 21.15 172.07 19.31 168.58C17.45 165.11 16.54 161.14 16.57 157.28C16.57 157.27 16.57 157.24 16.57 157.24C16.57 157.23 16.57 157.21 16.57 157.19" id="f2wVmTqXKn"></path><path d="M180.08 122.08C180.08 135.83 167.54 146.97 152.08 146.97C134.75 146.97 124.08 133.71 124.08 119.96C124.08 132.62 115.42 145 100.09 145C83.42 145 76.09 132.62 76.09 119.96C76.09 133.71 64.42 146.97 47.76 146.97C32.3 146.97 20.07 134.79 20.07 121.04C20.07 117.29 20.09 87.27 20.09 83.51C20.09 48.46 55.91 20.05 100.09 20.05C144.26 20.05 180.08 48.46 180.08 83.51C180.08 91.23 180.08 114.37 180.08 122.08Z" id="pu1awmtrb"></path><path d="M176.74 122.03L176.73 97.85C176.73 90.58 176.73 86.54 176.72 85.74C176.73 83.66 176.7 81.82 176.57 79.93C176.47 79 176.41 78.05 176.28 77.12C176.23 76.84 175.87 74.61 175.82 74.33C174.38 66.91 171.11 59.88 166.6 53.73C162.07 47.57 156.38 42.23 149.95 37.95C143.54 33.63 136.45 30.27 129.04 27.91C125.34 26.7 121.55 25.78 117.72 25.08C113.9 24.35 109.98 23.88 106.15 23.66C104.28 23.51 102.21 23.51 100.2 23.46C98.37 23.51 96.33 23.49 94.41 23.65C90.52 23.85 86.64 24.33 82.81 25.03C78.97 25.71 75.18 26.64 71.48 27.83C67.78 29.01 64.13 30.38 60.63 32.06C53.64 35.4 47.06 39.65 41.46 44.92C35.84 50.16 31.14 56.35 27.97 63.24C26.38 66.69 25.2 70.3 24.45 74C24.08 75.85 23.8 77.73 23.66 79.52C23.54 80.37 23.55 81.46 23.5 82.45C23.5 82.5 23.5 82.75 23.48 83.2C23.47 83.43 23.47 83.56 23.47 83.58C23.47 83.64 23.47 83.45 23.47 83.57C23.47 83.58 23.47 83.61 23.47 83.67L23.47 83.86L23.47 85.37L23.44 109.6C23.44 116.81 23.44 120.81 23.44 121.61C23.52 125.07 24.56 128.5 26.32 131.54C29.85 137.65 36.3 142.06 43.34 143.25C50.37 144.46 57.99 142.84 63.62 138.38C69.35 134.09 73.13 127.16 73.42 119.96C73.78 119.96 75.55 119.96 78.75 119.96C78.75 119.96 78.75 119.96 78.75 119.96C78.91 122.94 79.41 125.88 80.44 128.58C81.42 131.28 82.87 133.76 84.78 135.75C86.68 137.74 88.97 139.3 91.57 140.26C92.87 140.75 94.23 141.1 95.64 141.33C96.32 141.45 97.07 141.53 97.75 141.58C98.1 141.6 98.4 141.63 98.79 141.64C98.91 141.64 99.88 141.66 100 141.66C101.31 141.67 102.82 141.57 104.18 141.33C105.56 141.09 106.91 140.72 108.19 140.21C110.78 139.19 113.07 137.57 115.03 135.58C116.98 133.57 118.52 131.12 119.58 128.45C120.68 125.79 121.26 122.89 121.42 119.96C121.41 118.49 122.61 117.29 124.08 117.29C125.53 117.29 126.71 118.45 126.75 119.89C126.75 119.89 126.75 119.95 126.75 119.96C126.83 123.15 127.55 126.3 128.84 129.19C130.11 132.09 131.94 134.72 134.2 136.88C136.46 139.04 139.13 140.75 142.04 141.89C143.5 142.45 145.01 142.88 146.55 143.18C147.33 143.31 148.11 143.43 148.9 143.5C149.72 143.57 150.31 143.63 151.27 143.63C154.46 143.7 157.62 143.27 160.62 142.29C163.61 141.31 166.41 139.81 168.81 137.85C171.22 135.9 173.23 133.49 174.61 130.78C175.3 129.43 175.83 128.01 176.19 126.55C176.37 125.82 176.5 125.08 176.6 124.33C176.61 124.26 176.64 123.92 176.7 123.3L176.74 122.03ZM183.41 122.17C183.39 122.98 183.37 123.42 183.37 123.51C183.33 124.05 183.29 124.6 183.23 125.12C183.11 126.13 182.93 127.13 182.7 128.12C182.22 130.1 181.51 132.02 180.6 133.82C178.78 137.44 176.16 140.59 173.08 143.1C169.98 145.6 166.43 147.47 162.68 148.67C158.94 149.88 154.98 150.41 151.11 150.27C150.3 150.26 149.12 150.16 148.18 150.05C147.21 149.94 146.24 149.77 145.28 149.58C143.36 149.18 141.46 148.6 139.64 147.84C135.99 146.33 132.61 144.09 129.86 141.25C127.1 138.43 124.92 135.06 123.47 131.42C122.04 127.77 121.34 123.86 121.42 119.96C121.95 119.96 126.22 119.96 126.75 119.96C126.9 123.52 126.34 127.11 125.19 130.53C124 133.93 122.16 137.16 119.69 139.91C117.24 142.67 114.09 144.85 110.66 146.27C108.95 146.98 107.16 147.5 105.35 147.83C103.52 148.17 101.78 148.33 99.85 148.33C99.72 148.32 98.75 148.29 98.63 148.29C98.21 148.27 97.7 148.23 97.24 148.19C96.3 148.11 95.44 148.01 94.53 147.84C92.74 147.53 90.95 147.05 89.22 146.37C85.76 145.03 82.53 142.86 80.08 140.03C77.61 137.23 75.85 133.91 74.77 130.48C73.72 127.03 73.28 123.47 73.42 119.96C73.42 119.96 73.42 119.96 73.42 119.96C73.35 118.49 74.48 117.24 75.95 117.17C77.42 117.1 78.67 118.23 78.75 119.7C78.75 119.7 78.75 119.72 78.75 119.74C78.75 119.87 78.75 119.95 78.75 119.96C78.89 124.45 77.87 128.95 75.91 132.98C73.95 137.01 71.08 140.59 67.58 143.42C64.07 146.24 59.93 148.27 55.56 149.34C53.37 149.88 51.14 150.19 48.9 150.28C48.85 150.28 48.57 150.29 48.07 150.3L47.58 150.3C47.35 150.3 47.22 150.3 47.2 150.29C46.69 150.28 46.22 150.28 45.59 150.23C44.38 150.15 43.31 150.02 42.19 149.82C33.28 148.31 25.12 142.8 20.53 134.91C18.25 130.97 16.85 126.44 16.73 121.81C16.73 120.99 16.73 116.92 16.72 109.59L16.72 85.37L16.72 83.85L16.72 83.37L16.73 82.99C16.75 82.53 16.76 82.28 16.76 82.23C16.8 81.21 16.78 80.27 16.92 79.12C17.09 76.87 17.41 74.76 17.82 72.65C18.68 68.43 20.02 64.32 21.81 60.42C25.39 52.62 30.64 45.72 36.82 39.95C42.99 34.14 50.15 29.52 57.71 25.9C61.5 24.07 65.43 22.59 69.41 21.31C73.4 20.03 77.47 19.02 81.58 18.3C85.7 17.55 89.85 17.04 94.02 16.83C96.13 16.67 98.13 16.69 100.34 16.64C102.36 16.69 104.34 16.69 106.5 16.86C110.73 17.1 114.84 17.6 118.96 18.39C123.06 19.15 127.14 20.14 131.12 21.45C139.09 24 146.75 27.62 153.73 32.34C160.73 37.01 167 42.88 172.04 49.75C177.06 56.61 180.77 64.57 182.41 73.04C182.61 74.09 182.76 75.16 182.93 76.22C183.08 77.29 183.15 78.36 183.26 79.43C183.41 81.57 183.44 83.77 183.43 85.74C183.43 86.54 183.43 90.58 183.42 97.85C183.41 112.39 183.41 120.46 183.41 122.08C183.41 122.1 183.41 122.15 183.41 122.17" id="d1uIticQya"></path><path d="M157.14 114.53C141.21 118.08 121.48 120.18 100.12 120.18C78.72 120.18 58.95 118.09 43 114.53" id="aLhuPqfZ7"></path><path d="M157.51 116.49C157.51 116.49 155.77 116.94 152.71 117.66C151.18 118.02 149.32 118.45 147.19 118.94C145.08 119.5 142.58 119.85 139.88 120.29C137.17 120.71 134.24 121.16 131.13 121.64C128.03 121.96 124.76 122.27 121.36 122.56C119.67 122.71 117.94 122.86 116.2 123.01C114.45 123.11 112.68 123.15 110.9 123.2C107.3 123.3 103.65 123.41 99.99 123.51C96.4 123.41 92.81 123.3 89.28 123.2C87.51 123.15 85.76 123.11 84.03 123.01C82.27 122.86 80.54 122.71 78.83 122.56C75.42 122.27 72.13 121.96 69.02 121.64C65.93 121.16 63.01 120.71 60.32 120.3C57.63 119.87 55.16 119.52 53.01 118.95C50.85 118.45 48.97 118.02 47.42 117.66C44.32 116.93 42.57 116.48 42.57 116.48C41.5 116.2 40.86 115.11 41.13 114.04C41.38 113.06 42.33 112.44 43.31 112.56C43.32 112.56 43.43 112.57 43.44 112.57C43.44 112.57 45.21 112.79 48.29 113.23C49.83 113.45 51.7 113.72 53.84 114.03C55.97 114.4 58.42 114.54 61.07 114.82C63.72 115.09 66.59 115.38 69.62 115.69C72.65 115.86 75.85 116.04 79.16 116.23C80.81 116.33 82.49 116.43 84.19 116.54C85.92 116.57 87.68 116.6 89.44 116.63C92.97 116.7 96.57 116.77 100.16 116.85C103.68 116.77 107.21 116.7 110.68 116.63C112.42 116.6 114.16 116.57 115.87 116.54C117.58 116.44 119.27 116.33 120.93 116.23C124.26 116.04 127.47 115.86 130.52 115.69C133.54 115.38 136.39 115.09 139.02 114.83C141.66 114.54 144.08 114.42 146.26 114.04C148.42 113.72 150.31 113.45 151.87 113.22C154.98 112.78 156.77 112.56 156.77 112.56C157.87 112.42 158.87 113.2 159 114.3C159.13 115.31 158.47 116.24 157.51 116.49" id="a1HzPboQES"></path><path d="M102.79 20.05C103.15 53.58 103.35 72.21 103.39 75.94C103.41 77.78 101.94 79.29 100.1 79.31C98.26 79.33 96.75 77.85 96.73 76.01C96.73 75.99 96.73 75.96 96.73 75.94C96.79 70.35 97.27 25.64 97.33 20.05C97.35 18.54 98.58 17.34 100.09 17.35C101.58 17.37 102.77 18.57 102.79 20.05" id="beD4wxyd"></path><path d="M128.65 24.15C128.65 24.15 128.7 26.91 128.78 31.74C128.84 36.56 128.92 43.46 129.02 51.73C129.06 55.87 129.1 60.35 129.14 65.09C129.16 67.46 129.18 69.9 129.2 72.39C129.2 73.01 129.21 73.64 129.21 74.27C129.21 74.3 129.21 74.45 129.21 74.74L129.18 75.4C129.15 75.97 129.13 76.29 129.13 76.35C129.11 76.68 129.1 76.97 129.06 77.33C129.04 77.45 128.89 78.4 128.87 78.52C128.74 79.32 128.59 80.13 128.35 80.82C127.54 83.73 126.13 86.52 124.23 88.91C122.34 91.31 120.02 93.36 117.45 95.02C112.32 98.38 106.15 99.97 100.06 100.04C97.22 100.01 93.89 99.58 91.01 98.77C88.05 97.97 85.24 96.66 82.67 95.02C80.1 93.36 77.79 91.31 75.89 88.91C73.99 86.52 72.58 83.73 71.77 80.82C70.91 77.97 70.85 74.67 70.92 72.39C70.95 69.9 70.97 67.46 70.98 65.09C71.02 60.35 71.06 55.87 71.1 51.73C71.2 43.46 71.28 36.56 71.34 31.74C71.42 26.91 71.47 24.15 71.47 24.15C71.5 22.68 72.71 21.51 74.18 21.53C75.62 21.56 76.78 22.72 76.8 24.15C76.8 24.15 76.85 26.91 76.93 31.74C76.99 36.56 77.08 43.46 77.18 51.73C77.21 55.87 77.25 60.35 77.29 65.09C77.31 67.46 77.33 69.9 77.35 72.39C77.34 75.07 77.39 76.92 78.01 79.04C79.14 83.19 82.21 86.96 86.22 89.48C88.22 90.74 90.43 91.78 92.79 92.39C95.21 93.03 97.38 93.33 100.06 93.37C104.97 93.33 109.91 92.08 113.9 89.48C117.91 86.96 120.98 83.19 122.11 79.04C122.31 78.52 122.37 78.05 122.46 77.59C122.47 77.52 122.59 76.96 122.61 76.89C122.64 76.62 122.65 76.27 122.67 75.97C122.68 75.9 122.7 75.59 122.73 75.02L122.75 74.78L122.75 74.66C122.76 74.63 122.76 74.61 122.76 74.6C122.75 74.97 122.76 74.67 122.75 74.74C122.75 74.69 122.76 74.31 122.76 74.27C122.76 73.64 122.77 73.01 122.77 72.39C122.79 69.9 122.81 67.46 122.83 65.09C122.87 60.35 122.91 55.87 122.94 51.73C123.04 43.46 123.13 36.56 123.19 31.74C123.27 26.91 123.32 24.15 123.32 24.15C123.34 22.68 124.56 21.51 126.03 21.53C127.47 21.56 128.62 22.72 128.65 24.15" id="a3J7Nz6cC9"></path></defs><g><g><g><use xlink:href="#d15knuZfc3" opacity="1" fill="#ffffff" fill-opacity="1"></use><g><use xlink:href="#d15knuZfc3" opacity="1" fill-opacity="0" stroke="#000000" stroke-width="1" stroke-opacity="0"></use></g></g><g><use xlink:href="#f2wVmTqXKn" opacity="1" fill="#1d1d1b" fill-opacity="1"></use><g><use xlink:href="#f2wVmTqXKn" opacity="1" fill-opacity="0" stroke="#000000" stroke-width="1" stroke-opacity="0"></use></g></g><g><use xlink:href="#pu1awmtrb" opacity="1" fill="#ffffff" fill-opacity="1"></use><g><use xlink:href="#pu1awmtrb" opacity="1" fill-opacity="0" stroke="#000000" stroke-width="1" stroke-opacity="0"></use></g></g><g><use xlink:href="#d1uIticQya" opacity="1" fill="#1d1d1b" fill-opacity="1"></use><g><use xlink:href="#d1uIticQya" opacity="1" fill-opacity="0" stroke="#000000" stroke-width="1" stroke-opacity="0"></use></g></g><g><use xlink:href="#aLhuPqfZ7" opacity="1" fill="#ffffff" fill-opacity="1"></use><g><use xlink:href="#aLhuPqfZ7" opacity="1" fill-opacity="0" stroke="#000000" stroke-width="1" stroke-opacity="0"></use></g></g><g><use xlink:href="#a1HzPboQES" opacity="1" fill="#1d1d1b" fill-opacity="1"></use><g><use xlink:href="#a1HzPboQES" opacity="1" fill-opacity="0" stroke="#000000" stroke-width="1" stroke-opacity="0"></use></g></g><g><use xlink:href="#beD4wxyd" opacity="1" fill="#1d1d1b" fill-opacity="1"></use><g><use xlink:href="#beD4wxyd" opacity="1" fill-opacity="0" stroke="#000000" stroke-width="1" stroke-opacity="0"></use></g></g><g><use xlink:href="#a3J7Nz6cC9" opacity="1" fill="#1d1d1b" fill-opacity="1"></use><g><use xlink:href="#a3J7Nz6cC9" opacity="1" fill-opacity="0" stroke="#000000" stroke-width="1" stroke-opacity="0"></use></g></g></g></g></svg>