<?xml version="1.0" encoding="UTF-8" standalone="no"?>
<!DOCTYPE svg PUBLIC "-//W3C//DTD SVG 1.1//EN" "http://www.w3.org/Graphics/SVG/1.1/DTD/svg11.dtd">
<svg version="1.1" xmlns="http://www.w3.org/2000/svg" xmlns:xlink="http://www.w3.org/1999/xlink" preserveAspectRatio="xMidYMid meet" viewBox="0 0 200 200" width="200" height="200"><defs><path d="M112.57 20.02C127.11 20.02 139.22 30.72 139.22 43.92C139.22 51.84 134.96 58.84 128.42 63.19C140.63 64.05 150.24 73.29 150.24 84.59C150.24 93.24 144.6 100.68 136.49 104.08C149.76 110.59 158.91 124.23 158.91 140.02C158.91 162.1 142.58 180.01 120.49 180.01C87.11 180.01 72.25 144.37 72.25 100.19C72.25 96.17 72.25 64.04 72.25 60.02C72.25 37.93 90.48 20.02 112.57 20.02" id="a1S8mHBiQb"></path><path d="M112.57 23.39C106.58 23.44 100.63 24.93 95.31 27.68C90.01 30.49 85.44 34.62 81.99 39.51C80.39 42.03 78.87 44.63 77.91 47.47C77.67 48.18 77.34 48.85 77.17 49.58C77.11 49.8 76.66 51.54 76.6 51.75C76.38 52.48 76.28 53.18 76.18 53.89C76.14 54.1 75.87 55.78 75.83 55.99C75.77 56.77 75.74 57.62 75.7 58.42C75.69 58.5 75.67 58.91 75.63 59.65L75.62 59.95L75.61 60.11C75.61 60.15 75.6 60.18 75.6 60.18C75.61 59.86 75.61 60.14 75.61 60.09C75.61 60.13 75.61 60.33 75.61 60.7L75.61 65.6L75.61 75.4C75.6 87.16 75.6 93.69 75.6 95C75.6 98.28 75.59 101.53 75.66 104.72C75.76 107.93 75.88 111.13 76.16 114.32C76.65 120.7 77.55 127.03 78.93 133.23C79.64 136.32 80.43 139.39 81.43 142.38C82.39 145.38 83.51 148.32 84.83 151.14C87.42 156.81 90.82 162.04 95.07 166.33C99.33 170.61 104.57 173.73 110.3 175.33C111.03 175.5 111.74 175.71 112.47 175.87C112.69 175.91 114.46 176.22 114.68 176.26C116.15 176.42 117.47 176.62 119.19 176.63C119.27 176.64 119.68 176.65 120.42 176.68C120.51 176.68 120.56 176.68 120.57 176.68C120.62 176.68 120.41 176.68 120.53 176.68C120.53 176.68 120.56 176.67 120.6 176.67L120.88 176.66L121.44 176.62C122.79 176.55 123.53 176.51 123.68 176.51C124.44 176.5 125.16 176.3 125.9 176.21C126.63 176.08 127.38 176.01 128.1 175.83C128.32 175.78 130.04 175.32 130.26 175.26C130.62 175.16 130.98 175.08 131.33 174.96C131.4 174.94 131.75 174.8 132.37 174.56L134.46 173.78L136.44 172.77C137.04 172.48 137.37 172.31 137.44 172.28C137.76 172.09 138.07 171.88 138.38 171.68C138.57 171.57 140.07 170.61 140.26 170.49C140.86 170.06 141.43 169.57 142.02 169.12C142.6 168.67 143.19 168.22 143.71 167.67C143.87 167.52 145.15 166.28 145.31 166.13C145.83 165.6 146.29 165 146.78 164.45C147.8 163.36 148.58 162.08 149.45 160.87C149.89 160.27 150.2 159.59 150.59 158.95C150.93 158.29 151.37 157.67 151.64 156.97C152.23 155.6 152.91 154.26 153.34 152.82C153.57 152.11 153.86 151.42 154.05 150.69C154.09 150.55 154.26 149.82 154.58 148.5L154.85 147.41L155 146.34C155.2 145.06 155.31 144.34 155.33 144.2C155.42 143.46 155.43 142.59 155.48 141.79C155.48 141.71 155.5 141.3 155.54 140.57L155.57 139.95C155.58 139.91 155.58 139.88 155.58 139.88C155.57 140.16 155.58 139.92 155.57 139.96C155.57 139.95 155.57 139.9 155.57 139.82L155.56 139.54L155.52 137.29C155.39 135.94 155.32 135.2 155.31 135.05C154.58 129.09 152.38 123.32 148.95 118.32C145.5 113.33 140.86 109.15 135.46 106.18C135.45 106.17 135.36 106.12 135.35 106.12C134.22 105.5 133.81 104.09 134.43 102.96C134.7 102.48 135.11 102.13 135.58 101.93C135.58 101.93 135.59 101.93 135.59 101.93C136.58 101.41 137.55 100.88 138.46 100.26C139.36 99.63 140.24 98.97 141.02 98.22C141.84 97.5 142.56 96.69 143.25 95.87C143.91 95.02 144.51 94.14 145.02 93.21C145.26 92.74 145.52 92.28 145.71 91.79C145.94 91.31 146.13 90.82 146.3 90.33C146.66 89.34 146.87 88.32 147.06 87.3C147.09 86.8 147.18 86.41 147.21 85.83C147.22 85.77 147.23 85.46 147.25 84.91L147.25 84.68L147.26 84.56L147.26 84.51C147.26 84.49 147.26 84.48 147.26 84.48C147.26 84.44 147.26 84.7 147.26 84.58C147.26 84.58 147.26 84.58 147.26 84.57C147.24 84.34 147.24 84.21 147.23 84.18C147.19 83.66 147.2 83.14 147.12 82.63C147.11 82.52 147.02 82.01 146.87 81.09C146.63 80.18 146.5 79.68 146.47 79.58C146.32 79.08 146.11 78.6 145.94 78.11C145.52 77.15 145.05 76.21 144.48 75.33C144.22 74.86 143.9 74.44 143.57 74.02C143.27 73.59 142.93 73.18 142.56 72.79C141.86 71.99 141.07 71.26 140.25 70.57C139.82 70.24 139.41 69.88 138.97 69.58C138.83 69.49 137.74 68.78 137.6 68.69C136.65 68.16 135.68 67.65 134.66 67.25C134.17 67 133.64 66.84 133.12 66.66C132.6 66.47 132.08 66.29 131.54 66.18C130.47 65.87 129.37 65.72 128.26 65.52C128.26 65.52 128.26 65.52 128.26 65.52C126.98 65.44 126.01 64.34 126.09 63.07C126.13 62.41 126.44 61.84 126.9 61.44C126.91 61.43 126.99 61.36 127.13 61.25L128.49 60.09L129.18 59.53L129.79 58.89L131.01 57.62C131.65 56.78 132 56.32 132.07 56.23C132.45 55.78 132.75 55.29 133.04 54.79C133.32 54.29 133.66 53.82 133.91 53.3C134.36 52.25 134.91 51.24 135.17 50.13C135.3 49.59 135.56 49.03 135.6 48.53C135.68 48.02 135.78 47.51 135.87 47.01C135.88 46.98 135.91 46.86 135.95 46.63L135.97 46.14L136.02 45.16L136.06 44.18L136.07 43.94L136.08 43.82L136.08 43.76C136.08 43.74 136.08 43.73 136.08 43.72C136.08 43.81 136.09 43.5 136.08 43.92C136.08 43.92 136.08 43.92 136.07 43.91L136.04 43.49L135.9 41.83C135.7 40.85 135.6 40.3 135.57 40.2C135.49 39.65 135.25 39.13 135.11 38.6C134.97 38.07 134.74 37.56 134.51 37.05C134.11 36.02 133.52 35.06 132.96 34.1C132.86 33.96 132.09 32.86 131.99 32.73C131.65 32.28 131.26 31.87 130.9 31.44C130.56 31 130.12 30.63 129.72 30.23C129.33 29.82 128.92 29.43 128.46 29.09C127.61 28.34 126.65 27.73 125.7 27.09C124.7 26.54 123.72 25.94 122.65 25.52C121.62 25.02 120.5 24.72 119.41 24.35C118.29 24.09 117.15 23.78 116.11 23.68C115.15 23.47 113.68 23.47 112.42 23.39C112.45 23.39 112.54 23.39 112.57 23.39ZM112.73 16.66C114.07 16.74 115.22 16.7 116.84 16.95C118.41 17.11 119.79 17.47 121.22 17.8C122.61 18.24 124.02 18.64 125.35 19.26C126.72 19.79 127.99 20.53 129.27 21.24C130.5 22.05 131.73 22.86 132.85 23.83C133.44 24.28 133.97 24.79 134.5 25.31C135.02 25.84 135.57 26.33 136.03 26.93C136.49 27.5 136.98 28.06 137.43 28.66C137.55 28.85 138.55 30.33 138.67 30.52C139.41 31.82 140.16 33.12 140.66 34.54C140.95 35.24 141.21 35.94 141.38 36.68C141.56 37.41 141.82 38.12 141.91 38.87C141.93 39.01 142.05 39.76 142.25 41.09L142.34 43.34L142.36 43.9L142.35 44.18L142.34 44.24L142.33 44.36L142.31 44.6L142.22 45.58L142.14 46.56L142.09 47.04C142.02 47.39 141.98 47.58 141.98 47.62C141.82 48.4 141.66 49.17 141.47 49.94C141.31 50.73 140.98 51.36 140.74 52.08C140.29 53.49 139.52 54.76 138.84 56.06C138.47 56.69 138.02 57.27 137.61 57.88C137.2 58.48 136.78 59.07 136.27 59.59C136.17 59.7 135.69 60.23 134.81 61.19L133.18 62.62L132.37 63.32L131.49 63.94L129.72 65.13L128.59 60.86C128.59 60.86 128.59 60.86 128.59 60.86C129.93 60.93 131.27 61 132.6 61.28C133.26 61.37 133.92 61.53 134.57 61.7C135.23 61.87 135.89 62.02 136.53 62.27C137.82 62.69 139.05 63.28 140.28 63.88C140.45 63.98 141.87 64.81 142.05 64.91C142.63 65.27 143.18 65.69 143.75 66.08C144.84 66.92 145.91 67.81 146.84 68.84C147.33 69.33 147.79 69.85 148.21 70.41C148.64 70.95 149.08 71.5 149.44 72.1C150.24 73.25 150.87 74.51 151.44 75.8C151.69 76.46 151.97 77.11 152.18 77.78C152.22 77.92 152.4 78.6 152.74 79.83C152.94 81.08 153.05 81.78 153.07 81.92C153.16 82.62 153.16 83.33 153.2 84.04C153.2 84.07 153.21 84.25 153.22 84.57L153.2 85.15C153.18 85.7 153.17 86.01 153.16 86.07C153.12 86.71 153.01 87.54 152.91 88.26C152.64 89.64 152.29 91.02 151.78 92.33C151.3 93.65 150.66 94.91 149.93 96.09C149.2 97.29 148.36 98.39 147.45 99.43C146.52 100.45 145.54 101.43 144.47 102.27C143.4 103.14 142.25 103.87 141.07 104.54C139.9 105.22 138.66 105.76 137.4 106.23C137.4 106.23 137.4 106.23 137.39 106.24C137.47 103.69 137.51 102.27 137.51 101.99C143.84 104.82 149.45 109.3 153.69 114.88C157.98 120.45 160.69 127.2 161.76 134.17C161.78 134.35 161.89 135.23 162.08 136.81L162.22 139.45L162.23 139.78C162.24 139.88 162.24 139.94 162.24 139.95C162.24 140.05 162.25 139.85 162.24 140.19C162.24 140.19 162.24 140.22 162.23 140.26L162.21 140.87C162.18 141.61 162.16 142.02 162.16 142.1C162.11 142.93 162.12 143.7 162.03 144.58C162.01 144.76 161.89 145.66 161.68 147.29L161.49 148.65L161.2 149.94C160.84 151.49 160.65 152.35 160.61 152.52C160.39 153.38 160.07 154.2 159.8 155.05C157.59 161.77 153.56 167.89 148.31 172.71C147.69 173.34 146.98 173.89 146.27 174.43C145.57 174.98 144.88 175.54 144.15 176.06C143.93 176.2 142.12 177.34 141.89 177.49C141.51 177.72 141.14 177.97 140.75 178.19C140.67 178.23 140.27 178.42 139.56 178.78L137.16 179.97L134.65 180.91C133.9 181.18 133.48 181.34 133.4 181.37C132.98 181.51 132.54 181.6 132.11 181.72C131.86 181.79 129.79 182.32 129.53 182.39C128.67 182.6 127.78 182.68 126.9 182.83C126.02 182.94 125.15 183.16 124.27 183.16C124.09 183.17 123.2 183.22 121.61 183.29L120.95 183.32L120.62 183.34C120.57 183.34 120.54 183.34 120.54 183.34C120.61 183.35 120.34 183.34 120.34 183.34C120.33 183.34 120.28 183.34 120.19 183.34C119.46 183.31 119.05 183.3 118.97 183.3C117.42 183.29 115.49 183.08 113.72 182.86C113.46 182.81 111.36 182.44 111.1 182.39C110.24 182.21 109.38 181.97 108.52 181.75C101.66 179.86 95.32 176.05 90.36 171.06C85.4 166.06 81.6 160.15 78.77 153.94C77.32 150.85 76.11 147.67 75.07 144.45C74 141.24 73.15 137.97 72.41 134.69C70.94 128.14 70 121.5 69.48 114.85C69.2 111.53 69.06 108.21 68.96 104.88C68.89 101.54 68.9 98.25 68.9 95C68.9 93.69 68.9 87.16 68.9 75.4L68.9 65.6L68.9 60.7L68.89 60.09L68.93 59.3C68.97 58.57 68.99 58.16 68.99 58.08C69.04 57.26 69.06 56.46 69.13 55.62C69.62 51.91 70.3 48.42 71.61 45.13C72.76 41.77 74.54 38.68 76.45 35.7C80.52 29.91 85.91 25.05 92.16 21.73C98.44 18.47 105.5 16.7 112.57 16.66C112.6 16.66 112.7 16.66 112.73 16.66Z" id="aJsGYZqyf"></path><path d="M114.03 123.57C114.37 127.45 111.64 130.85 107.93 131.18C104.22 131.5 100.95 128.62 100.61 124.74C100.27 120.86 103 117.45 106.71 117.13C110.42 116.81 113.69 119.69 114.03 123.57" id="al3FvOW03"></path><path d="M125.29 122.43C125.07 122.18 124.86 121.93 124.64 121.7C123.93 120.97 123.2 120.27 122.45 119.59C120.94 118.25 119.35 117 117.68 115.93C116.02 114.87 114.27 113.97 112.48 113.37C111.58 113.07 110.68 112.83 109.78 112.7C109.33 112.62 108.86 112.59 108.44 112.56C108.38 112.56 107.9 112.54 107.84 112.53C107.63 112.53 107.32 112.55 107.06 112.56C106.22 112.61 105.28 112.74 104.4 112.98C103.51 113.21 102.63 113.51 101.76 113.91C100.03 114.68 98.38 115.74 96.83 116.97C95.28 118.21 93.82 119.62 92.48 121.14C91.81 121.89 91.16 122.68 90.54 123.48C89.94 124.28 89.31 125.15 88.83 125.91C88.83 125.91 88.83 125.91 88.83 125.91C88.8 124.43 88.78 123.6 88.78 123.43C89.31 124.2 89.99 125.07 90.64 125.86C91.31 126.66 92.01 127.44 92.73 128.18C94.18 129.67 95.74 131.04 97.39 132.21C99.04 133.37 100.8 134.32 102.6 134.91C103.5 135.22 104.41 135.4 105.32 135.5C105.79 135.57 106.18 135.56 106.58 135.58C106.63 135.57 106.91 135.56 107.39 135.54L107.6 135.53L107.65 135.52C107.67 135.52 107.68 135.52 107.68 135.52C107.77 135.52 107.57 135.53 107.59 135.53C107.59 135.53 107.59 135.53 107.6 135.53L107.69 135.51C107.89 135.49 108 135.47 108.03 135.47C111.68 134.99 115.24 132.85 118.33 130.18C119.88 128.84 121.33 127.33 122.7 125.75C123.38 124.96 124.04 124.14 124.67 123.31C124.89 123.02 125.08 122.72 125.29 122.43M128.87 126.53C128.16 127.44 127.43 128.33 126.66 129.2C125.13 130.93 123.49 132.59 121.69 134.11C119.89 135.62 117.94 137.02 115.77 138.15C113.61 139.27 111.21 140.15 108.64 140.44C108.61 140.44 108.45 140.46 108.16 140.49L108.04 140.51L107.83 140.52L107.63 140.53C107.13 140.55 106.85 140.56 106.79 140.56C106.09 140.54 105.37 140.52 104.75 140.43C103.47 140.27 102.22 139.99 101.04 139.57C98.65 138.76 96.52 137.54 94.58 136.14C92.65 134.74 90.9 133.16 89.3 131.47C88.5 130.62 87.74 129.75 87 128.85C86.27 127.93 85.59 127.06 84.88 126C84.37 125.23 84.38 124.26 84.83 123.52C84.83 123.52 84.83 123.52 84.83 123.52C85.48 122.45 86.1 121.58 86.78 120.65C87.46 119.74 88.16 118.86 88.9 118.01C90.38 116.29 92.01 114.68 93.79 113.21C95.58 111.76 97.54 110.44 99.72 109.43C100.8 108.92 101.95 108.5 103.13 108.18C104.32 107.85 105.51 107.65 106.81 107.56C107.09 107.55 107.32 107.52 107.64 107.52C107.74 107.52 108.55 107.54 108.65 107.54C109.3 107.58 109.9 107.61 110.52 107.71C111.74 107.87 112.92 108.18 114.07 108.54C116.36 109.28 118.47 110.34 120.43 111.56C122.4 112.78 124.22 114.17 125.93 115.66C126.78 116.41 127.61 117.18 128.41 117.99C129.22 118.81 129.96 119.58 130.77 120.55C131.52 121.45 131.56 122.71 130.95 123.64C130.25 124.7 129.59 125.6 128.87 126.53Z" id="aUQS9EjqE"></path><path d="M71.75 80.96C71.75 80.96 72.95 80.73 75.04 80.33C76.1 80.15 77.3 79.81 78.91 79.73C79.69 79.66 80.52 79.59 81.4 79.52C82.28 79.47 83.22 79.32 84.16 79.39C85.12 79.42 86.11 79.44 87.14 79.47C87.65 79.49 88.18 79.51 88.71 79.52C89.24 79.57 89.77 79.67 90.31 79.74C91.4 79.9 92.51 80.06 93.65 80.23C94.79 80.43 95.91 80.79 97.08 81.08C97.66 81.24 98.24 81.39 98.83 81.55C99.41 81.72 99.97 81.98 100.55 82.19C101.7 82.66 102.88 83.07 104.03 83.6C105.15 84.19 106.27 84.78 107.4 85.38C107.98 85.65 108.51 86.01 109.03 86.37C109.14 86.45 109.67 86.8 110.63 87.45L112.22 88.53L113.68 89.77C114.56 90.51 115.04 90.92 115.14 91C115.63 91.4 116.11 91.82 116.53 92.29C117.41 93.19 118.27 94.09 119.13 94.98C119.94 95.91 120.67 96.89 121.42 97.83C121.78 98.3 122.18 98.75 122.5 99.24C122.82 99.73 123.14 100.22 123.45 100.71C124.06 101.69 124.73 102.6 125.24 103.57C126.24 105.52 127.3 107.32 127.95 109.13C128.32 110.01 128.66 110.86 129 111.67C129.3 112.49 129.51 113.29 129.75 114.03C130.22 115.52 130.63 116.81 130.82 117.92C131.29 120.11 131.55 121.36 131.55 121.36C131.86 122.8 130.93 124.22 129.49 124.52C128.05 124.83 126.64 123.9 126.34 122.46C126.34 122.45 126.33 122.45 126.33 122.44C126.33 122.41 126.29 122.21 126.28 122.19C126.28 122.19 126.06 121.05 125.68 119.07C125.53 118.07 125.16 116.9 124.77 115.55C124.56 114.88 124.39 114.15 124.12 113.4C123.84 112.67 123.53 111.89 123.22 111.09C122.66 109.44 121.72 107.81 120.85 106.02C120.41 105.13 119.81 104.3 119.28 103.4C119 102.96 118.73 102.51 118.44 102.06C118.16 101.61 117.81 101.21 117.49 100.77C116.82 99.92 116.18 99.02 115.47 98.16C114.71 97.35 113.94 96.53 113.17 95.7C112.8 95.26 112.37 94.88 111.94 94.52C111.85 94.44 111.42 94.07 110.64 93.39L109.35 92.25L107.93 91.26C107.09 90.66 106.61 90.33 106.52 90.27C106.06 89.93 105.58 89.6 105.07 89.35C104.06 88.79 103.06 88.24 102.07 87.69C101.05 87.21 99.99 86.82 98.97 86.39C98.45 86.18 97.95 85.94 97.43 85.77C96.9 85.62 96.38 85.48 95.86 85.33C94.81 85.06 93.8 84.7 92.78 84.5C91.75 84.34 90.74 84.17 89.76 84.01C89.27 83.94 88.79 83.84 88.31 83.79C87.83 83.77 87.35 83.74 86.88 83.72C85.94 83.68 85.04 83.64 84.17 83.6C83.29 83.51 82.48 83.64 81.7 83.67C80.92 83.72 80.18 83.77 79.49 83.81C78.12 83.83 76.81 84.16 75.77 84.32C73.67 84.69 72.47 84.9 72.47 84.9C71.39 85.09 70.35 84.36 70.16 83.27C69.97 82.2 70.69 81.17 71.75 80.96" id="b29aeTPg96"></path></defs><g><g><g><use xlink:href="#a1S8mHBiQb" opacity="1" fill="#ffffff" fill-opacity="1"></use><g><use xlink:href="#a1S8mHBiQb" opacity="1" fill-opacity="0" stroke="#000000" stroke-width="1" stroke-opacity="0"></use></g></g><g><use xlink:href="#aJsGYZqyf" opacity="1" fill="#1d1d1b" fill-opacity="1"></use><g><use xlink:href="#aJsGYZqyf" opacity="1" fill-opacity="0" stroke="#000000" stroke-width="1" stroke-opacity="0"></use></g></g><g><use xlink:href="#al3FvOW03" opacity="1" fill="#1d1d1b" fill-opacity="1"></use><g><use xlink:href="#al3FvOW03" opacity="1" fill-opacity="0" stroke="#000000" stroke-width="1" stroke-opacity="0"></use></g></g><g><use xlink:href="#aUQS9EjqE" opacity="1" fill="#1d1d1b" fill-opacity="1"></use><g><use xlink:href="#aUQS9EjqE" opacity="1" fill-opacity="0" stroke="#000000" stroke-width="1" stroke-opacity="0"></use></g></g><g><use xlink:href="#b29aeTPg96" opacity="1" fill="#1d1d1b" fill-opacity="1"></use><g><use xlink:href="#b29aeTPg96" opacity="1" fill-opacity="0" stroke="#000000" stroke-width="1" stroke-opacity="0"></use></g></g></g></g></svg>