<?xml version="1.0" encoding="UTF-8" standalone="no"?>
<!DOCTYPE svg PUBLIC "-//W3C//DTD SVG 1.1//EN" "http://www.w3.org/Graphics/SVG/1.1/DTD/svg11.dtd">
<svg version="1.1" xmlns="http://www.w3.org/2000/svg" xmlns:xlink="http://www.w3.org/1999/xlink" preserveAspectRatio="xMidYMid meet" viewBox="0 0 200 200" width="200" height="200"><defs><path d="M146.03 165.21C146.03 173.38 139.17 180.01 130.71 180.01C122.25 180.01 115.39 173.38 115.39 165.21C115.39 173.38 108.53 178.95 100.07 178.95C91.61 178.95 84.76 173.38 84.76 165.21C84.76 173.38 77.9 180.01 69.44 180.01C60.98 180.01 54.12 173.38 54.12 165.21C54.18 164.42 54.64 158.1 54.69 157.31C54.69 134.83 75 127.43 100.17 127.43C125.34 127.43 145.85 137.48 145.85 157.83C145.88 159.31 145.99 163.74 146.03 165.21Z" id="bd7v1mXA7"></path><path d="M142.55 166.47L142.54 165.3C142.47 160.42 142.43 157.71 142.42 157.16C142.39 154.76 142.01 152.42 141.3 150.18C140.58 147.95 139.47 145.86 138.05 143.94C136.63 142.02 134.85 140.34 132.89 138.83C128.95 135.81 124.19 133.68 119.2 132.26C114.21 130.78 108.93 130.12 103.69 129.86C98.39 129.62 93.03 129.86 87.82 130.57C85.21 130.93 82.64 131.46 80.13 132.12C77.62 132.79 75.18 133.62 72.89 134.68C68.28 136.77 64.3 139.81 61.71 143.71C59.15 147.63 58.04 152.38 58.11 157.31C58.11 157.32 58.11 157.38 58.1 157.48L58.1 157.56L57.6 165.46C57.6 165.31 57.61 165.23 57.61 165.21C57.65 168.2 58.89 171.13 61.11 173.22C62.21 174.27 63.49 175.14 64.92 175.73C65.62 176.02 66.36 176.25 67.12 176.41C67.5 176.49 67.89 176.55 68.26 176.6C68.3 176.6 68.47 176.62 68.78 176.64C69.17 176.66 69.39 176.67 69.44 176.67C72.57 176.78 75.72 175.71 78.18 173.66C79.4 172.63 80.46 171.38 81.24 169.95C82.05 168.52 82.52 166.91 82.75 165.21C82.76 165.17 82.81 164.81 82.82 164.76C82.96 163.68 83.96 162.92 85.05 163.06C86.1 163.21 86.85 164.16 86.76 165.21C86.76 165.21 86.76 165.22 86.76 165.22C86.98 166.87 87.44 168.41 88.21 169.75C88.96 171.09 90 172.24 91.22 173.17C92.45 174.09 93.84 174.82 95.36 175.26C96.11 175.49 96.88 175.67 97.67 175.79C98.07 175.84 98.48 175.88 98.86 175.91C98.9 175.91 99.08 175.92 99.42 175.94C99.82 175.95 100.03 175.95 100.08 175.95C103.3 175.97 106.49 175.02 108.93 173.17C110.15 172.24 111.19 171.09 111.94 169.74C112.71 168.4 113.17 166.86 113.39 165.21C113.4 165.17 113.45 164.81 113.45 164.77C113.6 163.68 114.6 162.92 115.68 163.06C116.74 163.21 117.49 164.16 117.39 165.21C117.39 165.21 117.39 165.22 117.39 165.22C117.6 166.92 118.07 168.53 118.88 169.97C119.64 171.41 120.69 172.69 121.93 173.7C123.19 174.71 124.58 175.51 126.08 176C126.83 176.25 127.59 176.44 128.37 176.55C128.75 176.61 129.16 176.65 129.53 176.67C129.56 176.67 129.74 176.67 130.05 176.68C130.45 176.68 130.67 176.67 130.71 176.67C133.84 176.58 136.83 175.3 139.03 173.21C140.13 172.18 141.02 170.93 141.63 169.56C141.95 168.89 142.2 168.18 142.37 167.45C142.45 167.12 142.5 166.79 142.55 166.47M149.26 157.69L149.36 165.3L149.37 166.04C149.34 166.63 149.33 166.96 149.32 167.03C149.27 167.64 149.19 168.24 149.08 168.85C148.85 170.05 148.5 171.23 148.03 172.36C147.06 174.61 145.62 176.63 143.86 178.31C142.11 179.99 140 181.27 137.76 182.14C135.5 182.99 133.09 183.38 130.71 183.34C130.66 183.34 130.38 183.32 129.89 183.3C129.32 183.24 129.01 183.21 128.94 183.21C128.34 183.13 127.76 183.04 127.18 182.91C126.02 182.66 124.88 182.3 123.79 181.83C121.62 180.88 119.63 179.54 118.02 177.83C116.4 176.13 115.12 174.13 114.31 171.96C113.53 169.78 113.18 167.46 113.39 165.22C113.39 165.22 113.39 165.22 113.39 165.21C115.79 165.21 117.12 165.21 117.39 165.21C117.61 167.39 117.3 169.69 116.46 171.83C115.61 173.96 114.23 175.9 112.51 177.42C110.81 178.97 108.77 180.09 106.65 180.85C104.52 181.59 102.29 181.93 100.08 181.95C100.03 181.95 99.77 181.94 99.3 181.93C98.78 181.89 98.49 181.88 98.43 181.87C97.85 181.82 97.32 181.76 96.76 181.67C95.66 181.49 94.57 181.23 93.5 180.85C91.39 180.09 89.35 178.98 87.65 177.43C85.93 175.9 84.55 173.97 83.69 171.84C82.85 169.7 82.53 167.4 82.76 165.22C82.76 165.22 82.76 165.22 82.75 165.21C85.16 165.21 86.49 165.21 86.76 165.21C86.99 167.46 86.64 169.78 85.88 171.97C85.08 174.15 83.81 176.18 82.17 177.86C80.55 179.57 78.55 180.91 76.37 181.86C74.19 182.79 71.81 183.28 69.44 183.34C69.38 183.34 69.11 183.34 68.62 183.33C68.04 183.3 67.73 183.28 67.66 183.28C67.05 183.23 66.47 183.16 65.87 183.05C64.7 182.85 63.53 182.53 62.41 182.1C60.16 181.24 58.06 179.97 56.29 178.3C54.53 176.64 53.08 174.61 52.1 172.37C51.1 170.13 50.61 167.65 50.63 165.21C50.63 165.2 50.63 165.15 50.63 165.15C50.63 165.09 50.64 165.02 50.64 164.96C50.68 164.43 50.9 161.8 51.29 157.06C51.28 157.21 51.28 157.29 51.28 157.31C51.31 154.35 51.65 151.33 52.49 148.39C53.32 145.45 54.66 142.61 56.44 140.08C58.23 137.57 60.46 135.4 62.9 133.65C65.34 131.9 67.99 130.56 70.68 129.49C76.09 127.37 81.68 126.32 87.23 125.73C92.78 125.14 98.3 125 103.85 125.15C109.44 125.32 114.99 126.02 120.5 127.33C125.98 128.68 131.43 130.73 136.32 134.05C138.76 135.71 141.05 137.69 142.97 140.06C144.89 142.42 146.47 145.11 147.55 148C148.6 150.9 149.12 153.97 149.23 156.99C149.23 157.08 149.24 157.32 149.26 157.69Z" id="d2BoAjN2W"></path><path d="M97.88 20.02C112.41 20.02 124.52 28.64 124.52 39.27C124.52 45.64 120.26 51.28 113.73 54.78C125.93 55.47 135.55 62.92 135.55 72.02C135.55 78.98 129.91 84.97 121.79 87.71C135.07 92.95 144.21 103.94 144.21 116.65C144.21 134.43 127.89 148.85 105.8 148.85C72.42 148.85 57.56 120.15 57.56 84.57C57.56 81.34 57.56 55.47 57.56 52.23C57.56 34.44 75.79 20.02 97.88 20.02" id="dzLasdxKT"></path><path d="M82.23 26.15C77.25 27.97 72.65 30.76 68.94 34.38C65.26 38 62.49 42.51 61.45 47.39C61.29 48 61.23 48.62 61.12 49.23C61.06 49.85 60.98 50.31 60.95 51.03C60.95 51.1 60.94 51.46 60.92 52.1L60.91 52.23C60.91 52.27 60.91 52.3 60.91 52.3C60.91 52.42 60.91 52.21 60.91 52.26C60.91 52.28 60.91 52.37 60.91 52.53L60.91 53.07L60.91 55.21L60.91 63.8C60.91 74.1 60.91 79.82 60.91 80.96C60.91 83.85 60.89 86.64 61.01 89.41C61.11 92.19 61.34 94.96 61.66 97.71C62.3 103.21 63.4 108.63 65.08 113.83C66.77 119.02 69.06 123.98 72.08 128.39C75.11 132.77 78.86 136.6 83.29 139.41C85.5 140.82 87.86 141.98 90.32 142.91C92.79 143.83 95.37 144.46 97.99 144.9C98.12 144.92 98.78 145.02 99.97 145.19C101.13 145.29 101.78 145.35 101.91 145.36C103.09 145.5 104.82 145.48 106 145.52C108.67 145.5 111.33 145.25 113.93 144.75C119.14 143.79 124.14 141.81 128.41 138.85C132.69 135.91 136.2 131.97 138.38 127.4C140.59 122.87 141.34 117.61 140.61 112.68C139.85 107.71 137.37 103.02 133.88 99.12C130.38 95.21 125.87 92.13 120.94 89.88C120.92 89.88 120.8 89.82 120.78 89.82C119.62 89.29 119.11 87.91 119.64 86.75C119.92 86.13 120.45 85.7 121.04 85.5C121.05 85.5 121.05 85.5 121.05 85.5C121.98 85.1 122.88 84.67 123.76 84.21C124.63 83.72 125.47 83.2 126.25 82.62C127.04 82.06 127.81 81.46 128.47 80.79C129.17 80.14 129.75 79.42 130.3 78.69C130.8 77.93 131.29 77.17 131.62 76.36C132 75.58 132.22 74.73 132.39 73.92C132.41 73.74 132.44 73.57 132.47 73.39C132.48 73.29 132.51 73.23 132.51 73.1C132.52 73.08 132.52 72.94 132.53 72.69C132.56 72.2 132.57 71.92 132.57 71.87C132.56 72.16 132.57 71.94 132.57 72.01C132.57 72.01 132.57 72 132.57 72L132.56 71.98L132.56 71.94L132.56 71.86L132.55 71.7C132.55 71.51 132.54 71.41 132.54 71.38C132.48 70.54 132.31 69.71 132.04 68.9C131.52 67.27 130.57 65.73 129.33 64.37C128.11 62.99 126.59 61.81 124.93 60.8C121.59 58.79 117.64 57.62 113.6 57.11C113.57 57.11 113.37 57.08 113.35 57.08C112.09 56.92 111.19 55.77 111.35 54.51C111.45 53.71 111.96 53.06 112.63 52.73C112.63 52.73 112.63 52.73 112.63 52.73C116.25 50.46 119.3 47.37 120.63 43.79C120.95 42.9 121.16 41.99 121.3 41.09C121.33 40.68 121.4 40.38 121.39 39.71C121.39 39.68 121.39 39.53 121.4 39.27L121.4 39.16C121.4 39.15 121.4 39.15 121.4 39.15C121.4 39.03 121.4 39.3 121.4 39.27C121.4 39.26 121.4 39.26 121.4 39.24L121.39 39.2C121.39 39.1 121.38 39.04 121.38 39.03C121.36 38.81 121.36 38.58 121.33 38.35C121.13 36.56 120.43 34.83 119.4 33.26C117.35 30.08 113.95 27.58 110.16 25.92C108.26 25.09 106.25 24.45 104.19 24.04C103.15 23.83 102.11 23.67 101.05 23.57C100.52 23.51 100.01 23.47 99.51 23.44C99.04 23.41 98.38 23.41 97.82 23.39C92.54 23.39 87.2 24.31 82.23 26.15ZM99.75 16.7C100.42 16.73 101.08 16.77 101.7 16.83C102.98 16.95 104.25 17.13 105.51 17.37C108.03 17.86 110.51 18.61 112.9 19.64C115.28 20.68 117.58 21.99 119.67 23.66C121.73 25.36 123.63 27.35 125.06 29.77C126.47 32.17 127.44 34.95 127.61 37.82C127.64 38.18 127.63 38.54 127.64 38.89C127.64 38.91 127.64 39 127.64 39.16L127.64 39.42L127.63 39.53C127.62 39.79 127.61 39.94 127.6 39.97C127.59 40.47 127.47 41.33 127.36 42.08C127.09 43.48 126.65 44.82 126.07 46.09C124.89 48.62 123.21 50.8 121.27 52.58C119.32 54.35 117.13 55.75 114.83 56.84C114.83 56.84 114.83 56.84 114.83 56.84C114.25 54.21 113.92 52.75 113.86 52.45C118.58 52.45 123.38 53.53 127.72 55.85C129.9 56.98 131.92 58.5 133.68 60.35C135.43 62.21 136.89 64.47 137.74 67.03C138.16 68.3 138.42 69.65 138.5 71C138.5 71.04 138.51 71.21 138.52 71.51L138.52 71.76L138.52 72.17L138.48 72.99C138.47 73.24 138.46 73.38 138.46 73.4C138.45 73.55 138.41 73.76 138.39 73.93C138.37 74.04 138.23 74.92 138.22 75.03C137.91 76.37 137.51 77.65 136.91 78.83C136.36 80.05 135.61 81.12 134.83 82.14C134 83.13 133.14 84.06 132.18 84.87C131.24 85.7 130.22 86.41 129.18 87.07C128.13 87.71 127.04 88.24 125.93 88.73C125.38 88.97 124.81 89.17 124.26 89.39C124.14 89.43 123.57 89.61 122.54 89.92L122.54 89.92C122.61 87.3 122.64 85.84 122.65 85.54C128.34 87.52 133.74 90.68 138.12 95.09C142.55 99.44 145.82 105.22 147.02 111.55C147.33 113.13 147.5 114.74 147.53 116.35C147.53 116.38 147.54 116.51 147.54 116.75L147.54 117.02C147.53 117.34 147.53 117.52 147.53 117.55C147.51 117.93 147.52 118.23 147.49 118.66C147.42 119.5 147.37 120.36 147.25 121.13C146.83 124.31 145.9 127.41 144.56 130.31C141.85 136.12 137.43 140.96 132.27 144.48C127.1 148.01 121.2 150.27 115.15 151.36C112.13 151.91 109.07 152.17 106.02 152.18C104.34 152.13 103.2 152.17 101.53 152.02C100.76 151.95 99.97 151.9 99.2 151.81C98.97 151.78 97.16 151.52 96.93 151.49C93.91 150.98 90.91 150.25 88.01 149.17C85.11 148.08 82.32 146.7 79.7 145.04C74.44 141.71 70.04 137.19 66.57 132.17C63.12 127.13 60.58 121.59 58.72 115.9C56.88 110.21 55.7 104.36 55.01 98.49C54.67 95.56 54.42 92.62 54.32 89.68C54.18 86.73 54.21 83.8 54.21 80.96C54.21 79.82 54.2 74.1 54.2 63.8L54.2 55.21L54.2 53.07L54.2 52.53L54.21 51.89C54.23 51.24 54.24 50.88 54.24 50.81C54.27 50.1 54.37 49.13 54.46 48.34C54.6 47.54 54.7 46.74 54.89 45.95C56.25 39.61 59.78 33.96 64.23 29.59C68.71 25.2 74.13 21.95 79.89 19.84C85.66 17.71 91.78 16.66 97.88 16.66C98.55 16.67 99.05 16.66 99.75 16.7Z" id="fwTB3vtGJ"></path><path d="M99.34 104.94C99.67 108.82 96.94 112.22 93.24 112.54C89.53 112.87 86.25 109.98 85.91 106.1C85.57 102.22 88.31 98.82 92.01 98.5C95.72 98.17 99 101.06 99.34 104.94" id="aEGQdxIWm"></path><path d="M110.6 103.79C110.37 103.55 110.16 103.3 109.94 103.06C109.24 102.34 108.51 101.63 107.75 100.96C106.24 99.61 104.66 98.36 102.98 97.3C101.32 96.23 99.57 95.34 97.78 94.74C96.89 94.44 95.99 94.2 95.08 94.07C94.64 93.99 94.17 93.96 93.75 93.92C93.69 93.92 93.2 93.9 93.14 93.9C92.93 93.89 92.62 93.92 92.37 93.93C91.53 93.97 90.58 94.1 89.71 94.34C88.82 94.58 87.93 94.88 87.07 95.27C85.34 96.04 83.69 97.11 82.13 98.34C80.58 99.58 79.13 100.98 77.78 102.5C77.11 103.26 76.46 104.05 75.84 104.85C75.24 105.64 74.62 106.52 74.14 107.28C74.13 107.03 74.09 105.05 74.09 104.8C74.61 105.57 75.29 106.44 75.95 107.22C76.61 108.03 77.31 108.8 78.04 109.55C79.49 111.04 81.04 112.41 82.69 113.57C84.35 114.73 86.1 115.69 87.9 116.27C88.8 116.58 89.72 116.77 90.62 116.87C91.1 116.93 91.49 116.92 91.88 116.94C91.94 116.94 92.21 116.93 92.7 116.9L92.91 116.89L92.96 116.89C92.97 116.89 92.98 116.89 92.98 116.89C93.08 116.88 92.87 116.9 92.9 116.89C92.9 116.89 92.9 116.89 92.91 116.89L92.99 116.88C93.19 116.85 93.31 116.84 93.33 116.83C96.99 116.36 100.54 114.22 103.63 111.54C105.18 110.2 106.64 108.7 108.01 107.12C108.69 106.32 109.35 105.51 109.98 104.67C110.19 104.39 110.39 104.08 110.6 103.79M114.18 107.89C113.47 108.81 112.73 109.7 111.96 110.57C110.43 112.3 108.79 113.96 106.99 115.47C105.19 116.99 103.24 118.39 101.07 119.51C98.91 120.64 96.51 121.51 93.94 121.8C93.91 121.81 93.75 121.83 93.46 121.86L93.34 121.87L93.14 121.89L92.93 121.89C92.43 121.91 92.15 121.92 92.1 121.92C91.39 121.91 90.68 121.89 90.06 121.8C88.78 121.64 87.52 121.36 86.34 120.94C83.96 120.13 81.82 118.9 79.89 117.51C77.95 116.11 76.21 114.52 74.61 112.84C73.81 111.99 73.04 111.12 72.31 110.22C71.57 109.3 70.9 108.42 70.19 107.37C69.67 106.6 69.68 105.63 70.13 104.88C70.13 104.88 70.13 104.88 70.13 104.88C70.78 103.82 71.4 102.94 72.09 102.02C72.76 101.11 73.47 100.23 74.21 99.37C75.69 97.66 77.31 96.05 79.09 94.58C80.88 93.12 82.85 91.81 85.02 90.8C86.11 90.28 87.25 89.87 88.44 89.55C89.63 89.21 90.82 89.02 92.12 88.93C92.4 88.92 92.63 88.89 92.95 88.89C93.05 88.89 93.85 88.9 93.95 88.9C94.6 88.94 95.21 88.98 95.82 89.08C97.05 89.24 98.23 89.54 99.37 89.91C101.66 90.65 103.78 91.71 105.74 92.93C107.71 94.14 109.52 95.54 111.23 97.03C112.09 97.78 112.91 98.55 113.71 99.35C114.52 100.17 115.26 100.95 116.07 101.92C116.82 102.82 116.86 104.07 116.25 105.01C115.56 106.07 114.89 106.96 114.18 107.89Z" id="arOJK85SB"></path><path d="M57.05 65C57.05 65 58.22 64.77 60.27 64.36C61.32 64.19 62.48 63.83 64.05 63.73C65.57 63.6 67.3 63.35 69.17 63.29C70.11 63.29 71.08 63.29 72.08 63.3C73.09 63.31 74.13 63.27 75.2 63.43C76.26 63.55 77.36 63.67 78.48 63.79C79.04 63.84 79.61 63.94 80.17 64.08C80.73 64.2 81.3 64.33 81.87 64.46C84.2 64.86 86.47 65.76 88.82 66.54C91.06 67.59 93.4 68.56 95.5 69.97C96.58 70.62 97.66 71.27 98.63 72.08C99.6 72.87 100.64 73.58 101.55 74.42C102.45 75.29 103.34 76.14 104.22 76.98C105.08 77.85 105.8 78.81 106.58 79.7C106.95 80.16 107.35 80.59 107.7 81.06C108.02 81.54 108.35 82.01 108.67 82.48C109.29 83.43 109.98 84.32 110.5 85.26C111.52 87.17 112.6 88.93 113.26 90.7C113.63 91.57 113.98 92.4 114.32 93.2C114.61 94.01 114.83 94.79 115.07 95.52C115.54 96.98 115.95 98.26 116.13 99.34C116.59 101.5 116.86 102.73 116.86 102.73C117.16 104.17 116.24 105.58 114.8 105.89C113.36 106.2 111.95 105.28 111.64 103.84C111.64 103.83 111.64 103.82 111.64 103.81C111.63 103.78 111.59 103.58 111.59 103.55C111.59 103.55 111.37 102.44 110.99 100.51C110.85 99.52 110.49 98.38 110.09 97.06C109.89 96.4 109.71 95.69 109.46 94.96C109.17 94.25 108.87 93.5 108.55 92.71C107.99 91.1 107.04 89.53 106.17 87.8C105.72 86.94 105.11 86.15 104.57 85.29C104.29 84.86 104.01 84.43 103.73 84C103.42 83.58 103.07 83.19 102.75 82.77C102.06 81.97 101.44 81.09 100.68 80.31C99.91 79.54 99.13 78.77 98.35 77.99C97.55 77.22 96.63 76.58 95.77 75.86C94.93 75.11 93.97 74.52 93.01 73.92C91.17 72.62 89.08 71.73 87.09 70.75C84.99 70.02 82.97 69.15 80.86 68.76C80.35 68.64 79.84 68.51 79.33 68.39C78.82 68.25 78.32 68.15 77.8 68.1C76.78 67.97 75.79 67.85 74.82 67.72C73.85 67.55 72.89 67.57 71.97 67.55C71.04 67.53 70.15 67.51 69.29 67.49C67.59 67.52 66.05 67.73 64.68 67.81C63.33 67.84 62.03 68.2 61.02 68.35C58.96 68.72 57.79 68.93 57.79 68.93C56.7 69.12 55.66 68.4 55.47 67.32C55.27 66.24 55.98 65.21 57.05 65" id="c69INQgFe"></path></defs><g><g><g><use xlink:href="#bd7v1mXA7" opacity="1" fill="#ffffff" fill-opacity="1"></use><g><use xlink:href="#bd7v1mXA7" opacity="1" fill-opacity="0" stroke="#000000" stroke-width="1" stroke-opacity="0"></use></g></g><g><use xlink:href="#d2BoAjN2W" opacity="1" fill="#1d1d1b" fill-opacity="1"></use><g><use xlink:href="#d2BoAjN2W" opacity="1" fill-opacity="0" stroke="#000000" stroke-width="1" stroke-opacity="0"></use></g></g><g><use xlink:href="#dzLasdxKT" opacity="1" fill="#ffffff" fill-opacity="1"></use><g><use xlink:href="#dzLasdxKT" opacity="1" fill-opacity="0" stroke="#000000" stroke-width="1" stroke-opacity="0"></use></g></g><g><use xlink:href="#fwTB3vtGJ" opacity="1" fill="#1d1d1b" fill-opacity="1"></use><g><use xlink:href="#fwTB3vtGJ" opacity="1" fill-opacity="0" stroke="#000000" stroke-width="1" stroke-opacity="0"></use></g></g><g><use xlink:href="#aEGQdxIWm" opacity="1" fill="#1d1d1b" fill-opacity="1"></use><g><use xlink:href="#aEGQdxIWm" opacity="1" fill-opacity="0" stroke="#000000" stroke-width="1" stroke-opacity="0"></use></g></g><g><use xlink:href="#arOJK85SB" opacity="1" fill="#1d1d1b" fill-opacity="1"></use><g><use xlink:href="#arOJK85SB" opacity="1" fill-opacity="0" stroke="#000000" stroke-width="1" stroke-opacity="0"></use></g></g><g><use xlink:href="#c69INQgFe" opacity="1" fill="#1d1d1b" fill-opacity="1"></use><g><use xlink:href="#c69INQgFe" opacity="1" fill-opacity="0" stroke="#000000" stroke-width="1" stroke-opacity="0"></use></g></g></g></g></svg>