<?xml version="1.0" encoding="UTF-8" standalone="no"?>
<!DOCTYPE svg PUBLIC "-//W3C//DTD SVG 1.1//EN" "http://www.w3.org/Graphics/SVG/1.1/DTD/svg11.dtd">
<svg version="1.1" xmlns="http://www.w3.org/2000/svg" xmlns:xlink="http://www.w3.org/1999/xlink" preserveAspectRatio="xMidYMid meet" viewBox="0 0 200 200" width="200" height="200"><defs><path d="M105.85 28.57C120.38 28.57 132.49 39.27 132.49 52.47C132.49 60.38 128.23 67.38 121.7 71.73C133.9 72.59 143.52 81.83 143.52 93.14C143.52 101.79 137.88 109.22 129.76 112.63C143.04 119.14 152.18 132.78 152.18 148.56C152.18 170.65 135.86 188.56 113.77 188.56C80.39 188.56 65.53 152.91 65.53 108.73C65.53 104.72 65.53 72.58 65.53 68.56C65.53 46.48 83.76 28.57 105.85 28.57" id="d1gQWqyDmA"></path><path d="M105.85 31.94C99.85 31.98 93.9 33.47 88.58 36.23C83.28 39.03 78.72 43.17 75.27 48.05C73.67 50.58 72.15 53.18 71.18 56.01C70.94 56.72 70.61 57.4 70.44 58.13C70.39 58.34 69.93 60.08 69.88 60.3C69.65 61.02 69.55 61.73 69.45 62.43C69.42 62.64 69.14 64.33 69.11 64.54C69.04 65.32 69.02 66.16 68.97 66.97C68.97 67.05 68.94 67.46 68.91 68.19L68.89 68.5L68.88 68.65C68.88 68.7 68.88 68.72 68.88 68.73C68.89 68.41 68.88 68.68 68.88 68.63C68.88 68.67 68.88 68.88 68.88 69.24L68.88 74.14L68.88 83.94C68.88 95.7 68.88 102.24 68.88 103.55C68.87 106.83 68.87 110.08 68.93 113.27C69.03 116.47 69.16 119.68 69.43 122.86C69.93 129.25 70.83 135.58 72.21 141.78C72.91 144.87 73.71 147.94 74.7 150.93C75.66 153.92 76.78 156.86 78.11 159.68C80.69 165.35 84.09 170.59 88.35 174.87C92.6 179.15 97.84 182.27 103.58 183.87C104.3 184.05 105.02 184.25 105.75 184.41C105.97 184.45 107.74 184.76 107.96 184.8C109.42 184.97 110.74 185.16 112.47 185.18C112.55 185.18 112.96 185.19 113.69 185.22C113.78 185.22 113.84 185.22 113.85 185.22C113.9 185.23 113.68 185.22 113.8 185.22C113.81 185.22 113.83 185.22 113.88 185.22L114.16 185.2L114.71 185.17C116.06 185.1 116.81 185.06 116.96 185.05C117.71 185.05 118.43 184.84 119.17 184.75C119.91 184.62 120.66 184.56 121.38 184.38C121.59 184.32 123.32 183.86 123.53 183.8C123.89 183.7 124.26 183.63 124.61 183.51C124.68 183.48 125.02 183.35 125.65 183.11L127.73 182.32L129.72 181.32C130.32 181.02 130.65 180.85 130.71 180.82C131.04 180.64 131.34 180.43 131.66 180.23C131.84 180.11 133.35 179.15 133.53 179.04C134.14 178.6 134.7 178.12 135.29 177.67C135.88 177.21 136.47 176.76 136.98 176.22C137.14 176.07 138.43 174.83 138.59 174.67C139.11 174.14 139.56 173.55 140.05 172.99C141.08 171.91 141.85 170.62 142.73 169.42C143.16 168.81 143.48 168.13 143.86 167.49C144.21 166.83 144.64 166.22 144.91 165.52C145.51 164.14 146.18 162.81 146.62 161.37C146.85 160.66 147.13 159.96 147.33 159.24C147.36 159.09 147.54 158.36 147.86 157.05L148.12 155.95L148.28 154.88C148.47 153.6 148.58 152.89 148.6 152.74C148.69 152 148.7 151.13 148.75 150.33C148.76 150.25 148.78 149.84 148.82 149.11L148.85 148.5C148.85 148.45 148.85 148.43 148.85 148.42C148.85 148.7 148.85 148.46 148.85 148.51C148.85 148.5 148.85 148.45 148.85 148.36L148.84 148.08L148.79 145.83C148.66 144.49 148.59 143.74 148.58 143.59C147.85 137.63 145.65 131.86 142.23 126.86C138.78 121.88 134.13 117.7 128.74 114.73C128.72 114.72 128.63 114.67 128.62 114.66C127.5 114.04 127.09 112.63 127.71 111.51C127.97 111.02 128.39 110.67 128.86 110.48C128.86 110.48 128.86 110.48 128.87 110.48C129.85 109.96 130.82 109.42 131.73 108.8C132.64 108.18 133.51 107.52 134.29 106.76C135.11 106.04 135.84 105.24 136.52 104.41C137.18 103.57 137.79 102.69 138.29 101.75C138.54 101.29 138.79 100.82 138.99 100.33C139.22 99.86 139.4 99.37 139.57 98.87C139.93 97.89 140.15 96.86 140.33 95.84C140.37 95.34 140.46 94.96 140.49 94.37C140.49 94.31 140.5 94 140.52 93.45L140.53 93.22L140.53 93.11L140.54 93.05C140.54 93.03 140.54 93.02 140.54 93.02C140.54 92.99 140.53 93.24 140.53 93.13C140.53 93.13 140.53 93.12 140.53 93.12C140.52 92.88 140.51 92.75 140.51 92.73C140.46 92.21 140.47 91.69 140.4 91.17C140.38 91.07 140.3 90.56 140.15 89.63C139.91 88.73 139.77 88.22 139.75 88.12C139.6 87.63 139.38 87.15 139.21 86.65C138.8 85.7 138.33 84.76 137.75 83.87C137.5 83.41 137.17 82.99 136.85 82.57C136.54 82.13 136.21 81.72 135.83 81.34C135.14 80.53 134.34 79.81 133.52 79.11C133.09 78.79 132.68 78.43 132.24 78.12C132.1 78.03 131.01 77.32 130.88 77.23C129.92 76.71 128.96 76.19 127.94 75.79C127.44 75.54 126.92 75.39 126.4 75.2C125.88 75.01 125.35 74.84 124.81 74.72C123.74 74.42 122.64 74.26 121.54 74.06C121.54 74.06 121.54 74.06 121.54 74.06C120.26 73.98 119.29 72.89 119.36 71.61C119.4 70.96 119.71 70.38 120.17 69.99C120.19 69.97 120.27 69.91 120.41 69.79L121.77 68.64L122.45 68.07L123.07 67.43L124.29 66.16C124.92 65.33 125.27 64.86 125.34 64.77C125.72 64.33 126.03 63.83 126.31 63.33C126.6 62.83 126.94 62.36 127.19 61.85C127.63 60.79 128.18 59.78 128.44 58.68C128.57 58.14 128.83 57.58 128.88 57.07C128.95 56.56 129.05 56.06 129.15 55.55C129.15 55.53 129.18 55.4 129.23 55.17L129.25 54.69L129.29 53.71L129.34 52.73L129.35 52.48L129.35 52.36L129.36 52.3C129.36 52.28 129.36 52.27 129.36 52.27C129.35 52.36 129.37 52.05 129.35 52.47C129.35 52.46 129.35 52.46 129.35 52.45L129.31 52.04L129.18 50.37C128.98 49.39 128.87 48.85 128.85 48.74C128.77 48.19 128.53 47.68 128.38 47.15C128.24 46.61 128.02 46.1 127.78 45.6C127.38 44.56 126.8 43.6 126.23 42.65C126.14 42.51 125.36 41.41 125.27 41.27C124.92 40.83 124.54 40.42 124.18 39.99C123.83 39.54 123.39 39.18 123 38.77C122.6 38.37 122.19 37.98 121.74 37.64C120.88 36.89 119.92 36.27 118.97 35.64C117.97 35.09 116.99 34.49 115.92 34.07C114.89 33.56 113.77 33.26 112.69 32.89C111.57 32.63 110.43 32.32 109.38 32.22C108.43 32.01 106.96 32.01 105.69 31.93C105.72 31.93 105.82 31.94 105.85 31.94ZM106 25.2C107.34 25.28 108.5 25.24 110.12 25.5C111.68 25.65 113.07 26.01 114.49 26.34C115.88 26.78 117.3 27.18 118.63 27.8C119.99 28.34 121.26 29.08 122.55 29.79C123.78 30.6 125.01 31.4 126.12 32.38C126.71 32.83 127.25 33.33 127.77 33.86C128.29 34.39 128.85 34.88 129.3 35.47C129.77 36.05 130.26 36.61 130.7 37.2C130.83 37.39 131.82 38.88 131.95 39.07C132.69 40.36 133.43 41.67 133.94 43.09C134.22 43.78 134.48 44.49 134.65 45.22C134.83 45.95 135.09 46.66 135.18 47.41C135.21 47.56 135.32 48.3 135.52 49.64L135.61 51.89L135.63 52.45L135.62 52.72L135.62 52.78L135.6 52.9L135.58 53.15L135.5 54.12L135.41 55.1L135.37 55.59C135.3 55.94 135.26 56.13 135.25 56.17C135.09 56.94 134.93 57.72 134.74 58.49C134.58 59.28 134.26 59.91 134.02 60.62C133.56 62.04 132.79 63.3 132.12 64.6C131.75 65.24 131.3 65.82 130.89 66.42C130.48 67.02 130.06 67.62 129.55 68.14C129.45 68.24 128.96 68.78 128.08 69.74L126.46 71.17L125.65 71.87L124.76 72.48L122.99 73.68L121.86 69.41C121.86 69.41 121.87 69.41 121.87 69.41C123.2 69.48 124.55 69.55 125.87 69.82C126.54 69.91 127.19 70.07 127.85 70.25C128.5 70.42 129.17 70.57 129.8 70.82C131.09 71.24 132.32 71.82 133.55 72.42C133.73 72.53 135.15 73.35 135.33 73.46C135.91 73.82 136.46 74.24 137.02 74.63C138.11 75.46 139.18 76.35 140.11 77.38C140.61 77.87 141.06 78.4 141.48 78.96C141.92 79.5 142.35 80.04 142.72 80.65C143.51 81.8 144.14 83.06 144.71 84.35C144.96 85 145.24 85.65 145.45 86.33C145.49 86.46 145.68 87.14 146.01 88.37C146.21 89.63 146.32 90.33 146.34 90.47C146.43 91.17 146.43 91.88 146.48 92.58C146.48 92.62 146.49 92.79 146.5 93.11L146.48 93.69C146.45 94.25 146.44 94.55 146.44 94.61C146.4 95.25 146.28 96.08 146.18 96.8C145.91 98.19 145.57 99.56 145.05 100.87C144.58 102.2 143.93 103.45 143.2 104.64C142.48 105.83 141.63 106.94 140.72 107.98C139.79 109 138.82 109.97 137.74 110.82C136.68 111.68 135.52 112.42 134.35 113.09C133.17 113.76 131.93 114.3 130.67 114.78C130.67 114.78 130.67 114.78 130.67 114.78C130.74 112.23 130.78 110.82 130.79 110.54C137.11 113.36 142.73 117.84 146.97 123.43C151.25 128.99 153.96 135.75 155.04 142.72C155.06 142.89 155.16 143.77 155.36 145.35L155.49 148L155.51 148.33C155.51 148.43 155.51 148.48 155.51 148.49C155.51 148.59 155.52 148.4 155.51 148.73C155.51 148.74 155.51 148.76 155.51 148.81L155.48 149.42C155.45 150.15 155.44 150.56 155.43 150.64C155.39 151.47 155.4 152.24 155.31 153.12C155.28 153.3 155.17 154.21 154.95 155.84L154.77 157.19L154.48 158.49C154.12 160.03 153.92 160.89 153.88 161.06C153.66 161.92 153.34 162.75 153.08 163.59C150.86 170.32 146.84 176.44 141.59 181.25C140.96 181.89 140.25 182.43 139.55 182.98C138.84 183.52 138.15 184.09 137.43 184.6C137.2 184.75 135.39 185.89 135.17 186.03C134.79 186.26 134.42 186.51 134.03 186.73C133.95 186.77 133.55 186.97 132.83 187.33L130.43 188.51L127.93 189.45C127.18 189.73 126.76 189.88 126.67 189.91C126.25 190.06 125.82 190.15 125.39 190.27C125.13 190.33 123.06 190.87 122.8 190.94C121.94 191.14 121.05 191.23 120.18 191.38C119.3 191.48 118.43 191.7 117.54 191.71C117.36 191.72 116.48 191.76 114.89 191.84L114.23 191.87L113.89 191.88C113.84 191.89 113.82 191.89 113.81 191.89C113.88 191.89 113.62 191.89 113.62 191.89C113.61 191.89 113.56 191.89 113.46 191.88C112.73 191.86 112.32 191.84 112.24 191.84C110.69 191.83 108.77 191.62 106.99 191.4C106.73 191.35 104.64 190.98 104.38 190.94C103.51 190.75 102.65 190.51 101.79 190.3C94.93 188.4 88.59 184.6 83.64 179.61C78.67 174.61 74.88 168.69 72.04 162.49C70.59 159.39 69.38 156.21 68.34 152.99C67.28 149.78 66.43 146.52 65.68 143.24C64.22 136.68 63.28 130.04 62.76 123.4C62.47 120.08 62.34 116.75 62.24 113.43C62.17 110.08 62.17 106.8 62.18 103.55C62.18 102.24 62.17 95.7 62.17 83.94L62.17 74.14L62.17 69.24L62.17 68.63L62.2 67.85C62.24 67.11 62.26 66.7 62.26 66.62C62.31 65.8 62.33 65.01 62.4 64.16C62.89 60.46 63.58 56.97 64.88 53.68C66.04 50.32 67.82 47.22 69.73 44.25C73.79 38.46 79.18 33.59 85.44 30.28C91.71 27.01 98.77 25.24 105.85 25.2C105.88 25.2 105.97 25.2 106 25.2Z" id="b5RP7EftW"></path><path d="M101.63 89.23C101.63 89.23 101.81 91.65 101.95 95.27C101.99 97.08 102.1 99.2 102.11 101.46C102.14 103.73 102.16 106.15 102.19 108.56C102.16 110.98 102.14 113.4 102.11 115.66C102.09 117.93 101.99 120.04 101.94 121.85C101.89 123.67 101.78 125.18 101.74 126.23C101.67 127.29 101.63 127.89 101.63 127.89C101.53 129.43 100.21 130.59 98.68 130.49C97.26 130.4 96.16 129.27 96.08 127.89C96.08 127.89 96.04 127.29 95.97 126.23C95.92 125.18 95.82 123.67 95.77 121.85C95.72 120.04 95.62 117.93 95.6 115.66C95.57 113.4 95.55 110.98 95.52 108.56C95.55 106.15 95.57 103.73 95.6 101.46C95.61 99.2 95.72 97.08 95.76 95.27C95.9 91.65 96.08 89.23 96.08 89.23C96.19 87.7 97.53 86.54 99.06 86.66C100.45 86.76 101.53 87.88 101.63 89.23" id="a2iALqjxK7"></path><path d="M79.86 105.79C79.86 105.79 80.45 105.75 81.49 105.68C82.53 105.63 84.01 105.53 85.79 105.47C87.57 105.43 89.65 105.33 91.88 105.3C94.1 105.28 96.48 105.26 98.85 105.23C101.23 105.26 103.6 105.28 105.83 105.3C108.06 105.32 110.13 105.43 111.92 105.47C115.48 105.61 117.85 105.79 117.85 105.79C119.39 105.9 120.54 107.24 120.42 108.77C120.32 110.16 119.2 111.24 117.85 111.34C117.85 111.34 115.48 111.52 111.92 111.65C110.13 111.7 108.06 111.81 105.83 111.82C103.6 111.85 101.23 111.87 98.85 111.89C96.48 111.87 94.1 111.84 91.88 111.82C89.65 111.8 87.57 111.7 85.79 111.65C84.01 111.6 82.53 111.49 81.49 111.45C80.45 111.38 79.86 111.34 79.86 111.34C78.32 111.24 77.16 109.91 77.26 108.38C77.35 106.97 78.48 105.87 79.86 105.79" id="a2wYaVDM54"></path></defs><g><g><g><use xlink:href="#d1gQWqyDmA" opacity="1" fill="#ffffff" fill-opacity="1"></use><g><use xlink:href="#d1gQWqyDmA" opacity="1" fill-opacity="0" stroke="#000000" stroke-width="1" stroke-opacity="0"></use></g></g><g><use xlink:href="#b5RP7EftW" opacity="1" fill="#1d1d1b" fill-opacity="1"></use><g><use xlink:href="#b5RP7EftW" opacity="1" fill-opacity="0" stroke="#000000" stroke-width="1" stroke-opacity="0"></use></g></g><g><use xlink:href="#a2iALqjxK7" opacity="1" fill="#1d1d1b" fill-opacity="1"></use><g><use xlink:href="#a2iALqjxK7" opacity="1" fill-opacity="0" stroke="#000000" stroke-width="1" stroke-opacity="0"></use></g></g><g><use xlink:href="#a2wYaVDM54" opacity="1" fill="#1d1d1b" fill-opacity="1"></use><g><use xlink:href="#a2wYaVDM54" opacity="1" fill-opacity="0" stroke="#000000" stroke-width="1" stroke-opacity="0"></use></g></g></g></g></svg>