<?xml version="1.0" encoding="UTF-8" standalone="no"?>
<!DOCTYPE svg PUBLIC "-//W3C//DTD SVG 1.1//EN" "http://www.w3.org/Graphics/SVG/1.1/DTD/svg11.dtd">
<svg version="1.1" xmlns="http://www.w3.org/2000/svg" xmlns:xlink="http://www.w3.org/1999/xlink" preserveAspectRatio="xMidYMid meet" viewBox="0 0 200 200" width="200" height="200"><defs><path d="M146.03 165.21C146.03 173.38 139.17 180.01 130.71 180.01C122.25 180.01 115.39 173.38 115.39 165.21C115.39 173.38 108.53 178.95 100.07 178.95C91.61 178.95 84.76 173.38 84.76 165.21C84.76 173.38 77.9 180.01 69.44 180.01C60.98 180.01 54.12 173.38 54.12 165.21C54.18 164.42 54.64 158.1 54.69 157.31C54.69 134.83 75 127.43 100.17 127.43C125.34 127.43 145.85 137.48 145.85 157.83C145.88 159.31 145.99 163.74 146.03 165.21Z" id="bbmKpsOCn"></path><path d="M142.55 166.47L142.54 165.3C142.47 160.42 142.43 157.71 142.42 157.16C142.39 154.76 142.01 152.42 141.3 150.18C140.58 147.95 139.47 145.86 138.05 143.94C136.63 142.02 134.85 140.34 132.89 138.83C128.95 135.81 124.19 133.68 119.2 132.26C114.21 130.78 108.93 130.12 103.69 129.86C98.39 129.62 93.03 129.86 87.82 130.57C85.21 130.93 82.64 131.46 80.13 132.12C77.62 132.79 75.18 133.62 72.89 134.68C68.28 136.77 64.3 139.81 61.71 143.71C59.15 147.63 58.04 152.38 58.11 157.31C58.11 157.32 58.11 157.38 58.1 157.48L58.1 157.56L57.6 165.46C57.6 165.31 57.61 165.23 57.61 165.21C57.65 168.2 58.89 171.13 61.11 173.22C62.21 174.27 63.49 175.14 64.92 175.73C65.62 176.02 66.36 176.25 67.12 176.41C67.5 176.49 67.89 176.55 68.26 176.6C68.3 176.6 68.47 176.62 68.78 176.64C69.17 176.66 69.39 176.67 69.44 176.67C72.57 176.78 75.72 175.71 78.18 173.66C79.4 172.63 80.46 171.38 81.24 169.95C82.05 168.52 82.52 166.91 82.75 165.21C82.76 165.17 82.81 164.81 82.82 164.76C82.96 163.68 83.96 162.92 85.05 163.06C86.1 163.21 86.85 164.16 86.76 165.21C86.76 165.21 86.76 165.22 86.76 165.22C86.98 166.87 87.44 168.41 88.21 169.75C88.96 171.09 90 172.24 91.22 173.17C92.45 174.09 93.84 174.82 95.36 175.26C96.11 175.49 96.88 175.67 97.67 175.79C98.07 175.84 98.48 175.88 98.86 175.91C98.9 175.91 99.08 175.92 99.42 175.94C99.82 175.95 100.03 175.95 100.08 175.95C103.3 175.97 106.49 175.02 108.93 173.17C110.15 172.24 111.19 171.09 111.94 169.74C112.71 168.4 113.17 166.86 113.39 165.21C113.4 165.17 113.45 164.81 113.45 164.77C113.6 163.68 114.6 162.92 115.68 163.06C116.74 163.21 117.49 164.16 117.39 165.21C117.39 165.21 117.39 165.22 117.39 165.22C117.6 166.92 118.07 168.53 118.88 169.97C119.64 171.41 120.69 172.69 121.93 173.7C123.19 174.71 124.58 175.51 126.08 176C126.83 176.25 127.59 176.44 128.37 176.55C128.75 176.61 129.16 176.65 129.53 176.67C129.56 176.67 129.74 176.67 130.05 176.68C130.45 176.68 130.67 176.67 130.71 176.67C133.84 176.58 136.83 175.3 139.03 173.21C140.13 172.18 141.02 170.93 141.63 169.56C141.95 168.89 142.2 168.18 142.37 167.45C142.45 167.12 142.5 166.79 142.55 166.47M149.26 157.69L149.36 165.3L149.37 166.04C149.34 166.63 149.33 166.96 149.32 167.03C149.27 167.64 149.19 168.24 149.08 168.85C148.85 170.05 148.5 171.23 148.03 172.36C147.06 174.61 145.62 176.63 143.86 178.31C142.11 179.99 140 181.27 137.76 182.14C135.5 182.99 133.09 183.38 130.71 183.34C130.66 183.34 130.38 183.32 129.89 183.3C129.32 183.24 129.01 183.21 128.94 183.21C128.34 183.13 127.76 183.04 127.18 182.91C126.02 182.66 124.88 182.3 123.79 181.83C121.62 180.88 119.63 179.54 118.02 177.83C116.4 176.13 115.12 174.13 114.31 171.96C113.53 169.78 113.18 167.46 113.39 165.22C113.39 165.22 113.39 165.22 113.39 165.21C115.79 165.21 117.12 165.21 117.39 165.21C117.61 167.39 117.3 169.69 116.46 171.83C115.61 173.96 114.23 175.9 112.51 177.42C110.81 178.97 108.77 180.09 106.65 180.85C104.52 181.59 102.29 181.93 100.08 181.95C100.03 181.95 99.77 181.94 99.3 181.93C98.78 181.89 98.49 181.88 98.43 181.87C97.85 181.82 97.32 181.76 96.76 181.67C95.66 181.49 94.57 181.23 93.5 180.85C91.39 180.09 89.35 178.98 87.65 177.43C85.93 175.9 84.55 173.97 83.69 171.84C82.85 169.7 82.53 167.4 82.76 165.22C82.76 165.22 82.76 165.22 82.75 165.21C85.16 165.21 86.49 165.21 86.76 165.21C86.99 167.46 86.64 169.78 85.88 171.97C85.08 174.15 83.81 176.18 82.17 177.86C80.55 179.57 78.55 180.91 76.37 181.86C74.19 182.79 71.81 183.28 69.44 183.34C69.38 183.34 69.11 183.34 68.62 183.33C68.04 183.3 67.73 183.28 67.66 183.28C67.05 183.23 66.47 183.16 65.87 183.05C64.7 182.85 63.53 182.53 62.41 182.1C60.16 181.24 58.06 179.97 56.29 178.3C54.53 176.64 53.08 174.61 52.1 172.37C51.1 170.13 50.61 167.65 50.63 165.21C50.63 165.2 50.63 165.15 50.63 165.15C50.63 165.09 50.64 165.02 50.64 164.96C50.68 164.43 50.9 161.8 51.29 157.06C51.28 157.21 51.28 157.29 51.28 157.31C51.31 154.35 51.65 151.33 52.49 148.39C53.32 145.45 54.66 142.61 56.44 140.08C58.23 137.57 60.46 135.4 62.9 133.65C65.34 131.9 67.99 130.56 70.68 129.49C76.09 127.37 81.68 126.32 87.23 125.73C92.78 125.14 98.3 125 103.85 125.15C109.44 125.32 114.99 126.02 120.5 127.33C125.98 128.68 131.43 130.73 136.32 134.05C138.76 135.71 141.05 137.69 142.97 140.06C144.89 142.42 146.47 145.11 147.55 148C148.6 150.9 149.12 153.97 149.23 156.99C149.23 157.08 149.24 157.32 149.26 157.69Z" id="bGapjMquq"></path><path d="M97.84 20.02C112.38 20.02 124.49 28.64 124.49 39.27C124.49 45.64 120.23 51.28 113.69 54.78C125.9 55.47 135.51 62.92 135.51 72.02C135.51 78.98 129.87 84.97 121.76 87.71C135.03 92.95 144.18 103.94 144.18 116.65C144.18 134.43 127.85 148.85 105.76 148.85C72.38 148.85 57.52 120.15 57.52 84.57C57.52 81.34 57.52 55.47 57.52 52.23C57.52 34.44 75.75 20.02 97.84 20.02" id="a1PkuIsO04"></path><path d="M82.19 26.15C77.22 27.97 72.61 30.76 68.91 34.38C65.22 38 62.46 42.51 61.42 47.39C61.26 48 61.19 48.62 61.08 49.23C61.02 49.85 60.95 50.31 60.92 51.03C60.92 51.1 60.9 51.46 60.88 52.1L60.88 52.23C60.88 52.27 60.88 52.3 60.88 52.3C60.88 52.42 60.88 52.21 60.88 52.26C60.88 52.28 60.88 52.37 60.88 52.53L60.88 53.07L60.88 55.21L60.88 63.8C60.87 74.1 60.87 79.82 60.87 80.96C60.88 83.85 60.85 86.64 60.98 89.41C61.07 92.19 61.31 94.96 61.62 97.71C62.27 103.21 63.37 108.63 65.05 113.83C66.74 119.02 69.03 123.98 72.04 128.39C75.07 132.77 78.83 136.6 83.26 139.41C85.47 140.82 87.83 141.98 90.29 142.91C92.75 143.83 95.34 144.46 97.96 144.9C98.09 144.92 98.75 145.02 99.94 145.19C101.1 145.29 101.74 145.35 101.87 145.36C103.06 145.5 104.79 145.48 105.96 145.52C108.63 145.5 111.3 145.25 113.9 144.75C119.11 143.79 124.1 141.81 128.38 138.85C132.65 135.91 136.17 131.97 138.34 127.4C140.55 122.87 141.31 117.61 140.57 112.68C139.81 107.71 137.33 103.02 133.85 99.12C130.35 95.21 125.83 92.13 120.9 89.88C120.89 89.88 120.76 89.82 120.75 89.82C119.59 89.29 119.07 87.91 119.6 86.75C119.88 86.13 120.41 85.7 121.01 85.5C121.01 85.5 121.01 85.5 121.01 85.5C121.94 85.1 122.85 84.67 123.73 84.21C124.59 83.72 125.44 83.2 126.22 82.62C127.01 82.06 127.77 81.46 128.44 80.79C129.13 80.14 129.72 79.42 130.27 78.69C130.76 77.93 131.25 77.17 131.59 76.36C131.97 75.58 132.19 74.73 132.36 73.92C132.38 73.74 132.4 73.57 132.43 73.39C132.45 73.29 132.47 73.23 132.48 73.1C132.48 73.08 132.49 72.94 132.5 72.69C132.52 72.2 132.53 71.92 132.54 71.87C132.53 72.16 132.53 71.94 132.53 72.01C132.53 72.01 132.53 72 132.53 72L132.53 71.98L132.53 71.94L132.52 71.86L132.52 71.7C132.51 71.51 132.51 71.41 132.51 71.38C132.45 70.54 132.28 69.71 132.01 68.9C131.49 67.27 130.53 65.73 129.3 64.37C128.07 62.99 126.55 61.81 124.89 60.8C121.55 58.79 117.61 57.62 113.56 57.11C113.54 57.11 113.34 57.08 113.31 57.08C112.05 56.92 111.16 55.77 111.32 54.51C111.42 53.71 111.92 53.06 112.59 52.73C112.59 52.73 112.59 52.73 112.59 52.73C116.21 50.46 119.27 47.37 120.6 43.79C120.92 42.9 121.13 41.99 121.27 41.09C121.29 40.68 121.36 40.38 121.36 39.71C121.36 39.68 121.36 39.53 121.36 39.27L121.37 39.16C121.37 39.15 121.37 39.15 121.37 39.15C121.37 39.03 121.36 39.3 121.36 39.27C121.36 39.26 121.36 39.26 121.36 39.24L121.36 39.2C121.35 39.1 121.35 39.04 121.35 39.03C121.32 38.81 121.33 38.58 121.29 38.35C121.1 36.56 120.4 34.83 119.37 33.26C117.32 30.08 113.91 27.58 110.13 25.92C108.23 25.09 106.22 24.45 104.15 24.04C103.12 23.83 102.07 23.67 101.02 23.57C100.48 23.51 99.97 23.47 99.48 23.44C99.01 23.41 98.34 23.41 97.78 23.39C92.5 23.39 87.17 24.31 82.19 26.15ZM99.71 16.7C100.38 16.73 101.04 16.77 101.67 16.83C102.94 16.95 104.21 17.13 105.47 17.37C107.99 17.86 110.47 18.61 112.86 19.64C115.25 20.68 117.54 21.99 119.63 23.66C121.7 25.36 123.6 27.35 125.03 29.77C126.44 32.17 127.41 34.95 127.57 37.82C127.61 38.18 127.59 38.54 127.61 38.89C127.61 38.91 127.61 39 127.61 39.16L127.61 39.42L127.6 39.53C127.58 39.79 127.57 39.94 127.57 39.97C127.56 40.47 127.44 41.33 127.32 42.08C127.05 43.48 126.61 44.82 126.04 46.09C124.86 48.62 123.18 50.8 121.23 52.58C119.28 54.35 117.09 55.75 114.8 56.84C114.8 56.84 114.8 56.84 114.8 56.84C114.21 54.21 113.89 52.75 113.83 52.45C118.55 52.45 123.35 53.53 127.68 55.85C129.86 56.98 131.88 58.5 133.65 60.35C135.4 62.21 136.85 64.47 137.71 67.03C138.13 68.3 138.38 69.65 138.46 71C138.47 71.04 138.47 71.21 138.48 71.51L138.49 71.76L138.49 72.17L138.44 72.99C138.43 73.24 138.42 73.38 138.42 73.4C138.41 73.55 138.38 73.76 138.35 73.93C138.34 74.04 138.2 74.92 138.18 75.03C137.88 76.37 137.48 77.65 136.88 78.83C136.33 80.05 135.58 81.12 134.8 82.14C133.97 83.13 133.1 84.06 132.14 84.87C131.2 85.7 130.19 86.41 129.15 87.07C128.1 87.71 127.01 88.24 125.9 88.73C125.35 88.97 124.78 89.17 124.22 89.39C124.11 89.43 123.54 89.61 122.51 89.92L122.51 89.92C122.57 87.3 122.61 85.84 122.61 85.54C128.3 87.52 133.7 90.68 138.09 95.09C142.51 99.44 145.78 105.22 146.99 111.55C147.29 113.13 147.46 114.74 147.5 116.35C147.5 116.38 147.5 116.51 147.51 116.75L147.5 117.02C147.5 117.34 147.49 117.52 147.49 117.55C147.48 117.93 147.49 118.23 147.45 118.66C147.39 119.5 147.34 120.36 147.21 121.13C146.8 124.31 145.86 127.41 144.52 130.31C141.82 136.12 137.4 140.96 132.24 144.48C127.07 148.01 121.16 150.27 115.12 151.36C112.1 151.91 109.04 152.17 105.99 152.18C104.31 152.13 103.16 152.17 101.5 152.02C100.72 151.95 99.93 151.9 99.16 151.81C98.94 151.78 97.12 151.52 96.89 151.49C93.88 150.98 90.87 150.25 87.97 149.17C85.08 148.08 82.28 146.7 79.66 145.04C74.41 141.71 70 137.19 66.53 132.17C63.08 127.13 60.54 121.59 58.69 115.9C56.84 110.21 55.67 104.36 54.97 98.49C54.64 95.56 54.39 92.62 54.29 89.68C54.15 86.73 54.18 83.8 54.17 80.96C54.17 79.82 54.17 74.1 54.17 63.8L54.17 55.21L54.17 53.07L54.17 52.53L54.17 51.89C54.19 51.24 54.21 50.88 54.21 50.81C54.23 50.1 54.34 49.13 54.43 48.34C54.56 47.54 54.66 46.74 54.86 45.95C56.22 39.61 59.74 33.96 64.2 29.59C68.68 25.2 74.1 21.95 79.86 19.84C85.62 17.71 91.74 16.66 97.84 16.66C98.51 16.67 99.02 16.66 99.71 16.7Z" id="h3dxlJj88x"></path><path d="M93.63 65.11C93.63 65.11 93.81 67.52 93.94 71.15C93.99 72.96 94.09 75.07 94.11 77.34C94.13 79.61 94.16 82.02 94.18 84.44C94.16 86.86 94.13 89.27 94.11 91.54C94.09 93.8 93.98 95.92 93.94 97.73C93.89 99.54 93.78 101.05 93.73 102.11C93.67 103.17 93.63 103.77 93.63 103.77C93.53 105.31 92.2 106.47 90.67 106.37C89.26 106.28 88.16 105.15 88.07 103.77C88.07 103.77 88.03 103.17 87.97 102.11C87.92 101.05 87.81 99.54 87.76 97.73C87.72 95.92 87.61 93.8 87.59 91.54C87.57 89.27 87.54 86.86 87.52 84.44C87.54 82.02 87.57 79.61 87.59 77.34C87.61 75.07 87.71 72.96 87.76 71.15C87.89 67.52 88.07 65.11 88.07 65.11C88.19 63.57 89.52 62.42 91.06 62.53C92.45 62.64 93.53 63.75 93.63 65.11" id="b2Tt6SPqW5"></path><path d="M71.85 81.66C71.85 81.66 72.44 81.62 73.48 81.55C74.52 81.51 76.01 81.4 77.79 81.35C79.57 81.3 81.65 81.2 83.87 81.18C86.1 81.16 88.48 81.13 90.85 81.11C93.22 81.13 95.6 81.16 97.83 81.18C100.05 81.2 102.13 81.3 103.91 81.35C107.47 81.48 109.85 81.66 109.85 81.66C111.38 81.78 112.53 83.11 112.42 84.65C112.31 86.04 111.2 87.12 109.85 87.22C109.85 87.22 107.47 87.4 103.91 87.53C102.13 87.58 100.05 87.68 97.83 87.7C95.6 87.72 93.22 87.75 90.85 87.77C88.48 87.75 86.1 87.72 83.87 87.7C81.65 87.67 79.57 87.57 77.79 87.53C76.01 87.48 74.52 87.37 73.48 87.32C72.44 87.26 71.85 87.22 71.85 87.22C70.32 87.12 69.16 85.79 69.26 84.26C69.35 82.85 70.48 81.75 71.85 81.66" id="d3QiYp6OKE"></path></defs><g><g><g><use xlink:href="#bbmKpsOCn" opacity="1" fill="#ffffff" fill-opacity="1"></use><g><use xlink:href="#bbmKpsOCn" opacity="1" fill-opacity="0" stroke="#000000" stroke-width="1" stroke-opacity="0"></use></g></g><g><use xlink:href="#bGapjMquq" opacity="1" fill="#1d1d1b" fill-opacity="1"></use><g><use xlink:href="#bGapjMquq" opacity="1" fill-opacity="0" stroke="#000000" stroke-width="1" stroke-opacity="0"></use></g></g><g><use xlink:href="#a1PkuIsO04" opacity="1" fill="#ffffff" fill-opacity="1"></use><g><use xlink:href="#a1PkuIsO04" opacity="1" fill-opacity="0" stroke="#000000" stroke-width="1" stroke-opacity="0"></use></g></g><g><use xlink:href="#h3dxlJj88x" opacity="1" fill="#1d1d1b" fill-opacity="1"></use><g><use xlink:href="#h3dxlJj88x" opacity="1" fill-opacity="0" stroke="#000000" stroke-width="1" stroke-opacity="0"></use></g></g><g><use xlink:href="#b2Tt6SPqW5" opacity="1" fill="#1d1d1b" fill-opacity="1"></use><g><use xlink:href="#b2Tt6SPqW5" opacity="1" fill-opacity="0" stroke="#000000" stroke-width="1" stroke-opacity="0"></use></g></g><g><use xlink:href="#d3QiYp6OKE" opacity="1" fill="#1d1d1b" fill-opacity="1"></use><g><use xlink:href="#d3QiYp6OKE" opacity="1" fill-opacity="0" stroke="#000000" stroke-width="1" stroke-opacity="0"></use></g></g></g></g></svg>