<?xml version="1.0" encoding="UTF-8" standalone="no"?>
<!DOCTYPE svg PUBLIC "-//W3C//DTD SVG 1.1//EN" "http://www.w3.org/Graphics/SVG/1.1/DTD/svg11.dtd">
<svg version="1.1" xmlns="http://www.w3.org/2000/svg" xmlns:xlink="http://www.w3.org/1999/xlink" preserveAspectRatio="xMidYMid meet" viewBox="0 0 200 200" width="200" height="200"><defs><path d="M97.01 20.02C111.54 20.02 123.65 30.72 123.65 43.92C123.65 51.84 119.39 58.84 112.86 63.19C125.06 64.05 134.67 73.29 134.67 84.59C134.67 93.24 129.03 100.68 120.92 104.08C134.2 110.59 143.34 124.23 143.34 140.02C143.34 162.1 127.01 180.01 104.92 180.01C71.54 180.01 56.68 144.37 56.68 100.19C56.68 96.17 56.68 64.04 56.68 60.02C56.68 37.93 74.92 20.02 97.01 20.02" id="a7iQ9ebReb"></path><path d="M97.01 23.39C91.01 23.44 85.06 24.93 79.74 27.68C74.44 30.49 69.88 34.62 66.43 39.51C64.83 42.03 63.3 44.63 62.34 47.47C62.1 48.18 61.77 48.85 61.6 49.58C61.54 49.8 61.09 51.54 61.03 51.75C60.81 52.48 60.71 53.18 60.61 53.89C60.58 54.1 60.3 55.78 60.27 55.99C60.2 56.77 60.18 57.62 60.13 58.42C60.12 58.5 60.1 58.91 60.06 59.65L60.05 59.95L60.04 60.11C60.04 60.15 60.04 60.18 60.04 60.18C60.04 59.86 60.04 60.14 60.04 60.09C60.04 60.13 60.04 60.33 60.04 60.7L60.04 65.6L60.04 75.4C60.04 87.16 60.04 93.69 60.04 95C60.03 98.28 60.03 101.53 60.09 104.72C60.19 107.93 60.32 111.13 60.59 114.32C61.08 120.7 61.99 127.03 63.37 133.23C64.07 136.32 64.87 139.39 65.86 142.38C66.82 145.38 67.94 148.32 69.26 151.14C71.85 156.81 75.25 162.04 79.5 166.33C83.76 170.61 89 173.73 94.74 175.33C95.46 175.5 96.18 175.71 96.9 175.87C97.13 175.91 98.89 176.22 99.11 176.26C100.58 176.42 101.9 176.62 103.62 176.63C103.71 176.64 104.11 176.65 104.85 176.68C104.94 176.68 104.99 176.68 105 176.68C105.05 176.68 104.84 176.68 104.96 176.68C104.97 176.68 104.99 176.67 105.03 176.67L105.31 176.66L105.87 176.62C107.22 176.55 107.97 176.51 108.11 176.51C108.87 176.5 109.59 176.3 110.33 176.21C111.07 176.08 111.81 176.01 112.53 175.83C112.75 175.78 114.47 175.32 114.69 175.26C115.05 175.16 115.41 175.08 115.76 174.96C115.83 174.94 116.18 174.8 116.81 174.56L118.89 173.78L120.88 172.77C121.47 172.48 121.81 172.31 121.87 172.28C122.19 172.09 122.5 171.88 122.81 171.68C123 171.57 124.5 170.61 124.69 170.49C125.29 170.06 125.86 169.57 126.45 169.12C127.04 168.67 127.62 168.22 128.14 167.67C128.3 167.52 129.58 166.28 129.74 166.13C130.26 165.6 130.72 165 131.21 164.45C132.23 163.36 133.01 162.08 133.88 160.87C134.32 160.27 134.63 159.59 135.02 158.95C135.37 158.29 135.8 157.67 136.07 156.97C136.67 155.6 137.34 154.26 137.77 152.82C138 152.11 138.29 151.42 138.48 150.69C138.52 150.55 138.7 149.82 139.01 148.5L139.28 147.41L139.43 146.34C139.63 145.06 139.74 144.34 139.76 144.2C139.85 143.46 139.86 142.59 139.91 141.79C139.92 141.71 139.94 141.3 139.98 140.57L140.01 139.95C140.01 139.91 140.01 139.88 140.01 139.88C140 140.16 140.01 139.92 140.01 139.96C140.01 139.95 140 139.9 140 139.82L140 139.54L139.95 137.29C139.82 135.94 139.75 135.2 139.74 135.05C139.01 129.09 136.81 123.32 133.39 118.32C129.94 113.33 125.29 109.15 119.89 106.18C119.88 106.17 119.79 106.12 119.78 106.12C118.65 105.5 118.24 104.09 118.86 102.96C119.13 102.48 119.54 102.13 120.02 101.93C120.02 101.93 120.02 101.93 120.02 101.93C121.01 101.41 121.98 100.88 122.89 100.26C123.79 99.63 124.67 98.97 125.45 98.22C126.27 97.5 126.99 96.69 127.68 95.87C128.34 95.02 128.95 94.14 129.45 93.21C129.7 92.74 129.95 92.28 130.14 91.79C130.37 91.31 130.56 90.82 130.73 90.33C131.09 89.34 131.31 88.32 131.49 87.3C131.52 86.8 131.61 86.41 131.65 85.83C131.65 85.77 131.66 85.46 131.68 84.91L131.69 84.68L131.69 84.56L131.69 84.51C131.69 84.49 131.69 84.48 131.69 84.48C131.69 84.44 131.69 84.7 131.69 84.58C131.69 84.58 131.69 84.58 131.69 84.57C131.68 84.34 131.67 84.21 131.67 84.18C131.62 83.66 131.63 83.14 131.56 82.63C131.54 82.52 131.46 82.01 131.31 81.09C131.07 80.18 130.93 79.68 130.91 79.58C130.75 79.08 130.54 78.6 130.37 78.11C129.96 77.15 129.48 76.21 128.91 75.33C128.65 74.86 128.33 74.44 128 74.02C127.7 73.59 127.37 73.18 126.99 72.79C126.29 71.99 125.5 71.26 124.68 70.57C124.25 70.24 123.84 69.88 123.4 69.58C123.26 69.49 122.17 68.78 122.03 68.69C121.08 68.16 120.12 67.65 119.09 67.25C118.6 67 118.07 66.84 117.55 66.66C117.04 66.47 116.51 66.29 115.97 66.18C114.9 65.87 113.8 65.72 112.7 65.52C112.7 65.52 112.69 65.52 112.69 65.52C111.42 65.44 110.44 64.34 110.52 63.07C110.56 62.41 110.87 61.84 111.33 61.44C111.35 61.43 111.42 61.36 111.56 61.25L112.93 60.09L113.61 59.53L114.22 58.89L115.44 57.62C116.08 56.78 116.43 56.32 116.5 56.23C116.88 55.78 117.18 55.29 117.47 54.79C117.76 54.29 118.09 53.82 118.34 53.3C118.79 52.25 119.34 51.24 119.6 50.13C119.73 49.59 119.99 49.03 120.03 48.53C120.11 48.02 120.21 47.51 120.31 47.01C120.31 46.98 120.34 46.86 120.38 46.63L120.41 46.14L120.45 45.16L120.49 44.18L120.51 43.94L120.51 43.82L120.51 43.76C120.51 43.74 120.51 43.73 120.51 43.72C120.51 43.81 120.52 43.5 120.51 43.92C120.51 43.92 120.51 43.92 120.51 43.91L120.47 43.49L120.33 41.83C120.14 40.85 120.03 40.3 120.01 40.2C119.92 39.65 119.68 39.13 119.54 38.6C119.4 38.07 119.18 37.56 118.94 37.05C118.54 36.02 117.96 35.06 117.39 34.1C117.29 33.96 116.52 32.86 116.43 32.73C116.08 32.28 115.69 31.87 115.33 31.44C114.99 31 114.55 30.63 114.16 30.23C113.76 29.82 113.35 29.43 112.89 29.09C112.04 28.34 111.08 27.73 110.13 27.09C109.13 26.54 108.15 25.94 107.08 25.52C106.05 25.02 104.93 24.72 103.84 24.35C102.72 24.09 101.58 23.78 100.54 23.68C99.59 23.47 98.11 23.47 96.85 23.39C96.88 23.39 96.97 23.39 97.01 23.39ZM97.16 16.66C98.5 16.74 99.65 16.7 101.28 16.95C102.84 17.11 104.23 17.47 105.65 17.8C107.04 18.24 108.45 18.64 109.78 19.26C111.15 19.79 112.42 20.53 113.7 21.24C114.93 22.05 116.16 22.86 117.28 23.83C117.87 24.28 118.41 24.79 118.93 25.31C119.45 25.84 120.01 26.33 120.46 26.93C120.93 27.5 121.42 28.06 121.86 28.66C121.98 28.85 122.98 30.33 123.1 30.52C123.84 31.82 124.59 33.12 125.09 34.54C125.38 35.24 125.64 35.94 125.81 36.68C125.99 37.41 126.25 38.12 126.34 38.87C126.36 39.01 126.48 39.76 126.68 41.09L126.77 43.34L126.79 43.9L126.78 44.18L126.77 44.24L126.76 44.36L126.74 44.6L126.65 45.58L126.57 46.56L126.52 47.04C126.45 47.39 126.42 47.58 126.41 47.62C126.25 48.4 126.09 49.17 125.9 49.94C125.74 50.73 125.42 51.36 125.17 52.08C124.72 53.49 123.95 54.76 123.27 56.06C122.91 56.69 122.45 57.27 122.05 57.88C121.63 58.48 121.21 59.07 120.7 59.59C120.61 59.7 120.12 60.23 119.24 61.19L117.62 62.62L116.8 63.32L115.92 63.94L114.15 65.13L113.02 60.86C113.02 60.86 113.02 60.86 113.02 60.86C114.36 60.93 115.7 61 117.03 61.28C117.7 61.37 118.35 61.53 119.01 61.7C119.66 61.87 120.32 62.02 120.96 62.27C122.25 62.69 123.48 63.28 124.71 63.88C124.89 63.98 126.31 64.81 126.48 64.91C127.07 65.27 127.61 65.69 128.18 66.08C129.27 66.92 130.34 67.81 131.27 68.84C131.77 69.33 132.22 69.85 132.64 70.41C133.08 70.95 133.51 71.5 133.87 72.1C134.67 73.25 135.3 74.51 135.87 75.8C136.12 76.46 136.4 77.11 136.61 77.78C136.65 77.92 136.83 78.6 137.17 79.83C137.37 81.08 137.48 81.78 137.5 81.92C137.59 82.62 137.59 83.33 137.63 84.04C137.64 84.07 137.64 84.25 137.66 84.57L137.64 85.15C137.61 85.7 137.6 86.01 137.59 86.07C137.56 86.71 137.44 87.54 137.34 88.26C137.07 89.64 136.73 91.02 136.21 92.33C135.73 93.65 135.09 94.91 134.36 96.09C133.63 97.29 132.79 98.39 131.88 99.43C130.95 100.45 129.97 101.43 128.9 102.27C127.84 103.14 126.68 103.87 125.51 104.54C124.33 105.22 123.09 105.76 121.83 106.23C121.83 106.23 121.83 106.23 121.82 106.24C121.9 103.69 121.94 102.27 121.95 101.99C128.27 104.82 133.89 109.3 138.12 114.88C142.41 120.45 145.12 127.2 146.19 134.17C146.21 134.35 146.32 135.23 146.51 136.81L146.65 139.45L146.66 139.78C146.67 139.88 146.67 139.94 146.67 139.95C146.67 140.05 146.68 139.85 146.67 140.19C146.67 140.19 146.67 140.22 146.67 140.26L146.64 140.87C146.61 141.61 146.6 142.02 146.59 142.1C146.55 142.93 146.55 143.7 146.47 144.58C146.44 144.76 146.32 145.66 146.11 147.29L145.93 148.65L145.64 149.94C145.28 151.49 145.08 152.35 145.04 152.52C144.82 153.38 144.5 154.2 144.23 155.05C142.02 161.77 137.99 167.89 132.74 172.71C132.12 173.34 131.41 173.89 130.71 174.43C130 174.98 129.31 175.54 128.58 176.06C128.36 176.2 126.55 177.34 126.32 177.49C125.94 177.72 125.57 177.97 125.18 178.19C125.1 178.23 124.71 178.42 123.99 178.78L121.59 179.97L119.09 180.91C118.33 181.18 117.92 181.34 117.83 181.37C117.41 181.51 116.98 181.6 116.55 181.72C116.29 181.79 114.22 182.32 113.96 182.39C113.1 182.6 112.21 182.68 111.34 182.83C110.46 182.94 109.58 183.16 108.7 183.16C108.52 183.17 107.64 183.22 106.05 183.29L105.38 183.32L105.05 183.34C105 183.34 104.97 183.34 104.97 183.34C105.04 183.35 104.78 183.34 104.78 183.34C104.77 183.34 104.71 183.34 104.62 183.34C103.89 183.31 103.48 183.3 103.4 183.3C101.85 183.29 99.92 183.08 98.15 182.86C97.89 182.81 95.8 182.44 95.53 182.39C94.67 182.21 93.81 181.97 92.95 181.75C86.09 179.86 79.75 176.05 74.79 171.06C69.83 166.06 66.03 160.15 63.2 153.94C61.75 150.85 60.54 147.67 59.5 144.45C58.43 141.24 57.59 137.97 56.84 134.69C55.38 128.14 54.43 121.5 53.92 114.85C53.63 111.53 53.49 108.21 53.4 104.88C53.33 101.54 53.33 98.25 53.33 95C53.33 93.69 53.33 87.16 53.33 75.4L53.33 65.6L53.33 60.7L53.33 60.09L53.36 59.3C53.4 58.57 53.42 58.16 53.42 58.08C53.47 57.26 53.49 56.46 53.56 55.62C54.05 51.91 54.73 48.42 56.04 45.13C57.2 41.77 58.98 38.68 60.89 35.7C64.95 29.91 70.34 25.05 76.59 21.73C82.87 18.47 89.93 16.7 97.01 16.66C97.04 16.66 97.13 16.66 97.16 16.66Z" id="g1dM4rWTrN"></path><path d="M56.75 110.31C86.28 106.75 102.69 104.77 105.97 104.37C107.8 104.15 109.46 105.46 109.68 107.28C109.9 109.11 108.6 110.77 106.77 110.99C106.76 110.99 106.73 111 106.72 111C101.79 111.53 62.36 115.74 57.43 116.27C55.78 116.45 54.31 115.26 54.13 113.61C53.95 111.98 55.13 110.51 56.75 110.31" id="d3BGseyOI"></path><path d="M90.3 120.65C93.76 120.26 96.88 122.74 97.27 126.2C97.67 129.65 95.18 132.77 91.73 133.17C88.27 133.56 85.15 131.08 84.76 127.62C84.36 124.17 86.85 121.04 90.3 120.65" id="b3Ov8wCbF"></path><path d="M86.37 86.14C89.83 85.75 92.95 88.23 93.35 91.69C93.74 95.14 91.26 98.26 87.8 98.66C84.34 99.05 81.22 96.57 80.83 93.11C80.43 89.65 82.92 86.53 86.37 86.14" id="dhCsSgNIB"></path></defs><g><g><g><use xlink:href="#a7iQ9ebReb" opacity="1" fill="#ffffff" fill-opacity="1"></use><g><use xlink:href="#a7iQ9ebReb" opacity="1" fill-opacity="0" stroke="#000000" stroke-width="1" stroke-opacity="0"></use></g></g><g><use xlink:href="#g1dM4rWTrN" opacity="1" fill="#1d1d1b" fill-opacity="1"></use><g><use xlink:href="#g1dM4rWTrN" opacity="1" fill-opacity="0" stroke="#000000" stroke-width="1" stroke-opacity="0"></use></g></g><g><use xlink:href="#d3BGseyOI" opacity="1" fill="#1d1d1b" fill-opacity="1"></use><g><use xlink:href="#d3BGseyOI" opacity="1" fill-opacity="0" stroke="#000000" stroke-width="1" stroke-opacity="0"></use></g></g><g><use xlink:href="#b3Ov8wCbF" opacity="1" fill="#1d1d1b" fill-opacity="1"></use><g><use xlink:href="#b3Ov8wCbF" opacity="1" fill-opacity="0" stroke="#000000" stroke-width="1" stroke-opacity="0"></use></g></g><g><use xlink:href="#dhCsSgNIB" opacity="1" fill="#1d1d1b" fill-opacity="1"></use><g><use xlink:href="#dhCsSgNIB" opacity="1" fill-opacity="0" stroke="#000000" stroke-width="1" stroke-opacity="0"></use></g></g></g></g></svg>