<?xml version="1.0" encoding="UTF-8" standalone="no"?>
<!DOCTYPE svg PUBLIC "-//W3C//DTD SVG 1.1//EN" "http://www.w3.org/Graphics/SVG/1.1/DTD/svg11.dtd">
<svg version="1.1" xmlns="http://www.w3.org/2000/svg" xmlns:xlink="http://www.w3.org/1999/xlink" preserveAspectRatio="xMidYMid meet" viewBox="0 0 200 200" width="200" height="200"><defs><path d="M146.03 165.21C146.03 173.38 139.17 180.01 130.71 180.01C122.25 180.01 115.39 173.38 115.39 165.21C115.39 173.38 108.53 178.95 100.07 178.95C91.61 178.95 84.76 173.38 84.76 165.21C84.76 173.38 77.9 180.01 69.44 180.01C60.98 180.01 54.12 173.38 54.12 165.21C54.18 164.42 54.64 158.1 54.69 157.31C54.69 134.83 75 127.43 100.17 127.43C125.34 127.43 145.85 137.48 145.85 157.83C145.88 159.31 145.99 163.74 146.03 165.21Z" id="bhclmrjPJ"></path><path d="M142.55 166.47L142.54 165.3C142.47 160.42 142.43 157.71 142.42 157.16C142.39 154.76 142.01 152.42 141.3 150.18C140.58 147.95 139.47 145.86 138.05 143.94C136.63 142.02 134.85 140.34 132.89 138.83C128.95 135.81 124.19 133.68 119.2 132.26C114.21 130.78 108.93 130.12 103.69 129.86C98.39 129.62 93.03 129.86 87.82 130.57C85.21 130.93 82.64 131.46 80.13 132.12C77.62 132.79 75.18 133.62 72.89 134.68C68.28 136.77 64.3 139.81 61.71 143.71C59.15 147.63 58.04 152.38 58.11 157.31C58.11 157.32 58.11 157.38 58.1 157.48L58.1 157.56L57.6 165.46C57.6 165.31 57.61 165.23 57.61 165.21C57.65 168.2 58.89 171.13 61.11 173.22C62.21 174.27 63.49 175.14 64.92 175.73C65.62 176.02 66.36 176.25 67.12 176.41C67.5 176.49 67.89 176.55 68.26 176.6C68.3 176.6 68.47 176.62 68.78 176.64C69.17 176.66 69.39 176.67 69.44 176.67C72.57 176.78 75.72 175.71 78.18 173.66C79.4 172.63 80.46 171.38 81.24 169.95C82.05 168.52 82.52 166.91 82.75 165.21C82.76 165.17 82.81 164.81 82.82 164.76C82.96 163.68 83.96 162.92 85.05 163.06C86.1 163.21 86.85 164.16 86.76 165.21C86.76 165.21 86.76 165.22 86.76 165.22C86.98 166.87 87.44 168.41 88.21 169.75C88.96 171.09 90 172.24 91.22 173.17C92.45 174.09 93.84 174.82 95.36 175.26C96.11 175.49 96.88 175.67 97.67 175.79C98.07 175.84 98.48 175.88 98.86 175.91C98.9 175.91 99.08 175.92 99.42 175.94C99.82 175.95 100.03 175.95 100.08 175.95C103.3 175.97 106.49 175.02 108.93 173.17C110.15 172.24 111.19 171.09 111.94 169.74C112.71 168.4 113.17 166.86 113.39 165.21C113.4 165.17 113.45 164.81 113.45 164.77C113.6 163.68 114.6 162.92 115.68 163.06C116.74 163.21 117.49 164.16 117.39 165.21C117.39 165.21 117.39 165.22 117.39 165.22C117.6 166.92 118.07 168.53 118.88 169.97C119.64 171.41 120.69 172.69 121.93 173.7C123.19 174.71 124.58 175.51 126.08 176C126.83 176.25 127.59 176.44 128.37 176.55C128.75 176.61 129.16 176.65 129.53 176.67C129.56 176.67 129.74 176.67 130.05 176.68C130.45 176.68 130.67 176.67 130.71 176.67C133.84 176.58 136.83 175.3 139.03 173.21C140.13 172.18 141.02 170.93 141.63 169.56C141.95 168.89 142.2 168.18 142.37 167.45C142.45 167.12 142.5 166.79 142.55 166.47M149.26 157.69L149.36 165.3L149.37 166.04C149.34 166.63 149.33 166.96 149.32 167.03C149.27 167.64 149.19 168.24 149.08 168.85C148.85 170.05 148.5 171.23 148.03 172.36C147.06 174.61 145.62 176.63 143.86 178.31C142.11 179.99 140 181.27 137.76 182.14C135.5 182.99 133.09 183.38 130.71 183.34C130.66 183.34 130.38 183.32 129.89 183.3C129.32 183.24 129.01 183.21 128.94 183.21C128.34 183.13 127.76 183.04 127.18 182.91C126.02 182.66 124.88 182.3 123.79 181.83C121.62 180.88 119.63 179.54 118.02 177.83C116.4 176.13 115.12 174.13 114.31 171.96C113.53 169.78 113.18 167.46 113.39 165.22C113.39 165.22 113.39 165.22 113.39 165.21C115.79 165.21 117.12 165.21 117.39 165.21C117.61 167.39 117.3 169.69 116.46 171.83C115.61 173.96 114.23 175.9 112.51 177.42C110.81 178.97 108.77 180.09 106.65 180.85C104.52 181.59 102.29 181.93 100.08 181.95C100.03 181.95 99.77 181.94 99.3 181.93C98.78 181.89 98.49 181.88 98.43 181.87C97.85 181.82 97.32 181.76 96.76 181.67C95.66 181.49 94.57 181.23 93.5 180.85C91.39 180.09 89.35 178.98 87.65 177.43C85.93 175.9 84.55 173.97 83.69 171.84C82.85 169.7 82.53 167.4 82.76 165.22C82.76 165.22 82.76 165.22 82.75 165.21C85.16 165.21 86.49 165.21 86.76 165.21C86.99 167.46 86.64 169.78 85.88 171.97C85.08 174.15 83.81 176.18 82.17 177.86C80.55 179.57 78.55 180.91 76.37 181.86C74.19 182.79 71.81 183.28 69.44 183.34C69.38 183.34 69.11 183.34 68.62 183.33C68.04 183.3 67.73 183.28 67.66 183.28C67.05 183.23 66.47 183.16 65.87 183.05C64.7 182.85 63.53 182.53 62.41 182.1C60.16 181.24 58.06 179.97 56.29 178.3C54.53 176.64 53.08 174.61 52.1 172.37C51.1 170.13 50.61 167.65 50.63 165.21C50.63 165.2 50.63 165.15 50.63 165.15C50.63 165.09 50.64 165.02 50.64 164.96C50.68 164.43 50.9 161.8 51.29 157.06C51.28 157.21 51.28 157.29 51.28 157.31C51.31 154.35 51.65 151.33 52.49 148.39C53.32 145.45 54.66 142.61 56.44 140.08C58.23 137.57 60.46 135.4 62.9 133.65C65.34 131.9 67.99 130.56 70.68 129.49C76.09 127.37 81.68 126.32 87.23 125.73C92.78 125.14 98.3 125 103.85 125.15C109.44 125.32 114.99 126.02 120.5 127.33C125.98 128.68 131.43 130.73 136.32 134.05C138.76 135.71 141.05 137.69 142.97 140.06C144.89 142.42 146.47 145.11 147.55 148C148.6 150.9 149.12 153.97 149.23 156.99C149.23 157.08 149.24 157.32 149.26 157.69Z" id="b1giQ2IKSa"></path><path d="M97.81 20.02C112.34 20.02 124.45 28.64 124.45 39.27C124.45 45.64 120.19 51.28 113.66 54.78C125.86 55.47 135.48 62.92 135.48 72.02C135.48 78.98 129.84 84.97 121.72 87.71C135 92.95 144.14 103.94 144.14 116.65C144.14 134.43 127.82 148.85 105.73 148.85C72.35 148.85 57.49 120.15 57.49 84.57C57.49 81.34 57.49 55.47 57.49 52.23C57.49 34.44 75.72 20.02 97.81 20.02" id="b3eoSst0ND"></path><path d="M82.16 26.15C77.18 27.97 72.58 30.76 68.87 34.38C65.19 38 62.43 42.51 61.38 47.39C61.22 48 61.16 48.62 61.05 49.23C60.99 49.85 60.92 50.31 60.88 51.03C60.88 51.1 60.87 51.46 60.85 52.1L60.84 52.23C60.84 52.27 60.84 52.3 60.84 52.3C60.84 52.42 60.84 52.21 60.84 52.26C60.84 52.28 60.84 52.37 60.84 52.53L60.84 53.07L60.84 55.21L60.84 63.8C60.84 74.1 60.84 79.82 60.84 80.96C60.84 83.85 60.82 86.64 60.94 89.41C61.04 92.19 61.28 94.96 61.59 97.71C62.24 103.21 63.33 108.63 65.01 113.83C66.7 119.02 68.99 123.98 72.01 128.39C75.04 132.77 78.79 136.6 83.22 139.41C85.44 140.82 87.79 141.98 90.25 142.91C92.72 143.83 95.3 144.46 97.92 144.9C98.05 144.92 98.71 145.02 99.9 145.19C101.06 145.29 101.71 145.35 101.84 145.36C103.03 145.5 104.75 145.48 105.93 145.52C108.6 145.5 111.26 145.25 113.87 144.75C119.08 143.79 124.07 141.81 128.34 138.85C132.62 135.91 136.13 131.97 138.31 127.4C140.52 122.87 141.27 117.61 140.54 112.68C139.78 107.71 137.3 103.02 133.81 99.12C130.31 95.21 125.8 92.13 120.87 89.88C120.85 89.88 120.73 89.82 120.71 89.82C119.55 89.29 119.04 87.91 119.57 86.75C119.85 86.13 120.38 85.7 120.98 85.5C120.98 85.5 120.98 85.5 120.98 85.5C121.91 85.1 122.82 84.67 123.69 84.21C124.56 83.72 125.4 83.2 126.18 82.62C126.97 82.06 127.74 81.46 128.4 80.79C129.1 80.14 129.68 79.42 130.23 78.69C130.73 77.93 131.22 77.17 131.56 76.36C131.94 75.58 132.15 74.73 132.32 73.92C132.34 73.74 132.37 73.57 132.4 73.39C132.41 73.29 132.44 73.23 132.44 73.1C132.45 73.08 132.45 72.94 132.46 72.69C132.49 72.2 132.5 71.92 132.5 71.87C132.49 72.16 132.5 71.94 132.5 72.01C132.5 72.01 132.5 72 132.5 72L132.5 71.98L132.49 71.94L132.49 71.86L132.48 71.7C132.48 71.51 132.47 71.41 132.47 71.38C132.41 70.54 132.24 69.71 131.97 68.9C131.45 67.27 130.5 65.73 129.26 64.37C128.04 62.99 126.52 61.81 124.86 60.8C121.52 58.79 117.58 57.62 113.53 57.11C113.5 57.11 113.3 57.08 113.28 57.08C112.02 56.92 111.12 55.77 111.28 54.51C111.38 53.71 111.89 53.06 112.56 52.73C112.56 52.73 112.56 52.73 112.56 52.73C116.18 50.46 119.23 47.37 120.56 43.79C120.88 42.9 121.09 41.99 121.24 41.09C121.26 40.68 121.33 40.38 121.32 39.71C121.32 39.68 121.33 39.53 121.33 39.27L121.33 39.16C121.33 39.15 121.33 39.15 121.33 39.15C121.33 39.03 121.33 39.3 121.33 39.27C121.33 39.26 121.33 39.26 121.33 39.24L121.32 39.2C121.32 39.1 121.31 39.04 121.31 39.03C121.29 38.81 121.3 38.58 121.26 38.35C121.06 36.56 120.36 34.83 119.34 33.26C117.28 30.08 113.88 27.58 110.1 25.92C108.19 25.09 106.18 24.45 104.12 24.04C103.08 23.83 102.04 23.67 100.98 23.57C100.45 23.51 99.94 23.47 99.44 23.44C98.97 23.41 98.31 23.41 97.75 23.39C92.47 23.39 87.13 24.31 82.16 26.15ZM99.68 16.7C100.35 16.73 101.01 16.77 101.63 16.83C102.91 16.95 104.18 17.13 105.44 17.37C107.96 17.86 110.44 18.61 112.83 19.64C115.21 20.68 117.51 21.99 119.6 23.66C121.66 25.36 123.56 27.35 124.99 29.77C126.41 32.17 127.37 34.95 127.54 37.82C127.57 38.18 127.56 38.54 127.57 38.89C127.57 38.91 127.57 39 127.57 39.16L127.57 39.42L127.56 39.53C127.55 39.79 127.54 39.94 127.53 39.97C127.52 40.47 127.4 41.33 127.29 42.08C127.02 43.48 126.58 44.82 126 46.09C124.82 48.62 123.14 50.8 121.2 52.58C119.25 54.35 117.06 55.75 114.76 56.84C114.76 56.84 114.76 56.84 114.76 56.84C114.18 54.21 113.86 52.75 113.79 52.45C118.51 52.45 123.31 53.53 127.65 55.85C129.83 56.98 131.85 58.5 133.61 60.35C135.36 62.21 136.82 64.47 137.67 67.03C138.09 68.3 138.35 69.65 138.43 71C138.43 71.04 138.44 71.21 138.45 71.51L138.45 71.76L138.46 72.17L138.41 72.99C138.4 73.24 138.39 73.38 138.39 73.4C138.38 73.55 138.34 73.76 138.32 73.93C138.3 74.04 138.17 74.92 138.15 75.03C137.84 76.37 137.44 77.65 136.84 78.83C136.29 80.05 135.54 81.12 134.76 82.14C133.94 83.13 133.07 84.06 132.11 84.87C131.17 85.7 130.15 86.41 129.11 87.07C128.06 87.71 126.97 88.24 125.87 88.73C125.31 88.97 124.75 89.17 124.19 89.39C124.07 89.43 123.5 89.61 122.47 89.92L122.47 89.92C122.54 87.3 122.57 85.84 122.58 85.54C128.27 87.52 133.67 90.68 138.05 95.09C142.48 99.44 145.75 105.22 146.96 111.55C147.26 113.13 147.43 114.74 147.46 116.35C147.46 116.38 147.47 116.51 147.47 116.75L147.47 117.02C147.46 117.34 147.46 117.52 147.46 117.55C147.44 117.93 147.45 118.23 147.42 118.66C147.35 119.5 147.3 120.36 147.18 121.13C146.76 124.31 145.83 127.41 144.49 130.31C141.78 136.12 137.36 140.96 132.2 144.48C127.03 148.01 121.13 150.27 115.09 151.36C112.06 151.91 109 152.17 105.95 152.18C104.27 152.13 103.13 152.17 101.47 152.02C100.69 151.95 99.9 151.9 99.13 151.81C98.9 151.78 97.09 151.52 96.86 151.49C93.84 150.98 90.84 150.25 87.94 149.17C85.04 148.08 82.25 146.7 79.63 145.04C74.38 141.71 69.97 137.19 66.5 132.17C63.05 127.13 60.51 121.59 58.65 115.9C56.81 110.21 55.63 104.36 54.94 98.49C54.6 95.56 54.35 92.62 54.25 89.68C54.11 86.73 54.14 83.8 54.14 80.96C54.14 79.82 54.13 74.1 54.13 63.8L54.13 55.21L54.13 53.07L54.13 52.53L54.14 51.89C54.16 51.24 54.17 50.88 54.17 50.81C54.2 50.1 54.3 49.13 54.39 48.34C54.53 47.54 54.63 46.74 54.82 45.95C56.18 39.61 59.71 33.96 64.16 29.59C68.65 25.2 74.06 21.95 79.82 19.84C85.59 17.71 91.71 16.66 97.81 16.66C98.48 16.67 98.98 16.66 99.68 16.7Z" id="fwW8kTiq"></path><path d="M57.56 92.86C87.09 89.29 103.49 87.31 106.77 86.92C108.6 86.7 110.26 88 110.48 89.83C110.7 91.66 109.4 93.32 107.57 93.54C107.56 93.54 107.53 93.54 107.53 93.54C102.6 94.07 63.16 98.29 58.23 98.82C56.59 98.99 55.11 97.8 54.93 96.15C54.76 94.52 55.93 93.05 57.56 92.86" id="dgc7KovYi"></path><path d="M91.11 103.2C94.56 102.8 97.68 105.29 98.08 108.74C98.47 112.2 95.99 115.32 92.53 115.71C89.07 116.11 85.95 113.62 85.56 110.17C85.17 106.71 87.65 103.59 91.11 103.2" id="a3wP7Wl0n"></path><path d="M87.18 68.68C90.63 68.29 93.76 70.77 94.15 74.23C94.54 77.69 92.06 80.81 88.6 81.2C85.15 81.6 82.03 79.11 81.63 75.66C81.24 72.2 83.72 69.08 87.18 68.68" id="c31wfSsn5j"></path></defs><g><g><g><use xlink:href="#bhclmrjPJ" opacity="1" fill="#ffffff" fill-opacity="1"></use><g><use xlink:href="#bhclmrjPJ" opacity="1" fill-opacity="0" stroke="#000000" stroke-width="1" stroke-opacity="0"></use></g></g><g><use xlink:href="#b1giQ2IKSa" opacity="1" fill="#1d1d1b" fill-opacity="1"></use><g><use xlink:href="#b1giQ2IKSa" opacity="1" fill-opacity="0" stroke="#000000" stroke-width="1" stroke-opacity="0"></use></g></g><g><use xlink:href="#b3eoSst0ND" opacity="1" fill="#ffffff" fill-opacity="1"></use><g><use xlink:href="#b3eoSst0ND" opacity="1" fill-opacity="0" stroke="#000000" stroke-width="1" stroke-opacity="0"></use></g></g><g><use xlink:href="#fwW8kTiq" opacity="1" fill="#1d1d1b" fill-opacity="1"></use><g><use xlink:href="#fwW8kTiq" opacity="1" fill-opacity="0" stroke="#000000" stroke-width="1" stroke-opacity="0"></use></g></g><g><use xlink:href="#dgc7KovYi" opacity="1" fill="#1d1d1b" fill-opacity="1"></use><g><use xlink:href="#dgc7KovYi" opacity="1" fill-opacity="0" stroke="#000000" stroke-width="1" stroke-opacity="0"></use></g></g><g><use xlink:href="#a3wP7Wl0n" opacity="1" fill="#1d1d1b" fill-opacity="1"></use><g><use xlink:href="#a3wP7Wl0n" opacity="1" fill-opacity="0" stroke="#000000" stroke-width="1" stroke-opacity="0"></use></g></g><g><use xlink:href="#c31wfSsn5j" opacity="1" fill="#1d1d1b" fill-opacity="1"></use><g><use xlink:href="#c31wfSsn5j" opacity="1" fill-opacity="0" stroke="#000000" stroke-width="1" stroke-opacity="0"></use></g></g></g></g></svg>