<?xml version="1.0" encoding="UTF-8" standalone="no"?>
<!DOCTYPE svg PUBLIC "-//W3C//DTD SVG 1.1//EN" "http://www.w3.org/Graphics/SVG/1.1/DTD/svg11.dtd">
<svg version="1.1" xmlns="http://www.w3.org/2000/svg" xmlns:xlink="http://www.w3.org/1999/xlink" preserveAspectRatio="xMidYMid meet" viewBox="0 0 200 200" width="200" height="200"><defs><path d="M112.4 28.57C126.93 28.57 139.04 39.27 139.04 52.47C139.04 60.38 134.78 67.38 128.25 71.73C140.45 72.59 150.07 81.83 150.07 93.14C150.07 101.79 144.43 109.22 136.31 112.63C149.59 119.14 158.73 132.78 158.73 148.56C158.73 170.65 142.41 188.56 120.32 188.56C86.94 188.56 72.08 152.91 72.08 108.73C72.08 104.72 72.08 72.58 72.08 68.56C72.08 46.48 90.31 28.57 112.4 28.57" id="cg2NSLkXi"></path><path d="M112.4 31.94C106.4 31.98 100.45 33.47 95.13 36.23C89.83 39.03 85.27 43.17 81.82 48.05C80.22 50.58 78.69 53.18 77.73 56.01C77.49 56.72 77.16 57.4 76.99 58.13C76.94 58.34 76.48 60.08 76.43 60.3C76.2 61.02 76.1 61.73 76 62.43C75.97 62.64 75.69 64.33 75.66 64.54C75.59 65.32 75.57 66.16 75.52 66.97C75.51 67.05 75.49 67.46 75.46 68.19L75.44 68.5L75.43 68.65C75.43 68.7 75.43 68.72 75.43 68.73C75.44 68.41 75.43 68.68 75.43 68.63C75.43 68.67 75.43 68.88 75.43 69.24L75.43 74.14L75.43 83.94C75.43 95.7 75.43 102.24 75.43 103.55C75.42 106.83 75.42 110.08 75.48 113.27C75.58 116.47 75.71 119.68 75.98 122.86C76.48 129.25 77.38 135.58 78.76 141.78C79.46 144.87 80.26 147.94 81.25 150.93C82.21 153.92 83.34 156.86 84.66 159.68C87.24 165.35 90.64 170.59 94.9 174.87C99.15 179.15 104.39 182.27 110.13 183.87C110.85 184.05 111.57 184.25 112.3 184.41C112.52 184.45 114.29 184.76 114.51 184.8C115.97 184.97 117.29 185.16 119.02 185.18C119.1 185.18 119.51 185.19 120.24 185.22C120.33 185.22 120.38 185.22 120.39 185.22C120.45 185.23 120.23 185.22 120.35 185.22C120.36 185.22 120.38 185.22 120.42 185.22L120.7 185.2L121.26 185.17C122.61 185.1 123.36 185.06 123.51 185.05C124.26 185.05 124.98 184.84 125.72 184.75C126.46 184.62 127.2 184.56 127.93 184.38C128.14 184.32 129.87 183.86 130.08 183.8C130.44 183.7 130.81 183.63 131.16 183.51C131.23 183.48 131.57 183.35 132.2 183.11L134.28 182.32L136.27 181.32C136.87 181.02 137.2 180.85 137.26 180.82C137.59 180.64 137.89 180.43 138.2 180.23C138.39 180.11 139.9 179.15 140.08 179.04C140.68 178.6 141.25 178.12 141.84 177.67C142.43 177.21 143.02 176.76 143.53 176.22C143.69 176.07 144.97 174.83 145.13 174.67C145.65 174.14 146.11 173.55 146.6 172.99C147.63 171.91 148.4 170.62 149.28 169.42C149.71 168.81 150.02 168.13 150.41 167.49C150.76 166.83 151.19 166.22 151.46 165.52C152.06 164.14 152.73 162.81 153.16 161.37C153.4 160.66 153.68 159.96 153.88 159.24C153.91 159.09 154.09 158.36 154.41 157.05L154.67 155.95L154.82 154.88C155.02 153.6 155.13 152.89 155.15 152.74C155.24 152 155.25 151.13 155.3 150.33C155.31 150.25 155.33 149.84 155.37 149.11L155.4 148.5C155.4 148.45 155.4 148.43 155.4 148.42C155.4 148.7 155.4 148.46 155.4 148.51C155.4 148.5 155.4 148.45 155.39 148.36L155.39 148.08L155.34 145.83C155.21 144.49 155.14 143.74 155.13 143.59C154.4 137.63 152.2 131.86 148.78 126.86C145.33 121.88 140.68 117.7 135.29 114.73C135.27 114.72 135.18 114.67 135.17 114.66C134.05 114.04 133.64 112.63 134.25 111.51C134.52 111.02 134.93 110.67 135.41 110.48C135.41 110.48 135.41 110.48 135.41 110.48C136.4 109.96 137.37 109.42 138.28 108.8C139.18 108.18 140.06 107.52 140.84 106.76C141.66 106.04 142.38 105.24 143.07 104.41C143.73 103.57 144.34 102.69 144.84 101.75C145.09 101.29 145.34 100.82 145.54 100.33C145.77 99.86 145.95 99.37 146.12 98.87C146.48 97.89 146.7 96.86 146.88 95.84C146.92 95.34 147.01 94.96 147.04 94.37C147.04 94.31 147.05 94 147.07 93.45L147.08 93.22L147.08 93.11L147.09 93.05C147.09 93.03 147.09 93.02 147.09 93.02C147.09 92.99 147.08 93.24 147.08 93.13C147.08 93.13 147.08 93.12 147.08 93.12C147.07 92.88 147.06 92.75 147.06 92.73C147.01 92.21 147.02 91.69 146.95 91.17C146.93 91.07 146.85 90.56 146.7 89.63C146.46 88.73 146.32 88.22 146.3 88.12C146.15 87.63 145.93 87.15 145.76 86.65C145.35 85.7 144.88 84.76 144.3 83.87C144.04 83.41 143.72 82.99 143.4 82.57C143.09 82.13 142.76 81.72 142.38 81.34C141.69 80.53 140.89 79.81 140.07 79.11C139.64 78.79 139.23 78.43 138.79 78.12C138.65 78.03 137.56 77.32 137.42 77.23C136.47 76.71 135.51 76.19 134.49 75.79C133.99 75.54 133.47 75.39 132.95 75.2C132.43 75.01 131.9 74.84 131.36 74.72C130.29 74.42 129.19 74.26 128.09 74.06C128.09 74.06 128.08 74.06 128.08 74.06C126.81 73.98 125.84 72.89 125.91 71.61C125.95 70.96 126.26 70.38 126.72 69.99C126.74 69.97 126.82 69.91 126.96 69.79L128.32 68.64L129 68.07L129.62 67.43L130.84 66.16C131.47 65.33 131.82 64.86 131.89 64.77C132.27 64.33 132.57 63.83 132.86 63.33C133.15 62.83 133.49 62.36 133.73 61.85C134.18 60.79 134.73 59.78 134.99 58.68C135.12 58.14 135.38 57.58 135.43 57.07C135.5 56.56 135.6 56.06 135.7 55.55C135.7 55.53 135.73 55.4 135.78 55.17L135.8 54.69L135.84 53.71L135.89 52.73L135.9 52.48L135.9 52.36L135.91 52.3C135.91 52.28 135.91 52.27 135.91 52.27C135.9 52.36 135.91 52.05 135.9 52.47C135.9 52.46 135.9 52.46 135.9 52.45L135.86 52.04L135.73 50.37C135.53 49.39 135.42 48.85 135.4 48.74C135.32 48.19 135.08 47.68 134.93 47.15C134.79 46.61 134.57 46.1 134.33 45.6C133.93 44.56 133.35 43.6 132.78 42.65C132.69 42.51 131.91 41.41 131.82 41.27C131.47 40.83 131.09 40.42 130.73 39.99C130.38 39.54 129.94 39.18 129.55 38.77C129.15 38.37 128.74 37.98 128.29 37.64C127.43 36.89 126.47 36.27 125.52 35.64C124.52 35.09 123.54 34.49 122.47 34.07C121.44 33.56 120.32 33.26 119.23 32.89C118.12 32.63 116.98 32.32 115.93 32.22C114.98 32.01 113.51 32.01 112.24 31.93C112.27 31.93 112.37 31.94 112.4 31.94ZM112.55 25.2C113.89 25.28 115.05 25.24 116.67 25.5C118.23 25.65 119.62 26.01 121.04 26.34C122.43 26.78 123.85 27.18 125.17 27.8C126.54 28.34 127.81 29.08 129.1 29.79C130.33 30.6 131.56 31.4 132.67 32.38C133.26 32.83 133.8 33.33 134.32 33.86C134.84 34.39 135.4 34.88 135.85 35.47C136.32 36.05 136.81 36.61 137.25 37.2C137.37 37.39 138.37 38.88 138.5 39.07C139.24 40.36 139.98 41.67 140.49 43.09C140.77 43.78 141.03 44.49 141.2 45.22C141.38 45.95 141.64 46.66 141.73 47.41C141.76 47.56 141.87 48.3 142.07 49.64L142.16 51.89L142.18 52.45L142.17 52.72L142.17 52.78L142.15 52.9L142.13 53.15L142.05 54.12L141.96 55.1L141.92 55.59C141.85 55.94 141.81 56.13 141.8 56.17C141.64 56.94 141.48 57.72 141.29 58.49C141.13 59.28 140.81 59.91 140.57 60.62C140.11 62.04 139.34 63.3 138.66 64.6C138.3 65.24 137.84 65.82 137.44 66.42C137.02 67.02 136.61 67.62 136.1 68.14C136 68.24 135.51 68.78 134.63 69.74L133.01 71.17L132.19 71.87L131.31 72.48L129.54 73.68L128.41 69.41C128.41 69.41 128.42 69.41 128.42 69.41C129.75 69.48 131.09 69.55 132.42 69.82C133.09 69.91 133.74 70.07 134.4 70.25C135.05 70.42 135.71 70.57 136.35 70.82C137.64 71.24 138.87 71.82 140.1 72.42C140.28 72.53 141.7 73.35 141.88 73.46C142.46 73.82 143 74.24 143.57 74.63C144.66 75.46 145.73 76.35 146.66 77.38C147.16 77.87 147.61 78.4 148.03 78.96C148.47 79.5 148.9 80.04 149.26 80.65C150.06 81.8 150.69 83.06 151.26 84.35C151.51 85 151.79 85.65 152 86.33C152.04 86.46 152.23 87.14 152.56 88.37C152.76 89.63 152.87 90.33 152.89 90.47C152.98 91.17 152.98 91.88 153.03 92.58C153.03 92.62 153.03 92.79 153.05 93.11L153.03 93.69C153 94.25 152.99 94.55 152.99 94.61C152.95 95.25 152.83 96.08 152.73 96.8C152.46 98.19 152.12 99.56 151.6 100.87C151.13 102.2 150.48 103.45 149.75 104.64C149.03 105.83 148.18 106.94 147.27 107.98C146.34 109 145.37 109.97 144.29 110.82C143.23 111.68 142.07 112.42 140.9 113.09C139.72 113.76 138.48 114.3 137.22 114.78C137.22 114.78 137.22 114.78 137.22 114.78C137.29 112.23 137.33 110.82 137.34 110.54C143.66 113.36 149.28 117.84 153.52 123.43C157.8 128.99 160.51 135.75 161.58 142.72C161.61 142.89 161.71 143.77 161.9 145.35L162.04 148L162.05 148.33C162.06 148.43 162.06 148.48 162.06 148.49C162.06 148.59 162.07 148.4 162.06 148.73C162.06 148.74 162.06 148.76 162.06 148.81L162.03 149.42C162 150.15 161.99 150.56 161.98 150.64C161.94 151.47 161.95 152.24 161.86 153.12C161.83 153.3 161.72 154.21 161.5 155.84L161.32 157.19L161.03 158.49C160.67 160.03 160.47 160.89 160.43 161.06C160.21 161.92 159.89 162.75 159.63 163.59C157.41 170.32 153.38 176.44 148.13 181.25C147.51 181.89 146.8 182.43 146.1 182.98C145.39 183.52 144.7 184.09 143.98 184.6C143.75 184.75 141.94 185.89 141.72 186.03C141.34 186.26 140.96 186.51 140.58 186.73C140.5 186.77 140.1 186.97 139.38 187.33L136.98 188.51L134.48 189.45C133.73 189.73 133.31 189.88 133.22 189.91C132.8 190.06 132.37 190.15 131.94 190.27C131.68 190.33 129.61 190.87 129.35 190.94C128.49 191.14 127.6 191.23 126.73 191.38C125.85 191.48 124.98 191.7 124.09 191.71C123.91 191.72 123.03 191.76 121.44 191.84L120.77 191.87L120.44 191.88C120.39 191.89 120.37 191.89 120.36 191.89C120.43 191.89 120.17 191.89 120.17 191.89C120.16 191.89 120.11 191.89 120.01 191.88C119.28 191.86 118.87 191.84 118.79 191.84C117.24 191.83 115.32 191.62 113.54 191.4C113.28 191.35 111.19 190.98 110.93 190.94C110.06 190.75 109.2 190.51 108.34 190.3C101.48 188.4 95.14 184.6 90.18 179.61C85.22 174.61 81.43 168.69 78.59 162.49C77.14 159.39 75.93 156.21 74.89 152.99C73.83 149.78 72.98 146.52 72.23 143.24C70.77 136.68 69.83 130.04 69.31 123.4C69.02 120.08 68.89 116.75 68.79 113.43C68.72 110.08 68.72 106.8 68.72 103.55C68.72 102.24 68.72 95.7 68.72 83.94L68.72 74.14L68.72 69.24L68.72 68.63L68.75 67.85C68.79 67.11 68.81 66.7 68.81 66.62C68.86 65.8 68.88 65.01 68.95 64.16C69.44 60.46 70.13 56.97 71.43 53.68C72.59 50.32 74.37 47.22 76.28 44.25C80.34 38.46 85.73 33.59 91.99 30.28C98.26 27.01 105.32 25.24 112.4 25.2C112.43 25.2 112.52 25.2 112.55 25.2Z" id="b3Qedq6pbF"></path><path d="M123.99 117.64C123.99 127.45 116.04 135.39 106.24 135.39C96.43 135.39 88.49 127.45 88.49 117.64C88.49 107.84 96.43 99.89 106.24 99.89C116.04 99.89 123.99 107.84 123.99 117.64" id="axXocpcev"></path><path d="M106.24 135.39C96.43 135.39 88.49 127.45 88.49 117.64C88.49 107.84 96.43 99.89 106.24 99.89C116.04 99.89 123.99 107.84 123.99 117.64C123.99 127.45 116.04 135.39 106.24 135.39Z" id="a2YCew6u9V"></path><path d="M113.29 117.09C113.29 120.98 110.13 124.14 106.24 124.14C102.34 124.14 99.18 120.98 99.18 117.09C99.18 113.19 102.34 110.04 106.24 110.04C110.13 110.04 113.29 113.19 113.29 117.09" id="cBpLz10u1"></path></defs><g><g><g><use xlink:href="#cg2NSLkXi" opacity="1" fill="#ffffff" fill-opacity="1"></use><g><use xlink:href="#cg2NSLkXi" opacity="1" fill-opacity="0" stroke="#000000" stroke-width="1" stroke-opacity="0"></use></g></g><g><use xlink:href="#b3Qedq6pbF" opacity="1" fill="#1d1d1b" fill-opacity="1"></use><g><use xlink:href="#b3Qedq6pbF" opacity="1" fill-opacity="0" stroke="#000000" stroke-width="1" stroke-opacity="0"></use></g></g><g><use xlink:href="#axXocpcev" opacity="1" fill="#ffffff" fill-opacity="1"></use><g><use xlink:href="#axXocpcev" opacity="1" fill-opacity="0" stroke="#000000" stroke-width="1" stroke-opacity="0"></use></g></g><g><use xlink:href="#a2YCew6u9V" opacity="1" fill="#000000" fill-opacity="0"></use><g><use xlink:href="#a2YCew6u9V" opacity="1" fill-opacity="0" stroke="#1d1d1b" stroke-width="4" stroke-opacity="1"></use></g></g><g><use xlink:href="#cBpLz10u1" opacity="1" fill="#1d1d1b" fill-opacity="1"></use><g><use xlink:href="#cBpLz10u1" opacity="1" fill-opacity="0" stroke="#000000" stroke-width="1" stroke-opacity="0"></use></g></g></g></g></svg>