<?xml version="1.0" encoding="UTF-8" standalone="no"?>
<!DOCTYPE svg PUBLIC "-//W3C//DTD SVG 1.1//EN" "http://www.w3.org/Graphics/SVG/1.1/DTD/svg11.dtd">
<svg version="1.1" xmlns="http://www.w3.org/2000/svg" xmlns:xlink="http://www.w3.org/1999/xlink" preserveAspectRatio="xMidYMid meet" viewBox="0 0 200 200" width="200" height="200"><defs><path d="M146.03 165.21C146.03 173.38 139.17 180.01 130.71 180.01C122.25 180.01 115.39 173.38 115.39 165.21C115.39 173.38 108.53 178.95 100.07 178.95C91.61 178.95 84.76 173.38 84.76 165.21C84.76 173.38 77.9 180.01 69.44 180.01C60.98 180.01 54.12 173.38 54.12 165.21C54.18 164.42 54.64 158.1 54.69 157.31C54.69 134.83 75 127.43 100.17 127.43C125.34 127.43 145.85 137.48 145.85 157.83C145.88 159.31 145.99 163.74 146.03 165.21Z" id="a8nUUms4ZT"></path><path d="M142.55 166.47L142.54 165.3C142.47 160.42 142.43 157.71 142.42 157.16C142.39 154.76 142.01 152.42 141.3 150.18C140.58 147.95 139.47 145.86 138.05 143.94C136.63 142.02 134.85 140.34 132.89 138.83C128.95 135.81 124.19 133.68 119.2 132.26C114.21 130.78 108.93 130.12 103.69 129.86C98.39 129.62 93.03 129.86 87.82 130.57C85.21 130.93 82.64 131.46 80.13 132.12C77.62 132.79 75.18 133.62 72.89 134.68C68.28 136.77 64.3 139.81 61.71 143.71C59.15 147.63 58.04 152.38 58.11 157.31C58.11 157.32 58.11 157.38 58.1 157.48L58.1 157.56L57.6 165.46C57.6 165.31 57.61 165.23 57.61 165.21C57.65 168.2 58.89 171.13 61.11 173.22C62.21 174.27 63.49 175.14 64.92 175.73C65.62 176.02 66.36 176.25 67.12 176.41C67.5 176.49 67.89 176.55 68.26 176.6C68.3 176.6 68.47 176.62 68.78 176.64C69.17 176.66 69.39 176.67 69.44 176.67C72.57 176.78 75.72 175.71 78.18 173.66C79.4 172.63 80.46 171.38 81.24 169.95C82.05 168.52 82.52 166.91 82.75 165.21C82.76 165.17 82.81 164.81 82.82 164.76C82.96 163.68 83.96 162.92 85.05 163.06C86.1 163.21 86.85 164.16 86.76 165.21C86.76 165.21 86.76 165.22 86.76 165.22C86.98 166.87 87.44 168.41 88.21 169.75C88.96 171.09 90 172.24 91.22 173.17C92.45 174.09 93.84 174.82 95.36 175.26C96.11 175.49 96.88 175.67 97.67 175.79C98.07 175.84 98.48 175.88 98.86 175.91C98.9 175.91 99.08 175.92 99.42 175.94C99.82 175.95 100.03 175.95 100.08 175.95C103.3 175.97 106.49 175.02 108.93 173.17C110.15 172.24 111.19 171.09 111.94 169.74C112.71 168.4 113.17 166.86 113.39 165.21C113.4 165.17 113.45 164.81 113.45 164.77C113.6 163.68 114.6 162.92 115.68 163.06C116.74 163.21 117.49 164.16 117.39 165.21C117.39 165.21 117.39 165.22 117.39 165.22C117.6 166.92 118.07 168.53 118.88 169.97C119.64 171.41 120.69 172.69 121.93 173.7C123.19 174.71 124.58 175.51 126.08 176C126.83 176.25 127.59 176.44 128.37 176.55C128.75 176.61 129.16 176.65 129.53 176.67C129.56 176.67 129.74 176.67 130.05 176.68C130.45 176.68 130.67 176.67 130.71 176.67C133.84 176.58 136.83 175.3 139.03 173.21C140.13 172.18 141.02 170.93 141.63 169.56C141.95 168.89 142.2 168.18 142.37 167.45C142.45 167.12 142.5 166.79 142.55 166.47M149.26 157.69L149.36 165.3L149.37 166.04C149.34 166.63 149.33 166.96 149.32 167.03C149.27 167.64 149.19 168.24 149.08 168.85C148.85 170.05 148.5 171.23 148.03 172.36C147.06 174.61 145.62 176.63 143.86 178.31C142.11 179.99 140 181.27 137.76 182.14C135.5 182.99 133.09 183.38 130.71 183.34C130.66 183.34 130.38 183.32 129.89 183.3C129.32 183.24 129.01 183.21 128.94 183.21C128.34 183.13 127.76 183.04 127.18 182.91C126.02 182.66 124.88 182.3 123.79 181.83C121.62 180.88 119.63 179.54 118.02 177.83C116.4 176.13 115.12 174.13 114.31 171.96C113.53 169.78 113.18 167.46 113.39 165.22C113.39 165.22 113.39 165.22 113.39 165.21C115.79 165.21 117.12 165.21 117.39 165.21C117.61 167.39 117.3 169.69 116.46 171.83C115.61 173.96 114.23 175.9 112.51 177.42C110.81 178.97 108.77 180.09 106.65 180.85C104.52 181.59 102.29 181.93 100.08 181.95C100.03 181.95 99.77 181.94 99.3 181.93C98.78 181.89 98.49 181.88 98.43 181.87C97.85 181.82 97.32 181.76 96.76 181.67C95.66 181.49 94.57 181.23 93.5 180.85C91.39 180.09 89.35 178.98 87.65 177.43C85.93 175.9 84.55 173.97 83.69 171.84C82.85 169.7 82.53 167.4 82.76 165.22C82.76 165.22 82.76 165.22 82.75 165.21C85.16 165.21 86.49 165.21 86.76 165.21C86.99 167.46 86.64 169.78 85.88 171.97C85.08 174.15 83.81 176.18 82.17 177.86C80.55 179.57 78.55 180.91 76.37 181.86C74.19 182.79 71.81 183.28 69.44 183.34C69.38 183.34 69.11 183.34 68.62 183.33C68.04 183.3 67.73 183.28 67.66 183.28C67.05 183.23 66.47 183.16 65.87 183.05C64.7 182.85 63.53 182.53 62.41 182.1C60.16 181.24 58.06 179.97 56.29 178.3C54.53 176.64 53.08 174.61 52.1 172.37C51.1 170.13 50.61 167.65 50.63 165.21C50.63 165.2 50.63 165.15 50.63 165.15C50.63 165.09 50.64 165.02 50.64 164.96C50.68 164.43 50.9 161.8 51.29 157.06C51.28 157.21 51.28 157.29 51.28 157.31C51.31 154.35 51.65 151.33 52.49 148.39C53.32 145.45 54.66 142.61 56.44 140.08C58.23 137.57 60.46 135.4 62.9 133.65C65.34 131.9 67.99 130.56 70.68 129.49C76.09 127.37 81.68 126.32 87.23 125.73C92.78 125.14 98.3 125 103.85 125.15C109.44 125.32 114.99 126.02 120.5 127.33C125.98 128.68 131.43 130.73 136.32 134.05C138.76 135.71 141.05 137.69 142.97 140.06C144.89 142.42 146.47 145.11 147.55 148C148.6 150.9 149.12 153.97 149.23 156.99C149.23 157.08 149.24 157.32 149.26 157.69Z" id="g1vi8U5u"></path><path d="M97.77 20.02C112.31 20.02 124.42 28.64 124.42 39.27C124.42 45.64 120.16 51.28 113.62 54.78C125.83 55.47 135.44 62.92 135.44 72.02C135.44 78.98 129.8 84.97 121.69 87.71C134.96 92.95 144.11 103.94 144.11 116.65C144.11 134.43 127.78 148.85 105.69 148.85C72.31 148.85 57.45 120.15 57.45 84.57C57.45 81.34 57.45 55.47 57.45 52.23C57.45 34.44 75.68 20.02 97.77 20.02" id="gcA6iWekR"></path><path d="M82.12 26.15C77.15 27.97 72.54 30.76 68.84 34.38C65.15 38 62.39 42.51 61.35 47.39C61.19 48 61.12 48.62 61.01 49.23C60.95 49.85 60.88 50.31 60.85 51.03C60.85 51.1 60.84 51.46 60.81 52.1L60.81 52.23C60.81 52.27 60.81 52.3 60.81 52.3C60.81 52.42 60.81 52.21 60.81 52.26C60.81 52.28 60.81 52.37 60.81 52.53L60.81 53.07L60.81 55.21L60.81 63.8C60.8 74.1 60.8 79.82 60.8 80.96C60.81 83.85 60.78 86.64 60.91 89.41C61 92.19 61.24 94.96 61.55 97.71C62.2 103.21 63.3 108.63 64.98 113.83C66.67 119.02 68.96 123.98 71.97 128.39C75 132.77 78.76 136.6 83.19 139.41C85.4 140.82 87.76 141.98 90.22 142.91C92.69 143.83 95.27 144.46 97.89 144.9C98.02 144.92 98.68 145.02 99.87 145.19C101.03 145.29 101.68 145.35 101.8 145.36C102.99 145.5 104.72 145.48 105.89 145.52C108.56 145.5 111.23 145.25 113.83 144.75C119.04 143.79 124.04 141.81 128.31 138.85C132.58 135.91 136.1 131.97 138.27 127.4C140.48 122.87 141.24 117.61 140.51 112.68C139.74 107.71 137.26 103.02 133.78 99.12C130.28 95.21 125.76 92.13 120.83 89.88C120.82 89.88 120.69 89.82 120.68 89.82C119.52 89.29 119 87.91 119.53 86.75C119.81 86.13 120.34 85.7 120.94 85.5C120.94 85.5 120.94 85.5 120.94 85.5C121.87 85.1 122.78 84.67 123.66 84.21C124.53 83.72 125.37 83.2 126.15 82.62C126.94 82.06 127.7 81.46 128.37 80.79C129.06 80.14 129.65 79.42 130.2 78.69C130.7 77.93 131.18 77.17 131.52 76.36C131.9 75.58 132.12 74.73 132.29 73.92C132.31 73.74 132.33 73.57 132.36 73.39C132.38 73.29 132.4 73.23 132.41 73.1C132.41 73.08 132.42 72.94 132.43 72.69C132.45 72.2 132.46 71.92 132.47 71.87C132.46 72.16 132.46 71.94 132.46 72.01C132.46 72.01 132.46 72 132.46 72L132.46 71.98L132.46 71.94L132.46 71.86L132.45 71.7C132.44 71.51 132.44 71.41 132.44 71.38C132.38 70.54 132.21 69.71 131.94 68.9C131.42 67.27 130.46 65.73 129.23 64.37C128 62.99 126.48 61.81 124.82 60.8C121.48 58.79 117.54 57.62 113.49 57.11C113.47 57.11 113.27 57.08 113.25 57.08C111.98 56.92 111.09 55.77 111.25 54.51C111.35 53.71 111.85 53.06 112.52 52.73C112.52 52.73 112.52 52.73 112.52 52.73C116.14 50.46 119.2 47.37 120.53 43.79C120.85 42.9 121.06 41.99 121.2 41.09C121.22 40.68 121.3 40.38 121.29 39.71C121.29 39.68 121.29 39.53 121.3 39.27L121.3 39.16C121.3 39.15 121.3 39.15 121.3 39.15C121.3 39.03 121.29 39.3 121.3 39.27C121.3 39.26 121.29 39.26 121.29 39.24L121.29 39.2C121.28 39.1 121.28 39.04 121.28 39.03C121.26 38.81 121.26 38.58 121.22 38.35C121.03 36.56 120.33 34.83 119.3 33.26C117.25 30.08 113.84 27.58 110.06 25.92C108.16 25.09 106.15 24.45 104.08 24.04C103.05 23.83 102 23.67 100.95 23.57C100.41 23.51 99.9 23.47 99.41 23.44C98.94 23.41 98.27 23.41 97.71 23.39C92.43 23.39 87.1 24.31 82.12 26.15ZM99.64 16.7C100.32 16.73 100.97 16.77 101.6 16.83C102.87 16.95 104.14 17.13 105.4 17.37C107.92 17.86 110.4 18.61 112.8 19.64C115.18 20.68 117.47 21.99 119.57 23.66C121.63 25.36 123.53 27.35 124.96 29.77C126.37 32.17 127.34 34.95 127.5 37.82C127.54 38.18 127.53 38.54 127.54 38.89C127.54 38.91 127.54 39 127.54 39.16L127.54 39.42L127.53 39.53C127.51 39.79 127.5 39.94 127.5 39.97C127.49 40.47 127.37 41.33 127.25 42.08C126.98 43.48 126.54 44.82 125.97 46.09C124.79 48.62 123.11 50.8 121.16 52.58C119.21 54.35 117.02 55.75 114.73 56.84C114.73 56.84 114.73 56.84 114.73 56.84C114.14 54.21 113.82 52.75 113.76 52.45C118.48 52.45 123.28 53.53 127.61 55.85C129.79 56.98 131.81 58.5 133.58 60.35C135.33 62.21 136.78 64.47 137.64 67.03C138.06 68.3 138.31 69.65 138.39 71C138.4 71.04 138.4 71.21 138.41 71.51L138.42 71.76L138.42 72.17L138.37 72.99C138.36 73.24 138.35 73.38 138.35 73.4C138.34 73.55 138.31 73.76 138.29 73.93C138.27 74.04 138.13 74.92 138.11 75.03C137.81 76.37 137.41 77.65 136.81 78.83C136.26 80.05 135.51 81.12 134.73 82.14C133.9 83.13 133.03 84.06 132.07 84.87C131.13 85.7 130.12 86.41 129.08 87.07C128.03 87.71 126.94 88.24 125.83 88.73C125.28 88.97 124.71 89.17 124.15 89.39C124.04 89.43 123.47 89.61 122.44 89.92L122.44 89.92C122.5 87.3 122.54 85.84 122.54 85.54C128.23 87.52 133.64 90.68 138.02 95.09C142.44 99.44 145.71 105.22 146.92 111.55C147.23 113.13 147.39 114.74 147.43 116.35C147.43 116.38 147.43 116.51 147.44 116.75L147.43 117.02C147.43 117.34 147.42 117.52 147.42 117.55C147.41 117.93 147.42 118.23 147.38 118.66C147.32 119.5 147.27 120.36 147.14 121.13C146.73 124.31 145.79 127.41 144.45 130.31C141.75 136.12 137.33 140.96 132.17 144.48C127 148.01 121.09 150.27 115.05 151.36C112.03 151.91 108.97 152.17 105.92 152.18C104.24 152.13 103.09 152.17 101.43 152.02C100.65 151.95 99.86 151.9 99.1 151.81C98.87 151.78 97.05 151.52 96.82 151.49C93.81 150.98 90.8 150.25 87.9 149.17C85.01 148.08 82.21 146.7 79.59 145.04C74.34 141.71 69.93 137.19 66.47 132.17C63.01 127.13 60.47 121.59 58.62 115.9C56.77 110.21 55.6 104.36 54.9 98.49C54.57 95.56 54.32 92.62 54.22 89.68C54.08 86.73 54.11 83.8 54.1 80.96C54.1 79.82 54.1 74.1 54.1 63.8L54.1 55.21L54.1 53.07L54.1 52.53L54.11 51.89C54.13 51.24 54.14 50.88 54.14 50.81C54.17 50.1 54.27 49.13 54.36 48.34C54.49 47.54 54.59 46.74 54.79 45.95C56.15 39.61 59.67 33.96 64.13 29.59C68.61 25.2 74.03 21.95 79.79 19.84C85.55 17.71 91.67 16.66 97.77 16.66C98.44 16.67 98.95 16.66 99.64 16.7Z" id="bWiXE2EWS"></path><path d="M109.36 91.75C109.36 101.55 101.42 109.5 91.61 109.5C81.81 109.5 73.86 101.55 73.86 91.75C73.86 81.95 81.81 74 91.61 74C101.42 74 109.36 81.95 109.36 91.75" id="b1QQuZdNi"></path><path d="M91.61 109.5C81.81 109.5 73.86 101.55 73.86 91.75C73.86 81.95 81.81 74 91.61 74C101.42 74 109.36 81.95 109.36 91.75C109.36 101.55 101.42 109.5 91.61 109.5Z" id="c66GeVxsL"></path><path d="M98.67 91.2C98.67 95.09 95.51 98.25 91.61 98.25C87.72 98.25 84.56 95.09 84.56 91.2C84.56 87.3 87.72 84.14 91.61 84.14C95.51 84.14 98.67 87.3 98.67 91.2" id="d1lWwBIDe"></path></defs><g><g><g><use xlink:href="#a8nUUms4ZT" opacity="1" fill="#ffffff" fill-opacity="1"></use><g><use xlink:href="#a8nUUms4ZT" opacity="1" fill-opacity="0" stroke="#000000" stroke-width="1" stroke-opacity="0"></use></g></g><g><use xlink:href="#g1vi8U5u" opacity="1" fill="#1d1d1b" fill-opacity="1"></use><g><use xlink:href="#g1vi8U5u" opacity="1" fill-opacity="0" stroke="#000000" stroke-width="1" stroke-opacity="0"></use></g></g><g><use xlink:href="#gcA6iWekR" opacity="1" fill="#ffffff" fill-opacity="1"></use><g><use xlink:href="#gcA6iWekR" opacity="1" fill-opacity="0" stroke="#000000" stroke-width="1" stroke-opacity="0"></use></g></g><g><use xlink:href="#bWiXE2EWS" opacity="1" fill="#1d1d1b" fill-opacity="1"></use><g><use xlink:href="#bWiXE2EWS" opacity="1" fill-opacity="0" stroke="#000000" stroke-width="1" stroke-opacity="0"></use></g></g><g><use xlink:href="#b1QQuZdNi" opacity="1" fill="#ffffff" fill-opacity="1"></use><g><use xlink:href="#b1QQuZdNi" opacity="1" fill-opacity="0" stroke="#000000" stroke-width="1" stroke-opacity="0"></use></g></g><g><use xlink:href="#c66GeVxsL" opacity="1" fill="#000000" fill-opacity="0"></use><g><use xlink:href="#c66GeVxsL" opacity="1" fill-opacity="0" stroke="#1d1d1b" stroke-width="4" stroke-opacity="1"></use></g></g><g><use xlink:href="#d1lWwBIDe" opacity="1" fill="#1d1d1b" fill-opacity="1"></use><g><use xlink:href="#d1lWwBIDe" opacity="1" fill-opacity="0" stroke="#000000" stroke-width="1" stroke-opacity="0"></use></g></g></g></g></svg>