<?xml version="1.0" encoding="UTF-8" standalone="no"?>
<!DOCTYPE svg PUBLIC "-//W3C//DTD SVG 1.1//EN" "http://www.w3.org/Graphics/SVG/1.1/DTD/svg11.dtd">
<svg version="1.1" xmlns="http://www.w3.org/2000/svg" xmlns:xlink="http://www.w3.org/1999/xlink" preserveAspectRatio="xMidYMid meet" viewBox="0 0 200 200" width="200" height="200"><defs><path d="M97.01 28.57C111.54 28.57 123.65 39.27 123.65 52.47C123.65 60.38 119.39 67.38 112.86 71.73C125.06 72.59 134.67 81.83 134.67 93.14C134.67 101.79 129.03 109.22 120.92 112.63C134.2 119.14 143.34 132.78 143.34 148.56C143.34 170.65 127.01 188.56 104.92 188.56C71.54 188.56 56.68 152.91 56.68 108.73C56.68 104.72 56.68 72.58 56.68 68.56C56.68 46.48 74.92 28.57 97.01 28.57" id="b1I0svOGa5"></path><path d="M97.01 31.94C91.01 31.98 85.06 33.47 79.74 36.23C74.44 39.03 69.88 43.17 66.43 48.05C64.83 50.58 63.3 53.18 62.34 56.01C62.1 56.72 61.77 57.4 61.6 58.13C61.54 58.34 61.09 60.08 61.03 60.3C60.81 61.02 60.71 61.73 60.61 62.43C60.58 62.64 60.3 64.33 60.27 64.54C60.2 65.32 60.18 66.16 60.13 66.97C60.12 67.05 60.1 67.46 60.06 68.19L60.05 68.5L60.04 68.65C60.04 68.7 60.04 68.72 60.04 68.73C60.04 68.41 60.04 68.68 60.04 68.63C60.04 68.67 60.04 68.88 60.04 69.24L60.04 74.14L60.04 83.94C60.04 95.7 60.04 102.24 60.04 103.55C60.03 106.83 60.03 110.08 60.09 113.27C60.19 116.47 60.32 119.68 60.59 122.86C61.08 129.25 61.99 135.58 63.37 141.78C64.07 144.87 64.87 147.94 65.86 150.93C66.82 153.92 67.94 156.86 69.26 159.68C71.85 165.35 75.25 170.59 79.5 174.87C83.76 179.15 89 182.27 94.74 183.87C95.46 184.05 96.18 184.25 96.9 184.41C97.13 184.45 98.89 184.76 99.11 184.8C100.58 184.97 101.9 185.16 103.62 185.18C103.71 185.18 104.11 185.19 104.85 185.22C104.94 185.22 104.99 185.22 105 185.22C105.05 185.23 104.84 185.22 104.96 185.22C104.97 185.22 104.99 185.22 105.03 185.22L105.31 185.2L105.87 185.17C107.22 185.1 107.97 185.06 108.11 185.05C108.87 185.05 109.59 184.84 110.33 184.75C111.07 184.62 111.81 184.56 112.53 184.38C112.75 184.32 114.47 183.86 114.69 183.8C115.05 183.7 115.41 183.63 115.76 183.51C115.83 183.48 116.18 183.35 116.81 183.11L118.89 182.32L120.88 181.32C121.47 181.02 121.81 180.85 121.87 180.82C122.19 180.64 122.5 180.43 122.81 180.23C123 180.11 124.5 179.15 124.69 179.04C125.29 178.6 125.86 178.12 126.45 177.67C127.04 177.21 127.62 176.76 128.14 176.22C128.3 176.07 129.58 174.83 129.74 174.67C130.26 174.14 130.72 173.55 131.21 172.99C132.23 171.91 133.01 170.62 133.88 169.42C134.32 168.81 134.63 168.13 135.02 167.49C135.37 166.83 135.8 166.22 136.07 165.52C136.67 164.14 137.34 162.81 137.77 161.37C138 160.66 138.29 159.96 138.48 159.24C138.52 159.09 138.7 158.36 139.01 157.05L139.28 155.95L139.43 154.88C139.63 153.6 139.74 152.89 139.76 152.74C139.85 152 139.86 151.13 139.91 150.33C139.92 150.25 139.94 149.84 139.98 149.11L140.01 148.5C140.01 148.45 140.01 148.43 140.01 148.42C140 148.7 140.01 148.46 140.01 148.51C140.01 148.5 140 148.45 140 148.36L140 148.08L139.95 145.83C139.82 144.49 139.75 143.74 139.74 143.59C139.01 137.63 136.81 131.86 133.39 126.86C129.94 121.88 125.29 117.7 119.89 114.73C119.88 114.72 119.79 114.67 119.78 114.66C118.65 114.04 118.24 112.63 118.86 111.51C119.13 111.02 119.54 110.67 120.02 110.48C120.02 110.48 120.02 110.48 120.02 110.48C121.01 109.96 121.98 109.42 122.89 108.8C123.79 108.18 124.67 107.52 125.45 106.76C126.27 106.04 126.99 105.24 127.68 104.41C128.34 103.57 128.95 102.69 129.45 101.75C129.7 101.29 129.95 100.82 130.14 100.33C130.37 99.86 130.56 99.37 130.73 98.87C131.09 97.89 131.31 96.86 131.49 95.84C131.52 95.34 131.61 94.96 131.65 94.37C131.65 94.31 131.66 94 131.68 93.45L131.69 93.22L131.69 93.11L131.69 93.05C131.69 93.03 131.69 93.02 131.69 93.02C131.69 92.99 131.69 93.24 131.69 93.13C131.69 93.13 131.69 93.12 131.69 93.12C131.68 92.88 131.67 92.75 131.67 92.73C131.62 92.21 131.63 91.69 131.56 91.17C131.54 91.07 131.46 90.56 131.31 89.63C131.07 88.73 130.93 88.22 130.91 88.12C130.75 87.63 130.54 87.15 130.37 86.65C129.96 85.7 129.48 84.76 128.91 83.87C128.65 83.41 128.33 82.99 128 82.57C127.7 82.13 127.37 81.72 126.99 81.34C126.29 80.53 125.5 79.81 124.68 79.11C124.25 78.79 123.84 78.43 123.4 78.12C123.26 78.03 122.17 77.32 122.03 77.23C121.08 76.71 120.12 76.19 119.09 75.79C118.6 75.54 118.07 75.39 117.55 75.2C117.04 75.01 116.51 74.84 115.97 74.72C114.9 74.42 113.8 74.26 112.7 74.06C112.7 74.06 112.69 74.06 112.69 74.06C111.42 73.98 110.44 72.89 110.52 71.61C110.56 70.96 110.87 70.38 111.33 69.99C111.35 69.97 111.42 69.91 111.56 69.79L112.93 68.64L113.61 68.07L114.22 67.43L115.44 66.16C116.08 65.33 116.43 64.86 116.5 64.77C116.88 64.33 117.18 63.83 117.47 63.33C117.76 62.83 118.09 62.36 118.34 61.85C118.79 60.79 119.34 59.78 119.6 58.68C119.73 58.14 119.99 57.58 120.03 57.07C120.11 56.56 120.21 56.06 120.31 55.55C120.31 55.53 120.34 55.4 120.38 55.17L120.41 54.69L120.45 53.71L120.49 52.73L120.51 52.48L120.51 52.36L120.51 52.3C120.51 52.28 120.51 52.27 120.51 52.27C120.51 52.36 120.52 52.05 120.51 52.47C120.51 52.46 120.51 52.46 120.51 52.45L120.47 52.04L120.33 50.37C120.14 49.39 120.03 48.85 120.01 48.74C119.92 48.19 119.68 47.68 119.54 47.15C119.4 46.61 119.18 46.1 118.94 45.6C118.54 44.56 117.96 43.6 117.39 42.65C117.29 42.51 116.52 41.41 116.43 41.27C116.08 40.83 115.69 40.42 115.33 39.99C114.99 39.54 114.55 39.18 114.16 38.77C113.76 38.37 113.35 37.98 112.89 37.64C112.04 36.89 111.08 36.27 110.13 35.64C109.13 35.09 108.15 34.49 107.08 34.07C106.05 33.56 104.93 33.26 103.84 32.89C102.72 32.63 101.58 32.32 100.54 32.22C99.59 32.01 98.11 32.01 96.85 31.93C96.88 31.93 96.97 31.94 97.01 31.94ZM97.16 25.2C98.5 25.28 99.65 25.24 101.28 25.5C102.84 25.65 104.23 26.01 105.65 26.34C107.04 26.78 108.45 27.18 109.78 27.8C111.15 28.34 112.42 29.08 113.7 29.79C114.93 30.6 116.16 31.4 117.28 32.38C117.87 32.83 118.41 33.33 118.93 33.86C119.45 34.39 120.01 34.88 120.46 35.47C120.93 36.05 121.42 36.61 121.86 37.2C121.98 37.39 122.98 38.88 123.1 39.07C123.84 40.36 124.59 41.67 125.09 43.09C125.38 43.78 125.64 44.49 125.81 45.22C125.99 45.95 126.25 46.66 126.34 47.41C126.36 47.56 126.48 48.3 126.68 49.64L126.77 51.89L126.79 52.45L126.78 52.72L126.77 52.78L126.76 52.9L126.74 53.15L126.65 54.12L126.57 55.1L126.52 55.59C126.45 55.94 126.42 56.13 126.41 56.17C126.25 56.94 126.09 57.72 125.9 58.49C125.74 59.28 125.42 59.91 125.17 60.62C124.72 62.04 123.95 63.3 123.27 64.6C122.91 65.24 122.45 65.82 122.05 66.42C121.63 67.02 121.21 67.62 120.7 68.14C120.61 68.24 120.12 68.78 119.24 69.74L117.62 71.17L116.8 71.87L115.92 72.48L114.15 73.68L113.02 69.41C113.02 69.41 113.02 69.41 113.02 69.41C114.36 69.48 115.7 69.55 117.03 69.82C117.7 69.91 118.35 70.07 119.01 70.25C119.66 70.42 120.32 70.57 120.96 70.82C122.25 71.24 123.48 71.82 124.71 72.42C124.89 72.53 126.31 73.35 126.48 73.46C127.07 73.82 127.61 74.24 128.18 74.63C129.27 75.46 130.34 76.35 131.27 77.38C131.77 77.87 132.22 78.4 132.64 78.96C133.08 79.5 133.51 80.04 133.87 80.65C134.67 81.8 135.3 83.06 135.87 84.35C136.12 85 136.4 85.65 136.61 86.33C136.65 86.46 136.83 87.14 137.17 88.37C137.37 89.63 137.48 90.33 137.5 90.47C137.59 91.17 137.59 91.88 137.63 92.58C137.64 92.62 137.64 92.79 137.66 93.11L137.64 93.69C137.61 94.25 137.6 94.55 137.59 94.61C137.56 95.25 137.44 96.08 137.34 96.8C137.07 98.19 136.73 99.56 136.21 100.87C135.73 102.2 135.09 103.45 134.36 104.64C133.63 105.83 132.79 106.94 131.88 107.98C130.95 109 129.97 109.97 128.9 110.82C127.84 111.68 126.68 112.42 125.51 113.09C124.33 113.76 123.09 114.3 121.83 114.78C121.83 114.78 121.83 114.78 121.82 114.78C121.9 112.23 121.94 110.82 121.95 110.54C128.27 113.36 133.89 117.84 138.12 123.43C142.41 128.99 145.12 135.75 146.19 142.72C146.21 142.89 146.32 143.77 146.51 145.35L146.65 148L146.66 148.33C146.67 148.43 146.67 148.48 146.67 148.49C146.67 148.59 146.68 148.4 146.67 148.73C146.67 148.74 146.67 148.76 146.67 148.81L146.64 149.42C146.61 150.15 146.6 150.56 146.59 150.64C146.55 151.47 146.55 152.24 146.47 153.12C146.44 153.3 146.32 154.21 146.11 155.84L145.93 157.19L145.64 158.49C145.28 160.03 145.08 160.89 145.04 161.06C144.82 161.92 144.5 162.75 144.23 163.59C142.02 170.32 137.99 176.44 132.74 181.25C132.12 181.89 131.41 182.43 130.71 182.98C130 183.52 129.31 184.09 128.58 184.6C128.36 184.75 126.55 185.89 126.32 186.03C125.94 186.26 125.57 186.51 125.18 186.73C125.1 186.77 124.71 186.97 123.99 187.33L121.59 188.51L119.09 189.45C118.33 189.73 117.92 189.88 117.83 189.91C117.41 190.06 116.98 190.15 116.55 190.27C116.29 190.33 114.22 190.87 113.96 190.94C113.1 191.14 112.21 191.23 111.34 191.38C110.46 191.48 109.58 191.7 108.7 191.71C108.52 191.72 107.64 191.76 106.05 191.84L105.38 191.87L105.05 191.88C105 191.89 104.97 191.89 104.97 191.89C105.04 191.89 104.78 191.89 104.78 191.89C104.77 191.89 104.71 191.89 104.62 191.88C103.89 191.86 103.48 191.84 103.4 191.84C101.85 191.83 99.92 191.62 98.15 191.4C97.89 191.35 95.8 190.98 95.53 190.94C94.67 190.75 93.81 190.51 92.95 190.3C86.09 188.4 79.75 184.6 74.79 179.61C69.83 174.61 66.03 168.69 63.2 162.49C61.75 159.39 60.54 156.21 59.5 152.99C58.43 149.78 57.59 146.52 56.84 143.24C55.38 136.68 54.43 130.04 53.92 123.4C53.63 120.08 53.49 116.75 53.4 113.43C53.33 110.08 53.33 106.8 53.33 103.55C53.33 102.24 53.33 95.7 53.33 83.94L53.33 74.14L53.33 69.24L53.33 68.63L53.36 67.85C53.4 67.11 53.42 66.7 53.42 66.62C53.47 65.8 53.49 65.01 53.56 64.16C54.05 60.46 54.73 56.97 56.04 53.68C57.2 50.32 58.98 47.22 60.89 44.25C64.95 38.46 70.34 33.59 76.59 30.28C82.87 27.01 89.93 25.24 97.01 25.2C97.04 25.2 97.13 25.2 97.16 25.2Z" id="buDh80Byx"></path><path d="M58.96 124.03C79.89 120.84 91.52 119.07 93.84 118.72C95.48 118.47 97.01 119.59 97.26 121.23C97.51 122.87 96.39 124.4 94.75 124.65C94.72 124.65 94.68 124.66 94.66 124.66C91.15 125.08 63.13 128.47 59.62 128.89C58.28 129.05 57.05 128.09 56.89 126.75C56.73 125.43 57.66 124.23 58.96 124.03" id="b1cxVMnWt5"></path><path d="M58.03 108.73C58.03 108.73 59.88 108.44 63.11 107.93C66.34 107.44 70.94 106.67 76.48 105.87C79.25 105.46 82.25 105.01 85.43 104.54C87.01 104.31 88.64 104.07 90.31 103.82C90.43 103.8 91.44 103.66 91.57 103.64C92.01 103.58 92.46 103.53 92.91 103.47C93.94 103.37 94.98 103.34 95.99 103.39C100.07 103.59 104.27 105.09 107.62 107.92C110.97 110.71 113.37 114.89 113.85 119.42C114.39 123.89 112.99 128.53 110.38 131.99C107.77 135.5 104.03 137.94 100.11 139.07C99.13 139.35 98.14 139.57 97.14 139.71C96.28 139.82 95.43 139.92 94.59 140.03C92.92 140.23 91.28 140.43 89.69 140.63C86.5 141.01 83.49 141.38 80.71 141.72C75.16 142.4 70.51 142.88 67.27 143.26C64.02 143.62 62.17 143.83 62.17 143.83C60.85 143.98 59.66 143.04 59.51 141.72C59.37 140.43 60.27 139.27 61.53 139.08C61.53 139.08 63.38 138.79 66.61 138.3C69.84 137.82 74.45 137.07 79.99 136.28C82.76 135.89 85.77 135.45 88.94 135C90.53 134.77 92.16 134.53 93.83 134.29C94.65 134.18 95.49 134.06 96.33 133.94C97.04 133.84 97.75 133.68 98.45 133.47C101.24 132.64 103.85 130.89 105.62 128.47C107.39 126.06 108.27 123.04 107.89 120.07C107.59 117.14 106.06 114.36 103.79 112.44C101.52 110.49 98.57 109.39 95.68 109.23C94.94 109.19 94.23 109.21 93.56 109.26C93.52 109.27 93.3 109.29 92.92 109.33L92.35 109.4C91.6 109.5 91.18 109.56 91.09 109.57C89.42 109.78 87.79 109.98 86.2 110.18C83.01 110.58 80 110.96 77.22 111.3C71.67 112.02 67.03 112.5 63.78 112.89C60.54 113.27 58.68 113.49 58.68 113.49C57.37 113.64 56.18 112.7 56.02 111.38C55.87 110.1 56.77 108.93 58.03 108.73" id="ceAJQwUHL"></path></defs><g><g><g><use xlink:href="#b1I0svOGa5" opacity="1" fill="#ffffff" fill-opacity="1"></use><g><use xlink:href="#b1I0svOGa5" opacity="1" fill-opacity="0" stroke="#000000" stroke-width="1" stroke-opacity="0"></use></g></g><g><use xlink:href="#buDh80Byx" opacity="1" fill="#1d1d1b" fill-opacity="1"></use><g><use xlink:href="#buDh80Byx" opacity="1" fill-opacity="0" stroke="#000000" stroke-width="1" stroke-opacity="0"></use></g></g><g><use xlink:href="#b1cxVMnWt5" opacity="1" fill="#1d1d1b" fill-opacity="1"></use><g><use xlink:href="#b1cxVMnWt5" opacity="1" fill-opacity="0" stroke="#000000" stroke-width="1" stroke-opacity="0"></use></g></g><g><use xlink:href="#ceAJQwUHL" opacity="1" fill="#1d1d1b" fill-opacity="1"></use><g><use xlink:href="#ceAJQwUHL" opacity="1" fill-opacity="0" stroke="#000000" stroke-width="1" stroke-opacity="0"></use></g></g></g></g></svg>