<?xml version="1.0" encoding="UTF-8" standalone="no"?>
<!DOCTYPE svg PUBLIC "-//W3C//DTD SVG 1.1//EN" "http://www.w3.org/Graphics/SVG/1.1/DTD/svg11.dtd">
<svg version="1.1" xmlns="http://www.w3.org/2000/svg" xmlns:xlink="http://www.w3.org/1999/xlink" preserveAspectRatio="xMidYMid meet" viewBox="0 0 200 200" width="200" height="200"><defs><path d="M146.03 165.21C146.03 173.38 139.17 180.01 130.71 180.01C122.25 180.01 115.39 173.38 115.39 165.21C115.39 173.38 108.53 178.95 100.07 178.95C91.61 178.95 84.76 173.38 84.76 165.21C84.76 173.38 77.9 180.01 69.44 180.01C60.98 180.01 54.12 173.38 54.12 165.21C54.18 164.42 54.64 158.1 54.69 157.31C54.69 134.83 75 127.43 100.17 127.43C125.34 127.43 145.85 137.48 145.85 157.83C145.88 159.31 145.99 163.74 146.03 165.21Z" id="cc0k2DGMO"></path><path d="M142.55 166.47L142.54 165.3C142.47 160.42 142.43 157.71 142.42 157.16C142.39 154.76 142.01 152.42 141.3 150.18C140.58 147.95 139.47 145.86 138.05 143.94C136.63 142.02 134.85 140.34 132.89 138.83C128.95 135.81 124.19 133.68 119.2 132.26C114.21 130.78 108.93 130.12 103.69 129.86C98.39 129.62 93.03 129.86 87.82 130.57C85.21 130.93 82.64 131.46 80.13 132.12C77.62 132.79 75.18 133.62 72.89 134.68C68.28 136.77 64.3 139.81 61.71 143.71C59.15 147.63 58.04 152.38 58.11 157.31C58.11 157.32 58.11 157.38 58.1 157.48L58.1 157.56L57.6 165.46C57.6 165.31 57.61 165.23 57.61 165.21C57.65 168.2 58.89 171.13 61.11 173.22C62.21 174.27 63.49 175.14 64.92 175.73C65.62 176.02 66.36 176.25 67.12 176.41C67.5 176.49 67.89 176.55 68.26 176.6C68.3 176.6 68.47 176.62 68.78 176.64C69.17 176.66 69.39 176.67 69.44 176.67C72.57 176.78 75.72 175.71 78.18 173.66C79.4 172.63 80.46 171.38 81.24 169.95C82.05 168.52 82.52 166.91 82.75 165.21C82.76 165.17 82.81 164.81 82.82 164.76C82.96 163.68 83.96 162.92 85.05 163.06C86.1 163.21 86.85 164.16 86.76 165.21C86.76 165.21 86.76 165.22 86.76 165.22C86.98 166.87 87.44 168.41 88.21 169.75C88.96 171.09 90 172.24 91.22 173.17C92.45 174.09 93.84 174.82 95.36 175.26C96.11 175.49 96.88 175.67 97.67 175.79C98.07 175.84 98.48 175.88 98.86 175.91C98.9 175.91 99.08 175.92 99.42 175.94C99.82 175.95 100.03 175.95 100.08 175.95C103.3 175.97 106.49 175.02 108.93 173.17C110.15 172.24 111.19 171.09 111.94 169.74C112.71 168.4 113.17 166.86 113.39 165.21C113.4 165.17 113.45 164.81 113.45 164.77C113.6 163.68 114.6 162.92 115.68 163.06C116.74 163.21 117.49 164.16 117.39 165.21C117.39 165.21 117.39 165.22 117.39 165.22C117.6 166.92 118.07 168.53 118.88 169.97C119.64 171.41 120.69 172.69 121.93 173.7C123.19 174.71 124.58 175.51 126.08 176C126.83 176.25 127.59 176.44 128.37 176.55C128.75 176.61 129.16 176.65 129.53 176.67C129.56 176.67 129.74 176.67 130.05 176.68C130.45 176.68 130.67 176.67 130.71 176.67C133.84 176.58 136.83 175.3 139.03 173.21C140.13 172.18 141.02 170.93 141.63 169.56C141.95 168.89 142.2 168.18 142.37 167.45C142.45 167.12 142.5 166.79 142.55 166.47M149.26 157.69L149.36 165.3L149.37 166.04C149.34 166.63 149.33 166.96 149.32 167.03C149.27 167.64 149.19 168.24 149.08 168.85C148.85 170.05 148.5 171.23 148.03 172.36C147.06 174.61 145.62 176.63 143.86 178.31C142.11 179.99 140 181.27 137.76 182.14C135.5 182.99 133.09 183.38 130.71 183.34C130.66 183.34 130.38 183.32 129.89 183.3C129.32 183.24 129.01 183.21 128.94 183.21C128.34 183.13 127.76 183.04 127.18 182.91C126.02 182.66 124.88 182.3 123.79 181.83C121.62 180.88 119.63 179.54 118.02 177.83C116.4 176.13 115.12 174.13 114.31 171.96C113.53 169.78 113.18 167.46 113.39 165.22C113.39 165.22 113.39 165.22 113.39 165.21C115.79 165.21 117.12 165.21 117.39 165.21C117.61 167.39 117.3 169.69 116.46 171.83C115.61 173.96 114.23 175.9 112.51 177.42C110.81 178.97 108.77 180.09 106.65 180.85C104.52 181.59 102.29 181.93 100.08 181.95C100.03 181.95 99.77 181.94 99.3 181.93C98.78 181.89 98.49 181.88 98.43 181.87C97.85 181.82 97.32 181.76 96.76 181.67C95.66 181.49 94.57 181.23 93.5 180.85C91.39 180.09 89.35 178.98 87.65 177.43C85.93 175.9 84.55 173.97 83.69 171.84C82.85 169.7 82.53 167.4 82.76 165.22C82.76 165.22 82.76 165.22 82.75 165.21C85.16 165.21 86.49 165.21 86.76 165.21C86.99 167.46 86.64 169.78 85.88 171.97C85.08 174.15 83.81 176.18 82.17 177.86C80.55 179.57 78.55 180.91 76.37 181.86C74.19 182.79 71.81 183.28 69.44 183.34C69.38 183.34 69.11 183.34 68.62 183.33C68.04 183.3 67.73 183.28 67.66 183.28C67.05 183.23 66.47 183.16 65.87 183.05C64.7 182.85 63.53 182.53 62.41 182.1C60.16 181.24 58.06 179.97 56.29 178.3C54.53 176.64 53.08 174.61 52.1 172.37C51.1 170.13 50.61 167.65 50.63 165.21C50.63 165.2 50.63 165.15 50.63 165.15C50.63 165.09 50.64 165.02 50.64 164.96C50.68 164.43 50.9 161.8 51.29 157.06C51.28 157.21 51.28 157.29 51.28 157.31C51.31 154.35 51.65 151.33 52.49 148.39C53.32 145.45 54.66 142.61 56.44 140.08C58.23 137.57 60.46 135.4 62.9 133.65C65.34 131.9 67.99 130.56 70.68 129.49C76.09 127.37 81.68 126.32 87.23 125.73C92.78 125.14 98.3 125 103.85 125.15C109.44 125.32 114.99 126.02 120.5 127.33C125.98 128.68 131.43 130.73 136.32 134.05C138.76 135.71 141.05 137.69 142.97 140.06C144.89 142.42 146.47 145.11 147.55 148C148.6 150.9 149.12 153.97 149.23 156.99C149.23 157.08 149.24 157.32 149.26 157.69Z" id="c2DJoPIerF"></path><path d="M97.74 20.02C112.27 20.02 124.38 28.64 124.38 39.27C124.38 45.64 120.12 51.28 113.59 54.78C125.79 55.47 135.41 62.92 135.41 72.02C135.41 78.98 129.77 84.97 121.65 87.71C134.93 92.95 144.07 103.94 144.07 116.65C144.07 134.43 127.75 148.85 105.66 148.85C72.28 148.85 57.42 120.15 57.42 84.57C57.42 81.34 57.42 55.47 57.42 52.23C57.42 34.44 75.65 20.02 97.74 20.02" id="aQ0llKImM"></path><path d="M82.09 26.15C77.11 27.97 72.51 30.76 68.8 34.38C65.12 38 62.36 42.51 61.31 47.39C61.16 48 61.09 48.62 60.98 49.23C60.92 49.85 60.85 50.31 60.81 51.03C60.81 51.1 60.8 51.46 60.78 52.1L60.78 52.23C60.77 52.27 60.77 52.3 60.77 52.3C60.77 52.42 60.77 52.21 60.77 52.26C60.77 52.28 60.77 52.37 60.77 52.53L60.77 53.07L60.77 55.21L60.77 63.8C60.77 74.1 60.77 79.82 60.77 80.96C60.77 83.85 60.75 86.64 60.87 89.41C60.97 92.19 61.21 94.96 61.52 97.71C62.17 103.21 63.26 108.63 64.95 113.83C66.63 119.02 68.93 123.98 71.94 128.39C74.97 132.77 78.72 136.6 83.15 139.41C85.37 140.82 87.72 141.98 90.18 142.91C92.65 143.83 95.23 144.46 97.85 144.9C97.98 144.92 98.64 145.02 99.83 145.19C100.99 145.29 101.64 145.35 101.77 145.36C102.96 145.5 104.68 145.48 105.86 145.52C108.53 145.5 111.19 145.25 113.8 144.75C119.01 143.79 124 141.81 128.27 138.85C132.55 135.91 136.06 131.97 138.24 127.4C140.45 122.87 141.2 117.61 140.47 112.68C139.71 107.71 137.23 103.02 133.74 99.12C130.24 95.21 125.73 92.13 120.8 89.88C120.78 89.88 120.66 89.82 120.64 89.82C119.48 89.29 118.97 87.91 119.5 86.75C119.78 86.13 120.31 85.7 120.91 85.5C120.91 85.5 120.91 85.5 120.91 85.5C121.84 85.1 122.75 84.67 123.62 84.21C124.49 83.72 125.33 83.2 126.11 82.62C126.9 82.06 127.67 81.46 128.33 80.79C129.03 80.14 129.61 79.42 130.17 78.69C130.66 77.93 131.15 77.17 131.49 76.36C131.87 75.58 132.08 74.73 132.25 73.92C132.27 73.74 132.3 73.57 132.33 73.39C132.34 73.29 132.37 73.23 132.38 73.1C132.38 73.08 132.38 72.94 132.39 72.69C132.42 72.2 132.43 71.92 132.43 71.87C132.42 72.16 132.43 71.94 132.43 72.01C132.43 72.01 132.43 72 132.43 72L132.43 71.98L132.42 71.94L132.42 71.86L132.41 71.7C132.41 71.51 132.4 71.41 132.4 71.38C132.34 70.54 132.17 69.71 131.9 68.9C131.38 67.27 130.43 65.73 129.19 64.37C127.97 62.99 126.45 61.81 124.79 60.8C121.45 58.79 117.51 57.62 113.46 57.11C113.43 57.11 113.24 57.08 113.21 57.08C111.95 56.92 111.05 55.77 111.21 54.51C111.31 53.71 111.82 53.06 112.49 52.73C112.49 52.73 112.49 52.73 112.49 52.73C116.11 50.46 119.17 47.37 120.49 43.79C120.81 42.9 121.02 41.99 121.17 41.09C121.19 40.68 121.26 40.38 121.25 39.71C121.25 39.68 121.26 39.53 121.26 39.27L121.26 39.16C121.26 39.15 121.26 39.15 121.26 39.15C121.26 39.03 121.26 39.3 121.26 39.27C121.26 39.26 121.26 39.26 121.26 39.24L121.26 39.2C121.25 39.1 121.24 39.04 121.24 39.03C121.22 38.81 121.23 38.58 121.19 38.35C120.99 36.56 120.3 34.83 119.27 33.26C117.21 30.08 113.81 27.58 110.03 25.92C108.13 25.09 106.11 24.45 104.05 24.04C103.01 23.83 101.97 23.67 100.91 23.57C100.38 23.51 99.87 23.47 99.37 23.44C98.9 23.41 98.24 23.41 97.68 23.39C92.4 23.39 87.06 24.31 82.09 26.15ZM99.61 16.7C100.28 16.73 100.94 16.77 101.57 16.83C102.84 16.95 104.11 17.13 105.37 17.37C107.89 17.86 110.37 18.61 112.76 19.64C115.14 20.68 117.44 21.99 119.53 23.66C121.59 25.36 123.5 27.35 124.92 29.77C126.34 32.17 127.3 34.95 127.47 37.82C127.5 38.18 127.49 38.54 127.5 38.89C127.5 38.91 127.5 39 127.51 39.16L127.5 39.42L127.49 39.53C127.48 39.79 127.47 39.94 127.47 39.97C127.45 40.47 127.33 41.33 127.22 42.08C126.95 43.48 126.51 44.82 125.93 46.09C124.75 48.62 123.07 50.8 121.13 52.58C119.18 54.35 116.99 55.75 114.69 56.84C114.69 56.84 114.69 56.84 114.69 56.84C114.11 54.21 113.79 52.75 113.72 52.45C118.44 52.45 123.24 53.53 127.58 55.85C129.76 56.98 131.78 58.5 133.54 60.35C135.3 62.21 136.75 64.47 137.6 67.03C138.02 68.3 138.28 69.65 138.36 71C138.36 71.04 138.37 71.21 138.38 71.51L138.38 71.76L138.39 72.17L138.34 72.99C138.33 73.24 138.32 73.38 138.32 73.4C138.31 73.55 138.27 73.76 138.25 73.93C138.23 74.04 138.1 74.92 138.08 75.03C137.77 76.37 137.37 77.65 136.78 78.83C136.22 80.05 135.48 81.12 134.69 82.14C133.87 83.13 133 84.06 132.04 84.87C131.1 85.7 130.08 86.41 129.04 87.07C127.99 87.71 126.9 88.24 125.8 88.73C125.24 88.97 124.68 89.17 124.12 89.39C124 89.43 123.43 89.61 122.4 89.92L122.4 89.92C122.47 87.3 122.5 85.84 122.51 85.54C128.2 87.52 133.6 90.68 137.98 95.09C142.41 99.44 145.68 105.22 146.89 111.55C147.19 113.13 147.36 114.74 147.39 116.35C147.39 116.38 147.4 116.51 147.4 116.75L147.4 117.02C147.39 117.34 147.39 117.52 147.39 117.55C147.37 117.93 147.39 118.23 147.35 118.66C147.28 119.5 147.23 120.36 147.11 121.13C146.69 124.31 145.76 127.41 144.42 130.31C141.71 136.12 137.29 140.96 132.14 144.48C126.96 148.01 121.06 150.27 115.02 151.36C112 151.91 108.93 152.17 105.89 152.18C104.2 152.13 103.06 152.17 101.4 152.02C100.62 151.95 99.83 151.9 99.06 151.81C98.83 151.78 97.02 151.52 96.79 151.49C93.77 150.98 90.77 150.25 87.87 149.17C84.97 148.08 82.18 146.7 79.56 145.04C74.31 141.71 69.9 137.19 66.43 132.17C62.98 127.13 60.44 121.59 58.59 115.9C56.74 110.21 55.56 104.36 54.87 98.49C54.53 95.56 54.28 92.62 54.18 89.68C54.05 86.73 54.07 83.8 54.07 80.96C54.07 79.82 54.07 74.1 54.06 63.8L54.06 55.21L54.06 53.07L54.06 52.53L54.07 51.89C54.09 51.24 54.1 50.88 54.1 50.81C54.13 50.1 54.23 49.13 54.33 48.34C54.46 47.54 54.56 46.74 54.76 45.95C56.11 39.61 59.64 33.96 64.09 29.59C68.58 25.2 73.99 21.95 79.75 19.84C85.52 17.71 91.64 16.66 97.74 16.66C98.41 16.67 98.92 16.66 99.61 16.7Z" id="a5EcPOqZkL"></path><path d="M58.37 96.92C80.1 93.73 92.18 91.96 94.59 91.61C96.23 91.37 97.76 92.5 98 94.14C98.24 95.78 97.1 97.3 95.46 97.54C95.44 97.55 95.4 97.55 95.38 97.56C91.74 97.98 62.65 101.36 59.01 101.79C57.66 101.94 56.45 100.98 56.29 99.63C56.14 98.31 57.06 97.11 58.37 96.92" id="f7ufPsQqx"></path><path d="M57.36 82.97C57.36 82.97 59.24 82.62 62.52 82C65.81 81.39 70.5 80.46 76.14 79.45C78.97 78.94 82.02 78.39 85.25 77.81C86.87 77.52 88.53 77.22 90.23 76.92C91.13 76.76 92.04 76.6 92.96 76.44C93.39 76.39 93.81 76.34 94.41 76.3C94.98 76.26 95.46 76.26 96 76.26C100.18 76.31 104.53 77.73 108.02 80.54C111.52 83.31 114.04 87.55 114.58 92.22C115.16 96.75 113.71 101.54 110.99 105.05C108.29 108.61 104.41 111.04 100.36 112.1C99.37 112.37 98.29 112.55 97.36 112.67C96.49 112.77 95.62 112.88 94.77 112.98C93.05 113.18 91.38 113.38 89.75 113.57C86.48 113.95 83.4 114.31 80.55 114.64C74.86 115.32 70.1 115.79 66.78 116.16C63.45 116.52 61.55 116.73 61.55 116.73C60.24 116.87 59.05 115.92 58.91 114.6C58.77 113.32 59.68 112.16 60.95 111.97C60.95 111.97 62.84 111.69 66.14 111.2C69.46 110.73 74.18 109.99 79.86 109.21C82.7 108.82 85.77 108.39 89.03 107.94C90.65 107.72 92.32 107.48 94.03 107.25C94.89 107.13 95.75 107.01 96.62 106.9C97.43 106.79 98.11 106.67 98.84 106.46C101.72 105.69 104.43 103.94 106.27 101.48C108.11 99.01 109.03 95.95 108.62 92.87C108.28 89.91 106.68 87.05 104.29 85.14C101.92 83.19 98.87 82.16 95.89 82.11C95.53 82.1 95.12 82.1 94.81 82.12C94.51 82.13 94.06 82.18 93.61 82.23C92.8 82.36 91.99 82.49 91.19 82.62C89.49 82.89 87.82 83.16 86.2 83.41C82.96 83.92 79.89 84.41 77.06 84.85C71.4 85.76 66.66 86.42 63.36 86.93C60.05 87.42 58.16 87.7 58.16 87.7C56.85 87.9 55.63 87 55.43 85.69C55.24 84.41 56.1 83.21 57.36 82.97" id="bR9NzOQEM"></path></defs><g><g><g><use xlink:href="#cc0k2DGMO" opacity="1" fill="#ffffff" fill-opacity="1"></use><g><use xlink:href="#cc0k2DGMO" opacity="1" fill-opacity="0" stroke="#000000" stroke-width="1" stroke-opacity="0"></use></g></g><g><use xlink:href="#c2DJoPIerF" opacity="1" fill="#1d1d1b" fill-opacity="1"></use><g><use xlink:href="#c2DJoPIerF" opacity="1" fill-opacity="0" stroke="#000000" stroke-width="1" stroke-opacity="0"></use></g></g><g><use xlink:href="#aQ0llKImM" opacity="1" fill="#ffffff" fill-opacity="1"></use><g><use xlink:href="#aQ0llKImM" opacity="1" fill-opacity="0" stroke="#000000" stroke-width="1" stroke-opacity="0"></use></g></g><g><use xlink:href="#a5EcPOqZkL" opacity="1" fill="#1d1d1b" fill-opacity="1"></use><g><use xlink:href="#a5EcPOqZkL" opacity="1" fill-opacity="0" stroke="#000000" stroke-width="1" stroke-opacity="0"></use></g></g><g><use xlink:href="#f7ufPsQqx" opacity="1" fill="#1d1d1b" fill-opacity="1"></use><g><use xlink:href="#f7ufPsQqx" opacity="1" fill-opacity="0" stroke="#000000" stroke-width="1" stroke-opacity="0"></use></g></g><g><use xlink:href="#bR9NzOQEM" opacity="1" fill="#1d1d1b" fill-opacity="1"></use><g><use xlink:href="#bR9NzOQEM" opacity="1" fill-opacity="0" stroke="#000000" stroke-width="1" stroke-opacity="0"></use></g></g></g></g></svg>