<?xml version="1.0" encoding="UTF-8" standalone="no"?>
<!DOCTYPE svg PUBLIC "-//W3C//DTD SVG 1.1//EN" "http://www.w3.org/Graphics/SVG/1.1/DTD/svg11.dtd">
<svg version="1.1" xmlns="http://www.w3.org/2000/svg" xmlns:xlink="http://www.w3.org/1999/xlink" preserveAspectRatio="xMidYMid meet" viewBox="0 0 200 200" width="200" height="200"><defs><path d="M179.99 100C179.99 144.18 144.18 179.99 100 179.99C55.82 179.99 20.01 144.18 20.01 100C20.01 55.82 55.82 20.01 100 20.01C144.18 20.01 179.99 55.82 179.99 100" id="b4uNTw7Gvy"></path><path d="M100 179.99C55.82 179.99 20.01 144.18 20.01 100C20.01 55.82 55.82 20.01 100 20.01C144.18 20.01 179.99 55.82 179.99 100C179.99 144.18 144.18 179.99 100 179.99Z" id="aOXRYMbrD"></path><path d="M126 96C126 110.36 114.36 122 100 122C85.64 122 74 110.36 74 96C74 81.64 85.64 70 100 70C114.36 70 126 81.64 126 96" id="bZ5w6U4YJ"></path><path d="M100 122C85.64 122 74 110.36 74 96C74 81.64 85.64 70 100 70C114.36 70 126 81.64 126 96C126 110.36 114.36 122 100 122Z" id="chDTnAUf7"></path><path d="M110 94.85C110 100.38 105.52 104.85 100 104.85C94.48 104.85 90 100.38 90 94.85C90 89.33 94.48 84.86 100 84.86C105.52 84.86 110 89.33 110 94.85" id="c3yXUFinK6"></path></defs><g><g><g><use xlink:href="#b4uNTw7Gvy" opacity="1" fill="#ffffff" fill-opacity="1"></use><g><use xlink:href="#b4uNTw7Gvy" opacity="1" fill-opacity="0" stroke="#000000" stroke-width="1" stroke-opacity="0"></use></g></g><g><use xlink:href="#aOXRYMbrD" opacity="1" fill="#000000" fill-opacity="0"></use><g><use xlink:href="#aOXRYMbrD" opacity="1" fill-opacity="0" stroke="#1d1d1b" stroke-width="5" stroke-opacity="1"></use></g></g><g><use xlink:href="#bZ5w6U4YJ" opacity="1" fill="#ffffff" fill-opacity="1"></use><g><use xlink:href="#bZ5w6U4YJ" opacity="1" fill-opacity="0" stroke="#000000" stroke-width="1" stroke-opacity="0"></use></g></g><g><use xlink:href="#chDTnAUf7" opacity="1" fill="#000000" fill-opacity="0"></use><g><use xlink:href="#chDTnAUf7" opacity="1" fill-opacity="0" stroke="#1d1d1b" stroke-width="5" stroke-opacity="1"></use></g></g><g><use xlink:href="#c3yXUFinK6" opacity="1" fill="#1d1d1b" fill-opacity="1"></use><g><use xlink:href="#c3yXUFinK6" opacity="1" fill-opacity="0" stroke="#000000" stroke-width="1" stroke-opacity="0"></use></g></g></g></g></svg>