<?xml version="1.0" encoding="UTF-8" standalone="no"?>
<!DOCTYPE svg PUBLIC "-//W3C//DTD SVG 1.1//EN" "http://www.w3.org/Graphics/SVG/1.1/DTD/svg11.dtd">
<svg version="1.1" xmlns="http://www.w3.org/2000/svg" xmlns:xlink="http://www.w3.org/1999/xlink" preserveAspectRatio="xMidYMid meet" viewBox="0 0 200 200" width="200" height="200"><defs><path d="M29 158.63C29 135.99 64.64 128.52 108.82 128.52C153 128.52 188.99 138.65 188.99 159.15C188.99 173 176.64 181.55 161.17 181.55C143.84 181.55 133.18 172.45 133.18 158.6C133.18 171.35 124.51 179.56 109.18 179.56C92.52 179.56 85.18 171.35 85.18 158.6C85.18 172.45 73.52 181.55 56.85 181.55C41.39 181.55 29 172.48 29 158.63" id="a4rP5Tl6DE"></path><path d="M32.33 158.63C32.34 161.53 33.01 164.34 34.34 166.82C35.66 169.32 37.62 171.48 39.99 173.19C42.35 174.92 45.11 176.19 48.03 177.02C49.49 177.43 50.99 177.73 52.51 177.93C54.04 178.12 55.51 178.21 57.13 178.22C60.26 178.23 63.37 177.89 66.34 177.13C69.3 176.38 72.09 175.15 74.52 173.48C76.95 171.8 78.95 169.62 80.32 167.07C81.71 164.53 82.44 161.61 82.52 158.6C82.52 158.59 82.52 158.52 82.52 158.51C82.55 157.04 83.78 155.88 85.25 155.91C86.7 155.95 87.86 157.15 87.85 158.6C87.85 158.6 87.85 158.6 87.85 158.6C88 161.37 88.44 164.06 89.47 166.4C90.45 168.75 91.93 170.76 93.91 172.23C95.88 173.69 98.25 174.75 100.85 175.37C102.15 175.68 103.49 175.91 104.87 176.04C106.29 176.17 107.5 176.23 109.09 176.22C110.39 176.23 111.84 176.18 113.18 176.03C114.54 175.9 115.87 175.66 117.15 175.32C119.73 174.67 122.1 173.56 124.11 172.07C126.12 170.57 127.7 168.58 128.75 166.27C129.85 163.97 130.36 161.32 130.51 158.6C130.87 158.6 132.64 158.6 135.84 158.6C135.84 158.6 135.84 158.6 135.84 158.6C135.94 163.6 137.78 168.29 141.16 171.62C144.54 174.95 149.26 176.92 154.24 177.74C155.49 177.94 156.76 178.08 158.04 178.16C158.68 178.19 159.24 178.22 159.93 178.23C160 178.23 160.35 178.23 160.97 178.23C161.12 178.23 161.21 178.23 161.23 178.23C161.2 178.23 161.36 178.23 161.41 178.23C161.46 178.22 161.84 178.21 161.89 178.21C164.43 178.15 166.96 177.85 169.39 177.24C174.24 176.07 178.7 173.64 181.71 170.1C183.21 168.33 184.31 166.28 184.96 164.07C185.28 163 185.49 161.76 185.57 160.71C185.67 159.43 185.67 158.33 185.52 157.24C184.98 152.85 181.92 148.94 177.88 145.97C173.83 142.96 168.96 140.76 163.94 139C158.9 137.24 153.65 135.93 148.32 134.91C137.65 132.89 126.72 131.95 115.77 131.64C110.32 131.47 104.79 131.5 99.31 131.67C93.82 131.83 88.34 132.13 82.9 132.62C77.46 133.11 72.04 133.79 66.71 134.77C61.39 135.75 56.14 137.04 51.17 138.86C46.23 140.67 41.48 143.05 37.9 146.36C36.12 148.01 34.68 149.89 33.73 151.96C33.25 153 32.9 154.07 32.66 155.19C32.55 155.75 32.47 156.31 32.41 156.89C32.4 156.94 32.39 157.2 32.35 157.67C32.34 158.18 32.33 158.5 32.33 158.63ZM25.67 158.54L25.7 157.5C25.76 156.73 25.79 156.3 25.79 156.22C25.89 155.41 26.01 154.61 26.18 153.81C26.53 152.22 27.06 150.65 27.75 149.17C29.15 146.21 31.19 143.65 33.49 141.57C38.13 137.38 43.57 134.83 49 132.86C54.46 130.92 60.03 129.64 65.6 128.63C71.18 127.64 76.77 126.97 82.37 126.5C87.96 126.03 93.56 125.76 99.15 125.63C104.75 125.51 110.3 125.48 115.92 125.59C127.12 125.85 138.35 126.74 149.47 128.78C155.03 129.82 160.57 131.12 166.02 132.97C171.44 134.83 176.84 137.15 181.75 140.72C184.19 142.5 186.5 144.63 188.39 147.24C190.27 149.84 191.66 152.99 192.12 156.3C192.37 157.95 192.37 159.64 192.26 161.12C192.13 162.83 191.87 164.34 191.42 165.92C190.54 169.04 188.97 171.99 186.9 174.46C182.72 179.44 176.85 182.36 170.97 183.76C168.02 184.47 165.01 184.83 162.02 184.86C161.98 184.86 161.79 184.86 161.45 184.86L161.12 184.86L160.86 184.86C160.23 184.84 159.89 184.83 159.82 184.83C159.12 184.8 158.3 184.75 157.56 184.7C156.08 184.57 154.59 184.38 153.11 184.11C150.16 183.55 147.22 182.65 144.42 181.31C141.64 179.95 139.02 178.12 136.84 175.82C134.66 173.5 132.95 170.72 131.91 167.74C130.85 164.77 130.47 161.64 130.51 158.6C130.51 158.6 130.51 158.6 130.51 158.6C130.42 157.13 131.54 155.86 133 155.77C134.47 155.68 135.74 156.79 135.83 158.26C135.83 158.27 135.83 158.28 135.83 158.3C135.84 158.48 135.84 158.58 135.84 158.6C135.99 161.89 135.53 165.33 134.26 168.6C132.97 171.84 130.8 174.83 128.06 177.06C125.33 179.32 122.08 180.75 118.84 181.65C117.21 182.09 115.57 182.41 113.93 182.6C112.27 182.79 110.69 182.88 108.98 182.89C107.55 182.87 105.74 182.78 104.16 182.6C102.53 182.43 100.9 182.13 99.27 181.71C96.02 180.88 92.72 179.5 89.96 177.2C87.16 174.95 85.06 171.83 83.89 168.55C82.73 165.25 82.37 161.85 82.52 158.6C82.52 158.6 82.52 158.6 82.52 158.6C85.72 158.6 87.49 158.6 87.85 158.6C87.94 162.34 87.21 166.22 85.51 169.71C83.81 173.19 81.2 176.21 78.14 178.48C75.08 180.77 71.59 182.33 68.03 183.34C64.46 184.34 60.8 184.81 57.17 184.87C55.41 184.9 53.49 184.79 51.67 184.57C49.84 184.35 48.01 183.99 46.22 183.5C42.62 182.51 39.12 180.94 36 178.69C32.9 176.44 30.2 173.46 28.38 169.95C26.54 166.46 25.64 162.49 25.67 158.63C25.67 158.62 25.67 158.59 25.67 158.59C25.67 158.57 25.67 158.55 25.67 158.54" id="crI0FbShp"></path><path d="M189.15 84.29C189.15 119.61 153.33 148.24 109.16 148.24C64.98 148.24 29.16 119.61 29.16 84.29C29.16 48.97 64.98 20.34 109.16 20.34C153.33 20.34 189.15 48.97 189.15 84.29" id="c8HQEQbxQf"></path><path d="M109.16 148.24C64.98 148.24 29.16 119.61 29.16 84.29C29.16 48.97 64.98 20.34 109.16 20.34C153.33 20.34 189.15 48.97 189.15 84.29C189.15 119.61 153.33 148.24 109.16 148.24Z" id="c17Sk0WbpS"></path><path d="M188.99 84.29C188.99 119.61 153.17 148.24 108.99 148.24C64.82 148.24 29 119.61 29 84.29C29 48.97 64.82 20.34 108.99 20.34C153.17 20.34 188.99 48.97 188.99 84.29" id="a2rUaPfDk"></path><path d="M108.99 148.24C64.82 148.24 29 119.61 29 84.29C29 48.97 64.82 20.34 108.99 20.34C153.17 20.34 188.99 48.97 188.99 84.29C188.99 119.61 153.17 148.24 108.99 148.24Z" id="e1ZvPArXDU"></path><path d="M134.99 81.09C134.99 95.45 123.35 107.09 108.99 107.09C94.64 107.09 83 95.45 83 81.09C83 66.73 94.64 55.1 108.99 55.1C123.35 55.1 134.99 66.73 134.99 81.09" id="b18riR1S6F"></path><path d="M108.99 107.09C94.64 107.09 83 95.45 83 81.09C83 66.73 94.64 55.1 108.99 55.1C123.35 55.1 134.99 66.73 134.99 81.09C134.99 95.45 123.35 107.09 108.99 107.09Z" id="d1bcXKy0OR"></path><path d="M118.99 79.95C118.99 85.47 114.52 89.95 108.99 89.95C103.47 89.95 99 85.47 99 79.95C99 74.43 103.47 69.95 108.99 69.95C114.52 69.95 118.99 74.43 118.99 79.95" id="h3IGyvtumV"></path></defs><g><g><g><use xlink:href="#a4rP5Tl6DE" opacity="1" fill="#ffffff" fill-opacity="1"></use><g><use xlink:href="#a4rP5Tl6DE" opacity="1" fill-opacity="0" stroke="#000000" stroke-width="1" stroke-opacity="0"></use></g></g><g><use xlink:href="#crI0FbShp" opacity="1" fill="#1d1d1b" fill-opacity="1"></use><g><use xlink:href="#crI0FbShp" opacity="1" fill-opacity="0" stroke="#000000" stroke-width="1" stroke-opacity="0"></use></g></g><g><use xlink:href="#c8HQEQbxQf" opacity="1" fill="#ffffff" fill-opacity="1"></use><g><use xlink:href="#c8HQEQbxQf" opacity="1" fill-opacity="0" stroke="#000000" stroke-width="1" stroke-opacity="0"></use></g></g><g><use xlink:href="#c17Sk0WbpS" opacity="1" fill="#000000" fill-opacity="0"></use><g><use xlink:href="#c17Sk0WbpS" opacity="1" fill-opacity="0" stroke="#1d1d1b" stroke-width="5" stroke-opacity="1"></use></g></g><g><use xlink:href="#a2rUaPfDk" opacity="1" fill="#ffffff" fill-opacity="1"></use><g><use xlink:href="#a2rUaPfDk" opacity="1" fill-opacity="0" stroke="#000000" stroke-width="1" stroke-opacity="0"></use></g></g><g><use xlink:href="#e1ZvPArXDU" opacity="1" fill="#000000" fill-opacity="0"></use><g><use xlink:href="#e1ZvPArXDU" opacity="1" fill-opacity="0" stroke="#1d1d1b" stroke-width="5" stroke-opacity="1"></use></g></g><g><use xlink:href="#b18riR1S6F" opacity="1" fill="#ffffff" fill-opacity="1"></use><g><use xlink:href="#b18riR1S6F" opacity="1" fill-opacity="0" stroke="#000000" stroke-width="1" stroke-opacity="0"></use></g></g><g><use xlink:href="#d1bcXKy0OR" opacity="1" fill="#000000" fill-opacity="0"></use><g><use xlink:href="#d1bcXKy0OR" opacity="1" fill-opacity="0" stroke="#1d1d1b" stroke-width="5" stroke-opacity="1"></use></g></g><g><use xlink:href="#h3IGyvtumV" opacity="1" fill="#1d1d1b" fill-opacity="1"></use><g><use xlink:href="#h3IGyvtumV" opacity="1" fill-opacity="0" stroke="#000000" stroke-width="1" stroke-opacity="0"></use></g></g></g></g></svg>