<?xml version="1.0" encoding="UTF-8" standalone="no"?>
<!DOCTYPE svg PUBLIC "-//W3C//DTD SVG 1.1//EN" "http://www.w3.org/Graphics/SVG/1.1/DTD/svg11.dtd">
<svg version="1.1" xmlns="http://www.w3.org/2000/svg" xmlns:xlink="http://www.w3.org/1999/xlink" preserveAspectRatio="xMidYMid meet" viewBox="0 0 200 200" width="200" height="200"><defs><path d="M79.52 64.8C90.17 57.67 104.09 53.35 119.32 53.35C152.82 53.35 179.98 74.25 179.98 100.02C179.98 144.19 144.17 180.01 99.99 180.01C55.81 180.01 20 144.19 20 100.02C20 55.84 55.81 20.02 99.99 20.02C100.01 20.02 100.14 20.02 100.16 20.02C136.7 20.02 167.32 41.69 165.65 69.35" id="a2SmGYwaCV"></path><path d="M78.47 63.1C78.47 63.1 78.96 62.79 79.91 62.18C80.89 61.59 82.16 60.61 84.25 59.57C88.25 57.29 94.28 54.6 102.49 52.69C106.6 51.85 111.2 51.01 116.27 50.84C117.54 50.79 118.8 50.66 120.17 50.69C121.44 50.7 122.73 50.71 124.14 50.8C126.93 50.91 129.72 51.22 132.63 51.65C138.43 52.57 144.54 54.16 150.64 56.79C156.73 59.41 162.86 63.03 168.3 68.06C173.72 73.06 178.47 79.53 181.15 87.27C182.46 91.13 183.21 95.29 183.3 99.52C183.3 99.55 183.3 99.68 183.31 99.92L183.31 100.19L183.31 100.38L183.29 101.11C183.27 101.98 183.26 102.47 183.25 102.57C183.24 103.54 183.21 104.52 183.11 105.59C183.03 106.63 182.95 107.68 182.87 108.73C182.74 109.75 182.61 110.78 182.48 111.81C181.87 115.93 181.03 120.08 179.77 124.16C178.52 128.25 176.96 132.29 175.08 136.24C171.24 144.09 166.17 151.59 159.81 158.08C147.21 171.14 129.62 180.34 110.65 182.65C108.28 182.98 105.9 183.13 103.51 183.25C103.27 183.26 102.04 183.29 99.84 183.34C97.77 183.28 96.62 183.25 96.39 183.25C91.53 183.03 86.74 182.4 82.03 181.38C72.59 179.35 63.52 175.54 55.34 170.35C38.93 160.03 26.47 143.72 20.67 125.55C14.82 107.37 15.55 87.6 22 70.6C28.4 53.56 40.23 39.45 54.17 30.34C68.1 21.13 83.93 16.84 98.43 16.68C112.9 16.42 126.15 19.47 136.91 24.42C142.3 26.89 147.06 29.86 151.11 33.11C155.14 36.37 158.41 39.95 160.96 43.49C163.53 47.03 165.21 50.63 166.35 53.85C167.51 57.07 168.02 59.97 168.26 62.31C168.31 62.9 168.36 63.45 168.41 63.97C168.42 64.49 168.44 64.97 168.45 65.42C168.48 66.32 168.47 67.07 168.42 67.68C168.35 68.89 168.31 69.51 168.31 69.51C168.23 70.98 166.97 72.1 165.5 72.01C164.1 71.93 163.02 70.78 162.99 69.41C162.99 69.39 162.99 69.21 162.99 69.19C162.99 69.19 162.98 68.65 162.96 67.61C162.97 67.09 162.93 66.45 162.86 65.69C162.83 65.3 162.8 64.89 162.77 64.45C162.7 64.01 162.63 63.55 162.55 63.05C161.95 59.13 160.26 53.35 155.74 47.27C151.27 41.22 143.97 35 134.11 30.5C124.3 26 112 23.17 98.56 23.44C85.21 23.6 70.73 27.61 57.92 36.03C45.1 44.37 34.2 57.33 28.28 72.97C25.34 80.78 23.6 89.22 23.39 97.81C23.09 106.43 24.36 115.15 27.01 123.51C32.35 140.21 43.81 155.23 58.92 164.73C66.44 169.5 74.78 173.01 83.46 174.87C87.8 175.81 92.21 176.38 96.56 176.59C96.79 176.59 97.94 176.62 100.01 176.67C101.94 176.62 103.02 176.59 103.23 176.59C105.43 176.47 107.63 176.33 109.8 176.02C127.24 173.87 143.37 165.38 154.94 153.35C160.81 147.4 165.47 140.51 169.02 133.31C170.75 129.69 172.19 125.97 173.35 122.22C174.51 118.47 175.29 114.66 175.86 110.87C175.98 109.92 176.1 108.98 176.22 108.03C176.3 107.11 176.37 106.18 176.45 105.26C176.54 104.36 176.57 103.39 176.59 102.4C176.59 102.3 176.6 101.82 176.62 100.94L176.64 100.21C176.65 100.1 176.65 100.04 176.65 100.03C176.65 99.89 176.65 100.01 176.65 99.94C176.65 99.9 176.64 99.64 176.64 99.61C176.6 96.08 176.02 92.61 174.96 89.35C172.78 82.81 168.77 77.14 164.01 72.65C159.23 68.15 153.76 64.75 148.24 62.24C142.71 59.72 137.09 58.13 131.72 57.17C129.04 56.71 126.38 56.37 123.88 56.22C122.65 56.11 121.34 56.08 120.06 56.04C118.88 55.99 117.64 56.07 116.46 56.08C111.71 56.11 107.39 56.78 103.51 57.45C95.8 58.99 89.98 61.46 86.33 63.31C84.46 64.13 83.01 65.12 82.04 65.65C81.06 66.22 80.56 66.51 80.56 66.51C79.61 67.07 78.38 66.75 77.83 65.79C77.28 64.87 77.58 63.68 78.47 63.1" id="duzDkL1di"></path><path d="M115.99 38.86C115.99 41.89 113.53 44.35 110.49 44.35C107.45 44.35 104.99 41.89 104.99 38.86C104.99 35.82 107.45 33.36 110.49 33.36C113.53 33.36 115.99 35.82 115.99 38.86" id="d6c1X06Vts"></path><path d="M134.32 40.35C134.32 43.3 131.93 45.69 128.99 45.69C126.04 45.69 123.66 43.3 123.66 40.35C123.66 37.41 126.04 35.02 128.99 35.02C131.93 35.02 134.32 37.41 134.32 40.35" id="a1CDFiJss2"></path><path d="M102.6 132.54C102.27 137.39 98.25 141.06 93.62 140.74C88.99 140.42 85.51 136.24 85.84 131.39C86.17 126.55 90.19 122.88 94.82 123.2C99.45 123.52 102.93 127.7 102.6 132.54" id="a1QEZYlTu0"></path><path d="M123.98 132.79C123.59 132.24 123.23 131.66 122.83 131.13C121.96 129.97 121.05 128.84 120.09 127.76C119.63 127.2 119.14 126.67 118.64 126.15C118.15 125.63 117.66 125.09 117.14 124.6C116.12 123.58 115.04 122.65 113.96 121.72C112.84 120.86 111.74 119.95 110.55 119.23C109.39 118.41 108.15 117.82 106.93 117.16C105.68 116.66 104.39 116.04 103.22 115.79C102.16 115.37 100.48 115.23 99.02 115C99.4 115.04 99.11 115.01 99.19 115.02C99.19 115.02 99.19 115.02 99.18 115.02L99.15 115.02L99.09 115.02L98.96 115.02L98.71 115.02L98.21 115.02C97.62 115.01 97.29 115.01 97.22 115.01C96.56 114.96 95.89 115.1 95.22 115.18C93.88 115.27 92.56 115.69 91.24 115.99C89.93 116.47 88.61 116.88 87.35 117.51C86.05 118.05 84.83 118.8 83.58 119.49C82.37 120.24 81.16 121.01 80 121.88C79.41 122.28 78.85 122.75 78.28 123.19C77.7 123.63 77.14 124.09 76.6 124.57C75.49 125.51 74.41 126.5 73.38 127.52C72.36 128.52 71.31 129.62 70.45 130.64C70.47 130.34 70.64 127.92 70.66 127.61C71.37 128.74 72.26 129.97 73.14 131.1C74.02 132.26 74.95 133.38 75.92 134.46C76.39 135.01 76.88 135.55 77.39 136.06C77.9 136.58 78.39 137.11 78.92 137.6C79.95 138.61 81.05 139.54 82.14 140.46C83.28 141.31 84.39 142.21 85.6 142.92C86.77 143.73 88.02 144.31 89.25 144.96C90.51 145.44 91.82 146.05 92.99 146.29C93.61 146.45 94.13 146.67 94.95 146.74C95.16 146.76 96.81 146.99 97.01 147.02C98.34 146.97 99.66 147.08 100.99 146.81C102.33 146.71 103.64 146.27 104.96 145.95C106.25 145.46 107.57 145.04 108.82 144.39C110.1 143.84 111.31 143.09 112.54 142.39C113.74 141.62 114.94 140.84 116.08 139.97C116.67 139.56 117.22 139.09 117.79 138.64C118.35 138.2 118.91 137.73 119.44 137.25C120.54 136.3 121.59 135.31 122.61 134.28C123.08 133.81 123.52 133.28 123.98 132.79M126.81 138.5C125.68 139.62 124.52 140.69 123.31 141.72C122.71 142.24 122.1 142.75 121.46 143.23C120.84 143.72 120.22 144.23 119.56 144.68C118.28 145.64 116.93 146.5 115.56 147.35C114.15 148.15 112.76 148.98 111.25 149.62C109.79 150.35 108.21 150.86 106.65 151.41C105.03 151.81 103.43 152.29 101.73 152.44C100.06 152.74 98.33 152.62 96.63 152.63C96.38 152.59 94.43 152.32 94.18 152.28C93.48 152.23 92.56 151.95 91.71 151.72C89.91 151.3 88.46 150.6 86.91 149.97C85.45 149.19 83.96 148.46 82.63 147.53C81.24 146.68 79.99 145.66 78.71 144.67C77.49 143.64 76.28 142.58 75.16 141.46C74.58 140.91 74.04 140.33 73.5 139.75C72.95 139.18 72.41 138.59 71.9 137.99C70.86 136.8 69.87 135.57 68.92 134.31C67.96 133.03 67.08 131.79 66.17 130.34C65.57 129.37 65.69 128.16 66.38 127.32C67.47 126.01 68.51 124.9 69.64 123.77C70.75 122.65 71.9 121.56 73.1 120.53C73.69 120 74.3 119.49 74.92 119C75.54 118.51 76.15 118 76.8 117.54C78.07 116.58 79.41 115.7 80.76 114.84C82.16 114.04 83.53 113.19 85.03 112.54C86.48 111.8 88.05 111.28 89.6 110.71C91.22 110.3 92.8 109.8 94.5 109.65C95.34 109.54 96.17 109.38 97.03 109.41C97.12 109.41 97.54 109.41 98.31 109.41L98.95 109.4L99.27 109.4L99.43 109.41L99.51 109.41L99.55 109.41C99.57 109.41 99.57 109.41 99.57 109.41C99.67 109.41 99.4 109.39 99.79 109.43C101.32 109.66 102.69 109.71 104.52 110.27C106.33 110.67 107.79 111.36 109.36 111.98C110.82 112.74 112.32 113.46 113.67 114.38C115.08 115.22 116.34 116.24 117.63 117.21C118.87 118.24 120.09 119.29 121.23 120.41C121.82 120.95 122.36 121.53 122.91 122.11C123.47 122.67 124.01 123.26 124.53 123.86C125.59 125.04 126.6 126.26 127.57 127.53C128.55 128.8 129.44 130.03 130.37 131.49C131.07 132.6 130.94 134 130.14 134.95C129.03 136.25 127.95 137.38 126.81 138.5Z" id="a3DTCqBli"></path><path d="M18.46 99.35C18.46 99.35 18.81 98.91 19.48 98.08C19.83 97.66 20.2 97.15 20.73 96.55C21.29 95.94 21.92 95.24 22.63 94.46C23.35 93.69 24.18 92.92 25.07 92.04C25.98 91.19 27.02 90.33 28.11 89.39C30.38 87.62 32.98 85.65 36.07 83.92C39.15 82.16 42.6 80.45 46.42 79.09C50.23 77.72 54.38 76.62 58.75 75.92C63.09 75.2 67.74 74.92 72.28 75.1C77.05 75.29 81.68 76.02 86.28 77.26C90.86 78.5 95.3 80.24 99.42 82.46C103.54 84.66 107.35 87.28 110.75 90.17C117.53 95.98 122.53 102.87 125.66 109.33C127.23 112.55 128.36 115.67 129.18 118.48C129.95 121.31 130.45 123.82 130.71 125.91C130.98 128 131.11 129.66 131.13 130.79C131.17 131.92 131.19 132.52 131.19 132.52C131.24 134.18 129.94 135.56 128.29 135.61C126.63 135.67 125.24 134.37 125.19 132.71C125.19 132.71 125.19 132.7 125.19 132.69C125.19 132.59 125.19 132.53 125.19 132.52C125.19 132.52 125.17 131.99 125.15 130.99C125.15 129.99 125.05 128.52 124.83 126.67C124.62 124.81 124.19 122.58 123.54 120.05C122.83 117.54 121.85 114.74 120.47 111.83C117.72 106 113.26 99.71 107.14 94.34C104.07 91.68 100.62 89.25 96.87 87.19C93.13 85.12 89.07 83.49 84.89 82.31C80.73 81.13 76.33 80.4 72.16 80.19C67.77 79.97 63.58 80.19 59.5 80.82C55.45 81.43 51.6 82.41 48.05 83.64C44.49 84.87 41.29 86.43 38.43 88.02C35.55 89.59 33.13 91.39 31.02 93C30.01 93.86 29.04 94.64 28.19 95.42C27.37 96.22 26.58 96.93 25.93 97.61C25.29 98.29 24.73 98.9 24.23 99.43C23.74 99.98 23.33 100.52 22.99 100.92C22.31 101.75 21.95 102.19 21.95 102.19C21.17 103.15 19.75 103.29 18.79 102.5C17.83 101.72 17.69 100.31 18.46 99.35" id="a4qWJ5Is3G"></path></defs><g><g><g><use xlink:href="#a2SmGYwaCV" opacity="1" fill="#ffffff" fill-opacity="1"></use><g><use xlink:href="#a2SmGYwaCV" opacity="1" fill-opacity="0" stroke="#000000" stroke-width="1" stroke-opacity="0"></use></g></g><g><use xlink:href="#duzDkL1di" opacity="1" fill="#1d1d1b" fill-opacity="1"></use><g><use xlink:href="#duzDkL1di" opacity="1" fill-opacity="0" stroke="#000000" stroke-width="1" stroke-opacity="0"></use></g></g><g><use xlink:href="#d6c1X06Vts" opacity="1" fill="#1d1d1b" fill-opacity="1"></use><g><use xlink:href="#d6c1X06Vts" opacity="1" fill-opacity="0" stroke="#000000" stroke-width="1" stroke-opacity="0"></use></g></g><g><use xlink:href="#a1CDFiJss2" opacity="1" fill="#1d1d1b" fill-opacity="1"></use><g><use xlink:href="#a1CDFiJss2" opacity="1" fill-opacity="0" stroke="#000000" stroke-width="1" stroke-opacity="0"></use></g></g><g><use xlink:href="#a1QEZYlTu0" opacity="1" fill="#1d1d1b" fill-opacity="1"></use><g><use xlink:href="#a1QEZYlTu0" opacity="1" fill-opacity="0" stroke="#000000" stroke-width="1" stroke-opacity="0"></use></g></g><g><use xlink:href="#a3DTCqBli" opacity="1" fill="#1d1d1b" fill-opacity="1"></use><g><use xlink:href="#a3DTCqBli" opacity="1" fill-opacity="0" stroke="#000000" stroke-width="1" stroke-opacity="0"></use></g></g><g><use xlink:href="#a4qWJ5Is3G" opacity="1" fill="#1d1d1b" fill-opacity="1"></use><g><use xlink:href="#a4qWJ5Is3G" opacity="1" fill-opacity="0" stroke="#000000" stroke-width="1" stroke-opacity="0"></use></g></g></g></g></svg>