<?xml version="1.0" encoding="UTF-8" standalone="no"?>
<!DOCTYPE svg PUBLIC "-//W3C//DTD SVG 1.1//EN" "http://www.w3.org/Graphics/SVG/1.1/DTD/svg11.dtd">
<svg version="1.1" xmlns="http://www.w3.org/2000/svg" xmlns:xlink="http://www.w3.org/1999/xlink" preserveAspectRatio="xMidYMid meet" viewBox="0 0 200 200" width="200" height="200"><defs><path d="M19.92 157.26C19.92 134.8 55.57 127.39 99.75 127.39C143.93 127.39 179.92 137.44 179.92 157.78C179.92 171.53 167.56 180.01 152.1 180.01C134.77 180.01 124.11 170.99 124.11 157.24C124.11 169.89 115.44 178.04 100.11 178.04C83.44 178.04 76.11 169.89 76.11 157.24C76.11 170.99 64.45 180.01 47.78 180.01C32.32 180.01 19.92 171.02 19.92 157.26" id="bcp48t4D8"></path><path d="M23.26 157.27C23.26 160.15 23.94 162.94 25.27 165.41C26.6 167.88 28.57 170.03 30.94 171.72C33.3 173.42 36.06 174.68 38.97 175.5C40.43 175.9 41.93 176.2 43.45 176.39C44.98 176.59 46.44 176.68 48.05 176.68C51.18 176.7 54.28 176.36 57.24 175.62C60.2 174.87 62.99 173.65 65.42 172C67.85 170.35 69.86 168.19 71.23 165.65C72.63 163.14 73.37 160.24 73.44 157.24C73.8 157.24 75.58 157.24 78.78 157.24C78.78 157.24 78.78 157.24 78.78 157.24C78.93 159.99 79.37 162.67 80.41 164.99C81.39 167.33 82.88 169.31 84.86 170.76C86.83 172.21 89.21 173.25 91.8 173.86C93.1 174.17 94.43 174.39 95.8 174.52C97.22 174.65 98.43 174.71 100.01 174.7C101.32 174.71 102.76 174.66 104.09 174.52C105.45 174.38 106.78 174.14 108.06 173.82C110.64 173.17 113 172.08 115.02 170.61C117.03 169.12 118.61 167.15 119.67 164.86C120.77 162.58 121.29 159.95 121.44 157.24C121.79 157.24 123.57 157.24 126.77 157.24C126.77 157.24 126.77 157.24 126.77 157.24C126.85 159.72 127.29 162.15 128.2 164.35C129.12 166.54 130.43 168.53 132.12 170.18C135.52 173.48 140.25 175.42 145.22 176.21C146.47 176.41 147.74 176.54 149.01 176.63C149.66 176.65 150.21 176.69 150.91 176.69C150.98 176.69 151.32 176.69 151.95 176.7C152.5 176.69 152.8 176.68 152.86 176.68C155.4 176.61 157.93 176.31 160.35 175.7C165.19 174.54 169.66 172.12 172.67 168.6C174.17 166.84 175.26 164.81 175.9 162.61C176.22 161.54 176.43 160.3 176.51 159.26C176.6 157.94 176.59 156.92 176.43 155.81C175.86 151.45 172.76 147.58 168.7 144.64C164.63 141.68 159.76 139.5 154.74 137.76C149.7 136.03 144.45 134.74 139.13 133.73C128.48 131.74 117.56 130.81 106.64 130.5C101.19 130.34 95.68 130.37 90.21 130.54C84.73 130.7 79.27 130.99 73.83 131.48C68.4 131.97 62.99 132.64 57.67 133.61C52.36 134.58 47.11 135.86 42.15 137.65C37.2 139.45 32.46 141.8 28.86 145.08C27.08 146.72 25.62 148.59 24.67 150.64C24.19 151.67 23.83 152.74 23.6 153.85C23.48 154.4 23.4 154.97 23.34 155.53C23.33 155.59 23.31 155.85 23.28 156.31C23.27 156.82 23.26 157.14 23.26 157.27ZM16.59 157.18L16.62 156.15C16.68 155.37 16.72 154.94 16.72 154.86C16.82 154.05 16.94 153.25 17.12 152.45C17.47 150.86 18 149.29 18.71 147.82C20.11 144.87 22.18 142.33 24.48 140.26C29.14 136.11 34.58 133.59 40 131.65C45.45 129.73 51.01 128.46 56.57 127.47C62.14 126.49 67.72 125.83 73.3 125.36C78.89 124.89 84.47 124.63 90.05 124.5C95.63 124.38 101.18 124.34 106.79 124.46C117.96 124.71 129.16 125.59 140.27 127.6C145.82 128.62 151.35 129.9 156.79 131.72C162.21 133.56 167.6 135.85 172.53 139.36C174.97 141.12 177.3 143.22 179.21 145.81C181.11 148.38 182.55 151.51 183.03 154.82C183.29 156.45 183.29 158.21 183.19 159.64C183.08 161.36 182.81 162.86 182.36 164.45C181.49 167.57 179.92 170.51 177.84 172.97C173.66 177.94 167.79 180.83 161.93 182.23C158.98 182.94 155.98 183.29 152.99 183.32C152.6 183.32 152.28 183.34 151.84 183.32C151.73 183.32 150.9 183.3 150.8 183.3C150.11 183.28 149.29 183.22 148.55 183.17C147.07 183.04 145.59 182.86 144.11 182.59C141.16 182.04 138.23 181.16 135.43 179.84C132.66 178.5 130.02 176.7 127.83 174.4C125.64 172.11 123.91 169.35 122.86 166.37C121.79 163.4 121.39 160.28 121.44 157.24C121.44 157.24 121.44 157.24 121.44 157.24C121.35 155.77 122.46 154.5 123.93 154.41C125.4 154.32 126.66 155.43 126.76 156.9C126.76 156.9 126.76 156.92 126.76 156.93C126.77 157.12 126.77 157.22 126.77 157.24C126.92 160.53 126.45 163.96 125.17 167.21C123.87 170.45 121.68 173.42 118.93 175.62C116.2 177.85 112.96 179.27 109.73 180.15C108.11 180.59 106.47 180.89 104.83 181.08C103.18 181.27 101.61 181.36 99.91 181.37C98.48 181.36 96.68 181.26 95.11 181.09C93.49 180.91 91.85 180.62 90.23 180.21C87 179.39 83.71 178.03 80.94 175.76C78.14 173.53 76.01 170.44 74.83 167.17C73.66 163.87 73.3 160.48 73.44 157.24C73.44 157.24 73.44 157.24 73.44 157.24C73.39 155.76 74.53 154.53 76 154.47C77.47 154.41 78.71 155.56 78.77 157.03C78.77 157.03 78.77 157.04 78.77 157.05C78.77 157.16 78.78 157.22 78.78 157.24C78.87 160.97 78.12 164.85 76.41 168.32C74.7 171.79 72.07 174.78 69.01 177.03C65.95 179.29 62.46 180.83 58.92 181.83C55.36 182.81 51.71 183.28 48.1 183.34C46.34 183.36 44.43 183.26 42.62 183.04C40.79 182.82 38.97 182.47 37.18 181.98C33.6 181.01 30.11 179.46 26.98 177.24C23.88 175.01 21.17 172.06 19.33 168.57C17.48 165.09 16.56 161.12 16.59 157.27C16.59 157.26 16.59 157.23 16.59 157.22C16.59 157.21 16.59 157.19 16.59 157.18" id="gxi2POSzO"></path><path d="M79.61 55.56C90.26 49.9 104.18 46.48 119.41 46.48C152.92 46.48 180.07 63.05 180.07 83.5C180.07 118.55 144.26 146.96 100.08 146.96C55.91 146.96 20.09 118.55 20.09 83.5C20.09 48.45 55.91 20.03 100.08 20.03C100.1 20.03 100.23 20.03 100.25 20.03C136.79 20.03 167.41 37.22 165.74 59.17" id="a6NMfgkwB"></path><path d="M78.7 53.78C78.7 53.78 79.17 53.53 80.07 53.04C80.95 52.57 82.44 51.81 84.29 50.99C88.01 49.3 93.69 47.25 101.15 45.72C104.89 44.96 109.07 44.35 113.64 44.02C115.94 43.87 118.31 43.76 120.8 43.79C121.41 43.79 122.02 43.79 122.63 43.8C123.27 43.82 123.92 43.84 124.57 43.87C125.88 43.89 127.17 44.01 128.49 44.09C133.79 44.52 139.42 45.35 145.22 46.91C151.01 48.43 157.01 50.66 162.82 53.99C165.73 55.66 168.58 57.6 171.27 59.92C173.96 62.23 176.48 64.93 178.56 68.11C180.66 71.26 182.25 74.95 182.99 78.93C183.14 79.93 183.31 80.93 183.35 81.95C183.35 82.05 183.37 82.57 183.41 83.49C183.38 84.36 183.37 84.84 183.37 84.94C183.36 86.65 183.15 88.72 182.93 90.68C181.92 98.38 179.15 106.02 174.95 112.93C170.72 119.84 165.09 125.97 158.6 131.15C145.5 141.41 129.02 147.75 111.88 149.63C107.59 150.14 103.3 150.29 98.9 150.27C98.69 150.27 97.64 150.24 95.74 150.2C93.76 150.08 92.66 150.02 92.43 150C91.32 149.95 90.26 149.8 89.17 149.71C88.08 149.61 87 149.48 85.92 149.31C77.27 148.18 68.74 145.79 60.64 142.36C52.58 138.86 44.96 134.2 38.33 128.36C31.7 122.53 26.1 115.43 22.28 107.45C18.45 99.48 16.53 90.61 16.81 81.89C17.03 73.19 19.45 64.67 23.4 57.25C27.36 49.81 32.77 43.44 38.78 38.17C44.84 32.94 51.51 28.75 58.38 25.58C65.24 22.36 72.31 20.19 79.25 18.73C86.2 17.33 93.05 16.7 99.62 16.66C112.7 16.6 124.7 18.66 134.85 22.11C139.93 23.84 144.56 25.92 148.64 28.28C152.7 30.67 156.21 33.34 159.06 36.16C164.83 41.77 167.52 48.13 168.2 52.54C168.56 54.76 168.58 56.48 168.53 57.63C168.48 58.78 168.4 59.37 168.4 59.37C168.4 59.38 168.39 59.46 168.39 59.47C168.19 60.92 166.85 61.95 165.39 61.75C164.01 61.56 163.02 60.33 163.08 58.97C163.08 58.97 163.11 58.5 163.07 57.6C163.03 56.7 162.95 55.36 162.55 53.67C162.14 51.99 161.44 49.95 160.17 47.72C158.91 45.5 157.04 43.14 154.57 40.78C152.1 38.43 148.99 36.13 145.31 34.06C141.64 31.95 137.41 30.04 132.7 28.45C123.3 25.28 112 23.34 99.65 23.42C93.5 23.47 87.1 24.08 80.62 25.4C74.16 26.78 67.59 28.81 61.24 31.76C54.88 34.67 48.75 38.52 43.22 43.27C37.73 48.07 32.87 53.81 29.33 60.41C25.81 67.01 23.69 74.44 23.47 82.1C23.23 89.73 24.9 97.51 28.3 104.57C31.68 111.65 36.69 118.05 42.74 123.36C48.79 128.69 55.8 132.99 63.28 136.24C70.79 139.42 78.74 141.65 86.83 142.71C87.84 142.87 88.85 142.99 89.86 143.08C90.87 143.16 91.9 143.31 92.9 143.35C93.1 143.37 94.09 143.43 95.89 143.54C97.78 143.58 98.83 143.6 99.04 143.61C103.04 143.62 107.14 143.47 111.13 142.98C127.15 141.2 142.45 135.21 154.39 125.83C160.33 121.11 165.43 115.57 169.21 109.42C172.96 103.26 175.4 96.55 176.31 89.8C176.49 88.14 176.68 86.6 176.7 84.72C176.7 84.64 176.71 84.23 176.74 83.49C176.71 82.8 176.69 82.42 176.69 82.34C176.67 81.58 176.54 80.83 176.44 80.08C175.92 77.09 174.76 74.23 173.09 71.66C169.79 66.46 164.81 62.47 159.67 59.41C154.47 56.37 149 54.17 143.63 52.63C138.27 51.06 132.99 50.17 128 49.65C117.99 48.68 109.16 49.27 102.05 50.5C94.93 51.72 89.53 53.53 85.95 54.94C84.12 55.65 82.87 56.22 81.92 56.67C80.99 57.11 80.51 57.34 80.51 57.34C79.52 57.82 78.32 57.4 77.85 56.41C77.38 55.44 77.77 54.28 78.7 53.78" id="b1yp6g2INU"></path><path d="M116.08 34.97C116.08 37.38 113.62 39.34 110.58 39.34C107.54 39.34 105.08 37.38 105.08 34.97C105.08 32.56 107.54 30.61 110.58 30.61C113.62 30.61 116.08 32.56 116.08 34.97" id="bkmtQ6fev"></path><path d="M134.41 36.16C134.41 38.5 132.02 40.39 129.08 40.39C126.13 40.39 123.75 38.5 123.75 36.16C123.75 33.83 126.13 31.93 129.08 31.93C132.02 31.93 134.41 33.83 134.41 36.16" id="h4WwJrTOd"></path><path d="M102.68 109.47C102.3 114.03 98.24 117.54 93.61 117.3C88.98 117.06 85.53 113.17 85.92 108.6C86.3 104.04 90.36 100.54 94.99 100.78C99.62 101.02 103.06 104.91 102.68 109.47" id="b3gqu3SDGI"></path><path d="M123.98 109.36C123.63 108.88 123.29 108.37 122.93 107.92C122.05 106.81 121.11 105.74 120.15 104.71C119.68 104.18 119.17 103.69 118.67 103.2C118.18 102.69 117.67 102.21 117.14 101.74C116.12 100.78 115.01 99.92 113.92 99.06C112.79 98.25 111.67 97.45 110.47 96.78C109.9 96.4 109.29 96.09 108.68 95.8C108.06 95.53 107.47 95.16 106.84 94.95C106.65 94.88 105.15 94.31 104.96 94.24C104.34 94.04 103.76 93.93 103.16 93.76C102.85 93.69 102.59 93.59 102.24 93.53C102.17 93.52 101.8 93.47 101.14 93.39L100.03 93.26L99.47 93.19L99.4 93.18C99.38 93.18 99.37 93.18 99.37 93.17C99.2 93.16 99.58 93.19 99.53 93.19C99.53 93.19 99.53 93.19 99.52 93.19L99.4 93.19L99.15 93.19C97.97 93.2 97.31 93.21 97.18 93.21C96.52 93.21 95.86 93.36 95.2 93.43C95.14 93.44 94.81 93.48 94.21 93.55C93.62 93.7 93.29 93.78 93.23 93.79C92.57 93.96 91.91 94.08 91.26 94.29C89.97 94.74 88.67 95.16 87.41 95.76C86.77 96.03 86.14 96.32 85.53 96.66C84.91 97 84.28 97.29 83.68 97.66C82.46 98.37 81.26 99.11 80.1 99.93C78.94 100.74 77.79 101.59 76.69 102.5C75.57 103.39 74.49 104.33 73.45 105.3C72.42 106.26 71.36 107.31 70.48 108.27C70.51 107.96 70.69 105.45 70.71 105.14C71.43 106.2 72.33 107.39 73.22 108.47C74.12 109.57 75.07 110.64 76.05 111.66C76.53 112.19 77.05 112.68 77.55 113.17C78.05 113.68 78.57 114.16 79.11 114.61C80.15 115.57 81.26 116.42 82.37 117.28C83.51 118.07 84.65 118.87 85.86 119.53C86.45 119.9 87.05 120.21 87.67 120.49C88.29 120.76 88.89 121.12 89.53 121.32C89.72 121.39 91.23 121.94 91.42 122.01C92.04 122.2 92.63 122.31 93.23 122.47C93.54 122.54 93.81 122.64 94.16 122.69C94.23 122.7 94.6 122.74 95.27 122.82L96.38 122.94L96.93 123L97 123.01C97.02 123.01 97.03 123.02 97.03 123.02C97.2 123.03 96.83 123 96.87 123C96.87 123 96.88 123 96.89 123L97.01 123L97.25 122.99C98.44 122.97 99.09 122.95 99.22 122.95C99.88 122.94 100.54 122.78 101.19 122.71C101.26 122.7 101.59 122.65 102.18 122.57C102.77 122.42 103.1 122.34 103.16 122.32C103.81 122.15 104.47 122.02 105.12 121.8C106.4 121.35 107.69 120.91 108.94 120.29C109.57 120.02 110.2 119.73 110.8 119.38C111.41 119.04 112.04 118.73 112.63 118.37C113.83 117.64 115.02 116.89 116.17 116.06C117.32 115.24 118.45 114.39 119.54 113.47C120.64 112.57 121.7 111.62 122.73 110.64C123.16 110.23 123.56 109.78 123.98 109.36M126.81 114.98C125.67 116.04 124.5 117.07 123.28 118.04C122.08 119.03 120.82 119.96 119.53 120.85C118.26 121.76 116.92 122.58 115.56 123.39C114.89 123.79 114.17 124.14 113.47 124.51C112.78 124.9 112.05 125.23 111.32 125.54C109.88 126.23 108.34 126.75 106.81 127.26C106.04 127.51 105.24 127.67 104.45 127.87C104.37 127.89 103.97 127.98 103.26 128.15C102.52 128.25 102.11 128.31 102.03 128.32C101.21 128.41 100.4 128.58 99.57 128.59C99.4 128.59 98.57 128.6 97.07 128.61L96.76 128.61L96.6 128.61L96.38 128.6L96.35 128.59L96.28 128.58L95.72 128.51L94.61 128.38C93.95 128.3 93.58 128.25 93.51 128.24C93.12 128.18 92.67 128.05 92.25 127.96C91.42 127.75 90.54 127.56 89.74 127.3C89.51 127.22 87.67 126.53 87.44 126.45C86.67 126.18 85.97 125.76 85.24 125.42C84.5 125.08 83.79 124.71 83.12 124.28C81.71 123.49 80.42 122.57 79.13 121.64C77.89 120.67 76.64 119.69 75.5 118.62C74.91 118.1 74.34 117.57 73.8 117.01C73.25 116.46 72.68 115.91 72.17 115.33C71.1 114.2 70.08 113.02 69.11 111.8C68.12 110.58 67.22 109.38 66.29 107.97C65.63 106.98 65.76 105.69 66.51 104.84C66.51 104.84 66.52 104.83 66.52 104.83C67.63 103.58 68.68 102.52 69.82 101.44C70.94 100.37 72.1 99.34 73.3 98.36C74.49 97.36 75.73 96.43 77 95.52C78.27 94.61 79.59 93.77 80.94 92.96C81.61 92.55 82.32 92.2 83.01 91.82C83.7 91.43 84.41 91.09 85.15 90.77C86.57 90.07 88.1 89.54 89.62 89.01C90.38 88.76 91.19 88.59 91.97 88.38C92.05 88.36 92.45 88.26 93.16 88.09C93.89 87.98 94.3 87.92 94.38 87.91C95.2 87.82 96.01 87.64 96.84 87.62C97 87.62 97.84 87.6 99.34 87.57L99.65 87.57L99.8 87.57L100.13 87.6L100.68 87.66L101.79 87.78C102.46 87.86 102.83 87.9 102.9 87.91C103.29 87.96 103.74 88.09 104.16 88.18C105 88.38 105.88 88.56 106.68 88.82C106.92 88.9 108.77 89.57 109 89.65C109.78 89.92 110.48 90.32 111.22 90.66C111.96 90.99 112.68 91.36 113.36 91.79C114.78 92.57 116.08 93.47 117.39 94.39C118.64 95.36 119.9 96.32 121.06 97.39C121.66 97.9 122.23 98.44 122.79 98.99C123.35 99.54 123.92 100.08 124.44 100.66C125.52 101.79 126.56 102.96 127.55 104.17C128.56 105.4 129.47 106.59 130.43 108.01C131.19 109.14 131.05 110.62 130.18 111.59C129.05 112.84 127.96 113.91 126.81 114.98Z" id="c2sDr3G1y"></path><path d="M18.72 82.49C18.72 82.49 19.1 82.12 19.8 81.42C20.16 81.08 20.54 80.65 21.13 80.15C21.7 79.65 22.36 79.07 23.1 78.42C23.86 77.83 24.7 77.18 25.62 76.47C26.57 75.81 27.58 75.08 28.71 74.36C30.96 72.95 33.58 71.46 36.55 70.12C39.53 68.79 42.82 67.48 46.41 66.45C49.99 65.42 53.84 64.57 57.86 63.99C61.89 63.44 66.05 63.16 70.36 63.17C72.37 63.18 74.64 63.27 76.78 63.47C78.94 63.65 81.1 63.92 83.24 64.3C91.82 65.76 100.17 68.75 107.26 72.95C114.38 77.11 120.19 82.49 124.06 88.01C126.01 90.76 127.49 93.52 128.55 96.09C129.63 98.65 130.25 101.02 130.63 102.99C130.82 103.98 130.97 104.86 131.04 105.65C131.13 106.42 131.21 107.09 131.21 107.63C131.25 108.71 131.28 109.29 131.28 109.29C131.34 110.94 130.05 112.33 128.4 112.4C126.74 112.47 125.35 111.18 125.28 109.52C125.28 109.52 125.28 109.51 125.28 109.49C125.28 109.37 125.28 109.3 125.28 109.29C125.28 109.29 125.26 108.81 125.24 107.92C125.24 107.48 125.18 106.93 125.12 106.29C125.07 105.64 124.95 104.91 124.8 104.09C124.5 102.45 124.02 100.47 123.13 98.29C122.25 96.11 121.02 93.73 119.35 91.32C116.04 86.47 110.9 81.55 104.44 77.68C98.01 73.76 90.31 70.89 82.33 69.44C80.34 69.06 78.32 68.79 76.31 68.59C74.29 68.39 72.38 68.28 70.26 68.24C66.29 68.2 62.3 68.42 58.52 68.89C54.73 69.4 51.11 70.16 47.74 71.09C44.37 72.01 41.28 73.21 38.49 74.42C35.71 75.64 33.28 77 31.18 78.28C30.13 78.93 29.19 79.59 28.31 80.18C27.47 80.83 26.69 81.41 25.99 81.95C25.34 82.5 24.76 83 24.26 83.43C23.75 83.85 23.31 84.33 22.96 84.65C22.25 85.34 21.87 85.7 21.87 85.7C20.98 86.57 19.56 86.55 18.69 85.65C17.83 84.77 17.85 83.35 18.72 82.49" id="eiXOLu8Bd"></path></defs><g><g><g><use xlink:href="#bcp48t4D8" opacity="1" fill="#ffffff" fill-opacity="1"></use><g><use xlink:href="#bcp48t4D8" opacity="1" fill-opacity="0" stroke="#000000" stroke-width="1" stroke-opacity="0"></use></g></g><g><use xlink:href="#gxi2POSzO" opacity="1" fill="#1d1d1b" fill-opacity="1"></use><g><use xlink:href="#gxi2POSzO" opacity="1" fill-opacity="0" stroke="#000000" stroke-width="1" stroke-opacity="0"></use></g></g><g><use xlink:href="#a6NMfgkwB" opacity="1" fill="#ffffff" fill-opacity="1"></use><g><use xlink:href="#a6NMfgkwB" opacity="1" fill-opacity="0" stroke="#000000" stroke-width="1" stroke-opacity="0"></use></g></g><g><use xlink:href="#b1yp6g2INU" opacity="1" fill="#1d1d1b" fill-opacity="1"></use><g><use xlink:href="#b1yp6g2INU" opacity="1" fill-opacity="0" stroke="#000000" stroke-width="1" stroke-opacity="0"></use></g></g><g><use xlink:href="#bkmtQ6fev" opacity="1" fill="#1d1d1b" fill-opacity="1"></use><g><use xlink:href="#bkmtQ6fev" opacity="1" fill-opacity="0" stroke="#000000" stroke-width="1" stroke-opacity="0"></use></g></g><g><use xlink:href="#h4WwJrTOd" opacity="1" fill="#1d1d1b" fill-opacity="1"></use><g><use xlink:href="#h4WwJrTOd" opacity="1" fill-opacity="0" stroke="#000000" stroke-width="1" stroke-opacity="0"></use></g></g><g><use xlink:href="#b3gqu3SDGI" opacity="1" fill="#1d1d1b" fill-opacity="1"></use><g><use xlink:href="#b3gqu3SDGI" opacity="1" fill-opacity="0" stroke="#000000" stroke-width="1" stroke-opacity="0"></use></g></g><g><use xlink:href="#c2sDr3G1y" opacity="1" fill="#1d1d1b" fill-opacity="1"></use><g><use xlink:href="#c2sDr3G1y" opacity="1" fill-opacity="0" stroke="#000000" stroke-width="1" stroke-opacity="0"></use></g></g><g><use xlink:href="#eiXOLu8Bd" opacity="1" fill="#1d1d1b" fill-opacity="1"></use><g><use xlink:href="#eiXOLu8Bd" opacity="1" fill-opacity="0" stroke="#000000" stroke-width="1" stroke-opacity="0"></use></g></g></g></g></svg>