<?xml version="1.0" encoding="UTF-8" standalone="no"?>
<!DOCTYPE svg PUBLIC "-//W3C//DTD SVG 1.1//EN" "http://www.w3.org/Graphics/SVG/1.1/DTD/svg11.dtd">
<svg version="1.1" xmlns="http://www.w3.org/2000/svg" xmlns:xlink="http://www.w3.org/1999/xlink" preserveAspectRatio="xMidYMid meet" viewBox="0 0 200 200" width="200" height="200"><defs><path d="M19.92 167.64C19.92 145.17 55.57 137.76 99.75 137.76C143.93 137.76 179.92 147.81 179.92 168.15C179.92 181.91 167.56 190.39 152.1 190.39C134.77 190.39 124.11 181.36 124.11 167.61C124.11 180.27 115.44 188.41 100.11 188.41C83.44 188.41 76.11 180.27 76.11 167.61C76.11 181.36 64.45 190.39 47.78 190.39C32.32 190.39 19.92 181.39 19.92 167.64" id="e75Qwvg8T"></path><path d="M23.26 167.64C23.26 170.52 23.94 173.31 25.27 175.78C26.6 178.25 28.57 180.4 30.94 182.09C33.3 183.79 36.06 185.05 38.97 185.87C40.43 186.27 41.93 186.57 43.45 186.77C44.98 186.96 46.44 187.05 48.05 187.05C51.18 187.07 54.28 186.73 57.24 185.99C60.2 185.24 62.99 184.03 65.42 182.38C67.85 180.72 69.86 178.56 71.23 176.03C72.63 173.51 73.37 170.61 73.44 167.61C73.44 167.6 73.45 167.53 73.45 167.52C73.48 166.05 74.7 164.89 76.18 164.92C77.63 164.96 78.79 166.16 78.78 167.61C78.78 167.61 78.78 167.61 78.78 167.61C78.93 170.36 79.37 173.04 80.41 175.37C81.39 177.7 82.88 179.68 84.86 181.13C86.83 182.58 89.21 183.62 91.8 184.23C93.1 184.54 94.43 184.76 95.8 184.89C97.22 185.02 98.43 185.08 100.01 185.08C101.32 185.08 102.76 185.03 104.09 184.89C105.45 184.75 106.78 184.52 108.06 184.19C110.64 183.54 113 182.45 115.02 180.98C117.03 179.5 118.61 177.53 119.67 175.23C120.77 172.95 121.29 170.32 121.44 167.61C121.79 167.61 123.57 167.61 126.77 167.61C126.77 167.61 126.77 167.61 126.77 167.61C126.85 170.09 127.29 172.52 128.2 174.72C129.12 176.91 130.43 178.9 132.12 180.55C135.52 183.85 140.25 185.79 145.22 186.58C146.47 186.78 147.74 186.92 149.01 187C149.66 187.02 150.21 187.06 150.91 187.06C150.98 187.06 151.32 187.07 151.95 187.07C152.5 187.06 152.8 187.05 152.86 187.05C155.4 186.98 157.93 186.68 160.35 186.08C165.19 184.91 169.66 182.5 172.67 178.97C174.17 177.22 175.26 175.18 175.9 172.98C176.22 171.91 176.43 170.67 176.51 169.64C176.6 168.31 176.59 167.29 176.43 166.18C175.86 161.82 172.76 157.95 168.7 155.02C164.63 152.05 159.76 149.87 154.74 148.13C149.7 146.4 144.45 145.11 139.13 144.1C128.48 142.11 117.56 141.18 106.64 140.87C101.19 140.71 95.68 140.74 90.21 140.91C84.73 141.07 79.27 141.36 73.83 141.85C68.4 142.34 62.99 143.01 57.67 143.98C52.36 144.95 47.11 146.23 42.15 148.02C37.2 149.82 32.46 152.17 28.86 155.46C27.08 157.09 25.62 158.96 24.67 161.01C24.19 162.04 23.83 163.11 23.6 164.22C23.48 164.77 23.4 165.34 23.34 165.91C23.33 165.96 23.31 166.22 23.28 166.68C23.27 167.2 23.26 167.52 23.26 167.64ZM16.59 167.55L16.62 166.52C16.68 165.74 16.72 165.31 16.72 165.23C16.82 164.42 16.94 163.62 17.12 162.82C17.47 161.23 18 159.66 18.71 158.19C20.11 155.24 22.18 152.7 24.48 150.63C29.14 146.49 34.58 143.96 40 142.02C45.45 140.1 51.01 138.83 56.57 137.84C62.14 136.86 67.72 136.2 73.3 135.73C78.89 135.27 84.47 135 90.05 134.87C95.63 134.75 101.18 134.72 106.79 134.83C117.96 135.08 129.16 135.96 140.27 137.97C145.82 138.99 151.35 140.27 156.79 142.1C162.21 143.93 167.6 146.22 172.53 149.73C174.97 151.49 177.3 153.59 179.21 156.18C181.11 158.75 182.55 161.88 183.03 165.19C183.29 166.82 183.29 168.58 183.19 170.01C183.08 171.73 182.81 173.23 182.36 174.82C181.49 177.94 179.92 180.88 177.84 183.34C173.66 188.31 167.79 191.2 161.93 192.6C158.98 193.31 155.98 193.66 152.99 193.7C152.6 193.69 152.29 193.71 151.84 193.7C151.73 193.69 150.9 193.67 150.8 193.67C150.11 193.65 149.29 193.59 148.55 193.54C147.07 193.41 145.59 193.23 144.11 192.96C141.16 192.41 138.23 191.53 135.43 190.21C132.66 188.87 130.02 187.07 127.83 184.78C125.64 182.49 123.91 179.72 122.86 176.75C121.79 173.77 121.39 170.65 121.44 167.61C121.44 167.61 121.44 167.61 121.44 167.61C121.35 166.14 122.46 164.87 123.93 164.78C125.4 164.69 126.66 165.8 126.76 167.27C126.76 167.28 126.76 167.29 126.76 167.31C126.77 167.49 126.77 167.59 126.77 167.61C126.92 170.9 126.45 174.33 125.17 177.59C123.87 180.82 121.68 183.79 118.93 185.99C116.2 188.22 112.96 189.64 109.73 190.52C108.11 190.96 106.47 191.27 104.83 191.45C103.18 191.64 101.61 191.73 99.91 191.74C98.48 191.73 96.68 191.63 95.11 191.46C93.49 191.28 91.85 190.99 90.23 190.58C87 189.76 83.71 188.4 80.94 186.13C78.14 183.9 76.01 180.81 74.83 177.54C73.66 174.24 73.3 170.85 73.44 167.61C73.44 167.61 73.44 167.61 73.44 167.61C76.64 167.61 78.42 167.61 78.78 167.61C78.87 171.34 78.12 175.22 76.41 178.69C74.7 182.16 72.07 185.15 69.01 187.4C65.95 189.66 62.46 191.21 58.92 192.2C55.36 193.19 51.71 193.65 48.1 193.71C46.34 193.73 44.43 193.63 42.62 193.41C40.79 193.19 38.97 192.84 37.18 192.35C33.6 191.38 30.11 189.84 26.98 187.61C23.88 185.38 21.17 182.43 19.33 178.94C17.48 175.46 16.56 171.49 16.59 167.64C16.59 167.63 16.59 167.6 16.59 167.59C16.59 167.58 16.59 167.56 16.59 167.55" id="f7YzDzXUza"></path><path d="M79.61 65.93C90.26 60.27 104.18 56.85 119.41 56.85C152.92 56.85 180.07 73.42 180.07 93.87C180.07 128.92 144.26 157.33 100.08 157.33C55.91 157.33 20.09 128.92 20.09 93.87C20.09 58.82 55.91 30.4 100.08 30.4C100.1 30.4 100.23 30.4 100.25 30.4C136.79 30.4 167.41 47.59 165.74 69.54" id="a3hSCqBgT1"></path><path d="M78.7 64.15C78.7 64.15 79.17 63.9 80.07 63.41C80.95 62.94 82.44 62.18 84.29 61.37C88.01 59.67 93.69 57.62 101.15 56.09C104.89 55.33 109.07 54.72 113.64 54.39C115.94 54.25 118.31 54.13 120.8 54.16C121.41 54.16 122.02 54.17 122.63 54.17C123.27 54.19 123.92 54.21 124.57 54.24C125.88 54.27 127.17 54.38 128.49 54.46C133.79 54.89 139.42 55.72 145.22 57.28C151.01 58.8 157.01 61.03 162.82 64.36C165.73 66.03 168.58 67.98 171.27 70.29C173.96 72.6 176.48 75.3 178.56 78.48C180.66 81.63 182.25 85.32 182.99 89.3C183.14 90.3 183.31 91.3 183.35 92.32C183.35 92.43 183.37 92.94 183.41 93.86C183.38 94.73 183.37 95.21 183.37 95.31C183.36 97.03 183.15 99.09 182.93 101.05C181.92 108.75 179.15 116.39 174.95 123.3C170.72 130.21 165.09 136.35 158.59 141.52C145.5 151.78 129.02 158.12 111.88 160C107.59 160.51 103.3 160.67 98.9 160.64C98.69 160.64 97.64 160.61 95.74 160.57C93.76 160.45 92.66 160.39 92.43 160.38C91.32 160.33 90.26 160.17 89.17 160.08C88.08 159.98 87 159.85 85.92 159.69C77.27 158.55 68.74 156.16 60.64 152.74C52.58 149.23 44.96 144.58 38.33 138.73C31.7 132.9 26.1 125.8 22.28 117.82C18.45 109.85 16.53 100.99 16.81 92.26C17.03 83.56 19.45 75.04 23.4 67.62C27.36 60.19 32.77 53.81 38.78 48.54C44.84 43.31 51.51 39.12 58.38 35.95C65.24 32.73 72.31 30.56 79.25 29.1C86.2 27.7 93.05 27.07 99.62 27.03C112.7 26.97 124.7 29.03 134.85 32.49C139.93 34.21 144.56 36.29 148.64 38.66C152.7 41.04 156.21 43.71 159.06 46.53C164.82 52.15 167.52 58.51 168.2 62.91C168.56 65.13 168.58 66.85 168.53 68C168.48 69.15 168.4 69.74 168.4 69.74C168.4 69.75 168.39 69.83 168.39 69.84C168.19 71.3 166.85 72.32 165.39 72.12C164.01 71.93 163.02 70.71 163.08 69.34C163.08 69.34 163.11 68.87 163.07 67.97C163.03 67.07 162.95 65.73 162.55 64.04C162.14 62.36 161.44 60.32 160.17 58.09C158.91 55.87 157.04 53.51 154.57 51.15C152.1 48.8 148.99 46.51 145.31 44.43C141.64 42.32 137.41 40.41 132.7 38.83C123.3 35.65 112 33.71 99.65 33.8C93.5 33.84 87.1 34.45 80.62 35.77C74.16 37.15 67.59 39.18 61.24 42.13C54.88 45.04 48.75 48.9 43.22 53.65C37.73 58.44 32.87 64.18 29.33 70.78C25.81 77.38 23.69 84.81 23.47 92.47C23.23 100.1 24.9 107.88 28.3 114.94C31.68 122.02 36.69 128.43 42.74 133.74C48.79 139.06 55.8 143.36 63.28 146.61C70.79 149.79 78.74 152.02 86.83 153.08C87.84 153.24 88.85 153.36 89.86 153.45C90.87 153.54 91.9 153.69 92.9 153.73C93.1 153.74 94.09 153.8 95.89 153.91C97.78 153.95 98.83 153.97 99.04 153.98C103.04 153.99 107.14 153.84 111.13 153.35C127.15 151.57 142.45 145.58 154.39 136.2C160.33 131.48 165.43 125.94 169.21 119.79C172.96 113.63 175.4 106.92 176.31 100.17C176.49 98.51 176.68 96.97 176.7 95.1C176.7 95.01 176.71 94.6 176.74 93.86C176.71 93.17 176.69 92.79 176.69 92.71C176.67 91.95 176.54 91.2 176.44 90.45C175.92 87.46 174.76 84.6 173.09 82.03C169.79 76.83 164.81 72.84 159.67 69.79C154.47 66.74 149 64.54 143.63 63.01C138.27 61.44 132.99 60.54 128 60.02C117.99 59.06 109.16 59.64 102.05 60.87C94.93 62.09 89.53 63.91 85.95 65.31C84.12 66.02 82.87 66.59 81.92 67.04C80.99 67.49 80.51 67.71 80.51 67.71C79.52 68.19 78.32 67.77 77.85 66.78C77.38 65.81 77.77 64.65 78.7 64.15" id="d55DnfKjHn"></path><path d="M116.08 45.34C116.08 47.75 113.62 49.71 110.58 49.71C107.54 49.71 105.08 47.75 105.08 45.34C105.08 42.94 107.54 40.98 110.58 40.98C113.62 40.98 116.08 42.94 116.08 45.34" id="aakhuvyFb"></path><path d="M134.41 46.53C134.41 48.87 132.02 50.77 129.08 50.77C126.13 50.77 123.75 48.87 123.75 46.53C123.75 44.2 126.13 42.3 129.08 42.3C132.02 42.3 134.41 44.2 134.41 46.53" id="a7swcZBX3"></path><path d="M103.15 78.35C103.15 78.35 103.19 79.28 103.27 80.91C103.32 82.53 103.44 84.86 103.49 87.64C103.54 90.43 103.66 93.68 103.68 97.17C103.71 100.65 103.73 104.37 103.76 108.09C103.73 111.8 103.7 115.52 103.68 119C103.65 122.49 103.54 125.74 103.49 128.53C103.44 131.32 103.32 133.64 103.27 135.26C103.19 136.89 103.15 137.82 103.15 137.82C103.07 139.51 101.64 140.81 99.95 140.73C98.37 140.66 97.12 139.38 97.04 137.82C97.04 137.82 97 136.89 96.92 135.26C96.87 133.64 96.75 131.32 96.7 128.53C96.65 125.74 96.54 122.49 96.51 119C96.49 115.52 96.46 111.8 96.43 108.09C96.46 104.37 96.48 100.65 96.51 97.17C96.53 93.68 96.65 90.43 96.69 87.64C96.75 84.86 96.87 82.53 96.92 80.91C97 79.28 97.04 78.35 97.04 78.35C97.12 76.67 98.55 75.36 100.24 75.44C101.82 75.51 103.07 76.8 103.15 78.35" id="b2mrjeq93"></path><path d="M67.21 105.03C67.21 105.03 68.24 104.99 70.04 104.91C71.83 104.86 74.4 104.75 77.49 104.69C80.57 104.64 84.17 104.53 88.02 104.5C91.87 104.48 95.98 104.45 100.09 104.42C104.21 104.45 108.32 104.48 112.17 104.5C116.02 104.52 119.62 104.64 122.7 104.69C125.79 104.74 128.36 104.86 130.16 104.91C131.95 104.99 132.98 105.03 132.98 105.03C134.67 105.1 135.98 106.53 135.91 108.21C135.84 109.81 134.55 111.07 132.98 111.14C132.98 111.14 131.95 111.18 130.16 111.26C128.36 111.31 125.79 111.43 122.7 111.49C119.62 111.54 116.02 111.65 112.17 111.67C108.32 111.7 104.21 111.72 100.09 111.75C95.98 111.72 91.87 111.7 88.02 111.67C84.17 111.64 80.57 111.53 77.49 111.48C74.4 111.43 71.83 111.31 70.04 111.26C68.24 111.18 67.21 111.14 67.21 111.14C65.52 111.07 64.21 109.65 64.28 107.96C64.35 106.36 65.64 105.1 67.21 105.03" id="a3vY1UkjJI"></path></defs><g><g><g><use xlink:href="#e75Qwvg8T" opacity="1" fill="#ffffff" fill-opacity="1"></use><g><use xlink:href="#e75Qwvg8T" opacity="1" fill-opacity="0" stroke="#000000" stroke-width="1" stroke-opacity="0"></use></g></g><g><use xlink:href="#f7YzDzXUza" opacity="1" fill="#1d1d1b" fill-opacity="1"></use><g><use xlink:href="#f7YzDzXUza" opacity="1" fill-opacity="0" stroke="#000000" stroke-width="1" stroke-opacity="0"></use></g></g><g><use xlink:href="#a3hSCqBgT1" opacity="1" fill="#ffffff" fill-opacity="1"></use><g><use xlink:href="#a3hSCqBgT1" opacity="1" fill-opacity="0" stroke="#000000" stroke-width="1" stroke-opacity="0"></use></g></g><g><use xlink:href="#d55DnfKjHn" opacity="1" fill="#1d1d1b" fill-opacity="1"></use><g><use xlink:href="#d55DnfKjHn" opacity="1" fill-opacity="0" stroke="#000000" stroke-width="1" stroke-opacity="0"></use></g></g><g><use xlink:href="#aakhuvyFb" opacity="1" fill="#1d1d1b" fill-opacity="1"></use><g><use xlink:href="#aakhuvyFb" opacity="1" fill-opacity="0" stroke="#000000" stroke-width="1" stroke-opacity="0"></use></g></g><g><use xlink:href="#a7swcZBX3" opacity="1" fill="#1d1d1b" fill-opacity="1"></use><g><use xlink:href="#a7swcZBX3" opacity="1" fill-opacity="0" stroke="#000000" stroke-width="1" stroke-opacity="0"></use></g></g><g><use xlink:href="#b2mrjeq93" opacity="1" fill="#1d1d1b" fill-opacity="1"></use><g><use xlink:href="#b2mrjeq93" opacity="1" fill-opacity="0" stroke="#000000" stroke-width="1" stroke-opacity="0"></use></g></g><g><use xlink:href="#a3vY1UkjJI" opacity="1" fill="#1d1d1b" fill-opacity="1"></use><g><use xlink:href="#a3vY1UkjJI" opacity="1" fill-opacity="0" stroke="#000000" stroke-width="1" stroke-opacity="0"></use></g></g></g></g></svg>