<?xml version="1.0" encoding="UTF-8" standalone="no"?>
<!DOCTYPE svg PUBLIC "-//W3C//DTD SVG 1.1//EN" "http://www.w3.org/Graphics/SVG/1.1/DTD/svg11.dtd">
<svg version="1.1" xmlns="http://www.w3.org/2000/svg" xmlns:xlink="http://www.w3.org/1999/xlink" preserveAspectRatio="xMidYMid meet" viewBox="0 0 200 200" width="200" height="200"><defs><path d="M26.11 164.61C26.11 142.14 61.75 134.73 105.93 134.73C150.11 134.73 186.1 144.78 186.1 165.12C186.1 178.87 173.75 187.36 158.28 187.36C140.95 187.36 130.29 178.33 130.29 164.58C130.29 177.23 121.62 185.38 106.29 185.38C89.63 185.38 82.29 177.23 82.29 164.58C82.29 178.33 70.63 187.36 53.96 187.36C38.5 187.36 26.11 178.36 26.11 164.61" id="a5jZmf5DkB"></path><path d="M29.44 164.61C29.45 167.49 30.13 170.28 31.46 172.75C32.78 175.22 34.75 177.37 37.13 179.06C39.49 180.76 42.24 182.02 45.16 182.84C46.61 183.24 48.11 183.54 49.63 183.74C51.16 183.93 52.62 184.02 54.24 184.02C57.36 184.04 60.47 183.7 63.42 182.96C66.38 182.21 69.17 180.99 71.61 179.35C74.03 177.69 76.05 175.53 77.42 173C78.81 170.48 79.55 167.58 79.63 164.58C79.63 164.57 79.63 164.5 79.63 164.49C79.66 163.02 80.89 161.86 82.36 161.89C83.81 161.93 84.97 163.13 84.96 164.58C84.96 164.58 84.96 164.58 84.96 164.58C85.11 167.33 85.56 170.01 86.59 172.34C87.57 174.67 89.06 176.65 91.04 178.1C93.02 179.55 95.39 180.59 97.98 181.2C99.28 181.51 100.62 181.73 101.99 181.86C103.41 181.99 104.62 182.05 106.2 182.05C107.5 182.05 108.94 182 110.27 181.86C111.63 181.72 112.96 181.49 114.24 181.16C116.82 180.51 119.19 179.42 121.2 177.95C123.21 176.46 124.79 174.5 125.85 172.2C126.96 169.92 127.47 167.29 127.62 164.58C127.98 164.58 129.75 164.58 132.95 164.58C132.95 164.58 132.95 164.58 132.95 164.58C133.04 167.06 133.47 169.49 134.39 171.69C135.3 173.88 136.62 175.87 138.31 177.52C141.7 180.82 146.43 182.76 151.41 183.55C152.65 183.75 153.92 183.89 155.2 183.97C155.84 183.99 156.4 184.03 157.09 184.03C157.16 184.03 157.51 184.04 158.13 184.04C158.68 184.03 158.98 184.02 159.05 184.02C161.59 183.95 164.11 183.65 166.53 183.05C171.38 181.88 175.84 179.47 178.85 175.94C180.35 174.19 181.44 172.15 182.08 169.95C182.41 168.88 182.61 167.64 182.69 166.61C182.79 165.28 182.78 164.26 182.62 163.15C182.04 158.79 178.94 154.92 174.88 151.98C170.81 149.02 165.94 146.84 160.92 145.1C155.88 143.37 150.63 142.08 145.31 141.07C134.66 139.08 123.75 138.15 112.82 137.84C107.38 137.68 101.86 137.71 96.39 137.88C90.91 138.04 85.45 138.33 80.02 138.82C74.58 139.31 69.18 139.98 63.86 140.95C58.54 141.92 53.3 143.2 48.33 144.99C43.39 146.79 38.64 149.14 35.05 152.42C33.26 154.06 31.81 155.93 30.85 157.98C30.37 159.01 30.01 160.08 29.78 161.19C29.66 161.74 29.58 162.31 29.52 162.88C29.51 162.93 29.5 163.19 29.46 163.65C29.45 164.17 29.44 164.49 29.44 164.61ZM22.78 164.52L22.81 163.49C22.87 162.71 22.9 162.28 22.91 162.2C23 161.39 23.12 160.59 23.3 159.79C23.65 158.2 24.19 156.63 24.89 155.16C26.3 152.21 28.36 149.67 30.66 147.6C35.32 143.46 40.76 140.93 46.18 138.99C51.63 137.07 57.19 135.8 62.75 134.81C68.32 133.83 73.9 133.17 79.49 132.7C85.07 132.24 90.65 131.97 96.23 131.84C101.82 131.72 107.36 131.69 112.97 131.8C124.15 132.05 135.35 132.93 146.45 134.94C152 135.96 157.53 137.24 162.97 139.07C168.39 140.9 173.78 143.19 178.71 146.7C181.16 148.46 183.48 150.56 185.39 153.15C187.29 155.72 188.73 158.85 189.21 162.16C189.47 163.79 189.48 165.55 189.37 166.98C189.26 168.7 189 170.2 188.55 171.79C187.67 174.91 186.1 177.85 184.02 180.31C179.84 185.28 173.97 188.17 168.11 189.57C165.16 190.28 162.16 190.63 159.18 190.67C158.79 190.66 158.47 190.68 158.02 190.67C157.91 190.66 157.09 190.64 156.98 190.64C156.3 190.62 155.47 190.56 154.73 190.51C153.25 190.38 151.77 190.2 150.3 189.93C147.35 189.38 144.41 188.5 141.62 187.18C138.84 185.84 136.21 184.04 134.01 181.75C131.82 179.46 130.09 176.69 129.04 173.72C127.97 170.74 127.58 167.62 127.62 164.58C127.62 164.58 127.62 164.58 127.62 164.58C127.53 163.11 128.64 161.84 130.11 161.75C131.58 161.66 132.85 162.77 132.94 164.24C132.94 164.25 132.94 164.26 132.94 164.28C132.95 164.46 132.95 164.56 132.95 164.58C133.1 167.87 132.63 171.3 131.35 174.56C130.05 177.79 127.87 180.76 125.12 182.96C122.38 185.19 119.14 186.61 115.91 187.49C114.29 187.93 112.65 188.24 111.02 188.42C109.36 188.61 107.79 188.7 106.09 188.71C104.66 188.7 102.86 188.6 101.29 188.43C99.67 188.25 98.04 187.96 96.41 187.55C93.18 186.73 89.89 185.37 87.12 183.1C84.32 180.87 82.2 177.78 81.01 174.51C79.85 171.21 79.48 167.82 79.63 164.58C79.63 164.58 79.63 164.58 79.63 164.58C82.83 164.58 84.6 164.58 84.96 164.58C85.05 168.31 84.3 172.19 82.59 175.66C80.88 179.13 78.26 182.12 75.19 184.37C72.13 186.63 68.65 188.18 65.1 189.17C61.54 190.16 57.9 190.62 54.28 190.68C52.53 190.7 50.61 190.6 48.8 190.38C46.98 190.16 45.16 189.81 43.36 189.32C39.78 188.35 36.29 186.8 33.17 184.58C30.06 182.35 27.35 179.4 25.51 175.91C23.66 172.43 22.75 168.46 22.78 164.61C22.78 164.6 22.78 164.57 22.78 164.56C22.78 164.55 22.78 164.53 22.78 164.52" id="aBE6CNlDC"></path><path d="M85.79 62.9C96.44 57.24 110.36 53.82 125.6 53.82C159.1 53.82 186.26 70.39 186.26 90.84C186.26 125.89 150.44 154.3 106.27 154.3C62.09 154.3 26.27 125.89 26.27 90.84C26.27 55.79 62.09 27.37 106.27 27.37C106.28 27.37 106.42 27.37 106.43 27.37C142.97 27.37 173.59 44.56 171.92 66.51" id="a3uMbEQV0D"></path><path d="M84.88 61.12C84.88 61.12 85.35 60.87 86.26 60.38C87.13 59.91 88.63 59.15 90.47 58.34C94.2 56.64 99.87 54.59 107.34 53.06C111.07 52.3 115.25 51.69 119.83 51.36C122.12 51.22 124.5 51.1 126.99 51.13C127.59 51.13 128.2 51.14 128.82 51.14C129.45 51.16 130.1 51.18 130.75 51.21C132.06 51.24 133.35 51.35 134.68 51.43C139.97 51.86 145.6 52.69 151.4 54.25C157.2 55.77 163.19 58 169.01 61.33C171.91 63 174.76 64.95 177.45 67.26C180.14 69.57 182.67 72.27 184.74 75.45C186.84 78.6 188.43 82.29 189.17 86.27C189.32 87.27 189.5 88.27 189.53 89.29C189.53 89.4 189.55 89.91 189.59 90.83C189.57 91.7 189.55 92.18 189.55 92.28C189.54 94 189.34 96.06 189.12 98.02C188.1 105.72 185.33 113.36 181.13 120.27C176.91 127.18 171.27 133.32 164.78 138.49C151.69 148.75 135.2 155.09 118.07 156.97C113.77 157.48 109.48 157.64 105.08 157.61C104.87 157.61 103.82 157.58 101.92 157.54C99.94 157.42 98.84 157.36 98.62 157.34C97.51 157.3 96.44 157.14 95.35 157.05C94.27 156.95 93.18 156.82 92.11 156.66C83.45 155.52 74.92 153.13 66.82 149.71C58.76 146.2 51.14 141.55 44.51 135.7C37.88 129.87 32.29 122.77 28.47 114.79C24.63 106.82 22.71 97.96 22.99 89.23C23.21 80.53 25.63 72.01 29.58 64.59C33.55 57.15 38.95 50.78 44.96 45.51C51.03 40.28 57.69 36.09 64.56 32.92C71.42 29.7 78.49 27.53 85.43 26.07C92.39 24.67 99.24 24.04 105.8 24C118.88 23.94 130.88 26 141.04 29.46C146.12 31.18 150.74 33.26 154.82 35.63C158.88 38.01 162.39 40.68 165.24 43.5C171.01 49.12 173.71 55.47 174.38 59.88C174.74 62.1 174.77 63.82 174.71 64.97C174.66 66.12 174.58 66.71 174.58 66.71C174.58 66.72 174.57 66.8 174.57 66.81C174.37 68.27 173.03 69.29 171.57 69.09C170.19 68.9 169.2 67.67 169.27 66.31C169.27 66.31 169.29 65.84 169.25 64.94C169.21 64.04 169.13 62.7 168.74 61.01C168.32 59.33 167.63 57.29 166.35 55.06C165.09 52.84 163.22 50.48 160.76 48.12C158.29 45.77 155.17 43.47 151.49 41.4C147.83 39.29 143.59 37.38 138.89 35.8C129.48 32.62 118.19 30.68 105.83 30.77C99.68 30.81 93.28 31.42 86.8 32.74C80.34 34.12 73.78 36.15 67.43 39.1C61.06 42.01 54.93 45.87 49.4 50.62C43.92 55.41 39.05 61.15 35.51 67.75C31.99 74.35 29.87 81.78 29.65 89.44C29.41 97.07 31.08 104.85 34.48 111.91C37.87 118.99 42.88 125.39 48.93 130.71C54.97 136.03 61.99 140.33 69.46 143.58C76.97 146.76 84.92 148.99 93.01 150.05C94.02 150.21 95.03 150.33 96.05 150.42C97.06 150.51 98.09 150.65 99.08 150.69C99.28 150.71 100.28 150.77 102.07 150.88C103.96 150.92 105.01 150.94 105.22 150.95C109.22 150.96 113.32 150.81 117.31 150.32C133.33 148.54 148.63 142.55 160.58 133.17C166.52 128.45 171.61 122.91 175.39 116.76C179.14 110.6 181.58 103.89 182.49 97.14C182.67 95.48 182.86 93.94 182.88 92.07C182.88 91.98 182.89 91.57 182.92 90.83C182.89 90.14 182.87 89.76 182.87 89.68C182.85 88.92 182.72 88.17 182.63 87.42C182.1 84.43 180.94 81.57 179.27 79C175.97 73.8 170.99 69.81 165.85 66.75C160.65 63.71 155.18 61.51 149.81 59.98C144.45 58.41 139.17 57.51 134.18 56.99C124.17 56.03 115.35 56.61 108.23 57.84C101.11 59.06 95.71 60.88 92.13 62.28C90.3 62.99 89.05 63.56 88.1 64.01C87.17 64.46 86.7 64.68 86.7 64.68C85.7 65.16 84.51 64.74 84.03 63.75C83.56 62.78 83.95 61.62 84.88 61.12" id="eg9NESMt4"></path><path d="M122.26 42.31C122.26 44.72 119.8 46.68 116.76 46.68C113.73 46.68 111.26 44.72 111.26 42.31C111.26 39.91 113.73 37.95 116.76 37.95C119.8 37.95 122.26 39.91 122.26 42.31" id="a11BeXrVM5"></path><path d="M140.59 43.5C140.59 45.84 138.21 47.74 135.26 47.74C132.32 47.74 129.93 45.84 129.93 43.5C129.93 41.17 132.32 39.27 135.26 39.27C138.21 39.27 140.59 41.17 140.59 43.5" id="a37Gomst3S"></path><path d="M102.97 154.3C102.75 111.15 102.62 87.17 102.6 82.38C102.59 80.35 104.22 78.7 106.25 78.69C108.27 78.68 109.92 80.31 109.93 82.34C109.93 82.34 109.93 82.35 109.93 82.38C109.71 125.53 109.59 149.51 109.56 154.3C109.56 156.12 108.07 157.59 106.25 157.58C104.44 157.58 102.97 156.11 102.97 154.3" id="awMXg4Qbh"></path><path d="M127.44 106.71C127.44 101.7 131.5 97.63 136.52 97.63C141.53 97.63 145.59 101.7 145.59 106.71C145.59 111.72 141.53 115.79 136.52 115.79C131.5 115.79 127.44 111.72 127.44 106.71" id="allYbB2Q5"></path><path d="M66.94 106.71C66.94 101.7 71 97.63 76.01 97.63C81.03 97.63 85.09 101.7 85.09 106.71C85.09 111.72 81.03 115.79 76.01 115.79C71 115.79 66.94 111.72 66.94 106.71" id="hb5muoT8zz"></path></defs><g><g><g><use xlink:href="#a5jZmf5DkB" opacity="1" fill="#ffffff" fill-opacity="1"></use><g><use xlink:href="#a5jZmf5DkB" opacity="1" fill-opacity="0" stroke="#000000" stroke-width="1" stroke-opacity="0"></use></g></g><g><use xlink:href="#aBE6CNlDC" opacity="1" fill="#1d1d1b" fill-opacity="1"></use><g><use xlink:href="#aBE6CNlDC" opacity="1" fill-opacity="0" stroke="#000000" stroke-width="1" stroke-opacity="0"></use></g></g><g><use xlink:href="#a3uMbEQV0D" opacity="1" fill="#ffffff" fill-opacity="1"></use><g><use xlink:href="#a3uMbEQV0D" opacity="1" fill-opacity="0" stroke="#000000" stroke-width="1" stroke-opacity="0"></use></g></g><g><use xlink:href="#eg9NESMt4" opacity="1" fill="#1d1d1b" fill-opacity="1"></use><g><use xlink:href="#eg9NESMt4" opacity="1" fill-opacity="0" stroke="#000000" stroke-width="1" stroke-opacity="0"></use></g></g><g><use xlink:href="#a11BeXrVM5" opacity="1" fill="#1d1d1b" fill-opacity="1"></use><g><use xlink:href="#a11BeXrVM5" opacity="1" fill-opacity="0" stroke="#000000" stroke-width="1" stroke-opacity="0"></use></g></g><g><use xlink:href="#a37Gomst3S" opacity="1" fill="#1d1d1b" fill-opacity="1"></use><g><use xlink:href="#a37Gomst3S" opacity="1" fill-opacity="0" stroke="#000000" stroke-width="1" stroke-opacity="0"></use></g></g><g><use xlink:href="#awMXg4Qbh" opacity="1" fill="#1d1d1b" fill-opacity="1"></use><g><use xlink:href="#awMXg4Qbh" opacity="1" fill-opacity="0" stroke="#000000" stroke-width="1" stroke-opacity="0"></use></g></g><g><use xlink:href="#allYbB2Q5" opacity="1" fill="#1d1d1b" fill-opacity="1"></use><g><use xlink:href="#allYbB2Q5" opacity="1" fill-opacity="0" stroke="#000000" stroke-width="1" stroke-opacity="0"></use></g></g><g><use xlink:href="#hb5muoT8zz" opacity="1" fill="#1d1d1b" fill-opacity="1"></use><g><use xlink:href="#hb5muoT8zz" opacity="1" fill-opacity="0" stroke="#000000" stroke-width="1" stroke-opacity="0"></use></g></g></g></g></svg>