<?xml version="1.0" encoding="UTF-8" standalone="no"?>
<!DOCTYPE svg PUBLIC "-//W3C//DTD SVG 1.1//EN" "http://www.w3.org/Graphics/SVG/1.1/DTD/svg11.dtd">
<svg version="1.1" xmlns="http://www.w3.org/2000/svg" xmlns:xlink="http://www.w3.org/1999/xlink" preserveAspectRatio="xMidYMid meet" viewBox="0 0 200 200" width="200" height="200"><defs><path d="M79.52 73.67C90.17 66.54 104.09 62.22 119.32 62.22C152.82 62.22 179.98 83.11 179.98 108.88C179.98 153.06 144.17 188.87 99.99 188.87C55.81 188.87 20 153.06 20 108.88C20 64.7 55.81 28.89 99.99 28.89C100.01 28.89 100.14 28.89 100.16 28.89C136.7 28.89 167.32 50.55 165.65 78.22" id="a1ofV51R1I"></path><path d="M78.47 71.96C78.47 71.96 78.96 71.65 79.91 71.04C80.89 70.45 82.16 69.48 84.25 68.43C88.25 66.15 94.28 63.46 102.49 61.55C106.6 60.71 111.2 59.88 116.27 59.7C117.54 59.66 118.8 59.53 120.17 59.56C121.44 59.57 122.73 59.57 124.14 59.66C126.93 59.78 129.72 60.08 132.63 60.52C138.43 61.43 144.54 63.03 150.64 65.66C156.73 68.27 162.86 71.89 168.3 76.92C173.72 81.92 178.47 88.39 181.15 96.13C182.46 100 183.21 104.15 183.3 108.39C183.3 108.41 183.3 108.55 183.31 108.78L183.31 109.06L183.31 109.24L183.29 109.97C183.27 110.85 183.26 111.34 183.25 111.43C183.24 112.4 183.21 113.39 183.11 114.45C183.03 115.5 182.95 116.54 182.87 117.59C182.74 118.62 182.61 119.64 182.48 120.68C181.87 124.79 181.03 128.94 179.77 133.03C178.52 137.11 176.96 141.16 175.08 145.11C171.24 152.95 166.17 160.45 159.81 166.94C147.21 180 129.62 189.21 110.65 191.51C108.28 191.85 105.9 191.99 103.51 192.12C103.27 192.12 102.04 192.15 99.84 192.2C97.77 192.15 96.62 192.12 96.39 192.11C91.53 191.89 86.74 191.27 82.03 190.24C72.59 188.21 63.52 184.4 55.34 179.22C38.93 168.89 26.47 152.59 20.67 134.41C14.82 116.23 15.55 96.47 22 79.47C28.4 62.42 40.23 48.31 54.17 39.21C68.1 30 83.93 25.7 98.43 25.54C112.9 25.28 126.15 28.33 136.91 33.29C142.3 35.75 147.06 38.73 151.11 41.97C155.14 45.24 158.41 48.81 160.96 52.35C163.53 55.89 165.21 59.5 166.35 62.71C167.51 65.94 168.02 68.84 168.26 71.18C168.31 71.76 168.36 72.32 168.41 72.84C168.42 73.35 168.44 73.84 168.45 74.29C168.48 75.18 168.47 75.94 168.42 76.54C168.35 77.75 168.31 78.38 168.31 78.38C168.23 79.85 166.97 80.96 165.5 80.88C164.1 80.79 163.02 79.65 162.99 78.27C162.99 78.25 162.99 78.08 162.99 78.06C162.99 78.06 162.98 77.52 162.96 76.48C162.97 75.96 162.93 75.31 162.86 74.55C162.83 74.17 162.8 73.76 162.77 73.32C162.7 72.88 162.63 72.41 162.55 71.92C161.95 67.99 160.26 62.21 155.74 56.13C151.27 50.08 143.97 43.86 134.11 39.37C124.3 34.87 112 32.03 98.56 32.31C85.21 32.46 70.73 36.48 57.92 44.9C45.1 53.23 34.2 66.19 28.28 81.84C25.34 89.65 23.6 98.08 23.39 106.67C23.09 115.29 24.36 124.01 27.01 132.37C32.35 149.07 43.81 164.09 58.92 173.59C66.44 178.36 74.78 181.87 83.46 183.73C87.8 184.68 92.21 185.24 96.56 185.45C96.79 185.46 97.94 185.49 100.01 185.54C101.94 185.49 103.02 185.46 103.23 185.45C105.43 185.33 107.63 185.2 109.8 184.88C127.24 182.73 143.37 174.24 154.94 162.22C160.81 156.27 165.47 149.38 169.02 142.18C170.75 138.55 172.19 134.84 173.35 131.09C174.51 127.33 175.29 123.52 175.86 119.74C175.98 118.79 176.1 117.84 176.22 116.9C176.3 115.97 176.37 115.05 176.45 114.12C176.54 113.23 176.57 112.25 176.59 111.27C176.59 111.17 176.6 110.68 176.62 109.8L176.64 109.07C176.65 108.96 176.65 108.9 176.65 108.89C176.65 108.75 176.65 108.87 176.65 108.8C176.65 108.77 176.64 108.5 176.64 108.47C176.6 104.94 176.02 101.48 174.96 98.21C172.78 91.68 168.77 86.01 164.01 81.52C159.23 77.02 153.76 73.62 148.24 71.11C142.71 68.59 137.09 67 131.72 66.04C129.04 65.58 126.38 65.23 123.88 65.08C122.65 64.97 121.34 64.94 120.06 64.91C118.88 64.86 117.64 64.94 116.46 64.95C111.71 64.98 107.39 65.64 103.51 66.31C95.8 67.85 89.98 70.33 86.33 72.17C84.46 72.99 83.01 73.98 82.04 74.51C81.06 75.08 80.56 75.37 80.56 75.37C79.61 75.93 78.38 75.61 77.83 74.66C77.28 73.73 77.58 72.54 78.47 71.96" id="bOiYv5Ps1"></path><path d="M115.99 47.72C115.99 50.76 113.53 53.22 110.49 53.22C107.45 53.22 104.99 50.76 104.99 47.72C104.99 44.68 107.45 42.22 110.49 42.22C113.53 42.22 115.99 44.68 115.99 47.72" id="a39QrqZLE"></path><path d="M134.32 49.22C134.32 52.16 131.93 54.55 128.99 54.55C126.04 54.55 123.66 52.16 123.66 49.22C123.66 46.27 126.04 43.89 128.99 43.89C131.93 43.89 134.32 46.27 134.32 49.22" id="a5KCmwiHQo"></path><path d="M126 121.21C126 135.57 114.36 147.21 100 147.21C85.65 147.21 74.01 135.57 74.01 121.21C74.01 106.86 85.65 95.22 100 95.22C114.36 95.22 126 106.86 126 121.21" id="d2gizABx6t"></path><path d="M100 147.21C85.65 147.21 74.01 135.57 74.01 121.21C74.01 106.86 85.65 95.22 100 95.22C114.36 95.22 126 106.86 126 121.21C126 135.57 114.36 147.21 100 147.21Z" id="a4d0wp45ea"></path><path d="M110 120.07C110 125.59 105.53 130.07 100 130.07C94.48 130.07 90.01 125.59 90.01 120.07C90.01 114.55 94.48 110.07 100 110.07C105.53 110.07 110 114.55 110 120.07" id="a7JpzlVUD"></path></defs><g><g><g><use xlink:href="#a1ofV51R1I" opacity="1" fill="#ffffff" fill-opacity="1"></use><g><use xlink:href="#a1ofV51R1I" opacity="1" fill-opacity="0" stroke="#000000" stroke-width="1" stroke-opacity="0"></use></g></g><g><use xlink:href="#bOiYv5Ps1" opacity="1" fill="#1d1d1b" fill-opacity="1"></use><g><use xlink:href="#bOiYv5Ps1" opacity="1" fill-opacity="0" stroke="#000000" stroke-width="1" stroke-opacity="0"></use></g></g><g><use xlink:href="#a39QrqZLE" opacity="1" fill="#1d1d1b" fill-opacity="1"></use><g><use xlink:href="#a39QrqZLE" opacity="1" fill-opacity="0" stroke="#000000" stroke-width="1" stroke-opacity="0"></use></g></g><g><use xlink:href="#a5KCmwiHQo" opacity="1" fill="#1d1d1b" fill-opacity="1"></use><g><use xlink:href="#a5KCmwiHQo" opacity="1" fill-opacity="0" stroke="#000000" stroke-width="1" stroke-opacity="0"></use></g></g><g><use xlink:href="#d2gizABx6t" opacity="1" fill="#ffffff" fill-opacity="1"></use><g><use xlink:href="#d2gizABx6t" opacity="1" fill-opacity="0" stroke="#000000" stroke-width="1" stroke-opacity="0"></use></g></g><g><use xlink:href="#a4d0wp45ea" opacity="1" fill="#000000" fill-opacity="0"></use><g><use xlink:href="#a4d0wp45ea" opacity="1" fill-opacity="0" stroke="#1d1d1b" stroke-width="5" stroke-opacity="1"></use></g></g><g><use xlink:href="#a7JpzlVUD" opacity="1" fill="#1d1d1b" fill-opacity="1"></use><g><use xlink:href="#a7JpzlVUD" opacity="1" fill-opacity="0" stroke="#000000" stroke-width="1" stroke-opacity="0"></use></g></g></g></g></svg>