<?xml version="1.0" encoding="UTF-8" standalone="no"?>
<!DOCTYPE svg PUBLIC "-//W3C//DTD SVG 1.1//EN" "http://www.w3.org/Graphics/SVG/1.1/DTD/svg11.dtd">
<svg version="1.1" xmlns="http://www.w3.org/2000/svg" xmlns:xlink="http://www.w3.org/1999/xlink" preserveAspectRatio="xMidYMid meet" viewBox="0 0 200 200" width="200" height="200"><defs><path d="M19.92 157.26C19.92 134.8 55.57 127.39 99.75 127.39C143.93 127.39 179.92 137.44 179.92 157.78C179.92 171.53 167.56 180.02 152.1 180.02C134.77 180.02 124.11 170.99 124.11 157.24C124.11 169.89 115.44 178.04 100.11 178.04C83.44 178.04 76.11 169.89 76.11 157.24C76.11 170.99 64.45 180.02 47.78 180.02C32.32 180.02 19.92 171.02 19.92 157.26" id="b9w5WO8OIP"></path><path d="M23.26 157.27C23.26 160.15 23.94 162.94 25.27 165.41C26.6 167.88 28.57 170.03 30.94 171.72C33.3 173.42 36.06 174.68 38.97 175.5C40.43 175.9 41.93 176.2 43.45 176.39C44.98 176.59 46.44 176.68 48.05 176.68C51.18 176.7 54.28 176.36 57.24 175.62C60.2 174.87 62.99 173.65 65.42 172C67.85 170.35 69.86 168.19 71.23 165.65C72.63 163.14 73.37 160.24 73.44 157.24C73.44 157.23 73.45 157.16 73.45 157.15C73.48 155.68 74.7 154.52 76.18 154.55C77.63 154.59 78.79 155.79 78.78 157.24C78.78 157.24 78.78 157.24 78.78 157.24C78.93 159.99 79.37 162.67 80.41 164.99C81.39 167.33 82.88 169.31 84.86 170.76C86.83 172.21 89.21 173.25 91.8 173.86C93.1 174.17 94.43 174.39 95.8 174.52C97.22 174.65 98.43 174.71 100.01 174.7C101.32 174.71 102.76 174.66 104.09 174.52C105.45 174.38 106.78 174.14 108.06 173.82C110.64 173.17 113 172.08 115.02 170.61C117.03 169.12 118.61 167.15 119.67 164.86C120.77 162.58 121.29 159.95 121.44 157.24C121.79 157.24 123.57 157.24 126.77 157.24C126.77 157.24 126.77 157.24 126.77 157.24C126.85 159.72 127.29 162.15 128.2 164.35C129.12 166.54 130.43 168.53 132.12 170.18C135.52 173.48 140.25 175.42 145.22 176.21C146.47 176.41 147.74 176.54 149.02 176.63C149.66 176.65 150.21 176.69 150.91 176.69C150.98 176.69 151.32 176.69 151.95 176.7C152.5 176.69 152.8 176.68 152.86 176.68C155.4 176.61 157.93 176.31 160.35 175.7C165.19 174.54 169.66 172.12 172.67 168.6C174.17 166.84 175.26 164.81 175.9 162.61C176.22 161.54 176.43 160.3 176.51 159.26C176.6 157.94 176.59 156.92 176.43 155.81C175.86 151.45 172.76 147.58 168.7 144.64C164.63 141.68 159.76 139.5 154.74 137.76C149.7 136.03 144.45 134.74 139.13 133.73C128.48 131.74 117.56 130.81 106.64 130.5C101.19 130.34 95.68 130.37 90.21 130.54C84.73 130.7 79.27 130.99 73.83 131.48C68.4 131.97 62.99 132.64 57.67 133.61C52.36 134.58 47.11 135.86 42.15 137.65C37.2 139.45 32.46 141.8 28.86 145.08C27.08 146.72 25.62 148.59 24.67 150.64C24.19 151.67 23.83 152.74 23.6 153.85C23.48 154.4 23.4 154.97 23.34 155.53C23.33 155.59 23.31 155.85 23.28 156.31C23.27 156.82 23.26 157.14 23.26 157.27ZM16.59 157.18L16.62 156.15C16.68 155.37 16.72 154.94 16.72 154.86C16.82 154.05 16.94 153.25 17.12 152.45C17.47 150.86 18 149.29 18.71 147.82C20.11 144.87 22.18 142.33 24.48 140.26C29.14 136.11 34.58 133.59 40 131.65C45.45 129.73 51.01 128.46 56.57 127.47C62.14 126.49 67.72 125.83 73.3 125.36C78.89 124.89 84.47 124.63 90.05 124.5C95.63 124.38 101.18 124.34 106.79 124.46C117.96 124.71 129.16 125.59 140.27 127.6C145.82 128.62 151.35 129.9 156.79 131.72C162.21 133.56 167.6 135.85 172.53 139.36C174.97 141.12 177.3 143.22 179.21 145.81C181.11 148.38 182.55 151.51 183.03 154.82C183.29 156.45 183.29 158.21 183.19 159.64C183.08 161.36 182.81 162.86 182.36 164.45C181.49 167.57 179.92 170.51 177.84 172.97C173.66 177.94 167.79 180.83 161.93 182.23C158.98 182.94 155.98 183.29 152.99 183.32C152.6 183.32 152.28 183.34 151.84 183.32C151.73 183.32 150.9 183.3 150.8 183.3C150.11 183.28 149.29 183.22 148.55 183.17C147.07 183.04 145.59 182.86 144.11 182.59C141.16 182.04 138.23 181.16 135.43 179.84C132.66 178.5 130.02 176.7 127.83 174.4C125.64 172.11 123.91 169.35 122.86 166.37C121.79 163.4 121.39 160.28 121.44 157.24C121.44 157.24 121.44 157.24 121.44 157.24C121.35 155.77 122.46 154.5 123.93 154.41C125.4 154.32 126.66 155.43 126.76 156.9C126.76 156.9 126.76 156.92 126.76 156.93C126.77 157.12 126.77 157.22 126.77 157.24C126.92 160.53 126.45 163.96 125.17 167.21C123.87 170.45 121.68 173.42 118.93 175.62C116.2 177.85 112.96 179.27 109.73 180.15C108.11 180.59 106.47 180.89 104.83 181.08C103.18 181.27 101.61 181.36 99.91 181.37C98.48 181.36 96.68 181.26 95.11 181.09C93.49 180.91 91.85 180.62 90.23 180.21C87 179.39 83.71 178.03 80.94 175.76C78.14 173.53 76.01 170.44 74.83 167.17C73.66 163.87 73.3 160.48 73.44 157.24C73.44 157.24 73.44 157.24 73.44 157.24C76.64 157.24 78.42 157.24 78.78 157.24C78.87 160.97 78.12 164.85 76.41 168.32C74.7 171.79 72.07 174.78 69.01 177.03C65.95 179.29 62.46 180.83 58.92 181.83C55.36 182.81 51.71 183.28 48.1 183.34C46.34 183.36 44.43 183.26 42.62 183.04C40.79 182.82 38.97 182.47 37.18 181.98C33.6 181.01 30.11 179.46 26.98 177.24C23.88 175.01 21.17 172.06 19.33 168.57C17.48 165.09 16.56 161.12 16.59 157.27C16.59 157.26 16.59 157.23 16.59 157.22C16.59 157.21 16.59 157.19 16.59 157.18" id="bqs3YacFw"></path><path d="M79.61 55.56C90.26 49.9 104.18 46.48 119.41 46.48C152.92 46.48 180.07 63.05 180.07 83.5C180.07 118.55 144.26 146.96 100.08 146.96C55.91 146.96 20.09 118.55 20.09 83.5C20.09 48.45 55.91 20.03 100.08 20.03C100.1 20.03 100.23 20.03 100.25 20.03C136.79 20.03 167.41 37.22 165.74 59.17" id="d4eFH4bxYu"></path><path d="M78.7 53.78C78.7 53.78 79.17 53.53 80.07 53.04C80.95 52.57 82.44 51.81 84.29 50.99C88.01 49.3 93.69 47.25 101.15 45.72C104.89 44.96 109.07 44.35 113.64 44.02C115.94 43.87 118.31 43.76 120.8 43.79C121.41 43.79 122.02 43.79 122.63 43.8C123.27 43.82 123.92 43.84 124.57 43.87C125.88 43.89 127.17 44.01 128.49 44.09C133.79 44.52 139.42 45.35 145.22 46.91C151.01 48.43 157.01 50.66 162.82 53.99C165.73 55.66 168.58 57.6 171.27 59.92C173.96 62.23 176.48 64.93 178.56 68.11C180.66 71.26 182.25 74.95 182.99 78.93C183.14 79.93 183.31 80.93 183.35 81.95C183.35 82.05 183.37 82.57 183.41 83.49C183.38 84.36 183.37 84.84 183.37 84.94C183.36 86.65 183.16 88.72 182.93 90.68C181.92 98.38 179.15 106.02 174.95 112.93C170.72 119.84 165.09 125.97 158.6 131.15C145.5 141.41 129.02 147.75 111.88 149.63C107.59 150.14 103.3 150.29 98.9 150.27C98.69 150.27 97.64 150.24 95.74 150.2C93.76 150.08 92.66 150.02 92.44 150C91.32 149.95 90.26 149.8 89.17 149.71C88.08 149.61 87 149.48 85.92 149.31C77.27 148.18 68.74 145.79 60.64 142.36C52.58 138.86 44.96 134.2 38.33 128.36C31.7 122.53 26.1 115.43 22.28 107.45C18.45 99.48 16.53 90.61 16.81 81.89C17.03 73.19 19.45 64.67 23.4 57.25C27.36 49.81 32.77 43.44 38.78 38.17C44.84 32.94 51.51 28.75 58.38 25.58C65.24 22.36 72.31 20.19 79.25 18.73C86.2 17.33 93.05 16.7 99.62 16.66C112.7 16.6 124.7 18.66 134.85 22.11C139.93 23.84 144.56 25.92 148.64 28.28C152.7 30.67 156.21 33.34 159.06 36.16C164.83 41.77 167.52 48.13 168.2 52.54C168.56 54.76 168.58 56.48 168.53 57.63C168.48 58.78 168.4 59.37 168.4 59.37C168.4 59.38 168.39 59.46 168.39 59.47C168.19 60.92 166.85 61.95 165.39 61.75C164.01 61.56 163.02 60.33 163.08 58.97C163.08 58.97 163.11 58.5 163.07 57.6C163.03 56.7 162.95 55.36 162.55 53.67C162.14 51.99 161.44 49.95 160.17 47.72C158.91 45.5 157.04 43.14 154.57 40.78C152.1 38.43 148.99 36.13 145.31 34.06C141.64 31.95 137.41 30.04 132.7 28.45C123.3 25.28 112 23.34 99.65 23.42C93.5 23.47 87.1 24.08 80.62 25.4C74.16 26.78 67.59 28.81 61.24 31.76C54.88 34.67 48.75 38.52 43.22 43.27C37.73 48.07 32.87 53.81 29.33 60.41C25.81 67.01 23.69 74.44 23.47 82.1C23.23 89.73 24.9 97.51 28.3 104.57C31.68 111.65 36.69 118.05 42.74 123.36C48.79 128.69 55.8 132.99 63.28 136.24C70.79 139.42 78.74 141.65 86.83 142.71C87.84 142.87 88.85 142.99 89.86 143.08C90.87 143.16 91.9 143.31 92.9 143.35C93.1 143.37 94.09 143.43 95.89 143.54C97.78 143.58 98.83 143.6 99.04 143.61C103.04 143.62 107.14 143.47 111.13 142.98C127.15 141.2 142.45 135.21 154.39 125.83C160.33 121.11 165.43 115.57 169.21 109.42C172.96 103.26 175.4 96.55 176.31 89.8C176.49 88.14 176.68 86.6 176.7 84.72C176.7 84.64 176.71 84.23 176.74 83.49C176.71 82.8 176.69 82.42 176.69 82.34C176.67 81.58 176.54 80.83 176.44 80.08C175.92 77.09 174.76 74.23 173.09 71.66C169.79 66.46 164.81 62.47 159.67 59.41C154.47 56.37 149 54.17 143.63 52.63C138.27 51.06 132.99 50.17 128 49.65C117.99 48.68 109.16 49.27 102.05 50.5C94.93 51.72 89.53 53.53 85.95 54.94C84.12 55.65 82.87 56.22 81.92 56.67C80.99 57.11 80.51 57.34 80.51 57.34C79.52 57.82 78.32 57.4 77.85 56.41C77.38 55.44 77.77 54.28 78.7 53.78" id="a7XObxLZF"></path><path d="M116.08 34.97C116.08 37.38 113.62 39.34 110.58 39.34C107.54 39.34 105.08 37.38 105.08 34.97C105.08 32.56 107.54 30.61 110.58 30.61C113.62 30.61 116.08 32.56 116.08 34.97" id="cFU8PpA2h"></path><path d="M134.41 36.16C134.41 38.5 132.02 40.39 129.08 40.39C126.13 40.39 123.75 38.5 123.75 36.16C123.75 33.83 126.13 31.93 129.08 31.93C132.02 31.93 134.41 33.83 134.41 36.16" id="auKsXhwez"></path><path d="M126.09 95.91C126.09 110.27 114.45 121.91 100.09 121.91C85.74 121.91 74.1 110.27 74.1 95.91C74.1 81.56 85.74 69.92 100.09 69.92C114.45 69.92 126.09 81.56 126.09 95.91" id="bvN8z93Ea"></path><path d="M100.09 121.91C85.74 121.91 74.1 110.27 74.1 95.91C74.1 81.56 85.74 69.92 100.09 69.92C114.45 69.92 126.09 81.56 126.09 95.91C126.09 110.27 114.45 121.91 100.09 121.91Z" id="a13bOTLmzk"></path><path d="M110.09 94.77C110.09 100.29 105.62 104.77 100.09 104.77C94.57 104.77 90.1 100.29 90.1 94.77C90.1 89.25 94.57 84.77 100.09 84.77C105.62 84.77 110.09 89.25 110.09 94.77" id="a6daAfYza"></path></defs><g><g><g><use xlink:href="#b9w5WO8OIP" opacity="1" fill="#ffffff" fill-opacity="1"></use><g><use xlink:href="#b9w5WO8OIP" opacity="1" fill-opacity="0" stroke="#000000" stroke-width="1" stroke-opacity="0"></use></g></g><g><use xlink:href="#bqs3YacFw" opacity="1" fill="#1d1d1b" fill-opacity="1"></use><g><use xlink:href="#bqs3YacFw" opacity="1" fill-opacity="0" stroke="#000000" stroke-width="1" stroke-opacity="0"></use></g></g><g><use xlink:href="#d4eFH4bxYu" opacity="1" fill="#ffffff" fill-opacity="1"></use><g><use xlink:href="#d4eFH4bxYu" opacity="1" fill-opacity="0" stroke="#000000" stroke-width="1" stroke-opacity="0"></use></g></g><g><use xlink:href="#a7XObxLZF" opacity="1" fill="#1d1d1b" fill-opacity="1"></use><g><use xlink:href="#a7XObxLZF" opacity="1" fill-opacity="0" stroke="#000000" stroke-width="1" stroke-opacity="0"></use></g></g><g><use xlink:href="#cFU8PpA2h" opacity="1" fill="#1d1d1b" fill-opacity="1"></use><g><use xlink:href="#cFU8PpA2h" opacity="1" fill-opacity="0" stroke="#000000" stroke-width="1" stroke-opacity="0"></use></g></g><g><use xlink:href="#auKsXhwez" opacity="1" fill="#1d1d1b" fill-opacity="1"></use><g><use xlink:href="#auKsXhwez" opacity="1" fill-opacity="0" stroke="#000000" stroke-width="1" stroke-opacity="0"></use></g></g><g><use xlink:href="#bvN8z93Ea" opacity="1" fill="#ffffff" fill-opacity="1"></use><g><use xlink:href="#bvN8z93Ea" opacity="1" fill-opacity="0" stroke="#000000" stroke-width="1" stroke-opacity="0"></use></g></g><g><use xlink:href="#a13bOTLmzk" opacity="1" fill="#000000" fill-opacity="0"></use><g><use xlink:href="#a13bOTLmzk" opacity="1" fill-opacity="0" stroke="#1d1d1b" stroke-width="5" stroke-opacity="1"></use></g></g><g><use xlink:href="#a6daAfYza" opacity="1" fill="#1d1d1b" fill-opacity="1"></use><g><use xlink:href="#a6daAfYza" opacity="1" fill-opacity="0" stroke="#000000" stroke-width="1" stroke-opacity="0"></use></g></g></g></g></svg>