<?xml version="1.0" encoding="UTF-8" standalone="no"?>
<!DOCTYPE svg PUBLIC "-//W3C//DTD SVG 1.1//EN" "http://www.w3.org/Graphics/SVG/1.1/DTD/svg11.dtd">
<svg version="1.1" xmlns="http://www.w3.org/2000/svg" xmlns:xlink="http://www.w3.org/1999/xlink" preserveAspectRatio="xMidYMid meet" viewBox="0 0 200 200" width="200" height="200"><defs><path d="M79.52 64.8C90.17 57.67 104.09 53.35 119.32 53.35C152.82 53.35 179.98 74.25 179.98 100.02C179.98 144.19 144.17 180.01 99.99 180.01C55.81 180.01 20 144.19 20 100.02C20 55.84 55.81 20.02 99.99 20.02C100.01 20.02 100.14 20.02 100.16 20.02C136.7 20.02 167.32 41.69 165.65 69.35" id="aG3n99pyS"></path><path d="M78.47 63.1C78.47 63.1 78.96 62.79 79.91 62.18C80.89 61.59 82.16 60.61 84.25 59.57C88.25 57.29 94.28 54.6 102.49 52.69C106.6 51.85 111.2 51.01 116.27 50.84C117.54 50.79 118.8 50.66 120.17 50.69C121.44 50.7 122.73 50.71 124.14 50.8C126.93 50.91 129.72 51.22 132.63 51.65C138.43 52.57 144.54 54.16 150.64 56.79C156.73 59.41 162.86 63.03 168.3 68.06C173.72 73.06 178.47 79.53 181.15 87.27C182.46 91.13 183.21 95.29 183.3 99.52C183.3 99.55 183.3 99.68 183.31 99.92L183.31 100.19L183.31 100.38L183.29 101.11C183.27 101.98 183.26 102.47 183.25 102.57C183.24 103.54 183.21 104.52 183.11 105.59C183.03 106.63 182.95 107.68 182.87 108.73C182.74 109.75 182.61 110.78 182.48 111.81C181.87 115.93 181.03 120.08 179.77 124.16C178.52 128.25 176.96 132.29 175.08 136.24C171.24 144.09 166.17 151.59 159.81 158.08C147.21 171.14 129.62 180.34 110.65 182.65C108.28 182.98 105.9 183.13 103.51 183.25C103.27 183.26 102.04 183.29 99.84 183.34C97.77 183.28 96.62 183.25 96.39 183.25C91.53 183.03 86.74 182.4 82.03 181.38C72.59 179.35 63.52 175.54 55.34 170.35C38.93 160.03 26.47 143.72 20.67 125.55C14.82 107.37 15.55 87.6 22 70.6C28.4 53.56 40.23 39.45 54.17 30.34C68.1 21.13 83.93 16.84 98.43 16.68C112.9 16.42 126.15 19.47 136.91 24.42C142.3 26.89 147.06 29.86 151.11 33.11C155.14 36.37 158.41 39.95 160.96 43.49C163.53 47.03 165.21 50.63 166.35 53.85C167.51 57.07 168.02 59.97 168.26 62.31C168.31 62.9 168.36 63.45 168.41 63.97C168.42 64.49 168.44 64.97 168.45 65.42C168.48 66.32 168.47 67.07 168.42 67.68C168.35 68.89 168.31 69.51 168.31 69.51C168.23 70.98 166.97 72.1 165.5 72.01C164.1 71.93 163.02 70.78 162.99 69.41C162.99 69.39 162.99 69.21 162.99 69.19C162.99 69.19 162.98 68.65 162.96 67.61C162.97 67.09 162.93 66.45 162.86 65.69C162.83 65.3 162.8 64.89 162.77 64.45C162.7 64.01 162.63 63.55 162.55 63.05C161.95 59.13 160.26 53.35 155.74 47.27C151.27 41.22 143.97 35 134.11 30.5C124.3 26 112 23.17 98.56 23.44C85.21 23.6 70.73 27.61 57.92 36.03C45.1 44.37 34.2 57.33 28.28 72.97C25.34 80.78 23.6 89.22 23.39 97.81C23.09 106.43 24.36 115.15 27.01 123.51C32.35 140.21 43.81 155.23 58.92 164.73C66.44 169.5 74.78 173.01 83.46 174.87C87.8 175.81 92.21 176.38 96.56 176.59C96.79 176.59 97.94 176.62 100.01 176.67C101.94 176.62 103.02 176.59 103.23 176.59C105.43 176.47 107.63 176.33 109.8 176.02C127.24 173.87 143.37 165.38 154.94 153.35C160.81 147.4 165.47 140.51 169.02 133.31C170.75 129.69 172.19 125.97 173.35 122.22C174.51 118.47 175.29 114.66 175.86 110.87C175.98 109.92 176.1 108.98 176.22 108.03C176.3 107.11 176.37 106.18 176.45 105.26C176.54 104.36 176.57 103.39 176.59 102.4C176.59 102.3 176.6 101.82 176.62 100.94L176.64 100.21C176.65 100.1 176.65 100.04 176.65 100.03C176.65 99.89 176.65 100.01 176.65 99.94C176.65 99.9 176.64 99.64 176.64 99.61C176.6 96.08 176.02 92.61 174.96 89.35C172.78 82.81 168.77 77.14 164.01 72.65C159.23 68.15 153.76 64.75 148.24 62.24C142.71 59.72 137.09 58.13 131.72 57.17C129.04 56.71 126.38 56.37 123.88 56.22C122.65 56.11 121.34 56.08 120.06 56.04C118.88 55.99 117.64 56.07 116.46 56.08C111.71 56.11 107.39 56.78 103.51 57.45C95.8 58.99 89.98 61.46 86.33 63.31C84.46 64.13 83.01 65.12 82.04 65.65C81.06 66.22 80.56 66.51 80.56 66.51C79.61 67.07 78.38 66.75 77.83 65.79C77.28 64.87 77.58 63.68 78.47 63.1" id="aOMMRsR8v"></path><path d="M115.99 38.86C115.99 41.89 113.53 44.35 110.49 44.35C107.45 44.35 104.99 41.89 104.99 38.86C104.99 35.82 107.45 33.36 110.49 33.36C113.53 33.36 115.99 35.82 115.99 38.86" id="bNzsaQh6R"></path><path d="M134.32 40.35C134.32 43.3 131.93 45.69 128.99 45.69C126.04 45.69 123.66 43.3 123.66 40.35C123.66 37.41 126.04 35.02 128.99 35.02C131.93 35.02 134.32 37.41 134.32 40.35" id="gxjugC5Ah"></path><path d="M47.99 161.01C73.82 134.76 88.18 120.19 91.05 117.27C92.21 116.09 94.11 116.08 95.29 117.24C96.47 118.4 96.48 120.3 95.32 121.48C95.31 121.49 95.29 121.51 95.28 121.52C90.9 125.81 55.84 160.18 51.46 164.48C50.49 165.43 48.94 165.41 47.99 164.45C47.05 163.49 47.06 161.96 47.99 161.01" id="c3v55Lzfpb"></path><path d="M31.25 141.7C31.25 141.7 39.61 133.17 52.14 120.38C55.29 117.2 58.7 113.75 62.31 110.1C64.11 108.28 65.96 106.4 67.86 104.49C68.81 103.53 69.76 102.56 70.73 101.59C70.78 101.54 71.02 101.29 71.46 100.86C71.94 100.39 72.2 100.13 72.26 100.08C72.71 99.63 73.37 99.06 73.98 98.54C78.78 94.61 85.08 92.11 91.64 91.96C98.18 91.75 104.92 93.93 110.13 98.14C111.41 99.17 112.68 100.4 113.69 101.57C114.86 102.9 115.79 104.2 116.65 105.65C118.35 108.52 119.53 111.67 120.13 114.89C121.34 121.35 120.21 128.03 117.32 133.54C115.89 136.31 114.02 138.78 111.92 140.88C110 142.77 108.12 144.62 106.3 146.42C102.64 150.01 99.18 153.41 95.99 156.55C89.62 162.85 84.24 168.02 80.5 171.67C76.75 175.31 74.61 177.39 74.61 177.39C73.66 178.31 72.14 178.29 71.22 177.34C70.31 176.4 70.32 174.92 71.22 173.99C71.22 173.99 73.3 171.85 76.95 168.11C80.61 164.38 85.79 159.01 92.1 152.65C95.24 149.47 98.65 146.02 102.25 142.37C104.06 140.54 105.91 138.67 107.81 136.76C109.51 135.04 110.99 133.07 112.12 130.85C114.41 126.44 115.27 121.1 114.29 115.99C113.81 113.43 112.87 110.96 111.53 108.71C110.87 107.6 110.04 106.49 109.24 105.58C108.3 104.51 107.41 103.65 106.38 102.8C102.29 99.48 97 97.73 91.79 97.87C86.56 97.97 81.53 99.93 77.67 103.07C75.84 104.58 73.86 106.73 71.93 108.57C70.01 110.46 68.14 112.31 66.31 114.11C62.65 117.71 59.2 121.11 56.01 124.25C43.19 136.76 34.64 145.1 34.64 145.1C33.69 146.02 32.18 146.01 31.25 145.06C30.34 144.12 30.34 142.63 31.25 141.7" id="b9nFrumsp"></path></defs><g><g><g><use xlink:href="#aG3n99pyS" opacity="1" fill="#ffffff" fill-opacity="1"></use><g><use xlink:href="#aG3n99pyS" opacity="1" fill-opacity="0" stroke="#000000" stroke-width="1" stroke-opacity="0"></use></g></g><g><use xlink:href="#aOMMRsR8v" opacity="1" fill="#1d1d1b" fill-opacity="1"></use><g><use xlink:href="#aOMMRsR8v" opacity="1" fill-opacity="0" stroke="#000000" stroke-width="1" stroke-opacity="0"></use></g></g><g><use xlink:href="#bNzsaQh6R" opacity="1" fill="#1d1d1b" fill-opacity="1"></use><g><use xlink:href="#bNzsaQh6R" opacity="1" fill-opacity="0" stroke="#000000" stroke-width="1" stroke-opacity="0"></use></g></g><g><use xlink:href="#gxjugC5Ah" opacity="1" fill="#1d1d1b" fill-opacity="1"></use><g><use xlink:href="#gxjugC5Ah" opacity="1" fill-opacity="0" stroke="#000000" stroke-width="1" stroke-opacity="0"></use></g></g><g><use xlink:href="#c3v55Lzfpb" opacity="1" fill="#1d1d1b" fill-opacity="1"></use><g><use xlink:href="#c3v55Lzfpb" opacity="1" fill-opacity="0" stroke="#000000" stroke-width="1" stroke-opacity="0"></use></g></g><g><use xlink:href="#b9nFrumsp" opacity="1" fill="#1d1d1b" fill-opacity="1"></use><g><use xlink:href="#b9nFrumsp" opacity="1" fill-opacity="0" stroke="#000000" stroke-width="1" stroke-opacity="0"></use></g></g></g></g></svg>