<?xml version="1.0" encoding="UTF-8" standalone="no"?>
<!DOCTYPE svg PUBLIC "-//W3C//DTD SVG 1.1//EN" "http://www.w3.org/Graphics/SVG/1.1/DTD/svg11.dtd">
<svg version="1.1" xmlns="http://www.w3.org/2000/svg" xmlns:xlink="http://www.w3.org/1999/xlink" preserveAspectRatio="xMidYMid meet" viewBox="0 0 200 200" width="200" height="200"><defs><path d="M146.01 165.2C146.01 173.37 139.15 179.99 130.69 179.99C122.23 179.99 115.37 173.37 115.37 165.2C115.37 173.37 108.51 178.93 100.05 178.93C91.6 178.93 84.74 173.37 84.74 165.2C84.74 173.37 77.88 179.99 69.42 179.99C60.96 179.99 54.1 173.37 54.1 165.2C54.16 164.41 54.62 158.09 54.67 157.3C54.67 134.83 74.98 127.42 100.15 127.42C125.32 127.42 145.83 137.47 145.83 157.82C145.87 159.29 145.97 163.72 146.01 165.2Z" id="a7pdlJR8p"></path><path d="M142.53 166.45L142.52 165.28C142.45 160.4 142.41 157.69 142.4 157.15C142.37 154.75 141.99 152.41 141.28 150.17C140.56 147.94 139.45 145.85 138.03 143.93C136.61 142.02 134.83 140.33 132.87 138.82C128.93 135.81 124.16 133.68 119.18 132.25C114.19 130.78 108.91 130.12 103.67 129.86C98.37 129.62 93.01 129.86 87.8 130.57C85.19 130.93 82.62 131.45 80.11 132.12C77.61 132.79 75.17 133.62 72.87 134.68C68.26 136.76 64.28 139.8 61.69 143.7C59.14 147.62 58.02 152.37 58.09 157.3C58.09 157.31 58.09 157.37 58.08 157.47L58.08 157.55L57.58 165.45C57.59 165.3 57.59 165.22 57.59 165.2C57.63 168.19 58.87 171.11 61.09 173.21C62.19 174.25 63.47 175.13 64.9 175.71C65.61 176.01 66.35 176.24 67.1 176.39C67.48 176.47 67.88 176.53 68.24 176.58C68.28 176.58 68.45 176.6 68.76 176.63C69.16 176.64 69.38 176.65 69.42 176.66C72.55 176.76 75.7 175.69 78.16 173.64C79.38 172.62 80.44 171.36 81.22 169.93C82.03 168.51 82.51 166.9 82.74 165.2C82.74 165.15 82.79 164.79 82.8 164.75C82.94 163.66 83.94 162.9 85.03 163.05C86.08 163.19 86.83 164.15 86.74 165.2C86.74 165.2 86.74 165.2 86.74 165.21C86.96 166.86 87.42 168.39 88.19 169.73C88.94 171.08 89.98 172.23 91.2 173.16C92.43 174.07 93.83 174.8 95.34 175.24C96.09 175.47 96.87 175.66 97.66 175.77C98.05 175.83 98.46 175.87 98.84 175.89C98.88 175.9 99.07 175.9 99.4 175.92C99.8 175.93 100.01 175.93 100.06 175.93C103.29 175.95 106.47 175.01 108.91 173.15C110.13 172.22 111.17 171.07 111.92 169.72C112.69 168.38 113.15 166.85 113.37 165.2C113.38 165.15 113.43 164.8 113.43 164.75C113.58 163.67 114.58 162.91 115.66 163.05C116.72 163.19 117.47 164.15 117.37 165.2C117.37 165.2 117.37 165.2 117.37 165.2C117.58 166.9 118.05 168.52 118.86 169.95C119.62 171.4 120.67 172.67 121.92 173.68C123.17 174.69 124.56 175.5 126.06 175.99C126.81 176.23 127.57 176.43 128.35 176.54C128.73 176.59 129.14 176.63 129.51 176.65C129.54 176.65 129.72 176.66 130.03 176.66C130.43 176.66 130.65 176.66 130.69 176.66C133.82 176.57 136.81 175.28 139.01 173.2C140.11 172.16 141 170.91 141.61 169.55C141.93 168.87 142.18 168.16 142.35 167.43C142.43 167.11 142.48 166.78 142.53 166.45M149.24 157.68L149.34 165.29L149.35 166.03C149.32 166.62 149.31 166.95 149.31 167.01C149.25 167.63 149.17 168.23 149.06 168.83C148.83 170.03 148.48 171.21 148.01 172.34C147.04 174.59 145.6 176.62 143.84 178.29C142.09 179.98 139.98 181.25 137.74 182.12C135.48 182.97 133.07 183.36 130.69 183.32C130.64 183.32 130.37 183.3 129.87 183.28C129.3 183.22 128.99 183.2 128.93 183.19C128.32 183.11 127.74 183.02 127.16 182.89C126 182.64 124.86 182.28 123.77 181.81C121.61 180.86 119.61 179.52 118 177.81C116.38 176.12 115.11 174.12 114.29 171.95C113.52 169.77 113.17 167.45 113.37 165.21C113.37 165.2 113.37 165.2 113.37 165.2C115.77 165.2 117.11 165.2 117.37 165.2C117.6 167.37 117.28 169.68 116.44 171.81C115.59 173.94 114.21 175.88 112.49 177.41C110.79 178.96 108.75 180.07 106.63 180.83C104.5 181.57 102.27 181.91 100.06 181.93C100.01 181.93 99.75 181.92 99.28 181.91C98.76 181.88 98.47 181.86 98.41 181.85C97.84 181.8 97.3 181.74 96.74 181.65C95.64 181.47 94.55 181.21 93.49 180.83C91.37 180.08 89.33 178.96 87.63 177.41C85.91 175.89 84.53 173.95 83.68 171.82C82.83 169.68 82.51 167.38 82.74 165.21C82.74 165.21 82.74 165.2 82.74 165.2C85.14 165.2 86.47 165.2 86.74 165.2C86.97 167.44 86.62 169.77 85.86 171.96C85.06 174.14 83.79 176.16 82.15 177.85C80.53 179.55 78.53 180.89 76.35 181.84C74.17 182.77 71.79 183.26 69.42 183.32C69.36 183.32 69.09 183.32 68.6 183.31C68.03 183.28 67.71 183.27 67.64 183.26C67.03 183.21 66.45 183.14 65.86 183.03C64.68 182.83 63.51 182.51 62.39 182.08C60.15 181.23 58.04 179.95 56.27 178.28C54.51 176.62 53.07 174.6 52.08 172.35C51.08 170.11 50.59 167.64 50.61 165.2C50.61 165.19 50.61 165.14 50.61 165.13C50.61 165.07 50.62 165.01 50.62 164.95C50.67 164.42 50.88 161.79 51.27 157.05C51.26 157.2 51.26 157.28 51.26 157.3C51.29 154.34 51.64 151.32 52.47 148.38C53.31 145.44 54.65 142.6 56.43 140.08C58.21 137.56 60.44 135.39 62.88 133.65C65.32 131.89 67.97 130.55 70.67 129.49C76.07 127.36 81.66 126.31 87.21 125.73C92.77 125.13 98.28 125 103.83 125.15C109.42 125.32 114.97 126.02 120.48 127.32C125.96 128.67 131.41 130.72 136.3 134.04C138.74 135.7 141.03 137.69 142.95 140.05C144.87 142.41 146.45 145.1 147.53 147.99C148.58 150.89 149.1 153.96 149.21 156.98C149.21 157.07 149.22 157.31 149.24 157.68Z" id="ddp0LqQrP"></path><path d="M59.34 122.33C59.34 107.72 77.54 95.88 100 95.88C122.46 95.88 140.66 107.72 140.66 122.33C140.66 136.94 122.46 148.79 100 148.79C77.54 148.79 59.34 136.94 59.34 122.33" id="da8nU5WAx"></path><path d="M62.34 122.38C62.36 122.54 62.41 123.2 62.52 124.31C62.58 124.95 62.85 125.72 63.04 126.64C63.19 127.08 63.41 127.55 63.61 128.06C63.71 128.31 63.82 128.57 63.92 128.84C64.07 129.1 64.22 129.36 64.38 129.63C65.55 131.81 67.52 134.29 70.44 136.54C73.33 138.8 77.08 140.87 81.48 142.44C82.59 142.81 83.74 143.14 84.9 143.51C86.09 143.79 87.3 144.08 88.54 144.37C89.79 144.57 91.07 144.78 92.36 144.99C93.65 145.1 94.9 145.25 96.26 145.35C96.97 145.37 97.7 145.39 98.42 145.41C98.49 145.41 98.86 145.42 99.51 145.44C99.84 145.45 100.02 145.46 100.06 145.46C100.18 145.46 99.97 145.46 100.02 145.46C100.02 145.46 100.04 145.46 100.08 145.45L100.21 145.45C100.37 145.45 100.45 145.44 100.47 145.44C101.86 145.38 103.27 145.42 104.69 145.28C106.1 145.12 107.55 145.08 108.97 144.8C109.68 144.69 110.4 144.57 111.12 144.46C111.84 144.34 112.55 144.14 113.27 143.98C116.15 143.37 118.96 142.37 121.73 141.22C124.46 140 127.06 138.49 129.45 136.7C131.76 134.85 133.82 132.69 135.29 130.25C136.05 129.06 136.59 127.7 137.01 126.45C137.13 125.82 137.34 125.31 137.46 124.59C137.48 124.34 137.65 122.35 137.67 122.1C137.65 122.54 137.66 122.19 137.66 122.27C137.66 122.26 137.65 122.24 137.65 122.2L137.64 122.07L137.62 121.82L137.58 121.3C137.54 120.68 137.52 120.33 137.51 120.27C137.41 119.58 137.21 118.91 137.08 118.23C136.66 116.9 136.15 115.58 135.4 114.35C133.95 111.87 131.91 109.67 129.6 107.77C127.22 105.94 124.62 104.37 121.88 103.1C119.11 101.91 116.28 100.86 113.38 100.2C112.66 100.04 111.95 99.83 111.22 99.7C110.5 99.57 109.77 99.45 109.05 99.32C107.6 99.02 106.21 98.96 104.81 98.78C103.42 98.62 101.85 98.64 100.41 98.56C99.14 98.54 97.65 98.65 96.31 98.68C90.84 99.02 85.75 100.12 81.31 101.74C76.87 103.35 73.1 105.5 70.22 107.86C67.32 110.19 65.38 112.73 64.24 114.96C64.09 115.23 63.94 115.5 63.79 115.76C63.69 116.03 63.59 116.3 63.5 116.56C63.31 117.07 63.09 117.56 62.96 117.99C62.87 118.41 62.79 118.79 62.7 119.14C62.63 119.52 62.49 119.73 62.49 120.18C62.41 121.31 62.36 122.05 62.34 122.38M56.55 119.72C56.55 119.37 56.73 118.75 56.84 118.19C56.98 117.61 57.14 116.97 57.3 116.29C57.51 115.64 57.79 115.02 58.07 114.31C58.21 113.97 58.35 113.61 58.5 113.25C58.7 112.9 58.89 112.55 59.1 112.19C60.66 109.27 63.21 106.14 66.69 103.44C70.16 100.72 74.49 98.35 79.46 96.58C84.42 94.81 90.02 93.66 95.99 93.33C97.51 93.29 98.92 93.21 100.59 93.22C102.08 93.29 103.49 93.25 105.09 93.4C106.68 93.56 108.33 93.63 109.89 93.93C110.68 94.06 111.48 94.19 112.28 94.32C113.08 94.45 113.87 94.67 114.67 94.85C117.87 95.54 121.04 96.65 124.18 97.97C127.3 99.36 130.32 101.11 133.16 103.25C138.67 107.66 143.63 114.06 143.65 122.56C143.63 122.81 143.49 124.81 143.47 125.06C143.35 125.98 143.08 127.07 142.85 128.07C142.27 129.98 141.55 131.73 140.57 133.36C138.65 136.62 136.09 139.34 133.32 141.61C130.48 143.8 127.45 145.59 124.33 147.03C121.19 148.4 118 149.56 114.78 150.29C113.98 150.48 113.18 150.71 112.38 150.85C111.57 150.99 110.77 151.13 109.98 151.27C108.38 151.6 106.78 151.68 105.21 151.87C103.64 152.04 102.07 152.02 100.52 152.1C100.5 152.1 100.41 152.11 100.23 152.11L100.09 152.12L100.02 152.12L99.84 152.12L99.29 152.1C98.64 152.07 98.27 152.06 98.2 152.06C97.48 152.03 96.76 152.01 96.04 151.98C89.84 151.6 84.32 150.39 79.28 148.57C74.28 146.76 69.93 144.3 66.48 141.5C63 138.72 60.49 135.51 58.95 132.55C58.76 132.18 58.56 131.83 58.38 131.48C58.23 131.11 58.09 130.75 57.95 130.4C57.69 129.69 57.41 129.04 57.22 128.42C56.93 127.12 56.62 126.04 56.53 125.13C56.4 123.31 56.34 122.33 56.34 122.33C56.33 122.29 56.33 122.24 56.34 122.19C56.35 122.1 56.42 121.27 56.55 119.72Z" id="a2wWxjsVeA"></path><path d="M59.34 94.75C59.34 80.14 77.54 68.3 100 68.3C122.46 68.3 140.66 80.14 140.66 94.75C140.66 109.37 122.46 121.21 100 121.21C77.54 121.21 59.34 109.37 59.34 94.75" id="c5GNM7Y5Y"></path><path d="M62.34 94.75C62.34 94.75 62.4 95.44 62.52 96.73C62.58 97.37 62.85 98.14 63.04 99.06C63.19 99.51 63.42 99.97 63.61 100.48C63.71 100.73 63.82 101 63.92 101.26C64.07 101.52 64.22 101.78 64.38 102.05C65.55 104.23 67.52 106.71 70.44 108.96C73.33 111.22 77.08 113.29 81.49 114.86C82.59 115.24 83.74 115.56 84.9 115.93C86.09 116.22 87.3 116.5 88.54 116.79C89.79 117 91.07 117.2 92.36 117.41C93.65 117.52 94.9 117.67 96.26 117.77C96.97 117.79 97.7 117.81 98.42 117.83C98.49 117.83 98.86 117.84 99.51 117.86C99.84 117.87 100.02 117.88 100.06 117.88C100.18 117.88 99.97 117.88 100.02 117.88C100.02 117.88 100.04 117.88 100.08 117.88L100.21 117.87C100.37 117.87 100.45 117.87 100.47 117.87C101.86 117.8 103.27 117.84 104.69 117.7C106.1 117.55 107.55 117.5 108.97 117.23C109.68 117.11 110.4 117 111.12 116.88C111.84 116.76 112.55 116.56 113.27 116.41C116.15 115.79 118.96 114.79 121.73 113.64C124.46 112.42 127.06 110.91 129.45 109.12C131.76 107.27 133.82 105.12 135.29 102.67C136.05 101.48 136.59 100.12 137.01 98.87C137.13 98.24 137.34 97.73 137.46 97.01C137.48 96.76 137.65 94.77 137.67 94.52C137.65 94.97 137.66 94.61 137.66 94.69C137.66 94.69 137.65 94.66 137.65 94.63L137.64 94.5L137.62 94.24L137.58 93.72C137.54 93.1 137.52 92.76 137.51 92.69C137.41 92 137.21 91.33 137.08 90.65C136.66 89.32 136.15 88 135.4 86.77C133.95 84.29 131.91 82.09 129.6 80.19C127.22 78.36 124.62 76.8 121.88 75.53C119.11 74.33 116.28 73.29 113.38 72.63C112.66 72.46 111.95 72.25 111.22 72.12C110.5 71.99 109.77 71.87 109.05 71.74C107.6 71.44 106.21 71.39 104.81 71.21C103.42 71.05 101.85 71.06 100.41 70.98C99.14 70.96 97.65 71.07 96.31 71.1C90.84 71.44 85.75 72.54 81.31 74.16C76.87 75.77 73.1 77.93 70.22 80.28C67.32 82.61 65.38 85.16 64.24 87.38C64.09 87.66 63.94 87.92 63.8 88.18C63.69 88.46 63.59 88.72 63.5 88.98C63.31 89.49 63.09 89.98 62.96 90.41C62.87 90.83 62.79 91.21 62.7 91.56C62.63 91.94 62.49 92.15 62.49 92.6C62.38 94.16 62.33 94.99 62.33 94.99C62.33 94.94 62.33 94.8 62.34 94.75ZM56.35 94.52C56.35 94.52 56.42 93.69 56.55 92.14C56.55 91.79 56.73 91.17 56.84 90.62C56.98 90.03 57.14 89.4 57.3 88.71C57.51 88.06 57.79 87.44 58.07 86.74C58.21 86.39 58.35 86.04 58.51 85.67C58.7 85.33 58.89 84.97 59.1 84.61C60.66 81.69 63.21 78.56 66.69 75.86C70.16 73.14 74.49 70.78 79.46 69C84.42 67.23 90.02 66.08 95.99 65.75C97.51 65.72 98.92 65.63 100.59 65.65C102.08 65.71 103.49 65.67 105.09 65.82C106.68 65.99 108.33 66.05 109.89 66.36C110.68 66.48 111.48 66.61 112.28 66.74C113.08 66.88 113.87 67.09 114.67 67.27C117.87 67.96 121.04 69.07 124.18 70.39C127.3 71.79 130.32 73.53 133.16 75.68C138.67 80.08 143.63 86.48 143.65 94.99C143.63 95.24 143.49 97.23 143.47 97.48C143.35 98.4 143.08 99.49 142.85 100.49C142.27 102.4 141.55 104.15 140.57 105.78C138.65 109.05 136.09 111.76 133.32 114.03C130.48 116.22 127.45 118.01 124.33 119.46C121.19 120.82 118 121.98 114.78 122.72C113.98 122.9 113.18 123.13 112.38 123.28C111.57 123.42 110.77 123.56 109.98 123.7C108.38 124.02 106.78 124.1 105.21 124.29C103.64 124.46 102.07 124.44 100.52 124.52C100.5 124.53 100.41 124.53 100.23 124.54L100.09 124.54L100.02 124.54L99.84 124.54L99.29 124.52C98.64 124.5 98.27 124.48 98.2 124.48C97.48 124.45 96.76 124.43 96.04 124.4C89.84 124.02 84.32 122.82 79.28 120.99C74.28 119.18 69.93 116.73 66.48 113.92C63 111.14 60.49 107.94 58.95 104.97C58.76 104.61 58.56 104.25 58.38 103.9C58.23 103.53 58.09 103.17 57.95 102.82C57.69 102.12 57.41 101.47 57.22 100.84C56.93 99.55 56.62 98.46 56.53 97.55C56.4 95.73 56.34 94.75 56.34 94.75C56.34 94.71 56.34 94.57 56.35 94.52Z" id="d2bZB611yV"></path><path d="M147.09 60.12C147.09 82.27 126.01 100.23 100 100.23C73.99 100.23 52.91 82.27 52.91 60.12C52.91 37.96 73.99 20.01 100 20.01C126.01 20.01 147.09 37.96 147.09 60.12" id="b1qTh3B9W"></path><path d="M144.09 60.12C144.09 60.12 144.02 59.14 143.9 57.31C143.9 56.39 143.61 55.29 143.38 53.98C143.23 52.65 142.64 51.22 142.18 49.58C140.96 46.39 139.05 42.62 135.92 38.94C132.82 35.26 128.54 31.7 123.22 28.92C122.55 28.57 121.88 28.22 121.19 27.87C120.49 27.56 119.77 27.29 119.04 26.99C118.31 26.71 117.6 26.36 116.84 26.13C116.08 25.89 115.31 25.66 114.53 25.42C113 24.87 111.35 24.64 109.72 24.25C108.08 23.9 106.46 23.81 104.79 23.55C103.9 23.49 102.95 23.47 102.03 23.42C101.93 23.42 101.47 23.4 100.63 23.37C100.2 23.35 99.97 23.34 99.92 23.34C99.76 23.34 100.03 23.34 99.98 23.34C99.97 23.34 99.94 23.34 99.89 23.34L99.73 23.35C99.53 23.36 99.42 23.36 99.4 23.36C98.51 23.4 97.61 23.43 96.72 23.47C96.27 23.49 95.81 23.49 95.36 23.52C95.23 23.54 94.15 23.68 94.02 23.69C93.11 23.81 92.21 23.92 91.3 24.03C90.39 24.19 89.5 24.41 88.59 24.59C86.76 24.91 85 25.56 83.19 26.08C76.11 28.57 69.25 32.75 64.2 38.72C61.72 41.71 59.51 45.01 58.15 48.68C57.73 49.56 57.55 50.53 57.23 51.45C57.09 51.92 56.92 52.38 56.8 52.85C56.79 52.94 56.7 53.4 56.55 54.22C56.4 55.04 56.31 55.5 56.29 55.59C56.25 55.82 56.19 56.03 56.16 56.29C56.16 56.34 56.14 56.61 56.11 57.09C55.99 59.01 55.92 60.08 55.91 60.29C55.92 59.97 55.91 60.26 55.92 60.21C55.92 60.22 55.92 60.25 55.92 60.3L55.93 60.48L55.95 60.85L55.99 61.58C56.04 62.46 56.07 62.95 56.07 63.05C56.06 64.03 56.35 64.98 56.48 65.95C56.5 66.1 56.7 67.25 56.73 67.4C56.84 67.87 57 68.34 57.14 68.81C57.45 69.74 57.62 70.71 58.03 71.6C59.36 75.3 61.54 78.64 64.01 81.67C69.03 87.74 75.9 92.03 83.03 94.61C84.85 95.16 86.62 95.84 88.47 96.18C89.38 96.37 90.29 96.61 91.19 96.77C92.09 96.89 92.98 97.01 93.87 97.13C94 97.15 95.06 97.3 95.2 97.32C95.66 97.36 96.15 97.37 96.62 97.4C97.58 97.44 98.53 97.49 99.47 97.53C99.51 97.53 99.71 97.54 100.06 97.56L100.73 97.53C101.53 97.49 101.98 97.47 102.07 97.46C102.95 97.42 103.84 97.39 104.71 97.33C111.69 96.65 118.1 94.62 123.46 91.77C128.83 88.94 133.12 85.28 136.19 81.52C139.29 77.76 141.15 73.93 142.33 70.71C142.77 69.06 143.34 67.57 143.46 66.33C143.66 65.06 143.94 64.1 143.93 63.02C144.04 61.01 144.09 59.94 144.09 59.94C144.09 59.98 144.09 60.08 144.09 60.12ZM150.08 60.29C150.08 60.29 150.01 61.36 149.88 63.37C149.88 64.31 149.56 65.77 149.28 67.37C149.06 69.03 148.41 70.69 147.83 72.65C146.41 76.44 144.14 80.87 140.53 85.14C136.93 89.4 132.03 93.47 126.02 96.62C120.01 99.77 112.89 101.97 105.19 102.67C104.22 102.74 103.25 102.76 102.28 102.8C102.18 102.81 101.69 102.83 100.81 102.86L100.07 102.89C99.57 102.88 99.3 102.87 99.24 102.87C98.3 102.83 97.35 102.79 96.39 102.76C95.91 102.73 95.44 102.73 94.95 102.69C94.79 102.67 93.56 102.53 93.41 102.51C92.38 102.38 91.34 102.25 90.3 102.12C89.27 101.94 88.28 101.7 87.26 101.49C85.21 101.13 83.23 100.42 81.21 99.82C73.25 97.02 65.48 92.3 59.62 85.39C56.74 81.93 54.18 78.06 52.55 73.72C52.07 72.67 51.83 71.53 51.46 70.43C51.29 69.87 51.1 69.32 50.96 68.76C50.93 68.59 50.68 67.22 50.65 67.05C50.47 65.9 50.15 64.77 50.13 63.6C50.12 63.49 50.09 62.91 50.02 61.86L49.96 60.99L49.94 60.55L49.92 60.33C49.92 60.27 49.92 60.23 49.92 60.23C49.92 60.11 49.91 60.33 49.92 59.94C49.93 59.73 49.99 58.66 50.09 56.73C50.12 56.25 50.13 55.98 50.14 55.93C50.16 55.65 50.22 55.34 50.27 55.04C50.29 54.92 50.39 54.32 50.57 53.25C50.76 52.18 50.87 51.58 50.89 51.46C51.03 50.88 51.21 50.34 51.37 49.78C51.73 48.68 51.96 47.52 52.44 46.47C54.03 42.1 56.57 38.19 59.43 34.69C65.26 27.68 73.04 22.85 81.05 19.96C83.08 19.33 85.08 18.59 87.14 18.21C88.16 17.99 89.18 17.73 90.19 17.55C91.22 17.41 92.24 17.27 93.26 17.14C93.41 17.12 94.63 16.95 94.78 16.93C95.29 16.89 95.8 16.88 96.3 16.85C97.31 16.8 98.32 16.75 99.32 16.7C99.34 16.7 99.47 16.7 99.69 16.69L99.88 16.68L99.97 16.68L100.21 16.68L100.91 16.71C101.75 16.75 102.22 16.77 102.31 16.78C103.25 16.82 104.16 16.85 105.11 16.92C107.08 17.2 109.1 17.36 110.96 17.76C112.81 18.2 114.66 18.49 116.4 19.12C117.28 19.39 118.15 19.67 119.01 19.94C119.88 20.21 120.69 20.61 121.52 20.93C122.34 21.28 123.16 21.6 123.95 21.96C124.73 22.36 125.5 22.76 126.26 23.15C132.33 26.35 137.23 30.52 140.79 34.87C144.38 39.22 146.6 43.71 147.99 47.53C148.54 49.49 149.17 51.21 149.36 52.79C149.61 54.36 149.92 55.67 149.91 56.77C150.03 58.95 150.09 60.12 150.09 60.12C150.09 60.15 150.08 60.26 150.08 60.29Z" id="arkRFgpT"></path><path d="M106.83 64.52C107.18 68.76 103.99 72.45 99.71 72.76C95.44 73.08 91.69 69.89 91.35 65.65C91.01 61.41 94.19 57.72 98.47 57.41C102.74 57.1 106.49 60.28 106.83 64.52" id="dRLhoRIEK"></path><path d="M120.26 63.38C119.96 63.07 119.68 62.74 119.38 62.44C118.56 61.63 117.72 60.84 116.84 60.09C115.09 58.58 113.25 57.19 111.31 56.01C109.38 54.82 107.36 53.82 105.28 53.14C104.24 52.81 103.19 52.53 102.14 52.38C101.61 52.28 101.07 52.25 100.57 52.2C100.49 52.2 99.92 52.17 99.84 52.17C99.61 52.16 99.25 52.18 98.97 52.19C97.95 52.22 96.87 52.36 95.83 52.61C94.79 52.84 93.75 53.17 92.74 53.59C90.71 54.41 88.77 55.56 86.94 56.9C85.11 58.24 83.39 59.78 81.79 61.45C80.99 62.28 80.22 63.15 79.48 64.04C78.76 64.92 78.02 65.88 77.43 66.74C77.43 66.49 77.41 64.42 77.4 64.17C78.02 65.04 78.81 66.01 79.57 66.9C80.34 67.8 81.15 68.66 81.99 69.5C83.67 71.17 85.48 72.69 87.39 73.99C89.31 75.28 91.34 76.34 93.44 77C94.49 77.35 95.55 77.57 96.62 77.68C97.17 77.76 97.64 77.76 98.12 77.78C98.18 77.78 98.49 77.77 99.04 77.75L99.27 77.74C99.34 77.74 99.38 77.74 99.39 77.74C99.35 77.74 99.49 77.73 99.31 77.74C99.31 77.74 99.31 77.74 99.32 77.74L99.35 77.74L99.4 77.73C99.64 77.7 99.77 77.69 99.8 77.68C104.09 77.2 108.25 74.92 111.89 72.02C113.73 70.56 115.45 68.92 117.07 67.18C117.88 66.31 118.67 65.41 119.42 64.49C119.71 64.13 119.98 63.75 120.26 63.38M123.5 67.86C122.66 68.86 121.8 69.83 120.9 70.78C119.1 72.66 117.18 74.45 115.09 76.08C113.01 77.7 110.76 79.18 108.3 80.34C105.84 81.51 103.15 82.39 100.32 82.66C100.28 82.67 100.11 82.68 99.79 82.71L99.56 82.73L99.45 82.73L99.21 82.74C98.65 82.76 98.33 82.76 98.27 82.77C97.5 82.74 96.72 82.71 96.04 82.61C94.63 82.44 93.24 82.13 91.92 81.69C89.27 80.81 86.86 79.49 84.66 77.98C82.47 76.45 80.46 74.72 78.63 72.85C77.71 71.92 76.83 70.95 75.99 69.95C75.13 68.93 74.36 67.96 73.54 66.79C72.99 65.99 73.02 64.97 73.52 64.21C73.52 64.21 73.52 64.21 73.52 64.21C74.28 63.05 75.02 62.08 75.83 61.07C76.63 60.07 77.47 59.11 78.34 58.18C80.08 56.32 81.98 54.57 84.05 53.01C88.18 49.92 93.18 47.47 98.78 47.19C99.1 47.18 99.35 47.15 99.73 47.16C99.84 47.16 100.72 47.18 100.83 47.18C101.53 47.24 102.21 47.27 102.88 47.39C104.24 47.57 105.55 47.9 106.83 48.3C109.39 49.1 111.77 50.25 113.99 51.59C116.23 52.92 118.29 54.45 120.25 56.09C121.23 56.92 122.17 57.77 123.09 58.66C124.02 59.57 124.87 60.44 125.79 61.5C126.59 62.43 126.62 63.75 125.95 64.7C125.13 65.86 124.34 66.85 123.5 67.86Z" id="e3av7s0mOM"></path><path d="M64.07 31.94C64.07 31.94 65.22 31.57 67.23 30.93C68.21 30.59 69.55 30.27 71 29.86C72.47 29.46 74.13 29.11 75.96 28.74C76.88 28.58 77.84 28.41 78.83 28.24C79.83 28.12 80.87 28 81.94 27.88C83.01 27.77 84.12 27.73 85.25 27.65C86.38 27.61 87.54 27.64 88.73 27.63C91.09 27.76 93.55 27.93 96.01 28.46C98.48 28.92 100.96 29.65 103.34 30.65C105.72 31.63 108.01 32.87 110.09 34.34C112.17 35.81 114.08 37.46 115.74 39.22C119.05 42.77 121.41 46.66 123 50.15C123.8 51.9 124.42 53.55 124.9 55.03C125.39 56.51 125.72 57.84 125.98 58.93C126.21 60.03 126.39 60.89 126.48 61.49C126.57 62.09 126.62 62.41 126.62 62.41C126.86 63.86 125.87 65.23 124.42 65.47C122.96 65.7 121.59 64.71 121.36 63.26C121.36 63.25 121.36 63.24 121.36 63.23C121.35 63.22 121.34 63.12 121.34 63.11C121.34 63.11 121.3 62.83 121.22 62.31C121.16 61.79 121.01 61.03 120.83 60.06C120.62 59.09 120.34 57.92 119.94 56.6C119.53 55.28 119.01 53.81 118.33 52.25C116.97 49.14 114.95 45.69 112.13 42.56C110.72 41 109.09 39.55 107.31 38.25C105.54 36.94 103.58 35.83 101.51 34.95C99.46 34.04 97.29 33.35 95.1 32.9C92.92 32.4 90.7 32.2 88.56 32.05C87.47 32.04 86.41 32 85.37 32.02C84.33 32.07 83.3 32.08 82.31 32.17C81.31 32.27 80.35 32.37 79.41 32.46C78.48 32.61 77.58 32.74 76.71 32.88C74.99 33.2 73.39 33.51 72.02 33.85C70.64 34.22 69.46 34.47 68.44 34.8C66.42 35.41 65.27 35.76 65.27 35.76C64.21 36.08 63.09 35.49 62.77 34.43C62.45 33.38 63.04 32.28 64.07 31.94" id="coom1iurn"></path></defs><g><g><g><use xlink:href="#a7pdlJR8p" opacity="1" fill="#ffffff" fill-opacity="1"></use><g><use xlink:href="#a7pdlJR8p" opacity="1" fill-opacity="0" stroke="#000000" stroke-width="1" stroke-opacity="0"></use></g></g><g><use xlink:href="#ddp0LqQrP" opacity="1" fill="#1d1d1b" fill-opacity="1"></use><g><use xlink:href="#ddp0LqQrP" opacity="1" fill-opacity="0" stroke="#000000" stroke-width="1" stroke-opacity="0"></use></g></g><g><use xlink:href="#da8nU5WAx" opacity="1" fill="#ffffff" fill-opacity="1"></use><g><use xlink:href="#da8nU5WAx" opacity="1" fill-opacity="0" stroke="#000000" stroke-width="1" stroke-opacity="0"></use></g></g><g><use xlink:href="#a2wWxjsVeA" opacity="1" fill="#1d1d1b" fill-opacity="1"></use><g><use xlink:href="#a2wWxjsVeA" opacity="1" fill-opacity="0" stroke="#000000" stroke-width="1" stroke-opacity="0"></use></g></g><g><use xlink:href="#c5GNM7Y5Y" opacity="1" fill="#ffffff" fill-opacity="1"></use><g><use xlink:href="#c5GNM7Y5Y" opacity="1" fill-opacity="0" stroke="#000000" stroke-width="1" stroke-opacity="0"></use></g></g><g><use xlink:href="#d2bZB611yV" opacity="1" fill="#1d1d1b" fill-opacity="1"></use><g><use xlink:href="#d2bZB611yV" opacity="1" fill-opacity="0" stroke="#000000" stroke-width="1" stroke-opacity="0"></use></g></g><g><use xlink:href="#b1qTh3B9W" opacity="1" fill="#ffffff" fill-opacity="1"></use><g><use xlink:href="#b1qTh3B9W" opacity="1" fill-opacity="0" stroke="#000000" stroke-width="1" stroke-opacity="0"></use></g></g><g><use xlink:href="#arkRFgpT" opacity="1" fill="#1d1d1b" fill-opacity="1"></use><g><use xlink:href="#arkRFgpT" opacity="1" fill-opacity="0" stroke="#000000" stroke-width="1" stroke-opacity="0"></use></g></g><g><use xlink:href="#dRLhoRIEK" opacity="1" fill="#1d1d1b" fill-opacity="1"></use><g><use xlink:href="#dRLhoRIEK" opacity="1" fill-opacity="0" stroke="#000000" stroke-width="1" stroke-opacity="0"></use></g></g><g><use xlink:href="#e3av7s0mOM" opacity="1" fill="#1d1d1b" fill-opacity="1"></use><g><use xlink:href="#e3av7s0mOM" opacity="1" fill-opacity="0" stroke="#000000" stroke-width="1" stroke-opacity="0"></use></g></g><g><use xlink:href="#coom1iurn" opacity="1" fill="#1d1d1b" fill-opacity="1"></use><g><use xlink:href="#coom1iurn" opacity="1" fill-opacity="0" stroke="#000000" stroke-width="1" stroke-opacity="0"></use></g></g></g></g></svg>