<?xml version="1.0" encoding="UTF-8" standalone="no"?>
<!DOCTYPE svg PUBLIC "-//W3C//DTD SVG 1.1//EN" "http://www.w3.org/Graphics/SVG/1.1/DTD/svg11.dtd">
<svg version="1.1" xmlns="http://www.w3.org/2000/svg" xmlns:xlink="http://www.w3.org/1999/xlink" preserveAspectRatio="xMidYMid meet" viewBox="0 0 200 200" width="200" height="200"><defs><path d="M59.34 147.12C59.34 128.97 77.54 114.26 100 114.26C122.46 114.26 140.66 128.97 140.66 147.12C140.66 165.28 122.46 179.99 100 179.99C77.54 179.99 59.34 165.28 59.34 147.12" id="b1fx0BeG1"></path><path d="M62.34 147.12C62.34 147.12 62.39 147.93 62.5 149.43C62.64 150.93 63.08 153.1 64.03 155.76C65.12 158.36 66.82 161.4 69.54 164.35C72.24 167.29 75.92 170.12 80.44 172.31C81.01 172.57 81.56 172.88 82.16 173.12C82.76 173.35 83.36 173.59 83.97 173.82C85.18 174.34 86.48 174.66 87.78 175.05C88.43 175.26 89.1 175.42 89.78 175.54C90.46 175.68 91.15 175.82 91.84 175.96C93.21 176.21 94.56 176.3 95.96 176.5C96.73 176.53 97.51 176.56 98.3 176.59C98.38 176.6 98.77 176.61 99.48 176.64C99.84 176.65 100.04 176.66 100.08 176.66C100.23 176.66 99.96 176.66 100.02 176.66C100.02 176.66 100.04 176.66 100.09 176.65L100.23 176.65C100.39 176.64 100.49 176.64 100.5 176.64C101.25 176.61 102 176.59 102.75 176.56C102.83 176.56 103.21 176.54 103.89 176.52C104.57 176.44 104.94 176.4 105.02 176.39C105.78 176.3 106.54 176.21 107.3 176.12C108.07 176.03 108.82 175.83 109.58 175.69C111.12 175.44 112.61 174.96 114.13 174.53C117.11 173.53 120.1 172.32 122.83 170.6C124.26 169.83 125.5 168.79 126.82 167.86C128.03 166.78 129.3 165.76 130.35 164.53C132.54 162.16 134.46 159.48 135.66 156.49C136.91 153.42 137.56 150.65 137.66 147.12C137.63 140.69 135.02 134.32 130.54 129.55C129.49 128.29 128.22 127.25 127.02 126.15C125.7 125.19 124.45 124.13 123.02 123.33C120.29 121.57 117.29 120.3 114.28 119.25C112.75 118.8 111.24 118.29 109.69 118.02C108.93 117.87 108.15 117.66 107.4 117.56C106.65 117.46 105.9 117.36 105.16 117.27C105.09 117.26 104.72 117.21 104.05 117.12C103.32 117.08 102.92 117.06 102.84 117.06C102.03 117.02 101.23 116.98 100.43 116.95C100.4 116.95 100.24 116.94 99.95 116.93L99.38 116.95C98.71 116.98 98.33 117 98.26 117C97.51 117.04 96.77 117.07 96.04 117.1C90.17 117.63 84.77 119.22 80.21 121.48C75.64 123.72 71.95 126.64 69.28 129.67C66.58 132.7 64.92 135.8 63.88 138.44C63.67 139.11 63.47 139.75 63.29 140.36C63.2 140.66 63.1 140.95 63.02 141.23C62.97 141.5 62.92 141.76 62.88 142.02C62.79 142.52 62.7 142.99 62.62 143.42C62.58 143.64 62.53 143.82 62.51 144.04C62.49 144.28 62.48 144.5 62.47 144.71C62.38 146.41 62.33 147.31 62.33 147.31C62.33 147.27 62.33 147.16 62.34 147.12ZM56.34 146.94C56.34 146.94 56.41 146.03 56.53 144.34C56.52 143.57 56.84 142.25 57.09 140.88C57.16 140.53 57.23 140.16 57.3 139.78C57.42 139.44 57.53 139.08 57.65 138.71C57.89 137.97 58.15 137.18 58.43 136.35C59.75 133.12 61.85 129.39 65.08 125.88C68.31 122.36 72.61 119.07 77.8 116.55C82.99 114.03 89.06 112.3 95.6 111.76C96.41 111.73 97.24 111.69 98.07 111.66C98.15 111.66 98.57 111.64 99.31 111.62L99.94 111.59C100.37 111.6 100.6 111.61 100.65 111.61C101.45 111.64 102.25 111.67 103.05 111.7C103.14 111.7 103.54 111.71 104.27 111.74C105.06 111.83 105.49 111.88 105.58 111.89C106.46 111.99 107.34 112.09 108.23 112.2C109.11 112.31 109.95 112.53 110.82 112.69C112.55 112.98 114.26 113.51 115.98 114.01C119.39 115.15 122.8 116.55 125.96 118.54C127.6 119.43 129.07 120.63 130.61 121.73C132.03 122.99 133.51 124.2 134.78 125.67C137.38 128.49 139.69 131.75 141.19 135.44C142.73 139.11 143.59 143.1 143.66 147.12C143.66 150.85 142.81 155.27 141.31 158.85C139.84 162.58 137.56 165.88 134.96 168.75C133.7 170.24 132.23 171.47 130.8 172.76C129.27 173.89 127.8 175.11 126.16 176.03C122.99 178.07 119.56 179.52 116.13 180.7C114.4 181.23 112.68 181.78 110.93 182.1C110.06 182.27 109.2 182.5 108.33 182.62C107.45 182.73 106.59 182.84 105.72 182.95C105.64 182.97 105.2 183.02 104.43 183.12C103.65 183.16 103.22 183.18 103.14 183.18C102.28 183.22 101.42 183.26 100.58 183.3C100.55 183.3 100.45 183.3 100.26 183.31L100.1 183.32L100.02 183.32L99.81 183.32L99.21 183.29C98.5 183.26 98.11 183.24 98.03 183.24C97.24 183.2 96.46 183.17 95.68 183.13C93.99 182.91 92.28 182.76 90.68 182.46C89.9 182.3 89.11 182.13 88.33 181.97C87.55 181.82 86.79 181.63 86.04 181.39C84.54 180.93 83.05 180.54 81.66 179.94C80.96 179.66 80.26 179.39 79.57 179.12C78.88 178.83 78.23 178.48 77.58 178.16C72.33 175.59 68.02 172.21 64.83 168.6C61.61 165 59.56 161.22 58.27 157.96C57.13 154.63 56.63 151.89 56.49 150.01C56.39 148.13 56.34 147.12 56.34 147.12C56.34 147.09 56.34 146.97 56.34 146.94Z" id="iZNxE0jT"></path><path d="M59.34 112.87C59.34 94.71 77.54 80 100 80C122.46 80 140.66 94.71 140.66 112.87C140.66 131.02 122.46 145.73 100 145.73C77.54 145.73 59.34 131.02 59.34 112.87" id="b2VCgzZlXF"></path><path d="M62.34 112.87C62.34 112.87 62.39 113.67 62.5 115.17C62.64 116.67 63.08 118.84 64.03 121.5C65.12 124.1 66.82 127.14 69.54 130.09C72.24 133.03 75.92 135.86 80.44 138.05C81.01 138.31 81.56 138.62 82.16 138.86C82.76 139.09 83.36 139.33 83.97 139.56C85.18 140.08 86.48 140.4 87.78 140.79C88.43 141 89.1 141.16 89.78 141.28C90.46 141.42 91.15 141.56 91.84 141.7C93.21 141.95 94.56 142.04 95.96 142.24C96.73 142.27 97.51 142.3 98.3 142.33C98.38 142.34 98.77 142.35 99.48 142.38C99.84 142.39 100.04 142.4 100.08 142.4C100.23 142.4 99.96 142.4 100.02 142.4C100.02 142.4 100.04 142.4 100.09 142.4L100.23 142.39C100.39 142.38 100.49 142.38 100.5 142.38C101.25 142.35 102 142.33 102.75 142.3C102.83 142.3 103.21 142.29 103.89 142.26C104.57 142.18 104.94 142.14 105.02 142.13C105.78 142.04 106.54 141.95 107.3 141.86C108.07 141.77 108.82 141.57 109.58 141.43C111.12 141.18 112.61 140.7 114.13 140.27C117.11 139.28 120.1 138.06 122.83 136.34C124.26 135.57 125.5 134.54 126.82 133.6C128.03 132.52 129.3 131.51 130.35 130.27C132.54 127.9 134.46 125.22 135.66 122.23C136.91 119.16 137.56 116.39 137.66 112.87C137.63 106.43 135.02 100.07 130.54 95.29C129.49 94.03 128.22 92.99 127.02 91.89C125.7 90.93 124.45 89.87 123.02 89.08C120.29 87.31 117.29 86.04 114.28 85C112.75 84.54 111.24 84.04 109.69 83.76C108.93 83.61 108.15 83.4 107.4 83.3C106.65 83.2 105.9 83.1 105.16 83.01C105.09 83 104.72 82.95 104.05 82.86C103.32 82.82 102.92 82.8 102.84 82.8C102.03 82.76 101.23 82.72 100.43 82.69C100.4 82.69 100.24 82.68 99.95 82.67L99.38 82.69C98.71 82.72 98.33 82.74 98.26 82.74C97.51 82.78 96.77 82.81 96.04 82.84C90.17 83.38 84.77 84.97 80.21 87.22C75.64 89.46 71.95 92.38 69.28 95.41C66.58 98.44 64.92 101.54 63.88 104.18C63.67 104.85 63.47 105.49 63.29 106.1C63.2 106.4 63.1 106.69 63.02 106.97C62.97 107.24 62.92 107.5 62.88 107.76C62.79 108.26 62.7 108.73 62.62 109.16C62.58 109.38 62.53 109.56 62.51 109.78C62.49 110.02 62.48 110.24 62.47 110.46C62.38 112.15 62.33 113.05 62.33 113.05C62.33 113.02 62.33 112.9 62.34 112.87ZM56.34 112.68C56.34 112.68 56.41 111.78 56.53 110.08C56.52 109.31 56.84 107.99 57.09 106.62C57.16 106.27 57.23 105.9 57.3 105.53C57.42 105.18 57.53 104.82 57.65 104.45C57.89 103.71 58.15 102.92 58.43 102.09C59.75 98.86 61.85 95.14 65.08 91.62C68.31 88.1 72.61 84.81 77.8 82.29C82.99 79.77 89.06 78.04 95.6 77.5C96.41 77.47 97.24 77.43 98.07 77.4C98.15 77.4 98.57 77.38 99.31 77.36L99.94 77.33C100.37 77.35 100.6 77.35 100.65 77.35C101.45 77.38 102.25 77.41 103.05 77.44C103.14 77.44 103.54 77.45 104.27 77.48C105.06 77.57 105.49 77.62 105.58 77.63C106.46 77.73 107.34 77.84 108.23 77.94C109.11 78.05 109.95 78.27 110.82 78.43C112.55 78.72 114.26 79.25 115.98 79.76C119.39 80.89 122.8 82.29 125.96 84.28C127.6 85.17 129.07 86.37 130.61 87.47C132.03 88.73 133.51 89.94 134.78 91.41C137.38 94.24 139.69 97.49 141.19 101.18C142.73 104.85 143.59 108.84 143.66 112.87C143.66 116.59 142.81 121.01 141.31 124.59C139.84 128.32 137.56 131.62 134.96 134.49C133.7 135.98 132.23 137.22 130.8 138.5C129.27 139.63 127.8 140.85 126.16 141.77C122.99 143.81 119.56 145.26 116.13 146.44C114.4 146.97 112.68 147.52 110.93 147.84C110.06 148.01 109.2 148.24 108.33 148.36C107.45 148.47 106.59 148.58 105.72 148.7C105.64 148.71 105.2 148.76 104.43 148.86C103.65 148.9 103.22 148.92 103.14 148.92C102.28 148.96 101.42 149 100.58 149.04C100.55 149.04 100.45 149.05 100.26 149.05L100.1 149.06L100.02 149.06L99.81 149.06L99.21 149.03C98.5 149 98.11 148.98 98.03 148.98C97.24 148.95 96.46 148.91 95.68 148.87C93.99 148.65 92.28 148.5 90.68 148.2C89.9 148.04 89.11 147.87 88.33 147.71C87.55 147.56 86.79 147.37 86.04 147.13C84.54 146.67 83.05 146.29 81.66 145.68C80.96 145.41 80.26 145.13 79.57 144.86C78.88 144.57 78.23 144.22 77.58 143.9C72.33 141.33 68.02 137.95 64.83 134.34C61.61 130.75 59.56 126.96 58.27 123.7C57.13 120.38 56.63 117.63 56.49 115.75C56.39 113.87 56.34 112.87 56.34 112.87C56.34 112.83 56.34 112.72 56.34 112.68Z" id="e1DDU93vx4"></path><path d="M147.09 69.84C147.09 97.36 126 119.66 100 119.66C73.99 119.66 52.91 97.36 52.91 69.84C52.91 42.32 73.99 20.01 100 20.01C126 20.01 147.09 42.32 147.09 69.84" id="a3a2Aj8IrN"></path><path d="M144.09 69.84C144.09 69.84 144.02 68.72 143.91 66.61C143.87 66.09 143.87 65.5 143.8 64.86C143.7 64.22 143.6 63.53 143.48 62.77C143.37 62.02 143.25 61.21 143.12 60.35C142.9 59.5 142.68 58.6 142.44 57.65C142.06 55.73 141.2 53.73 140.44 51.5C139.95 50.43 139.43 49.32 138.89 48.17C138.38 47.01 137.62 45.92 136.97 44.73C134.13 40.11 130.11 35.36 124.75 31.42C124.09 30.91 123.35 30.51 122.65 30.04C121.93 29.6 121.24 29.08 120.47 28.69C119.7 28.3 118.93 27.91 118.14 27.51C118.06 27.47 117.67 27.27 116.96 26.91C116.22 26.63 115.8 26.47 115.72 26.44C114.89 26.12 114.05 25.8 113.2 25.47C112.34 25.19 111.45 24.99 110.56 24.74C108.78 24.16 107.02 24.01 105.23 23.68C104.81 23.59 104.3 23.56 103.78 23.54C103.67 23.53 103.16 23.51 102.23 23.46L100.67 23.38C100.2 23.36 99.94 23.34 99.89 23.34C99.7 23.34 100.04 23.34 99.97 23.34C99.97 23.34 99.94 23.35 99.88 23.35L99.7 23.36C99.48 23.37 99.36 23.38 99.34 23.38C97.4 23.49 95.43 23.48 93.47 23.89C92.5 24.08 91.49 24.12 90.53 24.42C89.56 24.68 88.58 24.94 87.6 25.2C86.61 25.44 85.69 25.9 84.72 26.24C83.76 26.59 82.79 26.95 81.88 27.46C74.39 30.99 67.74 36.99 63.13 44.46C62.96 44.75 61.63 47.03 61.47 47.32C60.97 48.3 60.54 49.32 60.06 50.32C59.84 50.83 59.57 51.31 59.39 51.84C59.33 52 58.89 53.25 58.84 53.41C58.5 54.47 58.03 55.49 57.8 56.58C57.72 56.9 57.07 59.5 56.99 59.83C56.72 60.91 56.65 61.98 56.46 63.05C56.43 63.21 56.23 64.5 56.21 64.66C56.13 65.21 56.13 65.83 56.09 66.42C56.07 66.77 55.92 69.62 55.91 69.98C55.92 69.73 55.91 69.97 55.92 69.94C55.92 69.95 55.92 69.98 55.92 70.05L55.93 70.26L55.95 70.68L55.99 71.52C56.03 72.53 56.05 73.09 56.06 73.2C56.09 73.76 56.08 74.32 56.15 74.88C56.17 75.05 56.36 76.38 56.38 76.55C56.57 77.65 56.64 78.78 56.9 79.86C56.98 80.19 57.6 82.8 57.68 83.13C57.9 84.22 58.37 85.25 58.69 86.31C58.75 86.47 59.18 87.74 59.23 87.9C59.41 88.43 59.67 88.92 59.89 89.43C60.36 90.44 60.78 91.46 61.27 92.46C61.44 92.75 62.75 95.05 62.91 95.34C67.48 102.89 74.12 109.01 81.67 112.66C82.58 113.18 83.56 113.55 84.53 113.92C85.5 114.27 86.44 114.74 87.44 114.99C88.43 115.27 89.41 115.54 90.4 115.81C90.89 115.97 91.37 116.07 91.86 116.13C92 116.16 93.16 116.35 93.3 116.37C95.13 116.79 97.35 116.83 99.43 116.96C99.45 116.96 99.59 116.97 99.82 116.98L100.02 116.99C100.08 117 100.11 117 100.12 117C100.18 117 99.91 116.99 100.07 116.99C100.12 116.99 100.36 116.98 100.8 116.95C101.68 116.9 102.17 116.87 102.26 116.87C103.23 116.78 104.21 116.83 105.16 116.64C112.77 115.6 119.66 112.68 125.05 108.67C130.47 104.67 134.48 99.82 137.26 95.12C137.91 93.92 138.65 92.81 139.16 91.64C139.68 90.47 140.18 89.35 140.67 88.27C141.4 86.02 142.24 84 142.6 82.06C142.82 81.1 143.04 80.2 143.24 79.35C143.35 78.51 143.46 77.72 143.56 76.99C143.67 76.25 143.77 75.58 143.85 74.96C143.92 74.31 143.92 73.66 143.95 73.11C144.04 70.88 144.09 69.69 144.09 69.69C144.09 69.72 144.09 69.81 144.09 69.84ZM150.08 69.98C150.08 69.98 150.02 71.17 149.9 73.39C149.86 73.96 149.85 74.56 149.78 75.27C149.67 76.01 149.56 76.81 149.43 77.68C149.3 78.54 149.16 79.47 149.01 80.47C148.77 81.42 148.52 82.43 148.26 83.5C147.81 85.65 146.88 87.92 146.01 90.41C145.45 91.62 144.87 92.87 144.27 94.17C143.68 95.47 142.85 96.71 142.1 98.04C138.91 103.25 134.38 108.63 128.28 113.1C122.2 117.56 114.41 120.85 105.81 121.96C104.74 122.16 103.64 122.12 102.55 122.2C102.44 122.21 101.89 122.24 100.9 122.29C100.41 122.31 100.13 122.32 100.07 122.33C100.17 122.33 99.83 122.33 99.83 122.33C99.82 122.33 99.79 122.32 99.73 122.32L99.54 122.31C99.3 122.3 99.17 122.29 99.14 122.29C97.04 122.17 94.99 122.18 92.61 121.72C92.43 121.69 91.04 121.48 90.87 121.45C90.28 121.37 89.7 121.26 89.16 121.09C88.05 120.79 86.93 120.5 85.81 120.2C84.68 119.91 83.62 119.41 82.51 119.01C81.41 118.6 80.31 118.19 79.27 117.62C70.72 113.57 63.2 106.76 58.01 98.34C57.82 98.02 56.33 95.44 56.14 95.12C55.58 94.01 55.09 92.87 54.56 91.74C54.31 91.17 54.02 90.62 53.81 90.03C53.74 89.86 53.25 88.44 53.18 88.27C52.8 87.08 52.29 85.93 52.02 84.7C51.93 84.34 51.21 81.42 51.12 81.05C50.82 79.83 50.71 78.58 50.5 77.34C50.47 77.15 50.26 75.66 50.23 75.48C50.15 74.85 50.15 74.23 50.1 73.6C50.09 73.34 50.03 72.04 49.91 69.69C50.01 67.55 50.06 66.37 50.07 66.13C50.11 65.53 50.09 64.96 50.17 64.33C50.2 64.14 50.4 62.6 50.43 62.41C50.63 61.14 50.73 59.82 51.02 58.6C51.11 58.24 51.81 55.3 51.9 54.94C52.16 53.71 52.66 52.55 53.04 51.36C53.1 51.18 53.59 49.76 53.65 49.58C53.85 48.99 54.14 48.43 54.39 47.86C54.91 46.72 55.4 45.57 55.95 44.45C56.13 44.13 57.61 41.53 57.79 41.2C62.94 32.7 70.45 25.78 79.06 21.61C80.1 21.03 81.22 20.6 82.32 20.18C83.44 19.77 84.5 19.25 85.64 18.95C86.78 18.64 87.9 18.33 89.03 18.02C90.14 17.67 91.31 17.59 92.43 17.37C94.7 16.89 96.99 16.85 99.23 16.72C99.26 16.72 99.4 16.71 99.65 16.69L99.86 16.68C99.93 16.68 99.96 16.68 99.97 16.68C99.97 16.68 100.37 16.69 100.25 16.69C100.3 16.69 100.56 16.7 101.03 16.73L102.59 16.82C103.51 16.87 104.03 16.9 104.13 16.9C104.64 16.92 105.16 16.96 105.74 17.07C107.97 17.43 110.24 17.7 112.25 18.35C113.27 18.64 114.31 18.89 115.3 19.22C116.28 19.6 117.25 19.98 118.21 20.35C118.3 20.39 118.78 20.58 119.64 20.92C120.46 21.33 120.91 21.56 121 21.61C121.9 22.07 122.8 22.53 123.68 22.98C124.56 23.45 125.36 24.03 126.18 24.55C126.99 25.09 127.83 25.57 128.58 26.15C134.73 30.69 139.26 36.17 142.4 41.45C143.13 42.81 143.96 44.06 144.53 45.38C145.12 46.69 145.69 47.95 146.23 49.17C147.08 51.69 147.99 53.97 148.41 56.14C148.66 57.21 148.9 58.23 149.13 59.18C149.26 60.15 149.39 61.06 149.51 61.91C149.63 62.76 149.74 63.54 149.83 64.26C149.9 64.98 149.9 65.64 149.94 66.23C150.03 68.58 150.09 69.84 150.09 69.84C150.08 69.87 150.08 69.95 150.08 69.98Z" id="aEhzuHVTj"></path><path d="M102.78 46.01C102.78 46.01 102.96 48.82 103.09 53.04C103.13 55.14 103.24 57.61 103.26 60.24C103.28 62.88 103.3 65.69 103.33 68.5C103.3 71.31 103.28 74.13 103.26 76.76C103.23 79.4 103.13 81.86 103.09 83.97C103.04 86.08 102.93 87.84 102.88 89.07C102.81 90.3 102.78 91 102.78 91C102.69 92.53 101.38 93.71 99.84 93.62C98.41 93.54 97.3 92.4 97.22 91C97.22 91 97.18 90.3 97.11 89.07C97.07 87.84 96.96 86.08 96.91 83.97C96.86 81.86 96.76 79.4 96.74 76.76C96.72 74.13 96.69 71.31 96.67 68.5C96.69 65.69 96.71 62.88 96.74 60.24C96.75 57.61 96.86 55.14 96.91 53.04C97.04 48.82 97.22 46.01 97.22 46.01C97.32 44.47 98.64 43.31 100.18 43.41C101.59 43.5 102.69 44.63 102.78 46.01" id="b4PTs6Bdbv"></path><path d="M77.89 65.73C77.89 65.73 78.58 65.69 79.79 65.62C81 65.57 82.73 65.47 84.8 65.41C86.87 65.37 89.29 65.27 91.88 65.24C94.47 65.22 97.23 65.2 100 65.17C102.76 65.2 105.53 65.22 108.12 65.24C110.71 65.26 113.12 65.37 115.2 65.41C119.34 65.55 122.11 65.73 122.11 65.73C123.64 65.83 124.8 67.15 124.7 68.68C124.61 70.1 123.48 71.19 122.11 71.28C122.11 71.28 119.34 71.46 115.2 71.59C113.12 71.64 110.71 71.75 108.12 71.76C105.53 71.79 102.76 71.81 100 71.83C97.23 71.81 94.47 71.78 91.88 71.76C89.29 71.74 86.87 71.64 84.8 71.59C82.73 71.54 81 71.43 79.79 71.39C78.58 71.32 77.89 71.28 77.89 71.28C76.36 71.19 75.18 69.88 75.27 68.35C75.35 66.92 76.49 65.8 77.89 65.73" id="d14WKgOc9"></path></defs><g><g><g><use xlink:href="#b1fx0BeG1" opacity="1" fill="#ffffff" fill-opacity="1"></use><g><use xlink:href="#b1fx0BeG1" opacity="1" fill-opacity="0" stroke="#000000" stroke-width="1" stroke-opacity="0"></use></g></g><g><use xlink:href="#iZNxE0jT" opacity="1" fill="#1d1d1b" fill-opacity="1"></use><g><use xlink:href="#iZNxE0jT" opacity="1" fill-opacity="0" stroke="#000000" stroke-width="1" stroke-opacity="0"></use></g></g><g><use xlink:href="#b2VCgzZlXF" opacity="1" fill="#ffffff" fill-opacity="1"></use><g><use xlink:href="#b2VCgzZlXF" opacity="1" fill-opacity="0" stroke="#000000" stroke-width="1" stroke-opacity="0"></use></g></g><g><use xlink:href="#e1DDU93vx4" opacity="1" fill="#1d1d1b" fill-opacity="1"></use><g><use xlink:href="#e1DDU93vx4" opacity="1" fill-opacity="0" stroke="#000000" stroke-width="1" stroke-opacity="0"></use></g></g><g><use xlink:href="#a3a2Aj8IrN" opacity="1" fill="#ffffff" fill-opacity="1"></use><g><use xlink:href="#a3a2Aj8IrN" opacity="1" fill-opacity="0" stroke="#000000" stroke-width="1" stroke-opacity="0"></use></g></g><g><use xlink:href="#aEhzuHVTj" opacity="1" fill="#1d1d1b" fill-opacity="1"></use><g><use xlink:href="#aEhzuHVTj" opacity="1" fill-opacity="0" stroke="#000000" stroke-width="1" stroke-opacity="0"></use></g></g><g><use xlink:href="#b4PTs6Bdbv" opacity="1" fill="#1d1d1b" fill-opacity="1"></use><g><use xlink:href="#b4PTs6Bdbv" opacity="1" fill-opacity="0" stroke="#000000" stroke-width="1" stroke-opacity="0"></use></g></g><g><use xlink:href="#d14WKgOc9" opacity="1" fill="#1d1d1b" fill-opacity="1"></use><g><use xlink:href="#d14WKgOc9" opacity="1" fill-opacity="0" stroke="#000000" stroke-width="1" stroke-opacity="0"></use></g></g></g></g></svg>