<?xml version="1.0" encoding="UTF-8" standalone="no"?>
<!DOCTYPE svg PUBLIC "-//W3C//DTD SVG 1.1//EN" "http://www.w3.org/Graphics/SVG/1.1/DTD/svg11.dtd">
<svg version="1.1" xmlns="http://www.w3.org/2000/svg" xmlns:xlink="http://www.w3.org/1999/xlink" preserveAspectRatio="xMidYMid meet" viewBox="0 0 200 200" width="200" height="200"><defs><path d="M146.01 168.64C146.01 176.8 139.15 183.43 130.69 183.43C122.23 183.43 115.37 176.8 115.37 168.64C115.37 176.8 108.51 182.37 100.05 182.37C91.6 182.37 84.74 176.8 84.74 168.64C84.74 176.8 77.88 183.43 69.42 183.43C60.96 183.43 54.1 176.8 54.1 168.64C54.16 167.85 54.62 161.53 54.67 160.74C54.67 138.27 74.98 130.86 100.15 130.86C125.32 130.86 145.83 140.91 145.83 161.26C145.87 162.73 145.97 167.16 146.01 168.64Z" id="a5OtyCDDy"></path><path d="M142.53 169.89L142.52 168.72C142.45 163.84 142.41 161.13 142.4 160.59C142.37 158.19 141.99 155.84 141.28 153.61C140.56 151.38 139.45 149.28 138.03 147.37C136.61 145.45 134.83 143.77 132.87 142.26C128.93 139.25 124.16 137.12 119.18 135.69C114.19 134.22 108.91 133.56 103.67 133.3C98.37 133.06 93.01 133.3 87.8 134.01C85.19 134.36 82.62 134.89 80.11 135.56C77.61 136.23 75.17 137.06 72.87 138.12C68.26 140.2 64.28 143.24 61.69 147.14C59.14 151.06 58.02 155.81 58.09 160.74C58.09 160.75 58.09 160.81 58.08 160.91L58.08 160.98L57.58 168.89C57.59 168.74 57.59 168.65 57.59 168.64C57.63 171.62 58.87 174.55 61.09 176.65C62.19 177.69 63.47 178.57 64.9 179.15C65.61 179.45 66.35 179.67 67.1 179.83C67.48 179.91 67.88 179.97 68.24 180.01C68.28 180.02 68.45 180.03 68.76 180.07C69.16 180.08 69.38 180.09 69.42 180.09C72.55 180.2 75.7 179.13 78.16 177.08C79.38 176.06 80.44 174.8 81.22 173.37C82.03 171.95 82.51 170.33 82.74 168.64C82.74 168.59 82.79 168.23 82.8 168.19C82.94 167.1 83.94 166.34 85.03 166.49C86.09 166.63 86.83 167.59 86.74 168.64C86.74 168.64 86.74 168.64 86.74 168.64C86.96 170.29 87.42 171.83 88.19 173.17C88.94 174.52 89.98 175.66 91.2 176.6C92.43 177.51 93.83 178.24 95.34 178.68C96.09 178.91 96.87 179.09 97.66 179.21C98.05 179.27 98.46 179.31 98.84 179.33C98.88 179.33 99.07 179.34 99.4 179.36C99.8 179.37 100.01 179.37 100.06 179.37C103.29 179.39 106.47 178.45 108.91 176.59C110.13 175.66 111.17 174.51 111.92 173.16C112.69 171.82 113.15 170.29 113.37 168.64C113.38 168.59 113.43 168.24 113.43 168.19C113.58 167.11 114.58 166.34 115.66 166.49C116.72 166.63 117.47 167.59 117.37 168.64C117.37 168.64 117.37 168.64 117.37 168.64C117.58 170.34 118.05 171.96 118.86 173.39C119.62 174.83 120.67 176.11 121.92 177.12C123.17 178.13 124.56 178.94 126.06 179.42C126.81 179.67 127.57 179.86 128.35 179.97C128.73 180.03 129.14 180.07 129.51 180.09C129.54 180.09 129.72 180.09 130.03 180.1C130.43 180.1 130.65 180.09 130.69 180.09C133.82 180 136.81 178.72 139.01 176.64C140.11 175.6 141 174.35 141.61 172.98C141.93 172.31 142.18 171.6 142.35 170.87C142.43 170.55 142.48 170.22 142.53 169.89M149.24 161.12L149.34 168.72L149.35 169.46C149.32 170.06 149.31 170.39 149.31 170.45C149.25 171.07 149.17 171.67 149.06 172.27C148.83 173.47 148.48 174.65 148.01 175.78C147.04 178.03 145.6 180.06 143.84 181.73C142.09 183.42 139.98 184.69 137.74 185.56C135.48 186.41 133.07 186.8 130.69 186.76C130.64 186.76 130.37 186.74 129.87 186.72C129.3 186.66 128.99 186.63 128.93 186.63C128.32 186.55 127.74 186.46 127.16 186.33C126 186.08 124.86 185.72 123.77 185.25C121.61 184.3 119.61 182.96 118 181.25C116.38 179.56 115.11 177.56 114.29 175.39C113.52 173.21 113.17 170.89 113.37 168.64C113.37 168.64 113.37 168.64 113.37 168.64C115.77 168.64 117.11 168.64 117.37 168.64C117.6 170.81 117.28 173.11 116.44 175.25C115.59 177.38 114.21 179.32 112.49 180.84C110.79 182.4 108.75 183.51 106.63 184.27C104.5 185.01 102.27 185.35 100.06 185.37C100.01 185.37 99.75 185.36 99.28 185.35C98.76 185.31 98.47 185.3 98.41 185.29C97.84 185.24 97.3 185.18 96.74 185.09C95.64 184.91 94.55 184.65 93.49 184.27C91.37 183.51 89.33 182.4 87.63 180.85C85.91 179.33 84.53 177.39 83.68 175.26C82.83 173.12 82.51 170.82 82.74 168.65C82.74 168.65 82.74 168.64 82.74 168.64C85.14 168.64 86.47 168.64 86.74 168.64C86.97 170.88 86.62 173.21 85.86 175.4C85.06 177.58 83.79 179.6 82.15 181.29C80.53 182.99 78.53 184.33 76.35 185.28C74.17 186.21 71.79 186.7 69.42 186.76C69.36 186.76 69.09 186.76 68.6 186.75C68.03 186.72 67.71 186.7 67.64 186.7C67.03 186.65 66.45 186.58 65.86 186.47C64.68 186.27 63.51 185.95 62.39 185.52C60.15 184.67 58.04 183.39 56.28 181.72C54.51 180.06 53.07 178.04 52.08 175.79C51.08 173.55 50.59 171.08 50.61 168.64C50.61 168.63 50.61 168.58 50.61 168.57C50.61 168.51 50.62 168.44 50.62 168.38C50.67 167.86 50.88 165.23 51.27 160.49C51.26 160.64 51.26 160.72 51.26 160.74C51.29 157.78 51.64 154.76 52.47 151.82C53.31 148.88 54.65 146.04 56.43 143.51C58.21 141 60.44 138.83 62.88 137.09C65.32 135.33 67.97 133.99 70.67 132.93C76.07 130.8 81.66 129.75 87.21 129.17C92.77 128.57 98.28 128.44 103.83 128.58C109.42 128.76 114.97 129.46 120.48 130.76C125.96 132.11 131.41 134.16 136.3 137.48C138.74 139.14 141.03 141.12 142.95 143.49C144.87 145.84 146.45 148.54 147.53 151.43C148.58 154.33 149.1 157.39 149.21 160.41C149.21 160.51 149.22 160.74 149.24 161.12Z" id="i15eJ9keH9"></path><path d="M59.34 125.77C59.34 111.16 77.54 99.31 100 99.31C122.46 99.31 140.66 111.16 140.66 125.77C140.66 140.38 122.46 152.23 100 152.23C77.54 152.23 59.34 140.38 59.34 125.77" id="ayvj5hXi4"></path><path d="M62.34 125.77C62.34 125.77 62.4 126.46 62.52 127.75C62.58 128.39 62.85 129.15 63.04 130.07C63.19 130.52 63.42 130.99 63.61 131.5C63.71 131.75 63.82 132.01 63.92 132.28C64.07 132.54 64.22 132.8 64.38 133.07C65.55 135.25 67.52 137.73 70.44 139.98C73.33 142.24 77.08 144.31 81.49 145.88C82.59 146.25 83.74 146.58 84.9 146.95C86.09 147.23 87.3 147.52 88.54 147.81C89.79 148.01 91.07 148.22 92.36 148.43C93.65 148.54 94.9 148.69 96.26 148.78C96.97 148.81 97.7 148.83 98.42 148.85C98.49 148.85 98.86 148.86 99.51 148.88C99.84 148.89 100.02 148.89 100.06 148.89C100.18 148.9 99.97 148.89 100.02 148.89C100.02 148.89 100.04 148.89 100.08 148.89L100.21 148.89C100.37 148.88 100.45 148.88 100.47 148.88C101.86 148.82 103.27 148.86 104.69 148.72C106.1 148.56 107.55 148.52 108.97 148.24C109.68 148.13 110.4 148.01 111.12 147.9C111.84 147.78 112.55 147.58 113.27 147.42C116.15 146.81 118.96 145.81 121.73 144.66C124.46 143.44 127.06 141.92 129.45 140.14C131.76 138.29 133.82 136.13 135.29 133.69C136.05 132.49 136.59 131.14 137.01 129.89C137.13 129.26 137.34 128.75 137.46 128.03C137.48 127.78 137.65 125.79 137.67 125.54C137.65 125.98 137.66 125.62 137.66 125.71C137.66 125.7 137.65 125.68 137.65 125.64L137.64 125.51L137.62 125.25L137.58 124.74C137.54 124.12 137.52 123.77 137.51 123.7C137.41 123.02 137.21 122.35 137.08 121.67C136.66 120.34 136.15 119.02 135.4 117.79C133.95 115.31 131.91 113.11 129.6 111.21C127.22 109.37 124.62 107.81 121.88 106.54C119.11 105.35 116.28 104.3 113.38 103.64C112.66 103.48 111.95 103.27 111.22 103.14C110.5 103.01 109.77 102.88 109.05 102.76C107.6 102.46 106.21 102.4 104.81 102.22C103.42 102.06 101.85 102.08 100.41 102C99.14 101.98 97.65 102.08 96.31 102.12C90.84 102.46 85.75 103.56 81.31 105.18C76.87 106.79 73.1 108.94 70.22 111.29C67.32 113.62 65.38 116.17 64.24 118.4C64.09 118.67 63.94 118.94 63.8 119.2C63.69 119.47 63.59 119.74 63.5 120C63.31 120.51 63.09 121 62.96 121.43C62.87 121.85 62.79 122.23 62.7 122.58C62.63 122.96 62.49 123.17 62.49 123.61C62.38 125.17 62.33 126 62.33 126C62.33 125.96 62.33 125.82 62.34 125.77ZM56.35 125.54C56.35 125.54 56.42 124.71 56.55 123.15C56.55 122.81 56.73 122.19 56.84 121.63C56.98 121.05 57.14 120.41 57.3 119.72C57.51 119.08 57.79 118.45 58.07 117.75C58.21 117.41 58.35 117.05 58.51 116.68C58.7 116.34 58.89 115.99 59.1 115.63C60.66 112.71 63.21 109.57 66.69 106.88C70.16 104.16 74.49 101.79 79.46 100.02C84.42 98.25 90.02 97.09 95.99 96.76C97.51 96.73 98.92 96.65 100.59 96.66C102.08 96.73 103.49 96.69 105.09 96.84C106.68 97 108.33 97.07 109.89 97.37C110.68 97.5 111.48 97.63 112.28 97.76C113.08 97.89 113.87 98.11 114.67 98.28C117.87 98.98 121.04 100.09 124.18 101.41C127.3 102.8 130.32 104.55 133.16 106.69C138.67 111.09 143.63 117.5 143.65 126C143.63 126.25 143.49 128.25 143.47 128.49C143.35 129.42 143.08 130.51 142.85 131.5C142.27 133.42 141.55 135.17 140.57 136.8C138.65 140.06 136.09 142.77 133.32 145.05C130.48 147.23 127.45 149.03 124.33 150.47C121.19 151.84 118 153 114.78 153.73C113.98 153.92 113.18 154.15 112.38 154.29C111.57 154.43 110.77 154.57 109.98 154.71C108.38 155.04 106.78 155.11 105.21 155.3C103.64 155.47 102.07 155.46 100.52 155.54C100.51 155.54 100.41 155.55 100.24 155.55L100.09 155.56L100.02 155.56L99.84 155.56L99.29 155.54C98.64 155.51 98.27 155.5 98.2 155.5C97.48 155.47 96.76 155.44 96.04 155.42C89.84 155.03 84.32 153.83 79.28 152.01C74.28 150.2 69.93 147.74 66.48 144.93C63 142.15 60.49 138.95 58.95 135.99C58.76 135.62 58.56 135.26 58.38 134.92C58.23 134.55 58.09 134.19 57.95 133.84C57.69 133.13 57.41 132.48 57.22 131.86C56.93 130.56 56.62 129.48 56.53 128.57C56.4 126.74 56.34 125.77 56.34 125.77C56.34 125.72 56.34 125.59 56.35 125.54Z" id="b6eMjUttn1"></path><path d="M59.34 98.19C59.34 83.58 77.54 71.74 100 71.74C122.46 71.74 140.66 83.58 140.66 98.19C140.66 112.8 122.46 124.65 100 124.65C77.54 124.65 59.34 112.8 59.34 98.19" id="bjQ6GIimr"></path><path d="M62.34 98.19C62.34 98.19 62.4 98.88 62.52 100.17C62.58 100.81 62.85 101.58 63.04 102.5C63.19 102.94 63.42 103.41 63.61 103.92C63.71 104.17 63.82 104.44 63.92 104.7C64.07 104.96 64.22 105.22 64.38 105.49C65.55 107.67 67.52 110.15 70.44 112.4C73.33 114.66 77.08 116.73 81.49 118.3C82.59 118.67 83.74 119 84.9 119.37C86.09 119.65 87.3 119.94 88.54 120.23C89.79 120.44 91.07 120.64 92.36 120.85C93.65 120.96 94.9 121.11 96.26 121.21C96.97 121.23 97.7 121.25 98.42 121.27C98.49 121.27 98.86 121.28 99.51 121.3C99.84 121.31 100.02 121.32 100.06 121.32C100.18 121.32 99.97 121.32 100.02 121.32C100.02 121.32 100.04 121.32 100.08 121.31L100.21 121.31C100.37 121.31 100.45 121.3 100.47 121.3C101.86 121.24 103.27 121.28 104.69 121.14C106.1 120.99 107.55 120.94 108.97 120.66C109.68 120.55 110.4 120.43 111.12 120.32C111.84 120.2 112.55 120 113.27 119.85C116.15 119.23 118.96 118.23 121.73 117.08C124.46 115.86 127.06 114.35 129.45 112.56C131.76 110.71 133.82 108.55 135.29 106.11C136.05 104.92 136.59 103.56 137.01 102.31C137.13 101.68 137.34 101.17 137.46 100.45C137.48 100.2 137.65 98.21 137.67 97.96C137.65 98.4 137.66 98.05 137.66 98.13C137.66 98.12 137.65 98.1 137.65 98.06L137.64 97.93L137.62 97.68L137.58 97.16C137.54 96.54 137.52 96.2 137.51 96.13C137.41 95.44 137.21 94.77 137.08 94.09C136.66 92.76 136.15 91.44 135.4 90.21C133.95 87.73 131.91 85.53 129.6 83.63C127.22 81.8 124.62 80.23 121.88 78.97C119.11 77.77 116.28 76.72 113.38 76.06C112.66 75.9 111.95 75.69 111.22 75.56C110.5 75.43 109.77 75.31 109.05 75.18C107.6 74.88 106.21 74.82 104.81 74.65C103.42 74.49 101.85 74.5 100.41 74.42C99.14 74.4 97.65 74.51 96.31 74.54C90.84 74.88 85.75 75.98 81.31 77.6C76.87 79.21 73.1 81.37 70.22 83.72C67.32 86.05 65.38 88.6 64.24 90.82C64.09 91.09 63.94 91.36 63.8 91.62C63.69 91.9 63.59 92.16 63.5 92.42C63.31 92.93 63.09 93.42 62.96 93.85C62.87 94.27 62.79 94.65 62.7 95C62.63 95.38 62.49 95.59 62.49 96.04C62.38 97.59 62.33 98.43 62.33 98.43C62.33 98.38 62.33 98.24 62.34 98.19ZM56.35 97.96C56.35 97.96 56.42 97.13 56.55 95.58C56.55 95.23 56.73 94.61 56.84 94.05C56.98 93.47 57.14 92.83 57.3 92.15C57.51 91.5 57.79 90.88 58.07 90.18C58.21 89.83 58.35 89.47 58.51 89.11C58.7 88.76 58.89 88.41 59.1 88.05C60.66 85.13 63.21 82 66.69 79.3C70.16 76.58 74.49 74.21 79.46 72.44C84.42 70.67 90.02 69.52 95.99 69.19C97.51 69.15 98.92 69.07 100.59 69.08C102.08 69.15 103.49 69.11 105.09 69.26C106.68 69.43 108.33 69.49 109.89 69.79C110.68 69.92 111.48 70.05 112.28 70.18C113.08 70.31 113.87 70.53 114.67 70.71C117.87 71.4 121.04 72.51 124.18 73.83C127.3 75.22 130.32 76.97 133.16 79.11C138.67 83.52 143.63 89.92 143.65 98.43C143.63 98.67 143.49 100.67 143.47 100.92C143.35 101.84 143.08 102.93 142.85 103.93C142.27 105.84 141.55 107.59 140.57 109.22C138.65 112.48 136.09 115.2 133.32 117.47C130.48 119.66 127.45 121.45 124.33 122.89C121.19 124.26 118 125.42 114.78 126.16C113.98 126.34 113.18 126.57 112.38 126.72C111.57 126.86 110.77 127 109.98 127.13C108.38 127.46 106.78 127.54 105.21 127.73C103.64 127.9 102.07 127.88 100.52 127.96C100.51 127.96 100.41 127.97 100.24 127.97L100.09 127.98L100.02 127.98L99.84 127.98L99.29 127.96C98.64 127.94 98.27 127.92 98.2 127.92C97.48 127.89 96.76 127.87 96.04 127.84C89.84 127.46 84.32 126.26 79.28 124.43C74.28 122.62 69.93 120.16 66.48 117.36C63 114.58 60.49 111.38 58.95 108.41C58.76 108.04 58.56 107.69 58.38 107.34C58.23 106.97 58.09 106.61 57.95 106.26C57.69 105.55 57.41 104.91 57.22 104.28C56.93 102.99 56.62 101.9 56.53 100.99C56.4 99.17 56.34 98.19 56.34 98.19C56.34 98.15 56.34 98.01 56.35 97.96Z" id="b3MDZzDc4c"></path><path d="M147.09 63.56C147.09 85.71 126.01 103.67 100 103.67C73.99 103.67 52.91 85.71 52.91 63.56C52.91 41.4 73.99 23.45 100 23.45C126.01 23.45 147.09 41.4 147.09 63.56" id="b3kXTaHDSD"></path><path d="M144.09 63.56C144.09 63.56 144.02 62.58 143.9 60.75C143.9 59.83 143.61 58.73 143.38 57.42C143.23 56.09 142.64 54.66 142.18 53.02C140.96 49.83 139.05 46.06 135.92 42.38C132.82 38.7 128.54 35.14 123.22 32.35C122.55 32.01 121.88 31.66 121.19 31.31C120.49 31 119.77 30.73 119.04 30.43C118.31 30.15 117.6 29.8 116.84 29.57C116.08 29.33 115.31 29.1 114.53 28.86C113 28.31 111.35 28.08 109.72 27.69C108.08 27.34 106.46 27.24 104.79 26.99C103.9 26.93 102.95 26.91 102.03 26.86C101.93 26.86 101.47 26.84 100.63 26.81C100.2 26.79 99.97 26.78 99.92 26.78C99.76 26.77 100.03 26.78 99.98 26.78C99.97 26.78 99.94 26.78 99.89 26.78L99.73 26.79C99.53 26.8 99.42 26.8 99.4 26.8C98.51 26.84 97.61 26.87 96.72 26.91C96.27 26.93 95.81 26.93 95.36 26.96C95.23 26.98 94.15 27.12 94.02 27.13C93.11 27.25 92.21 27.36 91.3 27.47C90.39 27.63 89.5 27.85 88.59 28.03C86.76 28.34 85 29 83.19 29.52C76.11 32.01 69.25 36.19 64.2 42.16C61.72 45.14 59.51 48.45 58.15 52.11C57.73 53 57.55 53.97 57.23 54.89C57.09 55.35 56.92 55.82 56.81 56.29C56.79 56.38 56.7 56.83 56.55 57.66C56.4 58.48 56.31 58.93 56.29 59.03C56.25 59.26 56.19 59.47 56.16 59.72C56.16 59.78 56.14 60.04 56.11 60.53C55.99 62.45 55.92 63.52 55.91 63.73C55.92 63.41 55.91 63.7 55.92 63.65C55.92 63.65 55.92 63.68 55.92 63.74L55.93 63.92L55.95 64.29L55.99 65.02C56.04 65.9 56.07 66.39 56.07 66.49C56.06 67.47 56.35 68.42 56.48 69.39C56.5 69.54 56.7 70.69 56.73 70.84C56.84 71.31 57 71.78 57.14 72.25C57.45 73.18 57.62 74.15 58.03 75.04C59.36 78.74 61.54 82.08 64.01 85.11C69.03 91.17 75.9 95.47 83.03 98.05C84.85 98.6 86.62 99.28 88.47 99.61C89.38 99.81 90.29 100.04 91.19 100.21C92.09 100.33 92.98 100.45 93.87 100.57C94 100.59 95.06 100.74 95.2 100.76C95.66 100.8 96.15 100.81 96.62 100.84C97.58 100.88 98.53 100.93 99.47 100.97C99.51 100.97 99.71 100.98 100.06 101L100.73 100.96C101.53 100.93 101.98 100.91 102.07 100.9C102.95 100.86 103.84 100.83 104.71 100.77C111.69 100.09 118.1 98.06 123.46 95.21C128.83 92.38 133.12 88.72 136.19 84.95C139.29 81.19 141.15 77.37 142.33 74.15C142.77 72.5 143.34 71.01 143.46 69.77C143.66 68.5 143.94 67.53 143.93 66.45C144.04 64.45 144.09 63.38 144.09 63.38C144.09 63.41 144.09 63.52 144.09 63.56ZM150.08 63.73C150.08 63.73 150.01 64.8 149.88 66.81C149.88 67.75 149.56 69.2 149.28 70.8C149.06 72.47 148.41 74.13 147.83 76.09C146.41 79.88 144.14 84.31 140.53 88.58C136.93 92.84 132.03 96.91 126.02 100.06C120.01 103.21 112.89 105.41 105.19 106.11C104.22 106.18 103.25 106.2 102.28 106.24C102.18 106.25 101.69 106.27 100.81 106.3L100.07 106.33C99.57 106.32 99.3 106.31 99.24 106.31C98.3 106.27 97.35 106.23 96.39 106.2C95.91 106.17 95.44 106.17 94.95 106.13C94.79 106.11 93.56 105.96 93.41 105.95C92.38 105.82 91.34 105.69 90.3 105.56C89.27 105.38 88.28 105.14 87.26 104.93C85.21 104.57 83.23 103.85 81.21 103.25C73.25 100.45 65.48 95.74 59.62 88.82C56.74 85.37 54.18 81.5 52.55 77.16C52.07 76.11 51.83 74.96 51.46 73.87C51.29 73.31 51.1 72.76 50.96 72.2C50.93 72.03 50.68 70.66 50.65 70.49C50.47 69.34 50.15 68.21 50.13 67.04C50.12 66.92 50.09 66.34 50.02 65.3L49.96 64.43L49.94 63.99L49.92 63.77C49.92 63.71 49.92 63.67 49.92 63.66C49.92 63.55 49.91 63.77 49.92 63.38C49.93 63.16 49.99 62.09 50.09 60.17C50.12 59.69 50.13 59.42 50.14 59.37C50.16 59.09 50.22 58.77 50.27 58.48C50.29 58.36 50.39 57.76 50.57 56.69C50.76 55.61 50.87 55.02 50.89 54.9C51.03 54.32 51.21 53.78 51.37 53.22C51.73 52.12 51.96 50.96 52.44 49.91C54.03 45.54 56.57 41.63 59.43 38.13C65.26 31.12 73.04 26.29 81.05 23.4C83.08 22.77 85.08 22.03 87.14 21.65C88.16 21.43 89.18 21.17 90.2 20.99C91.22 20.85 92.24 20.71 93.26 20.57C93.41 20.55 94.63 20.39 94.78 20.37C95.29 20.33 95.8 20.32 96.3 20.29C97.31 20.24 98.32 20.19 99.32 20.14C99.34 20.14 99.47 20.14 99.69 20.13L99.88 20.12L99.97 20.11L100.21 20.12L100.91 20.15C101.75 20.19 102.22 20.21 102.31 20.22C103.25 20.26 104.16 20.29 105.11 20.36C107.08 20.64 109.1 20.8 110.96 21.2C112.81 21.64 114.66 21.93 116.4 22.55C117.28 22.83 118.15 23.11 119.01 23.38C119.88 23.65 120.69 24.04 121.52 24.37C122.34 24.71 123.16 25.03 123.95 25.39C124.73 25.8 125.5 26.2 126.26 26.59C132.33 29.79 137.23 33.96 140.79 38.31C144.38 42.66 146.6 47.15 147.99 50.97C148.54 52.93 149.17 54.65 149.36 56.23C149.61 57.79 149.92 59.11 149.91 60.21C150.03 62.39 150.09 63.56 150.09 63.56C150.09 63.59 150.08 63.7 150.08 63.73Z" id="bsQnyD3CC"></path><path d="M103 23.45C103.2 57.14 103.31 75.86 103.33 79.61C103.34 81.45 101.86 82.95 100.02 82.96C98.18 82.97 96.68 81.49 96.67 79.65C96.67 79.64 96.67 79.62 96.67 79.61C96.7 73.99 96.97 29.06 97 23.45C97.01 21.79 98.36 20.45 100.02 20.46C101.66 20.47 102.99 21.81 103 23.45" id="c1d6iKHKYQ"></path><path d="M86.94 59.54C86.94 63.65 83.61 66.97 79.5 66.97C75.4 66.97 72.07 63.65 72.07 59.54C72.07 55.43 75.4 52.11 79.5 52.11C83.61 52.11 86.94 55.43 86.94 59.54" id="b12nDvTC4o"></path><path d="M127.93 59.54C127.93 63.65 124.6 66.97 120.5 66.97C116.39 66.97 113.06 63.65 113.06 59.54C113.06 55.43 116.39 52.11 120.5 52.11C124.6 52.11 127.93 55.43 127.93 59.54" id="b1NtKLXW5D"></path></defs><g><g><g><use xlink:href="#a5OtyCDDy" opacity="1" fill="#ffffff" fill-opacity="1"></use><g><use xlink:href="#a5OtyCDDy" opacity="1" fill-opacity="0" stroke="#000000" stroke-width="1" stroke-opacity="0"></use></g></g><g><use xlink:href="#i15eJ9keH9" opacity="1" fill="#1d1d1b" fill-opacity="1"></use><g><use xlink:href="#i15eJ9keH9" opacity="1" fill-opacity="0" stroke="#000000" stroke-width="1" stroke-opacity="0"></use></g></g><g><use xlink:href="#ayvj5hXi4" opacity="1" fill="#ffffff" fill-opacity="1"></use><g><use xlink:href="#ayvj5hXi4" opacity="1" fill-opacity="0" stroke="#000000" stroke-width="1" stroke-opacity="0"></use></g></g><g><use xlink:href="#b6eMjUttn1" opacity="1" fill="#1d1d1b" fill-opacity="1"></use><g><use xlink:href="#b6eMjUttn1" opacity="1" fill-opacity="0" stroke="#000000" stroke-width="1" stroke-opacity="0"></use></g></g><g><use xlink:href="#bjQ6GIimr" opacity="1" fill="#ffffff" fill-opacity="1"></use><g><use xlink:href="#bjQ6GIimr" opacity="1" fill-opacity="0" stroke="#000000" stroke-width="1" stroke-opacity="0"></use></g></g><g><use xlink:href="#b3MDZzDc4c" opacity="1" fill="#1d1d1b" fill-opacity="1"></use><g><use xlink:href="#b3MDZzDc4c" opacity="1" fill-opacity="0" stroke="#000000" stroke-width="1" stroke-opacity="0"></use></g></g><g><use xlink:href="#b3kXTaHDSD" opacity="1" fill="#ffffff" fill-opacity="1"></use><g><use xlink:href="#b3kXTaHDSD" opacity="1" fill-opacity="0" stroke="#000000" stroke-width="1" stroke-opacity="0"></use></g></g><g><use xlink:href="#bsQnyD3CC" opacity="1" fill="#1d1d1b" fill-opacity="1"></use><g><use xlink:href="#bsQnyD3CC" opacity="1" fill-opacity="0" stroke="#000000" stroke-width="1" stroke-opacity="0"></use></g></g><g><use xlink:href="#c1d6iKHKYQ" opacity="1" fill="#1d1d1b" fill-opacity="1"></use><g><use xlink:href="#c1d6iKHKYQ" opacity="1" fill-opacity="0" stroke="#000000" stroke-width="1" stroke-opacity="0"></use></g></g><g><use xlink:href="#b12nDvTC4o" opacity="1" fill="#1d1d1b" fill-opacity="1"></use><g><use xlink:href="#b12nDvTC4o" opacity="1" fill-opacity="0" stroke="#000000" stroke-width="1" stroke-opacity="0"></use></g></g><g><use xlink:href="#b1NtKLXW5D" opacity="1" fill="#1d1d1b" fill-opacity="1"></use><g><use xlink:href="#b1NtKLXW5D" opacity="1" fill-opacity="0" stroke="#000000" stroke-width="1" stroke-opacity="0"></use></g></g></g></g></svg>