<?xml version="1.0" encoding="UTF-8" standalone="no"?>
<!DOCTYPE svg PUBLIC "-//W3C//DTD SVG 1.1//EN" "http://www.w3.org/Graphics/SVG/1.1/DTD/svg11.dtd">
<svg version="1.1" xmlns="http://www.w3.org/2000/svg" xmlns:xlink="http://www.w3.org/1999/xlink" preserveAspectRatio="xMidYMid meet" viewBox="0 0 200 200" width="200" height="200"><defs><path d="M146.01 170.93C146.01 179.1 139.15 185.72 130.69 185.72C122.23 185.72 115.37 179.1 115.37 170.93C115.37 179.1 108.52 184.66 100.06 184.66C91.6 184.66 84.74 179.1 84.74 170.93C84.74 179.1 77.88 185.72 69.42 185.72C60.96 185.72 54.1 179.1 54.1 170.93C54.16 170.14 54.62 163.82 54.68 163.03C54.68 140.56 74.98 133.16 100.16 133.16C125.33 133.16 145.83 143.21 145.83 163.55C145.87 165.03 145.97 169.45 146.01 170.93Z" id="c1CYqSGJvD"></path><path d="M142.54 172.18L142.52 171.01C142.45 166.14 142.41 163.43 142.4 162.88C142.38 160.48 141.99 158.14 141.28 155.9C140.56 153.68 139.45 151.58 138.03 149.67C136.61 147.75 134.83 146.06 132.87 144.55C128.93 141.54 124.17 139.41 119.18 137.98C114.19 136.51 108.91 135.85 103.67 135.59C98.38 135.35 93.01 135.59 87.8 136.3C85.19 136.66 82.62 137.18 80.11 137.85C77.61 138.52 75.17 139.35 72.87 140.41C68.27 142.49 64.28 145.53 61.69 149.43C59.14 153.35 58.02 158.1 58.09 163.03C58.09 163.04 58.09 163.1 58.09 163.2L58.08 163.28L57.58 171.18C57.59 171.03 57.59 170.95 57.59 170.93C57.63 173.92 58.88 176.84 61.1 178.94C62.19 179.98 63.48 180.86 64.9 181.44C65.61 181.74 66.35 181.97 67.1 182.13C67.48 182.2 67.88 182.26 68.24 182.31C68.28 182.31 68.45 182.33 68.76 182.36C69.16 182.38 69.38 182.39 69.42 182.39C72.55 182.49 75.7 181.42 78.16 179.37C79.38 178.35 80.44 177.1 81.22 175.66C82.03 174.24 82.51 172.63 82.74 170.93C82.74 170.89 82.79 170.52 82.8 170.48C82.95 169.39 83.95 168.63 85.03 168.78C86.09 168.92 86.83 169.88 86.74 170.93C86.74 170.93 86.74 170.94 86.74 170.94C86.96 172.59 87.42 174.12 88.2 175.46C88.95 176.81 89.99 177.96 91.2 178.89C92.43 179.8 93.83 180.53 95.34 180.97C96.09 181.2 96.87 181.39 97.66 181.5C98.05 181.56 98.46 181.6 98.84 181.63C98.88 181.63 99.07 181.64 99.4 181.65C99.8 181.66 100.02 181.66 100.06 181.66C103.29 181.68 106.47 180.74 108.92 178.88C110.13 177.95 111.17 176.8 111.92 175.46C112.69 174.12 113.15 172.58 113.37 170.93C113.38 170.89 113.43 170.53 113.43 170.48C113.58 169.4 114.58 168.64 115.66 168.78C116.72 168.93 117.47 169.88 117.37 170.93C117.37 170.93 117.37 170.93 117.37 170.93C117.58 172.63 118.05 174.25 118.86 175.68C119.62 177.13 120.67 178.4 121.92 179.42C123.17 180.42 124.56 181.23 126.06 181.72C126.81 181.97 127.57 182.16 128.35 182.27C128.73 182.32 129.14 182.36 129.51 182.38C129.55 182.38 129.72 182.39 130.04 182.4C130.43 182.39 130.65 182.39 130.69 182.39C133.83 182.3 136.81 181.01 139.01 178.93C140.11 177.89 141 176.64 141.61 175.28C141.93 174.6 142.18 173.89 142.35 173.17C142.43 172.84 142.49 172.51 142.54 172.18M149.24 163.41L149.34 171.02L149.35 171.76C149.32 172.35 149.31 172.68 149.31 172.75C149.25 173.36 149.17 173.96 149.06 174.56C148.83 175.76 148.48 176.94 148.01 178.07C147.04 180.32 145.6 182.35 143.84 184.02C142.1 185.71 139.98 186.99 137.74 187.85C135.48 188.7 133.07 189.09 130.69 189.05C130.64 189.05 130.37 189.04 129.87 189.01C129.31 188.96 128.99 188.93 128.93 188.92C128.32 188.85 127.74 188.75 127.16 188.62C126 188.37 124.86 188.02 123.77 187.54C121.61 186.59 119.61 185.25 118 183.54C116.39 181.85 115.11 179.85 114.29 177.68C113.52 175.5 113.17 173.18 113.37 170.94C113.37 170.94 113.37 170.93 113.37 170.93C115.77 170.93 117.11 170.93 117.37 170.93C117.6 173.11 117.28 175.41 116.44 177.54C115.59 179.68 114.21 181.61 112.49 183.14C110.79 184.69 108.75 185.8 106.63 186.56C104.5 187.3 102.27 187.64 100.06 187.66C100.01 187.66 99.75 187.65 99.28 187.64C98.76 187.61 98.47 187.59 98.41 187.59C97.84 187.54 97.3 187.47 96.74 187.38C95.65 187.2 94.55 186.94 93.49 186.57C91.37 185.81 89.33 184.7 87.63 183.14C85.91 181.62 84.53 179.68 83.68 177.55C82.84 175.42 82.52 173.12 82.74 170.94C82.74 170.94 82.74 170.94 82.74 170.93C85.14 170.93 86.47 170.93 86.74 170.93C86.97 173.18 86.62 175.5 85.86 177.69C85.06 179.87 83.79 181.89 82.15 183.58C80.53 185.28 78.53 186.62 76.35 187.57C74.17 188.51 71.8 188.99 69.42 189.05C69.37 189.05 69.09 189.05 68.6 189.05C68.03 189.01 67.71 189 67.65 188.99C67.03 188.94 66.45 188.87 65.86 188.77C64.68 188.56 63.52 188.24 62.39 187.82C60.15 186.96 58.04 185.68 56.28 184.02C54.51 182.35 53.07 180.33 52.08 178.09C51.08 175.84 50.59 173.37 50.61 170.93C50.61 170.92 50.62 170.87 50.62 170.87C50.62 170.81 50.62 170.74 50.62 170.68C50.67 170.15 50.88 167.52 51.27 162.78C51.27 162.93 51.26 163.01 51.26 163.03C51.29 160.07 51.64 157.06 52.47 154.11C53.31 151.17 54.65 148.33 56.43 145.81C58.22 143.29 60.44 141.12 62.88 139.38C65.33 137.62 67.97 136.29 70.67 135.22C76.07 133.1 81.66 132.05 87.21 131.46C92.77 130.87 98.28 130.73 103.83 130.88C109.42 131.05 114.97 131.75 120.48 133.06C125.96 134.41 131.41 136.45 136.3 139.77C138.74 141.44 141.03 143.42 142.95 145.78C144.87 148.14 146.45 150.83 147.53 153.72C148.59 156.62 149.1 159.69 149.21 162.71C149.22 162.8 149.22 163.04 149.24 163.41Z" id="e7Igs5Cv"></path><path d="M59.34 128.06C59.34 113.45 77.54 101.61 100 101.61C122.46 101.61 140.66 113.45 140.66 128.06C140.66 142.68 122.46 154.52 100 154.52C77.54 154.52 59.34 142.68 59.34 128.06" id="a2gTHS2oxJ"></path><path d="M62.34 128.11C62.36 128.27 62.41 128.93 62.52 130.04C62.59 130.68 62.85 131.45 63.04 132.37C63.19 132.82 63.42 133.28 63.61 133.79C63.71 134.04 63.82 134.31 63.92 134.58C64.07 134.83 64.22 135.09 64.38 135.36C65.55 137.54 67.52 140.02 70.44 142.27C73.33 144.53 77.09 146.6 81.49 148.17C82.59 148.55 83.74 148.87 84.9 149.24C86.09 149.53 87.31 149.81 88.54 150.1C89.79 150.31 91.07 150.51 92.36 150.72C93.65 150.83 94.9 150.98 96.26 151.08C96.98 151.1 97.7 151.12 98.42 151.14C98.49 151.14 98.86 151.15 99.51 151.17C99.84 151.18 100.02 151.19 100.06 151.19C100.18 151.19 99.97 151.19 100.02 151.19C100.02 151.19 100.04 151.19 100.08 151.19L100.21 151.18C100.37 151.18 100.46 151.18 100.47 151.17C101.86 151.11 103.28 151.15 104.69 151.01C106.1 150.86 107.55 150.81 108.97 150.53C109.68 150.42 110.4 150.31 111.13 150.19C111.85 150.07 112.55 149.87 113.27 149.72C116.15 149.1 118.96 148.1 121.73 146.95C124.46 145.73 127.06 144.22 129.45 142.43C131.77 140.58 133.82 138.43 135.29 135.98C136.05 134.79 136.6 133.43 137.01 132.18C137.14 131.55 137.34 131.04 137.46 130.32C137.48 130.07 137.65 128.08 137.67 127.83C137.65 128.27 137.66 127.92 137.66 128C137.66 128 137.65 127.97 137.65 127.93L137.64 127.81L137.62 127.55L137.58 127.03C137.54 126.41 137.52 126.07 137.51 126C137.41 125.31 137.21 124.64 137.08 123.96C136.67 122.63 136.15 121.31 135.4 120.08C133.95 117.6 131.91 115.4 129.6 113.5C127.22 111.67 124.62 110.1 121.88 108.84C119.11 107.64 116.28 106.59 113.38 105.94C112.66 105.77 111.95 105.56 111.23 105.43C110.5 105.3 109.77 105.18 109.05 105.05C107.6 104.75 106.21 104.69 104.81 104.52C103.42 104.36 101.85 104.37 100.41 104.29C99.14 104.27 97.65 104.38 96.32 104.41C90.85 104.75 85.75 105.85 81.31 107.47C76.87 109.08 73.1 111.24 70.22 113.59C67.32 115.92 65.38 118.47 64.24 120.69C64.09 120.96 63.94 121.23 63.8 121.49C63.69 121.77 63.59 122.03 63.5 122.29C63.31 122.8 63.09 123.29 62.96 123.72C62.87 124.14 62.79 124.52 62.7 124.87C62.63 125.25 62.49 125.46 62.49 125.91C62.41 127.04 62.36 127.79 62.34 128.11M56.55 125.45C56.55 125.1 56.73 124.48 56.84 123.92C56.98 123.34 57.14 122.71 57.3 122.02C57.51 121.37 57.79 120.75 58.07 120.05C58.21 119.7 58.36 119.34 58.51 118.98C58.7 118.64 58.89 118.28 59.1 117.92C60.67 115 63.21 111.87 66.69 109.17C70.16 106.45 74.49 104.09 79.46 102.31C84.42 100.54 90.02 99.39 95.99 99.06C97.51 99.03 98.92 98.94 100.59 98.96C102.08 99.02 103.49 98.98 105.09 99.13C106.68 99.3 108.33 99.36 109.89 99.66C110.68 99.79 111.48 99.92 112.28 100.05C113.08 100.19 113.87 100.4 114.67 100.58C117.87 101.27 121.04 102.38 124.18 103.7C127.3 105.09 130.32 106.84 133.17 108.98C138.67 113.39 143.63 119.79 143.65 128.3C143.63 128.55 143.49 130.54 143.48 130.79C143.35 131.71 143.08 132.8 142.85 133.8C142.27 135.71 141.56 137.46 140.57 139.09C138.65 142.36 136.1 145.07 133.32 147.34C130.49 149.53 127.46 151.32 124.33 152.77C121.19 154.13 118 155.29 114.78 156.03C113.98 156.21 113.18 156.44 112.38 156.59C111.57 156.73 110.77 156.87 109.98 157C108.39 157.33 106.78 157.41 105.21 157.6C103.64 157.77 102.07 157.75 100.53 157.83C100.51 157.83 100.41 157.84 100.24 157.85L100.09 157.85L100.02 157.85L99.84 157.85L99.29 157.83C98.64 157.81 98.27 157.79 98.2 157.79C97.48 157.76 96.76 157.74 96.04 157.71C89.84 157.33 84.32 156.13 79.28 154.3C74.28 152.49 69.93 150.03 66.48 147.23C63 144.45 60.49 141.25 58.96 138.28C58.76 137.91 58.56 137.56 58.38 137.21C58.23 136.84 58.09 136.48 57.95 136.13C57.69 135.42 57.41 134.78 57.22 134.15C56.94 132.86 56.62 131.77 56.53 130.86C56.4 129.04 56.34 128.06 56.34 128.06C56.34 128.02 56.34 127.97 56.34 127.93C56.35 127.83 56.42 127 56.55 125.45Z" id="i4Rzh0oCDE"></path><path d="M59.34 100.49C59.34 85.87 77.54 74.03 100 74.03C122.46 74.03 140.66 85.87 140.66 100.49C140.66 115.1 122.46 126.94 100 126.94C77.54 126.94 59.34 115.1 59.34 100.49" id="flUpvzJ0L"></path><path d="M62.34 100.53C62.36 100.69 62.41 101.35 62.52 102.46C62.59 103.1 62.85 103.87 63.04 104.79C63.19 105.24 63.42 105.7 63.61 106.21C63.71 106.47 63.82 106.73 63.92 107C64.07 107.25 64.22 107.51 64.38 107.79C65.55 109.96 67.52 112.45 70.44 114.7C73.33 116.95 77.09 119.02 81.49 120.59C82.59 120.97 83.74 121.3 84.9 121.67C86.09 121.95 87.31 122.23 88.54 122.53C89.79 122.73 91.07 122.93 92.36 123.14C93.65 123.25 94.9 123.41 96.26 123.5C96.98 123.52 97.7 123.54 98.42 123.56C98.49 123.57 98.86 123.58 99.51 123.59C99.84 123.6 100.02 123.61 100.06 123.61C100.18 123.61 99.97 123.61 100.02 123.61C100.02 123.61 100.04 123.61 100.08 123.61L100.21 123.6C100.37 123.6 100.46 123.6 100.47 123.6C101.86 123.54 103.28 123.58 104.69 123.44C106.1 123.28 107.55 123.24 108.97 122.96C109.68 122.84 110.4 122.73 111.13 122.61C111.85 122.49 112.55 122.29 113.27 122.14C116.15 121.53 118.96 120.53 121.73 119.37C124.46 118.15 127.06 116.64 129.45 114.86C131.77 113 133.82 110.85 135.29 108.41C136.05 107.21 136.6 105.86 137.01 104.6C137.14 103.97 137.34 103.46 137.46 102.74C137.48 102.49 137.65 100.5 137.67 100.25C137.65 100.7 137.66 100.34 137.66 100.42C137.66 100.42 137.65 100.4 137.65 100.36L137.64 100.23L137.62 99.97L137.58 99.45C137.54 98.83 137.52 98.49 137.51 98.42C137.41 97.74 137.21 97.07 137.08 96.39C136.67 95.05 136.15 93.73 135.4 92.5C133.95 90.02 131.91 87.82 129.6 85.92C127.22 84.09 124.62 82.53 121.88 81.26C119.11 80.06 116.28 79.02 113.38 78.36C112.66 78.19 111.95 77.98 111.23 77.85C110.5 77.72 109.77 77.6 109.05 77.47C107.6 77.17 106.21 77.12 104.81 76.94C103.42 76.78 101.85 76.79 100.41 76.71C99.14 76.7 97.65 76.8 96.32 76.83C90.85 77.17 85.75 78.27 81.31 79.9C76.87 81.5 73.1 83.66 70.22 86.01C67.32 88.34 65.38 90.89 64.24 93.11C64.09 93.39 63.94 93.65 63.8 93.91C63.69 94.19 63.59 94.45 63.5 94.71C63.31 95.22 63.09 95.71 62.96 96.15C62.87 96.56 62.79 96.95 62.7 97.29C62.63 97.68 62.49 97.88 62.49 98.33C62.41 99.46 62.36 100.21 62.34 100.53M56.55 97.87C56.55 97.53 56.73 96.91 56.84 96.35C56.98 95.76 57.14 95.13 57.3 94.44C57.51 93.79 57.79 93.17 58.07 92.47C58.21 92.12 58.36 91.77 58.51 91.4C58.7 91.06 58.89 90.71 59.1 90.34C60.67 87.42 63.21 84.29 66.69 81.59C70.16 78.88 74.49 76.51 79.46 74.73C84.42 72.97 90.02 71.81 95.99 71.48C97.51 71.45 98.92 71.36 100.59 71.38C102.08 71.44 103.49 71.4 105.09 71.55C106.68 71.72 108.33 71.79 109.89 72.09C110.68 72.21 111.48 72.34 112.28 72.47C113.08 72.61 113.87 72.83 114.67 73C117.87 73.69 121.04 74.81 124.18 76.12C127.3 77.52 130.32 79.27 133.17 81.41C138.67 85.81 143.63 92.22 143.65 100.72C143.63 100.97 143.49 102.96 143.48 103.21C143.35 104.13 143.08 105.23 142.85 106.22C142.27 108.13 141.56 109.88 140.57 111.51C138.65 114.78 136.1 117.49 133.32 119.76C130.49 121.95 127.46 123.75 124.33 125.19C121.19 126.55 118 127.71 114.78 128.45C113.98 128.63 113.18 128.86 112.38 129.01C111.57 129.15 110.77 129.29 109.98 129.43C108.39 129.75 106.78 129.83 105.21 130.02C103.64 130.19 102.07 130.17 100.53 130.26C100.51 130.26 100.41 130.26 100.24 130.27L100.09 130.27L100.02 130.28L99.84 130.27L99.29 130.25C98.64 130.23 98.27 130.21 98.2 130.21C97.48 130.19 96.76 130.16 96.04 130.13C89.84 129.75 84.32 128.55 79.28 126.72C74.28 124.91 69.93 122.46 66.48 119.65C63 116.87 60.49 113.67 58.96 110.7C58.76 110.34 58.56 109.98 58.38 109.63C58.23 109.26 58.09 108.9 57.95 108.55C57.69 107.85 57.41 107.2 57.22 106.57C56.94 105.28 56.62 104.19 56.53 103.28C56.4 101.46 56.34 100.49 56.34 100.49C56.34 100.44 56.34 100.39 56.34 100.35C56.35 100.25 56.42 99.42 56.55 97.87Z" id="idirhWcWV"></path><path d="M147.09 65.85C147.09 88 126.01 105.96 100 105.96C73.99 105.96 52.91 88 52.91 65.85C52.91 43.7 73.99 25.74 100 25.74C126.01 25.74 147.09 43.7 147.09 65.85" id="bxQmRprnX"></path><path d="M144.09 65.85C144.09 65.85 144.02 64.87 143.9 63.04C143.9 62.12 143.61 61.02 143.39 59.71C143.23 58.39 142.64 56.96 142.18 55.31C140.96 52.12 139.05 48.35 135.92 44.67C132.82 41 128.54 37.43 123.22 34.65C122.55 34.3 121.88 33.96 121.19 33.61C120.5 33.3 119.77 33.02 119.05 32.72C118.32 32.44 117.6 32.09 116.84 31.86C116.08 31.62 115.31 31.39 114.53 31.15C113 30.6 111.35 30.37 109.72 29.98C108.08 29.63 106.46 29.54 104.79 29.28C103.9 29.22 102.96 29.2 102.03 29.16C101.94 29.15 101.47 29.13 100.63 29.1C100.2 29.08 99.97 29.07 99.92 29.07C99.76 29.07 100.04 29.07 99.98 29.07C99.97 29.07 99.95 29.07 99.89 29.08L99.73 29.08C99.53 29.09 99.42 29.09 99.4 29.1C98.51 29.13 97.61 29.16 96.72 29.2C96.27 29.22 95.82 29.22 95.36 29.26C95.23 29.27 94.15 29.41 94.02 29.43C93.12 29.54 92.21 29.65 91.3 29.76C90.39 29.92 89.5 30.14 88.59 30.32C86.76 30.64 85 31.29 83.19 31.81C76.11 34.3 69.26 38.48 64.2 44.45C61.72 47.44 59.52 50.74 58.15 54.41C56.76 58.14 56.03 61.65 55.91 65.85C55.96 69.77 56.68 73.66 58.03 77.34C59.37 81.03 61.55 84.37 64.01 87.4C69.04 93.47 75.91 97.76 83.03 100.35C84.85 100.9 86.62 101.57 88.47 101.91C89.38 102.1 90.29 102.34 91.2 102.5C92.09 102.62 92.98 102.74 93.87 102.86C94 102.88 95.07 103.03 95.2 103.05C95.66 103.09 96.15 103.1 96.62 103.13C97.58 103.17 98.53 103.22 99.47 103.26C99.51 103.27 99.71 103.27 100.06 103.29L100.73 103.26C101.53 103.22 101.98 103.2 102.07 103.2C102.96 103.15 103.84 103.13 104.71 103.06C111.69 102.38 118.1 100.35 123.46 97.51C128.83 94.67 133.12 91.01 136.19 87.25C139.29 83.49 141.15 79.66 142.33 76.44C142.77 74.79 143.34 73.3 143.47 72.06C143.66 70.79 143.94 69.83 143.93 68.75C144.04 66.74 144.09 65.67 144.09 65.67C144.09 65.71 144.09 65.81 144.09 65.85ZM150.08 66.03C150.08 66.03 150.01 67.1 149.88 69.1C149.88 70.04 149.56 71.5 149.28 73.1C149.06 74.77 148.41 76.42 147.83 78.38C146.41 82.17 144.15 86.6 140.53 90.87C136.93 95.14 132.03 99.21 126.02 102.36C120.01 105.5 112.89 107.71 105.19 108.41C104.22 108.47 103.25 108.49 102.28 108.54C102.18 108.54 101.69 108.56 100.81 108.59L100.07 108.62C99.57 108.61 99.3 108.6 99.24 108.6C98.3 108.56 97.35 108.53 96.39 108.49C95.91 108.47 95.44 108.46 94.95 108.43C94.79 108.41 93.56 108.26 93.41 108.24C92.38 108.11 91.34 107.98 90.3 107.85C89.28 107.68 88.28 107.43 87.26 107.22C85.22 106.86 83.24 106.15 81.21 105.55C73.25 102.75 65.48 98.03 59.62 91.12C56.74 87.66 54.18 83.79 52.55 79.45C50.9 75.14 50 70.51 49.91 65.85C49.93 61.46 50.82 56.46 52.44 52.2C54.03 47.83 56.57 43.92 59.43 40.42C65.26 33.42 73.04 28.59 81.05 25.69C83.09 25.06 85.08 24.32 87.14 23.94C88.16 23.72 89.18 23.46 90.2 23.28C91.22 23.14 92.24 23 93.26 22.87C93.41 22.85 94.63 22.68 94.78 22.66C95.29 22.62 95.8 22.61 96.3 22.58C97.31 22.53 98.32 22.48 99.32 22.44C99.35 22.44 99.47 22.43 99.69 22.42L99.88 22.41L99.98 22.41L100.21 22.41L100.91 22.44C101.75 22.48 102.22 22.5 102.32 22.51C103.25 22.56 104.16 22.58 105.11 22.65C107.08 22.93 109.1 23.09 110.96 23.5C112.81 23.94 114.66 24.23 116.4 24.85C117.28 25.12 118.15 25.4 119.02 25.67C119.88 25.95 120.69 26.34 121.52 26.66C122.34 27.01 123.16 27.33 123.95 27.69C124.73 28.09 125.5 28.49 126.26 28.89C132.33 32.08 137.23 36.25 140.79 40.61C144.38 44.95 146.6 49.44 147.99 53.26C148.54 55.23 149.17 56.94 149.36 58.52C149.62 60.09 149.92 61.41 149.91 62.51C150.03 64.69 150.09 65.85 150.09 65.85C150.09 65.88 150.08 65.99 150.08 66.03Z" id="aVIzhviSn"></path><path d="M120.5 65.54C120.5 76.77 111.4 85.87 100.17 85.87C88.94 85.87 79.83 76.77 79.83 65.54C79.83 54.31 88.94 45.2 100.17 45.2C111.4 45.2 120.5 54.31 120.5 65.54" id="aXWUgWaVI"></path><path d="M100.17 85.87C88.94 85.87 79.83 76.77 79.83 65.54C79.83 54.31 88.94 45.2 100.17 45.2C111.4 45.2 120.5 54.31 120.5 65.54C120.5 76.77 111.4 85.87 100.17 85.87Z" id="bwSVpTOyD"></path><path d="M108.25 64.9C108.25 69.36 104.63 72.98 100.17 72.98C95.7 72.98 92.09 69.36 92.09 64.9C92.09 60.44 95.7 56.82 100.17 56.82C104.63 56.82 108.25 60.44 108.25 64.9" id="a1dGUsV0q"></path></defs><g><g><g><use xlink:href="#c1CYqSGJvD" opacity="1" fill="#ffffff" fill-opacity="1"></use><g><use xlink:href="#c1CYqSGJvD" opacity="1" fill-opacity="0" stroke="#000000" stroke-width="1" stroke-opacity="0"></use></g></g><g><use xlink:href="#e7Igs5Cv" opacity="1" fill="#1d1d1b" fill-opacity="1"></use><g><use xlink:href="#e7Igs5Cv" opacity="1" fill-opacity="0" stroke="#000000" stroke-width="1" stroke-opacity="0"></use></g></g><g><use xlink:href="#a2gTHS2oxJ" opacity="1" fill="#ffffff" fill-opacity="1"></use><g><use xlink:href="#a2gTHS2oxJ" opacity="1" fill-opacity="0" stroke="#000000" stroke-width="1" stroke-opacity="0"></use></g></g><g><use xlink:href="#i4Rzh0oCDE" opacity="1" fill="#1d1d1b" fill-opacity="1"></use><g><use xlink:href="#i4Rzh0oCDE" opacity="1" fill-opacity="0" stroke="#000000" stroke-width="1" stroke-opacity="0"></use></g></g><g><use xlink:href="#flUpvzJ0L" opacity="1" fill="#ffffff" fill-opacity="1"></use><g><use xlink:href="#flUpvzJ0L" opacity="1" fill-opacity="0" stroke="#000000" stroke-width="1" stroke-opacity="0"></use></g></g><g><use xlink:href="#idirhWcWV" opacity="1" fill="#1d1d1b" fill-opacity="1"></use><g><use xlink:href="#idirhWcWV" opacity="1" fill-opacity="0" stroke="#000000" stroke-width="1" stroke-opacity="0"></use></g></g><g><use xlink:href="#bxQmRprnX" opacity="1" fill="#ffffff" fill-opacity="1"></use><g><use xlink:href="#bxQmRprnX" opacity="1" fill-opacity="0" stroke="#000000" stroke-width="1" stroke-opacity="0"></use></g></g><g><use xlink:href="#aVIzhviSn" opacity="1" fill="#1d1d1b" fill-opacity="1"></use><g><use xlink:href="#aVIzhviSn" opacity="1" fill-opacity="0" stroke="#000000" stroke-width="1" stroke-opacity="0"></use></g></g><g><use xlink:href="#aXWUgWaVI" opacity="1" fill="#ffffff" fill-opacity="1"></use><g><use xlink:href="#aXWUgWaVI" opacity="1" fill-opacity="0" stroke="#000000" stroke-width="1" stroke-opacity="0"></use></g></g><g><use xlink:href="#bwSVpTOyD" opacity="1" fill="#000000" fill-opacity="0"></use><g><use xlink:href="#bwSVpTOyD" opacity="1" fill-opacity="0" stroke="#1d1d1b" stroke-width="4" stroke-opacity="1"></use></g></g><g><use xlink:href="#a1dGUsV0q" opacity="1" fill="#1d1d1b" fill-opacity="1"></use><g><use xlink:href="#a1dGUsV0q" opacity="1" fill-opacity="0" stroke="#000000" stroke-width="1" stroke-opacity="0"></use></g></g></g></g></svg>