<?xml version="1.0" encoding="UTF-8" standalone="no"?>
<!DOCTYPE svg PUBLIC "-//W3C//DTD SVG 1.1//EN" "http://www.w3.org/Graphics/SVG/1.1/DTD/svg11.dtd">
<svg version="1.1" xmlns="http://www.w3.org/2000/svg" xmlns:xlink="http://www.w3.org/1999/xlink" preserveAspectRatio="xMidYMid meet" viewBox="0 0 200 200" width="200" height="200"><defs><path d="M146.01 171.59C146.01 179.76 139.15 186.38 130.69 186.38C122.23 186.38 115.37 179.76 115.37 171.59C115.37 179.76 108.51 185.32 100.05 185.32C91.59 185.32 84.74 179.76 84.74 171.59C84.74 179.76 77.88 186.38 69.42 186.38C60.96 186.38 54.1 179.76 54.1 171.59C54.16 170.8 54.62 164.48 54.67 163.69C54.67 141.22 74.98 133.81 100.15 133.81C125.32 133.81 145.83 143.86 145.83 164.21C145.87 165.68 145.97 170.11 146.01 171.59Z" id="b1HkEsb1lx"></path><path d="M142.53 172.84L142.52 171.67C142.45 166.79 142.41 164.08 142.4 163.54C142.37 161.14 141.99 158.8 141.28 156.56C140.56 154.33 139.45 152.24 138.03 150.32C136.61 148.41 134.83 146.72 132.87 145.21C128.93 142.2 124.16 140.07 119.18 138.64C114.19 137.17 108.91 136.51 103.67 136.25C98.37 136.01 93.01 136.25 87.8 136.96C85.19 137.32 82.62 137.84 80.11 138.51C77.61 139.18 75.17 140.01 72.87 141.07C68.26 143.15 64.28 146.19 61.69 150.09C59.14 154.01 58.02 158.76 58.09 163.69C58.09 163.7 58.09 163.76 58.08 163.86L58.08 163.94L57.58 171.84C57.59 171.69 57.59 171.61 57.59 171.59C57.63 174.58 58.87 177.5 61.09 179.6C62.19 180.64 63.47 181.52 64.9 182.1C65.61 182.4 66.35 182.63 67.1 182.78C67.48 182.86 67.87 182.92 68.24 182.97C68.28 182.97 68.45 182.99 68.76 183.02C69.16 183.03 69.37 183.04 69.42 183.05C72.55 183.15 75.7 182.08 78.16 180.03C79.38 179.01 80.44 177.75 81.22 176.32C82.03 174.9 82.51 173.29 82.74 171.59C82.74 171.54 82.79 171.18 82.8 171.14C82.94 170.05 83.94 169.29 85.03 169.44C86.08 169.58 86.83 170.54 86.74 171.59C86.74 171.59 86.74 171.59 86.74 171.6C86.96 173.25 87.42 174.78 88.19 176.12C88.94 177.47 89.98 178.62 91.2 179.55C92.43 180.46 93.83 181.19 95.34 181.63C96.09 181.86 96.86 182.05 97.66 182.16C98.05 182.22 98.46 182.26 98.84 182.28C98.88 182.29 99.06 182.3 99.4 182.31C99.8 182.32 100.01 182.32 100.06 182.32C103.29 182.34 106.47 181.4 108.91 179.54C110.13 178.61 111.17 177.46 111.92 176.11C112.69 174.77 113.15 173.24 113.37 171.59C113.38 171.54 113.43 171.19 113.43 171.14C113.58 170.06 114.58 169.3 115.66 169.44C116.72 169.58 117.47 170.54 117.37 171.59C117.37 171.59 117.37 171.59 117.37 171.59C117.58 173.29 118.05 174.91 118.86 176.34C119.62 177.79 120.67 179.06 121.92 180.07C123.17 181.08 124.56 181.89 126.06 182.38C126.81 182.62 127.57 182.82 128.35 182.93C128.73 182.98 129.14 183.02 129.51 183.04C129.54 183.04 129.72 183.05 130.03 183.05C130.43 183.05 130.65 183.05 130.69 183.05C133.82 182.96 136.81 181.67 139.01 179.59C140.11 178.55 141 177.3 141.61 175.94C141.93 175.26 142.18 174.55 142.35 173.82C142.43 173.5 142.48 173.17 142.53 172.84M149.24 164.07L149.34 171.68L149.35 172.42C149.32 173.01 149.31 173.34 149.31 173.4C149.25 174.02 149.17 174.62 149.06 175.22C148.83 176.42 148.48 177.6 148.01 178.73C147.04 180.98 145.6 183.01 143.84 184.68C142.09 186.37 139.98 187.64 137.74 188.51C135.48 189.36 133.07 189.75 130.69 189.71C130.64 189.71 130.37 189.69 129.87 189.67C129.3 189.61 128.99 189.59 128.93 189.58C128.32 189.5 127.74 189.41 127.16 189.28C126 189.03 124.86 188.67 123.77 188.2C121.61 187.25 119.61 185.91 118 184.2C116.38 182.51 115.11 180.51 114.29 178.34C113.52 176.16 113.17 173.84 113.37 171.6C113.37 171.59 113.37 171.59 113.37 171.59C115.77 171.59 117.11 171.59 117.37 171.59C117.6 173.76 117.28 176.07 116.44 178.2C115.59 180.33 114.21 182.27 112.49 183.8C110.79 185.35 108.75 186.46 106.63 187.22C104.5 187.96 102.27 188.3 100.06 188.32C100.01 188.32 99.75 188.31 99.28 188.3C98.76 188.27 98.47 188.25 98.41 188.24C97.84 188.19 97.3 188.13 96.74 188.04C95.64 187.86 94.55 187.6 93.49 187.22C91.37 186.47 89.33 185.35 87.63 183.8C85.91 182.28 84.53 180.34 83.68 178.21C82.83 176.07 82.51 173.77 82.74 171.6C82.74 171.6 82.74 171.59 82.74 171.59C85.14 171.59 86.47 171.59 86.74 171.59C86.97 173.83 86.62 176.16 85.86 178.35C85.06 180.53 83.79 182.55 82.15 184.24C80.53 185.94 78.53 187.28 76.35 188.23C74.17 189.16 71.79 189.65 69.42 189.71C69.36 189.71 69.09 189.71 68.6 189.7C68.03 189.67 67.71 189.66 67.64 189.65C67.03 189.6 66.45 189.53 65.86 189.42C64.68 189.22 63.51 188.9 62.39 188.47C60.15 187.62 58.04 186.34 56.27 184.68C54.51 183.01 53.07 180.99 52.08 178.74C51.08 176.5 50.59 174.03 50.61 171.59C50.61 171.58 50.61 171.53 50.61 171.52C50.61 171.46 50.62 171.4 50.62 171.34C50.67 170.81 50.88 168.18 51.27 163.44C51.26 163.59 51.26 163.67 51.26 163.69C51.29 160.73 51.64 157.71 52.47 154.77C53.31 151.83 54.65 148.99 56.43 146.47C58.21 143.95 60.44 141.78 62.88 140.04C65.32 138.28 67.97 136.94 70.67 135.88C76.07 133.75 81.66 132.7 87.21 132.12C92.77 131.53 98.28 131.39 103.83 131.54C109.42 131.71 114.97 132.41 120.48 133.71C125.96 135.06 131.41 137.11 136.3 140.43C138.74 142.09 141.03 144.08 142.95 146.44C144.87 148.8 146.45 151.49 147.53 154.38C148.58 157.28 149.1 160.35 149.21 163.37C149.21 163.46 149.22 163.7 149.24 164.07Z" id="f1tCQalZB0"></path><path d="M59.34 128.72C59.34 114.11 77.54 102.27 100 102.27C122.46 102.27 140.66 114.11 140.66 128.72C140.66 143.33 122.46 155.18 100 155.18C77.54 155.18 59.34 143.33 59.34 128.72" id="l3MhmxSDmj"></path><path d="M62.34 128.77C62.35 128.93 62.41 129.59 62.51 130.7C62.58 131.34 62.85 132.11 63.04 133.03C63.19 133.47 63.41 133.94 63.61 134.45C63.71 134.7 63.82 134.96 63.92 135.23C64.07 135.49 64.22 135.75 64.38 136.02C65.55 138.2 67.52 140.68 70.44 142.93C73.33 145.19 77.08 147.26 81.48 148.83C82.59 149.2 83.74 149.53 84.9 149.9C86.09 150.18 87.3 150.47 88.54 150.76C89.79 150.96 91.07 151.17 92.36 151.38C93.65 151.49 94.9 151.64 96.26 151.74C96.98 151.76 97.69 151.78 98.42 151.8C98.49 151.8 98.86 151.81 99.51 151.83C99.84 151.84 100.02 151.85 100.06 151.85C100.18 151.85 99.97 151.85 100.02 151.85C100.02 151.85 100.04 151.85 100.08 151.84L100.21 151.84C100.37 151.84 100.45 151.83 100.47 151.83C101.86 151.77 103.27 151.81 104.69 151.67C106.1 151.51 107.55 151.47 108.97 151.19C109.68 151.08 110.4 150.96 111.12 150.85C111.84 150.73 112.55 150.53 113.27 150.37C116.15 149.76 118.96 148.76 121.73 147.61C124.46 146.39 127.06 144.88 129.45 143.09C131.76 141.24 133.82 139.08 135.29 136.64C136.05 135.45 136.59 134.09 137.01 132.84C137.13 132.21 137.34 131.7 137.46 130.98C137.48 130.73 137.65 128.74 137.67 128.49C137.65 128.93 137.66 128.58 137.66 128.66C137.66 128.65 137.65 128.63 137.65 128.59L137.64 128.46L137.62 128.21L137.58 127.69C137.54 127.07 137.52 126.72 137.51 126.66C137.41 125.97 137.21 125.3 137.08 124.62C136.66 123.29 136.15 121.97 135.4 120.74C133.95 118.26 131.91 116.06 129.6 114.16C127.22 112.33 124.62 110.76 121.88 109.5C119.11 108.3 116.28 107.25 113.38 106.59C112.66 106.43 111.95 106.22 111.22 106.09C110.5 105.96 109.77 105.84 109.05 105.71C107.6 105.41 106.21 105.35 104.81 105.17C103.42 105.01 101.85 105.03 100.41 104.95C99.14 104.93 97.65 105.04 96.31 105.07C90.84 105.41 85.75 106.51 81.31 108.13C76.87 109.74 73.1 111.89 70.22 114.25C67.32 116.58 65.38 119.12 64.24 121.35C64.09 121.62 63.94 121.89 63.79 122.15C63.69 122.42 63.59 122.69 63.5 122.95C63.31 123.46 63.09 123.95 62.96 124.38C62.87 124.8 62.79 125.18 62.7 125.53C62.63 125.91 62.49 126.12 62.49 126.57C62.41 127.7 62.36 128.44 62.34 128.77M56.55 126.11C56.55 125.76 56.73 125.14 56.84 124.58C56.98 124 57.14 123.36 57.3 122.68C57.51 122.03 57.79 121.41 58.07 120.7C58.21 120.36 58.35 120 58.5 119.64C58.7 119.29 58.89 118.94 59.1 118.58C60.66 115.66 63.21 112.53 66.69 109.83C70.16 107.11 74.49 104.74 79.46 102.97C84.42 101.2 90.02 100.05 95.99 99.72C97.51 99.68 98.92 99.6 100.59 99.61C102.08 99.68 103.49 99.64 105.09 99.79C106.68 99.95 108.33 100.02 109.89 100.32C110.68 100.45 111.48 100.58 112.28 100.71C113.08 100.84 113.87 101.06 114.67 101.24C117.87 101.93 121.04 103.04 124.18 104.36C127.3 105.75 130.32 107.5 133.16 109.64C138.67 114.05 143.63 120.45 143.65 128.95C143.63 129.2 143.49 131.2 143.47 131.45C143.35 132.37 143.08 133.46 142.85 134.46C142.27 136.37 141.55 138.12 140.57 139.75C138.65 143.01 136.09 145.73 133.32 148C130.48 150.19 127.45 151.98 124.33 153.42C121.19 154.79 118 155.95 114.78 156.68C113.98 156.87 113.18 157.1 112.38 157.24C111.57 157.38 110.77 157.52 109.97 157.66C108.38 157.99 106.78 158.07 105.21 158.26C103.64 158.43 102.07 158.41 100.52 158.49C100.5 158.49 100.41 158.5 100.23 158.5L100.09 158.51L100.02 158.51L99.84 158.51L99.29 158.49C98.64 158.46 98.27 158.45 98.2 158.45C97.47 158.42 96.76 158.4 96.04 158.37C89.84 157.99 84.32 156.78 79.28 154.96C74.28 153.15 69.93 150.69 66.48 147.89C63 145.11 60.49 141.9 58.95 138.94C58.76 138.57 58.56 138.22 58.38 137.87C58.23 137.5 58.09 137.14 57.95 136.79C57.69 136.08 57.41 135.43 57.22 134.81C56.93 133.51 56.62 132.43 56.53 131.52C56.4 129.7 56.34 128.72 56.34 128.72C56.33 128.68 56.33 128.63 56.34 128.58C56.35 128.49 56.42 127.66 56.55 126.11Z" id="b2WKQ9b91"></path><path d="M59.34 101.14C59.34 86.53 77.54 74.69 100 74.69C122.46 74.69 140.66 86.53 140.66 101.14C140.66 115.76 122.46 127.6 100 127.6C77.54 127.6 59.34 115.76 59.34 101.14" id="aVbYUnCxr"></path><path d="M62.34 101.14C62.34 101.14 62.4 101.83 62.52 103.12C62.58 103.76 62.85 104.53 63.04 105.45C63.19 105.9 63.41 106.36 63.61 106.87C63.71 107.12 63.81 107.39 63.92 107.65C64.07 107.91 64.22 108.17 64.38 108.44C65.55 110.62 67.52 113.1 70.44 115.35C73.33 117.61 77.08 119.68 81.48 121.25C82.59 121.63 83.74 121.95 84.9 122.32C86.09 122.61 87.3 122.89 88.54 123.18C89.79 123.39 91.07 123.59 92.36 123.8C93.65 123.91 94.9 124.06 96.26 124.16C96.97 124.18 97.7 124.2 98.42 124.22C98.49 124.22 98.86 124.23 99.51 124.25C99.84 124.26 100.02 124.27 100.06 124.27C100.18 124.27 99.97 124.27 100.02 124.27C100.02 124.27 100.04 124.27 100.08 124.27L100.21 124.26C100.37 124.26 100.45 124.26 100.47 124.26C101.86 124.19 103.27 124.23 104.69 124.09C106.1 123.94 107.55 123.89 108.97 123.62C109.68 123.5 110.4 123.39 111.12 123.27C111.84 123.15 112.55 122.95 113.27 122.8C116.15 122.18 118.96 121.18 121.73 120.03C124.46 118.81 127.06 117.3 129.45 115.51C131.76 113.66 133.82 111.51 135.29 109.06C136.05 107.87 136.59 106.51 137.01 105.26C137.13 104.63 137.34 104.12 137.46 103.4C137.48 103.15 137.65 101.16 137.67 100.91C137.65 101.36 137.66 101 137.66 101.08C137.66 101.08 137.65 101.05 137.65 101.02L137.64 100.89L137.62 100.63L137.58 100.11C137.54 99.49 137.52 99.15 137.51 99.08C137.41 98.39 137.21 97.73 137.08 97.04C136.66 95.71 136.15 94.39 135.4 93.16C133.95 90.68 131.91 88.48 129.6 86.58C127.22 84.75 124.62 83.19 121.88 81.92C119.11 80.72 116.28 79.68 113.38 79.02C112.66 78.85 111.95 78.64 111.22 78.51C110.5 78.38 109.77 78.26 109.05 78.13C107.6 77.83 106.21 77.78 104.81 77.6C103.42 77.44 101.85 77.45 100.41 77.37C99.14 77.35 97.65 77.46 96.31 77.49C90.84 77.83 85.75 78.93 81.31 80.55C76.87 82.16 73.1 84.32 70.22 86.67C67.32 89 65.38 91.55 64.24 93.77C64.09 94.05 63.94 94.31 63.79 94.57C63.69 94.85 63.59 95.11 63.5 95.37C63.31 95.88 63.09 96.37 62.96 96.8C62.87 97.22 62.79 97.6 62.7 97.95C62.63 98.33 62.49 98.54 62.49 98.99C62.38 100.55 62.33 101.38 62.33 101.38C62.33 101.33 62.33 101.19 62.34 101.14ZM56.35 100.91C56.35 100.91 56.42 100.08 56.55 98.53C56.55 98.18 56.73 97.56 56.84 97.01C56.98 96.42 57.14 95.79 57.3 95.1C57.51 94.45 57.79 93.83 58.07 93.13C58.21 92.78 58.35 92.43 58.5 92.06C58.7 91.72 58.89 91.36 59.1 91C60.66 88.08 63.21 84.95 66.69 82.25C70.16 79.53 74.49 77.17 79.46 75.39C84.42 73.62 90.02 72.47 95.99 72.14C97.51 72.11 98.92 72.02 100.59 72.04C102.08 72.1 103.49 72.06 105.09 72.21C106.68 72.38 108.33 72.44 109.89 72.75C110.68 72.87 111.48 73 112.28 73.13C113.08 73.27 113.87 73.48 114.67 73.66C117.87 74.35 121.04 75.46 124.18 76.78C127.3 78.18 130.32 79.92 133.16 82.07C138.67 86.47 143.63 92.87 143.65 101.38C143.63 101.63 143.49 103.62 143.47 103.87C143.35 104.79 143.08 105.88 142.85 106.88C142.27 108.79 141.55 110.54 140.57 112.17C138.65 115.44 136.09 118.15 133.32 120.42C130.48 122.61 127.45 124.4 124.33 125.85C121.19 127.21 118 128.37 114.78 129.11C113.98 129.29 113.18 129.52 112.38 129.67C111.57 129.81 110.77 129.95 109.98 130.09C108.38 130.41 106.78 130.49 105.21 130.68C103.64 130.85 102.07 130.83 100.52 130.91C100.5 130.92 100.41 130.92 100.23 130.93L100.09 130.93L100.02 130.93L99.84 130.93L99.29 130.91C98.64 130.89 98.27 130.87 98.2 130.87C97.48 130.84 96.76 130.82 96.04 130.79C89.84 130.41 84.32 129.21 79.28 127.38C74.28 125.57 69.93 123.12 66.48 120.31C63 117.53 60.49 114.33 58.95 111.36C58.76 111 58.56 110.64 58.38 110.29C58.23 109.92 58.09 109.56 57.95 109.21C57.69 108.51 57.41 107.86 57.22 107.23C56.93 105.94 56.62 104.85 56.53 103.94C56.4 102.12 56.34 101.14 56.34 101.14C56.34 101.1 56.34 100.96 56.35 100.91Z" id="a2aQc8bHaP"></path><path d="M147.09 66.51C147.09 88.66 126.01 106.62 100 106.62C73.99 106.62 52.91 88.66 52.91 66.51C52.91 44.35 73.99 26.4 100 26.4C126.01 26.4 147.09 44.35 147.09 66.51" id="efiM4c9cA"></path><path d="M144.09 66.51C144.09 66.51 144.02 65.53 143.9 63.7C143.9 62.78 143.61 61.68 143.38 60.37C143.23 59.04 142.64 57.61 142.18 55.97C140.96 52.78 139.05 49.01 135.92 45.33C132.82 41.65 128.54 38.09 123.22 35.31C122.55 34.96 121.88 34.61 121.19 34.26C120.49 33.95 119.77 33.68 119.04 33.38C118.31 33.1 117.6 32.75 116.84 32.52C116.08 32.28 115.31 32.05 114.53 31.81C113 31.26 111.35 31.03 109.72 30.64C108.08 30.29 106.46 30.2 104.79 29.94C103.9 29.88 102.95 29.86 102.03 29.81C101.93 29.81 101.47 29.79 100.63 29.76C100.2 29.74 99.97 29.73 99.92 29.73C99.76 29.73 100.03 29.73 99.98 29.73C99.97 29.73 99.94 29.73 99.89 29.73L99.73 29.74C99.53 29.75 99.42 29.75 99.4 29.75C98.51 29.79 97.61 29.82 96.72 29.86C96.27 29.88 95.81 29.88 95.36 29.91C95.23 29.93 94.15 30.07 94.02 30.08C93.11 30.2 92.21 30.31 91.3 30.42C90.39 30.58 89.5 30.8 88.59 30.98C86.76 31.3 85 31.95 83.19 32.47C76.11 34.96 69.25 39.14 64.2 45.11C61.72 48.1 59.51 51.4 58.15 55.07C57.73 55.95 57.55 56.92 57.23 57.84C57.09 58.31 56.92 58.77 56.8 59.24C56.79 59.33 56.7 59.79 56.55 60.61C56.4 61.43 56.31 61.89 56.29 61.98C56.25 62.21 56.19 62.42 56.16 62.68C56.16 62.73 56.14 63 56.11 63.48C55.99 65.4 55.92 66.47 55.91 66.68C55.92 66.36 55.91 66.65 55.92 66.6C55.92 66.61 55.92 66.64 55.92 66.69L55.93 66.87L55.95 67.24L55.99 67.97C56.04 68.85 56.07 69.34 56.07 69.44C56.06 70.42 56.35 71.37 56.48 72.34C56.5 72.49 56.7 73.64 56.73 73.79C56.84 74.26 57 74.73 57.14 75.2C57.45 76.13 57.62 77.1 58.03 77.99C59.36 81.69 61.54 85.03 64.01 88.06C69.03 94.13 75.9 98.42 83.03 101C84.85 101.55 86.62 102.23 88.47 102.57C89.38 102.76 90.29 103 91.19 103.16C92.09 103.28 92.98 103.4 93.87 103.52C94 103.54 95.06 103.69 95.2 103.71C95.66 103.75 96.15 103.76 96.62 103.79C97.58 103.83 98.53 103.88 99.47 103.92C99.51 103.92 99.71 103.93 100.06 103.95L100.73 103.92C101.53 103.88 101.98 103.86 102.07 103.85C102.95 103.81 103.84 103.78 104.71 103.72C111.69 103.04 118.1 101.01 123.46 98.16C128.83 95.33 133.12 91.67 136.19 87.91C139.29 84.15 141.15 80.32 142.33 77.1C142.77 75.45 143.34 73.96 143.46 72.72C143.66 71.45 143.94 70.49 143.93 69.41C144.04 67.4 144.09 66.33 144.09 66.33C144.09 66.37 144.09 66.47 144.09 66.51ZM150.08 66.68C150.08 66.68 150.01 67.75 149.88 69.76C149.88 70.7 149.56 72.16 149.28 73.76C149.06 75.42 148.41 77.08 147.83 79.04C146.41 82.83 144.14 87.26 140.53 91.53C136.93 95.79 132.03 99.86 126.02 103.01C120.01 106.16 112.89 108.36 105.19 109.06C104.22 109.13 103.25 109.15 102.28 109.19C102.18 109.2 101.69 109.22 100.81 109.25L100.07 109.28C99.57 109.27 99.3 109.26 99.24 109.26C98.3 109.22 97.35 109.18 96.39 109.15C95.91 109.12 95.44 109.12 94.95 109.08C94.79 109.06 93.56 108.92 93.41 108.9C92.38 108.77 91.34 108.64 90.3 108.51C89.27 108.33 88.28 108.09 87.26 107.88C85.21 107.52 83.23 106.81 81.21 106.21C73.25 103.41 65.48 98.69 59.62 91.78C56.74 88.32 54.18 84.45 52.55 80.11C52.07 79.06 51.83 77.92 51.46 76.82C51.29 76.26 51.1 75.71 50.96 75.15C50.93 74.98 50.68 73.61 50.65 73.44C50.47 72.29 50.15 71.16 50.13 69.99C50.12 69.88 50.09 69.3 50.02 68.25L49.96 67.38L49.94 66.94L49.92 66.72C49.92 66.66 49.92 66.62 49.92 66.62C49.92 66.5 49.91 66.72 49.92 66.33C49.93 66.12 49.99 65.05 50.09 63.12C50.12 62.64 50.13 62.37 50.14 62.32C50.16 62.04 50.22 61.73 50.27 61.43C50.29 61.31 50.39 60.71 50.57 59.64C50.76 58.57 50.87 57.97 50.89 57.85C51.03 57.27 51.21 56.73 51.37 56.17C51.73 55.07 51.96 53.91 52.44 52.86C54.03 48.49 56.57 44.58 59.43 41.08C65.26 34.07 73.04 29.24 81.05 26.35C83.08 25.72 85.08 24.98 87.14 24.6C88.16 24.38 89.18 24.12 90.19 23.94C91.22 23.8 92.24 23.66 93.26 23.53C93.41 23.51 94.63 23.34 94.78 23.32C95.29 23.28 95.8 23.27 96.3 23.24C97.31 23.19 98.32 23.14 99.32 23.09C99.34 23.09 99.47 23.09 99.69 23.08L99.88 23.07L99.97 23.07L100.21 23.07L100.91 23.1C101.75 23.14 102.22 23.16 102.31 23.17C103.25 23.21 104.16 23.24 105.11 23.31C107.08 23.59 109.1 23.75 110.96 24.15C112.81 24.59 114.66 24.88 116.4 25.51C117.28 25.78 118.15 26.06 119.01 26.33C119.88 26.6 120.69 27 121.52 27.32C122.34 27.67 123.16 27.99 123.95 28.35C124.73 28.75 125.5 29.15 126.26 29.54C132.33 32.74 137.23 36.91 140.79 41.26C144.38 45.61 146.6 50.1 147.99 53.92C148.54 55.88 149.17 57.6 149.36 59.18C149.61 60.75 149.92 62.06 149.91 63.16C150.03 65.34 150.09 66.51 150.09 66.51C150.09 66.54 150.08 66.65 150.08 66.68Z" id="bgnpwJiSe"></path><path d="M102.45 26.4C102.78 51.76 102.96 65.85 103 68.67C103.02 70.33 101.69 71.68 100.04 71.71C98.38 71.73 97.02 70.4 97 68.75C97 68.73 97 68.69 97 68.67C97.05 64.44 97.49 30.62 97.54 26.4C97.56 25.04 98.67 23.96 100.03 23.97C101.36 23.99 102.43 25.07 102.45 26.4" id="f5SNVvV5x"></path><path d="M120.89 30.19C120.89 30.19 120.93 32.31 120.99 36.01C121.04 39.71 121.19 45.01 121.24 51.36C121.27 54.53 121.3 57.97 121.34 61.61C121.36 63.43 121.38 65.29 121.39 67.2C121.4 67.68 121.4 68.16 121.4 68.64C121.4 68.7 121.4 68.96 121.39 69.44C121.38 69.89 121.37 70.15 121.37 70.2C121.31 71.43 121.15 72.5 120.92 73.64C119.96 78.15 117.42 82.46 113.7 85.55C110 88.67 105.12 90.5 100.21 90.54C95.29 90.6 90.37 88.86 86.62 85.81C82.84 82.8 80.21 78.53 79.17 74.05C78.9 72.93 78.74 71.8 78.66 70.67C78.61 70.11 78.61 69.54 78.6 69C78.6 68.52 78.6 68.04 78.6 67.56C78.62 65.65 78.64 63.78 78.66 61.96C78.69 58.33 78.73 54.89 78.76 51.71C78.8 45.36 78.95 40.07 79 36.37C79.07 32.66 79.11 30.55 79.11 30.55C79.13 29.22 80.23 28.17 81.55 28.19C82.85 28.21 83.88 29.26 83.91 30.55C83.91 30.55 83.95 32.66 84.01 36.37C84.06 40.07 84.21 45.36 84.25 51.71C84.29 54.89 84.32 58.33 84.36 61.96C84.38 63.78 84.4 65.65 84.41 67.56C84.42 68.04 84.42 68.52 84.42 69C84.43 69.42 84.43 69.82 84.47 70.24C84.54 71.06 84.66 71.88 84.86 72.69C85.63 75.93 87.56 79.01 90.32 81.19C93.05 83.38 96.59 84.6 100.15 84.54C103.71 84.53 107.21 83.24 109.92 81C112.63 78.77 114.49 75.65 115.2 72.39C115.38 71.6 115.5 70.71 115.55 70C115.55 69.95 115.56 69.72 115.57 69.3C115.58 68.91 115.58 68.69 115.58 68.64C115.58 68.16 115.58 67.68 115.59 67.2C115.61 65.29 115.62 63.43 115.64 61.61C115.68 57.97 115.71 54.53 115.75 51.36C115.79 45.01 115.93 39.71 115.99 36.01C116.05 32.31 116.09 30.19 116.09 30.19C116.11 28.87 117.21 27.81 118.53 27.83C119.83 27.86 120.86 28.91 120.89 30.19" id="b3jE4TeLF"></path></defs><g><g><g><use xlink:href="#b1HkEsb1lx" opacity="1" fill="#ffffff" fill-opacity="1"></use><g><use xlink:href="#b1HkEsb1lx" opacity="1" fill-opacity="0" stroke="#000000" stroke-width="1" stroke-opacity="0"></use></g></g><g><use xlink:href="#f1tCQalZB0" opacity="1" fill="#1d1d1b" fill-opacity="1"></use><g><use xlink:href="#f1tCQalZB0" opacity="1" fill-opacity="0" stroke="#000000" stroke-width="1" stroke-opacity="0"></use></g></g><g><use xlink:href="#l3MhmxSDmj" opacity="1" fill="#ffffff" fill-opacity="1"></use><g><use xlink:href="#l3MhmxSDmj" opacity="1" fill-opacity="0" stroke="#000000" stroke-width="1" stroke-opacity="0"></use></g></g><g><use xlink:href="#b2WKQ9b91" opacity="1" fill="#1d1d1b" fill-opacity="1"></use><g><use xlink:href="#b2WKQ9b91" opacity="1" fill-opacity="0" stroke="#000000" stroke-width="1" stroke-opacity="0"></use></g></g><g><use xlink:href="#aVbYUnCxr" opacity="1" fill="#ffffff" fill-opacity="1"></use><g><use xlink:href="#aVbYUnCxr" opacity="1" fill-opacity="0" stroke="#000000" stroke-width="1" stroke-opacity="0"></use></g></g><g><use xlink:href="#a2aQc8bHaP" opacity="1" fill="#1d1d1b" fill-opacity="1"></use><g><use xlink:href="#a2aQc8bHaP" opacity="1" fill-opacity="0" stroke="#000000" stroke-width="1" stroke-opacity="0"></use></g></g><g><use xlink:href="#efiM4c9cA" opacity="1" fill="#ffffff" fill-opacity="1"></use><g><use xlink:href="#efiM4c9cA" opacity="1" fill-opacity="0" stroke="#000000" stroke-width="1" stroke-opacity="0"></use></g></g><g><use xlink:href="#bgnpwJiSe" opacity="1" fill="#1d1d1b" fill-opacity="1"></use><g><use xlink:href="#bgnpwJiSe" opacity="1" fill-opacity="0" stroke="#000000" stroke-width="1" stroke-opacity="0"></use></g></g><g><use xlink:href="#f5SNVvV5x" opacity="1" fill="#1d1d1b" fill-opacity="1"></use><g><use xlink:href="#f5SNVvV5x" opacity="1" fill-opacity="0" stroke="#000000" stroke-width="1" stroke-opacity="0"></use></g></g><g><use xlink:href="#b3jE4TeLF" opacity="1" fill="#1d1d1b" fill-opacity="1"></use><g><use xlink:href="#b3jE4TeLF" opacity="1" fill-opacity="0" stroke="#000000" stroke-width="1" stroke-opacity="0"></use></g></g></g></g></svg>