<?xml version="1.0" encoding="UTF-8" standalone="no"?>
<!DOCTYPE svg PUBLIC "-//W3C//DTD SVG 1.1//EN" "http://www.w3.org/Graphics/SVG/1.1/DTD/svg11.dtd">
<svg version="1.1" xmlns="http://www.w3.org/2000/svg" xmlns:xlink="http://www.w3.org/1999/xlink" preserveAspectRatio="xMidYMid meet" viewBox="0 0 200 200" width="200" height="200"><defs><path d="M181.01 106.52C181.01 150.7 145.2 186.52 101.02 186.52C56.84 186.52 21.03 150.7 21.03 106.52C21.03 62.35 56.84 26.53 101.02 26.53C145.2 26.53 181.01 62.35 181.01 106.52" id="d4oBZpTQj5"></path><path d="M101.02 186.52C56.84 186.52 21.03 150.7 21.03 106.52C21.03 62.35 56.84 26.53 101.02 26.53C145.2 26.53 181.01 62.35 181.01 106.52C181.01 150.7 145.2 186.52 101.02 186.52Z" id="bfvCZI7mX"></path><path d="M101.02 48.75L101.02 26.53" id="b301b7Qu4j"></path><path d="M65.55 59.34C75.84 52.78 88 48.75 101.03 48.75C114.22 48.75 126.52 52.63 136.89 59.34" id="b3STcqQEET"></path><path d="M64.36 57.33C64.36 57.33 65.35 56.69 67.08 55.57C67.91 55 69.07 54.36 70.41 53.64C71.08 53.28 71.79 52.89 72.53 52.49C73.3 52.14 74.1 51.78 74.94 51.4C76.6 50.6 78.48 49.95 80.47 49.22C81.45 48.83 82.5 48.57 83.57 48.25C84.64 47.96 85.72 47.61 86.86 47.4C87.99 47.17 89.14 46.95 90.31 46.71C91.47 46.47 92.68 46.4 93.88 46.23C95.09 46.07 96.3 45.93 97.53 45.91C97.65 45.9 98.27 45.87 99.38 45.82L100.3 45.78L100.76 45.76L101 45.75C101.19 45.76 101.31 45.76 101.33 45.76C103.7 45.89 105.97 45.88 108.5 46.25C110.99 46.46 113.3 46.97 115.57 47.4C116.7 47.63 117.79 47.96 118.86 48.26C119.93 48.56 120.98 48.83 121.97 49.22C123.96 49.93 125.84 50.59 127.5 51.39C128.34 51.76 129.15 52.12 129.91 52.46C130.65 52.87 131.35 53.25 132 53.6C133.32 54.31 134.45 54.94 135.34 55.54C137.13 56.71 138.15 57.38 138.15 57.38C139.23 58.08 139.54 59.52 138.83 60.6C138.16 61.62 136.83 61.95 135.78 61.38C135.76 61.37 135.64 61.3 135.62 61.3C135.62 61.3 134.62 60.75 132.87 59.8C132.02 59.29 130.93 58.78 129.67 58.21C129.04 57.91 128.38 57.6 127.68 57.27C126.96 56.99 126.2 56.69 125.41 56.38C123.86 55.7 122.1 55.16 120.25 54.58C119.34 54.26 118.36 54.05 117.37 53.81C116.38 53.6 115.39 53.28 114.35 53.09C112.27 52.73 110.11 52.28 107.97 52.13C105.89 51.83 103.44 51.84 101.11 51.76C100.02 51.79 98.93 51.82 97.85 51.85C96.73 51.86 95.62 51.97 94.52 52.1C93.42 52.25 92.32 52.29 91.26 52.5C90.19 52.7 89.14 52.9 88.1 53.09C87.05 53.25 86.07 53.6 85.08 53.81C84.09 54.07 83.11 54.26 82.2 54.59C80.35 55.19 78.59 55.72 77.04 56.4C76.25 56.71 75.49 57.01 74.77 57.3C74.08 57.62 73.43 57.93 72.81 58.21C71.58 58.77 70.5 59.27 69.59 59.8C67.78 60.78 66.74 61.34 66.74 61.34C65.6 61.96 64.19 61.53 63.57 60.4C62.99 59.32 63.35 57.99 64.36 57.33" id="i1vJX03Xzb"></path><path d="M103.63 139.05C103.3 143.9 99.27 147.57 94.64 147.25C90.02 146.93 86.53 142.75 86.87 137.9C87.2 133.06 91.22 129.39 95.85 129.71C100.48 130.03 103.96 134.21 103.63 139.05" id="auaa1u9OI"></path><path d="M125.01 139.3C124.62 138.75 124.25 138.17 123.85 137.64C122.99 136.48 122.08 135.35 121.12 134.27C120.65 133.71 120.17 133.18 119.67 132.66C119.17 132.14 118.69 131.6 118.16 131.11C117.15 130.09 116.07 129.16 114.99 128.23C113.86 127.37 112.77 126.46 111.57 125.74C110.42 124.92 109.18 124.33 107.96 123.67C106.71 123.17 105.41 122.55 104.24 122.3C103.19 121.88 101.51 121.74 100.04 121.51C100.42 121.54 100.14 121.52 100.22 121.53C100.22 121.53 100.21 121.53 100.21 121.53L100.17 121.53L100.11 121.53L99.99 121.53L99.74 121.53L99.24 121.53C98.64 121.52 98.31 121.52 98.25 121.52C97.58 121.47 96.92 121.61 96.25 121.68C94.91 121.78 93.59 122.2 92.26 122.5C90.96 122.98 89.64 123.39 88.37 124.02C87.08 124.56 85.85 125.31 84.61 125.99C83.4 126.75 82.19 127.52 81.03 128.39C80.43 128.79 79.87 129.25 79.3 129.7C78.73 130.14 78.17 130.6 77.62 131.08C76.51 132.02 75.44 133.01 74.41 134.03C73.38 135.03 72.34 136.13 71.48 137.15C71.5 136.84 71.66 134.43 71.68 134.12C72.4 135.24 73.28 136.48 74.16 137.61C75.04 138.77 75.97 139.89 76.94 140.97C77.42 141.52 77.91 142.06 78.42 142.57C78.92 143.09 79.42 143.62 79.95 144.11C80.98 145.12 82.07 146.05 83.17 146.97C84.31 147.82 85.42 148.72 86.63 149.43C87.79 150.24 89.05 150.82 90.27 151.47C91.54 151.95 92.84 152.56 94.02 152.8C94.64 152.96 95.16 153.18 95.98 153.24C96.18 153.27 97.83 153.5 98.04 153.53C99.37 153.48 100.69 153.59 102.02 153.32C103.35 153.21 104.67 152.78 105.99 152.46C107.28 151.97 108.59 151.55 109.85 150.9C111.13 150.35 112.34 149.6 113.57 148.9C114.77 148.13 115.96 147.35 117.11 146.48C117.7 146.07 118.25 145.6 118.81 145.15C119.38 144.71 119.93 144.24 120.47 143.76C121.56 142.81 122.62 141.82 123.64 140.79C124.11 140.32 124.55 139.79 125.01 139.3M127.84 145C126.71 146.12 125.54 147.2 124.33 148.23C123.74 148.75 123.12 149.26 122.49 149.74C121.86 150.23 121.25 150.74 120.59 151.19C119.31 152.15 117.95 153.01 116.59 153.86C115.18 154.66 113.79 155.49 112.28 156.13C110.82 156.86 109.23 157.37 107.68 157.92C106.05 158.32 104.46 158.8 102.75 158.94C101.09 159.25 99.36 159.13 97.65 159.14C97.41 159.1 95.46 158.83 95.21 158.79C94.51 158.73 93.59 158.46 92.74 158.23C90.94 157.81 89.49 157.11 87.93 156.48C86.48 155.7 84.99 154.97 83.66 154.04C82.26 153.19 81.02 152.17 79.74 151.18C78.52 150.15 77.31 149.09 76.19 147.97C75.6 147.42 75.07 146.83 74.52 146.26C73.97 145.69 73.44 145.1 72.93 144.5C71.88 143.31 70.89 142.08 69.94 140.82C68.98 139.54 68.1 138.3 67.2 136.85C66.6 135.88 66.72 134.66 67.41 133.83C68.5 132.52 69.54 131.41 70.67 130.28C71.78 129.15 72.93 128.07 74.13 127.04C74.72 126.51 75.32 126 75.95 125.51C76.57 125.02 77.17 124.51 77.83 124.05C79.09 123.09 80.43 122.21 81.79 121.35C83.18 120.55 84.56 119.7 86.06 119.05C87.51 118.31 89.08 117.79 90.63 117.22C92.24 116.81 93.83 116.31 95.53 116.15C96.37 116.05 97.2 115.89 98.06 115.92C98.14 115.92 98.57 115.92 99.34 115.91L99.98 115.91L100.3 115.91L100.46 115.91L100.54 115.91L100.58 115.91C100.59 115.91 100.6 115.91 100.6 115.91C100.69 115.92 100.42 115.89 100.81 115.93C102.34 116.17 103.72 116.22 105.55 116.78C107.36 117.18 108.82 117.87 110.38 118.49C111.85 119.25 113.35 119.97 114.69 120.89C116.1 121.73 117.36 122.75 118.65 123.72C119.89 124.75 121.11 125.8 122.25 126.92C122.85 127.46 123.39 128.04 123.94 128.61C124.5 129.18 125.04 129.77 125.56 130.37C126.62 131.55 127.63 132.77 128.59 134.04C129.57 135.31 130.47 136.54 131.4 138C132.1 139.11 131.97 140.51 131.16 141.46C130.06 142.76 128.98 143.88 127.84 145Z" id="f1cMV2j1A"></path><path d="M19.49 105.86C19.49 105.86 19.84 105.42 20.51 104.59C20.85 104.17 21.23 103.66 21.76 103.06C22.31 102.45 22.95 101.75 23.66 100.97C24.37 100.2 25.21 99.43 26.1 98.55C27.01 97.7 28.05 96.84 29.14 95.89C31.41 94.13 34.01 92.16 37.1 90.43C40.17 88.67 43.62 86.96 47.44 85.6C51.26 84.23 55.41 83.13 59.77 82.43C64.12 81.71 68.76 81.43 73.31 81.6C78.08 81.8 82.71 82.53 87.31 83.77C91.88 85.01 96.33 86.75 100.44 88.97C104.57 91.17 108.38 93.79 111.78 96.68C118.56 102.49 123.56 109.38 126.68 115.84C128.26 119.06 129.39 122.18 130.21 124.99C130.97 127.82 131.48 130.33 131.74 132.42C132.01 134.51 132.14 136.17 132.16 137.3C132.19 138.43 132.21 139.03 132.21 139.03C132.27 140.68 130.97 142.07 129.31 142.12C127.66 142.18 126.27 140.88 126.22 139.22C126.22 139.22 126.22 139.21 126.22 139.2C126.22 139.1 126.21 139.04 126.21 139.03C126.21 139.03 126.2 138.5 126.18 137.5C126.17 136.5 126.07 135.03 125.85 133.18C125.65 131.32 125.22 129.09 124.56 126.56C123.86 124.05 122.88 121.25 121.49 118.34C118.75 112.51 114.29 106.21 108.17 100.85C105.1 98.19 101.64 95.76 97.89 93.7C94.15 91.63 90.1 90 85.91 88.82C81.75 87.64 77.36 86.91 73.18 86.7C68.79 86.48 64.6 86.7 60.53 87.33C56.48 87.94 52.62 88.92 49.07 90.15C45.52 91.38 42.31 92.94 39.45 94.53C36.57 96.1 34.16 97.9 32.04 99.5C31.03 100.37 30.06 101.15 29.22 101.93C28.4 102.73 27.6 103.44 26.96 104.12C26.32 104.8 25.75 105.41 25.26 105.94C24.77 106.49 24.35 107.03 24.02 107.43C23.34 108.26 22.98 108.69 22.98 108.69C22.19 109.66 20.78 109.8 19.81 109.01C18.86 108.23 18.72 106.82 19.49 105.86" id="b27icnkK4"></path></defs><g><g><g><use xlink:href="#d4oBZpTQj5" opacity="1" fill="#ffffff" fill-opacity="1"></use><g><use xlink:href="#d4oBZpTQj5" opacity="1" fill-opacity="0" stroke="#000000" stroke-width="1" stroke-opacity="0"></use></g></g><g><use xlink:href="#bfvCZI7mX" opacity="1" fill="#000000" fill-opacity="0"></use><g><use xlink:href="#bfvCZI7mX" opacity="1" fill-opacity="0" stroke="#1d1d1b" stroke-width="5" stroke-opacity="1"></use></g></g><g><use xlink:href="#b301b7Qu4j" opacity="1" fill="#000000" fill-opacity="0"></use><g><use xlink:href="#b301b7Qu4j" opacity="1" fill-opacity="0" stroke="#1d1d1b" stroke-width="4.5" stroke-opacity="1"></use></g></g><g><use xlink:href="#b3STcqQEET" opacity="1" fill="#ffffff" fill-opacity="1"></use><g><use xlink:href="#b3STcqQEET" opacity="1" fill-opacity="0" stroke="#000000" stroke-width="1" stroke-opacity="0"></use></g></g><g><use xlink:href="#i1vJX03Xzb" opacity="1" fill="#1d1d1b" fill-opacity="1"></use><g><use xlink:href="#i1vJX03Xzb" opacity="1" fill-opacity="0" stroke="#000000" stroke-width="1" stroke-opacity="0"></use></g></g><g><use xlink:href="#auaa1u9OI" opacity="1" fill="#1d1d1b" fill-opacity="1"></use><g><use xlink:href="#auaa1u9OI" opacity="1" fill-opacity="0" stroke="#000000" stroke-width="1" stroke-opacity="0"></use></g></g><g><use xlink:href="#f1cMV2j1A" opacity="1" fill="#1d1d1b" fill-opacity="1"></use><g><use xlink:href="#f1cMV2j1A" opacity="1" fill-opacity="0" stroke="#000000" stroke-width="1" stroke-opacity="0"></use></g></g><g><use xlink:href="#b27icnkK4" opacity="1" fill="#1d1d1b" fill-opacity="1"></use><g><use xlink:href="#b27icnkK4" opacity="1" fill-opacity="0" stroke="#000000" stroke-width="1" stroke-opacity="0"></use></g></g></g></g></svg>