<?xml version="1.0" encoding="UTF-8" standalone="no"?>
<!DOCTYPE svg PUBLIC "-//W3C//DTD SVG 1.1//EN" "http://www.w3.org/Graphics/SVG/1.1/DTD/svg11.dtd">
<svg version="1.1" xmlns="http://www.w3.org/2000/svg" xmlns:xlink="http://www.w3.org/1999/xlink" preserveAspectRatio="xMidYMid meet" viewBox="0 0 200 200" width="200" height="200"><defs><path d="M20 163.77C20 141.3 55.65 133.89 99.83 133.89C144 133.89 180 143.94 180 164.28C180 178.03 167.64 186.51 152.18 186.51C134.85 186.51 124.18 177.49 124.18 163.74C124.18 176.39 115.52 184.54 100.18 184.54C83.52 184.54 76.19 176.39 76.19 163.74C76.19 177.49 64.52 186.51 47.86 186.51C32.4 186.51 20 177.52 20 163.77" id="i3jngRSNq7"></path><path d="M23.34 163.77C23.34 166.65 24.02 169.44 25.35 171.91C26.68 174.38 28.65 176.53 31.02 178.22C33.38 179.92 36.14 181.18 39.05 182C40.51 182.4 42.01 182.7 43.53 182.9C45.06 183.09 46.52 183.18 48.13 183.18C51.26 183.2 54.36 182.86 57.32 182.12C60.28 181.37 63.07 180.15 65.5 178.51C67.93 176.85 69.94 174.69 71.31 172.16C72.71 169.64 73.45 166.74 73.52 163.74C73.52 163.73 73.52 163.66 73.52 163.65C73.56 162.18 74.78 161.02 76.25 161.05C77.71 161.09 78.86 162.29 78.85 163.74C78.85 163.74 78.85 163.74 78.85 163.74C79.01 166.49 79.45 169.17 80.48 171.5C81.46 173.83 82.96 175.81 84.94 177.26C86.91 178.71 89.28 179.75 91.88 180.36C93.17 180.67 94.51 180.89 95.88 181.02C97.3 181.15 98.51 181.21 100.09 181.2C101.39 181.21 102.83 181.16 104.17 181.02C105.53 180.88 106.85 180.65 108.14 180.32C110.71 179.67 113.08 178.58 115.1 177.11C117.11 175.62 118.68 173.66 119.74 171.36C120.85 169.08 121.36 166.45 121.51 163.74C121.87 163.74 123.65 163.74 126.85 163.74C126.85 163.74 126.85 163.74 126.85 163.74C126.93 166.22 127.37 168.65 128.28 170.85C129.19 173.04 130.51 175.03 132.2 176.68C135.6 179.98 140.32 181.92 145.3 182.71C146.55 182.91 147.82 183.04 149.09 183.13C149.74 183.15 150.29 183.19 150.99 183.19C151.06 183.19 151.4 183.2 152.02 183.2C152.57 183.19 152.88 183.18 152.94 183.18C155.48 183.11 158 182.81 160.43 182.2C165.27 181.04 169.73 178.63 172.74 175.1C174.24 173.34 175.34 171.31 175.98 169.11C176.3 168.04 176.51 166.8 176.58 165.77C176.68 164.44 176.67 163.42 176.51 162.31C175.94 157.95 172.84 154.08 168.77 151.14C164.71 148.18 159.83 146 154.82 144.26C149.78 142.53 144.53 141.24 139.21 140.23C128.56 138.24 117.64 137.31 106.72 137C101.27 136.84 95.75 136.87 90.29 137.04C84.81 137.2 79.34 137.49 73.91 137.98C68.48 138.47 63.07 139.14 57.75 140.11C52.43 141.08 47.19 142.36 42.22 144.15C37.28 145.95 32.54 148.3 28.94 151.58C27.15 153.22 25.7 155.09 24.74 157.14C24.26 158.17 23.91 159.24 23.67 160.35C23.56 160.9 23.48 161.47 23.41 162.04C23.41 162.09 23.39 162.35 23.36 162.81C23.34 163.33 23.34 163.65 23.34 163.77ZM16.67 163.68L16.7 162.65C16.76 161.87 16.79 161.44 16.8 161.36C16.89 160.55 17.02 159.75 17.19 158.95C17.54 157.36 18.08 155.79 18.79 154.32C20.19 151.37 22.25 148.83 24.56 146.76C29.21 142.61 34.65 140.09 40.08 138.15C45.53 136.23 51.09 134.96 56.65 133.97C62.21 132.99 67.8 132.33 73.38 131.86C78.96 131.39 84.55 131.13 90.13 131C95.71 130.88 101.25 130.85 106.87 130.96C118.04 131.21 129.24 132.09 140.35 134.1C145.9 135.12 151.43 136.4 156.87 138.22C162.29 140.06 167.68 142.35 172.6 145.86C175.05 147.62 177.38 149.72 179.29 152.31C181.19 154.88 182.62 158.01 183.11 161.32C183.37 162.95 183.37 164.71 183.27 166.14C183.15 167.86 182.89 169.36 182.44 170.95C181.56 174.07 180 177.01 177.92 179.47C173.73 184.44 167.87 187.33 162.01 188.73C159.06 189.44 156.05 189.79 153.07 189.83C152.68 189.82 152.36 189.84 151.91 189.83C151.81 189.82 150.98 189.8 150.88 189.8C150.19 189.78 149.37 189.72 148.63 189.67C147.15 189.54 145.67 189.36 144.19 189.09C141.24 188.54 138.3 187.66 135.51 186.34C132.73 185 130.1 183.2 127.91 180.9C125.72 178.61 123.99 175.85 122.94 172.88C121.86 169.9 121.47 166.78 121.51 163.74C121.51 163.74 121.51 163.74 121.51 163.74C121.42 162.27 122.54 161 124.01 160.91C125.48 160.82 126.74 161.93 126.83 163.4C126.83 163.41 126.83 163.42 126.83 163.43C126.84 163.62 126.85 163.72 126.85 163.74C127 167.03 126.53 170.46 125.25 173.72C123.94 176.95 121.76 179.92 119.01 182.12C116.28 184.35 113.04 185.77 109.81 186.65C108.18 187.09 106.54 187.39 104.91 187.58C103.26 187.77 101.69 187.86 99.99 187.87C98.56 187.86 96.76 187.76 95.19 187.59C93.56 187.41 91.93 187.12 90.31 186.71C87.07 185.89 83.78 184.53 81.01 182.26C78.22 180.03 76.09 176.94 74.91 173.67C73.74 170.37 73.38 166.98 73.52 163.74C73.52 163.74 73.52 163.74 73.52 163.74C76.72 163.74 78.5 163.74 78.85 163.74C78.95 167.47 78.2 171.35 76.49 174.82C74.78 178.29 72.15 181.28 69.09 183.53C66.02 185.79 62.54 187.33 58.99 188.33C55.43 189.31 51.79 189.78 48.18 189.84C46.42 189.86 44.51 189.76 42.69 189.54C40.87 189.32 39.05 188.97 37.26 188.48C33.68 187.51 30.18 185.96 27.06 183.74C23.96 181.51 21.25 178.56 19.41 175.07C17.55 171.59 16.64 167.62 16.67 163.77C16.67 163.76 16.67 163.73 16.67 163.72C16.67 163.71 16.67 163.69 16.67 163.68" id="ozE0EiibG"></path><path d="M180.15 90C180.15 125.05 144.34 153.46 100.16 153.46C55.98 153.46 20.17 125.05 20.17 90C20.17 54.95 55.98 26.53 100.16 26.53C144.34 26.53 180.15 54.95 180.15 90" id="h36NUW2Yw6"></path><path d="M100.16 153.46C55.98 153.46 20.17 125.05 20.17 90C20.17 54.95 55.98 26.53 100.16 26.53C144.34 26.53 180.15 54.95 180.15 90C180.15 125.05 144.34 153.46 100.16 153.46Z" id="cVAxX92Bd"></path><path d="M100.16 44.16L100.16 26.53" id="adkTKPZO"></path><path d="M64.69 52.56C74.98 47.36 87.14 44.16 100.17 44.16C113.36 44.16 125.66 47.24 136.03 52.56" id="b1z2YVbEvv"></path><path d="M63.7 50.45C63.7 50.45 64.72 49.91 66.52 48.98C67.38 48.5 68.58 47.99 69.94 47.4C70.61 47.11 71.33 46.77 72.1 46.47C72.87 46.19 73.67 45.9 74.52 45.59C76.19 44.94 78.07 44.45 80.04 43.86C81.03 43.55 82.07 43.36 83.12 43.1C84.17 42.86 85.24 42.59 86.36 42.44C87.47 42.26 88.59 42.08 89.74 41.9C90.88 41.73 92.05 41.66 93.22 41.53C94.4 41.4 95.58 41.3 96.78 41.29C96.9 41.28 97.49 41.26 98.57 41.22L99.47 41.19L99.92 41.17L100.14 41.16C100.32 41.17 100.43 41.17 100.45 41.17C102.77 41.27 105.01 41.26 107.45 41.55C109.86 41.72 112.14 42.1 114.36 42.44C115.47 42.6 116.54 42.88 117.6 43.1C118.65 43.36 119.69 43.54 120.67 43.86C122.65 44.44 124.52 44.93 126.2 45.58C127.05 45.88 127.86 46.17 128.63 46.45C129.39 46.75 130.09 47.08 130.76 47.37C132.1 47.96 133.26 48.45 134.18 48.96C136.03 49.93 137.09 50.48 137.09 50.48C138.23 51.08 138.67 52.49 138.07 53.63C137.51 54.71 136.21 55.16 135.11 54.7C135.09 54.69 134.98 54.64 134.96 54.64C134.96 54.64 133.93 54.2 132.13 53.43C131.25 53.02 130.12 52.63 128.85 52.16C128.2 51.93 127.53 51.67 126.81 51.43C126.08 51.21 125.31 50.97 124.51 50.72C122.93 50.18 121.16 49.79 119.3 49.32C118.38 49.06 117.4 48.93 116.42 48.73C115.42 48.58 114.43 48.3 113.39 48.18C111.32 47.89 109.18 47.56 107.04 47.44C104.96 47.21 102.56 47.23 100.27 47.16C99.19 47.19 98.1 47.21 97.02 47.24C95.91 47.24 94.81 47.32 93.72 47.42C92.63 47.53 91.54 47.58 90.48 47.72C89.42 47.88 88.37 48.03 87.33 48.18C86.29 48.29 85.3 48.57 84.31 48.74C83.33 48.94 82.35 49.07 81.42 49.33C79.57 49.81 77.8 50.19 76.21 50.74C74.61 51.24 73.15 51.69 71.91 52.17C70.65 52.63 69.55 53 68.61 53.44C66.75 54.22 65.68 54.67 65.68 54.67C64.49 55.17 63.12 54.61 62.62 53.42C62.15 52.3 62.63 51 63.7 50.45" id="cb7I3i4kQ"></path><path d="M102.93 114.52C102.54 119.08 98.48 122.59 93.85 122.35C89.22 122.11 85.78 118.22 86.16 113.65C86.54 109.09 90.6 105.59 95.23 105.83C99.86 106.07 103.31 109.96 102.93 114.52" id="a1rjhfUZE5"></path><path d="M124.23 114.41C123.87 113.93 123.54 113.42 123.17 112.97C122.29 111.86 121.36 110.79 120.39 109.76C119.92 109.23 119.42 108.74 118.92 108.25C118.42 107.74 117.91 107.26 117.39 106.79C116.36 105.83 115.26 104.97 114.17 104.11C113.04 103.3 111.91 102.5 110.72 101.83C110.14 101.45 109.54 101.14 108.92 100.85C108.31 100.58 107.72 100.21 107.09 100C106.9 99.93 105.39 99.36 105.21 99.29C104.59 99.09 104.01 98.98 103.41 98.81C103.1 98.74 102.84 98.64 102.49 98.58C102.41 98.57 102.05 98.52 101.38 98.44L100.27 98.31L99.72 98.24L99.65 98.23C99.63 98.23 99.62 98.23 99.61 98.23C99.44 98.21 99.82 98.24 99.78 98.24C99.78 98.24 99.77 98.24 99.76 98.24L99.64 98.24L99.39 98.25C98.21 98.25 97.56 98.26 97.43 98.26C96.77 98.26 96.11 98.41 95.45 98.48C95.38 98.49 95.05 98.53 94.46 98.61C93.87 98.75 93.54 98.83 93.47 98.84C92.82 99.01 92.16 99.13 91.51 99.34C90.21 99.79 88.91 100.21 87.65 100.81C87.02 101.08 86.38 101.37 85.77 101.71C85.16 102.05 84.52 102.34 83.92 102.71C82.71 103.42 81.51 104.16 80.35 104.98C79.18 105.79 78.03 106.64 76.93 107.55C75.82 108.44 74.74 109.38 73.7 110.35C72.66 111.31 71.6 112.36 70.73 113.32C70.75 113.01 70.93 110.5 70.95 110.19C71.68 111.25 72.57 112.44 73.47 113.52C74.37 114.62 75.31 115.69 76.3 116.71C76.78 117.24 77.29 117.73 77.8 118.22C78.3 118.73 78.82 119.21 79.35 119.66C80.39 120.62 81.51 121.47 82.62 122.33C83.76 123.12 84.9 123.92 86.1 124.58C86.69 124.95 87.3 125.26 87.92 125.54C88.54 125.81 89.13 126.17 89.77 126.37C89.96 126.44 91.48 126.99 91.67 127.06C92.29 127.25 92.88 127.36 93.48 127.52C93.79 127.59 94.05 127.69 94.4 127.74C94.48 127.75 94.85 127.79 95.51 127.87L96.62 127.99L97.18 128.05L97.25 128.06C97.27 128.06 97.28 128.07 97.28 128.07C97.45 128.08 97.07 128.05 97.12 128.05C97.12 128.05 97.12 128.05 97.13 128.05L97.25 128.05L97.5 128.04C98.68 128.02 99.34 128 99.47 128C100.12 128 100.78 127.83 101.44 127.76C101.51 127.75 101.83 127.7 102.43 127.62C103.01 127.47 103.34 127.39 103.41 127.38C104.06 127.2 104.72 127.07 105.36 126.85C106.65 126.4 107.94 125.96 109.18 125.34C109.82 125.07 110.44 124.78 111.05 124.43C111.66 124.09 112.28 123.78 112.88 123.42C114.08 122.69 115.27 121.94 116.41 121.11C117.56 120.29 118.7 119.44 119.78 118.52C120.88 117.62 121.95 116.67 122.97 115.69C123.41 115.28 123.81 114.83 124.23 114.41M127.05 120.03C125.91 121.09 124.74 122.12 123.52 123.09C122.32 124.08 121.06 125.01 119.78 125.9C118.5 126.81 117.16 127.64 115.81 128.44C115.13 128.84 114.41 129.19 113.71 129.56C113.02 129.95 112.3 130.28 111.56 130.59C110.12 131.28 108.59 131.8 107.06 132.31C106.29 132.56 105.48 132.72 104.69 132.92C104.61 132.94 104.22 133.03 103.5 133.2C102.77 133.3 102.36 133.36 102.28 133.37C101.45 133.46 100.65 133.63 99.81 133.64C99.65 133.64 98.81 133.65 97.31 133.66L97 133.66L96.85 133.66L96.63 133.65L96.59 133.64L96.52 133.63L95.97 133.57L94.86 133.43C94.19 133.35 93.82 133.3 93.75 133.29C93.36 133.23 92.91 133.1 92.5 133.01C91.66 132.8 90.78 132.61 89.99 132.35C89.76 132.27 87.92 131.58 87.69 131.5C86.91 131.23 86.22 130.81 85.48 130.47C84.75 130.13 84.03 129.76 83.36 129.33C81.96 128.54 80.66 127.62 79.38 126.69C78.13 125.72 76.89 124.74 75.75 123.67C75.16 123.15 74.59 122.62 74.04 122.06C73.49 121.51 72.93 120.96 72.41 120.38C71.35 119.25 70.32 118.07 69.35 116.85C68.36 115.63 67.47 114.43 66.54 113.02C65.88 112.03 66 110.74 66.76 109.89C66.76 109.89 66.76 109.88 66.76 109.88C67.88 108.63 68.93 107.57 70.07 106.49C71.19 105.42 72.35 104.4 73.55 103.41C74.73 102.41 75.98 101.48 77.25 100.57C78.51 99.66 79.84 98.82 81.18 98.01C81.85 97.6 82.57 97.25 83.25 96.87C83.94 96.48 84.66 96.14 85.39 95.82C86.82 95.12 88.34 94.59 89.86 94.06C90.63 93.81 91.43 93.64 92.22 93.43C92.3 93.41 92.69 93.31 93.4 93.14C94.14 93.03 94.54 92.97 94.63 92.96C95.45 92.87 96.25 92.69 97.08 92.67C97.25 92.67 98.08 92.65 99.58 92.62L99.89 92.62L100.05 92.62L100.37 92.65L100.93 92.71L102.04 92.83C102.7 92.91 103.07 92.95 103.15 92.96C103.53 93.01 103.99 93.14 104.4 93.23C105.25 93.43 106.13 93.61 106.93 93.87C107.16 93.95 109.01 94.62 109.24 94.7C110.02 94.97 110.72 95.37 111.46 95.71C112.21 96.04 112.92 96.41 113.6 96.84C115.02 97.62 116.33 98.53 117.63 99.44C118.89 100.41 120.15 101.37 121.3 102.44C121.9 102.95 122.48 103.49 123.03 104.04C123.59 104.59 124.16 105.13 124.69 105.71C125.77 106.84 126.81 108.01 127.8 109.22C128.8 110.45 129.71 111.64 130.67 113.06C131.44 114.19 131.3 115.67 130.42 116.64C129.29 117.89 128.2 118.96 127.05 120.03Z" id="ibGcIEZgM"></path><path d="M18.59 87.54C18.59 87.54 18.97 87.17 19.67 86.47C20.04 86.13 20.41 85.7 21 85.2C21.57 84.69 22.24 84.12 22.98 83.47C23.73 82.88 24.57 82.23 25.49 81.52C26.44 80.86 27.46 80.13 28.58 79.41C30.83 78 33.45 76.51 36.42 75.17C39.4 73.84 42.69 72.53 46.28 71.5C49.86 70.47 53.71 69.62 57.73 69.04C61.76 68.49 65.92 68.21 70.23 68.22C72.24 68.23 74.51 68.32 76.65 68.52C78.81 68.7 80.97 68.97 83.11 69.35C91.69 70.81 100.04 73.8 107.13 78C114.25 82.16 120.06 87.54 123.94 93.06C125.89 95.81 127.36 98.57 128.42 101.14C129.5 103.7 130.12 106.07 130.51 108.04C130.7 109.03 130.85 109.91 130.91 110.7C131 111.47 131.08 112.14 131.08 112.68C131.12 113.76 131.15 114.34 131.15 114.34C131.21 115.99 129.93 117.38 128.27 117.45C126.62 117.52 125.22 116.23 125.16 114.57C125.16 114.57 125.16 114.56 125.15 114.54C125.15 114.42 125.15 114.35 125.15 114.34C125.15 114.34 125.13 113.86 125.11 112.97C125.11 112.53 125.05 111.98 124.99 111.34C124.94 110.69 124.82 109.96 124.68 109.14C124.37 107.5 123.89 105.52 123 103.34C122.13 101.16 120.89 98.78 119.22 96.37C115.91 91.52 110.77 86.6 104.31 82.73C97.88 78.81 90.18 75.94 82.2 74.49C80.21 74.11 78.19 73.84 76.18 73.64C74.16 73.44 72.25 73.33 70.13 73.29C66.16 73.25 62.17 73.47 58.39 73.94C54.6 74.45 50.98 75.21 47.61 76.14C44.24 77.06 41.15 78.26 38.36 79.47C35.58 80.69 33.15 82.05 31.05 83.33C30 83.98 29.06 84.64 28.18 85.23C27.34 85.88 26.56 86.46 25.86 87C25.21 87.55 24.63 88.05 24.13 88.48C23.62 88.9 23.18 89.38 22.83 89.7C22.12 90.39 21.74 90.75 21.74 90.75C20.85 91.62 19.43 91.6 18.56 90.7C17.7 89.82 17.72 88.4 18.59 87.54" id="cmTh3VWpF"></path></defs><g><g><g><use xlink:href="#i3jngRSNq7" opacity="1" fill="#ffffff" fill-opacity="1"></use><g><use xlink:href="#i3jngRSNq7" opacity="1" fill-opacity="0" stroke="#000000" stroke-width="1" stroke-opacity="0"></use></g></g><g><use xlink:href="#ozE0EiibG" opacity="1" fill="#1d1d1b" fill-opacity="1"></use><g><use xlink:href="#ozE0EiibG" opacity="1" fill-opacity="0" stroke="#000000" stroke-width="1" stroke-opacity="0"></use></g></g><g><use xlink:href="#h36NUW2Yw6" opacity="1" fill="#ffffff" fill-opacity="1"></use><g><use xlink:href="#h36NUW2Yw6" opacity="1" fill-opacity="0" stroke="#000000" stroke-width="1" stroke-opacity="0"></use></g></g><g><use xlink:href="#cVAxX92Bd" opacity="1" fill="#000000" fill-opacity="0"></use><g><use xlink:href="#cVAxX92Bd" opacity="1" fill-opacity="0" stroke="#1d1d1b" stroke-width="5" stroke-opacity="1"></use></g></g><g><use xlink:href="#adkTKPZO" opacity="1" fill="#000000" fill-opacity="0"></use><g><use xlink:href="#adkTKPZO" opacity="1" fill-opacity="0" stroke="#1d1d1b" stroke-width="4.5" stroke-opacity="1"></use></g></g><g><use xlink:href="#b1z2YVbEvv" opacity="1" fill="#ffffff" fill-opacity="1"></use><g><use xlink:href="#b1z2YVbEvv" opacity="1" fill-opacity="0" stroke="#000000" stroke-width="1" stroke-opacity="0"></use></g></g><g><use xlink:href="#cb7I3i4kQ" opacity="1" fill="#1d1d1b" fill-opacity="1"></use><g><use xlink:href="#cb7I3i4kQ" opacity="1" fill-opacity="0" stroke="#000000" stroke-width="1" stroke-opacity="0"></use></g></g><g><use xlink:href="#a1rjhfUZE5" opacity="1" fill="#1d1d1b" fill-opacity="1"></use><g><use xlink:href="#a1rjhfUZE5" opacity="1" fill-opacity="0" stroke="#000000" stroke-width="1" stroke-opacity="0"></use></g></g><g><use xlink:href="#ibGcIEZgM" opacity="1" fill="#1d1d1b" fill-opacity="1"></use><g><use xlink:href="#ibGcIEZgM" opacity="1" fill-opacity="0" stroke="#000000" stroke-width="1" stroke-opacity="0"></use></g></g><g><use xlink:href="#cmTh3VWpF" opacity="1" fill="#1d1d1b" fill-opacity="1"></use><g><use xlink:href="#cmTh3VWpF" opacity="1" fill-opacity="0" stroke="#000000" stroke-width="1" stroke-opacity="0"></use></g></g></g></g></svg>