<?xml version="1.0" encoding="UTF-8" standalone="no"?>
<!DOCTYPE svg PUBLIC "-//W3C//DTD SVG 1.1//EN" "http://www.w3.org/Graphics/SVG/1.1/DTD/svg11.dtd">
<svg version="1.1" xmlns="http://www.w3.org/2000/svg" xmlns:xlink="http://www.w3.org/1999/xlink" preserveAspectRatio="xMidYMid meet" viewBox="0 0 200 200" width="200" height="200"><defs><path d="M179.99 100C179.99 144.18 144.18 179.99 100 179.99C55.82 179.99 20.01 144.18 20.01 100C20.01 55.82 55.82 20.01 100 20.01C144.18 20.01 179.99 55.82 179.99 100" id="b41JdP8nbV"></path><path d="M100 179.99C55.82 179.99 20.01 144.18 20.01 100C20.01 55.82 55.82 20.01 100 20.01C144.18 20.01 179.99 55.82 179.99 100C179.99 144.18 144.18 179.99 100 179.99Z" id="h2bntIEdx4"></path><path d="M100 42.23L100 20.01" id="csZHdYIQi"></path><path d="M64.53 52.81C74.82 46.26 86.98 42.23 100.01 42.23C113.2 42.23 125.5 46.11 135.87 52.81" id="c3DpfpS9M6"></path><path d="M63.34 50.8C63.34 50.8 64.33 50.16 66.06 49.04C66.89 48.47 68.05 47.84 69.39 47.12C70.06 46.75 70.77 46.37 71.52 45.96C72.28 45.62 73.08 45.26 73.92 44.88C75.58 44.08 77.46 43.42 79.45 42.7C80.43 42.3 81.49 42.05 82.55 41.73C83.62 41.44 84.7 41.08 85.84 40.87C86.97 40.65 88.12 40.42 89.29 40.19C90.45 39.95 91.66 39.87 92.86 39.7C94.07 39.55 95.28 39.4 96.51 39.38C96.64 39.38 97.25 39.35 98.36 39.3L99.28 39.26L99.75 39.24L99.98 39.23C100.18 39.24 100.29 39.24 100.31 39.24C102.68 39.36 104.96 39.36 107.48 39.72C109.97 39.94 112.29 40.44 114.56 40.88C115.68 41.11 116.77 41.44 117.84 41.73C118.91 42.03 119.96 42.31 120.95 42.7C122.94 43.4 124.82 44.07 126.48 44.86C127.32 45.24 128.13 45.6 128.89 45.94C129.63 46.34 130.33 46.72 130.98 47.08C132.3 47.79 133.44 48.41 134.32 49.02C136.11 50.19 137.13 50.85 137.13 50.85C138.21 51.56 138.52 53 137.81 54.08C137.15 55.1 135.81 55.43 134.76 54.86C134.74 54.85 134.62 54.78 134.6 54.77C134.6 54.77 133.6 54.23 131.85 53.28C131 52.77 129.91 52.26 128.65 51.68C128.02 51.39 127.36 51.08 126.66 50.75C125.94 50.47 125.18 50.17 124.4 49.86C122.84 49.18 121.08 48.64 119.23 48.06C118.32 47.74 117.34 47.53 116.35 47.29C115.36 47.07 114.37 46.76 113.33 46.57C111.25 46.2 109.09 45.76 106.95 45.6C104.88 45.3 102.43 45.32 100.09 45.23C99 45.26 97.91 45.3 96.83 45.33C95.71 45.33 94.6 45.45 93.5 45.58C92.4 45.72 91.3 45.77 90.24 45.98C89.17 46.18 88.12 46.37 87.08 46.56C86.04 46.73 85.05 47.07 84.06 47.29C83.07 47.54 82.09 47.73 81.18 48.07C79.34 48.66 77.57 49.19 76.02 49.87C75.23 50.19 74.47 50.49 73.75 50.78C73.06 51.1 72.41 51.4 71.79 51.69C70.56 52.25 69.48 52.74 68.57 53.28C66.76 54.26 65.72 54.82 65.72 54.82C64.58 55.43 63.17 55.01 62.55 53.87C61.97 52.8 62.33 51.46 63.34 50.8" id="m3mQjpbmYz"></path><path d="M103.07 80.44C103.07 80.44 103.11 81.47 103.19 83.27C103.24 85.07 103.36 87.64 103.41 90.72C103.46 93.8 103.58 97.4 103.6 101.26C103.62 105.11 103.65 109.22 103.68 113.33C103.65 117.44 103.62 121.55 103.6 125.41C103.57 129.26 103.46 132.86 103.41 135.94C103.35 139.02 103.24 141.59 103.19 143.39C103.11 145.19 103.07 146.22 103.07 146.22C103 147.9 101.57 149.21 99.89 149.15C98.29 149.08 97.03 147.79 96.96 146.22C96.96 146.22 96.91 145.19 96.84 143.39C96.79 141.59 96.67 139.02 96.62 135.94C96.56 132.86 96.45 129.26 96.43 125.41C96.4 121.55 96.38 117.44 96.35 113.33C96.38 109.22 96.4 105.11 96.43 101.26C96.45 97.4 96.56 93.8 96.61 90.72C96.67 87.64 96.79 85.07 96.84 83.27C96.91 81.47 96.96 80.44 96.96 80.44C97.03 78.76 98.45 77.45 100.14 77.52C101.74 77.59 103 78.88 103.07 80.44" id="c8T25X6GbD"></path><path d="M67.13 110.28C67.13 110.28 68.15 110.23 69.95 110.16C71.75 110.11 74.32 109.99 77.4 109.93C80.49 109.88 84.08 109.77 87.94 109.75C91.79 109.72 95.9 109.69 100.01 109.67C104.12 109.69 108.23 109.72 112.09 109.75C115.94 109.76 119.54 109.88 122.62 109.93C125.71 109.99 128.27 110.11 130.07 110.16C131.87 110.23 132.9 110.28 132.9 110.28C134.59 110.35 135.9 111.77 135.83 113.46C135.76 115.06 134.47 116.32 132.9 116.39C132.9 116.39 131.87 116.43 130.07 116.51C128.27 116.56 125.71 116.68 122.62 116.73C119.54 116.78 115.94 116.9 112.09 116.92C108.23 116.94 104.12 116.97 100.01 117C95.9 116.97 91.79 116.94 87.94 116.92C84.08 116.89 80.49 116.78 77.4 116.73C74.32 116.67 71.75 116.55 69.95 116.5C68.15 116.43 67.13 116.39 67.13 116.39C65.44 116.32 64.13 114.89 64.2 113.2C64.27 111.61 65.56 110.35 67.13 110.28" id="a2OWImDHI5"></path></defs><g><g><g><use xlink:href="#b41JdP8nbV" opacity="1" fill="#ffffff" fill-opacity="1"></use><g><use xlink:href="#b41JdP8nbV" opacity="1" fill-opacity="0" stroke="#000000" stroke-width="1" stroke-opacity="0"></use></g></g><g><use xlink:href="#h2bntIEdx4" opacity="1" fill="#000000" fill-opacity="0"></use><g><use xlink:href="#h2bntIEdx4" opacity="1" fill-opacity="0" stroke="#1d1d1b" stroke-width="5" stroke-opacity="1"></use></g></g><g><use xlink:href="#csZHdYIQi" opacity="1" fill="#000000" fill-opacity="0"></use><g><use xlink:href="#csZHdYIQi" opacity="1" fill-opacity="0" stroke="#1d1d1b" stroke-width="4.5" stroke-opacity="1"></use></g></g><g><use xlink:href="#c3DpfpS9M6" opacity="1" fill="#ffffff" fill-opacity="1"></use><g><use xlink:href="#c3DpfpS9M6" opacity="1" fill-opacity="0" stroke="#000000" stroke-width="1" stroke-opacity="0"></use></g></g><g><use xlink:href="#m3mQjpbmYz" opacity="1" fill="#1d1d1b" fill-opacity="1"></use><g><use xlink:href="#m3mQjpbmYz" opacity="1" fill-opacity="0" stroke="#000000" stroke-width="1" stroke-opacity="0"></use></g></g><g><use xlink:href="#c8T25X6GbD" opacity="1" fill="#1d1d1b" fill-opacity="1"></use><g><use xlink:href="#c8T25X6GbD" opacity="1" fill-opacity="0" stroke="#000000" stroke-width="1" stroke-opacity="0"></use></g></g><g><use xlink:href="#a2OWImDHI5" opacity="1" fill="#1d1d1b" fill-opacity="1"></use><g><use xlink:href="#a2OWImDHI5" opacity="1" fill-opacity="0" stroke="#000000" stroke-width="1" stroke-opacity="0"></use></g></g></g></g></svg>