<?xml version="1.0" encoding="UTF-8" standalone="no"?>
<!DOCTYPE svg PUBLIC "-//W3C//DTD SVG 1.1//EN" "http://www.w3.org/Graphics/SVG/1.1/DTD/svg11.dtd">
<svg version="1.1" xmlns="http://www.w3.org/2000/svg" xmlns:xlink="http://www.w3.org/1999/xlink" preserveAspectRatio="xMidYMid meet" viewBox="0 0 200 200" width="200" height="200"><defs><path d="M189.39 106.52C189.39 150.7 153.57 186.52 109.4 186.52C65.22 186.52 29.41 150.7 29.41 106.52C29.41 62.35 65.22 26.53 109.4 26.53C153.57 26.53 189.39 62.35 189.39 106.52" id="a4k1DLey9o"></path><path d="M109.4 186.52C65.22 186.52 29.41 150.7 29.41 106.52C29.41 62.35 65.22 26.53 109.4 26.53C153.57 26.53 189.39 62.35 189.39 106.52C189.39 150.7 153.57 186.52 109.4 186.52Z" id="elfEsOPOE"></path><path d="M109.4 48.75L109.4 26.53" id="c1qq55ei21"></path><path d="M73.93 59.34C84.22 52.78 96.38 48.75 109.41 48.75C122.6 48.75 134.9 52.63 145.26 59.34" id="a9Kihgw1M"></path><path d="M72.74 57.33C72.74 57.33 73.73 56.69 75.46 55.57C76.29 55 77.45 54.36 78.79 53.64C79.45 53.28 80.17 52.89 80.91 52.49C81.68 52.14 82.48 51.78 83.32 51.4C84.98 50.6 86.86 49.95 88.84 49.22C89.83 48.83 90.88 48.57 91.95 48.25C93.02 47.96 94.1 47.61 95.24 47.4C96.37 47.17 97.52 46.95 98.69 46.71C99.85 46.47 101.06 46.4 102.26 46.23C103.46 46.07 104.68 45.93 105.91 45.91C106.03 45.9 106.65 45.87 107.76 45.82L108.68 45.78L109.14 45.76L109.37 45.75C109.57 45.76 109.68 45.76 109.71 45.76C112.08 45.89 114.35 45.88 116.88 46.25C119.37 46.46 121.68 46.97 123.95 47.4C125.08 47.63 126.17 47.96 127.24 48.26C128.31 48.56 129.36 48.83 130.35 49.22C132.34 49.93 134.22 50.59 135.88 51.39C136.72 51.76 137.53 52.12 138.29 52.46C139.03 52.87 139.72 53.25 140.38 53.6C141.7 54.31 142.83 54.94 143.72 55.54C145.51 56.71 146.53 57.38 146.53 57.38C147.61 58.08 147.91 59.52 147.21 60.6C146.54 61.62 145.21 61.95 144.15 61.38C144.14 61.37 144.01 61.3 144 61.3C144 61.3 143 60.75 141.25 59.8C140.4 59.29 139.3 58.78 138.05 58.21C137.42 57.91 136.76 57.6 136.06 57.27C135.34 56.99 134.58 56.69 133.79 56.38C132.24 55.7 130.48 55.16 128.63 54.58C127.71 54.26 126.74 54.05 125.75 53.81C124.76 53.6 123.76 53.28 122.73 53.09C120.65 52.73 118.49 52.28 116.35 52.13C114.27 51.83 111.82 51.84 109.49 51.76C108.4 51.79 107.31 51.82 106.23 51.85C105.11 51.86 104 51.97 102.9 52.1C101.8 52.25 100.7 52.29 99.64 52.5C98.57 52.7 97.51 52.9 96.48 53.09C95.43 53.25 94.45 53.6 93.45 53.81C92.47 54.07 91.49 54.26 90.58 54.59C88.73 55.19 86.97 55.72 85.41 56.4C84.63 56.71 83.87 57.01 83.15 57.3C82.46 57.62 81.81 57.93 81.19 58.21C79.96 58.77 78.88 59.27 77.97 59.8C76.15 60.78 75.12 61.34 75.12 61.34C73.98 61.96 72.56 61.53 71.95 60.4C71.37 59.32 71.73 57.99 72.74 57.33" id="e3WtGhiJzZ"></path><path d="M135.41 112.19C135.41 126.55 123.77 138.19 109.41 138.19C95.05 138.19 83.41 126.55 83.41 112.19C83.41 97.84 95.05 86.2 109.41 86.2C123.77 86.2 135.41 97.84 135.41 112.19" id="ljqXhrEj5"></path><path d="M109.41 138.19C95.05 138.19 83.41 126.55 83.41 112.19C83.41 97.84 95.05 86.2 109.41 86.2C123.77 86.2 135.41 97.84 135.41 112.19C135.41 126.55 123.77 138.19 109.41 138.19Z" id="e7ac9KKj2"></path><path d="M119.41 111.05C119.41 116.57 114.93 121.05 109.41 121.05C103.89 121.05 99.41 116.57 99.41 111.05C99.41 105.53 103.89 101.05 109.41 101.05C114.93 101.05 119.41 105.53 119.41 111.05" id="eRgf0LBN"></path></defs><g><g><g><use xlink:href="#a4k1DLey9o" opacity="1" fill="#ffffff" fill-opacity="1"></use><g><use xlink:href="#a4k1DLey9o" opacity="1" fill-opacity="0" stroke="#000000" stroke-width="1" stroke-opacity="0"></use></g></g><g><use xlink:href="#elfEsOPOE" opacity="1" fill="#000000" fill-opacity="0"></use><g><use xlink:href="#elfEsOPOE" opacity="1" fill-opacity="0" stroke="#1d1d1b" stroke-width="5" stroke-opacity="1"></use></g></g><g><use xlink:href="#c1qq55ei21" opacity="1" fill="#000000" fill-opacity="0"></use><g><use xlink:href="#c1qq55ei21" opacity="1" fill-opacity="0" stroke="#1d1d1b" stroke-width="4.5" stroke-opacity="1"></use></g></g><g><use xlink:href="#a9Kihgw1M" opacity="1" fill="#ffffff" fill-opacity="1"></use><g><use xlink:href="#a9Kihgw1M" opacity="1" fill-opacity="0" stroke="#000000" stroke-width="1" stroke-opacity="0"></use></g></g><g><use xlink:href="#e3WtGhiJzZ" opacity="1" fill="#1d1d1b" fill-opacity="1"></use><g><use xlink:href="#e3WtGhiJzZ" opacity="1" fill-opacity="0" stroke="#000000" stroke-width="1" stroke-opacity="0"></use></g></g><g><use xlink:href="#ljqXhrEj5" opacity="1" fill="#ffffff" fill-opacity="1"></use><g><use xlink:href="#ljqXhrEj5" opacity="1" fill-opacity="0" stroke="#000000" stroke-width="1" stroke-opacity="0"></use></g></g><g><use xlink:href="#e7ac9KKj2" opacity="1" fill="#000000" fill-opacity="0"></use><g><use xlink:href="#e7ac9KKj2" opacity="1" fill-opacity="0" stroke="#1d1d1b" stroke-width="5" stroke-opacity="1"></use></g></g><g><use xlink:href="#eRgf0LBN" opacity="1" fill="#1d1d1b" fill-opacity="1"></use><g><use xlink:href="#eRgf0LBN" opacity="1" fill-opacity="0" stroke="#000000" stroke-width="1" stroke-opacity="0"></use></g></g></g></g></svg>