<?xml version="1.0" encoding="UTF-8" standalone="no"?>
<!DOCTYPE svg PUBLIC "-//W3C//DTD SVG 1.1//EN" "http://www.w3.org/Graphics/SVG/1.1/DTD/svg11.dtd">
<svg version="1.1" xmlns="http://www.w3.org/2000/svg" xmlns:xlink="http://www.w3.org/1999/xlink" preserveAspectRatio="xMidYMid meet" viewBox="0 0 200 200" width="200" height="200"><defs><path d="M20 155.58C20 133.11 55.65 125.7 99.83 125.7C144 125.7 180 135.75 180 156.1C180 169.85 167.64 178.33 152.18 178.33C134.85 178.33 124.18 169.3 124.18 155.55C124.18 168.21 115.52 176.35 100.18 176.35C83.52 176.35 76.19 168.21 76.19 155.55C76.19 169.3 64.52 178.33 47.86 178.33C32.4 178.33 20 169.33 20 155.58" id="dhAnqQLhv"></path><path d="M23.34 155.59C23.34 158.46 24.02 161.25 25.35 163.72C26.68 166.2 28.65 168.34 31.02 170.03C33.38 171.74 36.14 173 39.05 173.81C40.51 174.22 42.01 174.51 43.53 174.71C45.06 174.9 46.52 174.99 48.13 174.99C51.26 175.01 54.36 174.68 57.32 173.93C60.28 173.18 63.07 171.97 65.5 170.32C67.93 168.66 69.94 166.5 71.31 163.97C72.71 161.45 73.45 158.55 73.52 155.55C73.52 155.54 73.52 155.47 73.52 155.47C73.56 153.99 74.78 152.83 76.25 152.87C77.71 152.9 78.86 154.1 78.85 155.55C78.85 155.55 78.85 155.55 78.85 155.55C79.01 158.31 79.45 160.99 80.48 163.31C81.46 165.64 82.96 167.62 84.94 169.07C86.91 170.52 89.28 171.56 91.88 172.17C93.17 172.48 94.51 172.7 95.88 172.83C97.3 172.96 98.51 173.02 100.09 173.02C101.39 173.02 102.83 172.97 104.17 172.83C105.53 172.69 106.85 172.46 108.14 172.13C110.71 171.48 113.08 170.39 115.1 168.92C117.11 167.44 118.68 165.47 119.74 163.17C120.85 160.89 121.36 158.26 121.51 155.55C121.87 155.55 123.65 155.55 126.85 155.55C126.85 155.55 126.85 155.55 126.85 155.55C126.93 158.03 127.37 160.46 128.28 162.66C129.19 164.85 130.51 166.84 132.2 168.49C135.6 171.79 140.32 173.73 145.3 174.53C146.55 174.73 147.82 174.86 149.09 174.94C149.74 174.97 150.29 175 150.99 175C151.06 175.01 151.4 175.01 152.02 175.01C152.57 175 152.88 174.99 152.94 174.99C155.48 174.92 158 174.62 160.43 174.02C165.27 172.85 169.73 170.44 172.74 166.92C174.24 165.16 175.34 163.12 175.98 160.92C176.3 159.85 176.51 158.61 176.58 157.58C176.68 156.25 176.67 155.23 176.51 154.12C175.94 149.77 172.84 145.89 168.77 142.96C164.71 139.99 159.83 137.82 154.82 136.08C149.78 134.34 144.53 133.05 139.21 132.05C128.56 130.05 117.64 129.13 106.72 128.82C101.27 128.66 95.75 128.69 90.29 128.85C84.81 129.01 79.34 129.31 73.91 129.79C68.48 130.28 63.07 130.95 57.75 131.92C52.43 132.89 47.19 134.17 42.22 135.97C37.28 137.76 32.54 140.11 28.94 143.4C27.15 145.03 25.7 146.9 24.74 148.95C24.26 149.98 23.91 151.05 23.67 152.16C23.56 152.71 23.48 153.28 23.41 153.85C23.41 153.9 23.39 154.16 23.36 154.62C23.34 155.14 23.34 155.46 23.34 155.59ZM16.67 155.49L16.7 154.46C16.76 153.68 16.79 153.25 16.8 153.17C16.89 152.36 17.02 151.56 17.19 150.76C17.54 149.17 18.08 147.61 18.79 146.13C20.19 143.18 22.25 140.64 24.56 138.57C29.21 134.43 34.65 131.9 40.08 129.96C45.53 128.04 51.09 126.77 56.65 125.78C62.21 124.8 67.8 124.14 73.38 123.67C78.96 123.21 84.55 122.94 90.13 122.81C95.71 122.69 101.25 122.66 106.87 122.77C118.04 123.02 129.24 123.9 140.35 125.91C145.9 126.93 151.43 128.22 156.87 130.04C162.29 131.87 167.68 134.16 172.6 137.67C175.05 139.43 177.38 141.53 179.29 144.12C181.19 146.69 182.62 149.82 183.11 153.13C183.37 154.76 183.37 156.52 183.27 157.95C183.15 159.67 182.89 161.18 182.44 162.76C181.56 165.88 180 168.83 177.92 171.29C173.73 176.25 167.87 179.14 162.01 180.54C159.06 181.25 156.05 181.6 153.07 181.64C152.68 181.64 152.36 181.65 151.91 181.64C151.81 181.63 150.98 181.61 150.88 181.61C150.19 181.59 149.37 181.53 148.63 181.48C147.15 181.35 145.67 181.17 144.19 180.9C141.24 180.35 138.3 179.47 135.51 178.16C132.73 176.81 130.1 175.01 127.91 172.72C125.72 170.43 123.99 167.66 122.94 164.69C121.86 161.72 121.47 158.59 121.51 155.55C121.51 155.55 121.51 155.55 121.51 155.55C121.42 154.08 122.54 152.82 124.01 152.72C125.48 152.63 126.74 153.75 126.83 155.22C126.83 155.22 126.83 155.23 126.83 155.25C126.84 155.43 126.85 155.53 126.85 155.55C127 158.84 126.53 162.28 125.25 165.53C123.94 168.76 121.76 171.73 119.01 173.93C116.28 176.17 113.04 177.58 109.81 178.46C108.18 178.9 106.54 179.21 104.91 179.4C103.26 179.58 101.69 179.68 99.99 179.68C98.56 179.67 96.76 179.57 95.19 179.4C93.56 179.22 91.93 178.93 90.31 178.52C87.07 177.7 83.78 176.34 81.01 174.07C78.22 171.84 76.09 168.75 74.91 165.48C73.74 162.18 73.38 158.8 73.52 155.55C73.52 155.55 73.52 155.55 73.52 155.55C76.72 155.55 78.5 155.55 78.85 155.55C78.95 159.28 78.2 163.16 76.49 166.63C74.78 170.1 72.15 173.09 69.09 175.34C66.02 177.6 62.54 179.15 58.99 180.14C55.43 181.13 51.79 181.59 48.18 181.65C46.42 181.67 44.51 181.57 42.69 181.35C40.87 181.13 39.05 180.78 37.26 180.29C33.68 179.32 30.18 177.78 27.06 175.55C23.96 173.32 21.25 170.37 19.41 166.88C17.55 163.4 16.64 159.44 16.67 155.58C16.67 155.57 16.67 155.54 16.67 155.54C16.67 155.52 16.67 155.5 16.67 155.49" id="dVAL3fO0d"></path><path d="M180.15 81.81C180.15 116.86 144.34 145.27 100.16 145.27C55.98 145.27 20.17 116.86 20.17 81.81C20.17 46.76 55.98 18.35 100.16 18.35C144.34 18.35 180.15 46.76 180.15 81.81" id="b7lAmqQLUu"></path><path d="M100.16 145.27C55.98 145.27 20.17 116.86 20.17 81.81C20.17 46.76 55.98 18.35 100.16 18.35C144.34 18.35 180.15 46.76 180.15 81.81C180.15 116.86 144.34 145.27 100.16 145.27Z" id="bye5PRHBT"></path><path d="M100.16 35.97L100.16 18.35" id="cPJ6FKyEs"></path><path d="M64.69 44.37C74.98 39.17 87.14 35.97 100.17 35.97C113.36 35.97 125.66 39.05 136.03 44.37" id="e1G6RlviN4"></path><path d="M63.7 42.26C63.7 42.26 64.72 41.73 66.52 40.79C67.38 40.31 68.58 39.81 69.94 39.21C70.61 38.92 71.33 38.58 72.1 38.28C72.87 38 73.67 37.71 74.52 37.41C76.19 36.76 78.07 36.26 80.04 35.67C81.03 35.36 82.07 35.17 83.12 34.91C84.17 34.68 85.24 34.4 86.36 34.25C87.47 34.07 88.59 33.9 89.74 33.72C90.88 33.55 92.05 33.47 93.22 33.34C94.4 33.22 95.58 33.12 96.78 33.1C96.9 33.09 97.49 33.07 98.57 33.03L99.47 33L99.92 32.98L100.14 32.98C100.32 32.98 100.43 32.98 100.45 32.98C102.77 33.09 105.01 33.08 107.45 33.36C109.86 33.53 112.14 33.91 114.36 34.25C115.47 34.41 116.54 34.69 117.6 34.92C118.65 35.17 119.69 35.36 120.67 35.67C122.65 36.25 124.52 36.75 126.2 37.39C127.05 37.7 127.86 37.99 128.63 38.26C129.39 38.57 130.09 38.89 130.76 39.18C132.1 39.77 133.26 40.27 134.18 40.77C136.03 41.74 137.09 42.29 137.09 42.29C138.23 42.89 138.67 44.3 138.08 45.44C137.51 46.52 136.21 46.97 135.11 46.51C135.09 46.5 134.98 46.45 134.96 46.45C134.96 46.45 133.93 46.01 132.13 45.25C131.25 44.83 130.12 44.44 128.85 43.97C128.2 43.75 127.53 43.48 126.81 43.24C126.08 43.02 125.31 42.78 124.51 42.53C122.93 41.99 121.16 41.6 119.3 41.13C118.38 40.88 117.4 40.75 116.42 40.55C115.42 40.39 114.43 40.12 113.39 39.99C111.32 39.7 109.18 39.37 107.04 39.25C104.96 39.02 102.56 39.05 100.27 38.98C99.19 39 98.1 39.02 97.02 39.05C95.91 39.05 94.81 39.13 93.72 39.23C92.63 39.34 91.54 39.39 90.48 39.53C89.42 39.69 88.37 39.84 87.33 39.99C86.29 40.11 85.3 40.38 84.31 40.55C83.33 40.75 82.35 40.88 81.42 41.14C79.57 41.62 77.8 42 76.21 42.55C74.61 43.05 73.15 43.5 71.91 43.98C70.65 44.44 69.55 44.81 68.61 45.25C66.75 46.03 65.68 46.48 65.68 46.48C64.49 46.98 63.12 46.43 62.62 45.24C62.15 44.11 62.63 42.82 63.7 42.26" id="h1El8BNPVx"></path><path d="M126.17 94.35C126.17 108.71 114.53 120.34 100.17 120.34C85.81 120.34 74.17 108.71 74.17 94.35C74.17 79.99 85.81 68.35 100.17 68.35C114.53 68.35 126.17 79.99 126.17 94.35" id="k48wcLyeJ3"></path><path d="M100.17 120.34C85.81 120.34 74.17 108.71 74.17 94.35C74.17 79.99 85.81 68.35 100.17 68.35C114.53 68.35 126.17 79.99 126.17 94.35C126.17 108.71 114.53 120.34 100.17 120.34Z" id="a4X671ev18"></path><path d="M110.17 93.2C110.17 98.73 105.69 103.2 100.17 103.2C94.65 103.2 90.17 98.73 90.17 93.2C90.17 87.68 94.65 83.21 100.17 83.21C105.69 83.21 110.17 87.68 110.17 93.2" id="b2TZznZxjY"></path></defs><g><g><g><use xlink:href="#dhAnqQLhv" opacity="1" fill="#ffffff" fill-opacity="1"></use><g><use xlink:href="#dhAnqQLhv" opacity="1" fill-opacity="0" stroke="#000000" stroke-width="1" stroke-opacity="0"></use></g></g><g><use xlink:href="#dVAL3fO0d" opacity="1" fill="#1d1d1b" fill-opacity="1"></use><g><use xlink:href="#dVAL3fO0d" opacity="1" fill-opacity="0" stroke="#000000" stroke-width="1" stroke-opacity="0"></use></g></g><g><use xlink:href="#b7lAmqQLUu" opacity="1" fill="#ffffff" fill-opacity="1"></use><g><use xlink:href="#b7lAmqQLUu" opacity="1" fill-opacity="0" stroke="#000000" stroke-width="1" stroke-opacity="0"></use></g></g><g><use xlink:href="#bye5PRHBT" opacity="1" fill="#000000" fill-opacity="0"></use><g><use xlink:href="#bye5PRHBT" opacity="1" fill-opacity="0" stroke="#1d1d1b" stroke-width="5" stroke-opacity="1"></use></g></g><g><use xlink:href="#cPJ6FKyEs" opacity="1" fill="#000000" fill-opacity="0"></use><g><use xlink:href="#cPJ6FKyEs" opacity="1" fill-opacity="0" stroke="#1d1d1b" stroke-width="4.5" stroke-opacity="1"></use></g></g><g><use xlink:href="#e1G6RlviN4" opacity="1" fill="#ffffff" fill-opacity="1"></use><g><use xlink:href="#e1G6RlviN4" opacity="1" fill-opacity="0" stroke="#000000" stroke-width="1" stroke-opacity="0"></use></g></g><g><use xlink:href="#h1El8BNPVx" opacity="1" fill="#1d1d1b" fill-opacity="1"></use><g><use xlink:href="#h1El8BNPVx" opacity="1" fill-opacity="0" stroke="#000000" stroke-width="1" stroke-opacity="0"></use></g></g><g><use xlink:href="#k48wcLyeJ3" opacity="1" fill="#ffffff" fill-opacity="1"></use><g><use xlink:href="#k48wcLyeJ3" opacity="1" fill-opacity="0" stroke="#000000" stroke-width="1" stroke-opacity="0"></use></g></g><g><use xlink:href="#a4X671ev18" opacity="1" fill="#000000" fill-opacity="0"></use><g><use xlink:href="#a4X671ev18" opacity="1" fill-opacity="0" stroke="#1d1d1b" stroke-width="5" stroke-opacity="1"></use></g></g><g><use xlink:href="#b2TZznZxjY" opacity="1" fill="#1d1d1b" fill-opacity="1"></use><g><use xlink:href="#b2TZznZxjY" opacity="1" fill-opacity="0" stroke="#000000" stroke-width="1" stroke-opacity="0"></use></g></g></g></g></svg>