<?xml version="1.0" encoding="UTF-8" standalone="no"?>
<!DOCTYPE svg PUBLIC "-//W3C//DTD SVG 1.1//EN" "http://www.w3.org/Graphics/SVG/1.1/DTD/svg11.dtd">
<svg version="1.1" xmlns="http://www.w3.org/2000/svg" xmlns:xlink="http://www.w3.org/1999/xlink" preserveAspectRatio="xMidYMid meet" viewBox="0 0 200 200" width="200" height="200"><defs><path d="M179.99 98.65C179.99 142.83 144.18 178.64 100 178.64C55.82 178.64 20.01 142.83 20.01 98.65C20.01 54.47 55.82 18.66 100 18.66C144.18 18.66 179.99 54.47 179.99 98.65" id="alK585Ljp"></path><path d="M100 178.64C55.82 178.64 20.01 142.83 20.01 98.65C20.01 54.47 55.82 18.66 100 18.66C144.18 18.66 179.99 54.47 179.99 98.65C179.99 142.83 144.18 178.64 100 178.64Z" id="b1Kw6NPs92"></path><path d="M100 40.88L100 18.66" id="b1RQVbqCjF"></path><path d="M64.53 51.46C74.82 44.9 86.98 40.88 100.01 40.88C113.2 40.88 125.5 44.76 135.87 51.46" id="a2dQSIW7Hu"></path><path d="M63.34 49.45C63.34 49.45 64.33 48.81 66.06 47.69C66.9 47.12 68.05 46.49 69.39 45.76C70.06 45.4 70.77 45.02 71.52 44.61C72.28 44.27 73.08 43.91 73.92 43.53C75.58 42.73 77.46 42.07 79.45 41.35C80.43 40.95 81.49 40.69 82.55 40.38C83.62 40.09 84.7 39.73 85.84 39.52C86.97 39.3 88.12 39.07 89.29 38.84C90.45 38.59 91.66 38.52 92.86 38.35C94.07 38.19 95.28 38.05 96.51 38.03C96.64 38.03 97.25 38 98.36 37.95L99.28 37.91L99.75 37.89L99.98 37.88C100.18 37.88 100.29 37.89 100.31 37.89C102.68 38.01 104.96 38.01 107.48 38.37C109.97 38.59 112.29 39.09 114.56 39.53C115.68 39.75 116.77 40.09 117.84 40.38C118.91 40.68 119.96 40.96 120.95 41.34C122.94 42.05 124.82 42.71 126.48 43.51C127.32 43.89 128.13 44.25 128.89 44.59C129.63 44.99 130.33 45.37 130.98 45.73C132.3 46.44 133.44 47.06 134.32 47.67C136.11 48.84 137.13 49.5 137.13 49.5C138.21 50.2 138.52 51.65 137.81 52.73C137.15 53.75 135.81 54.07 134.76 53.51C134.74 53.5 134.62 53.43 134.6 53.42C134.6 53.42 133.6 52.88 131.85 51.93C131 51.42 129.91 50.9 128.65 50.33C128.02 50.04 127.36 49.73 126.66 49.4C125.94 49.12 125.18 48.82 124.4 48.5C122.84 47.83 121.08 47.29 119.23 46.71C118.32 46.38 117.34 46.17 116.35 45.94C115.36 45.72 114.37 45.4 113.33 45.21C111.25 44.85 109.09 44.4 106.95 44.25C104.88 43.95 102.43 43.97 100.09 43.88C99 43.91 97.91 43.95 96.83 43.98C95.71 43.98 94.6 44.1 93.5 44.23C92.4 44.37 91.3 44.42 90.24 44.63C89.17 44.82 88.12 45.02 87.08 45.21C86.04 45.38 85.05 45.72 84.06 45.94C83.07 46.19 82.09 46.38 81.18 46.71C79.34 47.31 77.57 47.84 76.02 48.52C75.23 48.84 74.47 49.14 73.75 49.43C73.06 49.75 72.41 50.05 71.79 50.33C70.56 50.9 69.48 51.39 68.57 51.93C66.76 52.91 65.72 53.47 65.72 53.47C64.58 54.08 63.17 53.66 62.55 52.52C61.97 51.45 62.33 50.11 63.34 49.45" id="i4fI7lsP95"></path><path d="M97.27 178.64C96.91 138.98 96.71 116.95 96.67 112.54C96.65 110.7 98.13 109.2 99.97 109.18C101.81 109.16 103.32 110.64 103.33 112.48C103.33 112.5 103.33 112.53 103.33 112.54C103.27 119.15 102.79 172.03 102.73 178.64C102.71 180.15 101.48 181.36 99.98 181.34C98.49 181.33 97.29 180.12 97.27 178.64" id="ffcacXjCm"></path><path d="M71.41 174.3C71.41 174.3 71.26 161.73 71.04 142.87C71 138.15 70.96 133.05 70.92 127.64C70.9 124.94 70.88 122.17 70.86 119.33C70.86 117.91 70.85 116.48 70.84 115.03C70.84 114.99 70.84 114.81 70.84 114.49L70.87 113.78L70.92 112.69L70.98 111.59C71.08 110.81 71.14 110.38 71.16 110.29C71.37 108.51 71.8 106.94 72.29 105.32C72.58 104.52 72.85 103.72 73.17 102.94C73.54 102.17 73.91 101.4 74.27 100.63C75.89 97.63 78.06 94.87 80.67 92.56C85.86 87.9 92.9 85.18 100 85.17C100.25 85.18 102.27 85.28 102.52 85.29C103.34 85.36 104.35 85.54 105.25 85.67C107.05 86.02 108.73 86.46 110.38 87.12C113.68 88.38 116.73 90.25 119.33 92.56C121.94 94.87 124.11 97.63 125.73 100.63C127.35 103.64 128.36 106.92 128.83 110.2C128.84 110.28 128.9 110.69 129.01 111.42C129.05 112.16 129.07 112.58 129.08 112.66C129.11 113.46 129.18 114.35 129.16 115.03C129.15 116.48 129.14 117.91 129.14 119.33C129.11 122.17 129.09 124.94 129.08 127.64C129.04 133.05 129 138.15 128.96 142.87C128.74 161.73 128.59 174.3 128.59 174.3C128.57 175.78 127.36 176.96 125.89 176.94C124.44 176.92 123.27 175.75 123.26 174.3C123.26 174.3 123.11 161.73 122.88 142.87C122.85 138.15 122.81 133.05 122.77 127.64C122.75 124.94 122.73 122.17 122.71 119.33C122.7 117.91 122.7 116.48 122.69 115.03C122.71 114.26 122.63 113.71 122.61 113.05C122.61 112.98 122.59 112.66 122.56 112.08C122.47 111.51 122.42 111.2 122.41 111.13C122.03 108.59 121.24 106.05 119.97 103.72C118.7 101.4 117 99.26 114.97 97.48C112.94 95.7 110.58 94.27 108.03 93.31C106.78 92.81 105.4 92.46 104.12 92.22C103.47 92.14 102.93 92 102.19 91.94C101.97 91.93 100.22 91.84 100 91.83C94.5 91.83 89.08 93.89 85.03 97.48C82.99 99.26 81.3 101.4 80.03 103.72C79.97 103.84 79.68 104.44 79.16 105.51C78.75 106.61 78.52 107.22 78.47 107.35C78.09 108.59 77.74 109.89 77.6 111.04C77.59 111.1 77.54 111.39 77.45 111.92L77.39 113.02L77.33 114.11L77.32 114.38L77.31 114.52C77.31 114.56 77.31 114.58 77.31 114.58C77.32 114.28 77.31 114.54 77.31 114.49C77.31 114.54 77.31 114.98 77.31 115.03C77.3 116.48 77.3 117.91 77.29 119.33C77.27 122.17 77.25 124.94 77.23 127.64C77.19 133.05 77.15 138.15 77.12 142.87C76.89 161.73 76.74 174.3 76.74 174.3C76.73 175.78 75.52 176.96 74.04 176.94C72.59 176.92 71.43 175.75 71.41 174.3" id="b5u2CJYpBL"></path></defs><g><g><g><use xlink:href="#alK585Ljp" opacity="1" fill="#ffffff" fill-opacity="1"></use><g><use xlink:href="#alK585Ljp" opacity="1" fill-opacity="0" stroke="#000000" stroke-width="1" stroke-opacity="0"></use></g></g><g><use xlink:href="#b1Kw6NPs92" opacity="1" fill="#000000" fill-opacity="0"></use><g><use xlink:href="#b1Kw6NPs92" opacity="1" fill-opacity="0" stroke="#1d1d1b" stroke-width="5" stroke-opacity="1"></use></g></g><g><use xlink:href="#b1RQVbqCjF" opacity="1" fill="#000000" fill-opacity="0"></use><g><use xlink:href="#b1RQVbqCjF" opacity="1" fill-opacity="0" stroke="#1d1d1b" stroke-width="4.5" stroke-opacity="1"></use></g></g><g><use xlink:href="#a2dQSIW7Hu" opacity="1" fill="#ffffff" fill-opacity="1"></use><g><use xlink:href="#a2dQSIW7Hu" opacity="1" fill-opacity="0" stroke="#000000" stroke-width="1" stroke-opacity="0"></use></g></g><g><use xlink:href="#i4fI7lsP95" opacity="1" fill="#1d1d1b" fill-opacity="1"></use><g><use xlink:href="#i4fI7lsP95" opacity="1" fill-opacity="0" stroke="#000000" stroke-width="1" stroke-opacity="0"></use></g></g><g><use xlink:href="#ffcacXjCm" opacity="1" fill="#1d1d1b" fill-opacity="1"></use><g><use xlink:href="#ffcacXjCm" opacity="1" fill-opacity="0" stroke="#000000" stroke-width="1" stroke-opacity="0"></use></g></g><g><use xlink:href="#b5u2CJYpBL" opacity="1" fill="#1d1d1b" fill-opacity="1"></use><g><use xlink:href="#b5u2CJYpBL" opacity="1" fill-opacity="0" stroke="#000000" stroke-width="1" stroke-opacity="0"></use></g></g></g></g></svg>