<?xml version="1.0" encoding="UTF-8" standalone="no"?>
<!DOCTYPE svg PUBLIC "-//W3C//DTD SVG 1.1//EN" "http://www.w3.org/Graphics/SVG/1.1/DTD/svg11.dtd">
<svg version="1.1" xmlns="http://www.w3.org/2000/svg" xmlns:xlink="http://www.w3.org/1999/xlink" preserveAspectRatio="xMidYMid meet" viewBox="0 0 200 200" width="200" height="200"><defs><path d="M179.99 109.23C179.99 153.4 144.18 189.22 100 189.22C55.82 189.22 20.01 153.4 20.01 109.23C20.01 65.05 55.82 29.24 100 29.24C144.18 29.24 179.99 65.05 179.99 109.23" id="a1l33jmmb3"></path><path d="M100 189.22C55.82 189.22 20.01 153.4 20.01 109.23C20.01 65.05 55.82 29.24 100 29.24C144.18 29.24 179.99 65.05 179.99 109.23C179.99 153.4 144.18 189.22 100 189.22Z" id="c1z4scruh5"></path><path d="M102.73 29.24C103.09 72.83 103.29 97.05 103.33 101.89C103.35 103.73 101.87 105.24 100.03 105.25C98.19 105.27 96.68 103.79 96.67 101.95C96.67 101.94 96.67 101.91 96.67 101.89C96.73 94.63 97.21 36.5 97.27 29.24C97.29 27.73 98.52 26.52 100.02 26.53C101.51 26.54 102.71 27.75 102.73 29.24" id="b1CrTip9Rs"></path><path d="M131.16 34.57C131.16 34.57 131.31 48.39 131.54 69.12C131.57 74.31 131.61 79.92 131.65 85.86C131.67 88.83 131.69 91.88 131.71 95C131.72 96.56 131.72 98.13 131.73 99.73C131.73 99.77 131.73 99.96 131.73 100.32L131.7 101.08L131.64 102.28L131.58 103.49C131.47 104.34 131.4 104.81 131.39 104.9C131.16 106.83 130.69 108.54 130.15 110.3C129.84 111.16 129.54 112.04 129.2 112.89C128.8 113.73 128.4 114.56 127.99 115.4C126.23 118.67 123.87 121.67 121.03 124.18C118.2 126.7 114.89 128.73 111.3 130.1C109.51 130.81 107.64 131.3 105.75 131.67C104.8 131.8 103.85 132 102.89 132.07C102.79 132.08 102.31 132.11 101.44 132.15L100.72 132.19L100.36 132.21L100.18 132.22C100.13 132.22 100.1 132.22 100.09 132.22C99.99 132.22 100.2 132.23 99.83 132.22C99.57 132.21 97.5 132.1 97.24 132.08C96.35 132.02 95.26 131.82 94.28 131.68C92.33 131.3 90.5 130.82 88.7 130.1C85.11 128.73 81.8 126.7 78.97 124.18C76.13 121.67 73.77 118.67 72.01 115.4C70.24 112.12 69.13 108.56 68.63 104.99C68.61 104.9 68.55 104.46 68.43 103.66C68.39 102.85 68.36 102.4 68.36 102.32C68.32 101.45 68.25 100.48 68.27 99.73C68.28 98.13 68.28 96.56 68.29 95C68.31 91.88 68.33 88.83 68.35 85.86C68.39 79.92 68.43 74.31 68.46 69.12C68.69 48.39 68.84 34.57 68.84 34.57C68.85 33.1 70.06 31.92 71.53 31.93C72.98 31.95 74.15 33.12 74.17 34.57C74.17 34.57 74.32 48.39 74.54 69.12C74.58 74.31 74.61 79.92 74.65 85.86C74.67 88.83 74.69 91.88 74.71 95C74.72 96.56 74.73 98.13 74.74 99.73C74.72 100.56 74.8 101.19 74.82 101.93C74.83 102 74.84 102.35 74.88 103C74.98 103.63 75.04 103.99 75.05 104.06C75.46 106.89 76.35 109.71 77.76 112.31C79.17 114.9 81.06 117.27 83.32 119.26C85.58 121.25 88.22 122.84 91.06 123.91C92.45 124.47 93.99 124.85 95.41 125.13C96.14 125.22 96.76 125.37 97.58 125.44C97.84 125.45 99.91 125.55 100.17 125.56C99.86 125.55 100.12 125.56 100.07 125.55C100.08 125.55 100.1 125.55 100.14 125.55L100.29 125.54L100.57 125.53L101.14 125.5C101.83 125.47 102.21 125.45 102.29 125.45C103.05 125.39 103.8 125.23 104.55 125.14C106.05 124.85 107.53 124.48 108.94 123.91C111.78 122.84 114.42 121.25 116.68 119.26C118.94 117.27 120.83 114.9 122.24 112.31C122.34 112.11 123.11 110.52 123.2 110.32C123.47 109.64 123.71 108.95 123.97 108.27C124.39 106.89 124.79 105.44 124.94 104.15C124.95 104.08 125.01 103.75 125.11 103.16L125.17 101.96L125.24 100.76L125.25 100.46L125.26 100.31C125.26 100.26 125.26 100.24 125.27 100.23C125.26 100.54 125.26 100.28 125.26 100.32C125.26 100.26 125.26 99.79 125.26 99.73C125.27 98.13 125.28 96.56 125.29 95C125.31 91.88 125.33 88.83 125.35 85.86C125.39 79.92 125.42 74.31 125.46 69.12C125.68 48.39 125.83 34.57 125.83 34.57C125.85 33.1 127.05 31.92 128.53 31.93C129.98 31.95 131.15 33.12 131.16 34.57" id="dlwR8gbL4"></path></defs><g><g><g><use xlink:href="#a1l33jmmb3" opacity="1" fill="#ffffff" fill-opacity="1"></use><g><use xlink:href="#a1l33jmmb3" opacity="1" fill-opacity="0" stroke="#000000" stroke-width="1" stroke-opacity="0"></use></g></g><g><use xlink:href="#c1z4scruh5" opacity="1" fill="#000000" fill-opacity="0"></use><g><use xlink:href="#c1z4scruh5" opacity="1" fill-opacity="0" stroke="#1d1d1b" stroke-width="5" stroke-opacity="1"></use></g></g><g><use xlink:href="#b1CrTip9Rs" opacity="1" fill="#1d1d1b" fill-opacity="1"></use><g><use xlink:href="#b1CrTip9Rs" opacity="1" fill-opacity="0" stroke="#000000" stroke-width="1" stroke-opacity="0"></use></g></g><g><use xlink:href="#dlwR8gbL4" opacity="1" fill="#1d1d1b" fill-opacity="1"></use><g><use xlink:href="#dlwR8gbL4" opacity="1" fill-opacity="0" stroke="#000000" stroke-width="1" stroke-opacity="0"></use></g></g></g></g></svg>