<?xml version="1.0" encoding="UTF-8" standalone="no"?>
<!DOCTYPE svg PUBLIC "-//W3C//DTD SVG 1.1//EN" "http://www.w3.org/Graphics/SVG/1.1/DTD/svg11.dtd">
<svg version="1.1" xmlns="http://www.w3.org/2000/svg" xmlns:xlink="http://www.w3.org/1999/xlink" preserveAspectRatio="xMidYMid meet" viewBox="0 0 200 200" width="200" height="200"><defs><path d="M20 155.58C20 133.11 55.65 125.7 99.83 125.7C144 125.7 180 135.75 180 156.1C180 169.85 167.64 178.33 152.18 178.33C134.85 178.33 124.18 169.3 124.18 155.55C124.18 168.21 115.52 176.35 100.18 176.35C83.52 176.35 76.19 168.21 76.19 155.55C76.19 169.3 64.52 178.33 47.86 178.33C32.4 178.33 20 169.33 20 155.58" id="c22eVLpq0G"></path><path d="M26.88 57.55C26.88 40.22 39.41 26.17 54.88 26.17C72.21 26.17 82.87 42.89 82.87 60.22C82.87 44.26 91.54 28.66 106.87 28.66C123.53 28.66 130.87 44.26 130.87 60.22C130.87 42.89 142.53 26.17 159.2 26.17C174.66 26.17 186.89 41.53 186.89 58.86C186.88 63.59 186.86 101.43 186.86 106.16C186.86 150.34 151.05 186.15 106.87 186.15C62.69 186.15 26.88 150.34 26.88 106.16C26.88 96.44 26.88 67.27 26.88 57.55Z" id="e2fd5NEm7L"></path><path d="M30.21 57.63L30.22 85.28L30.23 99.14C30.23 103.3 30.23 105.61 30.23 106.07C30.28 108.29 30.32 110.5 30.54 112.71C31.29 121.53 33.54 130.23 37.29 138.25C41.02 146.27 46.11 153.68 52.35 159.96C58.58 166.25 65.89 171.46 73.87 175.3C81.86 179.11 90.52 181.48 99.31 182.37C99.63 182.39 102.22 182.59 102.54 182.61C103.66 182.67 104.84 182.68 105.99 182.72C106.05 182.72 106.33 182.72 106.85 182.74L107.6 182.72C108.6 182.69 109.15 182.68 109.26 182.68C110.37 182.67 111.47 182.6 112.58 182.5C116.99 182.17 121.38 181.5 125.66 180.4C134.23 178.21 142.42 174.55 149.76 169.61C157.08 164.64 163.53 158.39 168.76 151.25C174.02 144.13 177.94 136.04 180.42 127.56C181.65 123.31 182.56 118.96 183.01 114.56C183.22 112.36 183.42 110.3 183.44 107.92C183.44 107.81 183.46 107.23 183.48 106.19L183.49 104.54L183.49 101.07L183.52 73.35C183.52 65.03 183.53 60.41 183.53 59.48C183.56 55.17 182.9 51.03 181.38 47.08C179.9 43.17 177.67 39.54 174.82 36.57C171.99 33.57 168.42 31.41 164.62 30.29C164.14 30.11 163.69 30.03 163.25 29.96C163.12 29.93 162.05 29.72 161.92 29.69C161.39 29.63 160.78 29.61 160.21 29.57C160.16 29.57 159.87 29.55 159.35 29.52L159.13 29.5C159.07 29.5 159.03 29.5 159.02 29.5C158.94 29.49 159.35 29.51 159.13 29.51C159.1 29.51 158.8 29.53 158.76 29.53C156.77 29.61 154.77 29.83 152.88 30.48C149.08 31.67 145.55 33.92 142.76 37C139.91 40.01 137.67 43.69 136.13 47.66C134.57 51.63 133.7 55.9 133.53 60.2C133.53 60.2 133.53 60.22 133.53 60.22C133.52 61.69 132.33 62.87 130.85 62.87C129.45 62.86 128.31 61.77 128.21 60.39C128.21 60.38 128.21 60.32 128.2 60.22C128.09 58.65 128.03 57.78 128.02 57.6C127.94 56.73 127.83 55.87 127.73 55.01C127.47 53.29 127.15 51.59 126.7 49.94C125.84 46.63 124.57 43.47 122.78 40.74C121.89 39.37 120.86 38.14 119.76 37.02C119.21 36.45 118.57 36 117.99 35.48C117.36 35.03 116.69 34.64 116.05 34.21C115.85 34.11 114.17 33.33 113.96 33.23C113.22 33.01 112.48 32.74 111.75 32.54C111.03 32.43 110.35 32.28 109.61 32.15C109.43 32.14 108.51 32.09 106.85 32C105.55 32.07 104.83 32.11 104.69 32.12C103.92 32.22 103.17 32.41 102.41 32.53C101.67 32.75 100.95 33.02 100.22 33.25C99.53 33.6 98.82 33.9 98.14 34.28C97.51 34.73 96.82 35.09 96.21 35.59C95.63 36.12 94.96 36.55 94.43 37.16C93.31 38.29 92.26 39.53 91.34 40.9C90.42 42.25 89.61 43.72 88.92 45.26C88.22 46.78 87.66 48.39 87.18 50.03C86.69 51.67 86.34 53.35 86.05 55.05C85.95 55.9 85.82 56.76 85.73 57.62C85.72 57.79 85.65 58.65 85.54 60.21C85.54 60.21 85.54 60.22 85.54 60.22C85.52 61.69 84.31 62.86 82.83 62.84C81.43 62.82 80.3 61.72 80.21 60.35C80.21 60.34 80.21 60.29 80.21 60.22C80.1 58.54 80.05 57.61 80.04 57.42C79.95 56.49 79.79 55.57 79.68 54.65C79.36 52.82 78.95 51 78.38 49.24C77.82 47.48 77.17 45.75 76.35 44.11C75.99 43.26 75.51 42.49 75.05 41.7C74.62 40.89 74.09 40.17 73.56 39.43C73.07 38.67 72.47 38 71.88 37.33C71.32 36.62 70.66 36.03 70.02 35.42C69.4 34.77 68.68 34.27 67.98 33.74C67.31 33.16 66.53 32.76 65.79 32.31C65.07 31.82 64.24 31.53 63.46 31.17C62.69 30.76 61.83 30.59 61.02 30.32C60.18 30.01 59.41 29.98 58.62 29.8C57.93 29.61 56.82 29.61 55.85 29.55C55.8 29.55 55.55 29.54 55.1 29.52L54.73 29.5C54.7 29.5 54.68 29.5 54.68 29.5C54.63 29.49 55.05 29.51 54.86 29.5C54.86 29.5 54.85 29.5 54.84 29.5L54.76 29.51L54.6 29.52C53.82 29.57 53.39 29.59 53.3 29.6C52.43 29.6 51.59 29.8 50.74 29.94C49.04 30.25 47.39 30.82 45.8 31.51C45 31.84 44.26 32.33 43.49 32.72C42.74 33.17 42.04 33.7 41.31 34.18C41.11 34.35 39.49 35.71 39.29 35.88C38.69 36.52 38.04 37.13 37.46 37.79C36.92 38.49 36.31 39.14 35.8 39.87C35.33 40.62 34.78 41.33 34.35 42.11C33.94 42.91 33.46 43.66 33.11 44.48C32.77 45.31 32.35 46.11 32.08 46.96C31.82 47.82 31.48 48.65 31.27 49.53C31.09 50.4 30.83 51.29 30.7 52.15C30.59 53.01 30.44 53.8 30.35 54.71C30.33 55.1 30.28 56.07 30.21 57.63ZM23.55 57.4C23.63 55.61 23.67 54.61 23.68 54.41C23.77 53.34 23.95 52.17 24.1 51.05C24.27 49.94 24.56 48.9 24.79 47.83C25.04 46.76 25.44 45.73 25.76 44.69C26.1 43.64 26.59 42.66 27.01 41.64C27.44 40.63 28.02 39.69 28.53 38.71C29.06 37.75 29.72 36.86 30.32 35.93C30.95 35.03 31.69 34.19 32.38 33.33C33.11 32.51 33.92 31.74 34.69 30.94C35.53 30.21 36.39 29.5 37.25 28.8C38.18 28.18 39.09 27.52 40.05 26.94C41.04 26.42 42 25.83 43.04 25.4C45.1 24.5 47.25 23.78 49.47 23.37C50.59 23.19 51.69 22.96 52.83 22.94C52.94 22.94 53.5 22.91 54.52 22.85L54.73 22.84L54.83 22.84L54.86 22.84L55.09 22.84L55.13 22.85L55.51 22.87C55.95 22.91 56.2 22.92 56.25 22.93C57.27 23.02 58.16 23 59.42 23.28C60.58 23.52 61.81 23.68 62.84 24.08C63.91 24.45 65.01 24.73 66.02 25.26C67.03 25.75 68.08 26.18 69.01 26.82C69.96 27.42 70.94 27.98 71.78 28.71C72.65 29.41 73.54 30.08 74.3 30.89C75.09 31.67 75.88 32.44 76.55 33.31C77.26 34.15 77.96 35 78.54 35.92C79.16 36.82 79.78 37.72 80.27 38.68C80.79 39.63 81.33 40.57 81.74 41.57C82.65 43.52 83.38 45.55 83.95 47.6C84.53 49.66 84.91 51.76 85.19 53.87C85.29 54.92 85.42 55.98 85.48 57.04C85.48 57.25 85.5 58.31 85.54 60.22L80.21 60.22L80.21 60.21C80.2 58.44 80.2 57.47 80.2 57.27C80.25 56.29 80.34 55.31 80.41 54.33C80.63 52.38 80.93 50.43 81.4 48.5C81.87 46.58 82.48 44.67 83.25 42.82C84.01 40.96 84.92 39.15 86.02 37.42C87.09 35.69 88.38 34.05 89.85 32.56C90.54 31.79 91.42 31.16 92.2 30.46C93.01 29.78 93.94 29.24 94.82 28.64C95.75 28.11 96.73 27.66 97.68 27.18C98.7 26.82 99.71 26.44 100.74 26.14C101.79 25.93 102.84 25.67 103.89 25.53C104 25.52 104.53 25.48 105.49 25.42L106.28 25.36L106.68 25.34L106.78 25.33L106.83 25.33L106.85 25.33L107.08 25.33L107.25 25.34C108.91 25.45 109.83 25.51 110.01 25.52C111.09 25.69 112.22 25.91 113.32 26.12C114.36 26.42 115.36 26.78 116.38 27.11C117.36 27.55 118.32 28.03 119.28 28.51C120.17 29.1 121.09 29.67 121.94 30.3C122.74 31 123.6 31.66 124.33 32.42C125.81 33.93 127.1 35.59 128.16 37.35C130.29 40.88 131.67 44.7 132.52 48.55C132.94 50.49 133.2 52.44 133.38 54.38C133.44 55.36 133.52 56.33 133.55 57.3C133.55 57.5 133.54 58.47 133.53 60.22L128.2 60.22C128.2 60.21 128.2 60.2 128.2 60.2C127.97 50.33 131.29 40.3 138.05 32.65C141.43 28.84 145.89 25.84 150.88 24.21C153.37 23.34 156.01 22.99 158.62 22.87C158.67 22.87 159.06 22.84 159.11 22.84C158.97 22.83 159.45 22.85 159.44 22.85C159.44 22.85 159.48 22.85 159.54 22.85L159.76 22.87C160.28 22.9 160.57 22.91 160.63 22.92C161.21 22.96 161.76 22.98 162.38 23.04C162.58 23.07 164.24 23.36 164.45 23.4C165.15 23.52 165.84 23.66 166.44 23.88C171.51 25.35 176.09 28.2 179.61 31.91C183.17 35.6 185.86 40.01 187.65 44.73C189.47 49.42 190.28 54.56 190.24 59.49C190.24 60.41 190.24 65.03 190.24 73.35L190.24 101.08L190.24 104.54L190.23 106.36C190.21 107.4 190.19 107.98 190.19 108.09C190.17 110.33 189.97 112.89 189.73 115.29C189.25 120.08 188.26 124.82 186.93 129.45C184.23 138.69 179.97 147.5 174.25 155.26C168.57 163.04 161.56 169.84 153.59 175.26C145.6 180.65 136.68 184.65 127.33 187.03C122.66 188.23 117.88 188.96 113.08 189.31C111.88 189.42 110.68 189.49 109.47 189.5C109.35 189.5 108.75 189.52 107.67 189.54L107.21 189.55L106.99 189.56L106.68 189.56C106.16 189.55 105.87 189.54 105.81 189.54C104.65 189.5 103.52 189.49 102.33 189.43C101.96 189.4 99.02 189.18 98.66 189.15C89.06 188.18 79.64 185.59 70.94 181.42C62.26 177.24 54.31 171.56 47.53 164.72C40.75 157.87 35.22 149.81 31.18 141.08C27.1 132.34 24.66 122.87 23.84 113.28C23.61 110.88 23.57 108.47 23.52 106.07C23.52 105.61 23.53 103.3 23.53 99.14L23.53 85.28C23.54 68.64 23.54 59.4 23.55 57.55C23.55 57.51 23.55 57.44 23.55 57.4" id="a1wR0tVoDm"></path><path d="M49.81 67.07C65.75 62.59 85.48 59.94 106.84 59.94C128.24 59.94 148 62.58 163.95 67.07" id="ai0LpF7gH"></path><path d="M49.35 65.12C49.35 65.12 51.09 64.64 54.13 63.79C55.65 63.38 57.5 62.87 59.62 62.3C61.7 61.65 64.21 61.24 66.92 60.75C69.64 60.26 72.58 59.72 75.69 59.16C78.8 58.77 82.09 58.42 85.49 58.07C87.19 57.89 88.93 57.71 90.68 57.53C92.43 57.42 94.21 57.38 96.01 57.31C99.61 57.19 103.27 57.07 106.93 56.94C110.55 57.04 114.1 57 117.74 57.23C119.54 57.32 121.33 57.41 123.09 57.53C124.85 57.68 126.58 57.83 128.28 57.98C131.69 58.25 134.97 58.77 138.08 59.16C141.17 59.69 144.11 60.08 146.79 60.65C149.48 61.18 151.94 61.66 154.1 62.24C156.26 62.8 158.15 63.21 159.68 63.69C162.74 64.62 164.49 65.14 164.49 65.14C165.55 65.46 166.15 66.58 165.83 67.63C165.53 68.64 164.51 69.23 163.5 69.01C163.49 69.01 163.42 69 163.41 68.99C163.41 68.99 161.67 68.62 158.62 67.95C157.12 67.58 155.24 67.29 153.11 66.88C150.99 66.45 148.56 66.14 145.93 65.7C143.3 65.24 140.41 64.97 137.38 64.57C135.86 64.43 134.29 64.28 132.69 64.13C131.09 63.99 129.46 63.81 127.79 63.72C126.13 63.61 124.44 63.49 122.72 63.38C121.01 63.3 119.29 63.23 117.54 63.16C114.09 62.96 110.43 63.02 106.84 62.94C103.29 63.04 99.75 63.14 96.26 63.24C94.51 63.28 92.77 63.33 91.05 63.38C89.34 63.52 87.65 63.66 85.99 63.81C82.66 64.07 79.44 64.33 76.39 64.57C73.38 65 70.54 65.4 67.92 65.77C65.3 66.17 62.88 66.39 60.72 66.91C58.57 67.35 56.69 67.74 55.15 68.06C52.05 68.66 50.28 69.01 50.28 69.01C49.2 69.23 48.14 68.53 47.92 67.44C47.72 66.41 48.36 65.41 49.35 65.12" id="m2YhRSBMj"></path><path d="M109.48 138.69C109.15 143.53 105.12 147.2 100.5 146.88C95.87 146.57 92.38 142.38 92.72 137.54C93.05 132.69 97.07 129.03 101.7 129.34C106.33 129.66 109.81 133.85 109.48 138.69" id="b126qZLvyA"></path><path d="M130.86 138.94C130.47 138.38 130.11 137.8 129.7 137.27C128.84 136.12 127.93 134.99 126.97 133.9C126.5 133.35 126.02 132.81 125.52 132.29C125.02 131.77 124.54 131.23 124.01 130.75C123 129.73 121.92 128.79 120.84 127.87C119.72 127.01 118.62 126.09 117.42 125.37C116.27 124.56 115.03 123.97 113.81 123.3C112.56 122.81 111.26 122.19 110.1 121.93C109.04 121.51 107.36 121.37 105.89 121.14C106.27 121.18 105.99 121.15 106.07 121.16C106.07 121.16 106.06 121.16 106.06 121.16L106.02 121.16L105.96 121.16L105.84 121.16L105.59 121.16L105.09 121.16C104.5 121.16 104.16 121.16 104.1 121.16C103.44 121.11 102.77 121.25 102.1 121.32C100.76 121.41 99.44 121.83 98.11 122.14C96.81 122.62 95.49 123.02 94.22 123.66C92.93 124.2 91.7 124.94 90.46 125.63C89.25 126.39 88.04 127.16 86.88 128.02C86.28 128.43 85.72 128.89 85.15 129.34C84.58 129.78 84.02 130.24 83.47 130.72C82.36 131.65 81.29 132.64 80.26 133.66C79.23 134.67 78.19 135.77 77.33 136.78C77.35 136.48 77.51 134.06 77.54 133.76C78.25 134.88 79.13 136.11 80.01 137.25C80.89 138.4 81.82 139.53 82.79 140.61C83.27 141.16 83.76 141.69 84.27 142.2C84.77 142.72 85.27 143.26 85.8 143.74C86.83 144.76 87.92 145.68 89.02 146.6C90.16 147.45 91.27 148.36 92.48 149.07C93.64 149.87 94.9 150.45 96.13 151.1C97.39 151.59 98.69 152.19 99.87 152.44C100.49 152.59 101.01 152.81 101.83 152.88C102.03 152.91 103.68 153.13 103.89 153.16C105.22 153.12 106.54 153.23 107.87 152.96C109.21 152.85 110.52 152.41 111.84 152.09C113.13 151.6 114.44 151.19 115.7 150.54C116.98 149.99 118.19 149.23 119.42 148.53C120.62 147.76 121.82 146.99 122.96 146.11C123.55 145.7 124.1 145.24 124.66 144.79C125.23 144.34 125.78 143.88 126.32 143.39C127.41 142.45 128.47 141.46 129.49 140.43C129.96 139.95 130.4 139.43 130.86 138.94M133.69 144.64C132.56 145.76 131.4 146.83 130.18 147.86C129.59 148.38 128.97 148.89 128.34 149.38C127.71 149.87 127.1 150.37 126.44 150.83C125.16 151.78 123.8 152.65 122.44 153.5C121.03 154.29 119.64 155.12 118.13 155.76C116.67 156.49 115.08 157 113.53 157.56C111.9 157.95 110.31 158.44 108.61 158.58C106.94 158.88 105.21 158.77 103.51 158.77C103.26 158.74 101.31 158.46 101.06 158.43C100.36 158.37 99.44 158.09 98.59 157.86C96.79 157.45 95.34 156.74 93.78 156.11C92.33 155.34 90.84 154.61 89.51 153.68C88.11 152.82 86.87 151.8 85.59 150.82C84.37 149.78 83.16 148.73 82.04 147.6C81.45 147.06 80.92 146.47 80.38 145.9C79.82 145.33 79.29 144.74 78.78 144.13C77.74 142.95 76.74 141.72 75.8 140.45C74.83 139.18 73.95 137.94 73.05 136.49C72.45 135.52 72.57 134.3 73.26 133.47C74.35 132.15 75.39 131.05 76.52 129.91C77.63 128.79 78.78 127.71 79.98 126.67C80.57 126.15 81.17 125.64 81.8 125.15C82.42 124.65 83.03 124.14 83.68 123.69C84.95 122.72 86.28 121.84 87.64 120.98C89.04 120.18 90.41 119.34 91.91 118.69C93.36 117.95 94.93 117.42 96.48 116.86C98.09 116.45 99.68 115.94 101.38 115.79C102.22 115.68 103.05 115.52 103.91 115.56C103.99 115.56 104.42 115.55 105.19 115.55L105.83 115.55L106.15 115.55L106.31 115.55L106.39 115.55L106.43 115.55C106.44 115.55 106.45 115.55 106.45 115.55C106.54 115.56 106.27 115.53 106.66 115.57C108.19 115.8 109.57 115.86 111.4 116.41C113.21 116.82 114.67 117.51 116.23 118.12C117.7 118.89 119.2 119.61 120.55 120.53C121.96 121.37 123.22 122.38 124.5 123.36C125.74 124.39 126.97 125.43 128.1 126.55C128.7 127.09 129.24 127.68 129.79 128.25C130.35 128.82 130.89 129.4 131.41 130C132.47 131.19 133.48 132.41 134.44 133.67C135.42 134.95 136.32 136.18 137.25 137.64C137.95 138.74 137.82 140.14 137.01 141.09C135.91 142.39 134.83 143.52 133.69 144.64Z" id="a4oaN1Sy4j"></path><path d="M25.34 105.5C25.34 105.5 25.69 105.05 26.36 104.22C26.7 103.81 27.08 103.3 27.61 102.69C28.16 102.08 28.8 101.38 29.51 100.6C30.23 99.84 31.06 99.07 31.95 98.19C32.86 97.33 33.9 96.47 34.99 95.53C37.26 93.77 39.86 91.8 42.95 90.06C46.02 88.31 49.47 86.6 53.29 85.23C57.11 83.86 61.26 82.77 65.62 82.06C69.97 81.34 74.61 81.07 79.16 81.24C83.93 81.43 88.56 82.17 93.16 83.4C97.74 84.64 102.18 86.38 106.3 88.6C110.42 90.81 114.23 93.43 117.63 96.32C124.41 102.12 129.41 109.02 132.53 115.47C134.11 118.7 135.24 121.81 136.06 124.62C136.82 127.45 137.33 129.96 137.59 132.06C137.86 134.14 137.99 135.8 138.01 136.93C138.04 138.06 138.06 138.67 138.06 138.67C138.12 140.32 136.82 141.71 135.16 141.76C133.51 141.81 132.12 140.51 132.07 138.86C132.07 138.86 132.07 138.85 132.07 138.83C132.07 138.73 132.06 138.68 132.06 138.67C132.06 138.67 132.05 138.13 132.03 137.13C132.02 136.13 131.92 134.67 131.7 132.81C131.5 130.96 131.07 128.72 130.41 126.19C129.71 123.68 128.73 120.89 127.34 117.97C124.6 112.15 120.14 105.85 114.02 100.49C110.95 97.82 107.49 95.39 103.74 93.34C100 91.27 95.95 89.63 91.76 88.45C87.6 87.27 83.21 86.55 79.03 86.33C74.64 86.12 70.45 86.34 66.38 86.97C62.33 87.58 58.47 88.56 54.92 89.79C51.37 91.02 48.16 92.57 45.3 94.16C42.43 95.74 40.01 97.54 37.89 99.14C36.88 100 35.91 100.78 35.07 101.56C34.25 102.36 33.45 103.08 32.81 103.75C32.17 104.44 31.61 105.05 31.11 105.58C30.62 106.12 30.21 106.67 29.87 107.07C29.19 107.89 28.83 108.33 28.83 108.33C28.04 109.29 26.63 109.43 25.67 108.65C24.71 107.86 24.57 106.46 25.34 105.5" id="c2T0yHnhvu"></path></defs><g><g><g><use xlink:href="#c22eVLpq0G" opacity="1" fill="#ffffff" fill-opacity="1"></use><g><use xlink:href="#c22eVLpq0G" opacity="1" fill-opacity="0" stroke="#000000" stroke-width="1" stroke-opacity="0"></use></g></g><g><use xlink:href="#e2fd5NEm7L" opacity="1" fill="#ffffff" fill-opacity="1"></use><g><use xlink:href="#e2fd5NEm7L" opacity="1" fill-opacity="0" stroke="#000000" stroke-width="1" stroke-opacity="0"></use></g></g><g><use xlink:href="#a1wR0tVoDm" opacity="1" fill="#1d1d1b" fill-opacity="1"></use><g><use xlink:href="#a1wR0tVoDm" opacity="1" fill-opacity="0" stroke="#000000" stroke-width="1" stroke-opacity="0"></use></g></g><g><use xlink:href="#ai0LpF7gH" opacity="1" fill="#ffffff" fill-opacity="1"></use><g><use xlink:href="#ai0LpF7gH" opacity="1" fill-opacity="0" stroke="#000000" stroke-width="1" stroke-opacity="0"></use></g></g><g><use xlink:href="#m2YhRSBMj" opacity="1" fill="#1d1d1b" fill-opacity="1"></use><g><use xlink:href="#m2YhRSBMj" opacity="1" fill-opacity="0" stroke="#000000" stroke-width="1" stroke-opacity="0"></use></g></g><g><use xlink:href="#b126qZLvyA" opacity="1" fill="#1d1d1b" fill-opacity="1"></use><g><use xlink:href="#b126qZLvyA" opacity="1" fill-opacity="0" stroke="#000000" stroke-width="1" stroke-opacity="0"></use></g></g><g><use xlink:href="#a4oaN1Sy4j" opacity="1" fill="#1d1d1b" fill-opacity="1"></use><g><use xlink:href="#a4oaN1Sy4j" opacity="1" fill-opacity="0" stroke="#000000" stroke-width="1" stroke-opacity="0"></use></g></g><g><use xlink:href="#c2T0yHnhvu" opacity="1" fill="#1d1d1b" fill-opacity="1"></use><g><use xlink:href="#c2T0yHnhvu" opacity="1" fill-opacity="0" stroke="#000000" stroke-width="1" stroke-opacity="0"></use></g></g></g></g></svg>