<?xml version="1.0" encoding="UTF-8" standalone="no"?>
<!DOCTYPE svg PUBLIC "-//W3C//DTD SVG 1.1//EN" "http://www.w3.org/Graphics/SVG/1.1/DTD/svg11.dtd">
<svg version="1.1" xmlns="http://www.w3.org/2000/svg" xmlns:xlink="http://www.w3.org/1999/xlink" preserveAspectRatio="xMidYMid meet" viewBox="0 0 200 200" width="200" height="200"><defs><path d="M26.81 57.55C26.81 40.22 39.34 26.17 54.81 26.17C72.14 26.17 82.8 42.89 82.8 60.22C82.8 44.26 91.47 28.66 106.8 28.66C123.47 28.66 130.8 44.26 130.8 60.22C130.8 42.89 142.46 26.17 159.13 26.17C174.59 26.17 186.82 41.53 186.82 58.86C186.81 63.59 186.79 101.43 186.79 106.16C186.79 150.34 150.98 186.15 106.8 186.15C62.62 186.15 26.81 150.34 26.81 106.16C26.81 96.44 26.81 67.27 26.81 57.55Z" id="ec3Xo0CmR"></path><path d="M30.14 57.63L30.15 85.28L30.16 99.14C30.16 103.3 30.16 105.61 30.16 106.07C30.21 108.29 30.25 110.5 30.47 112.71C31.22 121.53 33.47 130.23 37.23 138.25C40.95 146.27 46.04 153.68 52.28 159.96C58.51 166.25 65.82 171.46 73.8 175.3C81.79 179.11 90.45 181.48 99.24 182.37C99.56 182.39 102.15 182.59 102.48 182.61C103.59 182.67 104.77 182.68 105.92 182.72C105.98 182.72 106.27 182.72 106.79 182.74L107.53 182.72C108.53 182.69 109.08 182.68 109.19 182.68C110.3 182.67 111.4 182.6 112.51 182.5C116.92 182.17 121.31 181.5 125.59 180.4C134.16 178.21 142.35 174.55 149.69 169.61C157.01 164.64 163.47 158.39 168.7 151.25C173.95 144.13 177.87 136.04 180.35 127.56C181.58 123.31 182.49 118.96 182.95 114.56C183.15 112.36 183.35 110.3 183.37 107.92C183.37 107.81 183.39 107.23 183.41 106.19L183.42 104.54L183.42 101.07L183.45 73.35C183.46 65.03 183.46 60.41 183.46 59.48C183.49 55.17 182.83 51.03 181.31 47.08C179.83 43.17 177.6 39.54 174.75 36.57C171.92 33.57 168.35 31.41 164.56 30.29C164.07 30.11 163.62 30.03 163.18 29.96C163.05 29.93 161.99 29.72 161.85 29.69C161.32 29.63 160.71 29.61 160.14 29.57C160.09 29.57 159.8 29.55 159.28 29.52L159.06 29.5C159 29.5 158.96 29.5 158.96 29.5C158.87 29.49 159.28 29.51 159.06 29.51C159.03 29.51 158.73 29.53 158.69 29.53C156.7 29.61 154.7 29.83 152.81 30.48C149.01 31.67 145.49 33.92 142.69 37C139.84 40.01 137.6 43.69 136.07 47.66C134.5 51.63 133.63 55.9 133.46 60.2C133.46 60.2 133.46 60.22 133.46 60.22C133.46 61.69 132.26 62.87 130.78 62.87C129.38 62.86 128.24 61.77 128.14 60.39C128.14 60.38 128.14 60.32 128.13 60.22C128.02 58.65 127.97 57.78 127.95 57.6C127.88 56.73 127.76 55.87 127.66 55.01C127.41 53.29 127.08 51.59 126.63 49.94C125.77 46.63 124.5 43.47 122.71 40.74C121.82 39.37 120.79 38.14 119.69 37.02C119.14 36.45 118.5 36 117.92 35.48C117.29 35.03 116.62 34.64 115.99 34.21C115.78 34.11 114.1 33.33 113.89 33.23C113.15 33.01 112.41 32.74 111.68 32.54C110.96 32.43 110.28 32.28 109.54 32.15C109.36 32.14 108.44 32.09 106.78 32C105.48 32.07 104.76 32.11 104.62 32.12C103.85 32.22 103.1 32.41 102.34 32.53C101.6 32.75 100.88 33.02 100.15 33.25C99.46 33.6 98.75 33.9 98.08 34.28C97.44 34.73 96.75 35.09 96.14 35.59C95.56 36.12 94.9 36.55 94.36 37.16C93.24 38.29 92.19 39.53 91.27 40.9C90.35 42.25 89.54 43.72 88.85 45.26C88.15 46.78 87.59 48.39 87.12 50.03C86.63 51.67 86.27 53.35 85.98 55.05C85.88 55.9 85.75 56.76 85.66 57.62C85.65 57.79 85.58 58.65 85.47 60.21C85.47 60.21 85.47 60.22 85.47 60.22C85.45 61.69 84.24 62.86 82.76 62.84C81.36 62.82 80.23 61.72 80.14 60.35C80.14 60.34 80.14 60.29 80.14 60.22C80.04 58.54 79.98 57.61 79.97 57.42C79.88 56.49 79.72 55.57 79.61 54.65C79.29 52.82 78.88 51 78.31 49.24C77.75 47.48 77.1 45.75 76.28 44.11C75.92 43.26 75.44 42.49 74.98 41.7C74.56 40.89 74.02 40.17 73.49 39.43C73 38.67 72.4 38 71.81 37.33C71.26 36.62 70.6 36.03 69.95 35.42C69.33 34.77 68.61 34.27 67.91 33.74C67.24 33.16 66.46 32.76 65.72 32.31C65 31.82 64.17 31.53 63.39 31.17C62.62 30.76 61.76 30.59 60.95 30.32C60.11 30.01 59.34 29.98 58.55 29.8C57.86 29.61 56.75 29.61 55.78 29.55C55.73 29.55 55.48 29.54 55.03 29.52L54.66 29.5C54.63 29.5 54.61 29.5 54.61 29.5C54.56 29.49 54.98 29.51 54.79 29.5C54.79 29.5 54.78 29.5 54.77 29.5L54.69 29.51L54.53 29.52C53.75 29.57 53.32 29.59 53.23 29.6C52.37 29.6 51.52 29.8 50.67 29.94C48.97 30.25 47.32 30.82 45.73 31.51C44.93 31.84 44.19 32.33 43.42 32.72C42.67 33.17 41.97 33.7 41.24 34.18C41.04 34.35 39.43 35.71 39.22 35.88C38.62 36.52 37.97 37.13 37.39 37.79C36.85 38.49 36.24 39.14 35.74 39.87C35.26 40.62 34.71 41.33 34.28 42.11C33.88 42.91 33.39 43.66 33.04 44.48C32.7 45.31 32.28 46.11 32.01 46.96C31.75 47.82 31.41 48.65 31.2 49.53C31.02 50.4 30.76 51.29 30.63 52.15C30.52 53.01 30.37 53.8 30.28 54.71C30.26 55.1 30.22 56.07 30.14 57.63ZM23.48 57.4C23.56 55.61 23.6 54.61 23.61 54.41C23.7 53.34 23.88 52.17 24.03 51.05C24.2 49.94 24.49 48.9 24.72 47.83C24.97 46.76 25.37 45.73 25.69 44.69C26.03 43.64 26.52 42.66 26.94 41.64C27.37 40.63 27.95 39.69 28.46 38.71C28.99 37.75 29.65 36.86 30.25 35.93C30.88 35.03 31.62 34.19 32.31 33.33C33.04 32.51 33.85 31.74 34.62 30.94C35.46 30.21 36.32 29.5 37.19 28.8C38.11 28.18 39.02 27.52 39.98 26.94C40.97 26.42 41.93 25.83 42.97 25.4C45.03 24.5 47.18 23.78 49.4 23.37C50.52 23.19 51.63 22.96 52.76 22.94C52.87 22.94 53.43 22.91 54.45 22.85L54.66 22.84L54.76 22.84L54.79 22.84L55.02 22.84L55.06 22.85L55.44 22.87C55.89 22.91 56.13 22.92 56.18 22.93C57.2 23.02 58.09 23 59.35 23.28C60.51 23.52 61.74 23.68 62.77 24.08C63.84 24.45 64.95 24.73 65.95 25.26C66.96 25.75 68.01 26.18 68.94 26.82C69.89 27.42 70.87 27.98 71.71 28.71C72.58 29.41 73.47 30.08 74.23 30.89C75.02 31.67 75.82 32.44 76.48 33.31C77.19 34.15 77.89 35 78.47 35.92C79.09 36.82 79.71 37.72 80.2 38.68C80.72 39.63 81.26 40.57 81.67 41.57C82.58 43.52 83.31 45.55 83.88 47.6C84.46 49.66 84.84 51.76 85.12 53.87C85.22 54.92 85.35 55.98 85.41 57.04C85.41 57.25 85.43 58.31 85.47 60.22L80.14 60.22L80.14 60.21C80.14 58.44 80.14 57.47 80.14 57.27C80.18 56.29 80.27 55.31 80.34 54.33C80.56 52.38 80.86 50.43 81.33 48.5C81.8 46.58 82.41 44.67 83.18 42.82C83.94 40.96 84.85 39.15 85.95 37.42C87.02 35.69 88.31 34.05 89.78 32.56C90.48 31.79 91.35 31.16 92.13 30.46C92.94 29.78 93.88 29.24 94.75 28.64C95.68 28.11 96.66 27.66 97.61 27.18C98.63 26.82 99.64 26.44 100.67 26.14C101.72 25.93 102.77 25.67 103.82 25.53C103.93 25.52 104.46 25.48 105.42 25.42L106.21 25.36L106.61 25.34L106.71 25.33L106.76 25.33L106.79 25.33L107.01 25.33L107.18 25.34C108.84 25.45 109.76 25.51 109.95 25.52C111.02 25.69 112.15 25.91 113.25 26.12C114.29 26.42 115.29 26.78 116.31 27.11C117.29 27.55 118.25 28.03 119.21 28.51C120.1 29.1 121.02 29.67 121.87 30.3C122.67 31 123.53 31.66 124.26 32.42C125.74 33.93 127.03 35.59 128.09 37.35C130.22 40.88 131.6 44.7 132.45 48.55C132.87 50.49 133.13 52.44 133.31 54.38C133.37 55.36 133.45 56.33 133.48 57.3C133.48 57.5 133.47 58.47 133.46 60.22L128.13 60.22C128.13 60.21 128.13 60.2 128.13 60.2C127.9 50.33 131.22 40.3 137.98 32.65C141.36 28.84 145.82 25.84 150.82 24.21C153.3 23.34 155.94 22.99 158.55 22.87C158.6 22.87 158.99 22.84 159.04 22.84C158.9 22.83 159.38 22.85 159.37 22.85C159.37 22.85 159.41 22.85 159.48 22.85L159.69 22.87C160.21 22.9 160.5 22.91 160.56 22.92C161.14 22.96 161.69 22.98 162.31 23.04C162.51 23.07 164.17 23.36 164.38 23.4C165.08 23.52 165.77 23.66 166.37 23.88C171.44 25.35 176.02 28.2 179.55 31.91C183.1 35.6 185.79 40.01 187.58 44.73C189.4 49.42 190.21 54.56 190.17 59.49C190.17 60.41 190.17 65.03 190.17 73.35L190.17 101.08L190.17 104.54L190.16 106.36C190.14 107.4 190.12 107.98 190.12 108.09C190.1 110.33 189.9 112.89 189.66 115.29C189.18 120.08 188.19 124.82 186.86 129.45C184.16 138.69 179.9 147.5 174.19 155.26C168.5 163.04 161.49 169.84 153.52 175.26C145.53 180.65 136.61 184.65 127.26 187.03C122.59 188.23 117.81 188.96 113.01 189.31C111.81 189.42 110.61 189.49 109.4 189.5C109.28 189.5 108.68 189.52 107.6 189.54L107.15 189.55L106.92 189.56L106.61 189.56C106.09 189.55 105.8 189.54 105.75 189.54C104.58 189.5 103.46 189.49 102.26 189.43C101.89 189.4 98.95 189.18 98.59 189.15C88.99 188.18 79.57 185.59 70.87 181.42C62.19 177.24 54.24 171.56 47.47 164.72C40.69 157.87 35.16 149.81 31.11 141.08C27.03 132.34 24.59 122.87 23.77 113.28C23.55 110.88 23.5 108.47 23.46 106.07C23.46 105.61 23.46 103.3 23.46 99.14L23.46 85.28C23.47 68.64 23.48 59.4 23.48 57.55C23.48 57.51 23.48 57.44 23.48 57.4" id="aAWkzNzCs"></path><path d="M49.74 67.07C65.68 62.59 85.41 59.94 106.77 59.94C128.17 59.94 147.93 62.58 163.88 67.07" id="f275XS3Tk"></path><path d="M49.28 65.12C52.15 64.32 53.74 63.88 54.06 63.79C55.58 63.38 57.43 62.87 59.55 62.3C61.64 61.65 64.15 61.24 66.85 60.75C69.57 60.26 72.51 59.72 75.62 59.16C78.73 58.77 82.02 58.42 85.42 58.07C87.13 57.89 88.86 57.71 90.61 57.53C92.36 57.42 94.14 57.38 95.94 57.31C99.54 57.19 103.2 57.07 106.86 56.94C110.48 57.04 114.03 57 117.67 57.23C119.47 57.32 121.26 57.41 123.02 57.53C124.78 57.68 126.51 57.83 128.21 57.98C131.62 58.25 134.9 58.77 138.01 59.16C141.1 59.69 144.04 60.08 146.72 60.65C149.41 61.18 151.87 61.66 154.03 62.24C156.19 62.8 158.08 63.21 159.61 63.69C162.67 64.62 164.42 65.14 164.42 65.14C165.48 65.46 166.08 66.58 165.76 67.63C165.46 68.64 164.44 69.23 163.43 69.01C163.42 69.01 163.35 69 163.34 68.99C163.34 68.99 161.6 68.62 158.55 67.95C157.05 67.58 155.17 67.29 153.04 66.88C150.92 66.45 148.49 66.14 145.86 65.7C143.23 65.24 140.34 64.97 137.31 64.57C135.79 64.43 134.22 64.28 132.62 64.13C131.02 63.99 129.39 63.81 127.73 63.72C126.06 63.61 124.37 63.49 122.65 63.38C120.94 63.3 119.22 63.23 117.47 63.16C114.03 62.96 110.36 63.02 106.77 62.94C103.23 63.04 99.68 63.14 96.19 63.24C94.44 63.28 92.7 63.33 90.98 63.38C89.27 63.52 87.58 63.66 85.92 63.81C82.59 64.07 79.37 64.33 76.32 64.57C73.32 65 70.47 65.4 67.85 65.77C65.23 66.17 62.81 66.39 60.65 66.91C58.5 67.35 56.62 67.74 55.08 68.06C51.98 68.66 50.21 69.01 50.21 69.01C49.13 69.23 48.07 68.53 47.86 67.44C47.65 66.41 48.29 65.41 49.28 65.12" id="daQCxEWxW"></path><path d="M109.87 86.6C109.87 86.6 109.91 87.63 109.99 89.43C110.04 91.23 110.16 93.8 110.21 96.88C110.26 99.96 110.38 103.56 110.4 107.42C110.42 111.27 110.45 115.38 110.48 119.49C110.45 123.6 110.42 127.71 110.4 131.57C110.37 135.42 110.26 139.02 110.21 142.1C110.15 145.18 110.04 147.75 109.99 149.55C109.91 151.35 109.87 152.38 109.87 152.38C109.8 154.06 108.37 155.37 106.69 155.31C105.09 155.24 103.83 153.95 103.76 152.38C103.76 152.38 103.71 151.35 103.64 149.55C103.59 147.75 103.47 145.18 103.42 142.1C103.36 139.02 103.25 135.42 103.23 131.57C103.2 127.71 103.18 123.6 103.15 119.49C103.18 115.38 103.2 111.27 103.23 107.42C103.25 103.56 103.36 99.96 103.41 96.88C103.47 93.8 103.59 91.23 103.64 89.43C103.71 87.63 103.76 86.6 103.76 86.6C103.83 84.92 105.25 83.61 106.94 83.68C108.54 83.75 109.8 85.04 109.87 86.6" id="cCmxLgynU"></path><path d="M73.93 116.44C73.93 116.44 74.95 116.39 76.75 116.32C78.55 116.27 81.12 116.15 84.2 116.09C87.29 116.04 90.88 115.93 94.74 115.91C98.59 115.88 102.7 115.85 106.81 115.83C110.92 115.85 115.03 115.88 118.89 115.91C122.74 115.92 126.34 116.04 129.42 116.09C132.51 116.15 135.07 116.27 136.87 116.32C138.67 116.39 139.7 116.44 139.7 116.44C141.39 116.51 142.7 117.93 142.63 119.62C142.56 121.22 141.27 122.48 139.7 122.55C139.7 122.55 138.67 122.59 136.87 122.67C135.07 122.72 132.51 122.84 129.42 122.89C126.34 122.94 122.74 123.06 118.89 123.08C115.03 123.1 110.92 123.13 106.81 123.16C102.7 123.13 98.59 123.1 94.74 123.08C90.88 123.05 87.29 122.94 84.2 122.89C81.12 122.83 78.55 122.71 76.75 122.66C74.95 122.59 73.93 122.55 73.93 122.55C72.24 122.48 70.93 121.05 71 119.36C71.07 117.77 72.36 116.51 73.93 116.44" id="c4IfzZBf1x"></path></defs><g><g><g><use xlink:href="#ec3Xo0CmR" opacity="1" fill="#ffffff" fill-opacity="1"></use><g><use xlink:href="#ec3Xo0CmR" opacity="1" fill-opacity="0" stroke="#000000" stroke-width="1" stroke-opacity="0"></use></g></g><g><use xlink:href="#aAWkzNzCs" opacity="1" fill="#1d1d1b" fill-opacity="1"></use><g><use xlink:href="#aAWkzNzCs" opacity="1" fill-opacity="0" stroke="#000000" stroke-width="1" stroke-opacity="0"></use></g></g><g><use xlink:href="#f275XS3Tk" opacity="1" fill="#ffffff" fill-opacity="1"></use><g><use xlink:href="#f275XS3Tk" opacity="1" fill-opacity="0" stroke="#000000" stroke-width="1" stroke-opacity="0"></use></g></g><g><use xlink:href="#daQCxEWxW" opacity="1" fill="#1d1d1b" fill-opacity="1"></use><g><use xlink:href="#daQCxEWxW" opacity="1" fill-opacity="0" stroke="#000000" stroke-width="1" stroke-opacity="0"></use></g></g><g><use xlink:href="#cCmxLgynU" opacity="1" fill="#1d1d1b" fill-opacity="1"></use><g><use xlink:href="#cCmxLgynU" opacity="1" fill-opacity="0" stroke="#000000" stroke-width="1" stroke-opacity="0"></use></g></g><g><use xlink:href="#c4IfzZBf1x" opacity="1" fill="#1d1d1b" fill-opacity="1"></use><g><use xlink:href="#c4IfzZBf1x" opacity="1" fill-opacity="0" stroke="#000000" stroke-width="1" stroke-opacity="0"></use></g></g></g></g></svg>