<?xml version="1.0" encoding="UTF-8" standalone="no"?>
<!DOCTYPE svg PUBLIC "-//W3C//DTD SVG 1.1//EN" "http://www.w3.org/Graphics/SVG/1.1/DTD/svg11.dtd">
<svg version="1.1" xmlns="http://www.w3.org/2000/svg" xmlns:xlink="http://www.w3.org/1999/xlink" preserveAspectRatio="xMidYMid meet" viewBox="0 0 200 200" width="200" height="200"><defs><path d="M20 57.45C20 40.12 32.53 26.07 47.99 26.07C65.32 26.07 75.99 42.79 75.99 60.12C75.99 44.16 84.66 28.56 99.99 28.56C116.65 28.56 123.98 44.16 123.98 60.12C123.98 42.79 135.65 26.07 152.31 26.07C167.78 26.07 180 41.43 180 58.76C180 63.49 179.98 101.33 179.98 106.06C179.98 150.24 144.16 186.05 99.99 186.05C55.81 186.05 20 150.24 20 106.06C20 96.34 20 67.17 20 57.45Z" id="c1p1xnJ4Lb"></path><path d="M23.33 57.53L23.34 85.18L23.35 99.04C23.35 103.2 23.35 105.51 23.35 105.97C23.4 108.19 23.44 110.4 23.65 112.61C24.41 121.43 26.66 130.13 30.41 138.15C34.14 146.17 39.23 153.58 45.47 159.86C51.7 166.15 59.01 171.36 66.99 175.2C74.97 179.01 83.63 181.38 92.42 182.27C92.75 182.29 95.34 182.49 95.66 182.52C96.77 182.58 97.96 182.58 99.11 182.62C99.16 182.62 99.45 182.63 99.97 182.64L100.72 182.62C101.71 182.59 102.27 182.58 102.38 182.58C103.49 182.57 104.59 182.5 105.69 182.4C110.1 182.07 114.49 181.4 118.78 180.3C127.35 178.11 135.54 174.46 142.88 169.51C150.2 164.54 156.65 158.29 161.88 151.16C167.14 144.03 171.06 135.94 173.54 127.46C174.77 123.21 175.68 118.86 176.13 114.46C176.34 112.26 176.53 110.2 176.56 107.82C176.56 107.71 176.57 107.13 176.6 106.09L176.6 104.44L176.61 100.98L176.63 73.25C176.64 64.93 176.65 60.31 176.65 59.38C176.68 55.08 176.01 50.93 174.5 46.99C173.02 43.07 170.79 39.44 167.94 36.47C165.11 33.47 161.54 31.32 157.74 30.2C157.26 30.01 156.81 29.94 156.37 29.86C156.24 29.83 155.17 29.62 155.04 29.59C154.51 29.53 153.9 29.51 153.33 29.47C153.27 29.47 152.99 29.45 152.47 29.42L152.25 29.4C152.19 29.4 152.15 29.4 152.14 29.4C152.06 29.39 152.47 29.41 152.25 29.41C152.21 29.41 151.91 29.43 151.88 29.43C149.89 29.51 147.89 29.73 146 30.38C142.2 31.57 138.67 33.82 135.88 36.9C133.03 39.91 130.79 43.59 129.25 47.57C127.68 51.53 126.81 55.8 126.65 60.1C126.65 60.1 126.65 60.12 126.65 60.12C126.64 61.59 125.44 62.77 123.97 62.77C122.57 62.76 121.42 61.67 121.33 60.29C121.33 60.28 121.32 60.22 121.32 60.12C121.21 58.55 121.15 57.68 121.14 57.5C121.06 56.63 120.94 55.77 120.85 54.91C120.59 53.19 120.27 51.49 119.82 49.84C118.96 46.53 117.68 43.37 115.9 40.64C115.01 39.27 113.98 38.04 112.88 36.92C112.33 36.35 111.69 35.9 111.11 35.38C110.48 34.93 109.81 34.54 109.17 34.11C108.96 34.01 107.29 33.23 107.08 33.13C106.34 32.91 105.6 32.64 104.87 32.44C104.15 32.33 103.47 32.18 102.73 32.05C102.54 32.04 101.62 31.99 99.97 31.9C98.67 31.97 97.95 32.01 97.8 32.02C97.04 32.12 96.29 32.31 95.53 32.43C94.79 32.65 94.07 32.92 93.33 33.15C92.65 33.5 91.94 33.8 91.26 34.18C90.63 34.63 89.94 34.99 89.33 35.49C88.74 36.03 88.08 36.45 87.55 37.06C86.42 38.19 85.38 39.43 84.46 40.8C83.53 42.15 82.72 43.62 82.04 45.16C81.34 46.69 80.78 48.29 80.3 49.93C79.81 51.57 79.45 53.25 79.17 54.95C79.07 55.8 78.93 56.66 78.85 57.52C78.83 57.69 78.77 58.55 78.66 60.11C78.66 60.11 78.66 60.12 78.66 60.12C78.63 61.59 77.42 62.77 75.95 62.74C74.55 62.72 73.42 61.62 73.33 60.25C73.33 60.24 73.33 60.19 73.32 60.12C73.22 58.44 73.17 57.51 73.16 57.32C73.06 56.39 72.91 55.47 72.8 54.55C72.47 52.72 72.07 50.9 71.5 49.14C70.94 47.38 70.29 45.65 69.47 44.01C69.11 43.16 68.63 42.39 68.17 41.6C67.74 40.79 67.2 40.07 66.68 39.33C66.19 38.57 65.59 37.9 65 37.23C64.44 36.52 63.78 35.93 63.13 35.32C62.52 34.67 61.8 34.17 61.1 33.64C60.43 33.06 59.65 32.66 58.91 32.21C58.18 31.72 57.36 31.43 56.58 31.07C55.81 30.66 54.95 30.49 54.13 30.22C53.3 29.91 52.53 29.88 51.74 29.7C51.05 29.51 49.93 29.51 48.96 29.45C48.91 29.45 48.66 29.44 48.22 29.42L47.84 29.4C47.82 29.4 47.8 29.4 47.8 29.4C47.74 29.39 48.17 29.41 47.98 29.4C47.98 29.4 47.97 29.4 47.96 29.4L47.88 29.41L47.72 29.42C46.94 29.47 46.51 29.5 46.42 29.5C45.55 29.5 44.71 29.7 43.85 29.84C42.15 30.15 40.51 30.72 38.92 31.41C38.11 31.74 37.38 32.23 36.6 32.62C35.86 33.07 35.16 33.6 34.42 34.08C34.22 34.25 32.61 35.61 32.41 35.78C31.8 36.42 31.16 37.03 30.57 37.69C30.03 38.39 29.43 39.05 28.92 39.77C28.45 40.52 27.9 41.23 27.47 42.01C27.06 42.81 26.57 43.56 26.22 44.38C25.89 45.21 25.47 46.01 25.2 46.86C24.94 47.72 24.6 48.55 24.39 49.43C24.21 50.3 23.95 51.19 23.81 52.05C23.71 52.91 23.56 53.7 23.47 54.61C23.45 55 23.4 55.97 23.33 57.53ZM16.67 57.3C16.74 55.51 16.79 54.51 16.79 54.31C16.89 53.24 17.07 52.07 17.21 50.95C17.39 49.84 17.67 48.8 17.91 47.73C18.16 46.66 18.55 45.63 18.88 44.59C19.21 43.54 19.71 42.56 20.12 41.54C20.56 40.53 21.14 39.59 21.64 38.61C22.18 37.65 22.84 36.76 23.44 35.83C24.07 34.93 24.8 34.1 25.49 33.23C26.23 32.41 27.03 31.64 27.81 30.84C28.65 30.11 29.51 29.4 30.37 28.7C31.3 28.08 32.21 27.42 33.16 26.84C34.16 26.33 35.12 25.73 36.16 25.3C38.21 24.4 40.37 23.68 42.59 23.27C43.7 23.09 44.81 22.86 45.94 22.84C46.06 22.84 46.62 22.81 47.63 22.75L47.84 22.74L47.95 22.74L47.98 22.74L48.2 22.74L48.25 22.75L48.62 22.77C49.07 22.81 49.32 22.82 49.37 22.83C50.38 22.92 51.27 22.9 52.53 23.18C53.69 23.42 54.93 23.58 55.96 23.98C57.03 24.35 58.13 24.63 59.13 25.16C60.15 25.65 61.2 26.08 62.13 26.72C63.08 27.32 64.05 27.88 64.9 28.61C65.77 29.31 66.66 29.98 67.42 30.79C68.21 31.57 69 32.34 69.67 33.21C70.37 34.06 71.08 34.9 71.66 35.82C72.27 36.72 72.89 37.62 73.38 38.58C73.91 39.53 74.45 40.47 74.86 41.47C75.77 43.42 76.49 45.45 77.07 47.5C77.64 49.56 78.03 51.66 78.31 53.77C78.41 54.82 78.53 55.88 78.59 56.94C78.6 57.15 78.62 58.21 78.66 60.12L73.32 60.12L73.32 60.11C73.32 58.35 73.32 57.37 73.32 57.17C73.36 56.19 73.46 55.21 73.53 54.23C73.75 52.28 74.05 50.33 74.51 48.4C74.99 46.48 75.59 44.57 76.37 42.72C77.12 40.86 78.04 39.05 79.13 37.33C80.21 35.59 81.5 33.95 82.97 32.46C83.66 31.69 84.53 31.06 85.32 30.36C86.13 29.68 87.06 29.14 87.94 28.54C88.86 28.01 89.84 27.56 90.8 27.08C91.81 26.72 92.83 26.34 93.86 26.04C94.9 25.83 95.96 25.57 97.01 25.43C97.12 25.42 97.65 25.38 98.6 25.32L99.4 25.26L99.8 25.24L99.9 25.23L99.95 25.23L99.97 25.23L100.2 25.23L100.37 25.25C102.03 25.35 102.95 25.41 103.13 25.42C104.21 25.59 105.34 25.81 106.43 26.03C107.48 26.32 108.48 26.68 109.49 27.01C110.47 27.45 111.44 27.93 112.4 28.41C113.29 29 114.21 29.57 115.06 30.2C115.86 30.9 116.71 31.56 117.45 32.32C118.93 33.83 120.21 35.49 121.27 37.25C123.41 40.78 124.79 44.6 125.64 48.45C126.05 50.39 126.32 52.34 126.5 54.28C126.55 55.26 126.64 56.23 126.67 57.2C126.67 57.4 126.66 58.37 126.65 60.12L121.32 60.12C121.32 60.11 121.32 60.1 121.32 60.1C121.09 50.23 124.41 40.2 131.17 32.55C134.54 28.74 139.01 25.74 144 24.11C146.48 23.24 149.12 22.89 151.74 22.77C151.79 22.77 152.18 22.74 152.23 22.74C152.09 22.73 152.56 22.75 152.55 22.75C152.56 22.75 152.6 22.75 152.66 22.75L152.88 22.77C153.4 22.8 153.69 22.81 153.74 22.82C154.33 22.86 154.88 22.88 155.49 22.94C155.7 22.97 157.36 23.27 157.57 23.3C158.27 23.42 158.95 23.56 159.56 23.78C164.62 25.25 169.21 28.1 172.73 31.81C176.29 35.51 178.98 39.91 180.77 44.63C182.59 49.32 183.4 54.46 183.36 59.39C183.36 60.31 183.36 64.93 183.36 73.25L183.35 100.98L183.35 104.44L183.35 106.26C183.32 107.3 183.31 107.88 183.31 107.99C183.29 110.23 183.08 112.79 182.85 115.19C182.36 119.98 181.38 124.72 180.04 129.35C177.35 138.59 173.08 147.4 167.37 155.16C161.69 162.94 154.67 169.74 146.7 175.16C138.72 180.55 129.8 184.56 120.45 186.93C115.78 188.13 111 188.86 106.2 189.21C104.99 189.32 103.79 189.39 102.59 189.4C102.47 189.4 101.87 189.42 100.78 189.44L100.33 189.45L100.11 189.46L99.8 189.46C99.28 189.45 98.99 189.44 98.93 189.44C97.77 189.4 96.64 189.39 95.45 189.33C95.08 189.3 92.14 189.08 91.77 189.05C82.18 188.08 72.76 185.49 64.06 181.32C55.37 177.14 47.42 171.46 40.65 164.62C33.87 157.77 28.34 149.71 24.29 140.98C20.22 132.24 17.77 122.77 16.96 113.18C16.73 110.78 16.69 108.37 16.64 105.97C16.64 105.51 16.64 103.2 16.64 99.04L16.65 85.18C16.66 68.54 16.66 59.3 16.66 57.45C16.66 57.41 16.66 57.34 16.67 57.3" id="h6OxVIGQHw"></path><path d="M42.93 66.97C58.86 62.49 78.59 59.84 99.96 59.84C121.36 59.84 141.12 62.48 157.07 66.97" id="c8RIIH2Lh4"></path><path d="M42.47 65.02C45.33 64.22 46.92 63.78 47.24 63.69C48.76 63.28 50.62 62.77 52.74 62.2C54.82 61.55 57.33 61.14 60.04 60.65C62.76 60.16 65.7 59.62 68.81 59.06C71.92 58.68 75.2 58.32 78.61 57.97C80.31 57.79 82.04 57.61 83.79 57.43C85.55 57.32 87.33 57.28 89.12 57.21C92.73 57.09 96.39 56.97 100.05 56.84C103.67 56.94 107.22 56.9 110.85 57.13C112.66 57.22 114.45 57.31 116.21 57.43C117.96 57.58 119.7 57.74 121.4 57.88C124.81 58.15 128.09 58.67 131.19 59.06C134.29 59.59 137.23 59.98 139.91 60.55C142.6 61.08 145.06 61.56 147.22 62.14C149.37 62.7 151.27 63.11 152.8 63.59C155.86 64.52 157.61 65.04 157.61 65.04C158.67 65.36 159.27 66.48 158.95 67.53C158.65 68.54 157.62 69.13 156.62 68.91C156.61 68.91 156.53 68.9 156.52 68.89C156.52 68.89 154.79 68.52 151.74 67.85C150.23 67.48 148.36 67.19 146.23 66.78C144.11 66.35 141.68 66.04 139.04 65.6C136.42 65.14 133.53 64.87 130.5 64.47C128.98 64.33 127.41 64.18 125.81 64.03C124.21 63.89 122.58 63.71 120.91 63.62C119.25 63.51 117.55 63.39 115.84 63.28C114.13 63.21 112.4 63.13 110.66 63.06C107.21 62.86 103.54 62.92 99.96 62.84C96.41 62.94 92.87 63.04 89.38 63.14C87.62 63.18 85.88 63.23 84.17 63.28C82.46 63.42 80.77 63.57 79.1 63.71C75.78 63.97 72.56 64.23 69.51 64.47C66.5 64.9 63.66 65.3 61.04 65.67C58.41 66.07 56 66.29 53.84 66.81C51.69 67.25 49.81 67.64 48.26 67.96C45.17 68.56 43.4 68.91 43.4 68.91C42.31 69.13 41.26 68.43 41.04 67.34C40.84 66.31 41.47 65.31 42.47 65.02" id="cgiLy9h2f"></path><path d="M96.69 186.05C96.47 131.66 96.34 101.44 96.32 95.4C96.31 93.37 97.95 91.72 99.97 91.71C102 91.71 103.64 93.34 103.65 95.37C103.65 95.37 103.65 95.38 103.65 95.4C103.43 149.79 103.31 180.01 103.29 186.05C103.28 187.87 101.8 189.35 99.97 189.34C98.16 189.33 96.7 187.86 96.69 186.05" id="b1WsmiZTd"></path><path d="M121.16 128.43C121.16 123.42 125.23 119.35 130.24 119.35C135.25 119.35 139.31 123.42 139.31 128.43C139.31 133.44 135.25 137.51 130.24 137.51C125.23 137.51 121.16 133.44 121.16 128.43" id="b3GVdtMpxY"></path><path d="M60.66 128.43C60.66 123.42 64.72 119.35 69.74 119.35C74.75 119.35 78.81 123.42 78.81 128.43C78.81 133.44 74.75 137.51 69.74 137.51C64.72 137.51 60.66 133.44 60.66 128.43" id="a3qemnwrpo"></path></defs><g><g><g><use xlink:href="#c1p1xnJ4Lb" opacity="1" fill="#ffffff" fill-opacity="1"></use><g><use xlink:href="#c1p1xnJ4Lb" opacity="1" fill-opacity="0" stroke="#000000" stroke-width="1" stroke-opacity="0"></use></g></g><g><use xlink:href="#h6OxVIGQHw" opacity="1" fill="#1d1d1b" fill-opacity="1"></use><g><use xlink:href="#h6OxVIGQHw" opacity="1" fill-opacity="0" stroke="#000000" stroke-width="1" stroke-opacity="0"></use></g></g><g><use xlink:href="#c8RIIH2Lh4" opacity="1" fill="#ffffff" fill-opacity="1"></use><g><use xlink:href="#c8RIIH2Lh4" opacity="1" fill-opacity="0" stroke="#000000" stroke-width="1" stroke-opacity="0"></use></g></g><g><use xlink:href="#cgiLy9h2f" opacity="1" fill="#1d1d1b" fill-opacity="1"></use><g><use xlink:href="#cgiLy9h2f" opacity="1" fill-opacity="0" stroke="#000000" stroke-width="1" stroke-opacity="0"></use></g></g><g><use xlink:href="#b1WsmiZTd" opacity="1" fill="#1d1d1b" fill-opacity="1"></use><g><use xlink:href="#b1WsmiZTd" opacity="1" fill-opacity="0" stroke="#000000" stroke-width="1" stroke-opacity="0"></use></g></g><g><use xlink:href="#b3GVdtMpxY" opacity="1" fill="#1d1d1b" fill-opacity="1"></use><g><use xlink:href="#b3GVdtMpxY" opacity="1" fill-opacity="0" stroke="#000000" stroke-width="1" stroke-opacity="0"></use></g></g><g><use xlink:href="#a3qemnwrpo" opacity="1" fill="#1d1d1b" fill-opacity="1"></use><g><use xlink:href="#a3qemnwrpo" opacity="1" fill-opacity="0" stroke="#000000" stroke-width="1" stroke-opacity="0"></use></g></g></g></g></svg>