<?xml version="1.0" encoding="UTF-8" standalone="no"?>
<!DOCTYPE svg PUBLIC "-//W3C//DTD SVG 1.1//EN" "http://www.w3.org/Graphics/SVG/1.1/DTD/svg11.dtd">
<svg version="1.1" xmlns="http://www.w3.org/2000/svg" xmlns:xlink="http://www.w3.org/1999/xlink" preserveAspectRatio="xMidYMid meet" viewBox="0 0 200 200" width="200" height="200"><defs><path d="M19.9 157.24C19.9 134.77 55.55 127.37 99.73 127.37C143.91 127.37 179.9 137.42 179.9 157.76C179.9 171.51 167.54 179.99 152.08 179.99C134.75 179.99 124.08 170.96 124.08 157.21C124.08 169.87 115.42 178.02 100.09 178.02C83.42 178.02 76.09 169.87 76.09 157.21C76.09 170.96 64.42 179.99 47.76 179.99C32.3 179.99 19.9 170.99 19.9 157.24" id="bGxnJ47ce"></path><path d="M23.24 157.25C23.24 160.13 23.92 162.92 25.25 165.39C26.58 167.86 28.55 170.01 30.92 171.69C33.28 173.4 36.04 174.66 38.95 175.47C40.41 175.88 41.91 176.18 43.43 176.37C44.96 176.57 46.42 176.65 48.03 176.66C51.16 176.68 54.26 176.34 57.22 175.59C60.18 174.85 62.97 173.63 65.4 171.98C67.83 170.33 69.84 168.16 71.21 165.63C72.61 163.11 73.35 160.22 73.42 157.21C73.42 157.21 73.42 157.14 73.42 157.13C73.46 155.66 74.68 154.49 76.15 154.53C77.61 154.57 78.76 155.76 78.75 157.21C78.75 157.21 78.75 157.21 78.75 157.21C78.91 159.97 79.35 162.65 80.38 164.97C81.37 167.31 82.86 169.29 84.84 170.74C86.81 172.19 89.18 173.23 91.78 173.84C93.07 174.14 94.41 174.37 95.78 174.5C97.2 174.62 98.41 174.68 99.99 174.68C101.3 174.69 102.73 174.64 104.07 174.49C105.43 174.36 106.76 174.12 108.04 173.79C110.62 173.15 112.98 172.05 115 170.58C117.01 169.1 118.59 167.13 119.64 164.84C120.75 162.55 121.26 159.93 121.42 157.21C121.77 157.21 123.55 157.21 126.75 157.21C126.75 157.21 126.75 157.21 126.75 157.21C126.83 159.7 127.27 162.13 128.18 164.32C129.1 166.52 130.41 168.5 132.1 170.15C135.5 173.46 140.22 175.39 145.2 176.19C146.45 176.39 147.72 176.52 148.99 176.6C149.64 176.63 150.19 176.66 150.89 176.67C150.96 176.67 151.3 176.67 151.92 176.68C152.47 176.66 152.78 176.66 152.84 176.65C155.38 176.59 157.91 176.29 160.33 175.68C165.17 174.52 169.63 172.1 172.64 168.58C174.14 166.82 175.24 164.78 175.88 162.58C176.2 161.52 176.41 160.28 176.48 159.24C176.58 157.92 176.57 156.9 176.41 155.79C175.84 151.43 172.74 147.56 168.67 144.62C164.61 141.65 159.73 139.48 154.72 137.74C149.68 136.01 144.43 134.72 139.11 133.71C128.46 131.72 117.54 130.79 106.62 130.48C101.17 130.32 95.66 130.35 90.19 130.52C84.71 130.68 79.24 130.97 73.81 131.46C68.38 131.95 62.97 132.62 57.65 133.59C52.34 134.56 47.09 135.83 42.12 137.63C37.18 139.43 32.44 141.78 28.84 145.06C27.05 146.7 25.6 148.56 24.65 150.62C24.17 151.64 23.81 152.72 23.57 153.82C23.46 154.38 23.38 154.94 23.31 155.51C23.31 155.56 23.29 155.82 23.26 156.29C23.25 156.8 23.24 157.12 23.24 157.25ZM16.57 157.16L16.6 156.12C16.66 155.35 16.69 154.92 16.7 154.83C16.79 154.03 16.92 153.22 17.09 152.43C17.44 150.83 17.98 149.27 18.69 147.8C20.09 144.85 22.15 142.31 24.46 140.24C29.12 136.09 34.55 133.57 39.98 131.63C45.43 129.71 50.99 128.44 56.55 127.45C62.11 126.46 67.7 125.81 73.28 125.34C78.86 124.87 84.45 124.6 90.03 124.47C95.61 124.36 101.16 124.32 106.77 124.43C117.94 124.69 129.14 125.56 140.25 127.57C145.8 128.6 151.33 129.88 156.77 131.7C162.19 133.54 167.58 135.83 172.5 139.34C174.95 141.1 177.28 143.19 179.19 145.79C181.09 148.36 182.52 151.49 183.01 154.8C183.27 156.43 183.27 158.18 183.17 159.62C183.06 161.34 182.79 162.84 182.34 164.43C181.46 167.54 179.9 170.49 177.82 172.95C173.63 177.92 167.77 180.81 161.91 182.21C158.96 182.91 155.95 183.27 152.97 183.3C152.58 183.3 152.26 183.31 151.81 183.3C151.71 183.3 150.88 183.28 150.78 183.27C150.09 183.25 149.27 183.2 148.53 183.15C147.05 183.02 145.57 182.84 144.09 182.56C141.14 182.02 138.21 181.14 135.41 179.82C132.63 178.47 130 176.68 127.81 174.38C125.62 172.09 123.89 169.33 122.84 166.35C121.77 163.38 121.37 160.25 121.42 157.21C121.42 157.21 121.42 157.21 121.42 157.21C121.32 155.74 122.44 154.48 123.91 154.39C125.38 154.3 126.64 155.41 126.73 156.88C126.73 156.88 126.73 156.89 126.74 156.91C126.74 157.09 126.75 157.19 126.75 157.21C126.9 160.5 126.43 163.94 125.15 167.19C123.85 170.43 121.66 173.39 118.91 175.6C116.18 177.83 112.94 179.24 109.71 180.13C108.08 180.56 106.45 180.87 104.81 181.06C103.16 181.25 101.59 181.34 99.89 181.35C98.46 181.33 96.66 181.24 95.09 181.06C93.47 180.89 91.83 180.6 90.21 180.19C86.98 179.37 83.68 178.01 80.91 175.74C78.12 173.51 75.99 170.41 74.81 167.14C73.64 163.85 73.28 160.46 73.42 157.21C73.42 157.21 73.42 157.21 73.42 157.21C76.62 157.21 78.4 157.21 78.75 157.21C78.85 160.95 78.1 164.82 76.39 168.3C74.68 171.77 72.05 174.76 68.99 177.01C65.92 179.27 62.44 180.81 58.89 181.8C55.34 182.79 51.69 183.26 48.08 183.32C46.32 183.34 44.41 183.24 42.6 183.02C40.77 182.8 38.95 182.45 37.16 181.96C33.58 180.98 30.09 179.44 26.96 177.22C23.86 174.99 21.15 172.04 19.31 168.55C17.45 165.07 16.54 161.1 16.57 157.24C16.57 157.24 16.57 157.2 16.57 157.2C16.57 157.19 16.57 157.17 16.57 157.16" id="dfAcl0SkV"></path><path d="M20.07 44.91C20.07 31.16 32.6 20.01 48.07 20.01C65.4 20.01 76.06 33.27 76.06 47.02C76.06 34.37 84.73 21.99 100.06 21.99C116.73 21.99 124.06 34.37 124.06 47.02C124.06 33.27 135.72 20.01 152.39 20.01C167.85 20.01 180.08 32.19 180.08 45.95C180.07 49.7 180.05 79.72 180.05 83.47C180.05 118.52 144.24 146.94 100.06 146.94C55.88 146.94 20.07 118.52 20.07 83.47C20.07 75.76 20.07 52.62 20.07 44.91Z" id="e21FpTRyKr"></path><path d="M23.4 44.96L23.41 69.14C23.42 76.4 23.42 80.44 23.42 81.25C23.41 83.32 23.45 85.17 23.57 87.05C23.67 87.99 23.73 88.93 23.87 89.87C23.91 90.14 24.28 92.38 24.32 92.66C25.77 100.07 29.04 107.11 33.55 113.26C38.07 119.41 43.77 124.76 50.2 129.04C56.61 133.36 63.7 136.71 71.11 139.08C74.8 140.29 78.6 141.2 82.43 141.91C86.24 142.64 90.17 143.11 94 143.32C95.87 143.47 97.93 143.48 99.94 143.52C101.77 143.48 103.82 143.5 105.73 143.34C109.63 143.14 113.51 142.66 117.34 141.96C121.18 141.28 124.97 140.35 128.67 139.16C132.37 137.97 136.02 136.61 139.51 134.92C146.51 131.59 153.08 127.34 158.69 122.07C164.3 116.83 169.01 110.64 172.18 103.74C173.77 100.3 174.95 96.68 175.7 92.99C176.06 91.14 176.35 89.25 176.49 87.47C176.61 86.61 176.6 85.53 176.64 84.54C176.64 84.49 176.65 84.24 176.67 83.78C176.67 83.55 176.68 83.43 176.68 83.4C176.68 83.35 176.68 83.54 176.68 83.41C176.68 83.41 176.68 83.38 176.68 83.32L176.68 83.13L176.68 81.62L176.71 57.39C176.71 50.18 176.71 46.17 176.71 45.37C176.63 41.92 175.58 38.49 173.83 35.44C170.29 29.33 163.84 24.92 156.81 23.74C149.77 22.53 142.15 24.15 136.53 28.6C130.79 32.89 127.01 39.82 126.72 47.02C126.72 47.04 126.72 47.16 126.72 47.18C126.66 48.65 125.42 49.79 123.95 49.74C122.5 49.68 121.37 48.47 121.39 47.02C121.39 47.02 121.39 47.02 121.39 47.02C121.24 44.05 120.73 41.11 119.71 38.41C118.73 35.7 117.27 33.22 115.37 31.23C113.46 29.25 111.18 27.68 108.57 26.72C107.28 26.23 105.91 25.88 104.51 25.66C103.82 25.53 103.07 25.46 102.4 25.41C102.05 25.39 101.75 25.35 101.36 25.34C101.24 25.34 100.26 25.32 100.14 25.32C98.83 25.32 97.33 25.41 95.97 25.65C94.59 25.89 93.24 26.27 91.95 26.78C89.37 27.79 87.07 29.41 85.12 31.4C83.17 33.41 81.63 35.86 80.57 38.54C79.46 41.2 78.88 44.1 78.73 47.02C78.73 48.5 77.54 49.69 76.07 49.69C74.62 49.69 73.44 48.54 73.4 47.1C73.4 47.09 73.4 47.03 73.4 47.02C73.32 43.84 72.59 40.68 71.31 37.79C70.04 34.9 68.21 32.26 65.95 30.1C63.68 27.94 61.02 26.23 58.11 25.1C56.65 24.53 55.14 24.1 53.59 23.81C52.81 23.68 52.04 23.55 51.25 23.48C50.43 23.41 49.84 23.36 48.88 23.35C45.68 23.28 42.52 23.71 39.53 24.7C36.54 25.67 33.73 27.18 31.33 29.14C28.92 31.09 26.91 33.5 25.54 36.2C24.85 37.55 24.31 38.97 23.95 40.43C23.77 41.17 23.64 41.91 23.55 42.65C23.54 42.72 23.5 43.07 23.44 43.69L23.4 44.96ZM16.74 44.81C16.76 44.01 16.77 43.56 16.78 43.47C16.82 42.94 16.86 42.39 16.91 41.86C17.04 40.85 17.21 39.85 17.45 38.86C17.92 36.88 18.64 34.97 19.55 33.16C21.37 29.55 23.99 26.4 27.07 23.89C30.16 21.38 33.72 19.52 37.46 18.31C41.2 17.11 45.16 16.57 49.04 16.71C49.85 16.73 51.02 16.82 51.96 16.93C52.94 17.04 53.9 17.21 54.87 17.4C56.79 17.81 58.68 18.39 60.51 19.15C64.16 20.66 67.53 22.9 70.29 25.73C73.05 28.56 75.23 31.93 76.67 35.57C78.1 39.21 78.81 43.13 78.73 47.02C78.2 47.02 73.93 47.02 73.4 47.02C73.25 43.47 73.81 39.88 74.96 36.46C76.15 33.05 77.99 29.83 80.46 27.08C82.9 24.31 86.05 22.13 89.48 20.72C91.2 20.01 92.99 19.49 94.8 19.15C96.63 18.82 98.37 18.66 100.3 18.66C100.42 18.66 101.39 18.69 101.52 18.69C101.94 18.71 102.44 18.76 102.9 18.79C103.84 18.88 104.71 18.98 105.62 19.15C107.41 19.46 109.2 19.94 110.93 20.61C114.38 21.96 117.62 24.12 120.07 26.95C122.54 29.75 124.3 33.07 125.38 36.5C126.42 39.95 126.87 43.52 126.72 47.02C126.72 47.02 126.72 47.02 126.72 47.02C123.52 47.02 121.75 47.02 121.39 47.02C121.26 42.54 122.28 38.03 124.24 34.01C126.2 29.97 129.06 26.39 132.56 23.56C136.07 20.75 140.22 18.72 144.59 17.65C146.77 17.11 149.01 16.8 151.24 16.71C151.3 16.71 151.58 16.7 152.08 16.68L152.57 16.68C152.8 16.69 152.92 16.69 152.95 16.69C153.46 16.7 153.93 16.7 154.56 16.76C155.77 16.84 156.84 16.96 157.96 17.17C166.87 18.67 175.03 24.18 179.62 32.08C181.9 36.02 183.3 40.55 183.41 45.18C183.41 45.99 183.42 50.06 183.43 57.39L183.43 81.62L183.43 83.14L183.42 83.62L183.41 84C183.4 84.45 183.39 84.7 183.39 84.75C183.34 85.78 183.36 86.72 183.23 87.87C183.06 90.11 182.74 92.23 182.32 94.34C181.47 98.55 180.13 102.67 178.34 106.56C174.76 114.37 169.5 121.27 163.33 127.04C157.15 132.85 150 137.47 142.43 141.09C138.65 142.91 134.72 144.4 130.73 145.68C126.75 146.96 122.68 147.96 118.56 148.69C114.45 149.44 110.3 149.95 106.13 150.16C104.02 150.32 102.02 150.3 99.81 150.35C97.78 150.3 95.81 150.29 93.65 150.13C89.42 149.88 85.31 149.39 81.19 148.6C77.08 147.84 73.01 146.85 69.03 145.54C61.06 142.99 53.4 139.36 46.42 134.65C39.42 129.97 33.14 124.11 28.11 117.24C23.08 110.37 19.37 102.41 17.73 93.95C17.54 92.89 17.39 91.83 17.21 90.77C17.06 89.7 16.99 88.62 16.88 87.55C16.74 85.41 16.71 83.21 16.72 81.25C16.72 80.44 16.72 76.4 16.72 69.14C16.73 54.6 16.74 46.52 16.74 44.91C16.74 44.88 16.74 44.84 16.74 44.81" id="a4irXNIOKe"></path><path d="M43.01 52.46C58.94 48.91 78.67 46.81 100.03 46.81C121.43 46.81 141.19 48.9 157.14 52.46" id="a44H0A4uKD"></path><path d="M42.63 50.49C42.63 50.49 44.38 50.09 47.45 49.39C48.98 49.05 50.85 48.64 52.98 48.16C55.09 47.63 57.59 47.3 60.3 46.9C63 46.5 65.94 46.07 69.04 45.61C72.14 45.3 75.41 44.99 78.8 44.72C80.5 44.57 82.22 44.43 83.96 44.28C85.71 44.2 87.48 44.16 89.26 44.1C92.85 44.01 96.5 43.91 100.15 43.81C103.74 43.91 107.33 44.01 110.86 44.1C112.63 44.16 114.37 44.19 116.11 44.28C117.86 44.43 119.6 44.57 121.3 44.72C124.7 44.99 127.99 45.3 131.1 45.61C134.19 46.06 137.11 46.49 139.8 46.89C142.49 47.29 144.96 47.61 147.12 48.15C149.28 48.63 151.16 49.05 152.72 49.39C155.81 50.1 157.58 50.51 157.58 50.51C158.65 50.75 159.32 51.83 159.08 52.9C158.84 53.92 157.86 54.58 156.85 54.43C156.83 54.43 156.72 54.41 156.7 54.41C156.7 54.41 154.94 54.15 151.86 53.7C150.33 53.46 148.47 53.16 146.33 52.83C144.2 52.44 141.75 52.28 139.11 51.96C136.46 51.68 133.59 51.36 130.55 51.03C127.51 50.85 124.31 50.66 121 50.47C119.34 50.36 117.66 50.25 115.96 50.14C114.23 50.1 112.48 50.07 110.71 50.03C107.18 49.96 103.59 49.88 100 49.81C96.47 49.88 92.94 49.96 89.46 50.03C87.71 50.07 85.97 50.1 84.26 50.13C82.55 50.25 80.86 50.35 79.19 50.46C75.86 50.66 72.65 50.85 69.6 51.04C66.58 51.36 63.73 51.67 61.09 51.96C58.46 52.27 56.04 52.42 53.87 52.82C51.7 53.16 49.82 53.46 48.27 53.7C45.16 54.16 43.38 54.42 43.38 54.42C42.29 54.59 41.27 53.84 41.1 52.74C40.94 51.71 41.63 50.73 42.63 50.49" id="j1i3xOAqCw"></path><path d="M96.76 146.94C96.54 103.78 96.42 79.81 96.39 75.01C96.38 72.99 98.02 71.34 100.04 71.33C102.07 71.32 103.72 72.95 103.73 74.98C103.73 74.98 103.73 74.99 103.73 75.01C103.51 118.17 103.38 142.14 103.36 146.94C103.35 148.76 101.87 150.23 100.04 150.22C98.23 150.21 96.77 148.74 96.76 146.94" id="c4Cz7GxYjw"></path><path d="M121.24 99.35C121.24 94.33 125.3 90.27 130.31 90.27C135.33 90.27 139.39 94.33 139.39 99.35C139.39 104.36 135.33 108.42 130.31 108.42C125.3 108.42 121.24 104.36 121.24 99.35" id="d2jMidyLOe"></path><path d="M60.73 99.35C60.73 94.33 64.8 90.27 69.81 90.27C74.82 90.27 78.88 94.33 78.88 99.35C78.88 104.36 74.82 108.42 69.81 108.42C64.8 108.42 60.73 104.36 60.73 99.35" id="c7N7WESRPe"></path></defs><g><g><g><use xlink:href="#bGxnJ47ce" opacity="1" fill="#ffffff" fill-opacity="1"></use><g><use xlink:href="#bGxnJ47ce" opacity="1" fill-opacity="0" stroke="#000000" stroke-width="1" stroke-opacity="0"></use></g></g><g><use xlink:href="#dfAcl0SkV" opacity="1" fill="#1d1d1b" fill-opacity="1"></use><g><use xlink:href="#dfAcl0SkV" opacity="1" fill-opacity="0" stroke="#000000" stroke-width="1" stroke-opacity="0"></use></g></g><g><use xlink:href="#e21FpTRyKr" opacity="1" fill="#ffffff" fill-opacity="1"></use><g><use xlink:href="#e21FpTRyKr" opacity="1" fill-opacity="0" stroke="#000000" stroke-width="1" stroke-opacity="0"></use></g></g><g><use xlink:href="#a4irXNIOKe" opacity="1" fill="#1d1d1b" fill-opacity="1"></use><g><use xlink:href="#a4irXNIOKe" opacity="1" fill-opacity="0" stroke="#000000" stroke-width="1" stroke-opacity="0"></use></g></g><g><use xlink:href="#a44H0A4uKD" opacity="1" fill="#ffffff" fill-opacity="1"></use><g><use xlink:href="#a44H0A4uKD" opacity="1" fill-opacity="0" stroke="#000000" stroke-width="1" stroke-opacity="0"></use></g></g><g><use xlink:href="#j1i3xOAqCw" opacity="1" fill="#1d1d1b" fill-opacity="1"></use><g><use xlink:href="#j1i3xOAqCw" opacity="1" fill-opacity="0" stroke="#000000" stroke-width="1" stroke-opacity="0"></use></g></g><g><use xlink:href="#c4Cz7GxYjw" opacity="1" fill="#1d1d1b" fill-opacity="1"></use><g><use xlink:href="#c4Cz7GxYjw" opacity="1" fill-opacity="0" stroke="#000000" stroke-width="1" stroke-opacity="0"></use></g></g><g><use xlink:href="#d2jMidyLOe" opacity="1" fill="#1d1d1b" fill-opacity="1"></use><g><use xlink:href="#d2jMidyLOe" opacity="1" fill-opacity="0" stroke="#000000" stroke-width="1" stroke-opacity="0"></use></g></g><g><use xlink:href="#c7N7WESRPe" opacity="1" fill="#1d1d1b" fill-opacity="1"></use><g><use xlink:href="#c7N7WESRPe" opacity="1" fill-opacity="0" stroke="#000000" stroke-width="1" stroke-opacity="0"></use></g></g></g></g></svg>